<svg xmlns="http://www.w3.org/2000/svg" xmlns:xlink="http://www.w3.org/1999/xlink" xmlns:lucid="lucid" width="1700" height="941"><g transform="translate(-80 -79)" lucid:page-tab-id="0_0"><path d="M0 0h1870.87v1322.83H0z" fill="#fff"/><path d="M1146 126h608c3.3 0 6 2.7 6 6v862c0 3.3-2.7 6-6 6H106c-3.3 0-6-2.7-6-6V106c0-3.3 2.7-6 6-6h984c3.3 0 8.38 1.24 11.32 2.77zm-1046 0h1046" stroke="#5e5e5e" stroke-width="3" fill="#fff"/><use xlink:href="#a" transform="matrix(1,0,0,1,108,100) translate(414.5185185185185 17.77777777777778)"/><path d="M130.87 186c0-3.3 2.68-6 6-6h468c3.3 0 6 2.7 6 6v310c0 3.3-2.7 6-6 6h-468c-3.32 0-6-2.7-6-6z" stroke="#5e5e5e" stroke-width="3" fill="#fff"/><path d="M130.87 222.67h480m-480 116.66h480" stroke="#5e5e5e" stroke-width="3" fill="none"/><use xlink:href="#b" transform="matrix(1,0,0,1,138.86614173228327,188) translate(117.37037037037041 17.944444444444443)"/><use xlink:href="#c" transform="matrix(1,0,0,1,142.86614173228327,347.3333333333333) translate(127.57284727777777 49.20004622222222)"/><use xlink:href="#c" transform="matrix(1,0,0,1,142.86614173228327,347.3333333333333) translate(127.57284727777777 67.42501155555556)"/><use xlink:href="#d" transform="matrix(1,0,0,1,142.86614173228327,347.3333333333333) translate(5.461360802469187 85.64997688888889)"/><use xlink:href="#e" transform="matrix(1,0,0,1,142.86614173228327,347.3333333333333) translate(400.0824851728394 85.64997688888889)"/><use xlink:href="#f" transform="matrix(1,0,0,1,142.86614173228327,347.3333333333333) translate(-7.40580222222215 103.87494222222222)"/><path d="M695.43 186c0-3.3 2.7-6 6-6h468c3.32 0 6 2.7 6 6v310c0 3.3-2.68 6-6 6h-468c-3.3 0-6-2.7-6-6z" stroke="#5e5e5e" stroke-width="3" fill="#fff"/><path d="M695.43 222.67h480m-480 116.66h480" stroke="#5e5e5e" stroke-width="3" fill="none"/><use xlink:href="#g" transform="matrix(1,0,0,1,703.4330708661416,188) translate(97.00000000000003 17.944444444444443)"/><use xlink:href="#c" transform="matrix(1,0,0,1,707.4330708661416,347.3333333333333) translate(127.57284727777777 49.20004622222222)"/><use xlink:href="#c" transform="matrix(1,0,0,1,707.4330708661416,347.3333333333333) translate(127.57284727777777 67.42501155555556)"/><use xlink:href="#d" transform="matrix(1,0,0,1,707.4330708661416,347.3333333333333) translate(5.461360802469187 85.64997688888889)"/><use xlink:href="#e" transform="matrix(1,0,0,1,707.4330708661416,347.3333333333333) translate(400.0824851728394 85.64997688888889)"/><use xlink:href="#f" transform="matrix(1,0,0,1,707.4330708661416,347.3333333333333) translate(-7.40580222222215 103.87494222222222)"/><path d="M1260 186c0-3.3 2.7-6 6-6h468c3.3 0 6 2.7 6 6v310c0 3.3-2.7 6-6 6h-468c-3.3 0-6-2.7-6-6z" stroke="#5e5e5e" stroke-width="3" fill="#fff"/><path d="M1260 222.67h480m-480 116.66h480" stroke="#5e5e5e" stroke-width="3" fill="none"/><use xlink:href="#h" transform="matrix(1,0,0,1,1268,188) translate(79.16049382716051 17.944444444444443)"/><use xlink:href="#c" transform="matrix(1,0,0,1,1272,347.3333333333333) translate(127.57284727777777 49.20004622222222)"/><use xlink:href="#c" transform="matrix(1,0,0,1,1272,347.3333333333333) translate(127.57284727777777 67.42501155555556)"/><use xlink:href="#d" transform="matrix(1,0,0,1,1272,347.3333333333333) translate(5.461360802469187 85.64997688888889)"/><use xlink:href="#e" transform="matrix(1,0,0,1,1272,347.3333333333333) translate(400.0824851728394 85.64997688888889)"/><use xlink:href="#f" transform="matrix(1,0,0,1,1272,347.3333333333333) translate(-7.40580222222215 103.87494222222222)"/><path d="M130.87 586c0-3.3 2.68-6 6-6h468c3.3 0 6 2.7 6 6v310c0 3.3-2.7 6-6 6h-468c-3.32 0-6-2.7-6-6z" stroke="#5e5e5e" stroke-width="3" fill="#fff"/><path d="M130.87 622.67h480m-480 116.66h480" stroke="#5e5e5e" stroke-width="3" fill="none"/><g><use xlink:href="#i" transform="matrix(1,0,0,1,138.86614173228327,588) translate(108.72839506172843 17.944444444444443)"/></g><g><use xlink:href="#c" transform="matrix(1,0,0,1,142.86614173228327,747.3333333333333) translate(127.57284727777777 49.20004622222222)"/><use xlink:href="#c" transform="matrix(1,0,0,1,142.86614173228327,747.3333333333333) translate(127.57284727777777 67.42501155555556)"/><use xlink:href="#d" transform="matrix(1,0,0,1,142.86614173228327,747.3333333333333) translate(5.461360802469187 85.64997688888889)"/><use xlink:href="#e" transform="matrix(1,0,0,1,142.86614173228327,747.3333333333333) translate(400.0824851728394 85.64997688888889)"/><use xlink:href="#f" transform="matrix(1,0,0,1,142.86614173228327,747.3333333333333) translate(-7.40580222222215 103.87494222222222)"/></g><path d="M1260 586c0-3.3 2.7-6 6-6h468c3.3 0 6 2.7 6 6v310c0 3.3-2.7 6-6 6h-468c-3.3 0-6-2.7-6-6z" stroke="#5e5e5e" stroke-width="3" fill="#fff"/><path d="M1260 622.67h480m-480 116.66h480" stroke="#5e5e5e" stroke-width="3" fill="none"/><g><use xlink:href="#j" transform="matrix(1,0,0,1,1268,588) translate(117.98765432098769 17.944444444444443)"/></g><g><use xlink:href="#c" transform="matrix(1,0,0,1,1272,747.3333333333333) translate(127.57284727777777 49.20004622222222)"/><use xlink:href="#c" transform="matrix(1,0,0,1,1272,747.3333333333333) translate(127.57284727777777 67.42501155555556)"/><use xlink:href="#d" transform="matrix(1,0,0,1,1272,747.3333333333333) translate(5.461360802469187 85.64997688888889)"/><use xlink:href="#e" transform="matrix(1,0,0,1,1272,747.3333333333333) translate(400.0824851728394 85.64997688888889)"/><use xlink:href="#f" transform="matrix(1,0,0,1,1272,747.3333333333333) translate(-7.40580222222215 103.87494222222222)"/></g><path d="M695.43 586c0-3.3 2.7-6 6-6h468c3.32 0 6 2.7 6 6v310c0 3.3-2.68 6-6 6h-468c-3.3 0-6-2.7-6-6z" stroke="#5e5e5e" stroke-width="3" fill="#fff"/><path d="M695.43 622.67h480m-480 116.66h480" stroke="#5e5e5e" stroke-width="3" fill="none"/><g><use xlink:href="#k" transform="matrix(1,0,0,1,703.4330708661416,588) translate(61.84567901234573 17.944444444444443)"/></g><g><use xlink:href="#c" transform="matrix(1,0,0,1,707.4330708661416,747.3333333333333) translate(127.57284727777777 49.20004622222222)"/><use xlink:href="#c" transform="matrix(1,0,0,1,707.4330708661416,747.3333333333333) translate(127.57284727777777 67.42501155555556)"/><use xlink:href="#d" transform="matrix(1,0,0,1,707.4330708661416,747.3333333333333) translate(5.461360802469187 85.64997688888889)"/><use xlink:href="#e" transform="matrix(1,0,0,1,707.4330708661416,747.3333333333333) translate(400.0824851728394 85.64997688888889)"/><use xlink:href="#f" transform="matrix(1,0,0,1,707.4330708661416,747.3333333333333) translate(-7.40580222222215 103.87494222222222)"/></g><defs><path fill="#333" d="M212-179c-10-28-35-45-73-45-59 0-87 40-87 99 0 60 29 101 89 101 43 0 62-24 78-52l27 14C228-24 195 4 139 4 59 4 22-46 18-125c-6-104 99-153 187-111 19 9 31 26 39 46" id="l"/><path fill="#333" d="M100-194c62-1 85 37 85 99 1 63-27 99-86 99S16-35 15-95c0-66 28-99 85-99zM99-20c44 1 53-31 53-75 0-43-8-75-51-75s-53 32-53 75 10 74 51 75" id="m"/><path fill="#333" d="M117-194c89-4 53 116 60 194h-32v-121c0-31-8-49-39-48C34-167 62-67 57 0H25l-1-190h30c1 10-1 24 2 32 11-22 29-35 61-36" id="n"/><path fill="#333" d="M101-234c-31-9-42 10-38 44h38v23H63V0H32v-167H5v-23h27c-7-52 17-82 69-68v24" id="o"/><path fill="#333" d="M24-231v-30h32v30H24zM24 0v-190h32V0H24" id="p"/><path fill="#333" d="M177-190C167-65 218 103 67 71c-23-6-38-20-44-43l32-5c15 47 100 32 89-28v-30C133-14 115 1 83 1 29 1 15-40 15-95c0-56 16-97 71-98 29-1 48 16 59 35 1-10 0-23 2-32h30zM94-22c36 0 50-32 50-73 0-42-14-75-50-75-39 0-46 34-46 75s6 73 46 73" id="q"/><path fill="#333" d="M84 4C-5 8 30-112 23-190h32v120c0 31 7 50 39 49 72-2 45-101 50-169h31l1 190h-30c-1-10 1-25-2-33-11 22-28 36-60 37" id="r"/><path fill="#333" d="M114-163C36-179 61-72 57 0H25l-1-190h30c1 12-1 29 2 39 6-27 23-49 58-41v29" id="s"/><path fill="#333" d="M141-36C126-15 110 5 73 4 37 3 15-17 15-53c-1-64 63-63 125-63 3-35-9-54-41-54-24 1-41 7-42 31l-33-3c5-37 33-52 76-52 45 0 72 20 72 64v82c-1 20 7 32 28 27v20c-31 9-61-2-59-35zM48-53c0 20 12 33 32 33 41-3 63-29 60-74-43 2-92-5-92 41" id="t"/><path fill="#333" d="M59-47c-2 24 18 29 38 22v24C64 9 27 4 27-40v-127H5v-23h24l9-43h21v43h35v23H59v120" id="u"/><path fill="#333" d="M135-143c-3-34-86-38-87 0 15 53 115 12 119 90S17 21 10-45l28-5c4 36 97 45 98 0-10-56-113-15-118-90-4-57 82-63 122-42 12 7 21 19 24 35" id="v"/><g id="a"><use transform="matrix(0.06172839506172839,0,0,0.06172839506172839,0,0)" xlink:href="#l"/><use transform="matrix(0.06172839506172839,0,0,0.06172839506172839,15.987654320987653,0)" xlink:href="#m"/><use transform="matrix(0.06172839506172839,0,0,0.06172839506172839,28.333333333333332,0)" xlink:href="#n"/><use transform="matrix(0.06172839506172839,0,0,0.06172839506172839,40.67901234567901,0)" xlink:href="#o"/><use transform="matrix(0.06172839506172839,0,0,0.06172839506172839,46.851851851851855,0)" xlink:href="#p"/><use transform="matrix(0.06172839506172839,0,0,0.06172839506172839,51.7283950617284,0)" xlink:href="#q"/><use transform="matrix(0.06172839506172839,0,0,0.06172839506172839,64.07407407407408,0)" xlink:href="#r"/><use transform="matrix(0.06172839506172839,0,0,0.06172839506172839,76.41975308641976,0)" xlink:href="#s"/><use transform="matrix(0.06172839506172839,0,0,0.06172839506172839,83.76543209876544,0)" xlink:href="#t"/><use transform="matrix(0.06172839506172839,0,0,0.06172839506172839,96.11111111111113,0)" xlink:href="#u"/><use transform="matrix(0.06172839506172839,0,0,0.06172839506172839,102.28395061728396,0)" xlink:href="#p"/><use transform="matrix(0.06172839506172839,0,0,0.06172839506172839,107.16049382716051,0)" xlink:href="#m"/><use transform="matrix(0.06172839506172839,0,0,0.06172839506172839,119.50617283950619,0)" xlink:href="#n"/><use transform="matrix(0.06172839506172839,0,0,0.06172839506172839,131.85185185185188,0)" xlink:href="#v"/></g><path fill="#333" d="M205 0l-28-72H64L36 0H1l101-248h38L239 0h-34zm-38-99l-47-123c-12 45-31 82-46 123h93" id="w"/><path fill="#333" d="M24 0v-261h32V0H24" id="x"/><path fill="#333" d="M30-248c118-7 216 8 213 122C240-48 200 0 122 0H30v-248zM63-27c89 8 146-16 146-99s-60-101-146-95v194" id="y"/><path fill="#333" d="M185-189c-5-48-123-54-124 2 14 75 158 14 163 119 3 78-121 87-175 55-17-10-28-26-33-46l33-7c5 56 141 63 141-1 0-78-155-14-162-118-5-82 145-84 179-34 5 7 8 16 11 25" id="z"/><path fill="#333" d="M96-169c-40 0-48 33-48 73s9 75 48 75c24 0 41-14 43-38l32 2c-6 37-31 61-74 61-59 0-76-41-82-99-10-93 101-131 147-64 4 7 5 14 7 22l-32 3c-4-21-16-35-41-35" id="A"/><path fill="#333" d="M100-194c63 0 86 42 84 106H49c0 40 14 67 53 68 26 1 43-12 49-29l28 8c-11 28-37 45-77 45C44 4 14-33 15-96c1-61 26-98 85-98zm52 81c6-60-76-77-97-28-3 7-6 17-6 28h103" id="B"/><g id="b"><use transform="matrix(0.06172839506172839,0,0,0.06172839506172839,0,0)" xlink:href="#w"/><use transform="matrix(0.06172839506172839,0,0,0.06172839506172839,14.814814814814813,0)" xlink:href="#x"/><use transform="matrix(0.06172839506172839,0,0,0.06172839506172839,19.691358024691354,0)" xlink:href="#p"/><use transform="matrix(0.06172839506172839,0,0,0.06172839506172839,24.5679012345679,0)" xlink:href="#t"/><use transform="matrix(0.06172839506172839,0,0,0.06172839506172839,36.913580246913575,0)" xlink:href="#v"/><use transform="matrix(0.06172839506172839,0,0,0.06172839506172839,48.02469135802468,0)" xlink:href="#y"/><use transform="matrix(0.06172839506172839,0,0,0.06172839506172839,64.01234567901234,0)" xlink:href="#t"/><use transform="matrix(0.06172839506172839,0,0,0.06172839506172839,76.35802469135803,0)" xlink:href="#u"/><use transform="matrix(0.06172839506172839,0,0,0.06172839506172839,82.53086419753086,0)" xlink:href="#t"/><use transform="matrix(0.06172839506172839,0,0,0.06172839506172839,94.87654320987654,0)" xlink:href="#z"/><use transform="matrix(0.06172839506172839,0,0,0.06172839506172839,109.69135802469135,0)" xlink:href="#m"/><use transform="matrix(0.06172839506172839,0,0,0.06172839506172839,122.03703703703704,0)" xlink:href="#r"/><use transform="matrix(0.06172839506172839,0,0,0.06172839506172839,134.3827160493827,0)" xlink:href="#s"/><use transform="matrix(0.06172839506172839,0,0,0.06172839506172839,141.72839506172838,0)" xlink:href="#A"/><use transform="matrix(0.06172839506172839,0,0,0.06172839506172839,152.8395061728395,0)" xlink:href="#B"/><use transform="matrix(0.06172839506172839,0,0,0.06172839506172839,165.18518518518516,0)" xlink:href="#l"/><use transform="matrix(0.06172839506172839,0,0,0.06172839506172839,181.1728395061728,0)" xlink:href="#m"/><use transform="matrix(0.06172839506172839,0,0,0.06172839506172839,193.51851851851848,0)" xlink:href="#n"/><use transform="matrix(0.06172839506172839,0,0,0.06172839506172839,205.86419753086415,0)" xlink:href="#o"/><use transform="matrix(0.06172839506172839,0,0,0.06172839506172839,212.03703703703698,0)" xlink:href="#p"/><use transform="matrix(0.06172839506172839,0,0,0.06172839506172839,216.9135802469135,0)" xlink:href="#q"/></g><path fill="#333" d="M118-107v75H92v-75H18v-26h74v-75h26v75h74v26h-74" id="C"/><path fill="#333" d="M30-248c87 1 191-15 191 75 0 78-77 80-158 76V0H30v-248zm33 125c57 0 124 11 124-50 0-59-68-47-124-48v98" id="D"/><path fill="#333" d="M115-194c55 1 70 41 70 98S169 2 115 4C84 4 66-9 55-30l1 105H24l-1-265h31l2 30c10-21 28-34 59-34zm-8 174c40 0 45-34 45-75s-6-73-45-74c-42 0-51 32-51 76 0 43 10 73 51 73" id="E"/><path fill="#333" d="M87 75C49 33 22-17 22-94c0-76 28-126 65-167h31c-38 41-64 92-64 168S80 34 118 75H87" id="F"/><path fill="#333" d="M33-261c38 41 65 92 65 168S71 34 33 75H2C39 34 66-17 66-93S39-220 2-261h31" id="G"/><g id="c"><use transform="matrix(0.042187419753086416,0,0,0.042187419753086416,0,0)" xlink:href="#C"/><use transform="matrix(0.042187419753086416,0,0,0.042187419753086416,8.859358148148148,0)" xlink:href="#w"/><use transform="matrix(0.042187419753086416,0,0,0.042187419753086416,18.98433888888889,0)" xlink:href="#x"/><use transform="matrix(0.042187419753086416,0,0,0.042187419753086416,22.317145049382713,0)" xlink:href="#p"/><use transform="matrix(0.042187419753086416,0,0,0.042187419753086416,25.649951209876544,0)" xlink:href="#t"/><use transform="matrix(0.042187419753086416,0,0,0.042187419753086416,34.087435160493825,0)" xlink:href="#v"/><use transform="matrix(0.042187419753086416,0,0,0.042187419753086416,41.68117071604938,0)" xlink:href="#y"/><use transform="matrix(0.042187419753086416,0,0,0.042187419753086416,52.60771243209876,0)" xlink:href="#t"/><use transform="matrix(0.042187419753086416,0,0,0.042187419753086416,61.04519638271606,0)" xlink:href="#u"/><use transform="matrix(0.042187419753086416,0,0,0.042187419753086416,65.26393835802469,0)" xlink:href="#t"/><use transform="matrix(0.042187419753086416,0,0,0.042187419753086416,73.70142230864197,0)" xlink:href="#z"/><use transform="matrix(0.042187419753086416,0,0,0.042187419753086416,83.8264030493827,0)" xlink:href="#m"/><use transform="matrix(0.042187419753086416,0,0,0.042187419753086416,92.26388699999997,0)" xlink:href="#r"/><use transform="matrix(0.042187419753086416,0,0,0.042187419753086416,100.70137095061726,0)" xlink:href="#s"/><use transform="matrix(0.042187419753086416,0,0,0.042187419753086416,105.72167390123454,0)" xlink:href="#A"/><use transform="matrix(0.042187419753086416,0,0,0.042187419753086416,113.31540945679009,0)" xlink:href="#B"/><use transform="matrix(0.042187419753086416,0,0,0.042187419753086416,121.75289340740738,0)" xlink:href="#D"/><use transform="matrix(0.042187419753086416,0,0,0.042187419753086416,131.87787414814812,0)" xlink:href="#s"/><use transform="matrix(0.042187419753086416,0,0,0.042187419753086416,136.89817709876542,0)" xlink:href="#m"/><use transform="matrix(0.042187419753086416,0,0,0.042187419753086416,145.3356610493827,0)" xlink:href="#E"/><use transform="matrix(0.042187419753086416,0,0,0.042187419753086416,153.773145,0)" xlink:href="#B"/><use transform="matrix(0.042187419753086416,0,0,0.042187419753086416,162.2106289506173,0)" xlink:href="#s"/><use transform="matrix(0.042187419753086416,0,0,0.042187419753086416,167.23093190123458,0)" xlink:href="#u"/><use transform="matrix(0.042187419753086416,0,0,0.042187419753086416,171.44967387654322,0)" xlink:href="#p"/><use transform="matrix(0.042187419753086416,0,0,0.042187419753086416,174.78248003703703,0)" xlink:href="#B"/><use transform="matrix(0.042187419753086416,0,0,0.042187419753086416,183.2199639876543,0)" xlink:href="#v"/><use transform="matrix(0.042187419753086416,0,0,0.042187419753086416,190.81369954320985,0)" xlink:href="#F"/><use transform="matrix(0.042187419753086416,0,0,0.042187419753086416,195.83400249382717,0)" xlink:href="#G"/></g><path fill="#333" d="M30 0v-248h187v28H63v79h144v27H63v87h162V0H30" id="H"/><path fill="#333" d="M179-190L93 31C79 59 56 82 12 73V49c39 6 53-20 64-50L1-190h34L92-34l54-156h33" id="I"/><path fill="#333" d="M240 0l2-218c-23 76-54 145-80 218h-23L58-218 59 0H30v-248h44l77 211c21-75 51-140 76-211h43V0h-30" id="J"/><path fill="#333" d="M63-220v92h138v28H63V0H30v-248h175v28H63" id="K"/><path fill="#333" d="M160-131c35 5 61 23 61 61C221 17 115-2 30 0v-248c76 3 177-17 177 60 0 33-19 50-47 57zm-97-11c50-1 110 9 110-42 0-47-63-36-110-37v79zm0 115c55-2 124 14 124-45 0-56-70-42-124-44v89" id="L"/><path fill="#333" d="M85-194c31 0 48 13 60 33l-1-100h32l1 261h-30c-2-10 0-23-3-31C134-8 116 4 85 4 32 4 16-35 15-94c0-66 23-100 70-100zm9 24c-40 0-46 34-46 75 0 40 6 74 45 74 42 0 51-32 51-76 0-42-9-74-50-73" id="M"/><g id="d"><use transform="matrix(0.042187419753086416,0,0,0.042187419753086416,0,0)" xlink:href="#C"/><use transform="matrix(0.042187419753086416,0,0,0.042187419753086416,8.859358148148148,0)" xlink:href="#w"/><use transform="matrix(0.042187419753086416,0,0,0.042187419753086416,18.98433888888889,0)" xlink:href="#x"/><use transform="matrix(0.042187419753086416,0,0,0.042187419753086416,22.317145049382713,0)" xlink:href="#p"/><use transform="matrix(0.042187419753086416,0,0,0.042187419753086416,25.649951209876544,0)" xlink:href="#t"/><use transform="matrix(0.042187419753086416,0,0,0.042187419753086416,34.087435160493825,0)" xlink:href="#v"/><use transform="matrix(0.042187419753086416,0,0,0.042187419753086416,41.68117071604938,0)" xlink:href="#H"/><use transform="matrix(0.042187419753086416,0,0,0.042187419753086416,51.80615145679012,0)" xlink:href="#n"/><use transform="matrix(0.042187419753086416,0,0,0.042187419753086416,60.2436354074074,0)" xlink:href="#u"/><use transform="matrix(0.042187419753086416,0,0,0.042187419753086416,64.46237738271604,0)" xlink:href="#p"/><use transform="matrix(0.042187419753086416,0,0,0.042187419753086416,67.79518354320987,0)" xlink:href="#u"/><use transform="matrix(0.042187419753086416,0,0,0.042187419753086416,72.01392551851852,0)" xlink:href="#I"/><use transform="matrix(0.042187419753086416,0,0,0.042187419753086416,79.60766107407407,0)" xlink:href="#J"/><use transform="matrix(0.042187419753086416,0,0,0.042187419753086416,92.2216995802469,0)" xlink:href="#t"/><use transform="matrix(0.042187419753086416,0,0,0.042187419753086416,100.65918353086418,0)" xlink:href="#n"/><use transform="matrix(0.042187419753086416,0,0,0.042187419753086416,109.09666748148145,0)" xlink:href="#t"/><use transform="matrix(0.042187419753086416,0,0,0.042187419753086416,117.53415143209874,0)" xlink:href="#q"/><use transform="matrix(0.042187419753086416,0,0,0.042187419753086416,125.97163538271602,0)" xlink:href="#B"/><use transform="matrix(0.042187419753086416,0,0,0.042187419753086416,134.4091193333333,0)" xlink:href="#s"/><use transform="matrix(0.042187419753086416,0,0,0.042187419753086416,139.4294222839506,0)" xlink:href="#K"/><use transform="matrix(0.042187419753086416,0,0,0.042187419753086416,148.66846720987652,0)" xlink:href="#t"/><use transform="matrix(0.042187419753086416,0,0,0.042187419753086416,157.10595116049382,0)" xlink:href="#A"/><use transform="matrix(0.042187419753086416,0,0,0.042187419753086416,164.69968671604937,0)" xlink:href="#u"/><use transform="matrix(0.042187419753086416,0,0,0.042187419753086416,168.918428691358,0)" xlink:href="#m"/><use transform="matrix(0.042187419753086416,0,0,0.042187419753086416,177.3559126419753,0)" xlink:href="#s"/><use transform="matrix(0.042187419753086416,0,0,0.042187419753086416,182.3762155925926,0)" xlink:href="#I"/><use transform="matrix(0.042187419753086416,0,0,0.042187419753086416,189.96995114814814,0)" xlink:href="#F"/><use transform="matrix(0.042187419753086416,0,0,0.042187419753086416,194.9902540987654,0)" xlink:href="#H"/><use transform="matrix(0.042187419753086416,0,0,0.042187419753086416,205.11523483950614,0)" xlink:href="#n"/><use transform="matrix(0.042187419753086416,0,0,0.042187419753086416,213.5527187901235,0)" xlink:href="#u"/><use transform="matrix(0.042187419753086416,0,0,0.042187419753086416,217.7714607654321,0)" xlink:href="#p"/><use transform="matrix(0.042187419753086416,0,0,0.042187419753086416,221.1042669259259,0)" xlink:href="#u"/><use transform="matrix(0.042187419753086416,0,0,0.042187419753086416,225.32300890123454,0)" xlink:href="#I"/><use transform="matrix(0.042187419753086416,0,0,0.042187419753086416,232.9167444567901,0)" xlink:href="#J"/><use transform="matrix(0.042187419753086416,0,0,0.042187419753086416,245.53078296296295,0)" xlink:href="#t"/><use transform="matrix(0.042187419753086416,0,0,0.042187419753086416,253.96826691358024,0)" xlink:href="#n"/><use transform="matrix(0.042187419753086416,0,0,0.042187419753086416,262.4057508641975,0)" xlink:href="#t"/><use transform="matrix(0.042187419753086416,0,0,0.042187419753086416,270.84323481481476,0)" xlink:href="#q"/><use transform="matrix(0.042187419753086416,0,0,0.042187419753086416,279.280718765432,0)" xlink:href="#B"/><use transform="matrix(0.042187419753086416,0,0,0.042187419753086416,287.7182027160493,0)" xlink:href="#s"/><use transform="matrix(0.042187419753086416,0,0,0.042187419753086416,292.7385056666666,0)" xlink:href="#K"/><use transform="matrix(0.042187419753086416,0,0,0.042187419753086416,301.97755059259254,0)" xlink:href="#t"/><use transform="matrix(0.042187419753086416,0,0,0.042187419753086416,310.4150345432098,0)" xlink:href="#A"/><use transform="matrix(0.042187419753086416,0,0,0.042187419753086416,318.00877009876535,0)" xlink:href="#u"/><use transform="matrix(0.042187419753086416,0,0,0.042187419753086416,322.227512074074,0)" xlink:href="#m"/><use transform="matrix(0.042187419753086416,0,0,0.042187419753086416,330.6649960246913,0)" xlink:href="#s"/><use transform="matrix(0.042187419753086416,0,0,0.042187419753086416,335.68529897530857,0)" xlink:href="#I"/><use transform="matrix(0.042187419753086416,0,0,0.042187419753086416,343.2790345308641,0)" xlink:href="#L"/><use transform="matrix(0.042187419753086416,0,0,0.042187419753086416,353.4040152716048,0)" xlink:href="#r"/><use transform="matrix(0.042187419753086416,0,0,0.042187419753086416,361.8414992222221,0)" xlink:href="#p"/><use transform="matrix(0.042187419753086416,0,0,0.042187419753086416,365.17430538271594,0)" xlink:href="#x"/><use transform="matrix(0.042187419753086416,0,0,0.042187419753086416,368.50711154320976,0)" xlink:href="#M"/><use transform="matrix(0.042187419753086416,0,0,0.042187419753086416,376.9445954938271,0)" xlink:href="#B"/><use transform="matrix(0.042187419753086416,0,0,0.042187419753086416,385.3820794444443,0)" xlink:href="#s"/></g><path fill="#333" d="M115-194c53 0 69 39 70 98 0 66-23 100-70 100C84 3 66-7 56-30L54 0H23l1-261h32v101c10-23 28-34 59-34zm-8 174c40 0 45-34 45-75 0-40-5-75-45-74-42 0-51 32-51 76 0 43 10 73 51 73" id="N"/><g id="e"><use transform="matrix(0.042187419753086416,0,0,0.042187419753086416,0,0)" xlink:href="#N"/><use transform="matrix(0.042187419753086416,0,0,0.042187419753086416,8.437483950617283,0)" xlink:href="#r"/><use transform="matrix(0.042187419753086416,0,0,0.042187419753086416,16.874967901234566,0)" xlink:href="#p"/><use transform="matrix(0.042187419753086416,0,0,0.042187419753086416,20.207774061728394,0)" xlink:href="#x"/><use transform="matrix(0.042187419753086416,0,0,0.042187419753086416,23.54058022222222,0)" xlink:href="#M"/><use transform="matrix(0.042187419753086416,0,0,0.042187419753086416,31.978064172839503,0)" xlink:href="#B"/><use transform="matrix(0.042187419753086416,0,0,0.042187419753086416,40.41554812345679,0)" xlink:href="#s"/><use transform="matrix(0.042187419753086416,0,0,0.042187419753086416,45.43585107407407,0)" xlink:href="#G"/></g><path fill="#333" d="M127-220V0H93v-220H8v-28h204v28h-85" id="O"/><path fill="#333" d="M30 0v-248h33v221h125V0H30" id="P"/><g id="f"><use transform="matrix(0.042187419753086416,0,0,0.042187419753086416,0,0)" xlink:href="#C"/><use transform="matrix(0.042187419753086416,0,0,0.042187419753086416,8.859358148148148,0)" xlink:href="#w"/><use transform="matrix(0.042187419753086416,0,0,0.042187419753086416,18.98433888888889,0)" xlink:href="#x"/><use transform="matrix(0.042187419753086416,0,0,0.042187419753086416,22.317145049382713,0)" xlink:href="#p"/><use transform="matrix(0.042187419753086416,0,0,0.042187419753086416,25.649951209876544,0)" xlink:href="#t"/><use transform="matrix(0.042187419753086416,0,0,0.042187419753086416,34.087435160493825,0)" xlink:href="#v"/><use transform="matrix(0.042187419753086416,0,0,0.042187419753086416,41.68117071604938,0)" xlink:href="#O"/><use transform="matrix(0.042187419753086416,0,0,0.042187419753086416,50.37177918518518,0)" xlink:href="#s"/><use transform="matrix(0.042187419753086416,0,0,0.042187419753086416,55.39208213580247,0)" xlink:href="#t"/><use transform="matrix(0.042187419753086416,0,0,0.042187419753086416,63.82956608641976,0)" xlink:href="#n"/><use transform="matrix(0.042187419753086416,0,0,0.042187419753086416,72.26705003703704,0)" xlink:href="#v"/><use transform="matrix(0.042187419753086416,0,0,0.042187419753086416,79.86078559259259,0)" xlink:href="#t"/><use transform="matrix(0.042187419753086416,0,0,0.042187419753086416,88.29826954320987,0)" xlink:href="#A"/><use transform="matrix(0.042187419753086416,0,0,0.042187419753086416,95.89200509876542,0)" xlink:href="#u"/><use transform="matrix(0.042187419753086416,0,0,0.042187419753086416,100.11074707407407,0)" xlink:href="#p"/><use transform="matrix(0.042187419753086416,0,0,0.042187419753086416,103.44355323456789,0)" xlink:href="#m"/><use transform="matrix(0.042187419753086416,0,0,0.042187419753086416,111.88103718518518,0)" xlink:href="#n"/><use transform="matrix(0.042187419753086416,0,0,0.042187419753086416,120.31852113580246,0)" xlink:href="#J"/><use transform="matrix(0.042187419753086416,0,0,0.042187419753086416,132.9325596419753,0)" xlink:href="#t"/><use transform="matrix(0.042187419753086416,0,0,0.042187419753086416,141.3700435925926,0)" xlink:href="#n"/><use transform="matrix(0.042187419753086416,0,0,0.042187419753086416,149.8075275432099,0)" xlink:href="#t"/><use transform="matrix(0.042187419753086416,0,0,0.042187419753086416,158.24501149382718,0)" xlink:href="#q"/><use transform="matrix(0.042187419753086416,0,0,0.042187419753086416,166.68249544444447,0)" xlink:href="#B"/><use transform="matrix(0.042187419753086416,0,0,0.042187419753086416,175.11997939506176,0)" xlink:href="#s"/><use transform="matrix(0.042187419753086416,0,0,0.042187419753086416,180.14028234567903,0)" xlink:href="#F"/><use transform="matrix(0.042187419753086416,0,0,0.042187419753086416,185.16058529629635,0)" xlink:href="#P"/><use transform="matrix(0.042187419753086416,0,0,0.042187419753086416,193.59806924691364,0)" xlink:href="#m"/><use transform="matrix(0.042187419753086416,0,0,0.042187419753086416,202.03555319753093,0)" xlink:href="#A"/><use transform="matrix(0.042187419753086416,0,0,0.042187419753086416,209.62928875308648,0)" xlink:href="#t"/><use transform="matrix(0.042187419753086416,0,0,0.042187419753086416,218.06677270370378,0)" xlink:href="#x"/><use transform="matrix(0.042187419753086416,0,0,0.042187419753086416,221.3995788641976,0)" xlink:href="#l"/><use transform="matrix(0.042187419753086416,0,0,0.042187419753086416,232.32612058024696,0)" xlink:href="#m"/><use transform="matrix(0.042187419753086416,0,0,0.042187419753086416,240.76360453086426,0)" xlink:href="#n"/><use transform="matrix(0.042187419753086416,0,0,0.042187419753086416,249.20108848148155,0)" xlink:href="#u"/><use transform="matrix(0.042187419753086416,0,0,0.042187419753086416,253.41983045679018,0)" xlink:href="#t"/><use transform="matrix(0.042187419753086416,0,0,0.042187419753086416,261.85731440740744,0)" xlink:href="#p"/><use transform="matrix(0.042187419753086416,0,0,0.042187419753086416,265.19012056790126,0)" xlink:href="#n"/><use transform="matrix(0.042187419753086416,0,0,0.042187419753086416,273.6276045185185,0)" xlink:href="#B"/><use transform="matrix(0.042187419753086416,0,0,0.042187419753086416,282.0650884691358,0)" xlink:href="#s"/><use transform="matrix(0.042187419753086416,0,0,0.042187419753086416,287.0853914197531,0)" xlink:href="#H"/><use transform="matrix(0.042187419753086416,0,0,0.042187419753086416,297.2103721604938,0)" xlink:href="#n"/><use transform="matrix(0.042187419753086416,0,0,0.042187419753086416,305.6478561111111,0)" xlink:href="#u"/><use transform="matrix(0.042187419753086416,0,0,0.042187419753086416,309.86659808641974,0)" xlink:href="#p"/><use transform="matrix(0.042187419753086416,0,0,0.042187419753086416,313.19940424691356,0)" xlink:href="#u"/><use transform="matrix(0.042187419753086416,0,0,0.042187419753086416,317.4181462222222,0)" xlink:href="#I"/><use transform="matrix(0.042187419753086416,0,0,0.042187419753086416,325.0118817777778,0)" xlink:href="#J"/><use transform="matrix(0.042187419753086416,0,0,0.042187419753086416,337.6259202839506,0)" xlink:href="#t"/><use transform="matrix(0.042187419753086416,0,0,0.042187419753086416,346.0634042345679,0)" xlink:href="#n"/><use transform="matrix(0.042187419753086416,0,0,0.042187419753086416,354.50088818518515,0)" xlink:href="#t"/><use transform="matrix(0.042187419753086416,0,0,0.042187419753086416,362.93837213580247,0)" xlink:href="#q"/><use transform="matrix(0.042187419753086416,0,0,0.042187419753086416,371.3758560864197,0)" xlink:href="#B"/><use transform="matrix(0.042187419753086416,0,0,0.042187419753086416,379.81334003703694,0)" xlink:href="#s"/><use transform="matrix(0.042187419753086416,0,0,0.042187419753086416,384.83364298765423,0)" xlink:href="#K"/><use transform="matrix(0.042187419753086416,0,0,0.042187419753086416,394.07268791358024,0)" xlink:href="#t"/><use transform="matrix(0.042187419753086416,0,0,0.042187419753086416,402.51017186419745,0)" xlink:href="#A"/><use transform="matrix(0.042187419753086416,0,0,0.042187419753086416,410.103907419753,0)" xlink:href="#u"/><use transform="matrix(0.042187419753086416,0,0,0.042187419753086416,414.3226493950617,0)" xlink:href="#m"/><use transform="matrix(0.042187419753086416,0,0,0.042187419753086416,422.7601333456789,0)" xlink:href="#s"/><use transform="matrix(0.042187419753086416,0,0,0.042187419753086416,427.78043629629616,0)" xlink:href="#I"/><use transform="matrix(0.042187419753086416,0,0,0.042187419753086416,435.3741718518517,0)" xlink:href="#L"/><use transform="matrix(0.042187419753086416,0,0,0.042187419753086416,445.4991525925925,0)" xlink:href="#B"/><use transform="matrix(0.042187419753086416,0,0,0.042187419753086416,453.9366365432098,0)" xlink:href="#t"/><use transform="matrix(0.042187419753086416,0,0,0.042187419753086416,462.37412049382704,0)" xlink:href="#n"/></g><path fill="#333" d="M143 0L79-87 56-68V0H24v-261h32v163l83-92h37l-77 82L181 0h-38" id="Q"/><g id="g"><use transform="matrix(0.06172839506172839,0,0,0.06172839506172839,0,0)" xlink:href="#L"/><use transform="matrix(0.06172839506172839,0,0,0.06172839506172839,14.814814814814813,0)" xlink:href="#x"/><use transform="matrix(0.06172839506172839,0,0,0.06172839506172839,19.691358024691354,0)" xlink:href="#t"/><use transform="matrix(0.06172839506172839,0,0,0.06172839506172839,32.03703703703703,0)" xlink:href="#A"/><use transform="matrix(0.06172839506172839,0,0,0.06172839506172839,43.14814814814814,0)" xlink:href="#Q"/><use transform="matrix(0.06172839506172839,0,0,0.06172839506172839,54.25925925925925,0)" xlink:href="#P"/><use transform="matrix(0.06172839506172839,0,0,0.06172839506172839,66.60493827160494,0)" xlink:href="#p"/><use transform="matrix(0.06172839506172839,0,0,0.06172839506172839,71.48148148148148,0)" xlink:href="#v"/><use transform="matrix(0.06172839506172839,0,0,0.06172839506172839,82.5925925925926,0)" xlink:href="#u"/><use transform="matrix(0.06172839506172839,0,0,0.06172839506172839,88.76543209876543,0)" xlink:href="#y"/><use transform="matrix(0.06172839506172839,0,0,0.06172839506172839,104.75308641975309,0)" xlink:href="#t"/><use transform="matrix(0.06172839506172839,0,0,0.06172839506172839,117.09876543209877,0)" xlink:href="#u"/><use transform="matrix(0.06172839506172839,0,0,0.06172839506172839,123.27160493827161,0)" xlink:href="#t"/><use transform="matrix(0.06172839506172839,0,0,0.06172839506172839,135.6172839506173,0)" xlink:href="#z"/><use transform="matrix(0.06172839506172839,0,0,0.06172839506172839,150.4320987654321,0)" xlink:href="#m"/><use transform="matrix(0.06172839506172839,0,0,0.06172839506172839,162.77777777777777,0)" xlink:href="#r"/><use transform="matrix(0.06172839506172839,0,0,0.06172839506172839,175.12345679012344,0)" xlink:href="#s"/><use transform="matrix(0.06172839506172839,0,0,0.06172839506172839,182.4691358024691,0)" xlink:href="#A"/><use transform="matrix(0.06172839506172839,0,0,0.06172839506172839,193.58024691358023,0)" xlink:href="#B"/><use transform="matrix(0.06172839506172839,0,0,0.06172839506172839,205.9259259259259,0)" xlink:href="#l"/><use transform="matrix(0.06172839506172839,0,0,0.06172839506172839,221.91358024691354,0)" xlink:href="#m"/><use transform="matrix(0.06172839506172839,0,0,0.06172839506172839,234.2592592592592,0)" xlink:href="#n"/><use transform="matrix(0.06172839506172839,0,0,0.06172839506172839,246.60493827160488,0)" xlink:href="#o"/><use transform="matrix(0.06172839506172839,0,0,0.06172839506172839,252.77777777777771,0)" xlink:href="#p"/><use transform="matrix(0.06172839506172839,0,0,0.06172839506172839,257.6543209876543,0)" xlink:href="#q"/></g><g id="h"><use transform="matrix(0.06172839506172839,0,0,0.06172839506172839,0,0)" xlink:href="#y"/><use transform="matrix(0.06172839506172839,0,0,0.06172839506172839,15.987654320987653,0)" xlink:href="#B"/><use transform="matrix(0.06172839506172839,0,0,0.06172839506172839,28.333333333333332,0)" xlink:href="#x"/><use transform="matrix(0.06172839506172839,0,0,0.06172839506172839,33.20987654320987,0)" xlink:href="#B"/><use transform="matrix(0.06172839506172839,0,0,0.06172839506172839,45.55555555555555,0)" xlink:href="#u"/><use transform="matrix(0.06172839506172839,0,0,0.06172839506172839,51.72839506172839,0)" xlink:href="#B"/><use transform="matrix(0.06172839506172839,0,0,0.06172839506172839,64.07407407407408,0)" xlink:href="#M"/><use transform="matrix(0.06172839506172839,0,0,0.06172839506172839,76.41975308641976,0)" xlink:href="#w"/><use transform="matrix(0.06172839506172839,0,0,0.06172839506172839,91.23456790123457,0)" xlink:href="#x"/><use transform="matrix(0.06172839506172839,0,0,0.06172839506172839,96.11111111111111,0)" xlink:href="#p"/><use transform="matrix(0.06172839506172839,0,0,0.06172839506172839,100.98765432098766,0)" xlink:href="#t"/><use transform="matrix(0.06172839506172839,0,0,0.06172839506172839,113.33333333333334,0)" xlink:href="#v"/><use transform="matrix(0.06172839506172839,0,0,0.06172839506172839,124.44444444444446,0)" xlink:href="#y"/><use transform="matrix(0.06172839506172839,0,0,0.06172839506172839,140.4320987654321,0)" xlink:href="#t"/><use transform="matrix(0.06172839506172839,0,0,0.06172839506172839,152.77777777777777,0)" xlink:href="#u"/><use transform="matrix(0.06172839506172839,0,0,0.06172839506172839,158.9506172839506,0)" xlink:href="#t"/><use transform="matrix(0.06172839506172839,0,0,0.06172839506172839,171.29629629629628,0)" xlink:href="#z"/><use transform="matrix(0.06172839506172839,0,0,0.06172839506172839,186.1111111111111,0)" xlink:href="#m"/><use transform="matrix(0.06172839506172839,0,0,0.06172839506172839,198.45679012345676,0)" xlink:href="#r"/><use transform="matrix(0.06172839506172839,0,0,0.06172839506172839,210.80246913580243,0)" xlink:href="#s"/><use transform="matrix(0.06172839506172839,0,0,0.06172839506172839,218.1481481481481,0)" xlink:href="#A"/><use transform="matrix(0.06172839506172839,0,0,0.06172839506172839,229.2592592592592,0)" xlink:href="#B"/><use transform="matrix(0.06172839506172839,0,0,0.06172839506172839,241.60493827160488,0)" xlink:href="#l"/><use transform="matrix(0.06172839506172839,0,0,0.06172839506172839,257.59259259259255,0)" xlink:href="#m"/><use transform="matrix(0.06172839506172839,0,0,0.06172839506172839,269.9382716049382,0)" xlink:href="#n"/><use transform="matrix(0.06172839506172839,0,0,0.06172839506172839,282.2839506172839,0)" xlink:href="#o"/><use transform="matrix(0.06172839506172839,0,0,0.06172839506172839,288.45679012345676,0)" xlink:href="#p"/><use transform="matrix(0.06172839506172839,0,0,0.06172839506172839,293.3333333333333,0)" xlink:href="#q"/></g><path fill="#333" d="M33 0v-248h34V0H33" id="R"/><g id="i"><use transform="matrix(0.06172839506172839,0,0,0.06172839506172839,0,0)" xlink:href="#J"/><use transform="matrix(0.06172839506172839,0,0,0.06172839506172839,18.456790123456788,0)" xlink:href="#t"/><use transform="matrix(0.06172839506172839,0,0,0.06172839506172839,30.80246913580247,0)" xlink:href="#E"/><use transform="matrix(0.06172839506172839,0,0,0.06172839506172839,43.148148148148145,0)" xlink:href="#R"/><use transform="matrix(0.06172839506172839,0,0,0.06172839506172839,49.32098765432099,0)" xlink:href="#y"/><use transform="matrix(0.06172839506172839,0,0,0.06172839506172839,65.30864197530865,0)" xlink:href="#y"/><use transform="matrix(0.06172839506172839,0,0,0.06172839506172839,81.2962962962963,0)" xlink:href="#t"/><use transform="matrix(0.06172839506172839,0,0,0.06172839506172839,93.64197530864199,0)" xlink:href="#u"/><use transform="matrix(0.06172839506172839,0,0,0.06172839506172839,99.81481481481482,0)" xlink:href="#t"/><use transform="matrix(0.06172839506172839,0,0,0.06172839506172839,112.16049382716051,0)" xlink:href="#z"/><use transform="matrix(0.06172839506172839,0,0,0.06172839506172839,126.97530864197533,0)" xlink:href="#m"/><use transform="matrix(0.06172839506172839,0,0,0.06172839506172839,139.320987654321,0)" xlink:href="#r"/><use transform="matrix(0.06172839506172839,0,0,0.06172839506172839,151.66666666666666,0)" xlink:href="#s"/><use transform="matrix(0.06172839506172839,0,0,0.06172839506172839,159.01234567901233,0)" xlink:href="#A"/><use transform="matrix(0.06172839506172839,0,0,0.06172839506172839,170.12345679012344,0)" xlink:href="#B"/><use transform="matrix(0.06172839506172839,0,0,0.06172839506172839,182.4691358024691,0)" xlink:href="#l"/><use transform="matrix(0.06172839506172839,0,0,0.06172839506172839,198.45679012345676,0)" xlink:href="#m"/><use transform="matrix(0.06172839506172839,0,0,0.06172839506172839,210.80246913580243,0)" xlink:href="#n"/><use transform="matrix(0.06172839506172839,0,0,0.06172839506172839,223.1481481481481,0)" xlink:href="#o"/><use transform="matrix(0.06172839506172839,0,0,0.06172839506172839,229.32098765432093,0)" xlink:href="#p"/><use transform="matrix(0.06172839506172839,0,0,0.06172839506172839,234.19753086419746,0)" xlink:href="#q"/></g><path fill="#333" d="M232-93c-1 65-40 97-104 97C67 4 28-28 28-90v-158h33c8 89-33 224 67 224 102 0 64-133 71-224h33v155" id="S"/><g id="j"><use transform="matrix(0.06172839506172839,0,0,0.06172839506172839,0,0)" xlink:href="#S"/><use transform="matrix(0.06172839506172839,0,0,0.06172839506172839,15.987654320987653,0)" xlink:href="#v"/><use transform="matrix(0.06172839506172839,0,0,0.06172839506172839,27.098765432098766,0)" xlink:href="#B"/><use transform="matrix(0.06172839506172839,0,0,0.06172839506172839,39.44444444444444,0)" xlink:href="#s"/><use transform="matrix(0.06172839506172839,0,0,0.06172839506172839,46.79012345679012,0)" xlink:href="#y"/><use transform="matrix(0.06172839506172839,0,0,0.06172839506172839,62.77777777777777,0)" xlink:href="#t"/><use transform="matrix(0.06172839506172839,0,0,0.06172839506172839,75.12345679012346,0)" xlink:href="#u"/><use transform="matrix(0.06172839506172839,0,0,0.06172839506172839,81.29629629629629,0)" xlink:href="#t"/><use transform="matrix(0.06172839506172839,0,0,0.06172839506172839,93.64197530864197,0)" xlink:href="#z"/><use transform="matrix(0.06172839506172839,0,0,0.06172839506172839,108.45679012345678,0)" xlink:href="#m"/><use transform="matrix(0.06172839506172839,0,0,0.06172839506172839,120.80246913580247,0)" xlink:href="#r"/><use transform="matrix(0.06172839506172839,0,0,0.06172839506172839,133.14814814814815,0)" xlink:href="#s"/><use transform="matrix(0.06172839506172839,0,0,0.06172839506172839,140.49382716049382,0)" xlink:href="#A"/><use transform="matrix(0.06172839506172839,0,0,0.06172839506172839,151.60493827160494,0)" xlink:href="#B"/><use transform="matrix(0.06172839506172839,0,0,0.06172839506172839,163.9506172839506,0)" xlink:href="#l"/><use transform="matrix(0.06172839506172839,0,0,0.06172839506172839,179.93827160493825,0)" xlink:href="#m"/><use transform="matrix(0.06172839506172839,0,0,0.06172839506172839,192.28395061728392,0)" xlink:href="#n"/><use transform="matrix(0.06172839506172839,0,0,0.06172839506172839,204.6296296296296,0)" xlink:href="#o"/><use transform="matrix(0.06172839506172839,0,0,0.06172839506172839,210.80246913580243,0)" xlink:href="#p"/><use transform="matrix(0.06172839506172839,0,0,0.06172839506172839,215.67901234567896,0)" xlink:href="#q"/></g><g id="k"><use transform="matrix(0.06172839506172839,0,0,0.06172839506172839,0,0)" xlink:href="#w"/><use transform="matrix(0.06172839506172839,0,0,0.06172839506172839,14.814814814814813,0)" xlink:href="#x"/><use transform="matrix(0.06172839506172839,0,0,0.06172839506172839,19.691358024691354,0)" xlink:href="#p"/><use transform="matrix(0.06172839506172839,0,0,0.06172839506172839,24.5679012345679,0)" xlink:href="#t"/><use transform="matrix(0.06172839506172839,0,0,0.06172839506172839,36.913580246913575,0)" xlink:href="#v"/><use transform="matrix(0.06172839506172839,0,0,0.06172839506172839,48.02469135802468,0)" xlink:href="#z"/><use transform="matrix(0.06172839506172839,0,0,0.06172839506172839,62.83950617283949,0)" xlink:href="#r"/><use transform="matrix(0.06172839506172839,0,0,0.06172839506172839,75.18518518518518,0)" xlink:href="#q"/><use transform="matrix(0.06172839506172839,0,0,0.06172839506172839,87.53086419753086,0)" xlink:href="#q"/><use transform="matrix(0.06172839506172839,0,0,0.06172839506172839,99.87654320987654,0)" xlink:href="#B"/><use transform="matrix(0.06172839506172839,0,0,0.06172839506172839,112.22222222222223,0)" xlink:href="#v"/><use transform="matrix(0.06172839506172839,0,0,0.06172839506172839,123.33333333333334,0)" xlink:href="#u"/><use transform="matrix(0.06172839506172839,0,0,0.06172839506172839,129.50617283950618,0)" xlink:href="#p"/><use transform="matrix(0.06172839506172839,0,0,0.06172839506172839,134.3827160493827,0)" xlink:href="#m"/><use transform="matrix(0.06172839506172839,0,0,0.06172839506172839,146.72839506172838,0)" xlink:href="#n"/><use transform="matrix(0.06172839506172839,0,0,0.06172839506172839,159.07407407407405,0)" xlink:href="#y"/><use transform="matrix(0.06172839506172839,0,0,0.06172839506172839,175.0617283950617,0)" xlink:href="#t"/><use transform="matrix(0.06172839506172839,0,0,0.06172839506172839,187.40740740740736,0)" xlink:href="#u"/><use transform="matrix(0.06172839506172839,0,0,0.06172839506172839,193.5802469135802,0)" xlink:href="#t"/><use transform="matrix(0.06172839506172839,0,0,0.06172839506172839,205.92592592592587,0)" xlink:href="#z"/><use transform="matrix(0.06172839506172839,0,0,0.06172839506172839,220.74074074074068,0)" xlink:href="#m"/><use transform="matrix(0.06172839506172839,0,0,0.06172839506172839,233.08641975308635,0)" xlink:href="#r"/><use transform="matrix(0.06172839506172839,0,0,0.06172839506172839,245.43209876543202,0)" xlink:href="#s"/><use transform="matrix(0.06172839506172839,0,0,0.06172839506172839,252.7777777777777,0)" xlink:href="#A"/><use transform="matrix(0.06172839506172839,0,0,0.06172839506172839,263.8888888888888,0)" xlink:href="#B"/><use transform="matrix(0.06172839506172839,0,0,0.06172839506172839,276.23456790123447,0)" xlink:href="#l"/><use transform="matrix(0.06172839506172839,0,0,0.06172839506172839,292.2222222222221,0)" xlink:href="#m"/><use transform="matrix(0.06172839506172839,0,0,0.06172839506172839,304.5679012345678,0)" xlink:href="#n"/><use transform="matrix(0.06172839506172839,0,0,0.06172839506172839,316.91358024691345,0)" xlink:href="#o"/><use transform="matrix(0.06172839506172839,0,0,0.06172839506172839,323.0864197530863,0)" xlink:href="#p"/><use transform="matrix(0.06172839506172839,0,0,0.06172839506172839,327.9629629629629,0)" xlink:href="#q"/></g></defs></g></svg>