<svg xmlns="http://www.w3.org/2000/svg" xmlns:xlink="http://www.w3.org/1999/xlink" xmlns:lucid="lucid" width="1100" height="1301"><g transform="translate(-385.43307086614163 -19)" lucid:page-tab-id="0_0"><path d="M0 0h1870.87v1322.83H0z" fill="#fff"/><path d="M1073.43 66h386c3.32 0 6 2.7 6 6v1222c0 3.3-2.68 6-6 6h-1048c-3.3 0-6-2.7-6-6V46c0-3.3 2.7-6 6-6h624c3.32 0 8.1 1.7 10.66 3.78zm-668 0h668" stroke="#5e5e5e" stroke-width="3" fill="#fff"/><use xlink:href="#a" transform="matrix(1,0,0,1,413.43307086614163,40) translate(270.25925925925924 17.77777777777778)"/><path d="M485.43 106c0-3.3 2.7-6 6-6h348c3.32 0 6 2.7 6 6v348c0 3.3-2.68 6-6 6h-348c-3.3 0-6-2.7-6-6z" stroke="#333" stroke-width="3" fill="#fff"/><path d="M485.43 142.67h360m-360 132.04h360" stroke="#333" stroke-width="3" fill="none"/><use xlink:href="#b" transform="matrix(1,0,0,1,493.43307086614163,108) translate(148.60493827160494 17.944444444444443)"/><use xlink:href="#c" transform="matrix(1,0,0,1,497.43307086614163,150.66666666666669) translate(131.722969 28.150588444444452)"/><use xlink:href="#d" transform="matrix(1,0,0,1,497.43307086614163,150.66666666666669) translate(157.9625644074074 28.150588444444452)"/><use xlink:href="#e" transform="matrix(1,0,0,1,497.43307086614163,150.66666666666669) translate(168.5005545308642 28.150588444444452)"/><use xlink:href="#f" transform="matrix(1,0,0,1,497.43307086614163,150.66666666666669) translate(108.56573570370372 50.91264711111111)"/><use xlink:href="#d" transform="matrix(1,0,0,1,497.43307086614163,150.66666666666669) translate(167.47310049382716 50.91264711111111)"/><use xlink:href="#g" transform="matrix(1,0,0,1,497.43307086614163,150.66666666666669) translate(178.01109061728397 50.91264711111111)"/><use xlink:href="#h" transform="matrix(1,0,0,1,497.43307086614163,150.66666666666669) translate(21.46924733333333 73.67470577777777)"/><use xlink:href="#i" transform="matrix(1,0,0,1,497.43307086614163,150.66666666666669) translate(33.00834651851851 73.67470577777777)"/><use xlink:href="#d" transform="matrix(1,0,0,1,497.43307086614163,150.66666666666669) translate(127.69218777777776 73.67470577777777)"/><use xlink:href="#j" transform="matrix(1,0,0,1,497.43307086614163,150.66666666666669) translate(138.23017790123455 73.67470577777777)"/><use xlink:href="#k" transform="matrix(1,0,0,1,497.43307086614163,150.66666666666669) translate(248.14141488888887 73.67470577777777)"/><use xlink:href="#l" transform="matrix(1,0,0,1,497.43307086614163,150.66666666666669) translate(90.88825727160496 96.43676444444444)"/><use xlink:href="#m" transform="matrix(1,0,0,1,497.43307086614163,282.71490133333333) translate(29.861111111111143 28.500000000000014)"/><use xlink:href="#n" transform="matrix(1,0,0,1,497.43307086614163,282.71490133333333) translate(250.63888888888889 28.500000000000014)"/><use xlink:href="#o" transform="matrix(1,0,0,1,497.43307086614163,282.71490133333333) translate(118.66666666666669 52.500000000000014)"/><use xlink:href="#p" transform="matrix(1,0,0,1,497.43307086614163,282.71490133333333) translate(80.66666666666667 76.5)"/><use xlink:href="#q" transform="matrix(1,0,0,1,497.43307086614163,282.71490133333333) translate(192.11111111111111 76.5)"/><use xlink:href="#r" transform="matrix(1,0,0,1,497.43307086614163,282.71490133333333) translate(203.22222222222223 76.5)"/><use xlink:href="#s" transform="matrix(1,0,0,1,497.43307086614163,282.71490133333333) translate(106.1388888888889 100.5)"/><use xlink:href="#q" transform="matrix(1,0,0,1,497.43307086614163,282.71490133333333) translate(181.02777777777777 100.5)"/><use xlink:href="#t" transform="matrix(1,0,0,1,497.43307086614163,282.71490133333333) translate(192.13888888888889 100.5)"/><use xlink:href="#u" transform="matrix(1,0,0,1,497.43307086614163,282.71490133333333) translate(31.02777777777777 124.5)"/><use xlink:href="#q" transform="matrix(1,0,0,1,497.43307086614163,282.71490133333333) translate(183.52777777777774 124.5)"/><use xlink:href="#v" transform="matrix(1,0,0,1,497.43307086614163,282.71490133333333) translate(194.63888888888886 124.5)"/><use xlink:href="#w" transform="matrix(1,0,0,1,497.43307086614163,282.71490133333333) translate(48.916666666666686 148.5)"/><use xlink:href="#x" transform="matrix(1,0,0,1,497.43307086614163,282.71490133333333) translate(124.47222222222223 148.5)"/><path d="M1025.43 106c0-3.3 2.7-6 6-6h348c3.32 0 6 2.7 6 6v348c0 3.3-2.68 6-6 6h-348c-3.3 0-6-2.7-6-6z" stroke="#333" stroke-width="3" fill="#fff"/><path d="M1025.43 142.67h360m-360 120.78h360" stroke="#333" stroke-width="3" fill="none"/><g><use xlink:href="#y" transform="matrix(1,0,0,1,1033.4330708661419,108) translate(147.98765432098764 17.944444444444443)"/></g><g><use xlink:href="#c" transform="matrix(1,0,0,1,1037.4330708661419,150.66666666666669) translate(131.722969 33.53161777777778)"/><use xlink:href="#d" transform="matrix(1,0,0,1,1037.4330708661419,150.66666666666669) translate(157.9625644074074 33.53161777777778)"/><use xlink:href="#e" transform="matrix(1,0,0,1,1037.4330708661419,150.66666666666669) translate(168.5005545308642 33.53161777777778)"/><use xlink:href="#f" transform="matrix(1,0,0,1,1037.4330708661419,150.66666666666669) translate(108.56573570370372 56.29367644444444)"/><use xlink:href="#d" transform="matrix(1,0,0,1,1037.4330708661419,150.66666666666669) translate(167.47310049382716 56.29367644444444)"/><use xlink:href="#g" transform="matrix(1,0,0,1,1037.4330708661419,150.66666666666669) translate(178.01109061728397 56.29367644444444)"/><use xlink:href="#h" transform="matrix(1,0,0,1,1037.4330708661419,150.66666666666669) translate(116.46922829629631 79.0557351111111)"/><use xlink:href="#z" transform="matrix(1,0,0,1,1037.4330708661419,150.66666666666669) translate(128.0083274814815 79.0557351111111)"/><use xlink:href="#d" transform="matrix(1,0,0,1,1037.4330708661419,150.66666666666669) translate(189.0232902962963 79.0557351111111)"/><use xlink:href="#A" transform="matrix(1,0,0,1,1037.4330708661419,150.66666666666669) translate(199.56128041975307 79.0557351111111)"/></g><g><use xlink:href="#B" transform="matrix(1,0,0,1,1037.4330708661419,271.4528426666667) translate(29.861111111111143 34.500000000000014)"/><use xlink:href="#n" transform="matrix(1,0,0,1,1037.4330708661419,271.4528426666667) translate(250.63888888888889 34.500000000000014)"/><use xlink:href="#o" transform="matrix(1,0,0,1,1037.4330708661419,271.4528426666667) translate(118.66666666666669 58.500000000000014)"/><use xlink:href="#p" transform="matrix(1,0,0,1,1037.4330708661419,271.4528426666667) translate(80.66666666666667 82.5)"/><use xlink:href="#q" transform="matrix(1,0,0,1,1037.4330708661419,271.4528426666667) translate(192.11111111111111 82.5)"/><use xlink:href="#r" transform="matrix(1,0,0,1,1037.4330708661419,271.4528426666667) translate(203.22222222222223 82.5)"/><use xlink:href="#s" transform="matrix(1,0,0,1,1037.4330708661419,271.4528426666667) translate(106.1388888888889 106.5)"/><use xlink:href="#q" transform="matrix(1,0,0,1,1037.4330708661419,271.4528426666667) translate(181.02777777777777 106.5)"/><use xlink:href="#t" transform="matrix(1,0,0,1,1037.4330708661419,271.4528426666667) translate(192.13888888888889 106.5)"/><use xlink:href="#u" transform="matrix(1,0,0,1,1037.4330708661419,271.4528426666667) translate(31.02777777777777 130.5)"/><use xlink:href="#q" transform="matrix(1,0,0,1,1037.4330708661419,271.4528426666667) translate(183.52777777777774 130.5)"/><use xlink:href="#v" transform="matrix(1,0,0,1,1037.4330708661419,271.4528426666667) translate(194.63888888888886 130.5)"/><use xlink:href="#w" transform="matrix(1,0,0,1,1037.4330708661419,271.4528426666667) translate(48.916666666666686 154.5)"/><use xlink:href="#x" transform="matrix(1,0,0,1,1037.4330708661419,271.4528426666667) translate(124.47222222222223 154.5)"/></g><path d="M485.43 506c0-3.3 2.7-6 6-6h348c3.32 0 6 2.7 6 6v536c0 3.3-2.68 6-6 6h-348c-3.3 0-6-2.7-6-6z" stroke="#333" stroke-width="3" fill="#fff"/><path d="M485.43 542.67h360m-360 189.07h360" stroke="#333" stroke-width="3" fill="none"/><g><use xlink:href="#C" transform="matrix(1,0,0,1,493.43307086614163,508) translate(92.46296296296298 17.944444444444443)"/></g><g><use xlink:href="#c" transform="matrix(1,0,0,1,497.43307086614163,550.6666666666666) translate(131.722969 33.88852977777779)"/><use xlink:href="#d" transform="matrix(1,0,0,1,497.43307086614163,550.6666666666666) translate(157.9625644074074 33.88852977777779)"/><use xlink:href="#e" transform="matrix(1,0,0,1,497.43307086614163,550.6666666666666) translate(168.5005545308642 33.88852977777779)"/><use xlink:href="#f" transform="matrix(1,0,0,1,497.43307086614163,550.6666666666666) translate(108.56573570370372 56.65058844444445)"/><use xlink:href="#d" transform="matrix(1,0,0,1,497.43307086614163,550.6666666666666) translate(167.47310049382716 56.65058844444445)"/><use xlink:href="#g" transform="matrix(1,0,0,1,497.43307086614163,550.6666666666666) translate(178.01109061728397 56.65058844444445)"/><use xlink:href="#D" transform="matrix(1,0,0,1,497.43307086614163,550.6666666666666) translate(107.53828166666668 79.41264711111111)"/><use xlink:href="#d" transform="matrix(1,0,0,1,497.43307086614163,550.6666666666666) translate(177.98474564197528 79.41264711111111)"/><use xlink:href="#E" transform="matrix(1,0,0,1,497.43307086614163,550.6666666666666) translate(188.5227357654321 79.41264711111111)"/><use xlink:href="#F" transform="matrix(1,0,0,1,497.43307086614163,550.6666666666666) translate(107.98614624691359 102.17470577777777)"/><use xlink:href="#d" transform="matrix(1,0,0,1,497.43307086614163,550.6666666666666) translate(197.506372345679 102.17470577777777)"/><use xlink:href="#G" transform="matrix(1,0,0,1,497.43307086614163,550.6666666666666) translate(208.04436246913582 102.17470577777777)"/><use xlink:href="#H" transform="matrix(1,0,0,1,497.43307086614163,550.6666666666666) translate(107.45924674074075 124.93676444444444)"/><use xlink:href="#d" transform="matrix(1,0,0,1,497.43307086614163,550.6666666666666) translate(198.03327185185185 124.93676444444444)"/><use xlink:href="#G" transform="matrix(1,0,0,1,497.43307086614163,550.6666666666666) translate(208.57126197530863 124.93676444444444)"/><use xlink:href="#I" transform="matrix(1,0,0,1,497.43307086614163,550.6666666666666) translate(32.24434223456791 147.6988231111111)"/><use xlink:href="#d" transform="matrix(1,0,0,1,497.43307086614163,550.6666666666666) translate(139.5737716419753 147.6988231111111)"/><use xlink:href="#J" transform="matrix(1,0,0,1,497.43307086614163,550.6666666666666) translate(150.1117617654321 147.6988231111111)"/><use xlink:href="#d" transform="matrix(1,0,0,1,497.43307086614163,550.6666666666666) translate(232.72960433333333 147.6988231111111)"/><use xlink:href="#K" transform="matrix(1,0,0,1,497.43307086614163,550.6666666666666) translate(243.2675944567901 147.6988231111111)"/></g><g><use xlink:href="#L" transform="matrix(1,0,0,1,497.43307086614163,739.7390186666667) translate(7.111111111111143 34.50000000000003)"/><use xlink:href="#n" transform="matrix(1,0,0,1,497.43307086614163,739.7390186666667) translate(273.38888888888886 34.50000000000003)"/><use xlink:href="#M" transform="matrix(1,0,0,1,497.43307086614163,739.7390186666667) translate(133.6388888888889 58.50000000000003)"/><use xlink:href="#p" transform="matrix(1,0,0,1,497.43307086614163,739.7390186666667) translate(80.66666666666667 82.50000000000003)"/><use xlink:href="#q" transform="matrix(1,0,0,1,497.43307086614163,739.7390186666667) translate(192.11111111111111 82.50000000000003)"/><use xlink:href="#r" transform="matrix(1,0,0,1,497.43307086614163,739.7390186666667) translate(203.22222222222223 82.50000000000003)"/><use xlink:href="#s" transform="matrix(1,0,0,1,497.43307086614163,739.7390186666667) translate(106.1388888888889 106.50000000000001)"/><use xlink:href="#q" transform="matrix(1,0,0,1,497.43307086614163,739.7390186666667) translate(181.02777777777777 106.50000000000001)"/><use xlink:href="#t" transform="matrix(1,0,0,1,497.43307086614163,739.7390186666667) translate(192.13888888888889 106.50000000000001)"/><use xlink:href="#N" transform="matrix(1,0,0,1,497.43307086614163,739.7390186666667) translate(79.02777777777777 130.5)"/><use xlink:href="#q" transform="matrix(1,0,0,1,497.43307086614163,739.7390186666667) translate(203.75 130.5)"/><use xlink:href="#O" transform="matrix(1,0,0,1,497.43307086614163,739.7390186666667) translate(214.86111111111111 130.5)"/><use xlink:href="#P" transform="matrix(1,0,0,1,497.43307086614163,739.7390186666667) translate(0.722222222222257 154.5)"/><use xlink:href="#q" transform="matrix(1,0,0,1,497.43307086614163,739.7390186666667) translate(162.16666666666669 154.5)"/><use xlink:href="#Q" transform="matrix(1,0,0,1,497.43307086614163,739.7390186666667) translate(173.2777777777778 154.5)"/><use xlink:href="#q" transform="matrix(1,0,0,1,497.43307086614163,739.7390186666667) translate(260.3888888888889 154.5)"/><use xlink:href="#R" transform="matrix(1,0,0,1,497.43307086614163,739.7390186666667) translate(271.5 154.5)"/><use xlink:href="#S" transform="matrix(1,0,0,1,497.43307086614163,739.7390186666667) translate(36.80555555555557 178.5)"/><use xlink:href="#q" transform="matrix(1,0,0,1,497.43307086614163,739.7390186666667) translate(229.36111111111111 178.5)"/><use xlink:href="#T" transform="matrix(1,0,0,1,497.43307086614163,739.7390186666667) translate(240.47222222222223 178.5)"/><use xlink:href="#U" transform="matrix(1,0,0,1,497.43307086614163,739.7390186666667) translate(80.58333333333336 202.5)"/><use xlink:href="#q" transform="matrix(1,0,0,1,497.43307086614163,739.7390186666667) translate(223.25 202.5)"/><use xlink:href="#V" transform="matrix(1,0,0,1,497.43307086614163,739.7390186666667) translate(234.3611111111111 202.5)"/><use xlink:href="#W" transform="matrix(1,0,0,1,497.43307086614163,739.7390186666667) translate(79.50000000000001 226.5)"/><use xlink:href="#q" transform="matrix(1,0,0,1,497.43307086614163,739.7390186666667) translate(224.33333333333331 226.5)"/><use xlink:href="#V" transform="matrix(1,0,0,1,497.43307086614163,739.7390186666667) translate(235.44444444444446 226.5)"/><use xlink:href="#X" transform="matrix(1,0,0,1,497.43307086614163,739.7390186666667) translate(100.00000000000001 250.5)"/><use xlink:href="#Y" transform="matrix(1,0,0,1,497.43307086614163,739.7390186666667) translate(98.91666666666667 274.5)"/></g><path d="M1025.43 506c0-3.3 2.7-6 6-6h348c3.32 0 6 2.7 6 6v301c0 3.3-2.68 6-6 6h-348c-3.3 0-6-2.7-6-6z" stroke="#333" stroke-width="3" fill="#fff"/><path d="M1025.43 542.67h360m-360 98.02h360" stroke="#333" stroke-width="3" fill="none"/><g><use xlink:href="#Z" transform="matrix(1,0,0,1,1033.4330708661419,508) translate(139.34567901234567 17.944444444444443)"/></g><g><use xlink:href="#c" transform="matrix(1,0,0,1,1037.4330708661419,550.6666666666666) translate(139.6264615925926 33.91264711111111)"/><use xlink:href="#d" transform="matrix(1,0,0,1,1037.4330708661419,550.6666666666666) translate(165.86605699999998 33.91264711111111)"/><use xlink:href="#G" transform="matrix(1,0,0,1,1037.4330708661419,550.6666666666666) translate(176.4040471234568 33.91264711111111)"/><use xlink:href="#f" transform="matrix(1,0,0,1,1037.4330708661419,550.6666666666666) translate(108.56573570370372 56.674705777777774)"/><use xlink:href="#d" transform="matrix(1,0,0,1,1037.4330708661419,550.6666666666666) translate(167.47310049382716 56.674705777777774)"/><use xlink:href="#aa" transform="matrix(1,0,0,1,1037.4330708661419,550.6666666666666) translate(178.01109061728397 56.674705777777774)"/></g><g><use xlink:href="#ab" transform="matrix(1,0,0,1,1037.4330708661419,648.6907839999999) translate(32.13888888888894 34.50000000000001)"/><use xlink:href="#ac" transform="matrix(1,0,0,1,1037.4330708661419,648.6907839999999) translate(297.25 34.50000000000001)"/><use xlink:href="#p" transform="matrix(1,0,0,1,1037.4330708661419,648.6907839999999) translate(80.66666666666667 58.5)"/><use xlink:href="#q" transform="matrix(1,0,0,1,1037.4330708661419,648.6907839999999) translate(192.11111111111111 58.5)"/><use xlink:href="#r" transform="matrix(1,0,0,1,1037.4330708661419,648.6907839999999) translate(203.22222222222223 58.5)"/><use xlink:href="#s" transform="matrix(1,0,0,1,1037.4330708661419,648.6907839999999) translate(106.1388888888889 82.5)"/><use xlink:href="#q" transform="matrix(1,0,0,1,1037.4330708661419,648.6907839999999) translate(181.02777777777777 82.5)"/><use xlink:href="#t" transform="matrix(1,0,0,1,1037.4330708661419,648.6907839999999) translate(192.13888888888889 82.5)"/><use xlink:href="#ad" transform="matrix(1,0,0,1,1037.4330708661419,648.6907839999999) translate(56.250000000000014 106.5)"/><use xlink:href="#q" transform="matrix(1,0,0,1,1037.4330708661419,648.6907839999999) translate(209.91666666666669 106.5)"/><use xlink:href="#ae" transform="matrix(1,0,0,1,1037.4330708661419,648.6907839999999) translate(221.02777777777777 106.5)"/><use xlink:href="#p" transform="matrix(1,0,0,1,1037.4330708661419,648.6907839999999) translate(80.66666666666667 130.5)"/><use xlink:href="#q" transform="matrix(1,0,0,1,1037.4330708661419,648.6907839999999) translate(192.11111111111111 130.5)"/><use xlink:href="#af" transform="matrix(1,0,0,1,1037.4330708661419,648.6907839999999) translate(203.22222222222223 130.5)"/></g><path d="M1025.43 859c0-3.3 2.7-6 6-6h348c3.32 0 6 2.7 6 6v268c0 3.3-2.68 6-6 6h-348c-3.3 0-6-2.7-6-6z" stroke="#5e5e5e" stroke-width="3" fill="#fff"/><path d="M1025.43 895.67h360m-360 131.83h360" stroke="#5e5e5e" stroke-width="3" fill="none"/><g><use xlink:href="#ag" transform="matrix(1,0,0,1,1033.4330708661419,861) translate(101.72222222222223 17.944444444444443)"/></g><g><use xlink:href="#ah" transform="matrix(1,0,0,1,1037.4330708661419,903.6666666666666) translate(125.5 49.111111111111114)"/><use xlink:href="#ai" transform="matrix(1,0,0,1,1037.4330708661419,903.6666666666666) translate(156.24074074074073 49.111111111111114)"/><use xlink:href="#aj" transform="matrix(1,0,0,1,1037.4330708661419,903.6666666666666) translate(168.58641975308643 49.111111111111114)"/><use xlink:href="#ak" transform="matrix(1,0,0,1,1037.4330708661419,903.6666666666666) translate(98.37037037037038 75.77777777777777)"/><use xlink:href="#ai" transform="matrix(1,0,0,1,1037.4330708661419,903.6666666666666) translate(167.38271604938274 75.77777777777777)"/><use xlink:href="#al" transform="matrix(1,0,0,1,1037.4330708661419,903.6666666666666) translate(179.7283950617284 75.77777777777777)"/></g><g><use xlink:href="#am" transform="matrix(1,0,0,1,1037.4330708661419,1035.5) translate(70.96296296296296 49.44444444444444)"/><use xlink:href="#ai" transform="matrix(1,0,0,1,1037.4330708661419,1035.5) translate(194.79012345679013 49.44444444444444)"/><use xlink:href="#al" transform="matrix(1,0,0,1,1037.4330708661419,1035.5) translate(207.1358024691358 49.44444444444444)"/></g><defs><path fill="#333" d="M240 0l2-218c-23 76-54 145-80 218h-23L58-218 59 0H30v-248h44l77 211c21-75 51-140 76-211h43V0h-30" id="an"/><path fill="#333" d="M100-194c62-1 85 37 85 99 1 63-27 99-86 99S16-35 15-95c0-66 28-99 85-99zM99-20c44 1 53-31 53-75 0-43-8-75-51-75s-53 32-53 75 10 74 51 75" id="ao"/><path fill="#333" d="M85-194c31 0 48 13 60 33l-1-100h32l1 261h-30c-2-10 0-23-3-31C134-8 116 4 85 4 32 4 16-35 15-94c0-66 23-100 70-100zm9 24c-40 0-46 34-46 75 0 40 6 74 45 74 42 0 51-32 51-76 0-42-9-74-50-73" id="ap"/><path fill="#333" d="M100-194c63 0 86 42 84 106H49c0 40 14 67 53 68 26 1 43-12 49-29l28 8c-11 28-37 45-77 45C44 4 14-33 15-96c1-61 26-98 85-98zm52 81c6-60-76-77-97-28-3 7-6 17-6 28h103" id="aq"/><path fill="#333" d="M24 0v-261h32V0H24" id="ar"/><path fill="#333" d="M135-143c-3-34-86-38-87 0 15 53 115 12 119 90S17 21 10-45l28-5c4 36 97 45 98 0-10-56-113-15-118-90-4-57 82-63 122-42 12 7 21 19 24 35" id="as"/><g id="a"><use transform="matrix(0.06172839506172839,0,0,0.06172839506172839,0,0)" xlink:href="#an"/><use transform="matrix(0.06172839506172839,0,0,0.06172839506172839,18.456790123456788,0)" xlink:href="#ao"/><use transform="matrix(0.06172839506172839,0,0,0.06172839506172839,30.80246913580247,0)" xlink:href="#ap"/><use transform="matrix(0.06172839506172839,0,0,0.06172839506172839,43.148148148148145,0)" xlink:href="#aq"/><use transform="matrix(0.06172839506172839,0,0,0.06172839506172839,55.49382716049382,0)" xlink:href="#ar"/><use transform="matrix(0.06172839506172839,0,0,0.06172839506172839,60.37037037037037,0)" xlink:href="#as"/></g><path fill="#333" d="M232-93c-1 65-40 97-104 97C67 4 28-28 28-90v-158h33c8 89-33 224 67 224 102 0 64-133 71-224h33v155" id="at"/><path fill="#333" d="M114-163C36-179 61-72 57 0H25l-1-190h30c1 12-1 29 2 39 6-27 23-49 58-41v29" id="au"/><g id="b"><use transform="matrix(0.06172839506172839,0,0,0.06172839506172839,0,0)" xlink:href="#at"/><use transform="matrix(0.06172839506172839,0,0,0.06172839506172839,15.987654320987653,0)" xlink:href="#as"/><use transform="matrix(0.06172839506172839,0,0,0.06172839506172839,27.098765432098766,0)" xlink:href="#aq"/><use transform="matrix(0.06172839506172839,0,0,0.06172839506172839,39.44444444444444,0)" xlink:href="#au"/></g><path fill="#333" d="M16-82v-28h88v28H16" id="av"/><path fill="#333" d="M24-231v-30h32v30H24zM24 0v-190h32V0H24" id="aw"/><g id="c"><use transform="matrix(0.05268995061728394,0,0,0.05268995061728394,0,0)" xlink:href="#av"/><use transform="matrix(0.05268995061728394,0,0,0.05268995061728394,6.270104123456789,0)" xlink:href="#aw"/><use transform="matrix(0.05268995061728394,0,0,0.05268995061728394,10.43261022222222,0)" xlink:href="#ap"/></g><path fill="#333" d="M33-154v-36h34v36H33zM33 0v-36h34V0H33" id="ax"/><use transform="matrix(0.05268995061728394,0,0,0.05268995061728394,0,0)" xlink:href="#ax" id="d"/><path fill="#333" d="M117-194c89-4 53 116 60 194h-32v-121c0-31-8-49-39-48C34-167 62-67 57 0H25l-1-190h30c1 10-1 24 2 32 11-22 29-35 61-36" id="ay"/><path fill="#333" d="M177-190C167-65 218 103 67 71c-23-6-38-20-44-43l32-5c15 47 100 32 89-28v-30C133-14 115 1 83 1 29 1 15-40 15-95c0-56 16-97 71-98 29-1 48 16 59 35 1-10 0-23 2-32h30zM94-22c36 0 50-32 50-73 0-42-14-75-50-75-39 0-46 34-46 75s6 73 46 73" id="az"/><g id="e"><use transform="matrix(0.05268995061728394,0,0,0.05268995061728394,0,0)" xlink:href="#ar"/><use transform="matrix(0.05268995061728394,0,0,0.05268995061728394,4.162506098765431,0)" xlink:href="#ao"/><use transform="matrix(0.05268995061728394,0,0,0.05268995061728394,14.700496222222222,0)" xlink:href="#ay"/><use transform="matrix(0.05268995061728394,0,0,0.05268995061728394,25.238486345679007,0)" xlink:href="#az"/></g><path fill="#333" d="M141-36C126-15 110 5 73 4 37 3 15-17 15-53c-1-64 63-63 125-63 3-35-9-54-41-54-24 1-41 7-42 31l-33-3c5-37 33-52 76-52 45 0 72 20 72 64v82c-1 20 7 32 28 27v20c-31 9-61-2-59-35zM48-53c0 20 12 33 32 33 41-3 63-29 60-74-43 2-92-5-92 41" id="aA"/><path fill="#333" d="M210-169c-67 3-38 105-44 169h-31v-121c0-29-5-50-35-48C34-165 62-65 56 0H25l-1-190h30c1 10-1 24 2 32 10-44 99-50 107 0 11-21 27-35 58-36 85-2 47 119 55 194h-31v-121c0-29-5-49-35-48" id="aB"/><g id="f"><use transform="matrix(0.05268995061728394,0,0,0.05268995061728394,0,0)" xlink:href="#av"/><use transform="matrix(0.05268995061728394,0,0,0.05268995061728394,6.270104123456789,0)" xlink:href="#ay"/><use transform="matrix(0.05268995061728394,0,0,0.05268995061728394,16.808094246913576,0)" xlink:href="#aA"/><use transform="matrix(0.05268995061728394,0,0,0.05268995061728394,27.346084370370363,0)" xlink:href="#aB"/><use transform="matrix(0.05268995061728394,0,0,0.05268995061728394,43.10037960493826,0)" xlink:href="#aq"/></g><path fill="#333" d="M185-189c-5-48-123-54-124 2 14 75 158 14 163 119 3 78-121 87-175 55-17-10-28-26-33-46l33-7c5 56 141 63 141-1 0-78-155-14-162-118-5-82 145-84 179-34 5 7 8 16 11 25" id="aC"/><path fill="#333" d="M59-47c-2 24 18 29 38 22v24C64 9 27 4 27-40v-127H5v-23h24l9-43h21v43h35v23H59v120" id="aD"/><g id="g"><use transform="matrix(0.05268995061728394,0,0,0.05268995061728394,0,0)" xlink:href="#aC"/><use transform="matrix(0.05268995061728394,0,0,0.05268995061728394,12.645588148148144,0)" xlink:href="#aD"/><use transform="matrix(0.05268995061728394,0,0,0.05268995061728394,17.91458320987654,0)" xlink:href="#au"/><use transform="matrix(0.05268995061728394,0,0,0.05268995061728394,24.18468733333333,0)" xlink:href="#aw"/><use transform="matrix(0.05268995061728394,0,0,0.05268995061728394,28.34719343209876,0)" xlink:href="#ay"/><use transform="matrix(0.05268995061728394,0,0,0.05268995061728394,38.88518355555555,0)" xlink:href="#az"/></g><use transform="matrix(0.05268995061728394,0,0,0.05268995061728394,0,0)" xlink:href="#av" id="h"/><path fill="#333" d="M205 0l-28-72H64L36 0H1l101-248h38L239 0h-34zm-38-99l-47-123c-12 45-31 82-46 123h93" id="aE"/><path fill="#333" d="M84 4C-5 8 30-112 23-190h32v120c0 31 7 50 39 49 72-2 45-101 50-169h31l1 190h-30c-1-10 1-25-2-33-11 22-28 36-60 37" id="aF"/><path fill="#333" d="M106-169C34-169 62-67 57 0H25v-261h32l-1 103c12-21 28-36 61-36 89 0 53 116 60 194h-32v-121c2-32-8-49-39-48" id="aG"/><g id="i"><use transform="matrix(0.05268995061728394,0,0,0.05268995061728394,0,0)" xlink:href="#aE"/><use transform="matrix(0.05268995061728394,0,0,0.05268995061728394,12.645588148148144,0)" xlink:href="#aF"/><use transform="matrix(0.05268995061728394,0,0,0.05268995061728394,23.183578271604933,0)" xlink:href="#aD"/><use transform="matrix(0.05268995061728394,0,0,0.05268995061728394,28.452573333333326,0)" xlink:href="#aG"/><use transform="matrix(0.05268995061728394,0,0,0.05268995061728394,38.99056345679011,0)" xlink:href="#ao"/><use transform="matrix(0.05268995061728394,0,0,0.05268995061728394,49.5285535802469,0)" xlink:href="#au"/><use transform="matrix(0.05268995061728394,0,0,0.05268995061728394,55.79865770370369,0)" xlink:href="#aw"/><use transform="matrix(0.05268995061728394,0,0,0.05268995061728394,59.96116380246912,0)" xlink:href="#aD"/><use transform="matrix(0.05268995061728394,0,0,0.05268995061728394,65.23015886419752,0)" xlink:href="#aw"/><use transform="matrix(0.05268995061728394,0,0,0.05268995061728394,69.39266496296295,0)" xlink:href="#aq"/><use transform="matrix(0.05268995061728394,0,0,0.05268995061728394,79.93065508641975,0)" xlink:href="#as"/></g><path fill="#333" d="M212-179c-10-28-35-45-73-45-59 0-87 40-87 99 0 60 29 101 89 101 43 0 62-24 78-52l27 14C228-24 195 4 139 4 59 4 22-46 18-125c-6-104 99-153 187-111 19 9 31 26 39 46" id="aH"/><path fill="#333" d="M96-169c-40 0-48 33-48 73s9 75 48 75c24 0 41-14 43-38l32 2c-6 37-31 61-74 61-59 0-76-41-82-99-10-93 101-131 147-64 4 7 5 14 7 22l-32 3c-4-21-16-35-41-35" id="aI"/><path fill="#333" d="M18-100v-36l175-74v27L42-118l151 64v27" id="aJ"/><path fill="#333" d="M103-251c84 0 111 97 45 133-19 10-37 24-39 52H78c0-63 77-55 77-114 0-30-21-42-52-43-32 0-53 17-56 46l-32-2c7-45 34-72 88-72zM77 0v-35h34V0H77" id="aK"/><g id="j"><use transform="matrix(0.05268995061728394,0,0,0.05268995061728394,0,0)" xlink:href="#aH"/><use transform="matrix(0.05268995061728394,0,0,0.05268995061728394,13.64669720987654,0)" xlink:href="#ao"/><use transform="matrix(0.05268995061728394,0,0,0.05268995061728394,24.18468733333333,0)" xlink:href="#ar"/><use transform="matrix(0.05268995061728394,0,0,0.05268995061728394,28.34719343209876,0)" xlink:href="#ar"/><use transform="matrix(0.05268995061728394,0,0,0.05268995061728394,32.50969953086419,0)" xlink:href="#aq"/><use transform="matrix(0.05268995061728394,0,0,0.05268995061728394,43.047689654320976,0)" xlink:href="#aI"/><use transform="matrix(0.05268995061728394,0,0,0.05268995061728394,52.531880765432085,0)" xlink:href="#aD"/><use transform="matrix(0.05268995061728394,0,0,0.05268995061728394,57.80087582716048,0)" xlink:href="#aw"/><use transform="matrix(0.05268995061728394,0,0,0.05268995061728394,61.96338192592591,0)" xlink:href="#ao"/><use transform="matrix(0.05268995061728394,0,0,0.05268995061728394,72.50137204938271,0)" xlink:href="#ay"/><use transform="matrix(0.05268995061728394,0,0,0.05268995061728394,83.0393621728395,0)" xlink:href="#aJ"/><use transform="matrix(0.05268995061728394,0,0,0.05268995061728394,94.10425180246914,0)" xlink:href="#aK"/></g><path fill="#333" d="M141 0L90-78 38 0H4l68-98-65-92h35l48 74 47-74h35l-64 92 68 98h-35" id="aL"/><g id="k"><use transform="matrix(0.05268995061728394,0,0,0.05268995061728394,0,0)" xlink:href="#aq"/><use transform="matrix(0.05268995061728394,0,0,0.05268995061728394,10.537990123456789,0)" xlink:href="#aL"/><use transform="matrix(0.05268995061728394,0,0,0.05268995061728394,20.022181234567896,0)" xlink:href="#aD"/><use transform="matrix(0.05268995061728394,0,0,0.05268995061728394,25.29117629629629,0)" xlink:href="#aq"/><use transform="matrix(0.05268995061728394,0,0,0.05268995061728394,35.82916641975308,0)" xlink:href="#ay"/><use transform="matrix(0.05268995061728394,0,0,0.05268995061728394,46.367156543209866,0)" xlink:href="#ap"/><use transform="matrix(0.05268995061728394,0,0,0.05268995061728394,56.90514666666665,0)" xlink:href="#as"/></g><path fill="#333" d="M143 4C61 4 22-44 18-125c-5-107 100-154 193-111 17 8 29 25 37 43l-32 9c-13-25-37-40-76-40-61 0-88 39-88 99 0 61 29 100 91 101 35 0 62-11 79-27v-45h-74v-28h105v86C228-13 192 4 143 4" id="aM"/><path fill="#333" d="M179-190L93 31C79 59 56 82 12 73V49c39 6 53-20 64-50L1-190h34L92-34l54-156h33" id="aN"/><path fill="#333" d="M18-27v-27l151-64-151-65v-27l175 74v36" id="aO"/><g id="l"><use transform="matrix(0.05268995061728394,0,0,0.05268995061728394,0,0)" xlink:href="#aM"/><use transform="matrix(0.05268995061728394,0,0,0.05268995061728394,14.753186172839502,0)" xlink:href="#au"/><use transform="matrix(0.05268995061728394,0,0,0.05268995061728394,21.02329029629629,0)" xlink:href="#aA"/><use transform="matrix(0.05268995061728394,0,0,0.05268995061728394,31.56128041975308,0)" xlink:href="#ay"/><use transform="matrix(0.05268995061728394,0,0,0.05268995061728394,42.09927054320987,0)" xlink:href="#aD"/><use transform="matrix(0.05268995061728394,0,0,0.05268995061728394,47.368265604938266,0)" xlink:href="#aq"/><use transform="matrix(0.05268995061728394,0,0,0.05268995061728394,57.906255728395045,0)" xlink:href="#ap"/><use transform="matrix(0.05268995061728394,0,0,0.05268995061728394,68.44424585185185,0)" xlink:href="#aE"/><use transform="matrix(0.05268995061728394,0,0,0.05268995061728394,81.089834,0)" xlink:href="#aF"/><use transform="matrix(0.05268995061728394,0,0,0.05268995061728394,91.62782412345679,0)" xlink:href="#aD"/><use transform="matrix(0.05268995061728394,0,0,0.05268995061728394,96.89681918518518,0)" xlink:href="#aG"/><use transform="matrix(0.05268995061728394,0,0,0.05268995061728394,107.43480930864197,0)" xlink:href="#ao"/><use transform="matrix(0.05268995061728394,0,0,0.05268995061728394,117.97279943209877,0)" xlink:href="#au"/><use transform="matrix(0.05268995061728394,0,0,0.05268995061728394,124.24290355555556,0)" xlink:href="#aw"/><use transform="matrix(0.05268995061728394,0,0,0.05268995061728394,128.40540965432098,0)" xlink:href="#aD"/><use transform="matrix(0.05268995061728394,0,0,0.05268995061728394,133.67440471604937,0)" xlink:href="#aN"/><use transform="matrix(0.05268995061728394,0,0,0.05268995061728394,143.15859582716047,0)" xlink:href="#aO"/></g><path fill="#333" d="M87 75C49 33 22-17 22-94c0-76 28-126 65-167h31c-38 41-64 92-64 168S80 34 118 75H87" id="aP"/><path fill="#333" d="M68-38c1 34 0 65-14 84H32c9-13 17-26 17-46H33v-38h35" id="aQ"/><g id="m"><use transform="matrix(0.055555555555555546,0,0,0.055555555555555546,0,0)" xlink:href="#aJ"/><use transform="matrix(0.055555555555555546,0,0,0.055555555555555546,11.666666666666664,0)" xlink:href="#aJ"/><use transform="matrix(0.055555555555555546,0,0,0.055555555555555546,23.33333333333333,0)" xlink:href="#aI"/><use transform="matrix(0.055555555555555546,0,0,0.055555555555555546,33.33333333333333,0)" xlink:href="#ao"/><use transform="matrix(0.055555555555555546,0,0,0.055555555555555546,44.444444444444436,0)" xlink:href="#ay"/><use transform="matrix(0.055555555555555546,0,0,0.055555555555555546,55.55555555555554,0)" xlink:href="#as"/><use transform="matrix(0.055555555555555546,0,0,0.055555555555555546,65.55555555555554,0)" xlink:href="#aD"/><use transform="matrix(0.055555555555555546,0,0,0.055555555555555546,71.1111111111111,0)" xlink:href="#au"/><use transform="matrix(0.055555555555555546,0,0,0.055555555555555546,77.72222222222221,0)" xlink:href="#aF"/><use transform="matrix(0.055555555555555546,0,0,0.055555555555555546,88.83333333333333,0)" xlink:href="#aI"/><use transform="matrix(0.055555555555555546,0,0,0.055555555555555546,98.83333333333333,0)" xlink:href="#ao"/><use transform="matrix(0.055555555555555546,0,0,0.055555555555555546,109.94444444444444,0)" xlink:href="#aD"/><use transform="matrix(0.055555555555555546,0,0,0.055555555555555546,115.5,0)" xlink:href="#au"/><use transform="matrix(0.055555555555555546,0,0,0.055555555555555546,122.11111111111111,0)" xlink:href="#aO"/><use transform="matrix(0.055555555555555546,0,0,0.055555555555555546,133.77777777777777,0)" xlink:href="#aO"/><use transform="matrix(0.055555555555555546,0,0,0.055555555555555546,145.44444444444443,0)" xlink:href="#at"/><use transform="matrix(0.055555555555555546,0,0,0.055555555555555546,159.83333333333331,0)" xlink:href="#as"/><use transform="matrix(0.055555555555555546,0,0,0.055555555555555546,169.83333333333331,0)" xlink:href="#aq"/><use transform="matrix(0.055555555555555546,0,0,0.055555555555555546,180.94444444444443,0)" xlink:href="#au"/><use transform="matrix(0.055555555555555546,0,0,0.055555555555555546,187.55555555555554,0)" xlink:href="#aP"/><use transform="matrix(0.055555555555555546,0,0,0.055555555555555546,194.16666666666666,0)" xlink:href="#aw"/><use transform="matrix(0.055555555555555546,0,0,0.055555555555555546,198.55555555555554,0)" xlink:href="#ap"/><use transform="matrix(0.055555555555555546,0,0,0.055555555555555546,209.66666666666666,0)" xlink:href="#aQ"/></g><g id="n"><use transform="matrix(0.055555555555555546,0,0,0.055555555555555546,0,0)" xlink:href="#ay"/><use transform="matrix(0.055555555555555546,0,0,0.055555555555555546,11.111111111111109,0)" xlink:href="#aA"/><use transform="matrix(0.055555555555555546,0,0,0.055555555555555546,22.222222222222218,0)" xlink:href="#aB"/><use transform="matrix(0.055555555555555546,0,0,0.055555555555555546,38.83333333333333,0)" xlink:href="#aq"/><use transform="matrix(0.055555555555555546,0,0,0.055555555555555546,49.944444444444436,0)" xlink:href="#aQ"/></g><path fill="#333" d="M33-261c38 41 65 92 65 168S71 34 33 75H2C39 34 66-17 66-93S39-220 2-261h31" id="aR"/><g id="o"><use transform="matrix(0.055555555555555546,0,0,0.055555555555555546,0,0)" xlink:href="#aA"/><use transform="matrix(0.055555555555555546,0,0,0.055555555555555546,11.111111111111109,0)" xlink:href="#aF"/><use transform="matrix(0.055555555555555546,0,0,0.055555555555555546,22.222222222222218,0)" xlink:href="#aD"/><use transform="matrix(0.055555555555555546,0,0,0.055555555555555546,27.77777777777777,0)" xlink:href="#aG"/><use transform="matrix(0.055555555555555546,0,0,0.055555555555555546,38.88888888888888,0)" xlink:href="#ao"/><use transform="matrix(0.055555555555555546,0,0,0.055555555555555546,49.999999999999986,0)" xlink:href="#au"/><use transform="matrix(0.055555555555555546,0,0,0.055555555555555546,56.61111111111109,0)" xlink:href="#aw"/><use transform="matrix(0.055555555555555546,0,0,0.055555555555555546,60.99999999999998,0)" xlink:href="#aD"/><use transform="matrix(0.055555555555555546,0,0,0.055555555555555546,66.55555555555553,0)" xlink:href="#aw"/><use transform="matrix(0.055555555555555546,0,0,0.055555555555555546,70.94444444444441,0)" xlink:href="#aq"/><use transform="matrix(0.055555555555555546,0,0,0.055555555555555546,82.05555555555553,0)" xlink:href="#as"/><use transform="matrix(0.055555555555555546,0,0,0.055555555555555546,92.05555555555553,0)" xlink:href="#aR"/></g><path fill="#333" d="M118-107v75H92v-75H18v-26h74v-75h26v75h74v26h-74" id="aS"/><path fill="#333" d="M190 0L58-211 59 0H30v-248h39L202-35l-2-213h31V0h-41" id="aT"/><g id="p"><use transform="matrix(0.055555555555555546,0,0,0.055555555555555546,0,0)" xlink:href="#aS"/><use transform="matrix(0.055555555555555546,0,0,0.055555555555555546,11.666666666666664,0)" xlink:href="#az"/><use transform="matrix(0.055555555555555546,0,0,0.055555555555555546,22.77777777777777,0)" xlink:href="#aq"/><use transform="matrix(0.055555555555555546,0,0,0.055555555555555546,33.88888888888888,0)" xlink:href="#aD"/><use transform="matrix(0.055555555555555546,0,0,0.055555555555555546,39.444444444444436,0)" xlink:href="#aT"/><use transform="matrix(0.055555555555555546,0,0,0.055555555555555546,53.83333333333332,0)" xlink:href="#aA"/><use transform="matrix(0.055555555555555546,0,0,0.055555555555555546,64.94444444444443,0)" xlink:href="#aB"/><use transform="matrix(0.055555555555555546,0,0,0.055555555555555546,81.55555555555554,0)" xlink:href="#aq"/><use transform="matrix(0.055555555555555546,0,0,0.055555555555555546,92.66666666666666,0)" xlink:href="#aP"/><use transform="matrix(0.055555555555555546,0,0,0.055555555555555546,99.27777777777777,0)" xlink:href="#aR"/></g><use transform="matrix(0.055555555555555546,0,0,0.055555555555555546,0,0)" xlink:href="#ax" id="q"/><g id="r"><use transform="matrix(0.055555555555555546,0,0,0.055555555555555546,0,0)" xlink:href="#aC"/><use transform="matrix(0.055555555555555546,0,0,0.055555555555555546,13.33333333333333,0)" xlink:href="#aD"/><use transform="matrix(0.055555555555555546,0,0,0.055555555555555546,18.888888888888886,0)" xlink:href="#au"/><use transform="matrix(0.055555555555555546,0,0,0.055555555555555546,25.499999999999996,0)" xlink:href="#aw"/><use transform="matrix(0.055555555555555546,0,0,0.055555555555555546,29.888888888888882,0)" xlink:href="#ay"/><use transform="matrix(0.055555555555555546,0,0,0.055555555555555546,40.99999999999999,0)" xlink:href="#az"/></g><path fill="#333" d="M33 0v-248h34V0H33" id="aU"/><g id="s"><use transform="matrix(0.055555555555555546,0,0,0.055555555555555546,0,0)" xlink:href="#aS"/><use transform="matrix(0.055555555555555546,0,0,0.055555555555555546,11.666666666666664,0)" xlink:href="#az"/><use transform="matrix(0.055555555555555546,0,0,0.055555555555555546,22.77777777777777,0)" xlink:href="#aq"/><use transform="matrix(0.055555555555555546,0,0,0.055555555555555546,33.88888888888888,0)" xlink:href="#aD"/><use transform="matrix(0.055555555555555546,0,0,0.055555555555555546,39.444444444444436,0)" xlink:href="#aU"/><use transform="matrix(0.055555555555555546,0,0,0.055555555555555546,44.99999999999999,0)" xlink:href="#ap"/><use transform="matrix(0.055555555555555546,0,0,0.055555555555555546,56.1111111111111,0)" xlink:href="#aP"/><use transform="matrix(0.055555555555555546,0,0,0.055555555555555546,62.722222222222214,0)" xlink:href="#aR"/></g><g id="t"><use transform="matrix(0.055555555555555546,0,0,0.055555555555555546,0,0)" xlink:href="#ar"/><use transform="matrix(0.055555555555555546,0,0,0.055555555555555546,4.388888888888888,0)" xlink:href="#ao"/><use transform="matrix(0.055555555555555546,0,0,0.055555555555555546,15.499999999999996,0)" xlink:href="#ay"/><use transform="matrix(0.055555555555555546,0,0,0.055555555555555546,26.611111111111107,0)" xlink:href="#az"/></g><g id="u"><use transform="matrix(0.055555555555555546,0,0,0.055555555555555546,0,0)" xlink:href="#aS"/><use transform="matrix(0.055555555555555546,0,0,0.055555555555555546,11.666666666666664,0)" xlink:href="#az"/><use transform="matrix(0.055555555555555546,0,0,0.055555555555555546,22.77777777777777,0)" xlink:href="#aq"/><use transform="matrix(0.055555555555555546,0,0,0.055555555555555546,33.88888888888888,0)" xlink:href="#aD"/><use transform="matrix(0.055555555555555546,0,0,0.055555555555555546,39.444444444444436,0)" xlink:href="#aE"/><use transform="matrix(0.055555555555555546,0,0,0.055555555555555546,52.777777777777764,0)" xlink:href="#aF"/><use transform="matrix(0.055555555555555546,0,0,0.055555555555555546,63.88888888888888,0)" xlink:href="#aD"/><use transform="matrix(0.055555555555555546,0,0,0.055555555555555546,69.44444444444443,0)" xlink:href="#aG"/><use transform="matrix(0.055555555555555546,0,0,0.055555555555555546,80.55555555555554,0)" xlink:href="#ao"/><use transform="matrix(0.055555555555555546,0,0,0.055555555555555546,91.66666666666666,0)" xlink:href="#au"/><use transform="matrix(0.055555555555555546,0,0,0.055555555555555546,98.27777777777777,0)" xlink:href="#aw"/><use transform="matrix(0.055555555555555546,0,0,0.055555555555555546,102.66666666666666,0)" xlink:href="#aD"/><use transform="matrix(0.055555555555555546,0,0,0.055555555555555546,108.22222222222221,0)" xlink:href="#aw"/><use transform="matrix(0.055555555555555546,0,0,0.055555555555555546,112.6111111111111,0)" xlink:href="#aq"/><use transform="matrix(0.055555555555555546,0,0,0.055555555555555546,123.72222222222223,0)" xlink:href="#as"/><use transform="matrix(0.055555555555555546,0,0,0.055555555555555546,133.7222222222222,0)" xlink:href="#aP"/><use transform="matrix(0.055555555555555546,0,0,0.055555555555555546,140.33333333333331,0)" xlink:href="#aR"/></g><g id="v"><use transform="matrix(0.055555555555555546,0,0,0.055555555555555546,0,0)" xlink:href="#aH"/><use transform="matrix(0.055555555555555546,0,0,0.055555555555555546,14.388888888888886,0)" xlink:href="#ao"/><use transform="matrix(0.055555555555555546,0,0,0.055555555555555546,25.499999999999993,0)" xlink:href="#ar"/><use transform="matrix(0.055555555555555546,0,0,0.055555555555555546,29.888888888888882,0)" xlink:href="#ar"/><use transform="matrix(0.055555555555555546,0,0,0.055555555555555546,34.27777777777777,0)" xlink:href="#aq"/><use transform="matrix(0.055555555555555546,0,0,0.055555555555555546,45.38888888888888,0)" xlink:href="#aI"/><use transform="matrix(0.055555555555555546,0,0,0.055555555555555546,55.38888888888888,0)" xlink:href="#aD"/><use transform="matrix(0.055555555555555546,0,0,0.055555555555555546,60.944444444444436,0)" xlink:href="#aw"/><use transform="matrix(0.055555555555555546,0,0,0.055555555555555546,65.33333333333333,0)" xlink:href="#ao"/><use transform="matrix(0.055555555555555546,0,0,0.055555555555555546,76.44444444444444,0)" xlink:href="#ay"/><use transform="matrix(0.055555555555555546,0,0,0.055555555555555546,87.55555555555556,0)" xlink:href="#aJ"/><use transform="matrix(0.055555555555555546,0,0,0.055555555555555546,99.22222222222223,0)" xlink:href="#aK"/></g><g id="w"><use transform="matrix(0.055555555555555546,0,0,0.055555555555555546,0,0)" xlink:href="#aq"/><use transform="matrix(0.055555555555555546,0,0,0.055555555555555546,11.111111111111109,0)" xlink:href="#aL"/><use transform="matrix(0.055555555555555546,0,0,0.055555555555555546,21.111111111111107,0)" xlink:href="#aD"/><use transform="matrix(0.055555555555555546,0,0,0.055555555555555546,26.66666666666666,0)" xlink:href="#aq"/><use transform="matrix(0.055555555555555546,0,0,0.055555555555555546,37.77777777777777,0)" xlink:href="#ay"/><use transform="matrix(0.055555555555555546,0,0,0.055555555555555546,48.88888888888888,0)" xlink:href="#ap"/><use transform="matrix(0.055555555555555546,0,0,0.055555555555555546,59.999999999999986,0)" xlink:href="#as"/></g><g id="x"><use transform="matrix(0.055555555555555546,0,0,0.055555555555555546,0,0)" xlink:href="#aM"/><use transform="matrix(0.055555555555555546,0,0,0.055555555555555546,15.555555555555554,0)" xlink:href="#au"/><use transform="matrix(0.055555555555555546,0,0,0.055555555555555546,22.166666666666664,0)" xlink:href="#aA"/><use transform="matrix(0.055555555555555546,0,0,0.055555555555555546,33.27777777777777,0)" xlink:href="#ay"/><use transform="matrix(0.055555555555555546,0,0,0.055555555555555546,44.38888888888888,0)" xlink:href="#aD"/><use transform="matrix(0.055555555555555546,0,0,0.055555555555555546,49.944444444444436,0)" xlink:href="#aq"/><use transform="matrix(0.055555555555555546,0,0,0.055555555555555546,61.05555555555554,0)" xlink:href="#ap"/><use transform="matrix(0.055555555555555546,0,0,0.055555555555555546,72.16666666666666,0)" xlink:href="#aE"/><use transform="matrix(0.055555555555555546,0,0,0.055555555555555546,85.49999999999999,0)" xlink:href="#aF"/><use transform="matrix(0.055555555555555546,0,0,0.055555555555555546,96.6111111111111,0)" xlink:href="#aD"/><use transform="matrix(0.055555555555555546,0,0,0.055555555555555546,102.16666666666666,0)" xlink:href="#aG"/><use transform="matrix(0.055555555555555546,0,0,0.055555555555555546,113.27777777777777,0)" xlink:href="#ao"/><use transform="matrix(0.055555555555555546,0,0,0.055555555555555546,124.38888888888889,0)" xlink:href="#au"/><use transform="matrix(0.055555555555555546,0,0,0.055555555555555546,131,0)" xlink:href="#aw"/><use transform="matrix(0.055555555555555546,0,0,0.055555555555555546,135.38888888888889,0)" xlink:href="#aD"/><use transform="matrix(0.055555555555555546,0,0,0.055555555555555546,140.94444444444443,0)" xlink:href="#aN"/><use transform="matrix(0.055555555555555546,0,0,0.055555555555555546,150.94444444444443,0)" xlink:href="#aO"/></g><g id="y"><use transform="matrix(0.06172839506172839,0,0,0.06172839506172839,0,0)" xlink:href="#aE"/><use transform="matrix(0.06172839506172839,0,0,0.06172839506172839,14.814814814814813,0)" xlink:href="#ar"/><use transform="matrix(0.06172839506172839,0,0,0.06172839506172839,19.691358024691354,0)" xlink:href="#aw"/><use transform="matrix(0.06172839506172839,0,0,0.06172839506172839,24.5679012345679,0)" xlink:href="#aA"/><use transform="matrix(0.06172839506172839,0,0,0.06172839506172839,36.913580246913575,0)" xlink:href="#as"/></g><path fill="#333" d="M115-194c55 1 70 41 70 98S169 2 115 4C84 4 66-9 55-30l1 105H24l-1-265h31l2 30c10-21 28-34 59-34zm-8 174c40 0 45-34 45-75s-6-73-45-74c-42 0-51 32-51 76 0 43 10 73 51 73" id="aV"/><path fill="#333" d="M30-248c118-7 216 8 213 122C240-48 200 0 122 0H30v-248zM63-27c89 8 146-16 146-99s-60-101-146-95v194" id="aW"/><g id="z"><use transform="matrix(0.05268995061728394,0,0,0.05268995061728394,0,0)" xlink:href="#aB"/><use transform="matrix(0.05268995061728394,0,0,0.05268995061728394,15.754295234567898,0)" xlink:href="#aA"/><use transform="matrix(0.05268995061728394,0,0,0.05268995061728394,26.292285358024685,0)" xlink:href="#aV"/><use transform="matrix(0.05268995061728394,0,0,0.05268995061728394,36.83027548148147,0)" xlink:href="#aU"/><use transform="matrix(0.05268995061728394,0,0,0.05268995061728394,42.09927054320987,0)" xlink:href="#aW"/></g><g id="A"><use transform="matrix(0.05268995061728394,0,0,0.05268995061728394,0,0)" xlink:href="#aw"/><use transform="matrix(0.05268995061728394,0,0,0.05268995061728394,4.162506098765431,0)" xlink:href="#ay"/><use transform="matrix(0.05268995061728394,0,0,0.05268995061728394,14.700496222222222,0)" xlink:href="#aD"/></g><g id="B"><use transform="matrix(0.055555555555555546,0,0,0.055555555555555546,0,0)" xlink:href="#aJ"/><use transform="matrix(0.055555555555555546,0,0,0.055555555555555546,11.666666666666664,0)" xlink:href="#aJ"/><use transform="matrix(0.055555555555555546,0,0,0.055555555555555546,23.33333333333333,0)" xlink:href="#aI"/><use transform="matrix(0.055555555555555546,0,0,0.055555555555555546,33.33333333333333,0)" xlink:href="#ao"/><use transform="matrix(0.055555555555555546,0,0,0.055555555555555546,44.444444444444436,0)" xlink:href="#ay"/><use transform="matrix(0.055555555555555546,0,0,0.055555555555555546,55.55555555555554,0)" xlink:href="#as"/><use transform="matrix(0.055555555555555546,0,0,0.055555555555555546,65.55555555555554,0)" xlink:href="#aD"/><use transform="matrix(0.055555555555555546,0,0,0.055555555555555546,71.1111111111111,0)" xlink:href="#au"/><use transform="matrix(0.055555555555555546,0,0,0.055555555555555546,77.72222222222221,0)" xlink:href="#aF"/><use transform="matrix(0.055555555555555546,0,0,0.055555555555555546,88.83333333333333,0)" xlink:href="#aI"/><use transform="matrix(0.055555555555555546,0,0,0.055555555555555546,98.83333333333333,0)" xlink:href="#aD"/><use transform="matrix(0.055555555555555546,0,0,0.055555555555555546,104.38888888888889,0)" xlink:href="#ao"/><use transform="matrix(0.055555555555555546,0,0,0.055555555555555546,115.5,0)" xlink:href="#au"/><use transform="matrix(0.055555555555555546,0,0,0.055555555555555546,122.11111111111111,0)" xlink:href="#aO"/><use transform="matrix(0.055555555555555546,0,0,0.055555555555555546,133.77777777777777,0)" xlink:href="#aO"/><use transform="matrix(0.055555555555555546,0,0,0.055555555555555546,145.44444444444443,0)" xlink:href="#at"/><use transform="matrix(0.055555555555555546,0,0,0.055555555555555546,159.83333333333331,0)" xlink:href="#as"/><use transform="matrix(0.055555555555555546,0,0,0.055555555555555546,169.83333333333331,0)" xlink:href="#aq"/><use transform="matrix(0.055555555555555546,0,0,0.055555555555555546,180.94444444444443,0)" xlink:href="#au"/><use transform="matrix(0.055555555555555546,0,0,0.055555555555555546,187.55555555555554,0)" xlink:href="#aP"/><use transform="matrix(0.055555555555555546,0,0,0.055555555555555546,194.16666666666666,0)" xlink:href="#aw"/><use transform="matrix(0.055555555555555546,0,0,0.055555555555555546,198.55555555555554,0)" xlink:href="#ap"/><use transform="matrix(0.055555555555555546,0,0,0.055555555555555546,209.66666666666666,0)" xlink:href="#aQ"/></g><g id="C"><use transform="matrix(0.06172839506172839,0,0,0.06172839506172839,0,0)" xlink:href="#aE"/><use transform="matrix(0.06172839506172839,0,0,0.06172839506172839,14.814814814814813,0)" xlink:href="#ar"/><use transform="matrix(0.06172839506172839,0,0,0.06172839506172839,19.691358024691354,0)" xlink:href="#aw"/><use transform="matrix(0.06172839506172839,0,0,0.06172839506172839,24.5679012345679,0)" xlink:href="#aA"/><use transform="matrix(0.06172839506172839,0,0,0.06172839506172839,36.913580246913575,0)" xlink:href="#as"/><use transform="matrix(0.06172839506172839,0,0,0.06172839506172839,48.02469135802468,0)" xlink:href="#aC"/><use transform="matrix(0.06172839506172839,0,0,0.06172839506172839,62.83950617283949,0)" xlink:href="#aF"/><use transform="matrix(0.06172839506172839,0,0,0.06172839506172839,75.18518518518518,0)" xlink:href="#az"/><use transform="matrix(0.06172839506172839,0,0,0.06172839506172839,87.53086419753086,0)" xlink:href="#az"/><use transform="matrix(0.06172839506172839,0,0,0.06172839506172839,99.87654320987654,0)" xlink:href="#aq"/><use transform="matrix(0.06172839506172839,0,0,0.06172839506172839,112.22222222222223,0)" xlink:href="#as"/><use transform="matrix(0.06172839506172839,0,0,0.06172839506172839,123.33333333333334,0)" xlink:href="#aD"/><use transform="matrix(0.06172839506172839,0,0,0.06172839506172839,129.50617283950618,0)" xlink:href="#aw"/><use transform="matrix(0.06172839506172839,0,0,0.06172839506172839,134.3827160493827,0)" xlink:href="#ao"/><use transform="matrix(0.06172839506172839,0,0,0.06172839506172839,146.72839506172838,0)" xlink:href="#ay"/></g><g id="D"><use transform="matrix(0.05268995061728394,0,0,0.05268995061728394,0,0)" xlink:href="#av"/><use transform="matrix(0.05268995061728394,0,0,0.05268995061728394,6.270104123456789,0)" xlink:href="#aI"/><use transform="matrix(0.05268995061728394,0,0,0.05268995061728394,15.754295234567898,0)" xlink:href="#au"/><use transform="matrix(0.05268995061728394,0,0,0.05268995061728394,22.024399358024688,0)" xlink:href="#aq"/><use transform="matrix(0.05268995061728394,0,0,0.05268995061728394,32.562389481481475,0)" xlink:href="#aA"/><use transform="matrix(0.05268995061728394,0,0,0.05268995061728394,43.10037960493826,0)" xlink:href="#aD"/><use transform="matrix(0.05268995061728394,0,0,0.05268995061728394,48.36937466666666,0)" xlink:href="#ao"/><use transform="matrix(0.05268995061728394,0,0,0.05268995061728394,58.907364790123445,0)" xlink:href="#au"/></g><g id="E"><use transform="matrix(0.05268995061728394,0,0,0.05268995061728394,0,0)" xlink:href="#at"/><use transform="matrix(0.05268995061728394,0,0,0.05268995061728394,13.64669720987654,0)" xlink:href="#as"/><use transform="matrix(0.05268995061728394,0,0,0.05268995061728394,23.13088832098765,0)" xlink:href="#aq"/><use transform="matrix(0.05268995061728394,0,0,0.05268995061728394,33.66887844444444,0)" xlink:href="#au"/></g><path fill="#333" d="M137 0h-34L2-248h35l83 218 83-218h36" id="aX"/><g id="F"><use transform="matrix(0.05268995061728394,0,0,0.05268995061728394,0,0)" xlink:href="#av"/><use transform="matrix(0.05268995061728394,0,0,0.05268995061728394,6.270104123456789,0)" xlink:href="#aV"/><use transform="matrix(0.05268995061728394,0,0,0.05268995061728394,16.808094246913576,0)" xlink:href="#ao"/><use transform="matrix(0.05268995061728394,0,0,0.05268995061728394,27.346084370370363,0)" xlink:href="#as"/><use transform="matrix(0.05268995061728394,0,0,0.05268995061728394,36.83027548148147,0)" xlink:href="#aX"/><use transform="matrix(0.05268995061728394,0,0,0.05268995061728394,48.42206461728394,0)" xlink:href="#ao"/><use transform="matrix(0.05268995061728394,0,0,0.05268995061728394,58.96005474074073,0)" xlink:href="#aD"/><use transform="matrix(0.05268995061728394,0,0,0.05268995061728394,64.22904980246912,0)" xlink:href="#aq"/><use transform="matrix(0.05268995061728394,0,0,0.05268995061728394,74.76703992592591,0)" xlink:href="#as"/></g><g id="G"><use transform="matrix(0.05268995061728394,0,0,0.05268995061728394,0,0)" xlink:href="#aw"/><use transform="matrix(0.05268995061728394,0,0,0.05268995061728394,4.162506098765431,0)" xlink:href="#ay"/><use transform="matrix(0.05268995061728394,0,0,0.05268995061728394,14.700496222222222,0)" xlink:href="#aD"/></g><g id="H"><use transform="matrix(0.05268995061728394,0,0,0.05268995061728394,0,0)" xlink:href="#av"/><use transform="matrix(0.05268995061728394,0,0,0.05268995061728394,6.270104123456789,0)" xlink:href="#ay"/><use transform="matrix(0.05268995061728394,0,0,0.05268995061728394,16.808094246913576,0)" xlink:href="#aq"/><use transform="matrix(0.05268995061728394,0,0,0.05268995061728394,27.346084370370363,0)" xlink:href="#az"/><use transform="matrix(0.05268995061728394,0,0,0.05268995061728394,37.88407449382715,0)" xlink:href="#aX"/><use transform="matrix(0.05268995061728394,0,0,0.05268995061728394,49.475863629629615,0)" xlink:href="#ao"/><use transform="matrix(0.05268995061728394,0,0,0.05268995061728394,60.01385375308641,0)" xlink:href="#aD"/><use transform="matrix(0.05268995061728394,0,0,0.05268995061728394,65.2828488148148,0)" xlink:href="#aq"/><use transform="matrix(0.05268995061728394,0,0,0.05268995061728394,75.82083893827159,0)" xlink:href="#as"/></g><path fill="#333" d="M108 0H70L1-190h34L89-25l56-165h34" id="aY"/><g id="I"><use transform="matrix(0.05268995061728394,0,0,0.05268995061728394,0,0)" xlink:href="#av"/><use transform="matrix(0.05268995061728394,0,0,0.05268995061728394,6.270104123456789,0)" xlink:href="#aY"/><use transform="matrix(0.05268995061728394,0,0,0.05268995061728394,15.754295234567898,0)" xlink:href="#ao"/><use transform="matrix(0.05268995061728394,0,0,0.05268995061728394,26.292285358024685,0)" xlink:href="#aD"/><use transform="matrix(0.05268995061728394,0,0,0.05268995061728394,31.56128041975308,0)" xlink:href="#aq"/><use transform="matrix(0.05268995061728394,0,0,0.05268995061728394,42.09927054320987,0)" xlink:href="#ap"/><use transform="matrix(0.05268995061728394,0,0,0.05268995061728394,52.637260666666656,0)" xlink:href="#at"/><use transform="matrix(0.05268995061728394,0,0,0.05268995061728394,66.2839578765432,0)" xlink:href="#as"/><use transform="matrix(0.05268995061728394,0,0,0.05268995061728394,75.76814898765431,0)" xlink:href="#aq"/><use transform="matrix(0.05268995061728394,0,0,0.05268995061728394,86.30613911111111,0)" xlink:href="#au"/><use transform="matrix(0.05268995061728394,0,0,0.05268995061728394,92.5762432345679,0)" xlink:href="#as"/></g><path fill="#333" d="M30 0v-248h33v221h125V0H30" id="aZ"/><g id="J"><use transform="matrix(0.05268995061728394,0,0,0.05268995061728394,0,0)" xlink:href="#aZ"/><use transform="matrix(0.05268995061728394,0,0,0.05268995061728394,10.537990123456789,0)" xlink:href="#aw"/><use transform="matrix(0.05268995061728394,0,0,0.05268995061728394,14.700496222222222,0)" xlink:href="#as"/><use transform="matrix(0.05268995061728394,0,0,0.05268995061728394,24.18468733333333,0)" xlink:href="#aD"/><use transform="matrix(0.05268995061728394,0,0,0.05268995061728394,29.453682395061723,0)" xlink:href="#aJ"/><use transform="matrix(0.05268995061728394,0,0,0.05268995061728394,40.51857202469135,0)" xlink:href="#aF"/><use transform="matrix(0.05268995061728394,0,0,0.05268995061728394,51.05656214814814,0)" xlink:href="#as"/><use transform="matrix(0.05268995061728394,0,0,0.05268995061728394,60.54075325925925,0)" xlink:href="#aq"/><use transform="matrix(0.05268995061728394,0,0,0.05268995061728394,71.07874338271604,0)" xlink:href="#au"/></g><g id="K"><use transform="matrix(0.05268995061728394,0,0,0.05268995061728394,0,0)" xlink:href="#aC"/><use transform="matrix(0.05268995061728394,0,0,0.05268995061728394,12.645588148148144,0)" xlink:href="#aD"/><use transform="matrix(0.05268995061728394,0,0,0.05268995061728394,17.91458320987654,0)" xlink:href="#au"/><use transform="matrix(0.05268995061728394,0,0,0.05268995061728394,24.18468733333333,0)" xlink:href="#aw"/><use transform="matrix(0.05268995061728394,0,0,0.05268995061728394,28.34719343209876,0)" xlink:href="#ay"/><use transform="matrix(0.05268995061728394,0,0,0.05268995061728394,38.88518355555555,0)" xlink:href="#az"/><use transform="matrix(0.05268995061728394,0,0,0.05268995061728394,49.423173679012336,0)" xlink:href="#aO"/></g><g id="L"><use transform="matrix(0.055555555555555546,0,0,0.055555555555555546,0,0)" xlink:href="#aJ"/><use transform="matrix(0.055555555555555546,0,0,0.055555555555555546,11.666666666666664,0)" xlink:href="#aJ"/><use transform="matrix(0.055555555555555546,0,0,0.055555555555555546,23.33333333333333,0)" xlink:href="#aI"/><use transform="matrix(0.055555555555555546,0,0,0.055555555555555546,33.33333333333333,0)" xlink:href="#au"/><use transform="matrix(0.055555555555555546,0,0,0.055555555555555546,39.944444444444436,0)" xlink:href="#aq"/><use transform="matrix(0.055555555555555546,0,0,0.055555555555555546,51.05555555555554,0)" xlink:href="#aA"/><use transform="matrix(0.055555555555555546,0,0,0.055555555555555546,62.16666666666666,0)" xlink:href="#aD"/><use transform="matrix(0.055555555555555546,0,0,0.055555555555555546,67.7222222222222,0)" xlink:href="#aq"/><use transform="matrix(0.055555555555555546,0,0,0.055555555555555546,78.83333333333331,0)" xlink:href="#aO"/><use transform="matrix(0.055555555555555546,0,0,0.055555555555555546,90.49999999999997,0)" xlink:href="#aO"/><use transform="matrix(0.055555555555555546,0,0,0.055555555555555546,102.16666666666663,0)" xlink:href="#aE"/><use transform="matrix(0.055555555555555546,0,0,0.055555555555555546,115.49999999999996,0)" xlink:href="#ar"/><use transform="matrix(0.055555555555555546,0,0,0.055555555555555546,119.88888888888884,0)" xlink:href="#aw"/><use transform="matrix(0.055555555555555546,0,0,0.055555555555555546,124.27777777777773,0)" xlink:href="#aA"/><use transform="matrix(0.055555555555555546,0,0,0.055555555555555546,135.38888888888883,0)" xlink:href="#as"/><use transform="matrix(0.055555555555555546,0,0,0.055555555555555546,145.38888888888883,0)" xlink:href="#aX"/><use transform="matrix(0.055555555555555546,0,0,0.055555555555555546,157.61111111111106,0)" xlink:href="#ao"/><use transform="matrix(0.055555555555555546,0,0,0.055555555555555546,168.72222222222217,0)" xlink:href="#au"/><use transform="matrix(0.055555555555555546,0,0,0.055555555555555546,175.3333333333333,0)" xlink:href="#as"/><use transform="matrix(0.055555555555555546,0,0,0.055555555555555546,185.3333333333333,0)" xlink:href="#aI"/><use transform="matrix(0.055555555555555546,0,0,0.055555555555555546,195.3333333333333,0)" xlink:href="#aG"/><use transform="matrix(0.055555555555555546,0,0,0.055555555555555546,206.4444444444444,0)" xlink:href="#ar"/><use transform="matrix(0.055555555555555546,0,0,0.055555555555555546,210.8333333333333,0)" xlink:href="#aA"/><use transform="matrix(0.055555555555555546,0,0,0.055555555555555546,221.9444444444444,0)" xlink:href="#az"/><use transform="matrix(0.055555555555555546,0,0,0.055555555555555546,233.05555555555551,0)" xlink:href="#aP"/><use transform="matrix(0.055555555555555546,0,0,0.055555555555555546,239.66666666666663,0)" xlink:href="#aw"/><use transform="matrix(0.055555555555555546,0,0,0.055555555555555546,244.05555555555551,0)" xlink:href="#ap"/><use transform="matrix(0.055555555555555546,0,0,0.055555555555555546,255.16666666666663,0)" xlink:href="#aQ"/></g><g id="M"><use transform="matrix(0.055555555555555546,0,0,0.055555555555555546,0,0)" xlink:href="#aI"/><use transform="matrix(0.055555555555555546,0,0,0.055555555555555546,9.999999999999998,0)" xlink:href="#au"/><use transform="matrix(0.055555555555555546,0,0,0.055555555555555546,16.611111111111107,0)" xlink:href="#aq"/><use transform="matrix(0.055555555555555546,0,0,0.055555555555555546,27.722222222222214,0)" xlink:href="#aA"/><use transform="matrix(0.055555555555555546,0,0,0.055555555555555546,38.83333333333332,0)" xlink:href="#aD"/><use transform="matrix(0.055555555555555546,0,0,0.055555555555555546,44.38888888888888,0)" xlink:href="#ao"/><use transform="matrix(0.055555555555555546,0,0,0.055555555555555546,55.499999999999986,0)" xlink:href="#au"/><use transform="matrix(0.055555555555555546,0,0,0.055555555555555546,62.111111111111086,0)" xlink:href="#aR"/></g><g id="N"><use transform="matrix(0.055555555555555546,0,0,0.055555555555555546,0,0)" xlink:href="#aS"/><use transform="matrix(0.055555555555555546,0,0,0.055555555555555546,11.666666666666664,0)" xlink:href="#az"/><use transform="matrix(0.055555555555555546,0,0,0.055555555555555546,22.77777777777777,0)" xlink:href="#aq"/><use transform="matrix(0.055555555555555546,0,0,0.055555555555555546,33.88888888888888,0)" xlink:href="#aD"/><use transform="matrix(0.055555555555555546,0,0,0.055555555555555546,39.444444444444436,0)" xlink:href="#aH"/><use transform="matrix(0.055555555555555546,0,0,0.055555555555555546,53.83333333333332,0)" xlink:href="#au"/><use transform="matrix(0.055555555555555546,0,0,0.055555555555555546,60.444444444444436,0)" xlink:href="#aq"/><use transform="matrix(0.055555555555555546,0,0,0.055555555555555546,71.55555555555554,0)" xlink:href="#aA"/><use transform="matrix(0.055555555555555546,0,0,0.055555555555555546,82.66666666666666,0)" xlink:href="#aD"/><use transform="matrix(0.055555555555555546,0,0,0.055555555555555546,88.22222222222221,0)" xlink:href="#ao"/><use transform="matrix(0.055555555555555546,0,0,0.055555555555555546,99.33333333333333,0)" xlink:href="#au"/><use transform="matrix(0.055555555555555546,0,0,0.055555555555555546,105.94444444444444,0)" xlink:href="#aP"/><use transform="matrix(0.055555555555555546,0,0,0.055555555555555546,112.55555555555556,0)" xlink:href="#aR"/></g><g id="O"><use transform="matrix(0.055555555555555546,0,0,0.055555555555555546,0,0)" xlink:href="#at"/><use transform="matrix(0.055555555555555546,0,0,0.055555555555555546,14.388888888888886,0)" xlink:href="#as"/><use transform="matrix(0.055555555555555546,0,0,0.055555555555555546,24.388888888888886,0)" xlink:href="#aq"/><use transform="matrix(0.055555555555555546,0,0,0.055555555555555546,35.49999999999999,0)" xlink:href="#au"/></g><g id="P"><use transform="matrix(0.055555555555555546,0,0,0.055555555555555546,0,0)" xlink:href="#aS"/><use transform="matrix(0.055555555555555546,0,0,0.055555555555555546,11.666666666666664,0)" xlink:href="#az"/><use transform="matrix(0.055555555555555546,0,0,0.055555555555555546,22.77777777777777,0)" xlink:href="#aq"/><use transform="matrix(0.055555555555555546,0,0,0.055555555555555546,33.88888888888888,0)" xlink:href="#aD"/><use transform="matrix(0.055555555555555546,0,0,0.055555555555555546,39.444444444444436,0)" xlink:href="#aX"/><use transform="matrix(0.055555555555555546,0,0,0.055555555555555546,51.66666666666665,0)" xlink:href="#ao"/><use transform="matrix(0.055555555555555546,0,0,0.055555555555555546,62.77777777777776,0)" xlink:href="#aD"/><use transform="matrix(0.055555555555555546,0,0,0.055555555555555546,68.33333333333331,0)" xlink:href="#aq"/><use transform="matrix(0.055555555555555546,0,0,0.055555555555555546,79.44444444444443,0)" xlink:href="#ap"/><use transform="matrix(0.055555555555555546,0,0,0.055555555555555546,90.55555555555554,0)" xlink:href="#at"/><use transform="matrix(0.055555555555555546,0,0,0.055555555555555546,104.94444444444443,0)" xlink:href="#as"/><use transform="matrix(0.055555555555555546,0,0,0.055555555555555546,114.94444444444443,0)" xlink:href="#aq"/><use transform="matrix(0.055555555555555546,0,0,0.055555555555555546,126.05555555555553,0)" xlink:href="#au"/><use transform="matrix(0.055555555555555546,0,0,0.055555555555555546,132.66666666666666,0)" xlink:href="#as"/><use transform="matrix(0.055555555555555546,0,0,0.055555555555555546,142.66666666666666,0)" xlink:href="#aP"/><use transform="matrix(0.055555555555555546,0,0,0.055555555555555546,149.27777777777777,0)" xlink:href="#aR"/></g><g id="Q"><use transform="matrix(0.055555555555555546,0,0,0.055555555555555546,0,0)" xlink:href="#aZ"/><use transform="matrix(0.055555555555555546,0,0,0.055555555555555546,11.111111111111109,0)" xlink:href="#aw"/><use transform="matrix(0.055555555555555546,0,0,0.055555555555555546,15.499999999999996,0)" xlink:href="#as"/><use transform="matrix(0.055555555555555546,0,0,0.055555555555555546,25.499999999999993,0)" xlink:href="#aD"/><use transform="matrix(0.055555555555555546,0,0,0.055555555555555546,31.055555555555543,0)" xlink:href="#aJ"/><use transform="matrix(0.055555555555555546,0,0,0.055555555555555546,42.722222222222214,0)" xlink:href="#aF"/><use transform="matrix(0.055555555555555546,0,0,0.055555555555555546,53.83333333333332,0)" xlink:href="#as"/><use transform="matrix(0.055555555555555546,0,0,0.055555555555555546,63.83333333333332,0)" xlink:href="#aq"/><use transform="matrix(0.055555555555555546,0,0,0.055555555555555546,74.94444444444443,0)" xlink:href="#au"/></g><g id="R"><use transform="matrix(0.055555555555555546,0,0,0.055555555555555546,0,0)" xlink:href="#aC"/><use transform="matrix(0.055555555555555546,0,0,0.055555555555555546,13.33333333333333,0)" xlink:href="#aD"/><use transform="matrix(0.055555555555555546,0,0,0.055555555555555546,18.888888888888886,0)" xlink:href="#au"/><use transform="matrix(0.055555555555555546,0,0,0.055555555555555546,25.499999999999996,0)" xlink:href="#aw"/><use transform="matrix(0.055555555555555546,0,0,0.055555555555555546,29.888888888888882,0)" xlink:href="#ay"/><use transform="matrix(0.055555555555555546,0,0,0.055555555555555546,40.99999999999999,0)" xlink:href="#az"/><use transform="matrix(0.055555555555555546,0,0,0.055555555555555546,52.1111111111111,0)" xlink:href="#aO"/></g><g id="S"><use transform="matrix(0.055555555555555546,0,0,0.055555555555555546,0,0)" xlink:href="#aS"/><use transform="matrix(0.055555555555555546,0,0,0.055555555555555546,11.666666666666664,0)" xlink:href="#as"/><use transform="matrix(0.055555555555555546,0,0,0.055555555555555546,21.666666666666664,0)" xlink:href="#aq"/><use transform="matrix(0.055555555555555546,0,0,0.055555555555555546,32.77777777777777,0)" xlink:href="#aD"/><use transform="matrix(0.055555555555555546,0,0,0.055555555555555546,38.33333333333333,0)" xlink:href="#aX"/><use transform="matrix(0.055555555555555546,0,0,0.055555555555555546,50.55555555555554,0)" xlink:href="#ao"/><use transform="matrix(0.055555555555555546,0,0,0.055555555555555546,61.66666666666666,0)" xlink:href="#aD"/><use transform="matrix(0.055555555555555546,0,0,0.055555555555555546,67.2222222222222,0)" xlink:href="#aq"/><use transform="matrix(0.055555555555555546,0,0,0.055555555555555546,78.33333333333331,0)" xlink:href="#ap"/><use transform="matrix(0.055555555555555546,0,0,0.055555555555555546,89.44444444444443,0)" xlink:href="#at"/><use transform="matrix(0.055555555555555546,0,0,0.055555555555555546,103.83333333333331,0)" xlink:href="#as"/><use transform="matrix(0.055555555555555546,0,0,0.055555555555555546,113.83333333333331,0)" xlink:href="#aq"/><use transform="matrix(0.055555555555555546,0,0,0.055555555555555546,124.94444444444443,0)" xlink:href="#au"/><use transform="matrix(0.055555555555555546,0,0,0.055555555555555546,131.55555555555554,0)" xlink:href="#as"/><use transform="matrix(0.055555555555555546,0,0,0.055555555555555546,141.55555555555554,0)" xlink:href="#aP"/><use transform="matrix(0.055555555555555546,0,0,0.055555555555555546,148.16666666666666,0)" xlink:href="#aF"/><use transform="matrix(0.055555555555555546,0,0,0.055555555555555546,159.27777777777777,0)" xlink:href="#as"/><use transform="matrix(0.055555555555555546,0,0,0.055555555555555546,169.27777777777777,0)" xlink:href="#aq"/><use transform="matrix(0.055555555555555546,0,0,0.055555555555555546,180.38888888888889,0)" xlink:href="#au"/></g><g id="T"><use transform="matrix(0.055555555555555546,0,0,0.055555555555555546,0,0)" xlink:href="#aC"/><use transform="matrix(0.055555555555555546,0,0,0.055555555555555546,13.33333333333333,0)" xlink:href="#aD"/><use transform="matrix(0.055555555555555546,0,0,0.055555555555555546,18.888888888888886,0)" xlink:href="#au"/><use transform="matrix(0.055555555555555546,0,0,0.055555555555555546,25.499999999999996,0)" xlink:href="#aw"/><use transform="matrix(0.055555555555555546,0,0,0.055555555555555546,29.888888888888882,0)" xlink:href="#ay"/><use transform="matrix(0.055555555555555546,0,0,0.055555555555555546,40.99999999999999,0)" xlink:href="#az"/><use transform="matrix(0.055555555555555546,0,0,0.055555555555555546,52.1111111111111,0)" xlink:href="#aR"/></g><path fill="#333" d="M30-248c87 1 191-15 191 75 0 78-77 80-158 76V0H30v-248zm33 125c57 0 124 11 124-50 0-59-68-47-124-48v98" id="ba"/><g id="U"><use transform="matrix(0.055555555555555546,0,0,0.055555555555555546,0,0)" xlink:href="#aS"/><use transform="matrix(0.055555555555555546,0,0,0.055555555555555546,11.666666666666664,0)" xlink:href="#az"/><use transform="matrix(0.055555555555555546,0,0,0.055555555555555546,22.77777777777777,0)" xlink:href="#aq"/><use transform="matrix(0.055555555555555546,0,0,0.055555555555555546,33.88888888888888,0)" xlink:href="#aD"/><use transform="matrix(0.055555555555555546,0,0,0.055555555555555546,39.444444444444436,0)" xlink:href="#ba"/><use transform="matrix(0.055555555555555546,0,0,0.055555555555555546,52.777777777777764,0)" xlink:href="#ao"/><use transform="matrix(0.055555555555555546,0,0,0.055555555555555546,63.88888888888888,0)" xlink:href="#as"/><use transform="matrix(0.055555555555555546,0,0,0.055555555555555546,73.88888888888887,0)" xlink:href="#aX"/><use transform="matrix(0.055555555555555546,0,0,0.055555555555555546,86.11111111111109,0)" xlink:href="#ao"/><use transform="matrix(0.055555555555555546,0,0,0.055555555555555546,97.2222222222222,0)" xlink:href="#aD"/><use transform="matrix(0.055555555555555546,0,0,0.055555555555555546,102.77777777777776,0)" xlink:href="#aq"/><use transform="matrix(0.055555555555555546,0,0,0.055555555555555546,113.88888888888887,0)" xlink:href="#as"/><use transform="matrix(0.055555555555555546,0,0,0.055555555555555546,123.88888888888887,0)" xlink:href="#aP"/><use transform="matrix(0.055555555555555546,0,0,0.055555555555555546,130.49999999999997,0)" xlink:href="#aR"/></g><g id="V"><use transform="matrix(0.055555555555555546,0,0,0.055555555555555546,0,0)" xlink:href="#aw"/><use transform="matrix(0.055555555555555546,0,0,0.055555555555555546,4.388888888888888,0)" xlink:href="#ay"/><use transform="matrix(0.055555555555555546,0,0,0.055555555555555546,15.499999999999996,0)" xlink:href="#aD"/></g><g id="W"><use transform="matrix(0.055555555555555546,0,0,0.055555555555555546,0,0)" xlink:href="#aS"/><use transform="matrix(0.055555555555555546,0,0,0.055555555555555546,11.666666666666664,0)" xlink:href="#az"/><use transform="matrix(0.055555555555555546,0,0,0.055555555555555546,22.77777777777777,0)" xlink:href="#aq"/><use transform="matrix(0.055555555555555546,0,0,0.055555555555555546,33.88888888888888,0)" xlink:href="#aD"/><use transform="matrix(0.055555555555555546,0,0,0.055555555555555546,39.444444444444436,0)" xlink:href="#aT"/><use transform="matrix(0.055555555555555546,0,0,0.055555555555555546,53.83333333333332,0)" xlink:href="#aq"/><use transform="matrix(0.055555555555555546,0,0,0.055555555555555546,64.94444444444443,0)" xlink:href="#az"/><use transform="matrix(0.055555555555555546,0,0,0.055555555555555546,76.05555555555554,0)" xlink:href="#aX"/><use transform="matrix(0.055555555555555546,0,0,0.055555555555555546,88.27777777777776,0)" xlink:href="#ao"/><use transform="matrix(0.055555555555555546,0,0,0.055555555555555546,99.38888888888887,0)" xlink:href="#aD"/><use transform="matrix(0.055555555555555546,0,0,0.055555555555555546,104.94444444444443,0)" xlink:href="#aq"/><use transform="matrix(0.055555555555555546,0,0,0.055555555555555546,116.05555555555553,0)" xlink:href="#as"/><use transform="matrix(0.055555555555555546,0,0,0.055555555555555546,126.05555555555553,0)" xlink:href="#aP"/><use transform="matrix(0.055555555555555546,0,0,0.055555555555555546,132.66666666666666,0)" xlink:href="#aR"/></g><g id="X"><use transform="matrix(0.055555555555555546,0,0,0.055555555555555546,0,0)" xlink:href="#aS"/><use transform="matrix(0.055555555555555546,0,0,0.055555555555555546,11.666666666666664,0)" xlink:href="#as"/><use transform="matrix(0.055555555555555546,0,0,0.055555555555555546,21.666666666666664,0)" xlink:href="#aq"/><use transform="matrix(0.055555555555555546,0,0,0.055555555555555546,32.77777777777777,0)" xlink:href="#aD"/><use transform="matrix(0.055555555555555546,0,0,0.055555555555555546,38.33333333333333,0)" xlink:href="#ba"/><use transform="matrix(0.055555555555555546,0,0,0.055555555555555546,51.66666666666666,0)" xlink:href="#ao"/><use transform="matrix(0.055555555555555546,0,0,0.055555555555555546,62.777777777777764,0)" xlink:href="#as"/><use transform="matrix(0.055555555555555546,0,0,0.055555555555555546,72.77777777777776,0)" xlink:href="#aX"/><use transform="matrix(0.055555555555555546,0,0,0.055555555555555546,84.99999999999997,0)" xlink:href="#ao"/><use transform="matrix(0.055555555555555546,0,0,0.055555555555555546,96.11111111111109,0)" xlink:href="#aD"/><use transform="matrix(0.055555555555555546,0,0,0.055555555555555546,101.66666666666664,0)" xlink:href="#aq"/><use transform="matrix(0.055555555555555546,0,0,0.055555555555555546,112.77777777777776,0)" xlink:href="#as"/><use transform="matrix(0.055555555555555546,0,0,0.055555555555555546,122.77777777777776,0)" xlink:href="#aP"/><use transform="matrix(0.055555555555555546,0,0,0.055555555555555546,129.38888888888886,0)" xlink:href="#aR"/></g><g id="Y"><use transform="matrix(0.055555555555555546,0,0,0.055555555555555546,0,0)" xlink:href="#aS"/><use transform="matrix(0.055555555555555546,0,0,0.055555555555555546,11.666666666666664,0)" xlink:href="#as"/><use transform="matrix(0.055555555555555546,0,0,0.055555555555555546,21.666666666666664,0)" xlink:href="#aq"/><use transform="matrix(0.055555555555555546,0,0,0.055555555555555546,32.77777777777777,0)" xlink:href="#aD"/><use transform="matrix(0.055555555555555546,0,0,0.055555555555555546,38.33333333333333,0)" xlink:href="#aT"/><use transform="matrix(0.055555555555555546,0,0,0.055555555555555546,52.722222222222214,0)" xlink:href="#aq"/><use transform="matrix(0.055555555555555546,0,0,0.055555555555555546,63.83333333333332,0)" xlink:href="#az"/><use transform="matrix(0.055555555555555546,0,0,0.055555555555555546,74.94444444444443,0)" xlink:href="#aX"/><use transform="matrix(0.055555555555555546,0,0,0.055555555555555546,87.16666666666664,0)" xlink:href="#ao"/><use transform="matrix(0.055555555555555546,0,0,0.055555555555555546,98.27777777777776,0)" xlink:href="#aD"/><use transform="matrix(0.055555555555555546,0,0,0.055555555555555546,103.83333333333331,0)" xlink:href="#aq"/><use transform="matrix(0.055555555555555546,0,0,0.055555555555555546,114.94444444444443,0)" xlink:href="#as"/><use transform="matrix(0.055555555555555546,0,0,0.055555555555555546,124.94444444444443,0)" xlink:href="#aP"/><use transform="matrix(0.055555555555555546,0,0,0.055555555555555546,131.55555555555554,0)" xlink:href="#aR"/></g><g id="Z"><use transform="matrix(0.06172839506172839,0,0,0.06172839506172839,0,0)" xlink:href="#an"/><use transform="matrix(0.06172839506172839,0,0,0.06172839506172839,18.456790123456788,0)" xlink:href="#aA"/><use transform="matrix(0.06172839506172839,0,0,0.06172839506172839,30.80246913580247,0)" xlink:href="#aV"/><use transform="matrix(0.06172839506172839,0,0,0.06172839506172839,43.148148148148145,0)" xlink:href="#aU"/><use transform="matrix(0.06172839506172839,0,0,0.06172839506172839,49.32098765432099,0)" xlink:href="#aW"/></g><g id="aa"><use transform="matrix(0.05268995061728394,0,0,0.05268995061728394,0,0)" xlink:href="#aC"/><use transform="matrix(0.05268995061728394,0,0,0.05268995061728394,12.645588148148144,0)" xlink:href="#aD"/><use transform="matrix(0.05268995061728394,0,0,0.05268995061728394,17.91458320987654,0)" xlink:href="#au"/><use transform="matrix(0.05268995061728394,0,0,0.05268995061728394,24.18468733333333,0)" xlink:href="#aw"/><use transform="matrix(0.05268995061728394,0,0,0.05268995061728394,28.34719343209876,0)" xlink:href="#ay"/><use transform="matrix(0.05268995061728394,0,0,0.05268995061728394,38.88518355555555,0)" xlink:href="#az"/></g><g id="ab"><use transform="matrix(0.055555555555555546,0,0,0.055555555555555546,0,0)" xlink:href="#aJ"/><use transform="matrix(0.055555555555555546,0,0,0.055555555555555546,11.666666666666664,0)" xlink:href="#aJ"/><use transform="matrix(0.055555555555555546,0,0,0.055555555555555546,23.33333333333333,0)" xlink:href="#aI"/><use transform="matrix(0.055555555555555546,0,0,0.055555555555555546,33.33333333333333,0)" xlink:href="#au"/><use transform="matrix(0.055555555555555546,0,0,0.055555555555555546,39.944444444444436,0)" xlink:href="#aq"/><use transform="matrix(0.055555555555555546,0,0,0.055555555555555546,51.05555555555554,0)" xlink:href="#aA"/><use transform="matrix(0.055555555555555546,0,0,0.055555555555555546,62.16666666666666,0)" xlink:href="#aD"/><use transform="matrix(0.055555555555555546,0,0,0.055555555555555546,67.7222222222222,0)" xlink:href="#aq"/><use transform="matrix(0.055555555555555546,0,0,0.055555555555555546,78.83333333333331,0)" xlink:href="#aO"/><use transform="matrix(0.055555555555555546,0,0,0.055555555555555546,90.49999999999997,0)" xlink:href="#aO"/><use transform="matrix(0.055555555555555546,0,0,0.055555555555555546,102.16666666666663,0)" xlink:href="#aE"/><use transform="matrix(0.055555555555555546,0,0,0.055555555555555546,115.49999999999996,0)" xlink:href="#ar"/><use transform="matrix(0.055555555555555546,0,0,0.055555555555555546,119.88888888888884,0)" xlink:href="#aw"/><use transform="matrix(0.055555555555555546,0,0,0.055555555555555546,124.27777777777773,0)" xlink:href="#aA"/><use transform="matrix(0.055555555555555546,0,0,0.055555555555555546,135.38888888888883,0)" xlink:href="#as"/><use transform="matrix(0.055555555555555546,0,0,0.055555555555555546,145.38888888888883,0)" xlink:href="#aX"/><use transform="matrix(0.055555555555555546,0,0,0.055555555555555546,157.61111111111106,0)" xlink:href="#ao"/><use transform="matrix(0.055555555555555546,0,0,0.055555555555555546,168.72222222222217,0)" xlink:href="#au"/><use transform="matrix(0.055555555555555546,0,0,0.055555555555555546,175.3333333333333,0)" xlink:href="#as"/><use transform="matrix(0.055555555555555546,0,0,0.055555555555555546,185.3333333333333,0)" xlink:href="#aI"/><use transform="matrix(0.055555555555555546,0,0,0.055555555555555546,195.3333333333333,0)" xlink:href="#aG"/><use transform="matrix(0.055555555555555546,0,0,0.055555555555555546,206.4444444444444,0)" xlink:href="#ar"/><use transform="matrix(0.055555555555555546,0,0,0.055555555555555546,210.8333333333333,0)" xlink:href="#aA"/><use transform="matrix(0.055555555555555546,0,0,0.055555555555555546,221.9444444444444,0)" xlink:href="#az"/><use transform="matrix(0.055555555555555546,0,0,0.055555555555555546,233.05555555555551,0)" xlink:href="#aP"/><use transform="matrix(0.055555555555555546,0,0,0.055555555555555546,239.66666666666663,0)" xlink:href="#aw"/><use transform="matrix(0.055555555555555546,0,0,0.055555555555555546,244.05555555555551,0)" xlink:href="#aw"/><use transform="matrix(0.055555555555555546,0,0,0.055555555555555546,248.4444444444444,0)" xlink:href="#ap"/></g><use transform="matrix(0.055555555555555546,0,0,0.055555555555555546,0,0)" xlink:href="#aR" id="ac"/><g id="ad"><use transform="matrix(0.055555555555555546,0,0,0.055555555555555546,0,0)" xlink:href="#aS"/><use transform="matrix(0.055555555555555546,0,0,0.055555555555555546,11.666666666666664,0)" xlink:href="#as"/><use transform="matrix(0.055555555555555546,0,0,0.055555555555555546,21.666666666666664,0)" xlink:href="#aq"/><use transform="matrix(0.055555555555555546,0,0,0.055555555555555546,32.77777777777777,0)" xlink:href="#aD"/><use transform="matrix(0.055555555555555546,0,0,0.055555555555555546,38.33333333333333,0)" xlink:href="#aT"/><use transform="matrix(0.055555555555555546,0,0,0.055555555555555546,52.722222222222214,0)" xlink:href="#aA"/><use transform="matrix(0.055555555555555546,0,0,0.055555555555555546,63.83333333333332,0)" xlink:href="#aB"/><use transform="matrix(0.055555555555555546,0,0,0.055555555555555546,80.44444444444443,0)" xlink:href="#aq"/><use transform="matrix(0.055555555555555546,0,0,0.055555555555555546,91.55555555555554,0)" xlink:href="#aP"/><use transform="matrix(0.055555555555555546,0,0,0.055555555555555546,98.16666666666666,0)" xlink:href="#ay"/><use transform="matrix(0.055555555555555546,0,0,0.055555555555555546,109.27777777777777,0)" xlink:href="#aA"/><use transform="matrix(0.055555555555555546,0,0,0.055555555555555546,120.38888888888889,0)" xlink:href="#aB"/><use transform="matrix(0.055555555555555546,0,0,0.055555555555555546,137,0)" xlink:href="#aq"/></g><g id="ae"><use transform="matrix(0.055555555555555546,0,0,0.055555555555555546,0,0)" xlink:href="#aC"/><use transform="matrix(0.055555555555555546,0,0,0.055555555555555546,13.33333333333333,0)" xlink:href="#aD"/><use transform="matrix(0.055555555555555546,0,0,0.055555555555555546,18.888888888888886,0)" xlink:href="#au"/><use transform="matrix(0.055555555555555546,0,0,0.055555555555555546,25.499999999999996,0)" xlink:href="#aw"/><use transform="matrix(0.055555555555555546,0,0,0.055555555555555546,29.888888888888882,0)" xlink:href="#ay"/><use transform="matrix(0.055555555555555546,0,0,0.055555555555555546,40.99999999999999,0)" xlink:href="#az"/><use transform="matrix(0.055555555555555546,0,0,0.055555555555555546,52.1111111111111,0)" xlink:href="#aR"/></g><g id="af"><use transform="matrix(0.055555555555555546,0,0,0.055555555555555546,0,0)" xlink:href="#aC"/><use transform="matrix(0.055555555555555546,0,0,0.055555555555555546,13.33333333333333,0)" xlink:href="#aD"/><use transform="matrix(0.055555555555555546,0,0,0.055555555555555546,18.888888888888886,0)" xlink:href="#au"/><use transform="matrix(0.055555555555555546,0,0,0.055555555555555546,25.499999999999996,0)" xlink:href="#aw"/><use transform="matrix(0.055555555555555546,0,0,0.055555555555555546,29.888888888888882,0)" xlink:href="#ay"/><use transform="matrix(0.055555555555555546,0,0,0.055555555555555546,40.99999999999999,0)" xlink:href="#az"/></g><path fill="#333" d="M160-131c35 5 61 23 61 61C221 17 115-2 30 0v-248c76 3 177-17 177 60 0 33-19 50-47 57zm-97-11c50-1 110 9 110-42 0-47-63-36-110-37v79zm0 115c55-2 124 14 124-45 0-56-70-42-124-44v89" id="bb"/><path fill="#333" d="M143 0L79-87 56-68V0H24v-261h32v163l83-92h37l-77 82L181 0h-38" id="bc"/><path fill="#333" d="M30 0v-248h187v28H63v79h144v27H63v87h162V0H30" id="bd"/><g id="ag"><use transform="matrix(0.06172839506172839,0,0,0.06172839506172839,0,0)" xlink:href="#bb"/><use transform="matrix(0.06172839506172839,0,0,0.06172839506172839,14.814814814814813,0)" xlink:href="#ar"/><use transform="matrix(0.06172839506172839,0,0,0.06172839506172839,19.691358024691354,0)" xlink:href="#aA"/><use transform="matrix(0.06172839506172839,0,0,0.06172839506172839,32.03703703703703,0)" xlink:href="#aI"/><use transform="matrix(0.06172839506172839,0,0,0.06172839506172839,43.14814814814814,0)" xlink:href="#bc"/><use transform="matrix(0.06172839506172839,0,0,0.06172839506172839,54.25925925925925,0)" xlink:href="#aZ"/><use transform="matrix(0.06172839506172839,0,0,0.06172839506172839,66.60493827160494,0)" xlink:href="#aw"/><use transform="matrix(0.06172839506172839,0,0,0.06172839506172839,71.48148148148148,0)" xlink:href="#as"/><use transform="matrix(0.06172839506172839,0,0,0.06172839506172839,82.5925925925926,0)" xlink:href="#aD"/><use transform="matrix(0.06172839506172839,0,0,0.06172839506172839,88.76543209876543,0)" xlink:href="#bd"/><use transform="matrix(0.06172839506172839,0,0,0.06172839506172839,103.58024691358024,0)" xlink:href="#ay"/><use transform="matrix(0.06172839506172839,0,0,0.06172839506172839,115.92592592592592,0)" xlink:href="#aD"/><use transform="matrix(0.06172839506172839,0,0,0.06172839506172839,122.09876543209876,0)" xlink:href="#au"/><use transform="matrix(0.06172839506172839,0,0,0.06172839506172839,129.44444444444443,0)" xlink:href="#aN"/></g><g id="ah"><use transform="matrix(0.06172839506172839,0,0,0.06172839506172839,0,0)" xlink:href="#av"/><use transform="matrix(0.06172839506172839,0,0,0.06172839506172839,7.345679012345679,0)" xlink:href="#aw"/><use transform="matrix(0.06172839506172839,0,0,0.06172839506172839,12.222222222222221,0)" xlink:href="#ap"/></g><use transform="matrix(0.06172839506172839,0,0,0.06172839506172839,0,0)" xlink:href="#ax" id="ai"/><g id="aj"><use transform="matrix(0.06172839506172839,0,0,0.06172839506172839,0,0)" xlink:href="#ar"/><use transform="matrix(0.06172839506172839,0,0,0.06172839506172839,4.876543209876543,0)" xlink:href="#ao"/><use transform="matrix(0.06172839506172839,0,0,0.06172839506172839,17.22222222222222,0)" xlink:href="#ay"/><use transform="matrix(0.06172839506172839,0,0,0.06172839506172839,29.5679012345679,0)" xlink:href="#az"/></g><g id="ak"><use transform="matrix(0.06172839506172839,0,0,0.06172839506172839,0,0)" xlink:href="#av"/><use transform="matrix(0.06172839506172839,0,0,0.06172839506172839,7.345679012345679,0)" xlink:href="#ay"/><use transform="matrix(0.06172839506172839,0,0,0.06172839506172839,19.691358024691358,0)" xlink:href="#aA"/><use transform="matrix(0.06172839506172839,0,0,0.06172839506172839,32.03703703703704,0)" xlink:href="#aB"/><use transform="matrix(0.06172839506172839,0,0,0.06172839506172839,50.49382716049382,0)" xlink:href="#aq"/></g><g id="al"><use transform="matrix(0.06172839506172839,0,0,0.06172839506172839,0,0)" xlink:href="#aC"/><use transform="matrix(0.06172839506172839,0,0,0.06172839506172839,14.814814814814813,0)" xlink:href="#aD"/><use transform="matrix(0.06172839506172839,0,0,0.06172839506172839,20.98765432098765,0)" xlink:href="#au"/><use transform="matrix(0.06172839506172839,0,0,0.06172839506172839,28.33333333333333,0)" xlink:href="#aw"/><use transform="matrix(0.06172839506172839,0,0,0.06172839506172839,33.20987654320987,0)" xlink:href="#ay"/><use transform="matrix(0.06172839506172839,0,0,0.06172839506172839,45.55555555555555,0)" xlink:href="#az"/></g><g id="am"><use transform="matrix(0.06172839506172839,0,0,0.06172839506172839,0,0)" xlink:href="#aS"/><use transform="matrix(0.06172839506172839,0,0,0.06172839506172839,12.962962962962962,0)" xlink:href="#az"/><use transform="matrix(0.06172839506172839,0,0,0.06172839506172839,25.30864197530864,0)" xlink:href="#aq"/><use transform="matrix(0.06172839506172839,0,0,0.06172839506172839,37.654320987654316,0)" xlink:href="#aD"/><use transform="matrix(0.06172839506172839,0,0,0.06172839506172839,43.82716049382716,0)" xlink:href="#aT"/><use transform="matrix(0.06172839506172839,0,0,0.06172839506172839,59.81481481481481,0)" xlink:href="#aA"/><use transform="matrix(0.06172839506172839,0,0,0.06172839506172839,72.1604938271605,0)" xlink:href="#aB"/><use transform="matrix(0.06172839506172839,0,0,0.06172839506172839,90.61728395061728,0)" xlink:href="#aq"/><use transform="matrix(0.06172839506172839,0,0,0.06172839506172839,102.96296296296296,0)" xlink:href="#aP"/><use transform="matrix(0.06172839506172839,0,0,0.06172839506172839,110.30864197530865,0)" xlink:href="#aR"/></g></defs></g></svg>