<svg xmlns="http://www.w3.org/2000/svg" xmlns:xlink="http://www.w3.org/1999/xlink" xmlns:lucid="lucid" width="1540" height="1043"><g transform="translate(-120 -37)" lucid:page-tab-id="0_0"><path d="M0 0h1870.87v1322.83H0z" fill="#fff"/><path d="M1085 266h549c3.3 0 6 2.7 6 6v782c0 3.3-2.7 6-6 6H146c-3.3 0-6-2.7-6-6V246c0-3.3 2.7-6 6-6h888c3.3 0 8.33 1.34 11.2 3zm-945 0h945" stroke="#5e5e5e" stroke-width="3" fill="#fff"/><use xlink:href="#a" transform="matrix(1,0,0,1,148,240) translate(397.9382716049383 17.77777777777778)"/><path d="M230 346c0-3.3 2.7-6 6-6h368c3.3 0 6 2.7 6 6v240c0 3.3-2.7 6-6 6H236c-3.3 0-6-2.7-6-6z" stroke="#5e5e5e" stroke-width="3" fill="#fff"/><path d="M230 382.67h380m-380 76.16h380" stroke="#5e5e5e" stroke-width="3" fill="none"/><use xlink:href="#b" transform="matrix(1,0,0,1,238,348) translate(134.65432098765433 17.944444444444443)"/><use xlink:href="#c" transform="matrix(1,0,0,1,242,390.6666666666667) translate(113.95679012345678 34.94444444444444)"/><use xlink:href="#d" transform="matrix(1,0,0,1,242,466.83333333333337) translate(-6.52370370370366 35.71111111111112)"/><use xlink:href="#e" transform="matrix(1,0,0,1,242,466.83333333333337) translate(22.90246913580245 63.65777777777778)"/><use xlink:href="#f" transform="matrix(1,0,0,1,242,466.83333333333337) translate(113.40567901234567 63.65777777777778)"/><use xlink:href="#g" transform="matrix(1,0,0,1,242,466.83333333333337) translate(8.458518518518531 91.60444444444444)"/><use xlink:href="#h" transform="matrix(1,0,0,1,242,466.83333333333337) translate(117.07530864197533 91.60444444444444)"/><use xlink:href="#i" transform="matrix(1,0,0,1,242,466.83333333333337) translate(235.71925925925927 91.60444444444444)"/><path d="M290 66c0-3.3 2.7-6 6-6h248c3.3 0 6 2.7 6 6v108c0 3.3-2.7 6-6 6H296c-3.3 0-6-2.7-6-6z" stroke="#5e5e5e" stroke-width="3" fill="#fff"/><use xlink:href="#j" transform="matrix(1,0,0,1,298,68) translate(12.308641975308674 56.44444444444444)"/><path d="M420 337.5V200" stroke="#5e5e5e" stroke-width="2" fill="none"/><path d="M421 338.5h-2v-1.03h2" fill="#5e5e5e"/><path d="M420 184.74l4.64 14.26h-9.28z" stroke="#5e5e5e" stroke-width="2" fill="#fff"/><path d="M680 66c0-3.3 2.7-6 6-6h408c3.3 0 6 2.7 6 6v108c0 3.3-2.7 6-6 6H686c-3.3 0-6-2.7-6-6z" stroke="#5e5e5e" stroke-width="3" fill="#fff"/><use xlink:href="#k" transform="matrix(1,0,0,1,688,68) translate(8.087654320987667 57.06513888888889)"/><path d="M650 346c0-3.3 2.7-6 6-6h468c3.3 0 6 2.7 6 6v272c0 3.3-2.7 6-6 6H656c-3.3 0-6-2.7-6-6z" stroke="#5e5e5e" stroke-width="3" fill="#fff"/><path d="M650 383.95h480M650 475.1h480" stroke="#5e5e5e" stroke-width="3" fill="none"/><use xlink:href="#l" transform="matrix(1,0,0,1,658,348) translate(85.34469135802468 18.657777777777778)"/><use xlink:href="#m" transform="matrix(1,0,0,1,662,483.11333333333334) translate(164.75925925925927 43.83180555555556)"/><use xlink:href="#n" transform="matrix(1,0,0,1,662,483.11333333333334) translate(-6.376790123456772 71.35180555555556)"/><use xlink:href="#o" transform="matrix(1,0,0,1,662,483.11333333333334) translate(4.814814814814838 99.29847222222223)"/><use xlink:href="#p" transform="matrix(1,0,0,1,662,483.11333333333334) translate(104.18074074074076 99.29847222222223)"/><use xlink:href="#q" transform="matrix(1,0,0,1,662,483.11333333333334) translate(376.33728395061723 99.29847222222223)"/><path d="M890 337.5V200" stroke="#5e5e5e" stroke-width="2" fill="none"/><path d="M891 338.5h-2v-1.03h2" fill="#5e5e5e"/><path d="M890 184.74l4.64 14.26h-9.28z" stroke="#5e5e5e" stroke-width="2" fill="#fff"/><path d="M1394 333.5v-2.02m0-8.1v-4.04m0-8.1v-4.04m0-8.1v-4.03m0-8.1v-4.04m0-8.1v-4.03m0-8.1v-4.04m0-8.1v-4.04m0-8.1v-4.03m0-8.1v-4.05m0-8.1v-4.03m0-8.1V200M1394 333.47v1.03" stroke="#5e5e5e" stroke-width="2" fill="none"/><path d="M1394 184.74l4.64 14.26h-9.28z" stroke="#5e5e5e" stroke-width="2" fill="#fff"/><path d="M1230 63c0-3.3 2.7-6 6-6h318c3.3 0 6 2.7 6 6v111c0 3.3-2.7 6-6 6h-318c-3.3 0-6-2.7-6-6z" stroke="#5e5e5e" stroke-width="3" fill="#fff"/><use xlink:href="#r" transform="matrix(1,0,0,1,1238,65) translate(3.759259259259295 57.94444444444444)"/><path d="M1200 346c0-3.3 2.7-6 6-6h348c3.3 0 6 2.7 6 6v159c0 3.3-2.7 6-6 6h-348c-3.3 0-6-2.7-6-6z" stroke="#5e5e5e" stroke-width="3" fill="#fff"/><path d="M1200 382.67h360m-360 64.16h360" stroke="#5e5e5e" stroke-width="3" fill="none"/><use xlink:href="#s" transform="matrix(1,0,0,1,1208,348) translate(77.30864197530866 17.944444444444443)"/><use xlink:href="#t" transform="matrix(1,0,0,1,1212,390.6666666666667) translate(116.98148148148148 28.944444444444443)"/><use xlink:href="#u" transform="matrix(1,0,0,1,1212,454.83333333333337) translate(26.858024691358025 28.944444444444443)"/><use xlink:href="#v" transform="matrix(1,0,0,1,1212,454.83333333333337) translate(264.75925925925924 28.944444444444443)"/><path d="M460 706c0-3.3 2.7-6 6-6h348c3.3 0 6 2.7 6 6v266c0 3.3-2.7 6-6 6H466c-3.3 0-6-2.7-6-6z" stroke="#5e5e5e" stroke-width="3" fill="#fff"/><path d="M460 742.67h360m-360 64.16h360" stroke="#5e5e5e" stroke-width="3" fill="none"/><g><use xlink:href="#w" transform="matrix(1,0,0,1,468,708) translate(99.90123456790124 17.944444444444443)"/></g><g><use xlink:href="#x" transform="matrix(1,0,0,1,472,814.8333333333333) translate(48.246913580246954 28.611111111111107)"/><use xlink:href="#y" transform="matrix(1,0,0,1,472,814.8333333333333) translate(17.691358024691397 55.27777777777778)"/><use xlink:href="#z" transform="matrix(1,0,0,1,472,814.8333333333333) translate(212.3827160493827 55.27777777777778)"/><use xlink:href="#A" transform="matrix(1,0,0,1,472,814.8333333333333) translate(224.72839506172838 55.27777777777778)"/><use xlink:href="#B" transform="matrix(1,0,0,1,472,814.8333333333333) translate(71.61111111111111 81.94444444444443)"/><use xlink:href="#C" transform="matrix(1,0,0,1,472,814.8333333333333) translate(258.21604938271605 81.94444444444443)"/><use xlink:href="#D" transform="matrix(1,0,0,1,472,814.8333333333333) translate(19.512345679012356 108.61111111111111)"/><use xlink:href="#E" transform="matrix(1,0,0,1,472,814.8333333333333) translate(213.03086419753083 108.61111111111111)"/><use xlink:href="#C" transform="matrix(1,0,0,1,472,814.8333333333333) translate(310.3148148148148 108.61111111111111)"/><use xlink:href="#F" transform="matrix(1,0,0,1,472,814.8333333333333) translate(51.05555555555554 135.27777777777777)"/><use xlink:href="#z" transform="matrix(1,0,0,1,472,814.8333333333333) translate(158.1543209876543 135.27777777777777)"/><use xlink:href="#G" transform="matrix(1,0,0,1,472,814.8333333333333) translate(170.5 135.27777777777777)"/></g><path d="M1020 706c0-3.3 2.7-6 6-6h348c3.3 0 6 2.7 6 6v239c0 3.3-2.7 6-6 6h-348c-3.3 0-6-2.7-6-6z" stroke="#5e5e5e" stroke-width="3" fill="#fff"/><path d="M1020 742.67h360m-360 144.16h360" stroke="#5e5e5e" stroke-width="3" fill="none"/><g><use xlink:href="#H" transform="matrix(1,0,0,1,1028,708) translate(81.4135802469136 17.944444444444443)"/></g><g><use xlink:href="#I" transform="matrix(1,0,0,1,1032,750.6666666666666) translate(10.191358024691368 28.94444444444445)"/><use xlink:href="#z" transform="matrix(1,0,0,1,1032,750.6666666666666) translate(142.16666666666669 28.94444444444445)"/><use xlink:href="#J" transform="matrix(1,0,0,1,1032,750.6666666666666) translate(154.51234567901236 28.94444444444445)"/><use xlink:href="#K" transform="matrix(1,0,0,1,1032,750.6666666666666) translate(218.5864197530864 28.94444444444445)"/><use xlink:href="#L" transform="matrix(1,0,0,1,1032,750.6666666666666) translate(12.043209876543216 55.61111111111112)"/><use xlink:href="#z" transform="matrix(1,0,0,1,1032,750.6666666666666) translate(140.31481481481484 55.61111111111112)"/><use xlink:href="#J" transform="matrix(1,0,0,1,1032,750.6666666666666) translate(152.6604938271605 55.61111111111112)"/><use xlink:href="#K" transform="matrix(1,0,0,1,1032,750.6666666666666) translate(216.73456790123456 55.61111111111112)"/><use xlink:href="#M" transform="matrix(1,0,0,1,1032,750.6666666666666) translate(36.734567901234584 82.27777777777777)"/><use xlink:href="#z" transform="matrix(1,0,0,1,1032,750.6666666666666) translate(203.1543209876543 82.27777777777777)"/><use xlink:href="#N" transform="matrix(1,0,0,1,1032,750.6666666666666) translate(215.49999999999997 82.27777777777777)"/><use xlink:href="#O" transform="matrix(1,0,0,1,1032,750.6666666666666) translate(114.38888888888889 108.94444444444446)"/></g><defs><path fill="#333" d="M185-189c-5-48-123-54-124 2 14 75 158 14 163 119 3 78-121 87-175 55-17-10-28-26-33-46l33-7c5 56 141 63 141-1 0-78-155-14-162-118-5-82 145-84 179-34 5 7 8 16 11 25" id="P"/><path fill="#333" d="M100-194c63 0 86 42 84 106H49c0 40 14 67 53 68 26 1 43-12 49-29l28 8c-11 28-37 45-77 45C44 4 14-33 15-96c1-61 26-98 85-98zm52 81c6-60-76-77-97-28-3 7-6 17-6 28h103" id="Q"/><path fill="#333" d="M96-169c-40 0-48 33-48 73s9 75 48 75c24 0 41-14 43-38l32 2c-6 37-31 61-74 61-59 0-76-41-82-99-10-93 101-131 147-64 4 7 5 14 7 22l-32 3c-4-21-16-35-41-35" id="R"/><path fill="#333" d="M84 4C-5 8 30-112 23-190h32v120c0 31 7 50 39 49 72-2 45-101 50-169h31l1 190h-30c-1-10 1-25-2-33-11 22-28 36-60 37" id="S"/><path fill="#333" d="M114-163C36-179 61-72 57 0H25l-1-190h30c1 12-1 29 2 39 6-27 23-49 58-41v29" id="T"/><path fill="#333" d="M24-231v-30h32v30H24zM24 0v-190h32V0H24" id="U"/><path fill="#333" d="M59-47c-2 24 18 29 38 22v24C64 9 27 4 27-40v-127H5v-23h24l9-43h21v43h35v23H59v120" id="V"/><path fill="#333" d="M179-190L93 31C79 59 56 82 12 73V49c39 6 53-20 64-50L1-190h34L92-34l54-156h33" id="W"/><g id="a"><use transform="matrix(0.06172839506172839,0,0,0.06172839506172839,0,0)" xlink:href="#P"/><use transform="matrix(0.06172839506172839,0,0,0.06172839506172839,14.814814814814813,0)" xlink:href="#Q"/><use transform="matrix(0.06172839506172839,0,0,0.06172839506172839,27.160493827160494,0)" xlink:href="#R"/><use transform="matrix(0.06172839506172839,0,0,0.06172839506172839,38.27160493827161,0)" xlink:href="#S"/><use transform="matrix(0.06172839506172839,0,0,0.06172839506172839,50.617283950617285,0)" xlink:href="#T"/><use transform="matrix(0.06172839506172839,0,0,0.06172839506172839,57.96296296296296,0)" xlink:href="#U"/><use transform="matrix(0.06172839506172839,0,0,0.06172839506172839,62.839506172839506,0)" xlink:href="#V"/><use transform="matrix(0.06172839506172839,0,0,0.06172839506172839,69.01234567901234,0)" xlink:href="#W"/></g><path fill="#333" d="M153-248C145-148 188 4 80 4 36 3 13-21 6-62l32-5c4 25 16 42 43 43 27 0 39-20 39-49v-147H72v-28h81" id="X"/><path fill="#333" d="M266 0h-40l-56-210L115 0H75L2-248h35L96-30l15-64 43-154h32l59 218 59-218h35" id="Y"/><path fill="#333" d="M127-220V0H93v-220H8v-28h204v28h-85" id="Z"/><path fill="#333" d="M63-220v92h138v28H63V0H30v-248h175v28H63" id="aa"/><path fill="#333" d="M24 0v-261h32V0H24" id="ab"/><g id="b"><use transform="matrix(0.06172839506172839,0,0,0.06172839506172839,0,0)" xlink:href="#X"/><use transform="matrix(0.06172839506172839,0,0,0.06172839506172839,11.11111111111111,0)" xlink:href="#Y"/><use transform="matrix(0.06172839506172839,0,0,0.06172839506172839,32.03703703703704,0)" xlink:href="#Z"/><use transform="matrix(0.06172839506172839,0,0,0.06172839506172839,45.55555555555556,0)" xlink:href="#aa"/><use transform="matrix(0.06172839506172839,0,0,0.06172839506172839,59.074074074074076,0)" xlink:href="#U"/><use transform="matrix(0.06172839506172839,0,0,0.06172839506172839,63.95061728395061,0)" xlink:href="#ab"/><use transform="matrix(0.06172839506172839,0,0,0.06172839506172839,68.82716049382717,0)" xlink:href="#V"/><use transform="matrix(0.06172839506172839,0,0,0.06172839506172839,75,0)" xlink:href="#Q"/><use transform="matrix(0.06172839506172839,0,0,0.06172839506172839,87.34567901234568,0)" xlink:href="#T"/></g><path fill="#333" d="M16-82v-28h88v28H16" id="ac"/><path fill="#333" d="M232-93c-1 65-40 97-104 97C67 4 28-28 28-90v-158h33c8 89-33 224 67 224 102 0 64-133 71-224h33v155" id="ad"/><path fill="#333" d="M135-143c-3-34-86-38-87 0 15 53 115 12 119 90S17 21 10-45l28-5c4 36 97 45 98 0-10-56-113-15-118-90-4-57 82-63 122-42 12 7 21 19 24 35" id="ae"/><path fill="#333" d="M108 0H70L1-190h34L89-25l56-165h34" id="af"/><g id="c"><use transform="matrix(0.06172839506172839,0,0,0.06172839506172839,0,0)" xlink:href="#ac"/><use transform="matrix(0.06172839506172839,0,0,0.06172839506172839,7.345679012345679,0)" xlink:href="#ad"/><use transform="matrix(0.06172839506172839,0,0,0.06172839506172839,23.333333333333332,0)" xlink:href="#ae"/><use transform="matrix(0.06172839506172839,0,0,0.06172839506172839,34.44444444444444,0)" xlink:href="#Q"/><use transform="matrix(0.06172839506172839,0,0,0.06172839506172839,46.79012345679012,0)" xlink:href="#T"/><use transform="matrix(0.06172839506172839,0,0,0.06172839506172839,54.1358024691358,0)" xlink:href="#P"/><use transform="matrix(0.06172839506172839,0,0,0.06172839506172839,68.9506172839506,0)" xlink:href="#Q"/><use transform="matrix(0.06172839506172839,0,0,0.06172839506172839,81.29629629629629,0)" xlink:href="#T"/><use transform="matrix(0.06172839506172839,0,0,0.06172839506172839,88.64197530864197,0)" xlink:href="#af"/><use transform="matrix(0.06172839506172839,0,0,0.06172839506172839,99.75308641975309,0)" xlink:href="#U"/><use transform="matrix(0.06172839506172839,0,0,0.06172839506172839,104.62962962962963,0)" xlink:href="#R"/><use transform="matrix(0.06172839506172839,0,0,0.06172839506172839,115.74074074074075,0)" xlink:href="#Q"/></g><path fill="#333" d="M158-156l-14 65h45v19h-49L124 0h-19l15-72H56L41 0H22l15-72H2v-19h39l14-65H11v-19h48l15-71h20l-16 71h64l16-71h19l-16 71h37v19h-40zm-83 0L61-91h63l14-65H75" id="ag"/><path fill="#333" d="M85-194c31 0 48 13 60 33l-1-100h32l1 261h-30c-2-10 0-23-3-31C134-8 116 4 85 4 32 4 16-35 15-94c0-66 23-100 70-100zm9 24c-40 0-46 34-46 75 0 40 6 74 45 74 42 0 51-32 51-76 0-42-9-74-50-73" id="ah"/><path fill="#333" d="M100-194c62-1 85 37 85 99 1 63-27 99-86 99S16-35 15-95c0-66 28-99 85-99zM99-20c44 1 53-31 53-75 0-43-8-75-51-75s-53 32-53 75 10 74 51 75" id="ai"/><path fill="#333" d="M33 0v-248h34V0H33" id="aj"/><path fill="#333" d="M117-194c89-4 53 116 60 194h-32v-121c0-31-8-49-39-48C34-167 62-67 57 0H25l-1-190h30c1 10-1 24 2 32 11-22 29-35 61-36" id="ak"/><path fill="#333" d="M141-36C126-15 110 5 73 4 37 3 15-17 15-53c-1-64 63-63 125-63 3-35-9-54-41-54-24 1-41 7-42 31l-33-3c5-37 33-52 76-52 45 0 72 20 72 64v82c-1 20 7 32 28 27v20c-31 9-61-2-59-35zM48-53c0 20 12 33 32 33 41-3 63-29 60-74-43 2-92-5-92 41" id="al"/><path fill="#333" d="M87 75C49 33 22-17 22-94c0-76 28-126 65-167h31c-38 41-64 92-64 168S80 34 118 75H87" id="am"/><path fill="#333" d="M197 0v-115H63V0H30v-248h33v105h134v-105h34V0h-34" id="an"/><path fill="#333" d="M115-194c55 1 70 41 70 98S169 2 115 4C84 4 66-9 55-30l1 105H24l-1-265h31l2 30c10-21 28-34 59-34zm-8 174c40 0 45-34 45-75s-6-73-45-74c-42 0-51 32-51 76 0 43 10 73 51 73" id="ao"/><path fill="#333" d="M233-177c-1 41-23 64-60 70L243 0h-38l-65-103H63V0H30v-248c88 3 205-21 203 71zM63-129c60-2 137 13 137-47 0-61-80-42-137-45v92" id="ap"/><path fill="#333" d="M145-31C134-9 116 4 85 4 32 4 16-35 15-94c0-59 17-99 70-100 32-1 48 14 60 33 0-11-1-24 2-32h30l-1 268h-32zM93-21c41 0 51-33 51-76s-8-73-50-73c-40 0-46 35-46 75s5 74 45 74" id="aq"/><g id="d"><use transform="matrix(0.06172839506172839,0,0,0.06172839506172839,0,0)" xlink:href="#ag"/><use transform="matrix(0.06172839506172839,0,0,0.06172839506172839,12.345679012345679,0)" xlink:href="#ah"/><use transform="matrix(0.06172839506172839,0,0,0.06172839506172839,24.691358024691358,0)" xlink:href="#ai"/><use transform="matrix(0.06172839506172839,0,0,0.06172839506172839,37.03703703703704,0)" xlink:href="#aa"/><use transform="matrix(0.06172839506172839,0,0,0.06172839506172839,50.55555555555556,0)" xlink:href="#U"/><use transform="matrix(0.06172839506172839,0,0,0.06172839506172839,55.4320987654321,0)" xlink:href="#ab"/><use transform="matrix(0.06172839506172839,0,0,0.06172839506172839,60.308641975308646,0)" xlink:href="#V"/><use transform="matrix(0.06172839506172839,0,0,0.06172839506172839,66.48148148148148,0)" xlink:href="#Q"/><use transform="matrix(0.06172839506172839,0,0,0.06172839506172839,78.82716049382717,0)" xlink:href="#T"/><use transform="matrix(0.06172839506172839,0,0,0.06172839506172839,86.17283950617285,0)" xlink:href="#aj"/><use transform="matrix(0.06172839506172839,0,0,0.06172839506172839,92.34567901234568,0)" xlink:href="#ak"/><use transform="matrix(0.06172839506172839,0,0,0.06172839506172839,104.69135802469137,0)" xlink:href="#V"/><use transform="matrix(0.06172839506172839,0,0,0.06172839506172839,110.8641975308642,0)" xlink:href="#Q"/><use transform="matrix(0.06172839506172839,0,0,0.06172839506172839,123.20987654320989,0)" xlink:href="#T"/><use transform="matrix(0.06172839506172839,0,0,0.06172839506172839,130.55555555555557,0)" xlink:href="#ak"/><use transform="matrix(0.06172839506172839,0,0,0.06172839506172839,142.90123456790124,0)" xlink:href="#al"/><use transform="matrix(0.06172839506172839,0,0,0.06172839506172839,155.2469135802469,0)" xlink:href="#ab"/><use transform="matrix(0.06172839506172839,0,0,0.06172839506172839,160.12345679012344,0)" xlink:href="#am"/><use transform="matrix(0.06469135802469135,0,0,0.06469135802469135,167.4691358024691,0)" xlink:href="#an"/><use transform="matrix(0.06469135802469135,0,0,0.06469135802469135,184.22419753086416,0)" xlink:href="#V"/><use transform="matrix(0.06469135802469135,0,0,0.06469135802469135,190.6933333333333,0)" xlink:href="#V"/><use transform="matrix(0.06469135802469135,0,0,0.06469135802469135,197.16246913580244,0)" xlink:href="#ao"/><use transform="matrix(0.06469135802469135,0,0,0.06469135802469135,210.10074074074072,0)" xlink:href="#P"/><use transform="matrix(0.06469135802469135,0,0,0.06469135802469135,225.62666666666664,0)" xlink:href="#Q"/><use transform="matrix(0.06469135802469135,0,0,0.06469135802469135,238.56493827160492,0)" xlink:href="#T"/><use transform="matrix(0.06469135802469135,0,0,0.06469135802469135,246.2632098765432,0)" xlink:href="#af"/><use transform="matrix(0.06469135802469135,0,0,0.06469135802469135,257.9076543209876,0)" xlink:href="#ab"/><use transform="matrix(0.06469135802469135,0,0,0.06469135802469135,263.0182716049382,0)" xlink:href="#Q"/><use transform="matrix(0.06469135802469135,0,0,0.06469135802469135,275.9565432098765,0)" xlink:href="#V"/><use transform="matrix(0.06469135802469135,0,0,0.06469135802469135,282.4256790123456,0)" xlink:href="#ap"/><use transform="matrix(0.06469135802469135,0,0,0.06469135802469135,299.18074074074065,0)" xlink:href="#Q"/><use transform="matrix(0.06469135802469135,0,0,0.06469135802469135,312.1190123456789,0)" xlink:href="#aq"/><use transform="matrix(0.06469135802469135,0,0,0.06469135802469135,325.05728395061715,0)" xlink:href="#S"/><use transform="matrix(0.06469135802469135,0,0,0.06469135802469135,337.9955555555555,0)" xlink:href="#Q"/><use transform="matrix(0.06469135802469135,0,0,0.06469135802469135,350.93382716049376,0)" xlink:href="#ae"/><use transform="matrix(0.06469135802469135,0,0,0.06469135802469135,362.5782716049382,0)" xlink:href="#V"/></g><path fill="#333" d="M68-38c1 34 0 65-14 84H32c9-13 17-26 17-46H33v-38h35" id="ar"/><g id="e"><use transform="matrix(0.06469135802469135,0,0,0.06469135802469135,0,0)" xlink:href="#T"/><use transform="matrix(0.06469135802469135,0,0,0.06469135802469135,7.698271604938271,0)" xlink:href="#Q"/><use transform="matrix(0.06469135802469135,0,0,0.06469135802469135,20.636543209876542,0)" xlink:href="#aq"/><use transform="matrix(0.06469135802469135,0,0,0.06469135802469135,33.57481481481482,0)" xlink:href="#S"/><use transform="matrix(0.06469135802469135,0,0,0.06469135802469135,46.51308641975309,0)" xlink:href="#Q"/><use transform="matrix(0.06469135802469135,0,0,0.06469135802469135,59.45135802469136,0)" xlink:href="#ae"/><use transform="matrix(0.06469135802469135,0,0,0.06469135802469135,71.0958024691358,0)" xlink:href="#V"/><use transform="matrix(0.06469135802469135,0,0,0.06469135802469135,77.56493827160494,0)" xlink:href="#ar"/></g><g id="f"><use transform="matrix(0.06469135802469135,0,0,0.06469135802469135,0,0)" xlink:href="#an"/><use transform="matrix(0.06469135802469135,0,0,0.06469135802469135,16.75506172839506,0)" xlink:href="#V"/><use transform="matrix(0.06469135802469135,0,0,0.06469135802469135,23.224197530864195,0)" xlink:href="#V"/><use transform="matrix(0.06469135802469135,0,0,0.06469135802469135,29.69333333333333,0)" xlink:href="#ao"/><use transform="matrix(0.06469135802469135,0,0,0.06469135802469135,42.6316049382716,0)" xlink:href="#P"/><use transform="matrix(0.06469135802469135,0,0,0.06469135802469135,58.157530864197525,0)" xlink:href="#Q"/><use transform="matrix(0.06469135802469135,0,0,0.06469135802469135,71.09580246913579,0)" xlink:href="#T"/><use transform="matrix(0.06469135802469135,0,0,0.06469135802469135,78.79407407407406,0)" xlink:href="#af"/><use transform="matrix(0.06469135802469135,0,0,0.06469135802469135,90.4385185185185,0)" xlink:href="#ab"/><use transform="matrix(0.06469135802469135,0,0,0.06469135802469135,95.54913580246912,0)" xlink:href="#Q"/><use transform="matrix(0.06469135802469135,0,0,0.06469135802469135,108.48740740740739,0)" xlink:href="#V"/><use transform="matrix(0.06469135802469135,0,0,0.06469135802469135,114.95654320987653,0)" xlink:href="#ap"/><use transform="matrix(0.06469135802469135,0,0,0.06469135802469135,131.7116049382716,0)" xlink:href="#Q"/><use transform="matrix(0.06469135802469135,0,0,0.06469135802469135,144.64987654320987,0)" xlink:href="#ae"/><use transform="matrix(0.06469135802469135,0,0,0.06469135802469135,156.29432098765432,0)" xlink:href="#ao"/><use transform="matrix(0.06469135802469135,0,0,0.06469135802469135,169.2325925925926,0)" xlink:href="#ai"/><use transform="matrix(0.06469135802469135,0,0,0.06469135802469135,182.17086419753088,0)" xlink:href="#ak"/><use transform="matrix(0.06469135802469135,0,0,0.06469135802469135,195.10913580246915,0)" xlink:href="#ae"/><use transform="matrix(0.06469135802469135,0,0,0.06469135802469135,206.75358024691357,0)" xlink:href="#Q"/></g><g id="g"><use transform="matrix(0.06469135802469135,0,0,0.06469135802469135,0,0)" xlink:href="#T"/><use transform="matrix(0.06469135802469135,0,0,0.06469135802469135,7.698271604938271,0)" xlink:href="#Q"/><use transform="matrix(0.06469135802469135,0,0,0.06469135802469135,20.636543209876542,0)" xlink:href="#ae"/><use transform="matrix(0.06469135802469135,0,0,0.06469135802469135,32.28098765432099,0)" xlink:href="#ao"/><use transform="matrix(0.06469135802469135,0,0,0.06469135802469135,45.21925925925926,0)" xlink:href="#ai"/><use transform="matrix(0.06469135802469135,0,0,0.06469135802469135,58.15753086419753,0)" xlink:href="#ak"/><use transform="matrix(0.06469135802469135,0,0,0.06469135802469135,71.0958024691358,0)" xlink:href="#ae"/><use transform="matrix(0.06469135802469135,0,0,0.06469135802469135,82.74024691358025,0)" xlink:href="#Q"/><use transform="matrix(0.06469135802469135,0,0,0.06469135802469135,95.67851851851852,0)" xlink:href="#ar"/></g><path fill="#333" d="M212-179c-10-28-35-45-73-45-59 0-87 40-87 99 0 60 29 101 89 101 43 0 62-24 78-52l27 14C228-24 195 4 139 4 59 4 22-46 18-125c-6-104 99-153 187-111 19 9 31 26 39 46" id="as"/><path fill="#333" d="M106-169C34-169 62-67 57 0H25v-261h32l-1 103c12-21 28-36 61-36 89 0 53 116 60 194h-32v-121c2-32-8-49-39-48" id="at"/><g id="h"><use transform="matrix(0.06469135802469135,0,0,0.06469135802469135,0,0)" xlink:href="#aa"/><use transform="matrix(0.06469135802469135,0,0,0.06469135802469135,14.167407407407406,0)" xlink:href="#U"/><use transform="matrix(0.06469135802469135,0,0,0.06469135802469135,19.278024691358024,0)" xlink:href="#ab"/><use transform="matrix(0.06469135802469135,0,0,0.06469135802469135,24.38864197530864,0)" xlink:href="#V"/><use transform="matrix(0.06469135802469135,0,0,0.06469135802469135,30.857777777777777,0)" xlink:href="#Q"/><use transform="matrix(0.06469135802469135,0,0,0.06469135802469135,43.79604938271605,0)" xlink:href="#T"/><use transform="matrix(0.06469135802469135,0,0,0.06469135802469135,51.49432098765432,0)" xlink:href="#as"/><use transform="matrix(0.06469135802469135,0,0,0.06469135802469135,68.2493827160494,0)" xlink:href="#at"/><use transform="matrix(0.06469135802469135,0,0,0.06469135802469135,81.18765432098765,0)" xlink:href="#al"/><use transform="matrix(0.06469135802469135,0,0,0.06469135802469135,94.12592592592591,0)" xlink:href="#U"/><use transform="matrix(0.06469135802469135,0,0,0.06469135802469135,99.23654320987653,0)" xlink:href="#ak"/></g><path fill="#333" d="M101-234c-31-9-42 10-38 44h38v23H63V0H32v-167H5v-23h27c-7-52 17-82 69-68v24" id="au"/><path fill="#333" d="M33-261c38 41 65 92 65 168S71 34 33 75H2C39 34 66-17 66-93S39-220 2-261h31" id="av"/><g id="i"><use transform="matrix(0.06469135802469135,0,0,0.06469135802469135,0,0)" xlink:href="#au"/><use transform="matrix(0.06469135802469135,0,0,0.06469135802469135,6.469135802469135,0)" xlink:href="#U"/><use transform="matrix(0.06469135802469135,0,0,0.06469135802469135,11.579753086419752,0)" xlink:href="#ab"/><use transform="matrix(0.06469135802469135,0,0,0.06469135802469135,16.690370370370367,0)" xlink:href="#V"/><use transform="matrix(0.06469135802469135,0,0,0.06469135802469135,23.159506172839503,0)" xlink:href="#Q"/><use transform="matrix(0.06469135802469135,0,0,0.06469135802469135,36.09777777777777,0)" xlink:href="#T"/><use transform="matrix(0.06469135802469135,0,0,0.06469135802469135,43.79604938271604,0)" xlink:href="#as"/><use transform="matrix(0.06469135802469135,0,0,0.06469135802469135,60.5511111111111,0)" xlink:href="#at"/><use transform="matrix(0.06469135802469135,0,0,0.06469135802469135,73.48938271604936,0)" xlink:href="#al"/><use transform="matrix(0.06469135802469135,0,0,0.06469135802469135,86.42765432098763,0)" xlink:href="#U"/><use transform="matrix(0.06469135802469135,0,0,0.06469135802469135,91.53827160493825,0)" xlink:href="#ak"/><use transform="matrix(0.06172839506172839,0,0,0.06172839506172839,104.47654320987651,0)" xlink:href="#av"/></g><path fill="#333" d="M140-251c81 0 123 46 123 126C263-46 219 4 140 4 59 4 17-45 17-125s42-126 123-126zm0 227c63 0 89-41 89-101s-29-99-89-99c-61 0-89 39-89 99S79-25 140-24" id="aw"/><path fill="#333" d="M30-248c87 1 191-15 191 75 0 78-77 80-158 76V0H30v-248zm33 125c57 0 124 11 124-50 0-59-68-47-124-48v98" id="ax"/><g id="j"><use transform="matrix(0.06172839506172839,0,0,0.06172839506172839,0,0)" xlink:href="#aw"/><use transform="matrix(0.06172839506172839,0,0,0.06172839506172839,17.28395061728395,0)" xlink:href="#ak"/><use transform="matrix(0.06172839506172839,0,0,0.06172839506172839,29.629629629629626,0)" xlink:href="#R"/><use transform="matrix(0.06172839506172839,0,0,0.06172839506172839,40.74074074074073,0)" xlink:href="#Q"/><use transform="matrix(0.06172839506172839,0,0,0.06172839506172839,53.08641975308641,0)" xlink:href="#ax"/><use transform="matrix(0.06172839506172839,0,0,0.06172839506172839,67.90123456790123,0)" xlink:href="#Q"/><use transform="matrix(0.06172839506172839,0,0,0.06172839506172839,80.24691358024691,0)" xlink:href="#T"/><use transform="matrix(0.06172839506172839,0,0,0.06172839506172839,87.5925925925926,0)" xlink:href="#ap"/><use transform="matrix(0.06172839506172839,0,0,0.06172839506172839,103.58024691358025,0)" xlink:href="#Q"/><use transform="matrix(0.06172839506172839,0,0,0.06172839506172839,115.92592592592594,0)" xlink:href="#aq"/><use transform="matrix(0.06172839506172839,0,0,0.06172839506172839,128.27160493827162,0)" xlink:href="#S"/><use transform="matrix(0.06172839506172839,0,0,0.06172839506172839,140.6172839506173,0)" xlink:href="#Q"/><use transform="matrix(0.06172839506172839,0,0,0.06172839506172839,152.96296296296296,0)" xlink:href="#ae"/><use transform="matrix(0.06172839506172839,0,0,0.06172839506172839,164.07407407407408,0)" xlink:href="#V"/><use transform="matrix(0.06172839506172839,0,0,0.06172839506172839,170.2469135802469,0)" xlink:href="#aa"/><use transform="matrix(0.06172839506172839,0,0,0.06172839506172839,183.76543209876542,0)" xlink:href="#U"/><use transform="matrix(0.06172839506172839,0,0,0.06172839506172839,188.64197530864195,0)" xlink:href="#ab"/><use transform="matrix(0.06172839506172839,0,0,0.06172839506172839,193.51851851851848,0)" xlink:href="#V"/><use transform="matrix(0.06172839506172839,0,0,0.06172839506172839,199.6913580246913,0)" xlink:href="#Q"/><use transform="matrix(0.06172839506172839,0,0,0.06172839506172839,212.03703703703698,0)" xlink:href="#T"/></g><path fill="#333" d="M205 0l-28-72H64L36 0H1l101-248h38L239 0h-34zm-38-99l-47-123c-12 45-31 82-46 123h93" id="ay"/><path fill="#333" d="M143 0L79-87 56-68V0H24v-261h32v163l83-92h37l-77 82L181 0h-38" id="az"/><g id="k"><use transform="matrix(0.06469135802469135,0,0,0.06469135802469135,0,0)" xlink:href="#ax"/><use transform="matrix(0.06469135802469135,0,0,0.06469135802469135,15.525925925925923,0)" xlink:href="#T"/><use transform="matrix(0.06469135802469135,0,0,0.06469135802469135,23.224197530864195,0)" xlink:href="#Q"/><use transform="matrix(0.06469135802469135,0,0,0.06469135802469135,36.16246913580247,0)" xlink:href="#ay"/><use transform="matrix(0.06469135802469135,0,0,0.06469135802469135,51.68839506172839,0)" xlink:href="#S"/><use transform="matrix(0.06469135802469135,0,0,0.06469135802469135,64.62666666666667,0)" xlink:href="#V"/><use transform="matrix(0.06469135802469135,0,0,0.06469135802469135,71.0958024691358,0)" xlink:href="#at"/><use transform="matrix(0.06469135802469135,0,0,0.06469135802469135,84.03407407407407,0)" xlink:href="#Q"/><use transform="matrix(0.06469135802469135,0,0,0.06469135802469135,96.97234567901234,0)" xlink:href="#ak"/><use transform="matrix(0.06469135802469135,0,0,0.06469135802469135,109.9106172839506,0)" xlink:href="#V"/><use transform="matrix(0.06469135802469135,0,0,0.06469135802469135,116.37975308641974,0)" xlink:href="#U"/><use transform="matrix(0.06469135802469135,0,0,0.06469135802469135,121.49037037037036,0)" xlink:href="#R"/><use transform="matrix(0.06469135802469135,0,0,0.06469135802469135,133.1348148148148,0)" xlink:href="#al"/><use transform="matrix(0.06469135802469135,0,0,0.06469135802469135,146.07308641975308,0)" xlink:href="#V"/><use transform="matrix(0.06469135802469135,0,0,0.06469135802469135,152.54222222222222,0)" xlink:href="#Q"/><use transform="matrix(0.06469135802469135,0,0,0.06469135802469135,165.4804938271605,0)" xlink:href="#ah"/><use transform="matrix(0.06469135802469135,0,0,0.06469135802469135,178.41876543209878,0)" xlink:href="#ay"/><use transform="matrix(0.06469135802469135,0,0,0.06469135802469135,193.9446913580247,0)" xlink:href="#S"/><use transform="matrix(0.06469135802469135,0,0,0.06469135802469135,206.88296296296298,0)" xlink:href="#V"/><use transform="matrix(0.06469135802469135,0,0,0.06469135802469135,213.35209876543212,0)" xlink:href="#at"/><use transform="matrix(0.06469135802469135,0,0,0.06469135802469135,226.2903703703704,0)" xlink:href="#Q"/><use transform="matrix(0.06469135802469135,0,0,0.06469135802469135,239.22864197530868,0)" xlink:href="#ak"/><use transform="matrix(0.06469135802469135,0,0,0.06469135802469135,252.16691358024696,0)" xlink:href="#V"/><use transform="matrix(0.06469135802469135,0,0,0.06469135802469135,258.63604938271607,0)" xlink:href="#U"/><use transform="matrix(0.06469135802469135,0,0,0.06469135802469135,263.74666666666667,0)" xlink:href="#R"/><use transform="matrix(0.06469135802469135,0,0,0.06469135802469135,275.3911111111111,0)" xlink:href="#al"/><use transform="matrix(0.06469135802469135,0,0,0.06469135802469135,288.3293827160494,0)" xlink:href="#V"/><use transform="matrix(0.06469135802469135,0,0,0.06469135802469135,294.7985185185185,0)" xlink:href="#U"/><use transform="matrix(0.06469135802469135,0,0,0.06469135802469135,299.9091358024691,0)" xlink:href="#ai"/><use transform="matrix(0.06469135802469135,0,0,0.06469135802469135,312.8474074074074,0)" xlink:href="#ak"/><use transform="matrix(0.06469135802469135,0,0,0.06469135802469135,325.78567901234567,0)" xlink:href="#Z"/><use transform="matrix(0.06469135802469135,0,0,0.06469135802469135,337.3654320987654,0)" xlink:href="#ai"/><use transform="matrix(0.06469135802469135,0,0,0.06469135802469135,350.30370370370366,0)" xlink:href="#az"/><use transform="matrix(0.06469135802469135,0,0,0.06469135802469135,361.9481481481481,0)" xlink:href="#Q"/><use transform="matrix(0.06469135802469135,0,0,0.06469135802469135,374.8864197530864,0)" xlink:href="#ak"/></g><g id="l"><use transform="matrix(0.06469135802469135,0,0,0.06469135802469135,0,0)" xlink:href="#X"/><use transform="matrix(0.06469135802469135,0,0,0.06469135802469135,11.644444444444444,0)" xlink:href="#Y"/><use transform="matrix(0.06469135802469135,0,0,0.06469135802469135,33.57481481481482,0)" xlink:href="#Z"/><use transform="matrix(0.06469135802469135,0,0,0.06469135802469135,47.742222222222225,0)" xlink:href="#ax"/><use transform="matrix(0.06469135802469135,0,0,0.06469135802469135,63.26814814814815,0)" xlink:href="#T"/><use transform="matrix(0.06469135802469135,0,0,0.06469135802469135,70.96641975308643,0)" xlink:href="#Q"/><use transform="matrix(0.06469135802469135,0,0,0.06469135802469135,83.90469135802469,0)" xlink:href="#ay"/><use transform="matrix(0.06469135802469135,0,0,0.06469135802469135,99.43061728395061,0)" xlink:href="#S"/><use transform="matrix(0.06469135802469135,0,0,0.06469135802469135,112.36888888888888,0)" xlink:href="#V"/><use transform="matrix(0.06469135802469135,0,0,0.06469135802469135,118.83802469135802,0)" xlink:href="#at"/><use transform="matrix(0.06469135802469135,0,0,0.06469135802469135,131.7762962962963,0)" xlink:href="#Q"/><use transform="matrix(0.06469135802469135,0,0,0.06469135802469135,144.71456790123457,0)" xlink:href="#ak"/><use transform="matrix(0.06469135802469135,0,0,0.06469135802469135,157.65283950617285,0)" xlink:href="#V"/><use transform="matrix(0.06469135802469135,0,0,0.06469135802469135,164.121975308642,0)" xlink:href="#U"/><use transform="matrix(0.06469135802469135,0,0,0.06469135802469135,169.2325925925926,0)" xlink:href="#R"/><use transform="matrix(0.06469135802469135,0,0,0.06469135802469135,180.87703703703704,0)" xlink:href="#al"/><use transform="matrix(0.06469135802469135,0,0,0.06469135802469135,193.81530864197532,0)" xlink:href="#V"/><use transform="matrix(0.06469135802469135,0,0,0.06469135802469135,200.28444444444446,0)" xlink:href="#U"/><use transform="matrix(0.06469135802469135,0,0,0.06469135802469135,205.39506172839506,0)" xlink:href="#ai"/><use transform="matrix(0.06469135802469135,0,0,0.06469135802469135,218.33333333333334,0)" xlink:href="#ak"/><use transform="matrix(0.06469135802469135,0,0,0.06469135802469135,231.2716049382716,0)" xlink:href="#Z"/><use transform="matrix(0.06469135802469135,0,0,0.06469135802469135,242.85135802469136,0)" xlink:href="#ai"/><use transform="matrix(0.06469135802469135,0,0,0.06469135802469135,255.78962962962962,0)" xlink:href="#az"/><use transform="matrix(0.06469135802469135,0,0,0.06469135802469135,267.4340740740741,0)" xlink:href="#Q"/><use transform="matrix(0.06469135802469135,0,0,0.06469135802469135,280.37234567901237,0)" xlink:href="#ak"/></g><path fill="#333" d="M118-107v75H92v-75H18v-26h74v-75h26v75h74v26h-74" id="aA"/><path fill="#333" d="M18-100v-36l175-74v27L42-118l151 64v27" id="aB"/><path fill="#333" d="M18-27v-27l151-64-151-65v-27l175 74v36" id="aC"/><g id="m"><use transform="matrix(0.06172839506172839,0,0,0.06172839506172839,0,0)" xlink:href="#aA"/><use transform="matrix(0.06172839506172839,0,0,0.06172839506172839,12.962962962962962,0)" xlink:href="#aB"/><use transform="matrix(0.06172839506172839,0,0,0.06172839506172839,25.925925925925924,0)" xlink:href="#aB"/><use transform="matrix(0.06172839506172839,0,0,0.06172839506172839,38.888888888888886,0)" xlink:href="#R"/><use transform="matrix(0.06172839506172839,0,0,0.06172839506172839,50,0)" xlink:href="#T"/><use transform="matrix(0.06172839506172839,0,0,0.06172839506172839,57.34567901234568,0)" xlink:href="#Q"/><use transform="matrix(0.06172839506172839,0,0,0.06172839506172839,69.69135802469135,0)" xlink:href="#al"/><use transform="matrix(0.06172839506172839,0,0,0.06172839506172839,82.03703703703704,0)" xlink:href="#V"/><use transform="matrix(0.06172839506172839,0,0,0.06172839506172839,88.20987654320987,0)" xlink:href="#Q"/><use transform="matrix(0.06172839506172839,0,0,0.06172839506172839,100.55555555555556,0)" xlink:href="#aC"/><use transform="matrix(0.06172839506172839,0,0,0.06172839506172839,113.51851851851852,0)" xlink:href="#aC"/></g><path fill="#333" d="M30-248c118-7 216 8 213 122C240-48 200 0 122 0H30v-248zM63-27c89 8 146-16 146-99s-60-101-146-95v194" id="aD"/><g id="n"><use transform="matrix(0.06469135802469135,0,0,0.06469135802469135,0,0)" xlink:href="#X"/><use transform="matrix(0.06469135802469135,0,0,0.06469135802469135,11.644444444444444,0)" xlink:href="#Y"/><use transform="matrix(0.06469135802469135,0,0,0.06469135802469135,33.57481481481482,0)" xlink:href="#Z"/><use transform="matrix(0.06469135802469135,0,0,0.06469135802469135,47.742222222222225,0)" xlink:href="#ax"/><use transform="matrix(0.06469135802469135,0,0,0.06469135802469135,63.26814814814815,0)" xlink:href="#T"/><use transform="matrix(0.06469135802469135,0,0,0.06469135802469135,70.96641975308643,0)" xlink:href="#Q"/><use transform="matrix(0.06469135802469135,0,0,0.06469135802469135,83.90469135802469,0)" xlink:href="#ay"/><use transform="matrix(0.06469135802469135,0,0,0.06469135802469135,99.43061728395061,0)" xlink:href="#S"/><use transform="matrix(0.06469135802469135,0,0,0.06469135802469135,112.36888888888888,0)" xlink:href="#V"/><use transform="matrix(0.06469135802469135,0,0,0.06469135802469135,118.83802469135802,0)" xlink:href="#at"/><use transform="matrix(0.06469135802469135,0,0,0.06469135802469135,131.7762962962963,0)" xlink:href="#Q"/><use transform="matrix(0.06469135802469135,0,0,0.06469135802469135,144.71456790123457,0)" xlink:href="#ak"/><use transform="matrix(0.06469135802469135,0,0,0.06469135802469135,157.65283950617285,0)" xlink:href="#V"/><use transform="matrix(0.06469135802469135,0,0,0.06469135802469135,164.121975308642,0)" xlink:href="#U"/><use transform="matrix(0.06469135802469135,0,0,0.06469135802469135,169.2325925925926,0)" xlink:href="#R"/><use transform="matrix(0.06469135802469135,0,0,0.06469135802469135,180.87703703703704,0)" xlink:href="#al"/><use transform="matrix(0.06469135802469135,0,0,0.06469135802469135,193.81530864197532,0)" xlink:href="#V"/><use transform="matrix(0.06469135802469135,0,0,0.06469135802469135,200.28444444444446,0)" xlink:href="#U"/><use transform="matrix(0.06469135802469135,0,0,0.06469135802469135,205.39506172839506,0)" xlink:href="#ai"/><use transform="matrix(0.06469135802469135,0,0,0.06469135802469135,218.33333333333334,0)" xlink:href="#ak"/><use transform="matrix(0.06469135802469135,0,0,0.06469135802469135,231.2716049382716,0)" xlink:href="#Z"/><use transform="matrix(0.06469135802469135,0,0,0.06469135802469135,242.85135802469136,0)" xlink:href="#ai"/><use transform="matrix(0.06469135802469135,0,0,0.06469135802469135,255.78962962962962,0)" xlink:href="#az"/><use transform="matrix(0.06469135802469135,0,0,0.06469135802469135,267.4340740740741,0)" xlink:href="#Q"/><use transform="matrix(0.06469135802469135,0,0,0.06469135802469135,280.37234567901237,0)" xlink:href="#ak"/><use transform="matrix(0.06469135802469135,0,0,0.06469135802469135,293.31061728395065,0)" xlink:href="#am"/><use transform="matrix(0.06469135802469135,0,0,0.06469135802469135,301.0088888888889,0)" xlink:href="#X"/><use transform="matrix(0.06469135802469135,0,0,0.06469135802469135,312.65333333333336,0)" xlink:href="#Y"/><use transform="matrix(0.06469135802469135,0,0,0.06469135802469135,334.58370370370375,0)" xlink:href="#Z"/><use transform="matrix(0.06469135802469135,0,0,0.06469135802469135,348.75111111111113,0)" xlink:href="#ad"/><use transform="matrix(0.06469135802469135,0,0,0.06469135802469135,365.5061728395062,0)" xlink:href="#ae"/><use transform="matrix(0.06469135802469135,0,0,0.06469135802469135,377.1506172839506,0)" xlink:href="#Q"/><use transform="matrix(0.06469135802469135,0,0,0.06469135802469135,390.0888888888889,0)" xlink:href="#T"/><use transform="matrix(0.06469135802469135,0,0,0.06469135802469135,397.7871604938272,0)" xlink:href="#aD"/><use transform="matrix(0.06469135802469135,0,0,0.06469135802469135,414.5422222222222,0)" xlink:href="#Q"/><use transform="matrix(0.06469135802469135,0,0,0.06469135802469135,427.4804938271605,0)" xlink:href="#V"/><use transform="matrix(0.06469135802469135,0,0,0.06469135802469135,433.9496296296296,0)" xlink:href="#al"/><use transform="matrix(0.06469135802469135,0,0,0.06469135802469135,446.8879012345679,0)" xlink:href="#U"/><use transform="matrix(0.06469135802469135,0,0,0.06469135802469135,451.9985185185185,0)" xlink:href="#ab"/><use transform="matrix(0.06469135802469135,0,0,0.06469135802469135,457.1091358024691,0)" xlink:href="#ae"/></g><g id="o"><use transform="matrix(0.06469135802469135,0,0,0.06469135802469135,0,0)" xlink:href="#ao"/><use transform="matrix(0.06469135802469135,0,0,0.06469135802469135,12.93827160493827,0)" xlink:href="#T"/><use transform="matrix(0.06469135802469135,0,0,0.06469135802469135,20.636543209876542,0)" xlink:href="#U"/><use transform="matrix(0.06469135802469135,0,0,0.06469135802469135,25.74716049382716,0)" xlink:href="#ak"/><use transform="matrix(0.06469135802469135,0,0,0.06469135802469135,38.68543209876543,0)" xlink:href="#R"/><use transform="matrix(0.06469135802469135,0,0,0.06469135802469135,50.32987654320988,0)" xlink:href="#U"/><use transform="matrix(0.06469135802469135,0,0,0.06469135802469135,55.440493827160495,0)" xlink:href="#ao"/><use transform="matrix(0.06469135802469135,0,0,0.06469135802469135,68.37876543209876,0)" xlink:href="#al"/><use transform="matrix(0.06469135802469135,0,0,0.06469135802469135,81.31703703703703,0)" xlink:href="#ab"/><use transform="matrix(0.06469135802469135,0,0,0.06469135802469135,86.42765432098764,0)" xlink:href="#ar"/></g><path fill="#333" d="M115-194c53 0 69 39 70 98 0 66-23 100-70 100C84 3 66-7 56-30L54 0H23l1-261h32v101c10-23 28-34 59-34zm-8 174c40 0 45-34 45-75 0-40-5-75-45-74-42 0-51 32-51 76 0 43 10 73 51 73" id="aE"/><g id="p"><use transform="matrix(0.06469135802469135,0,0,0.06469135802469135,0,0)" xlink:href="#Y"/><use transform="matrix(0.06469135802469135,0,0,0.06469135802469135,21.47753086419753,0)" xlink:href="#Q"/><use transform="matrix(0.06469135802469135,0,0,0.06469135802469135,34.4158024691358,0)" xlink:href="#aE"/><use transform="matrix(0.06469135802469135,0,0,0.06469135802469135,47.35407407407407,0)" xlink:href="#ay"/><use transform="matrix(0.06469135802469135,0,0,0.06469135802469135,62.879999999999995,0)" xlink:href="#S"/><use transform="matrix(0.06469135802469135,0,0,0.06469135802469135,75.81827160493826,0)" xlink:href="#V"/><use transform="matrix(0.06469135802469135,0,0,0.06469135802469135,82.2874074074074,0)" xlink:href="#at"/><use transform="matrix(0.06469135802469135,0,0,0.06469135802469135,95.22567901234567,0)" xlink:href="#Q"/><use transform="matrix(0.06469135802469135,0,0,0.06469135802469135,108.16395061728393,0)" xlink:href="#ak"/><use transform="matrix(0.06469135802469135,0,0,0.06469135802469135,121.1022222222222,0)" xlink:href="#V"/><use transform="matrix(0.06469135802469135,0,0,0.06469135802469135,127.57135802469134,0)" xlink:href="#U"/><use transform="matrix(0.06469135802469135,0,0,0.06469135802469135,132.68197530864194,0)" xlink:href="#R"/><use transform="matrix(0.06469135802469135,0,0,0.06469135802469135,144.32641975308638,0)" xlink:href="#al"/><use transform="matrix(0.06469135802469135,0,0,0.06469135802469135,157.26469135802466,0)" xlink:href="#V"/><use transform="matrix(0.06469135802469135,0,0,0.06469135802469135,163.7338271604938,0)" xlink:href="#U"/><use transform="matrix(0.06469135802469135,0,0,0.06469135802469135,168.8444444444444,0)" xlink:href="#ai"/><use transform="matrix(0.06469135802469135,0,0,0.06469135802469135,181.78271604938269,0)" xlink:href="#ak"/><use transform="matrix(0.06469135802469135,0,0,0.06469135802469135,194.72098765432096,0)" xlink:href="#aD"/><use transform="matrix(0.06469135802469135,0,0,0.06469135802469135,211.476049382716,0)" xlink:href="#Q"/><use transform="matrix(0.06469135802469135,0,0,0.06469135802469135,224.4143209876543,0)" xlink:href="#V"/><use transform="matrix(0.06469135802469135,0,0,0.06469135802469135,230.88345679012343,0)" xlink:href="#al"/><use transform="matrix(0.06469135802469135,0,0,0.06469135802469135,243.8217283950617,0)" xlink:href="#U"/><use transform="matrix(0.06469135802469135,0,0,0.06469135802469135,248.93234567901231,0)" xlink:href="#ab"/><use transform="matrix(0.06469135802469135,0,0,0.06469135802469135,254.04296296296292,0)" xlink:href="#ae"/></g><g id="q"><use transform="matrix(0.06469135802469135,0,0,0.06469135802469135,0,0)" xlink:href="#ah"/><use transform="matrix(0.06469135802469135,0,0,0.06469135802469135,12.93827160493827,0)" xlink:href="#Q"/><use transform="matrix(0.06469135802469135,0,0,0.06469135802469135,25.87654320987654,0)" xlink:href="#V"/><use transform="matrix(0.06469135802469135,0,0,0.06469135802469135,32.34567901234568,0)" xlink:href="#al"/><use transform="matrix(0.06469135802469135,0,0,0.06469135802469135,45.28395061728395,0)" xlink:href="#U"/><use transform="matrix(0.06469135802469135,0,0,0.06469135802469135,50.394567901234566,0)" xlink:href="#ab"/><use transform="matrix(0.06469135802469135,0,0,0.06469135802469135,55.505185185185184,0)" xlink:href="#ae"/><use transform="matrix(0.06469135802469135,0,0,0.06469135802469135,67.14962962962964,0)" xlink:href="#av"/></g><path fill="#333" d="M177-190C167-65 218 103 67 71c-23-6-38-20-44-43l32-5c15 47 100 32 89-28v-30C133-14 115 1 83 1 29 1 15-40 15-95c0-56 16-97 71-98 29-1 48 16 59 35 1-10 0-23 2-32h30zM94-22c36 0 50-32 50-73 0-42-14-75-50-75-39 0-46 34-46 75s6 73 46 73" id="aF"/><g id="r"><use transform="matrix(0.06172839506172839,0,0,0.06172839506172839,0,0)" xlink:href="#Y"/><use transform="matrix(0.06172839506172839,0,0,0.06172839506172839,20.493827160493826,0)" xlink:href="#Q"/><use transform="matrix(0.06172839506172839,0,0,0.06172839506172839,32.839506172839506,0)" xlink:href="#aE"/><use transform="matrix(0.06172839506172839,0,0,0.06172839506172839,45.18518518518518,0)" xlink:href="#P"/><use transform="matrix(0.06172839506172839,0,0,0.06172839506172839,60,0)" xlink:href="#Q"/><use transform="matrix(0.06172839506172839,0,0,0.06172839506172839,72.34567901234568,0)" xlink:href="#R"/><use transform="matrix(0.06172839506172839,0,0,0.06172839506172839,83.4567901234568,0)" xlink:href="#S"/><use transform="matrix(0.06172839506172839,0,0,0.06172839506172839,95.80246913580248,0)" xlink:href="#T"/><use transform="matrix(0.06172839506172839,0,0,0.06172839506172839,103.14814814814817,0)" xlink:href="#U"/><use transform="matrix(0.06172839506172839,0,0,0.06172839506172839,108.02469135802471,0)" xlink:href="#V"/><use transform="matrix(0.06172839506172839,0,0,0.06172839506172839,114.19753086419755,0)" xlink:href="#W"/><use transform="matrix(0.06172839506172839,0,0,0.06172839506172839,125.30864197530866,0)" xlink:href="#as"/><use transform="matrix(0.06172839506172839,0,0,0.06172839506172839,141.2962962962963,0)" xlink:href="#ai"/><use transform="matrix(0.06172839506172839,0,0,0.06172839506172839,153.64197530864197,0)" xlink:href="#ak"/><use transform="matrix(0.06172839506172839,0,0,0.06172839506172839,165.98765432098764,0)" xlink:href="#au"/><use transform="matrix(0.06172839506172839,0,0,0.06172839506172839,172.16049382716048,0)" xlink:href="#U"/><use transform="matrix(0.06172839506172839,0,0,0.06172839506172839,177.037037037037,0)" xlink:href="#aF"/><use transform="matrix(0.06172839506172839,0,0,0.06172839506172839,189.38271604938268,0)" xlink:href="#S"/><use transform="matrix(0.06172839506172839,0,0,0.06172839506172839,201.72839506172835,0)" xlink:href="#T"/><use transform="matrix(0.06172839506172839,0,0,0.06172839506172839,209.07407407407402,0)" xlink:href="#Q"/><use transform="matrix(0.06172839506172839,0,0,0.06172839506172839,221.4197530864197,0)" xlink:href="#T"/><use transform="matrix(0.06172839506172839,0,0,0.06172839506172839,228.76543209876536,0)" xlink:href="#ay"/><use transform="matrix(0.06172839506172839,0,0,0.06172839506172839,243.58024691358017,0)" xlink:href="#ah"/><use transform="matrix(0.06172839506172839,0,0,0.06172839506172839,255.92592592592587,0)" xlink:href="#al"/><use transform="matrix(0.06172839506172839,0,0,0.06172839506172839,268.27160493827154,0)" xlink:href="#ao"/><use transform="matrix(0.06172839506172839,0,0,0.06172839506172839,280.6172839506172,0)" xlink:href="#V"/><use transform="matrix(0.06172839506172839,0,0,0.06172839506172839,286.79012345679007,0)" xlink:href="#Q"/><use transform="matrix(0.06172839506172839,0,0,0.06172839506172839,299.13580246913574,0)" xlink:href="#T"/></g><g id="s"><use transform="matrix(0.06172839506172839,0,0,0.06172839506172839,0,0)" xlink:href="#Y"/><use transform="matrix(0.06172839506172839,0,0,0.06172839506172839,20.493827160493826,0)" xlink:href="#Q"/><use transform="matrix(0.06172839506172839,0,0,0.06172839506172839,32.839506172839506,0)" xlink:href="#aE"/><use transform="matrix(0.06172839506172839,0,0,0.06172839506172839,45.18518518518518,0)" xlink:href="#P"/><use transform="matrix(0.06172839506172839,0,0,0.06172839506172839,60,0)" xlink:href="#Q"/><use transform="matrix(0.06172839506172839,0,0,0.06172839506172839,72.34567901234568,0)" xlink:href="#R"/><use transform="matrix(0.06172839506172839,0,0,0.06172839506172839,83.4567901234568,0)" xlink:href="#S"/><use transform="matrix(0.06172839506172839,0,0,0.06172839506172839,95.80246913580248,0)" xlink:href="#T"/><use transform="matrix(0.06172839506172839,0,0,0.06172839506172839,103.14814814814817,0)" xlink:href="#U"/><use transform="matrix(0.06172839506172839,0,0,0.06172839506172839,108.02469135802471,0)" xlink:href="#V"/><use transform="matrix(0.06172839506172839,0,0,0.06172839506172839,114.19753086419755,0)" xlink:href="#W"/><use transform="matrix(0.06172839506172839,0,0,0.06172839506172839,125.30864197530866,0)" xlink:href="#as"/><use transform="matrix(0.06172839506172839,0,0,0.06172839506172839,141.2962962962963,0)" xlink:href="#ai"/><use transform="matrix(0.06172839506172839,0,0,0.06172839506172839,153.64197530864197,0)" xlink:href="#ak"/><use transform="matrix(0.06172839506172839,0,0,0.06172839506172839,165.98765432098764,0)" xlink:href="#au"/><use transform="matrix(0.06172839506172839,0,0,0.06172839506172839,172.16049382716048,0)" xlink:href="#U"/><use transform="matrix(0.06172839506172839,0,0,0.06172839506172839,177.037037037037,0)" xlink:href="#aF"/></g><g id="t"><use transform="matrix(0.06172839506172839,0,0,0.06172839506172839,0,0)" xlink:href="#ac"/><use transform="matrix(0.06172839506172839,0,0,0.06172839506172839,7.345679012345679,0)" xlink:href="#X"/><use transform="matrix(0.06172839506172839,0,0,0.06172839506172839,18.45679012345679,0)" xlink:href="#Y"/><use transform="matrix(0.06172839506172839,0,0,0.06172839506172839,39.382716049382715,0)" xlink:href="#Z"/><use transform="matrix(0.06172839506172839,0,0,0.06172839506172839,52.901234567901234,0)" xlink:href="#aa"/><use transform="matrix(0.06172839506172839,0,0,0.06172839506172839,66.41975308641975,0)" xlink:href="#U"/><use transform="matrix(0.06172839506172839,0,0,0.06172839506172839,71.29629629629629,0)" xlink:href="#ab"/><use transform="matrix(0.06172839506172839,0,0,0.06172839506172839,76.17283950617283,0)" xlink:href="#V"/><use transform="matrix(0.06172839506172839,0,0,0.06172839506172839,82.34567901234567,0)" xlink:href="#Q"/><use transform="matrix(0.06172839506172839,0,0,0.06172839506172839,94.69135802469135,0)" xlink:href="#T"/></g><g id="u"><use transform="matrix(0.06172839506172839,0,0,0.06172839506172839,0,0)" xlink:href="#ag"/><use transform="matrix(0.06172839506172839,0,0,0.06172839506172839,12.345679012345679,0)" xlink:href="#R"/><use transform="matrix(0.06172839506172839,0,0,0.06172839506172839,23.45679012345679,0)" xlink:href="#ai"/><use transform="matrix(0.06172839506172839,0,0,0.06172839506172839,35.80246913580247,0)" xlink:href="#ak"/><use transform="matrix(0.06172839506172839,0,0,0.06172839506172839,48.148148148148145,0)" xlink:href="#au"/><use transform="matrix(0.06172839506172839,0,0,0.06172839506172839,54.32098765432099,0)" xlink:href="#U"/><use transform="matrix(0.06172839506172839,0,0,0.06172839506172839,59.19753086419753,0)" xlink:href="#aF"/><use transform="matrix(0.06172839506172839,0,0,0.06172839506172839,71.54320987654322,0)" xlink:href="#S"/><use transform="matrix(0.06172839506172839,0,0,0.06172839506172839,83.8888888888889,0)" xlink:href="#T"/><use transform="matrix(0.06172839506172839,0,0,0.06172839506172839,91.23456790123458,0)" xlink:href="#Q"/><use transform="matrix(0.06172839506172839,0,0,0.06172839506172839,103.58024691358027,0)" xlink:href="#am"/><use transform="matrix(0.06172839506172839,0,0,0.06172839506172839,110.92592592592595,0)" xlink:href="#an"/><use transform="matrix(0.06172839506172839,0,0,0.06172839506172839,126.9135802469136,0)" xlink:href="#V"/><use transform="matrix(0.06172839506172839,0,0,0.06172839506172839,133.08641975308646,0)" xlink:href="#V"/><use transform="matrix(0.06172839506172839,0,0,0.06172839506172839,139.2592592592593,0)" xlink:href="#ao"/><use transform="matrix(0.06172839506172839,0,0,0.06172839506172839,151.60493827160496,0)" xlink:href="#P"/><use transform="matrix(0.06172839506172839,0,0,0.06172839506172839,166.41975308641977,0)" xlink:href="#Q"/><use transform="matrix(0.06172839506172839,0,0,0.06172839506172839,178.76543209876544,0)" xlink:href="#R"/><use transform="matrix(0.06172839506172839,0,0,0.06172839506172839,189.87654320987656,0)" xlink:href="#S"/><use transform="matrix(0.06172839506172839,0,0,0.06172839506172839,202.22222222222223,0)" xlink:href="#T"/><use transform="matrix(0.06172839506172839,0,0,0.06172839506172839,209.5679012345679,0)" xlink:href="#U"/><use transform="matrix(0.06172839506172839,0,0,0.06172839506172839,214.44444444444443,0)" xlink:href="#V"/><use transform="matrix(0.06172839506172839,0,0,0.06172839506172839,220.61728395061726,0)" xlink:href="#W"/></g><g id="v"><use transform="matrix(0.06172839506172839,0,0,0.06172839506172839,0,0)" xlink:href="#at"/><use transform="matrix(0.06172839506172839,0,0,0.06172839506172839,12.345679012345679,0)" xlink:href="#V"/><use transform="matrix(0.06172839506172839,0,0,0.06172839506172839,18.51851851851852,0)" xlink:href="#V"/><use transform="matrix(0.06172839506172839,0,0,0.06172839506172839,24.691358024691358,0)" xlink:href="#ao"/><use transform="matrix(0.06172839506172839,0,0,0.06172839506172839,37.03703703703704,0)" xlink:href="#av"/></g><g id="w"><use transform="matrix(0.06172839506172839,0,0,0.06172839506172839,0,0)" xlink:href="#P"/><use transform="matrix(0.06172839506172839,0,0,0.06172839506172839,14.814814814814813,0)" xlink:href="#Q"/><use transform="matrix(0.06172839506172839,0,0,0.06172839506172839,27.160493827160494,0)" xlink:href="#R"/><use transform="matrix(0.06172839506172839,0,0,0.06172839506172839,38.27160493827161,0)" xlink:href="#S"/><use transform="matrix(0.06172839506172839,0,0,0.06172839506172839,50.617283950617285,0)" xlink:href="#T"/><use transform="matrix(0.06172839506172839,0,0,0.06172839506172839,57.96296296296296,0)" xlink:href="#U"/><use transform="matrix(0.06172839506172839,0,0,0.06172839506172839,62.839506172839506,0)" xlink:href="#V"/><use transform="matrix(0.06172839506172839,0,0,0.06172839506172839,69.01234567901234,0)" xlink:href="#W"/><use transform="matrix(0.06172839506172839,0,0,0.06172839506172839,80.12345679012346,0)" xlink:href="#as"/><use transform="matrix(0.06172839506172839,0,0,0.06172839506172839,96.11111111111111,0)" xlink:href="#ai"/><use transform="matrix(0.06172839506172839,0,0,0.06172839506172839,108.4567901234568,0)" xlink:href="#ak"/><use transform="matrix(0.06172839506172839,0,0,0.06172839506172839,120.80246913580248,0)" xlink:href="#au"/><use transform="matrix(0.06172839506172839,0,0,0.06172839506172839,126.97530864197533,0)" xlink:href="#U"/><use transform="matrix(0.06172839506172839,0,0,0.06172839506172839,131.85185185185185,0)" xlink:href="#aF"/></g><path fill="#333" d="M24-231v-30h32v30H24zM-9 49c24 4 33-6 33-30v-209h32V24c2 40-23 58-65 49V49" id="aG"/><path fill="#333" d="M206 0h-36l-40-164L89 0H53L-1-190h32L70-26l43-164h34l41 164 42-164h31" id="aH"/><path fill="#333" d="M210-169c-67 3-38 105-44 169h-31v-121c0-29-5-50-35-48C34-165 62-65 56 0H25l-1-190h30c1 10-1 24 2 32 10-44 99-50 107 0 11-21 27-35 58-36 85-2 47 119 55 194h-31v-121c0-29-5-49-35-48" id="aI"/><g id="x"><use transform="matrix(0.06172839506172839,0,0,0.06172839506172839,0,0)" xlink:href="#aA"/><use transform="matrix(0.06172839506172839,0,0,0.06172839506172839,12.962962962962962,0)" xlink:href="#aG"/><use transform="matrix(0.06172839506172839,0,0,0.06172839506172839,17.839506172839506,0)" xlink:href="#aH"/><use transform="matrix(0.06172839506172839,0,0,0.06172839506172839,33.82716049382716,0)" xlink:href="#V"/><use transform="matrix(0.06172839506172839,0,0,0.06172839506172839,40,0)" xlink:href="#ay"/><use transform="matrix(0.06172839506172839,0,0,0.06172839506172839,54.81481481481481,0)" xlink:href="#ab"/><use transform="matrix(0.06172839506172839,0,0,0.06172839506172839,59.691358024691354,0)" xlink:href="#aF"/><use transform="matrix(0.06172839506172839,0,0,0.06172839506172839,72.03703703703704,0)" xlink:href="#ai"/><use transform="matrix(0.06172839506172839,0,0,0.06172839506172839,84.38271604938272,0)" xlink:href="#T"/><use transform="matrix(0.06172839506172839,0,0,0.06172839506172839,91.7283950617284,0)" xlink:href="#U"/><use transform="matrix(0.06172839506172839,0,0,0.06172839506172839,96.60493827160495,0)" xlink:href="#V"/><use transform="matrix(0.06172839506172839,0,0,0.06172839506172839,102.77777777777779,0)" xlink:href="#at"/><use transform="matrix(0.06172839506172839,0,0,0.06172839506172839,115.12345679012347,0)" xlink:href="#aI"/><use transform="matrix(0.06172839506172839,0,0,0.06172839506172839,133.58024691358025,0)" xlink:href="#am"/><use transform="matrix(0.06172839506172839,0,0,0.06172839506172839,140.92592592592592,0)" xlink:href="#ao"/><use transform="matrix(0.06172839506172839,0,0,0.06172839506172839,153.2716049382716,0)" xlink:href="#T"/><use transform="matrix(0.06172839506172839,0,0,0.06172839506172839,160.61728395061726,0)" xlink:href="#ai"/><use transform="matrix(0.06172839506172839,0,0,0.06172839506172839,172.96296296296293,0)" xlink:href="#ao"/><use transform="matrix(0.06172839506172839,0,0,0.06172839506172839,185.3086419753086,0)" xlink:href="#Q"/><use transform="matrix(0.06172839506172839,0,0,0.06172839506172839,197.65432098765427,0)" xlink:href="#T"/><use transform="matrix(0.06172839506172839,0,0,0.06172839506172839,204.99999999999994,0)" xlink:href="#V"/><use transform="matrix(0.06172839506172839,0,0,0.06172839506172839,211.17283950617278,0)" xlink:href="#U"/><use transform="matrix(0.06172839506172839,0,0,0.06172839506172839,216.0493827160493,0)" xlink:href="#Q"/><use transform="matrix(0.06172839506172839,0,0,0.06172839506172839,228.39506172839498,0)" xlink:href="#ae"/></g><g id="y"><use transform="matrix(0.06172839506172839,0,0,0.06172839506172839,0,0)" xlink:href="#P"/><use transform="matrix(0.06172839506172839,0,0,0.06172839506172839,14.814814814814813,0)" xlink:href="#Q"/><use transform="matrix(0.06172839506172839,0,0,0.06172839506172839,27.160493827160494,0)" xlink:href="#R"/><use transform="matrix(0.06172839506172839,0,0,0.06172839506172839,38.27160493827161,0)" xlink:href="#S"/><use transform="matrix(0.06172839506172839,0,0,0.06172839506172839,50.617283950617285,0)" xlink:href="#T"/><use transform="matrix(0.06172839506172839,0,0,0.06172839506172839,57.96296296296296,0)" xlink:href="#U"/><use transform="matrix(0.06172839506172839,0,0,0.06172839506172839,62.839506172839506,0)" xlink:href="#V"/><use transform="matrix(0.06172839506172839,0,0,0.06172839506172839,69.01234567901234,0)" xlink:href="#W"/><use transform="matrix(0.06172839506172839,0,0,0.06172839506172839,80.12345679012346,0)" xlink:href="#ax"/><use transform="matrix(0.06172839506172839,0,0,0.06172839506172839,94.93827160493827,0)" xlink:href="#T"/><use transform="matrix(0.06172839506172839,0,0,0.06172839506172839,102.28395061728395,0)" xlink:href="#ai"/><use transform="matrix(0.06172839506172839,0,0,0.06172839506172839,114.62962962962963,0)" xlink:href="#ao"/><use transform="matrix(0.06172839506172839,0,0,0.06172839506172839,126.97530864197533,0)" xlink:href="#Q"/><use transform="matrix(0.06172839506172839,0,0,0.06172839506172839,139.320987654321,0)" xlink:href="#T"/><use transform="matrix(0.06172839506172839,0,0,0.06172839506172839,146.66666666666666,0)" xlink:href="#V"/><use transform="matrix(0.06172839506172839,0,0,0.06172839506172839,152.8395061728395,0)" xlink:href="#U"/><use transform="matrix(0.06172839506172839,0,0,0.06172839506172839,157.71604938271602,0)" xlink:href="#Q"/><use transform="matrix(0.06172839506172839,0,0,0.06172839506172839,170.0617283950617,0)" xlink:href="#ae"/><use transform="matrix(0.06172839506172839,0,0,0.06172839506172839,181.1728395061728,0)" xlink:href="#av"/></g><path fill="#333" d="M33-154v-36h34v36H33zM33 0v-36h34V0H33" id="aJ"/><use transform="matrix(0.06172839506172839,0,0,0.06172839506172839,0,0)" xlink:href="#aJ" id="z"/><g id="A"><use transform="matrix(0.06172839506172839,0,0,0.06172839506172839,0,0)" xlink:href="#ay"/><use transform="matrix(0.06172839506172839,0,0,0.06172839506172839,14.814814814814813,0)" xlink:href="#ab"/><use transform="matrix(0.06172839506172839,0,0,0.06172839506172839,19.691358024691354,0)" xlink:href="#aF"/><use transform="matrix(0.06172839506172839,0,0,0.06172839506172839,32.03703703703703,0)" xlink:href="#ai"/><use transform="matrix(0.06172839506172839,0,0,0.06172839506172839,44.38271604938271,0)" xlink:href="#T"/><use transform="matrix(0.06172839506172839,0,0,0.06172839506172839,51.728395061728385,0)" xlink:href="#U"/><use transform="matrix(0.06172839506172839,0,0,0.06172839506172839,56.60493827160493,0)" xlink:href="#V"/><use transform="matrix(0.06172839506172839,0,0,0.06172839506172839,62.77777777777777,0)" xlink:href="#at"/><use transform="matrix(0.06172839506172839,0,0,0.06172839506172839,75.12345679012346,0)" xlink:href="#aI"/></g><g id="B"><use transform="matrix(0.06172839506172839,0,0,0.06172839506172839,0,0)" xlink:href="#aA"/><use transform="matrix(0.06172839506172839,0,0,0.06172839506172839,12.962962962962962,0)" xlink:href="#af"/><use transform="matrix(0.06172839506172839,0,0,0.06172839506172839,24.074074074074073,0)" xlink:href="#Q"/><use transform="matrix(0.06172839506172839,0,0,0.06172839506172839,36.41975308641975,0)" xlink:href="#T"/><use transform="matrix(0.06172839506172839,0,0,0.06172839506172839,43.76543209876543,0)" xlink:href="#au"/><use transform="matrix(0.06172839506172839,0,0,0.06172839506172839,49.93827160493827,0)" xlink:href="#U"/><use transform="matrix(0.06172839506172839,0,0,0.06172839506172839,54.81481481481482,0)" xlink:href="#Q"/><use transform="matrix(0.06172839506172839,0,0,0.06172839506172839,67.1604938271605,0)" xlink:href="#T"/><use transform="matrix(0.06172839506172839,0,0,0.06172839506172839,74.50617283950618,0)" xlink:href="#am"/><use transform="matrix(0.06172839506172839,0,0,0.06172839506172839,81.85185185185186,0)" xlink:href="#ao"/><use transform="matrix(0.06172839506172839,0,0,0.06172839506172839,94.19753086419755,0)" xlink:href="#T"/><use transform="matrix(0.06172839506172839,0,0,0.06172839506172839,101.54320987654323,0)" xlink:href="#ai"/><use transform="matrix(0.06172839506172839,0,0,0.06172839506172839,113.88888888888891,0)" xlink:href="#ao"/><use transform="matrix(0.06172839506172839,0,0,0.06172839506172839,126.2345679012346,0)" xlink:href="#Q"/><use transform="matrix(0.06172839506172839,0,0,0.06172839506172839,138.58024691358028,0)" xlink:href="#T"/><use transform="matrix(0.06172839506172839,0,0,0.06172839506172839,145.92592592592595,0)" xlink:href="#V"/><use transform="matrix(0.06172839506172839,0,0,0.06172839506172839,152.0987654320988,0)" xlink:href="#U"/><use transform="matrix(0.06172839506172839,0,0,0.06172839506172839,156.97530864197532,0)" xlink:href="#Q"/><use transform="matrix(0.06172839506172839,0,0,0.06172839506172839,169.320987654321,0)" xlink:href="#ae"/></g><use transform="matrix(0.06172839506172839,0,0,0.06172839506172839,0,0)" xlink:href="#aJ" id="C"/><g id="D"><use transform="matrix(0.06172839506172839,0,0,0.06172839506172839,0,0)" xlink:href="#P"/><use transform="matrix(0.06172839506172839,0,0,0.06172839506172839,14.814814814814813,0)" xlink:href="#Q"/><use transform="matrix(0.06172839506172839,0,0,0.06172839506172839,27.160493827160494,0)" xlink:href="#R"/><use transform="matrix(0.06172839506172839,0,0,0.06172839506172839,38.27160493827161,0)" xlink:href="#S"/><use transform="matrix(0.06172839506172839,0,0,0.06172839506172839,50.617283950617285,0)" xlink:href="#T"/><use transform="matrix(0.06172839506172839,0,0,0.06172839506172839,57.96296296296296,0)" xlink:href="#U"/><use transform="matrix(0.06172839506172839,0,0,0.06172839506172839,62.839506172839506,0)" xlink:href="#V"/><use transform="matrix(0.06172839506172839,0,0,0.06172839506172839,69.01234567901234,0)" xlink:href="#W"/><use transform="matrix(0.06172839506172839,0,0,0.06172839506172839,80.12345679012346,0)" xlink:href="#ax"/><use transform="matrix(0.06172839506172839,0,0,0.06172839506172839,94.93827160493827,0)" xlink:href="#T"/><use transform="matrix(0.06172839506172839,0,0,0.06172839506172839,102.28395061728395,0)" xlink:href="#ai"/><use transform="matrix(0.06172839506172839,0,0,0.06172839506172839,114.62962962962963,0)" xlink:href="#ao"/><use transform="matrix(0.06172839506172839,0,0,0.06172839506172839,126.97530864197533,0)" xlink:href="#Q"/><use transform="matrix(0.06172839506172839,0,0,0.06172839506172839,139.320987654321,0)" xlink:href="#T"/><use transform="matrix(0.06172839506172839,0,0,0.06172839506172839,146.66666666666666,0)" xlink:href="#V"/><use transform="matrix(0.06172839506172839,0,0,0.06172839506172839,152.8395061728395,0)" xlink:href="#U"/><use transform="matrix(0.06172839506172839,0,0,0.06172839506172839,157.71604938271602,0)" xlink:href="#Q"/><use transform="matrix(0.06172839506172839,0,0,0.06172839506172839,170.0617283950617,0)" xlink:href="#ae"/><use transform="matrix(0.06172839506172839,0,0,0.06172839506172839,181.1728395061728,0)" xlink:href="#ar"/></g><g id="E"><use transform="matrix(0.06172839506172839,0,0,0.06172839506172839,0,0)" xlink:href="#al"/><use transform="matrix(0.06172839506172839,0,0,0.06172839506172839,12.345679012345679,0)" xlink:href="#ab"/><use transform="matrix(0.06172839506172839,0,0,0.06172839506172839,17.22222222222222,0)" xlink:href="#aF"/><use transform="matrix(0.06172839506172839,0,0,0.06172839506172839,29.5679012345679,0)" xlink:href="#ai"/><use transform="matrix(0.06172839506172839,0,0,0.06172839506172839,41.913580246913575,0)" xlink:href="#T"/><use transform="matrix(0.06172839506172839,0,0,0.06172839506172839,49.25925925925925,0)" xlink:href="#U"/><use transform="matrix(0.06172839506172839,0,0,0.06172839506172839,54.1358024691358,0)" xlink:href="#V"/><use transform="matrix(0.06172839506172839,0,0,0.06172839506172839,60.30864197530864,0)" xlink:href="#at"/><use transform="matrix(0.06172839506172839,0,0,0.06172839506172839,72.65432098765432,0)" xlink:href="#aI"/></g><g id="F"><use transform="matrix(0.06172839506172839,0,0,0.06172839506172839,0,0)" xlink:href="#ay"/><use transform="matrix(0.06172839506172839,0,0,0.06172839506172839,14.814814814814813,0)" xlink:href="#ab"/><use transform="matrix(0.06172839506172839,0,0,0.06172839506172839,19.691358024691354,0)" xlink:href="#aF"/><use transform="matrix(0.06172839506172839,0,0,0.06172839506172839,32.03703703703703,0)" xlink:href="#ai"/><use transform="matrix(0.06172839506172839,0,0,0.06172839506172839,44.38271604938271,0)" xlink:href="#T"/><use transform="matrix(0.06172839506172839,0,0,0.06172839506172839,51.728395061728385,0)" xlink:href="#U"/><use transform="matrix(0.06172839506172839,0,0,0.06172839506172839,56.60493827160493,0)" xlink:href="#V"/><use transform="matrix(0.06172839506172839,0,0,0.06172839506172839,62.77777777777777,0)" xlink:href="#at"/><use transform="matrix(0.06172839506172839,0,0,0.06172839506172839,75.12345679012346,0)" xlink:href="#aI"/><use transform="matrix(0.06172839506172839,0,0,0.06172839506172839,93.58024691358024,0)" xlink:href="#av"/></g><path fill="#333" d="M137 0h-34L2-248h35l83 218 83-218h36" id="aK"/><g id="G"><use transform="matrix(0.06172839506172839,0,0,0.06172839506172839,0,0)" xlink:href="#X"/><use transform="matrix(0.06172839506172839,0,0,0.06172839506172839,11.11111111111111,0)" xlink:href="#Y"/><use transform="matrix(0.06172839506172839,0,0,0.06172839506172839,32.03703703703704,0)" xlink:href="#Z"/><use transform="matrix(0.06172839506172839,0,0,0.06172839506172839,45.55555555555556,0)" xlink:href="#aK"/><use transform="matrix(0.06172839506172839,0,0,0.06172839506172839,59.1358024691358,0)" xlink:href="#Q"/><use transform="matrix(0.06172839506172839,0,0,0.06172839506172839,71.48148148148148,0)" xlink:href="#T"/><use transform="matrix(0.06172839506172839,0,0,0.06172839506172839,78.82716049382717,0)" xlink:href="#U"/><use transform="matrix(0.06172839506172839,0,0,0.06172839506172839,83.70370370370371,0)" xlink:href="#au"/><use transform="matrix(0.06172839506172839,0,0,0.06172839506172839,89.87654320987654,0)" xlink:href="#U"/><use transform="matrix(0.06172839506172839,0,0,0.06172839506172839,94.75308641975309,0)" xlink:href="#Q"/><use transform="matrix(0.06172839506172839,0,0,0.06172839506172839,107.09876543209877,0)" xlink:href="#T"/></g><g id="H"><use transform="matrix(0.06172839506172839,0,0,0.06172839506172839,0,0)" xlink:href="#P"/><use transform="matrix(0.06172839506172839,0,0,0.06172839506172839,14.814814814814813,0)" xlink:href="#Q"/><use transform="matrix(0.06172839506172839,0,0,0.06172839506172839,27.160493827160494,0)" xlink:href="#R"/><use transform="matrix(0.06172839506172839,0,0,0.06172839506172839,38.27160493827161,0)" xlink:href="#S"/><use transform="matrix(0.06172839506172839,0,0,0.06172839506172839,50.617283950617285,0)" xlink:href="#T"/><use transform="matrix(0.06172839506172839,0,0,0.06172839506172839,57.96296296296296,0)" xlink:href="#U"/><use transform="matrix(0.06172839506172839,0,0,0.06172839506172839,62.839506172839506,0)" xlink:href="#V"/><use transform="matrix(0.06172839506172839,0,0,0.06172839506172839,69.01234567901234,0)" xlink:href="#W"/><use transform="matrix(0.06172839506172839,0,0,0.06172839506172839,80.12345679012346,0)" xlink:href="#ax"/><use transform="matrix(0.06172839506172839,0,0,0.06172839506172839,94.93827160493827,0)" xlink:href="#T"/><use transform="matrix(0.06172839506172839,0,0,0.06172839506172839,102.28395061728395,0)" xlink:href="#ai"/><use transform="matrix(0.06172839506172839,0,0,0.06172839506172839,114.62962962962963,0)" xlink:href="#ao"/><use transform="matrix(0.06172839506172839,0,0,0.06172839506172839,126.97530864197533,0)" xlink:href="#Q"/><use transform="matrix(0.06172839506172839,0,0,0.06172839506172839,139.320987654321,0)" xlink:href="#T"/><use transform="matrix(0.06172839506172839,0,0,0.06172839506172839,146.66666666666666,0)" xlink:href="#V"/><use transform="matrix(0.06172839506172839,0,0,0.06172839506172839,152.8395061728395,0)" xlink:href="#U"/><use transform="matrix(0.06172839506172839,0,0,0.06172839506172839,157.71604938271602,0)" xlink:href="#Q"/><use transform="matrix(0.06172839506172839,0,0,0.06172839506172839,170.0617283950617,0)" xlink:href="#ae"/></g><g id="I"><use transform="matrix(0.06172839506172839,0,0,0.06172839506172839,0,0)" xlink:href="#ac"/><use transform="matrix(0.06172839506172839,0,0,0.06172839506172839,7.345679012345679,0)" xlink:href="#V"/><use transform="matrix(0.06172839506172839,0,0,0.06172839506172839,13.518518518518519,0)" xlink:href="#ai"/><use transform="matrix(0.06172839506172839,0,0,0.06172839506172839,25.864197530864196,0)" xlink:href="#az"/><use transform="matrix(0.06172839506172839,0,0,0.06172839506172839,36.9753086419753,0)" xlink:href="#Q"/><use transform="matrix(0.06172839506172839,0,0,0.06172839506172839,49.32098765432098,0)" xlink:href="#ak"/><use transform="matrix(0.06172839506172839,0,0,0.06172839506172839,61.66666666666666,0)" xlink:href="#P"/><use transform="matrix(0.06172839506172839,0,0,0.06172839506172839,76.48148148148147,0)" xlink:href="#Q"/><use transform="matrix(0.06172839506172839,0,0,0.06172839506172839,88.82716049382715,0)" xlink:href="#R"/><use transform="matrix(0.06172839506172839,0,0,0.06172839506172839,99.93827160493827,0)" xlink:href="#T"/><use transform="matrix(0.06172839506172839,0,0,0.06172839506172839,107.28395061728395,0)" xlink:href="#Q"/><use transform="matrix(0.06172839506172839,0,0,0.06172839506172839,119.62962962962963,0)" xlink:href="#V"/></g><g id="J"><use transform="matrix(0.06172839506172839,0,0,0.06172839506172839,0,0)" xlink:href="#P"/><use transform="matrix(0.06172839506172839,0,0,0.06172839506172839,14.814814814814813,0)" xlink:href="#V"/><use transform="matrix(0.06172839506172839,0,0,0.06172839506172839,20.98765432098765,0)" xlink:href="#T"/><use transform="matrix(0.06172839506172839,0,0,0.06172839506172839,28.33333333333333,0)" xlink:href="#U"/><use transform="matrix(0.06172839506172839,0,0,0.06172839506172839,33.20987654320987,0)" xlink:href="#ak"/><use transform="matrix(0.06172839506172839,0,0,0.06172839506172839,45.55555555555555,0)" xlink:href="#aF"/></g><path fill="#333" d="M39-94c74 12-11 154 75 146v23c-44 4-70-10-70-52C44-23 55-84 6-82v-22c81 4-7-162 84-157h24v23c-82-15-2 131-75 144" id="aL"/><path fill="#333" d="M76-40C78 24 84 88 6 75V52C86 64 9-79 80-94c-40-6-34-59-34-106 1-29-11-41-40-38v-23c44-4 70 10 70 52 0 47-12 108 38 105v22c-26 1-39 14-38 42" id="aM"/><g id="K"><use transform="matrix(0.06172839506172839,0,0,0.06172839506172839,0,0)" xlink:href="#aL"/><use transform="matrix(0.06172839506172839,0,0,0.06172839506172839,7.4074074074074066,0)" xlink:href="#T"/><use transform="matrix(0.06172839506172839,0,0,0.06172839506172839,14.753086419753085,0)" xlink:href="#Q"/><use transform="matrix(0.06172839506172839,0,0,0.06172839506172839,27.098765432098766,0)" xlink:href="#al"/><use transform="matrix(0.06172839506172839,0,0,0.06172839506172839,39.44444444444444,0)" xlink:href="#ah"/><use transform="matrix(0.06172839506172839,0,0,0.06172839506172839,51.79012345679012,0)" xlink:href="#ac"/><use transform="matrix(0.06172839506172839,0,0,0.06172839506172839,59.1358024691358,0)" xlink:href="#ai"/><use transform="matrix(0.06172839506172839,0,0,0.06172839506172839,71.48148148148148,0)" xlink:href="#ak"/><use transform="matrix(0.06172839506172839,0,0,0.06172839506172839,83.82716049382717,0)" xlink:href="#ab"/><use transform="matrix(0.06172839506172839,0,0,0.06172839506172839,88.70370370370371,0)" xlink:href="#W"/><use transform="matrix(0.06172839506172839,0,0,0.06172839506172839,99.81481481481482,0)" xlink:href="#aM"/></g><g id="L"><use transform="matrix(0.06172839506172839,0,0,0.06172839506172839,0,0)" xlink:href="#ac"/><use transform="matrix(0.06172839506172839,0,0,0.06172839506172839,7.345679012345679,0)" xlink:href="#V"/><use transform="matrix(0.06172839506172839,0,0,0.06172839506172839,13.518518518518519,0)" xlink:href="#ai"/><use transform="matrix(0.06172839506172839,0,0,0.06172839506172839,25.864197530864196,0)" xlink:href="#az"/><use transform="matrix(0.06172839506172839,0,0,0.06172839506172839,36.9753086419753,0)" xlink:href="#Q"/><use transform="matrix(0.06172839506172839,0,0,0.06172839506172839,49.32098765432098,0)" xlink:href="#ak"/><use transform="matrix(0.06172839506172839,0,0,0.06172839506172839,61.66666666666666,0)" xlink:href="#aj"/><use transform="matrix(0.06172839506172839,0,0,0.06172839506172839,67.83950617283949,0)" xlink:href="#ae"/><use transform="matrix(0.06172839506172839,0,0,0.06172839506172839,78.9506172839506,0)" xlink:href="#ae"/><use transform="matrix(0.06172839506172839,0,0,0.06172839506172839,90.06172839506172,0)" xlink:href="#S"/><use transform="matrix(0.06172839506172839,0,0,0.06172839506172839,102.4074074074074,0)" xlink:href="#Q"/><use transform="matrix(0.06172839506172839,0,0,0.06172839506172839,114.75308641975309,0)" xlink:href="#T"/></g><path fill="#333" d="M30 0v-248h187v28H63v79h144v27H63v87h162V0H30" id="aN"/><path fill="#333" d="M141 0L90-78 38 0H4l68-98-65-92h35l48 74 47-74h35l-64 92 68 98h-35" id="aO"/><g id="M"><use transform="matrix(0.06172839506172839,0,0,0.06172839506172839,0,0)" xlink:href="#ac"/><use transform="matrix(0.06172839506172839,0,0,0.06172839506172839,7.345679012345679,0)" xlink:href="#V"/><use transform="matrix(0.06172839506172839,0,0,0.06172839506172839,13.518518518518519,0)" xlink:href="#ai"/><use transform="matrix(0.06172839506172839,0,0,0.06172839506172839,25.864197530864196,0)" xlink:href="#az"/><use transform="matrix(0.06172839506172839,0,0,0.06172839506172839,36.9753086419753,0)" xlink:href="#Q"/><use transform="matrix(0.06172839506172839,0,0,0.06172839506172839,49.32098765432098,0)" xlink:href="#ak"/><use transform="matrix(0.06172839506172839,0,0,0.06172839506172839,61.66666666666666,0)" xlink:href="#aN"/><use transform="matrix(0.06172839506172839,0,0,0.06172839506172839,76.48148148148147,0)" xlink:href="#aO"/><use transform="matrix(0.06172839506172839,0,0,0.06172839506172839,87.59259259259258,0)" xlink:href="#ao"/><use transform="matrix(0.06172839506172839,0,0,0.06172839506172839,99.93827160493827,0)" xlink:href="#U"/><use transform="matrix(0.06172839506172839,0,0,0.06172839506172839,104.81481481481481,0)" xlink:href="#T"/><use transform="matrix(0.06172839506172839,0,0,0.06172839506172839,112.1604938271605,0)" xlink:href="#al"/><use transform="matrix(0.06172839506172839,0,0,0.06172839506172839,124.50617283950618,0)" xlink:href="#V"/><use transform="matrix(0.06172839506172839,0,0,0.06172839506172839,130.679012345679,0)" xlink:href="#U"/><use transform="matrix(0.06172839506172839,0,0,0.06172839506172839,135.55555555555554,0)" xlink:href="#ai"/><use transform="matrix(0.06172839506172839,0,0,0.06172839506172839,147.9012345679012,0)" xlink:href="#ak"/></g><g id="N"><use transform="matrix(0.06172839506172839,0,0,0.06172839506172839,0,0)" xlink:href="#aD"/><use transform="matrix(0.06172839506172839,0,0,0.06172839506172839,15.987654320987653,0)" xlink:href="#S"/><use transform="matrix(0.06172839506172839,0,0,0.06172839506172839,28.333333333333332,0)" xlink:href="#T"/><use transform="matrix(0.06172839506172839,0,0,0.06172839506172839,35.67901234567901,0)" xlink:href="#al"/><use transform="matrix(0.06172839506172839,0,0,0.06172839506172839,48.02469135802469,0)" xlink:href="#V"/><use transform="matrix(0.06172839506172839,0,0,0.06172839506172839,54.19753086419753,0)" xlink:href="#U"/><use transform="matrix(0.06172839506172839,0,0,0.06172839506172839,59.074074074074076,0)" xlink:href="#ai"/><use transform="matrix(0.06172839506172839,0,0,0.06172839506172839,71.41975308641976,0)" xlink:href="#ak"/></g><g id="O"><use transform="matrix(0.06172839506172839,0,0,0.06172839506172839,0,0)" xlink:href="#aL"/><use transform="matrix(0.06172839506172839,0,0,0.06172839506172839,7.4074074074074066,0)" xlink:href="#T"/><use transform="matrix(0.06172839506172839,0,0,0.06172839506172839,14.753086419753085,0)" xlink:href="#Q"/><use transform="matrix(0.06172839506172839,0,0,0.06172839506172839,27.098765432098766,0)" xlink:href="#al"/><use transform="matrix(0.06172839506172839,0,0,0.06172839506172839,39.44444444444444,0)" xlink:href="#ah"/><use transform="matrix(0.06172839506172839,0,0,0.06172839506172839,51.79012345679012,0)" xlink:href="#ac"/><use transform="matrix(0.06172839506172839,0,0,0.06172839506172839,59.1358024691358,0)" xlink:href="#ai"/><use transform="matrix(0.06172839506172839,0,0,0.06172839506172839,71.48148148148148,0)" xlink:href="#ak"/><use transform="matrix(0.06172839506172839,0,0,0.06172839506172839,83.82716049382717,0)" xlink:href="#ab"/><use transform="matrix(0.06172839506172839,0,0,0.06172839506172839,88.70370370370371,0)" xlink:href="#W"/><use transform="matrix(0.06172839506172839,0,0,0.06172839506172839,99.81481481481482,0)" xlink:href="#aM"/></g></defs></g></svg>