<svg xmlns="http://www.w3.org/2000/svg" xmlns:xlink="http://www.w3.org/1999/xlink" xmlns:lucid="lucid" width="2773.29" height="980"><g transform="translate(-9 20)" lucid:page-tab-id="0_0"><path d="M0 0h3677.73v1322.83H0z" fill="#fff"/><path d="M540 526c0-3.3 2.7-6 6-6h88c3.3 0 6 2.7 6 6v8c0 3.3-1.9 7.9-4.24 10.24l-1.52 1.52C631.9 548.1 627.3 550 624 550h-78c-3.3 0-6-2.7-6-6z" fill="#fff"/><path d="M640 520v20l-10 10h-90" stroke="#5e5e5e" stroke-width="3" fill="none"/><path d="M540 526c0-3.3 2.7-6 6-6h1428c3.3 0 6 2.7 6 6v268c0 3.3-2.7 6-6 6H546c-3.3 0-6-2.7-6-6z" stroke="#5e5e5e" stroke-width="3" fill="none"/><use xlink:href="#a" transform="matrix(1,0,0,1,548,520) translate(25.567901234567902 19.444444444444443)"/><use xlink:href="#b" transform="matrix(1,0,0,1,552,558) translate(4.691358024691354 19.444444444444443)"/><use xlink:href="#c" transform="matrix(1,0,0,1,552,558) translate(62.59259259259259 19.444444444444443)"/><use xlink:href="#d" transform="matrix(1,0,0,1,552,558) translate(94.69135802469135 19.444444444444443)"/><path d="M194.77 6c0-3.3 2.68-6 6-6h143.76c3.32 0 6 2.7 6 6v108c0 3.3-2.68 6-6 6H200.77c-3.32 0-6-2.7-6-6z" stroke="#5e5e5e" stroke-width="3" fill="#fff"/><use xlink:href="#e" transform="matrix(1,0,0,1,194.7671957671958,0) translate(31.054999999999993 63.15)"/><g fill="none"><path d="M274.1 120.75c.43 0 .76.34.76.75v87c0 .4-.33.75-.75.75-.4 0-.74-.34-.74-.75v-87c0-.4.34-.75.75-.75z"/><path d="M274.86 150.5v29m0 14.5v14.5l-.22.53-.53.22-.52-.22-.22-.53V194m0-14.5v-29m0-14.5v-14.5l.22-.53.53-.22.54.22.22.53V136" stroke="#5e5e5e" stroke-width="1.5"/></g><path d="M40 156c0-3.3 2.7-6 6-6h182.7c3.32 0 6 2.7 6 6v18c0 3.3-2.68 6-6 6H46c-3.3 0-6-2.7-6-6z" stroke="#000" stroke-opacity="0" stroke-width="3" fill="#fff" fill-opacity="0"/><use xlink:href="#f" transform="matrix(1,0,0,1,45,155) translate(39.85802469135803 15.472222222222221)"/><g fill="none"><path d="M274.1 860.75c.43 0 .76.34.76.75v77c0 .4-.33.75-.75.75-.4 0-.74-.34-.74-.75v-77c0-.4.34-.75.75-.75z"/><path d="M274.86 887.17v25.66m0 12.84v12.83l-.22.53-.53.22-.52-.22-.22-.53v-12.83m0-12.84v-25.66m0-12.84V861.5l.22-.53.53-.22.54.22.22.53v12.83" stroke="#5e5e5e" stroke-width="1.5"/></g><path d="M680 6c0-3.3 2.7-6 6-6h245.57c3.3 0 6 2.7 6 6v108c0 3.3-2.7 6-6 6H686c-3.3 0-6-2.7-6-6z" stroke="#5e5e5e" stroke-width="3" fill="#fff"/><use xlink:href="#g" transform="matrix(1,0,0,1,680,0) translate(37.605 63.15)"/><path d="M297.14 222.74h471.64" stroke="#5e5e5e" stroke-width="2" fill="none"/><path d="M297.17 223.74h-1.03v-2h1.03" fill="#5e5e5e"/><path d="M784.05 222.74l-14.27 4.63v-9.27z" stroke="#5e5e5e" stroke-width="2" fill="#5e5e5e"/><use xlink:href="#h" transform="matrix(1,0,0,1,295.3416864558597,192.77053458476996) translate(0.0049999999999954525 14.222222222222221)"/><use xlink:href="#i" transform="matrix(1,0,0,1,295.3416864558597,192.77053458476996) translate(209.04203703703698 14.222222222222221)"/><use xlink:href="#j" transform="matrix(1,0,0,1,295.3416864558597,192.77053458476996) translate(219.8568518518518 14.222222222222221)"/><use xlink:href="#k" transform="matrix(1,0,0,1,295.3416864558597,192.77053458476996) translate(280.9432716049382 14.222222222222221)"/><use xlink:href="#l" transform="matrix(1,0,0,1,295.3416864558597,192.77053458476996) translate(323.36302469135796 14.222222222222221)"/><use xlink:href="#j" transform="matrix(1,0,0,1,295.3416864558597,192.77053458476996) translate(334.1778395061728 14.222222222222221)"/><use xlink:href="#m" transform="matrix(1,0,0,1,295.3416864558597,192.77053458476996) translate(395.26425925925923 14.222222222222221)"/><use xlink:href="#l" transform="matrix(1,0,0,1,295.3416864558597,192.77053458476996) translate(454.42475308641974 14.222222222222221)"/><use xlink:href="#n" transform="matrix(1,0,0,1,295.3416864558597,192.77053458476996) translate(465.2395679012346 14.222222222222221)"/><path d="M831.28 614.17H1362.6" stroke="#5e5e5e" stroke-width="2" fill="none"/><path d="M831.3 615.17h-1.02v-2h1.03" fill="#5e5e5e"/><path d="M1345.25 624.35l17.2-10.18-17.2-10.18" stroke="#5e5e5e" stroke-width="2" fill="none"/><use xlink:href="#o" transform="matrix(1,0,0,1,844.170562013082,578.6562138123045) translate(0.0049999999999954525 14.222222222222221)"/><use xlink:href="#p" transform="matrix(1,0,0,1,844.170562013082,578.6562138123045) translate(227.60993827160482 14.222222222222221)"/><use xlink:href="#k" transform="matrix(1,0,0,1,844.170562013082,578.6562138123045) translate(294.5729012345678 14.222222222222221)"/><use xlink:href="#l" transform="matrix(1,0,0,1,844.170562013082,578.6562138123045) translate(336.9926543209875 14.222222222222221)"/><use xlink:href="#j" transform="matrix(1,0,0,1,844.170562013082,578.6562138123045) translate(347.80746913580236 14.222222222222221)"/><use xlink:href="#m" transform="matrix(1,0,0,1,844.170562013082,578.6562138123045) translate(408.8938888888888 14.222222222222221)"/><use xlink:href="#l" transform="matrix(1,0,0,1,844.170562013082,578.6562138123045) translate(468.0543827160493 14.222222222222221)"/><use xlink:href="#n" transform="matrix(1,0,0,1,844.170562013082,578.6562138123045) translate(478.86919753086414 14.222222222222221)"/><g fill="none"><path d="M811.78 680.75c.42 0 .75.34.75.75v257c0 .4-.33.75-.75.75-.4 0-.75-.34-.75-.75v-257c0-.4.34-.75.75-.75z"/><path d="M812.53 710.06v28.55m0 14.3v28.54m0 14.28v28.56m0 14.28v28.55m0 14.3v28.54m0 14.28v14.28l-.22.53-.52.22-.53-.22-.22-.53v-14.28m0-14.28V881.4m0-14.3v-28.54m0-14.28v-28.56m0-14.28V752.9m0-14.3v-28.54m0-14.28V681.5l.22-.53.53-.22.53.22.23.53v14.28" stroke="#5e5e5e" stroke-width="1.5"/></g><g fill="none"><path d="M808.78 120.75c.42 0 .75.34.75.75v137c0 .4-.33.75-.75.75-.4 0-.75-.34-.75-.75v-137c0-.4.34-.75.75-.75z"/><path d="M809.53 151.94v30.45m0 15.2v30.46m0 15.22v15.22l-.22.53-.52.22-.53-.22-.22-.53v-15.22m0-15.22V197.6m0-15.2v-30.46m0-15.22V121.5l.22-.53.53-.22.53.22.23.53v15.22" stroke="#5e5e5e" stroke-width="1.5"/></g><path d="M1268.57 26c0-3.3 2.7-6 6-6h202.18c3.32 0 6 2.7 6 6v108c0 3.3-2.68 6-6 6h-202.18c-3.3 0-6-2.7-6-6z" stroke="#5e5e5e" stroke-width="3" fill="#fff"/><use xlink:href="#q" transform="matrix(1,0,0,1,1268.573095029788,20) translate(10.130000000000004 63.15)"/><g fill="none"><path d="M1385.4 140.75c.4 0 .75.34.75.75v717c0 .4-.34.75-.75.75-.42 0-.75-.34-.75-.75v-717c0-.4.33-.75.75-.75z"/><path d="M1386.15 171.37v29.88m0 14.94v29.86m0 14.94v29.87m0 14.94v29.9m0 14.92v29.88m0 14.94v29.87m0 14.95v29.87m0 14.94v29.88m0 14.93v29.88m0 14.94v29.86m0 14.94v29.87m0 14.94v29.9m0 14.92V739m0 14.94v29.87m0 14.95v29.87m0 14.94v14.94l-.22.53-.53.22-.53-.22-.22-.53v-14.94m0-14.93v-29.88m0-14.94v-29.86m0-14.94v-29.87m0-14.94v-29.9m0-14.92V619.5m0-14.94V574.7m0-14.95v-29.87m0-14.94v-29.88m0-14.93v-29.88m0-14.94v-29.86m0-14.94v-29.87m0-14.94v-29.9m0-14.92V261m0-14.94V216.2m0-14.95v-29.87m0-14.94V141.5l.22-.53.53-.22.53.22.22.53v14.94" stroke="#5e5e5e" stroke-width="1.5"/></g><path d="M1737.22 26c0-3.3 2.68-6 6-6h221.65c3.3 0 6 2.7 6 6v108c0 3.3-2.7 6-6 6h-221.65c-3.32 0-6-2.7-6-6z" stroke="#5e5e5e" stroke-width="3" fill="#fff"/><use xlink:href="#r" transform="matrix(1,0,0,1,1742.2153480814895,25.00000000000034) translate(3.5061728395062204 58.90972222222222)"/><path d="M1408.43 638.58h406.14" stroke="#5e5e5e" stroke-width="2" fill="none"/><path d="M1408.45 639.58h-1.02v-2h1.02" fill="#5e5e5e"/><path d="M1829.83 638.58l-14.26 4.64v-9.27z" stroke="#5e5e5e" stroke-width="2" fill="#5e5e5e"/><use xlink:href="#s" transform="matrix(1,0,0,1,1570.4709411323583,613.249343832021) translate(0.005000000000002558 14.222222222222223)"/><g fill="none"><path d="M1855.5 140.75c.42 0 .75.34.75.75v717c0 .4-.33.75-.75.75-.4 0-.75-.34-.75-.75v-717c0-.4.34-.75.75-.75z"/><path d="M1856.25 171.37v29.88m0 14.94v29.86m0 14.94v29.87m0 14.94v29.9m0 14.92v29.88m0 14.94v29.87m0 14.95v29.87m0 14.94v29.88m0 14.93v29.88m0 14.94v29.86m0 14.94v29.87m0 14.94v29.9m0 14.92V739m0 14.94v29.87m0 14.95v29.87m0 14.94v14.94l-.22.53-.53.22-.53-.22-.22-.53v-14.94m0-14.93v-29.88m0-14.94v-29.86m0-14.94v-29.87m0-14.94v-29.9m0-14.92V619.5m0-14.94V574.7m0-14.95v-29.87m0-14.94v-29.88m0-14.93v-29.88m0-14.94v-29.86m0-14.94v-29.87m0-14.94v-29.9m0-14.92V261m0-14.94V216.2m0-14.95v-29.87m0-14.94V141.5l.22-.53.53-.22.53.22.22.53v14.94" stroke="#5e5e5e" stroke-width="1.5"/></g><path d="M1832.07 725.4h-10.1m-10.07 0h-20.18m-10.08 0h-20.18m-10.08 0h-20.18m-10.08 0h-20.18m-10.08 0h-20.18m-10.08 0h-20.18m-10.08 0h-20.9m-10.78 0h-21.6m-10.8 0h-21.58m-10.8 0h-21.6m-10.78 0h-21.6m-10.8 0h-21.58m-10.8 0h-10.8" stroke="#5e5e5e" stroke-width="2" fill="none"/><path d="M1833.07 726.4h-1.03v-2h1.03" fill="#5e5e5e"/><path d="M1410.66 725.4l14.27-4.63v9.27z" stroke="#5e5e5e" stroke-width="2" fill="#5e5e5e"/><path d="M1363.43 781.33h-9.86m-9.85 0h-19.7m-9.86 0h-19.7m-9.87 0h-19.72m-9.85 0h-19.7m-9.87 0h-19.7m-9.86 0h-19.7m-9.86 0h-19.7m-9.87 0h-19.7m-9.86 0H1087m-10.36 0h-20.7m-10.37 0h-20.7m-10.37 0h-20.7m-10.37 0H962.7m-10.34 0h-20.72m-10.35 0h-20.73m-10.36 0h-20.7m-10.36 0H848.8" stroke="#5e5e5e" stroke-width="2" fill="none"/><path d="M1364.43 782.33h-1.03v-2h1.03" fill="#5e5e5e"/><path d="M833.52 781.33l14.27-4.63v9.27z" stroke="#5e5e5e" stroke-width="2" fill="#5e5e5e"/><path d="M786.3 834.25h-10.2m-10.18 0h-20.37m-10.2 0H715m-10.2 0h-20.37m-10.18 0h-20.38m-10.18 0h-20.4m-10.17 0h-20.38m-10.18 0H562.2m-10.2 0h-10.18l-.07.03-.03.07-.03.07-.08.03h-9.46m-9.46 0h-18.9m-9.47 0h-18.9m-9.47 0h-18.92m-9.45 0h-18.93m-9.45 0H390.3m-9.46 0h-18.9m-9.47 0h-18.9m-9.47 0h-9.46" stroke="#5e5e5e" stroke-width="2" fill="none"/><path d="M787.28 834.2l.3 1.05h-1.3v-2h1" fill="#5e5e5e"/><path d="M299.38 834.45l14.26-4.63v9.27z" stroke="#5e5e5e" stroke-width="2" fill="#5e5e5e"/><path d="M252.14 863.93h-10.76m-10.76 0h-21.5m-10.77 0h-21.5m-10.77 0h-21.52m-10.75 0h-21.5m-10.77 0h-21.5m-10.77 0H58.5" stroke="#5e5e5e" stroke-width="2" fill="none"/><path d="M253.14 864.93h-1.03v-2h1.04" fill="#5e5e5e"/><path d="M43.24 863.93l14.26-4.63v9.27z" stroke="#5e5e5e" stroke-width="2" fill="#5e5e5e"/><use xlink:href="#t" transform="matrix(1,0,0,1,86.52072310405644,867.9329948146415) translate(0.005000000000002558 14.222222222222223)"/><path d="M254.64 166c0-3.3 2.7-6 6-6h28c3.3 0 6 2.7 6 6v708c0 3.3-2.7 6-6 6h-28c-3.3 0-6-2.7-6-6zM788.78 206c0-3.3 2.7-6 6-6h28c3.32 0 6 2.7 6 6v628c0 3.3-2.68 6-6 6h-28c-3.3 0-6-2.7-6-6zM1365.93 606c0-3.3 2.68-6 6-6h28c3.3 0 6 2.7 6 6v188c0 3.3-2.7 6-6 6h-28c-3.32 0-6-2.7-6-6zM1834.57 626c0-3.3 2.7-6 6-6h28c3.3 0 6 2.7 6 6v108c0 3.3-2.7 6-6 6h-28c-3.3 0-6-2.7-6-6zM2060 26c0-3.3 2.7-6 6-6h202.18c3.3 0 6 2.7 6 6v108c0 3.3-2.7 6-6 6H2066c-3.3 0-6-2.7-6-6z" stroke="#5e5e5e" stroke-width="3" fill="#fff"/><use xlink:href="#u" transform="matrix(1,0,0,1,2060,20) translate(55.10499999999999 63.15)"/><g fill="none"><path d="M2176.83 140.75c.4 0 .75.34.75.75v717c0 .4-.34.75-.75.75-.42 0-.75-.34-.75-.75v-717c0-.4.33-.75.75-.75z"/><path d="M2177.58 171.37v29.88m0 14.94v29.86m0 14.94v29.87m0 14.94v29.9m0 14.92v29.88m0 14.94v29.87m0 14.95v29.87m0 14.94v29.88m0 14.93v29.88m0 14.94v29.86m0 14.94v29.87m0 14.94v29.9m0 14.92V739m0 14.94v29.87m0 14.95v29.87m0 14.94v14.94l-.22.53-.53.22-.53-.22-.22-.53v-14.94m0-14.93v-29.88m0-14.94v-29.86m0-14.94v-29.87m0-14.94v-29.9m0-14.92V619.5m0-14.94V574.7m0-14.95v-29.87m0-14.94v-29.88m0-14.93v-29.88m0-14.94v-29.86m0-14.94v-29.87m0-14.94v-29.9m0-14.92V261m0-14.94V216.2m0-14.95v-29.87m0-14.94V141.5l.22-.53.53-.22.53.22.22.53v14.94" stroke="#5e5e5e" stroke-width="1.5"/></g><path d="M2528.64 26c0-3.3 2.7-6 6-6h221.65c3.3 0 6 2.7 6 6v108c0 3.3-2.7 6-6 6h-221.66c-3.3 0-6-2.7-6-6z" stroke="#5e5e5e" stroke-width="3" fill="#fff"/><use xlink:href="#v" transform="matrix(1,0,0,1,2533.642253051702,25.00000000000034) translate(47.92592592592594 58.90972222222222)"/><g fill="none"><path d="M2646.93 140.75c.4 0 .75.34.75.75v717c0 .4-.34.75-.75.75-.42 0-.75-.34-.75-.75v-717c0-.4.33-.75.75-.75z"/><path d="M2647.68 171.37v29.88m0 14.94v29.86m0 14.94v29.87m0 14.94v29.9m0 14.92v29.88m0 14.94v29.87m0 14.95v29.87m0 14.94v29.88m0 14.93v29.88m0 14.94v29.86m0 14.94v29.87m0 14.94v29.9m0 14.92V739m0 14.94v29.87m0 14.95v29.87m0 14.94v14.94l-.22.53-.53.22-.53-.22-.22-.53v-14.94m0-14.93v-29.88m0-14.94v-29.86m0-14.94v-29.87m0-14.94v-29.9m0-14.92V619.5m0-14.94V574.7m0-14.95v-29.87m0-14.94v-29.88m0-14.93v-29.88m0-14.94v-29.86m0-14.94v-29.87m0-14.94v-29.9m0-14.92V261m0-14.94V216.2m0-14.95v-29.87m0-14.94V141.5l.22-.53.53-.22.53.22.22.53v14.94" stroke="#5e5e5e" stroke-width="1.5"/></g><path d="M45.5 179.6h189.14" stroke="#5e5e5e" stroke-width="2" fill="none"/><path fill="#5e5e5e"/><path d="M249.9 179.6l-14.26 4.63v-9.27z" stroke="#5e5e5e" stroke-width="2" fill="#5e5e5e"/><path d="M2156.83 286c0-3.3 2.68-6 6-6h28c3.3 0 6 2.7 6 6v148c0 3.3-2.7 6-6 6h-28c-3.32 0-6-2.7-6-6zM2625.47 306c0-3.3 2.68-6 6-6h28c3.3 0 6 2.7 6 6v108c0 3.3-2.7 6-6 6h-28c-3.32 0-6-2.7-6-6z" stroke="#5e5e5e" stroke-width="3" fill="#fff"/><path d="M831.28 279.24h1310.1" stroke="#5e5e5e" stroke-width="2" fill="none"/><path d="M831.3 280.24h-1.02v-2h1.03" fill="#5e5e5e"/><path d="M2156.64 279.24l-14.26 4.64v-9.27z" stroke="#5e5e5e" stroke-width="2" fill="#5e5e5e"/><g><use xlink:href="#w" transform="matrix(1,0,0,1,1415.374666298788,253.90946404277364) translate(0.0049999999999954525 14.222222222222223)"/><use xlink:href="#x" transform="matrix(1,0,0,1,1415.374666298788,253.90946404277364) translate(134.0296913580247 14.222222222222223)"/><use xlink:href="#y" transform="matrix(1,0,0,1,1415.374666298788,253.90946404277364) translate(144.84450617283952 14.222222222222223)"/><use xlink:href="#z" transform="matrix(1,0,0,1,1415.374666298788,253.90946404277364) translate(176.3506790123457 14.222222222222223)"/><use xlink:href="#A" transform="matrix(1,0,0,1,1415.374666298788,253.90946404277364) translate(269.1408024691358 14.222222222222223)"/><use xlink:href="#B" transform="matrix(1,0,0,1,1415.374666298788,253.90946404277364) translate(279.95561728395063 14.222222222222223)"/></g><path d="M2199.33 308.72h406.14" stroke="#5e5e5e" stroke-width="2" fill="none"/><path d="M2199.35 309.72h-1.02v-2h1.02" fill="#5e5e5e"/><path d="M2620.73 308.72l-14.26 4.64v-9.27z" stroke="#5e5e5e" stroke-width="2" fill="#5e5e5e"/><g><use xlink:href="#C" transform="matrix(1,0,0,1,2276.1341776722356,283.3896420648847) translate(0.0049999999999954525 14.222222222222223)"/><use xlink:href="#A" transform="matrix(1,0,0,1,2276.1341776722356,283.3896420648847) translate(202.1284567901234 14.222222222222223)"/><use xlink:href="#B" transform="matrix(1,0,0,1,2276.1341776722356,283.3896420648847) translate(212.94327160493822 14.222222222222223)"/></g><path d="M2622.97 415.2h-10.1v-2h10.1m-20.18 2h-20.18v-2h20.17m-30.27 2h-20.17v-2h20.17m-30.26 2h-20.17v-2h20.17m-30.26 2h-20.16v-2H2512m-30.25 2h-20.17v-2h20.17m-124.58 2h-21.6v-2h21.6m-32.4 2h-21.58v-2h21.58m-32.38 2h-21.6v-2h21.6m-32.4 2h-21.58v-2h21.6m-32.4 2h-10.8v-2h10.8" fill="#5e5e5e"/><path d="M2623.97 414.2l.27 1h-1.3v-2h1.03M2215.83 418.83l-14.27-4.63 14.27-4.64z" fill="#5e5e5e"/><path d="M2216.83 420.2l-18.5-6 18.5-6m-12.03 6l10.03 3.26v-6.52" fill="#5e5e5e"/><g><use xlink:href="#D" transform="matrix(1,0,0,1,2362.3070171784084,403.5326310371326) translate(0.005000000000002558 14.222222222222223)"/><use xlink:href="#x" transform="matrix(1,0,0,1,2362.3070171784084,403.5326310371326) translate(44.44944444444445 14.222222222222223)"/><use xlink:href="#E" transform="matrix(1,0,0,1,2362.3070171784084,403.5326310371326) translate(55.26425925925927 14.222222222222223)"/></g><path d="M2154.33 434.2H848.8" stroke="#5e5e5e" stroke-width="2" fill="none"/><path d="M2155.33 434.2l.27 1h-1.3v-2h1.03" fill="#5e5e5e"/><path d="M833.52 434.2l14.27-4.64v9.27z" stroke="#5e5e5e" stroke-width="2" fill="#5e5e5e"/><g><use xlink:href="#F" transform="matrix(1,0,0,1,1473.0515629990698,438.1992977037993) translate(0.004999999999999005 14.222222222222223)"/></g><defs><path fill="#333" d="M100-194c62-1 85 37 85 99 1 63-27 99-86 99S16-35 15-95c0-66 28-99 85-99zM99-20c44 1 53-31 53-75 0-43-8-75-51-75s-53 32-53 75 10 74 51 75" id="G"/><path fill="#333" d="M115-194c55 1 70 41 70 98S169 2 115 4C84 4 66-9 55-30l1 105H24l-1-265h31l2 30c10-21 28-34 59-34zm-8 174c40 0 45-34 45-75s-6-73-45-74c-42 0-51 32-51 76 0 43 10 73 51 73" id="H"/><path fill="#333" d="M59-47c-2 24 18 29 38 22v24C64 9 27 4 27-40v-127H5v-23h24l9-43h21v43h35v23H59v120" id="I"/><g id="a"><use transform="matrix(0.06172839506172839,0,0,0.06172839506172839,0,0)" xlink:href="#G"/><use transform="matrix(0.06172839506172839,0,0,0.06172839506172839,12.345679012345679,0)" xlink:href="#H"/><use transform="matrix(0.06172839506172839,0,0,0.06172839506172839,24.691358024691358,0)" xlink:href="#I"/></g><path fill="#333" d="M26 75v-336h71v23H56V52h41v23H26" id="J"/><path fill="#333" d="M141-36C126-15 110 5 73 4 37 3 15-17 15-53c-1-64 63-63 125-63 3-35-9-54-41-54-24 1-41 7-42 31l-33-3c5-37 33-52 76-52 45 0 72 20 72 64v82c-1 20 7 32 28 27v20c-31 9-61-2-59-35zM48-53c0 20 12 33 32 33 41-3 63-29 60-74-43 2-92-5-92 41" id="K"/><path fill="#333" d="M24 0v-261h32V0H24" id="L"/><path fill="#333" d="M24-231v-30h32v30H24zM24 0v-190h32V0H24" id="M"/><path fill="#333" d="M135-143c-3-34-86-38-87 0 15 53 115 12 119 90S17 21 10-45l28-5c4 36 97 45 98 0-10-56-113-15-118-90-4-57 82-63 122-42 12 7 21 19 24 35" id="N"/><g id="b"><use transform="matrix(0.06172839506172839,0,0,0.06172839506172839,0,0)" xlink:href="#J"/><use transform="matrix(0.06172839506172839,0,0,0.06172839506172839,6.172839506172839,0)" xlink:href="#K"/><use transform="matrix(0.06172839506172839,0,0,0.06172839506172839,18.51851851851852,0)" xlink:href="#L"/><use transform="matrix(0.06172839506172839,0,0,0.06172839506172839,23.395061728395063,0)" xlink:href="#M"/><use transform="matrix(0.06172839506172839,0,0,0.06172839506172839,28.271604938271608,0)" xlink:href="#K"/><use transform="matrix(0.06172839506172839,0,0,0.06172839506172839,40.617283950617285,0)" xlink:href="#N"/></g><path fill="#333" d="M18-150v-26h174v26H18zm0 90v-26h174v26H18" id="O"/><g id="c"><use transform="matrix(0.06172839506172839,0,0,0.06172839506172839,0,0)" xlink:href="#O"/><use transform="matrix(0.06172839506172839,0,0,0.06172839506172839,12.962962962962962,0)" xlink:href="#O"/></g><path fill="#333" d="M117-194c89-4 53 116 60 194h-32v-121c0-31-8-49-39-48C34-167 62-67 57 0H25l-1-190h30c1 10-1 24 2 32 11-22 29-35 61-36" id="P"/><path fill="#333" d="M84 4C-5 8 30-112 23-190h32v120c0 31 7 50 39 49 72-2 45-101 50-169h31l1 190h-30c-1-10 1-25-2-33-11 22-28 36-60 37" id="Q"/><path fill="#333" d="M3 75V52h41v-290H3v-23h71V75H3" id="R"/><g id="d"><use transform="matrix(0.06172839506172839,0,0,0.06172839506172839,0,0)" xlink:href="#P"/><use transform="matrix(0.06172839506172839,0,0,0.06172839506172839,12.345679012345679,0)" xlink:href="#Q"/><use transform="matrix(0.06172839506172839,0,0,0.06172839506172839,24.691358024691358,0)" xlink:href="#L"/><use transform="matrix(0.06172839506172839,0,0,0.06172839506172839,29.5679012345679,0)" xlink:href="#L"/><use transform="matrix(0.06172839506172839,0,0,0.06172839506172839,34.44444444444444,0)" xlink:href="#R"/></g><path d="M205 0l-28-72H64L36 0H1l101-248h38L239 0h-34zm-38-99l-47-123c-12 45-31 82-46 123h93" id="S"/><path d="M30-248c87 1 191-15 191 75 0 78-77 80-158 76V0H30v-248zm33 125c57 0 124 11 124-50 0-59-68-47-124-48v98" id="T"/><path d="M33 0v-248h34V0H33" id="U"/><path d="M33 0v-38h34V0H33" id="V"/><path d="M177-190C167-65 218 103 67 71c-23-6-38-20-44-43l32-5c15 47 100 32 89-28v-30C133-14 115 1 83 1 29 1 15-40 15-95c0-56 16-97 71-98 29-1 48 16 59 35 1-10 0-23 2-32h30zM94-22c36 0 50-32 50-73 0-42-14-75-50-75-39 0-46 34-46 75s6 73 46 73" id="W"/><path d="M114-163C36-179 61-72 57 0H25l-1-190h30c1 12-1 29 2 39 6-27 23-49 58-41v29" id="X"/><path d="M141-36C126-15 110 5 73 4 37 3 15-17 15-53c-1-64 63-63 125-63 3-35-9-54-41-54-24 1-41 7-42 31l-33-3c5-37 33-52 76-52 45 0 72 20 72 64v82c-1 20 7 32 28 27v20c-31 9-61-2-59-35zM48-53c0 20 12 33 32 33 41-3 63-29 60-74-43 2-92-5-92 41" id="Y"/><path d="M115-194c55 1 70 41 70 98S169 2 115 4C84 4 66-9 55-30l1 105H24l-1-265h31l2 30c10-21 28-34 59-34zm-8 174c40 0 45-34 45-75s-6-73-45-74c-42 0-51 32-51 76 0 43 10 73 51 73" id="Z"/><path d="M106-169C34-169 62-67 57 0H25v-261h32l-1 103c12-21 28-36 61-36 89 0 53 116 60 194h-32v-121c2-32-8-49-39-48" id="aa"/><path d="M145-31C134-9 116 4 85 4 32 4 16-35 15-94c0-59 17-99 70-100 32-1 48 14 60 33 0-11-1-24 2-32h30l-1 268h-32zM93-21c41 0 51-33 51-76s-8-73-50-73c-40 0-46 35-46 75s5 74 45 74" id="ab"/><path d="M24 0v-261h32V0H24" id="ac"/><g id="e"><use transform="matrix(0.05,0,0,0.05,0,0)" xlink:href="#S"/><use transform="matrix(0.05,0,0,0.05,12,0)" xlink:href="#T"/><use transform="matrix(0.05,0,0,0.05,24,0)" xlink:href="#U"/><use transform="matrix(0.05,0,0,0.05,29,0)" xlink:href="#V"/><use transform="matrix(0.05,0,0,0.05,34,0)" xlink:href="#W"/><use transform="matrix(0.05,0,0,0.05,44,0)" xlink:href="#X"/><use transform="matrix(0.05,0,0,0.05,49.95,0)" xlink:href="#Y"/><use transform="matrix(0.05,0,0,0.05,59.95,0)" xlink:href="#Z"/><use transform="matrix(0.05,0,0,0.05,69.95,0)" xlink:href="#aa"/><use transform="matrix(0.05,0,0,0.05,79.95,0)" xlink:href="#ab"/><use transform="matrix(0.05,0,0,0.05,89.95,0)" xlink:href="#ac"/><path d="M-.9 1.25h95.7v1.32H-.9z"/></g><path fill="#333" d="M186 0v-106H76V0H24v-248h52v99h110v-99h50V0h-50" id="ad"/><path fill="#333" d="M115-3C79 11 28 4 28-45v-112H4v-33h27l15-45h31v45h36v33H77v99c-1 23 16 31 38 25v30" id="ae"/><path fill="#333" d="M135-194c53 0 70 44 70 98 0 56-19 98-73 100-31 1-45-17-59-34 3 33 2 69 2 105H25l-1-265h48c2 10 0 23 3 31 11-24 29-35 60-35zM114-30c33 0 39-31 40-66 0-38-9-64-40-64-56 0-55 130 0 130" id="af"/><path fill="#333" d="M240-174c0 40-23 61-54 70L253 0h-59l-57-94H76V0H24v-248c93 4 217-23 216 74zM76-134c48-2 112 12 112-38 0-48-66-32-112-35v73" id="ag"/><path fill="#333" d="M185-48c-13 30-37 53-82 52C43 2 14-33 14-96s30-98 90-98c62 0 83 45 84 108H66c0 31 8 55 39 56 18 0 30-7 34-22zm-45-69c5-46-57-63-70-21-2 6-4 13-4 21h74" id="ah"/><path fill="#333" d="M84 4C32 4 15-41 15-95c0-55 18-99 73-99 29 0 47 12 58 34l2-30h48l-1 265h-49V-32C136-9 114 4 84 4zm21-34c32 0 41-29 41-66 0-36-9-64-40-64-33 0-39 30-40 65 0 43 13 65 39 65" id="ai"/><path fill="#333" d="M85 4C-2 5 27-109 22-190h50c7 57-23 150 33 157 60-5 35-97 40-157h50l1 190h-47c-2-12 1-28-3-38-12 25-28 42-61 42" id="aj"/><path fill="#333" d="M137-138c1-29-70-34-71-4 15 46 118 7 119 86 1 83-164 76-172 9l43-7c4 19 20 25 44 25 33 8 57-30 24-41C81-84 22-81 20-136c-2-80 154-74 161-7" id="ak"/><g id="f"><use transform="matrix(0.049382716049382706,0,0,0.049382716049382706,0,0)" xlink:href="#ad"/><use transform="matrix(0.049382716049382706,0,0,0.049382716049382706,12.790123456790122,0)" xlink:href="#ae"/><use transform="matrix(0.049382716049382706,0,0,0.049382716049382706,18.666666666666664,0)" xlink:href="#ae"/><use transform="matrix(0.049382716049382706,0,0,0.049382716049382706,24.543209876543205,0)" xlink:href="#af"/><use transform="matrix(0.049382716049382706,0,0,0.049382716049382706,35.35802469135802,0)" xlink:href="#ag"/><use transform="matrix(0.049382716049382706,0,0,0.049382716049382706,48.14814814814814,0)" xlink:href="#ah"/><use transform="matrix(0.049382716049382706,0,0,0.049382716049382706,58.02469135802468,0)" xlink:href="#ai"/><use transform="matrix(0.049382716049382706,0,0,0.049382716049382706,68.83950617283949,0)" xlink:href="#aj"/><use transform="matrix(0.049382716049382706,0,0,0.049382716049382706,79.6543209876543,0)" xlink:href="#ah"/><use transform="matrix(0.049382716049382706,0,0,0.049382716049382706,89.53086419753085,0)" xlink:href="#ak"/><use transform="matrix(0.049382716049382706,0,0,0.049382716049382706,99.40740740740739,0)" xlink:href="#ae"/></g><path d="M33-154v-36h34v36H33zM33 0v-36h34V0H33" id="al"/><path d="M24-231v-30h32v30H24zM24 0v-190h32V0H24" id="am"/><path d="M135-143c-3-34-86-38-87 0 15 53 115 12 119 90S17 21 10-45l28-5c4 36 97 45 98 0-10-56-113-15-118-90-4-57 82-63 122-42 12 7 21 19 24 35" id="an"/><path d="M185-189c-5-48-123-54-124 2 14 75 158 14 163 119 3 78-121 87-175 55-17-10-28-26-33-46l33-7c5 56 141 63 141-1 0-78-155-14-162-118-5-82 145-84 179-34 5 7 8 16 11 25" id="ao"/><path d="M84 4C-5 8 30-112 23-190h32v120c0 31 7 50 39 49 72-2 45-101 50-169h31l1 190h-30c-1-10 1-25-2-33-11 22-28 36-60 37" id="ap"/><path d="M100-194c63 0 86 42 84 106H49c0 40 14 67 53 68 26 1 43-12 49-29l28 8c-11 28-37 45-77 45C44 4 14-33 15-96c1-61 26-98 85-98zm52 81c6-60-76-77-97-28-3 7-6 17-6 28h103" id="aq"/><path d="M59-47c-2 24 18 29 38 22v24C64 9 27 4 27-40v-127H5v-23h24l9-43h21v43h35v23H59v120" id="ar"/><path d="M100-194c62-1 85 37 85 99 1 63-27 99-86 99S16-35 15-95c0-66 28-99 85-99zM99-20c44 1 53-31 53-75 0-43-8-75-51-75s-53 32-53 75 10 74 51 75" id="as"/><path d="M117-194c89-4 53 116 60 194h-32v-121c0-31-8-49-39-48C34-167 62-67 57 0H25l-1-190h30c1 10-1 24 2 32 11-22 29-35 61-36" id="at"/><path d="M140-251c81 0 123 46 123 126C263-53 228-8 163 1c7 30 30 48 69 40v23c-55 16-95-15-103-61C56-3 17-48 17-125c0-80 42-126 123-126zm0 227c63 0 89-41 89-101s-29-99-89-99c-61 0-89 39-89 99S79-25 140-24" id="au"/><path d="M179-190L93 31C79 59 56 82 12 73V49c39 6 53-20 64-50L1-190h34L92-34l54-156h33" id="av"/><g id="g"><use transform="matrix(0.05,0,0,0.05,0,0)" xlink:href="#al"/><use transform="matrix(0.05,0,0,0.05,5,0)" xlink:href="#S"/><use transform="matrix(0.05,0,0,0.05,17,0)" xlink:href="#ac"/><use transform="matrix(0.05,0,0,0.05,20.95,0)" xlink:href="#am"/><use transform="matrix(0.05,0,0,0.05,24.9,0)" xlink:href="#Y"/><use transform="matrix(0.05,0,0,0.05,34.9,0)" xlink:href="#an"/><use transform="matrix(0.05,0,0,0.05,43.9,0)" xlink:href="#ao"/><use transform="matrix(0.05,0,0,0.05,55.900000000000006,0)" xlink:href="#ap"/><use transform="matrix(0.05,0,0,0.05,65.9,0)" xlink:href="#W"/><use transform="matrix(0.05,0,0,0.05,75.9,0)" xlink:href="#W"/><use transform="matrix(0.05,0,0,0.05,85.9,0)" xlink:href="#aq"/><use transform="matrix(0.05,0,0,0.05,95.9,0)" xlink:href="#an"/><use transform="matrix(0.05,0,0,0.05,104.9,0)" xlink:href="#ar"/><use transform="matrix(0.05,0,0,0.05,109.9,0)" xlink:href="#am"/><use transform="matrix(0.05,0,0,0.05,113.85000000000001,0)" xlink:href="#as"/><use transform="matrix(0.05,0,0,0.05,123.85000000000001,0)" xlink:href="#at"/><use transform="matrix(0.05,0,0,0.05,133.85000000000002,0)" xlink:href="#au"/><use transform="matrix(0.05,0,0,0.05,147.85000000000002,0)" xlink:href="#ap"/><use transform="matrix(0.05,0,0,0.05,157.85000000000002,0)" xlink:href="#aq"/><use transform="matrix(0.05,0,0,0.05,167.85000000000002,0)" xlink:href="#X"/><use transform="matrix(0.05,0,0,0.05,173.8,0)" xlink:href="#av"/><path d="M-.9 1.25h184.6v1.32H-.9z"/></g><path fill="#333" d="M195-6C206 82 75 100 31 46c-4-6-6-13-8-21l49-6c3 16 16 24 34 25 40 0 42-37 40-79-11 22-30 35-61 35-53 0-70-43-70-97 0-56 18-96 73-97 30 0 46 14 59 34l2-30h47zm-90-29c32 0 41-27 41-63 0-35-9-62-40-62-32 0-39 29-40 63 0 36 9 62 39 62" id="aw"/><path fill="#333" d="M199 0l-22-63H83L61 0H9l90-248h61L250 0h-51zm-33-102l-36-108c-10 38-24 72-36 108h72" id="ax"/><path fill="#333" d="M25 0v-261h50V0H25" id="ay"/><path fill="#333" d="M25-224v-37h50v37H25zM25 0v-190h50V0H25" id="az"/><path fill="#333" d="M133-34C117-15 103 5 69 4 32 3 11-16 11-54c-1-60 55-63 116-61 1-26-3-47-28-47-18 1-26 9-28 27l-52-2c7-38 36-58 82-57s74 22 75 68l1 82c-1 14 12 18 25 15v27c-30 8-71 5-69-32zm-48 3c29 0 43-24 42-57-32 0-66-3-65 30 0 17 8 27 23 27" id="aA"/><path fill="#333" d="M67-93c0 74 22 123 53 168H70C40 30 18-18 18-93s22-123 52-168h50c-32 44-53 94-53 168" id="aB"/><path fill="#333" d="M175 0L67-191c6 58 2 128 3 191H24v-248h59L193-55c-6-58-2-129-3-193h46V0h-61" id="aC"/><path fill="#333" d="M220-157c-53 9-28 100-34 157h-49v-107c1-27-5-49-29-50C55-147 81-57 75 0H25l-1-190h47c2 12-1 28 3 38 10-53 101-56 108 0 13-22 24-43 59-42 82 1 51 116 57 194h-49v-107c-1-25-5-48-29-50" id="aD"/><g id="h"><use transform="matrix(0.049382716049382706,0,0,0.049382716049382706,0,0)" xlink:href="#ak"/><use transform="matrix(0.049382716049382706,0,0,0.049382716049382706,9.87654320987654,0)" xlink:href="#aj"/><use transform="matrix(0.049382716049382706,0,0,0.049382716049382706,20.691358024691354,0)" xlink:href="#aw"/><use transform="matrix(0.049382716049382706,0,0,0.049382716049382706,31.506172839506167,0)" xlink:href="#aw"/><use transform="matrix(0.049382716049382706,0,0,0.049382716049382706,42.32098765432098,0)" xlink:href="#ah"/><use transform="matrix(0.049382716049382706,0,0,0.049382716049382706,52.19753086419752,0)" xlink:href="#ak"/><use transform="matrix(0.049382716049382706,0,0,0.049382716049382706,62.07407407407406,0)" xlink:href="#ae"/><use transform="matrix(0.049382716049382706,0,0,0.049382716049382706,67.9506172839506,0)" xlink:href="#ax"/><use transform="matrix(0.049382716049382706,0,0,0.049382716049382706,80.74074074074073,0)" xlink:href="#ay"/><use transform="matrix(0.049382716049382706,0,0,0.049382716049382706,85.679012345679,0)" xlink:href="#az"/><use transform="matrix(0.049382716049382706,0,0,0.049382716049382706,90.61728395061726,0)" xlink:href="#aA"/><use transform="matrix(0.049382716049382706,0,0,0.049382716049382706,100.49382716049381,0)" xlink:href="#ak"/><use transform="matrix(0.049382716049382706,0,0,0.049382716049382706,110.37037037037035,0)" xlink:href="#aB"/><use transform="matrix(0.049382716049382706,0,0,0.049382716049382706,116.2469135802469,0)" xlink:href="#aA"/><use transform="matrix(0.049382716049382706,0,0,0.049382716049382706,126.12345679012343,0)" xlink:href="#ay"/><use transform="matrix(0.049382716049382706,0,0,0.049382716049382706,131.06172839506172,0)" xlink:href="#az"/><use transform="matrix(0.049382716049382706,0,0,0.049382716049382706,136,0)" xlink:href="#aA"/><use transform="matrix(0.049382716049382706,0,0,0.049382716049382706,145.87654320987653,0)" xlink:href="#ak"/><use transform="matrix(0.049382716049382706,0,0,0.049382716049382706,155.75308641975306,0)" xlink:href="#aC"/><use transform="matrix(0.049382716049382706,0,0,0.049382716049382706,168.5432098765432,0)" xlink:href="#aA"/><use transform="matrix(0.049382716049382706,0,0,0.049382716049382706,178.41975308641972,0)" xlink:href="#aD"/><use transform="matrix(0.049382716049382706,0,0,0.049382716049382706,194.22222222222217,0)" xlink:href="#ah"/></g><path fill="#333" d="M35-132v-50h50v50H35zM35 0v-49h50V0H35" id="aE"/><use transform="matrix(0.049382716049382706,0,0,0.049382716049382706,0,0)" xlink:href="#aE" id="i"/><path fill="#333" d="M169-182c-1-43-94-46-97-3 18 66 151 10 154 114 3 95-165 93-204 36-6-8-10-19-12-30l50-8c3 46 112 56 116 5-17-69-150-10-154-114-4-87 153-88 188-35 5 8 8 18 10 28" id="aF"/><path fill="#333" d="M135-150c-39-12-60 13-60 57V0H25l-1-190h47c2 13-1 29 3 40 6-28 27-53 61-41v41" id="aG"/><path fill="#333" d="M135-194c87-1 58 113 63 194h-50c-7-57 23-157-34-157-59 0-34 97-39 157H25l-1-190h47c2 12-1 28 3 38 12-26 28-41 61-42" id="aH"/><path fill="#333" d="M76-54c-1 42 2 86-19 110H24C36 42 46 24 48 0H25v-54h51" id="aI"/><g id="j"><use transform="matrix(0.049382716049382706,0,0,0.049382716049382706,0,0)" xlink:href="#aF"/><use transform="matrix(0.049382716049382706,0,0,0.049382716049382706,11.85185185185185,0)" xlink:href="#ae"/><use transform="matrix(0.049382716049382706,0,0,0.049382716049382706,17.728395061728392,0)" xlink:href="#aG"/><use transform="matrix(0.049382716049382706,0,0,0.049382716049382706,24.64197530864197,0)" xlink:href="#az"/><use transform="matrix(0.049382716049382706,0,0,0.049382716049382706,29.58024691358024,0)" xlink:href="#aH"/><use transform="matrix(0.049382716049382706,0,0,0.049382716049382706,40.39506172839505,0)" xlink:href="#aw"/><use transform="matrix(0.049382716049382706,0,0,0.049382716049382706,51.20987654320986,0)" xlink:href="#aI"/></g><g id="k"><use transform="matrix(0.049382716049382706,0,0,0.049382716049382706,0,0)" xlink:href="#aj"/><use transform="matrix(0.049382716049382706,0,0,0.049382716049382706,10.814814814814813,0)" xlink:href="#ak"/><use transform="matrix(0.049382716049382706,0,0,0.049382716049382706,20.691358024691354,0)" xlink:href="#ah"/><use transform="matrix(0.049382716049382706,0,0,0.049382716049382706,30.567901234567895,0)" xlink:href="#aG"/></g><use transform="matrix(0.049382716049382706,0,0,0.049382716049382706,0,0)" xlink:href="#aE" id="l"/><path fill="#333" d="M24 0v-248h52V0H24" id="aJ"/><path fill="#333" d="M24-248c120-7 223 5 221 122C244-46 201 0 124 0H24v-248zM76-40c74 7 117-18 117-86 0-67-45-88-117-82v168" id="aK"/><g id="m"><use transform="matrix(0.049382716049382706,0,0,0.049382716049382706,0,0)" xlink:href="#aD"/><use transform="matrix(0.049382716049382706,0,0,0.049382716049382706,15.802469135802466,0)" xlink:href="#aA"/><use transform="matrix(0.049382716049382706,0,0,0.049382716049382706,25.679012345679006,0)" xlink:href="#af"/><use transform="matrix(0.049382716049382706,0,0,0.049382716049382706,36.49382716049382,0)" xlink:href="#aJ"/><use transform="matrix(0.049382716049382706,0,0,0.049382716049382706,41.432098765432094,0)" xlink:href="#aK"/></g><path fill="#333" d="M102-93c0 74-22 123-52 168H0C30 29 54-18 53-93c0-74-22-123-53-168h50c30 45 52 94 52 168" id="aL"/><g id="n"><use transform="matrix(0.049382716049382706,0,0,0.049382716049382706,0,0)" xlink:href="#az"/><use transform="matrix(0.049382716049382706,0,0,0.049382716049382706,4.93827160493827,0)" xlink:href="#aH"/><use transform="matrix(0.049382716049382706,0,0,0.049382716049382706,15.753086419753084,0)" xlink:href="#ae"/><use transform="matrix(0.049382716049382706,0,0,0.049382716049382706,21.629629629629626,0)" xlink:href="#aL"/></g><path fill="#333" d="M88-194c31-1 46 15 58 34l-1-101h50l1 261h-48c-2-10 0-23-3-31C134-8 116 4 84 4 32 4 16-41 15-95c0-56 19-97 73-99zm17 164c33 0 40-30 41-66 1-37-9-64-41-64s-38 30-39 65c0 43 13 65 39 65" id="aM"/><path fill="#333" d="M110-194c64 0 96 36 96 99 0 64-35 99-97 99-61 0-95-36-95-99 0-62 34-99 96-99zm-1 164c35 0 45-28 45-65 0-40-10-65-43-65-34 0-45 26-45 65 0 36 10 65 43 65" id="aN"/><g id="o"><use transform="matrix(0.049382716049382706,0,0,0.049382716049382706,0,0)" xlink:href="#aA"/><use transform="matrix(0.049382716049382706,0,0,0.049382716049382706,9.87654320987654,0)" xlink:href="#aM"/><use transform="matrix(0.049382716049382706,0,0,0.049382716049382706,20.691358024691354,0)" xlink:href="#aM"/><use transform="matrix(0.049382716049382706,0,0,0.049382716049382706,31.506172839506167,0)" xlink:href="#ax"/><use transform="matrix(0.049382716049382706,0,0,0.049382716049382706,44.29629629629629,0)" xlink:href="#ay"/><use transform="matrix(0.049382716049382706,0,0,0.049382716049382706,49.23456790123456,0)" xlink:href="#az"/><use transform="matrix(0.049382716049382706,0,0,0.049382716049382706,54.17283950617284,0)" xlink:href="#aA"/><use transform="matrix(0.049382716049382706,0,0,0.049382716049382706,64.04938271604938,0)" xlink:href="#ak"/><use transform="matrix(0.049382716049382706,0,0,0.049382716049382706,73.92592592592592,0)" xlink:href="#aF"/><use transform="matrix(0.049382716049382706,0,0,0.049382716049382706,85.77777777777777,0)" xlink:href="#aj"/><use transform="matrix(0.049382716049382706,0,0,0.049382716049382706,96.59259259259258,0)" xlink:href="#aw"/><use transform="matrix(0.049382716049382706,0,0,0.049382716049382706,107.40740740740739,0)" xlink:href="#aw"/><use transform="matrix(0.049382716049382706,0,0,0.049382716049382706,118.2222222222222,0)" xlink:href="#ah"/><use transform="matrix(0.049382716049382706,0,0,0.049382716049382706,128.09876543209873,0)" xlink:href="#ak"/><use transform="matrix(0.049382716049382706,0,0,0.049382716049382706,137.97530864197526,0)" xlink:href="#ae"/><use transform="matrix(0.049382716049382706,0,0,0.049382716049382706,143.8518518518518,0)" xlink:href="#az"/><use transform="matrix(0.049382716049382706,0,0,0.049382716049382706,148.79012345679007,0)" xlink:href="#aN"/><use transform="matrix(0.049382716049382706,0,0,0.049382716049382706,159.60493827160488,0)" xlink:href="#aH"/><use transform="matrix(0.049382716049382706,0,0,0.049382716049382706,170.4197530864197,0)" xlink:href="#aB"/><use transform="matrix(0.049382716049382706,0,0,0.049382716049382706,176.29629629629622,0)" xlink:href="#aH"/><use transform="matrix(0.049382716049382706,0,0,0.049382716049382706,187.11111111111103,0)" xlink:href="#aA"/><use transform="matrix(0.049382716049382706,0,0,0.049382716049382706,196.98765432098756,0)" xlink:href="#aD"/><use transform="matrix(0.049382716049382706,0,0,0.049382716049382706,212.79012345678998,0)" xlink:href="#ah"/></g><g id="p"><use transform="matrix(0.049382716049382706,0,0,0.049382716049382706,0,0)" xlink:href="#aE"/><use transform="matrix(0.049382716049382706,0,0,0.049382716049382706,5.876543209876542,0)" xlink:href="#aF"/><use transform="matrix(0.049382716049382706,0,0,0.049382716049382706,17.728395061728392,0)" xlink:href="#ae"/><use transform="matrix(0.049382716049382706,0,0,0.049382716049382706,23.604938271604933,0)" xlink:href="#aG"/><use transform="matrix(0.049382716049382706,0,0,0.049382716049382706,30.518518518518512,0)" xlink:href="#az"/><use transform="matrix(0.049382716049382706,0,0,0.049382716049382706,35.456790123456784,0)" xlink:href="#aH"/><use transform="matrix(0.049382716049382706,0,0,0.049382716049382706,46.271604938271594,0)" xlink:href="#aw"/><use transform="matrix(0.049382716049382706,0,0,0.049382716049382706,57.08641975308641,0)" xlink:href="#aI"/></g><path d="M108 0H70L1-190h34L89-25l56-165h34" id="aO"/><path d="M96-169c-40 0-48 33-48 73s9 75 48 75c24 0 41-14 43-38l32 2c-6 37-31 61-74 61-59 0-76-41-82-99-10-93 101-131 147-64 4 7 5 14 7 22l-32 3c-4-21-16-35-41-35" id="aP"/><g id="q"><use transform="matrix(0.05,0,0,0.05,0,0)" xlink:href="#al"/><use transform="matrix(0.05,0,0,0.05,5,0)" xlink:href="#S"/><use transform="matrix(0.05,0,0,0.05,17,0)" xlink:href="#ac"/><use transform="matrix(0.05,0,0,0.05,20.95,0)" xlink:href="#am"/><use transform="matrix(0.05,0,0,0.05,24.9,0)" xlink:href="#Y"/><use transform="matrix(0.05,0,0,0.05,34.9,0)" xlink:href="#an"/><use transform="matrix(0.05,0,0,0.05,43.9,0)" xlink:href="#ao"/><use transform="matrix(0.05,0,0,0.05,55.900000000000006,0)" xlink:href="#ap"/><use transform="matrix(0.05,0,0,0.05,65.9,0)" xlink:href="#W"/><use transform="matrix(0.05,0,0,0.05,75.9,0)" xlink:href="#W"/><use transform="matrix(0.05,0,0,0.05,85.9,0)" xlink:href="#aq"/><use transform="matrix(0.05,0,0,0.05,95.9,0)" xlink:href="#an"/><use transform="matrix(0.05,0,0,0.05,104.9,0)" xlink:href="#ar"/><use transform="matrix(0.05,0,0,0.05,109.9,0)" xlink:href="#am"/><use transform="matrix(0.05,0,0,0.05,113.85000000000001,0)" xlink:href="#as"/><use transform="matrix(0.05,0,0,0.05,123.85000000000001,0)" xlink:href="#at"/><use transform="matrix(0.05,0,0,0.05,133.85000000000002,0)" xlink:href="#ao"/><use transform="matrix(0.05,0,0,0.05,145.85000000000002,0)" xlink:href="#aq"/><use transform="matrix(0.05,0,0,0.05,155.85000000000002,0)" xlink:href="#X"/><use transform="matrix(0.05,0,0,0.05,161.8,0)" xlink:href="#aO"/><use transform="matrix(0.05,0,0,0.05,170.8,0)" xlink:href="#am"/><use transform="matrix(0.05,0,0,0.05,174.75,0)" xlink:href="#aP"/><use transform="matrix(0.05,0,0,0.05,183.75,0)" xlink:href="#aq"/><path d="M-.9 1.25h195.55v1.32H-.9z"/></g><path fill="#333" d="M33-154v-36h34v36H33zM33 0v-36h34V0H33" id="aQ"/><path fill="#333" d="M205 0l-28-72H64L36 0H1l101-248h38L239 0h-34zm-38-99l-47-123c-12 45-31 82-46 123h93" id="aR"/><path fill="#333" d="M185-189c-5-48-123-54-124 2 14 75 158 14 163 119 3 78-121 87-175 55-17-10-28-26-33-46l33-7c5 56 141 63 141-1 0-78-155-14-162-118-5-82 145-84 179-34 5 7 8 16 11 25" id="aS"/><path fill="#333" d="M177-190C167-65 218 103 67 71c-23-6-38-20-44-43l32-5c15 47 100 32 89-28v-30C133-14 115 1 83 1 29 1 15-40 15-95c0-56 16-97 71-98 29-1 48 16 59 35 1-10 0-23 2-32h30zM94-22c36 0 50-32 50-73 0-42-14-75-50-75-39 0-46 34-46 75s6 73 46 73" id="aT"/><path fill="#333" d="M100-194c63 0 86 42 84 106H49c0 40 14 67 53 68 26 1 43-12 49-29l28 8c-11 28-37 45-77 45C44 4 14-33 15-96c1-61 26-98 85-98zm52 81c6-60-76-77-97-28-3 7-6 17-6 28h103" id="aU"/><path fill="#333" d="M233-177c-1 41-23 64-60 70L243 0h-38l-65-103H63V0H30v-248c88 3 205-21 203 71zM63-129c60-2 137 13 137-47 0-61-80-42-137-45v92" id="aV"/><path fill="#333" d="M114-163C36-179 61-72 57 0H25l-1-190h30c1 12-1 29 2 39 6-27 23-49 58-41v29" id="aW"/><path fill="#333" d="M179-190L93 31C79 59 56 82 12 73V49c39 6 53-20 64-50L1-190h34L92-34l54-156h33" id="aX"/><g id="r"><use transform="matrix(0.049382716049382706,0,0,0.049382716049382706,0,0)" xlink:href="#aQ"/><use transform="matrix(0.049382716049382706,0,0,0.049382716049382706,4.93827160493827,0)" xlink:href="#aR"/><use transform="matrix(0.049382716049382706,0,0,0.049382716049382706,16.79012345679012,0)" xlink:href="#L"/><use transform="matrix(0.049382716049382706,0,0,0.049382716049382706,20.691358024691354,0)" xlink:href="#M"/><use transform="matrix(0.049382716049382706,0,0,0.049382716049382706,24.592592592592588,0)" xlink:href="#K"/><use transform="matrix(0.049382716049382706,0,0,0.049382716049382706,34.469135802469125,0)" xlink:href="#N"/><use transform="matrix(0.049382716049382706,0,0,0.049382716049382706,43.35802469135801,0)" xlink:href="#aS"/><use transform="matrix(0.049382716049382706,0,0,0.049382716049382706,55.20987654320985,0)" xlink:href="#Q"/><use transform="matrix(0.049382716049382706,0,0,0.049382716049382706,65.0864197530864,0)" xlink:href="#aT"/><use transform="matrix(0.049382716049382706,0,0,0.049382716049382706,74.96296296296295,0)" xlink:href="#aT"/><use transform="matrix(0.049382716049382706,0,0,0.049382716049382706,84.83950617283949,0)" xlink:href="#aU"/><use transform="matrix(0.049382716049382706,0,0,0.049382716049382706,94.71604938271604,0)" xlink:href="#N"/><use transform="matrix(0.049382716049382706,0,0,0.049382716049382706,103.60493827160492,0)" xlink:href="#I"/><use transform="matrix(0.049382716049382706,0,0,0.049382716049382706,108.54320987654319,0)" xlink:href="#M"/><use transform="matrix(0.049382716049382706,0,0,0.049382716049382706,112.44444444444443,0)" xlink:href="#G"/><use transform="matrix(0.049382716049382706,0,0,0.049382716049382706,122.32098765432096,0)" xlink:href="#P"/><use transform="matrix(0.049382716049382706,0,0,0.049382716049382706,132.1975308641975,0)" xlink:href="#aV"/><use transform="matrix(0.049382716049382706,0,0,0.049382716049382706,144.98765432098762,0)" xlink:href="#aU"/><use transform="matrix(0.049382716049382706,0,0,0.049382716049382706,154.86419753086415,0)" xlink:href="#H"/><use transform="matrix(0.049382716049382706,0,0,0.049382716049382706,164.74074074074068,0)" xlink:href="#G"/><use transform="matrix(0.049382716049382706,0,0,0.049382716049382706,174.6172839506172,0)" xlink:href="#N"/><use transform="matrix(0.049382716049382706,0,0,0.049382716049382706,183.5061728395061,0)" xlink:href="#M"/><use transform="matrix(0.049382716049382706,0,0,0.049382716049382706,187.40740740740733,0)" xlink:href="#I"/><use transform="matrix(0.049382716049382706,0,0,0.049382716049382706,192.3456790123456,0)" xlink:href="#G"/><use transform="matrix(0.049382716049382706,0,0,0.049382716049382706,202.22222222222214,0)" xlink:href="#aW"/><use transform="matrix(0.049382716049382706,0,0,0.049382716049382706,208.09876543209867,0)" xlink:href="#aX"/><path fill="#333" d="M-.9 1.23H217.9v1.3H-.9z"/></g><path fill="#333" d="M128 0H69L1-190h53L99-40l48-150h52" id="aY"/><g id="s"><use transform="matrix(0.04938271604938272,0,0,0.04938271604938272,0,0)" xlink:href="#ak"/><use transform="matrix(0.04938271604938272,0,0,0.04938271604938272,9.876543209876544,0)" xlink:href="#aA"/><use transform="matrix(0.04938271604938272,0,0,0.04938271604938272,19.75308641975309,0)" xlink:href="#aY"/><use transform="matrix(0.04938271604938272,0,0,0.04938271604938272,29.629629629629633,0)" xlink:href="#ah"/><use transform="matrix(0.04938271604938272,0,0,0.04938271604938272,39.50617283950618,0)" xlink:href="#aB"/><use transform="matrix(0.04938271604938272,0,0,0.04938271604938272,45.38271604938272,0)" xlink:href="#aE"/><use transform="matrix(0.04938271604938272,0,0,0.04938271604938272,51.25925925925927,0)" xlink:href="#ax"/><use transform="matrix(0.04938271604938272,0,0,0.04938271604938272,64.0493827160494,0)" xlink:href="#ay"/><use transform="matrix(0.04938271604938272,0,0,0.04938271604938272,68.98765432098767,0)" xlink:href="#az"/><use transform="matrix(0.04938271604938272,0,0,0.04938271604938272,73.92592592592595,0)" xlink:href="#aA"/><use transform="matrix(0.04938271604938272,0,0,0.04938271604938272,83.8024691358025,0)" xlink:href="#ak"/><use transform="matrix(0.04938271604938272,0,0,0.04938271604938272,93.67901234567904,0)" xlink:href="#aL"/></g><g id="t"><use transform="matrix(0.04938271604938272,0,0,0.04938271604938272,0,0)" xlink:href="#ad"/><use transform="matrix(0.04938271604938272,0,0,0.04938271604938272,12.790123456790125,0)" xlink:href="#ae"/><use transform="matrix(0.04938271604938272,0,0,0.04938271604938272,18.666666666666668,0)" xlink:href="#ae"/><use transform="matrix(0.04938271604938272,0,0,0.04938271604938272,24.543209876543212,0)" xlink:href="#af"/><use transform="matrix(0.04938271604938272,0,0,0.04938271604938272,35.358024691358025,0)" xlink:href="#ag"/><use transform="matrix(0.04938271604938272,0,0,0.04938271604938272,48.14814814814815,0)" xlink:href="#ah"/><use transform="matrix(0.04938271604938272,0,0,0.04938271604938272,58.0246913580247,0)" xlink:href="#ak"/><use transform="matrix(0.04938271604938272,0,0,0.04938271604938272,67.90123456790124,0)" xlink:href="#af"/><use transform="matrix(0.04938271604938272,0,0,0.04938271604938272,78.71604938271605,0)" xlink:href="#aN"/><use transform="matrix(0.04938271604938272,0,0,0.04938271604938272,89.53086419753086,0)" xlink:href="#aH"/><use transform="matrix(0.04938271604938272,0,0,0.04938271604938272,100.34567901234567,0)" xlink:href="#ak"/><use transform="matrix(0.04938271604938272,0,0,0.04938271604938272,110.22222222222221,0)" xlink:href="#ah"/></g><g id="u"><use transform="matrix(0.05,0,0,0.05,0,0)" xlink:href="#al"/><use transform="matrix(0.05,0,0,0.05,5,0)" xlink:href="#S"/><use transform="matrix(0.05,0,0,0.05,17,0)" xlink:href="#ac"/><use transform="matrix(0.05,0,0,0.05,20.95,0)" xlink:href="#am"/><use transform="matrix(0.05,0,0,0.05,24.9,0)" xlink:href="#Y"/><use transform="matrix(0.05,0,0,0.05,34.9,0)" xlink:href="#an"/><use transform="matrix(0.05,0,0,0.05,43.9,0)" xlink:href="#ao"/><use transform="matrix(0.05,0,0,0.05,55.900000000000006,0)" xlink:href="#aq"/><use transform="matrix(0.05,0,0,0.05,65.9,0)" xlink:href="#X"/><use transform="matrix(0.05,0,0,0.05,71.85000000000001,0)" xlink:href="#aO"/><use transform="matrix(0.05,0,0,0.05,80.85000000000001,0)" xlink:href="#am"/><use transform="matrix(0.05,0,0,0.05,84.80000000000001,0)" xlink:href="#aP"/><use transform="matrix(0.05,0,0,0.05,93.80000000000001,0)" xlink:href="#aq"/><path d="M-.9 1.25h105.6v1.32H-.9z"/></g><g id="v"><use transform="matrix(0.049382716049382706,0,0,0.049382716049382706,0,0)" xlink:href="#aQ"/><use transform="matrix(0.049382716049382706,0,0,0.049382716049382706,4.93827160493827,0)" xlink:href="#aR"/><use transform="matrix(0.049382716049382706,0,0,0.049382716049382706,16.79012345679012,0)" xlink:href="#L"/><use transform="matrix(0.049382716049382706,0,0,0.049382716049382706,20.691358024691354,0)" xlink:href="#M"/><use transform="matrix(0.049382716049382706,0,0,0.049382716049382706,24.592592592592588,0)" xlink:href="#K"/><use transform="matrix(0.049382716049382706,0,0,0.049382716049382706,34.469135802469125,0)" xlink:href="#N"/><use transform="matrix(0.049382716049382706,0,0,0.049382716049382706,43.35802469135801,0)" xlink:href="#aV"/><use transform="matrix(0.049382716049382706,0,0,0.049382716049382706,56.148148148148124,0)" xlink:href="#aU"/><use transform="matrix(0.049382716049382706,0,0,0.049382716049382706,66.02469135802467,0)" xlink:href="#H"/><use transform="matrix(0.049382716049382706,0,0,0.049382716049382706,75.90123456790121,0)" xlink:href="#G"/><use transform="matrix(0.049382716049382706,0,0,0.049382716049382706,85.77777777777776,0)" xlink:href="#N"/><use transform="matrix(0.049382716049382706,0,0,0.049382716049382706,94.66666666666664,0)" xlink:href="#M"/><use transform="matrix(0.049382716049382706,0,0,0.049382716049382706,98.56790123456787,0)" xlink:href="#I"/><use transform="matrix(0.049382716049382706,0,0,0.049382716049382706,103.50617283950614,0)" xlink:href="#G"/><use transform="matrix(0.049382716049382706,0,0,0.049382716049382706,113.38271604938267,0)" xlink:href="#aW"/><use transform="matrix(0.049382716049382706,0,0,0.049382716049382706,119.25925925925921,0)" xlink:href="#aX"/><path fill="#333" d="M-.9 1.23h129.94v1.3H-.9z"/></g><g id="w"><use transform="matrix(0.04938271604938272,0,0,0.04938271604938272,0,0)" xlink:href="#aw"/><use transform="matrix(0.04938271604938272,0,0,0.04938271604938272,10.814814814814815,0)" xlink:href="#ah"/><use transform="matrix(0.04938271604938272,0,0,0.04938271604938272,20.69135802469136,0)" xlink:href="#ae"/><use transform="matrix(0.04938271604938272,0,0,0.04938271604938272,26.567901234567902,0)" xlink:href="#ax"/><use transform="matrix(0.04938271604938272,0,0,0.04938271604938272,39.35802469135803,0)" xlink:href="#ay"/><use transform="matrix(0.04938271604938272,0,0,0.04938271604938272,44.296296296296305,0)" xlink:href="#az"/><use transform="matrix(0.04938271604938272,0,0,0.04938271604938272,49.23456790123458,0)" xlink:href="#aA"/><use transform="matrix(0.04938271604938272,0,0,0.04938271604938272,59.111111111111114,0)" xlink:href="#ak"/><use transform="matrix(0.04938271604938272,0,0,0.04938271604938272,68.98765432098767,0)" xlink:href="#aB"/><use transform="matrix(0.04938271604938272,0,0,0.04938271604938272,74.86419753086422,0)" xlink:href="#aD"/><use transform="matrix(0.04938271604938272,0,0,0.04938271604938272,90.66666666666669,0)" xlink:href="#aA"/><use transform="matrix(0.04938271604938272,0,0,0.04938271604938272,100.54320987654323,0)" xlink:href="#af"/><use transform="matrix(0.04938271604938272,0,0,0.04938271604938272,111.35802469135804,0)" xlink:href="#aJ"/><use transform="matrix(0.04938271604938272,0,0,0.04938271604938272,116.2962962962963,0)" xlink:href="#aK"/></g><use transform="matrix(0.04938271604938272,0,0,0.04938271604938272,0,0)" xlink:href="#aE" id="x"/><g id="y"><use transform="matrix(0.04938271604938272,0,0,0.04938271604938272,0,0)" xlink:href="#az"/><use transform="matrix(0.04938271604938272,0,0,0.04938271604938272,4.938271604938272,0)" xlink:href="#aH"/><use transform="matrix(0.04938271604938272,0,0,0.04938271604938272,15.753086419753087,0)" xlink:href="#ae"/><use transform="matrix(0.04938271604938272,0,0,0.04938271604938272,21.62962962962963,0)" xlink:href="#aI"/></g><g id="z"><use transform="matrix(0.049382716049382706,0,0,0.049382716049382706,0,0)" xlink:href="#aA"/><use transform="matrix(0.049382716049382706,0,0,0.049382716049382706,9.87654320987654,0)" xlink:href="#ay"/><use transform="matrix(0.049382716049382706,0,0,0.049382716049382706,14.814814814814811,0)" xlink:href="#az"/><use transform="matrix(0.049382716049382706,0,0,0.049382716049382706,19.75308641975308,0)" xlink:href="#aA"/><use transform="matrix(0.049382716049382706,0,0,0.049382716049382706,29.629629629629623,0)" xlink:href="#ak"/><use transform="matrix(0.049382716049382706,0,0,0.049382716049382706,39.50617283950616,0)" xlink:href="#aC"/><use transform="matrix(0.049382716049382706,0,0,0.049382716049382706,52.29629629629628,0)" xlink:href="#aA"/><use transform="matrix(0.049382716049382706,0,0,0.049382716049382706,62.172839506172814,0)" xlink:href="#aD"/><use transform="matrix(0.049382716049382706,0,0,0.049382716049382706,77.97530864197529,0)" xlink:href="#ah"/></g><use transform="matrix(0.04938271604938272,0,0,0.04938271604938272,0,0)" xlink:href="#aE" id="A"/><g id="B"><use transform="matrix(0.04938271604938272,0,0,0.04938271604938272,0,0)" xlink:href="#aF"/><use transform="matrix(0.04938271604938272,0,0,0.04938271604938272,11.851851851851853,0)" xlink:href="#ae"/><use transform="matrix(0.04938271604938272,0,0,0.04938271604938272,17.728395061728396,0)" xlink:href="#aG"/><use transform="matrix(0.04938271604938272,0,0,0.04938271604938272,24.641975308641975,0)" xlink:href="#az"/><use transform="matrix(0.04938271604938272,0,0,0.04938271604938272,29.58024691358025,0)" xlink:href="#aH"/><use transform="matrix(0.04938271604938272,0,0,0.04938271604938272,40.39506172839506,0)" xlink:href="#aw"/><use transform="matrix(0.04938271604938272,0,0,0.04938271604938272,51.20987654320988,0)" xlink:href="#aL"/></g><path fill="#333" d="M121-226c-27-7-43 5-38 36h38v33H83V0H34v-157H6v-33h28c-9-59 32-81 87-68v32" id="aZ"/><path fill="#333" d="M182-130c37 4 62 22 62 59C244 23 116-4 24 0v-248c84 5 203-23 205 63 0 31-19 50-47 55zM76-148c40-3 101 13 101-30 0-44-60-28-101-31v61zm0 110c48-3 116 14 116-37 0-48-69-32-116-35v72" id="ba"/><path fill="#333" d="M123 10C108 53 80 86 19 72V37c35 8 53-11 59-39L3-190h52l48 148c12-52 28-100 44-148h51" id="bb"/><g id="C"><use transform="matrix(0.04938271604938272,0,0,0.04938271604938272,0,0)" xlink:href="#aZ"/><use transform="matrix(0.04938271604938272,0,0,0.04938271604938272,5.8765432098765435,0)" xlink:href="#az"/><use transform="matrix(0.04938271604938272,0,0,0.04938271604938272,10.814814814814817,0)" xlink:href="#aH"/><use transform="matrix(0.04938271604938272,0,0,0.04938271604938272,21.629629629629633,0)" xlink:href="#aM"/><use transform="matrix(0.04938271604938272,0,0,0.04938271604938272,32.44444444444445,0)" xlink:href="#ba"/><use transform="matrix(0.04938271604938272,0,0,0.04938271604938272,45.23456790123458,0)" xlink:href="#bb"/><use transform="matrix(0.04938271604938272,0,0,0.04938271604938272,55.111111111111114,0)" xlink:href="#aC"/><use transform="matrix(0.04938271604938272,0,0,0.04938271604938272,67.90123456790124,0)" xlink:href="#aA"/><use transform="matrix(0.04938271604938272,0,0,0.04938271604938272,77.77777777777779,0)" xlink:href="#aD"/><use transform="matrix(0.04938271604938272,0,0,0.04938271604938272,93.58024691358025,0)" xlink:href="#ah"/><use transform="matrix(0.04938271604938272,0,0,0.04938271604938272,103.4567901234568,0)" xlink:href="#aB"/><use transform="matrix(0.049382716049382706,0,0,0.049382716049382706,109.33333333333333,0)" xlink:href="#aA"/><use transform="matrix(0.049382716049382706,0,0,0.049382716049382706,119.2098765432099,0)" xlink:href="#ay"/><use transform="matrix(0.049382716049382706,0,0,0.049382716049382706,124.14814814814815,0)" xlink:href="#az"/><use transform="matrix(0.049382716049382706,0,0,0.049382716049382706,129.08641975308643,0)" xlink:href="#aA"/><use transform="matrix(0.049382716049382706,0,0,0.049382716049382706,138.96296296296296,0)" xlink:href="#ak"/><use transform="matrix(0.049382716049382706,0,0,0.049382716049382706,148.8395061728395,0)" xlink:href="#aC"/><use transform="matrix(0.049382716049382706,0,0,0.049382716049382706,161.62962962962962,0)" xlink:href="#aA"/><use transform="matrix(0.049382716049382706,0,0,0.049382716049382706,171.50617283950615,0)" xlink:href="#aD"/><use transform="matrix(0.049382716049382706,0,0,0.049382716049382706,187.3086419753086,0)" xlink:href="#ah"/></g><g id="D"><use transform="matrix(0.04938271604938272,0,0,0.04938271604938272,0,0)" xlink:href="#aA"/><use transform="matrix(0.04938271604938272,0,0,0.04938271604938272,9.876543209876544,0)" xlink:href="#ay"/><use transform="matrix(0.04938271604938272,0,0,0.04938271604938272,14.814814814814817,0)" xlink:href="#az"/><use transform="matrix(0.04938271604938272,0,0,0.04938271604938272,19.75308641975309,0)" xlink:href="#aA"/><use transform="matrix(0.04938271604938272,0,0,0.04938271604938272,29.629629629629633,0)" xlink:href="#ak"/></g><g id="E"><use transform="matrix(0.04938271604938272,0,0,0.04938271604938272,0,0)" xlink:href="#ax"/><use transform="matrix(0.04938271604938272,0,0,0.04938271604938272,12.790123456790125,0)" xlink:href="#ay"/><use transform="matrix(0.04938271604938272,0,0,0.04938271604938272,17.7283950617284,0)" xlink:href="#az"/><use transform="matrix(0.04938271604938272,0,0,0.04938271604938272,22.66666666666667,0)" xlink:href="#aA"/><use transform="matrix(0.04938271604938272,0,0,0.04938271604938272,32.543209876543216,0)" xlink:href="#ak"/></g><g id="F"><use transform="matrix(0.04938271604938272,0,0,0.04938271604938272,0,0)" xlink:href="#aA"/><use transform="matrix(0.04938271604938272,0,0,0.04938271604938272,9.876543209876544,0)" xlink:href="#ay"/><use transform="matrix(0.04938271604938272,0,0,0.04938271604938272,14.814814814814817,0)" xlink:href="#az"/><use transform="matrix(0.04938271604938272,0,0,0.04938271604938272,19.75308641975309,0)" xlink:href="#aA"/><use transform="matrix(0.04938271604938272,0,0,0.04938271604938272,29.629629629629633,0)" xlink:href="#ak"/></g></defs></g></svg>