<svg xmlns="http://www.w3.org/2000/svg" xmlns:xlink="http://www.w3.org/1999/xlink" xmlns:lucid="lucid" width="3008.73" height="1157.69"><g transform="translate(-689 -220)" lucid:page-tab-id="0_0"><path d="M0 0h3677.73v2581.67H0z" fill="#fff"/><path d="M876.6 247.42c0-3.32 2.68-6 6-6h144.6c3.3 0 6 2.68 6 6v108c0 3.3-2.7 6-6 6H882.6c-3.32 0-6-2.7-6-6z" stroke="#5e5e5e" stroke-width="3" fill="#fff"/><use xlink:href="#a" transform="matrix(1,0,0,1,876.595744680851,241.4173228346457) translate(31.554999999999993 63.15)"/><path d="M1201.7 247.42c0-3.32 2.7-6 6-6h288c3.33 0 6 2.68 6 6v108c0 3.3-2.67 6-6 6h-288c-3.3 0-6-2.7-6-6z" stroke="#5e5e5e" stroke-width="3" fill="#fff"/><use xlink:href="#b" transform="matrix(1,0,0,1,1201.712765957447,241.4173228346457) translate(51.13 63.15)"/><path d="M1593.4 247.42c0-3.32 2.68-6 6-6H1744c3.3 0 6 2.68 6 6v108c0 3.3-2.7 6-6 6h-144.6c-3.32 0-6-2.7-6-6z" stroke="#5e5e5e" stroke-width="3" fill="#fff"/><use xlink:href="#c" transform="matrix(1,0,0,1,1593.3936170212767,241.41732283464546) translate(26.60499999999999 63.15)"/><g fill="none"><path d="M956.36 362.17c.42 0 .75.33.75.75V488.5c0 .4-.32.75-.74.75-.4 0-.75-.34-.75-.75V362.92c0-.42.35-.75.76-.75z"/><path d="M957.1 390.82v27.9m0 13.97v27.9m0 13.95v13.95l-.2.53-.54.22-.53-.22-.22-.53v-13.95m0-13.96v-27.9m0-13.97v-27.9m0-13.96v-13.95l.23-.53.53-.23.53.22.2.52v13.95" stroke="#5e5e5e" stroke-width="1.5"/></g><path d="M721 481.42h108.3c.56 0 1 .44 1 1 0 .54.45.98 1 .98h90.8M721.03 481.42H720" stroke="#5e5e5e" stroke-width="2" fill="none"/><path d="M937.38 483.4l-14.27 4.64v-9.27z" stroke="#5e5e5e" stroke-width="2" fill="#5e5e5e"/><path d="M739.57 457.42c0-3.32 2.7-6 6-6h183.75c3.3 0 6 2.68 6 6v18c0 3.3-2.7 6-6 6H745.57c-3.3 0-6-2.7-6-6z" stroke="#000" stroke-opacity="0" stroke-width="3" fill="#fff" fill-opacity="0"/><use xlink:href="#d" transform="matrix(1,0,0,1,744.5744680851063,456.4173228346457) translate(40.35802469135803 15.472222222222221)"/><path d="M979.3 567.77H1291.5" stroke="#5e5e5e" stroke-width="2" fill="none"/><path d="M979.3 568.77h-1v-2h1" fill="#5e5e5e"/><path d="M1306.76 567.77l-14.26 4.64v-9.27z" stroke="#5e5e5e" stroke-width="2" fill="#5e5e5e"/><use xlink:href="#e" transform="matrix(1,0,0,1,987.9213947990543,537.8013142581401) translate(0.0049999999999954525 14.222222222222221)"/><use xlink:href="#f" transform="matrix(1,0,0,1,987.9213947990543,537.8013142581401) translate(157.78277777777777 14.222222222222221)"/><use xlink:href="#g" transform="matrix(1,0,0,1,987.9213947990543,537.8013142581401) translate(168.59759259259258 14.222222222222221)"/><use xlink:href="#h" transform="matrix(1,0,0,1,987.9213947990543,537.8013142581401) translate(200.10376543209875 14.222222222222221)"/><use xlink:href="#i" transform="matrix(1,0,0,1,987.9213947990543,537.8013142581401) translate(244.54820987654318 14.222222222222221)"/><use xlink:href="#j" transform="matrix(1,0,0,1,987.9213947990543,537.8013142581401) translate(255.363024691358 14.222222222222221)"/><path d="M1652.12 547.42c0-3.32 2.68-6 6-6h28c3.3 0 6 2.68 6 6v168c0 3.3-2.7 6-6 6h-28c-3.32 0-6-2.7-6-6z" stroke="#5e5e5e" stroke-width="3" fill="#fff"/><path d="M1354 615h294.8" stroke="#5e5e5e" stroke-width="2" fill="none"/><path d="M1354.03 616H1353v-2h1.03" fill="#5e5e5e"/><path d="M1631.44 625.17l17.2-10.18-17.2-10.2" stroke="#5e5e5e" stroke-width="2" fill="none"/><use xlink:href="#k" transform="matrix(1,0,0,1,1351.5615970580511,579.4772659118147) translate(0.0049999999999954525 14.222222222222221)"/><use xlink:href="#f" transform="matrix(1,0,0,1,1351.5615970580511,579.4772659118147) translate(138.96796296296296 14.222222222222221)"/><use xlink:href="#g" transform="matrix(1,0,0,1,1351.5615970580511,579.4772659118147) translate(149.78277777777777 14.222222222222221)"/><use xlink:href="#l" transform="matrix(1,0,0,1,1351.5615970580511,579.4772659118147) translate(181.28895061728394 14.222222222222221)"/><use xlink:href="#i" transform="matrix(1,0,0,1,1351.5615970580511,579.4772659118147) translate(232.59759259259258 14.222222222222221)"/><use xlink:href="#j" transform="matrix(1,0,0,1,1351.5615970580511,579.4772659118147) translate(243.4124074074074 14.222222222222221)"/><path d="M1887 247.42c0-3.32 2.7-6 6-6h144.6c3.32 0 6 2.68 6 6v108c0 3.3-2.68 6-6 6H1893c-3.3 0-6-2.7-6-6z" stroke="#5e5e5e" stroke-width="3" fill="#fff"/><use xlink:href="#m" transform="matrix(1,0,0,1,1887.0106382978722,241.41732283464546) translate(13.630000000000004 63.15)"/><path d="M1945.73 587.42c0-3.32 2.7-6 6-6h28c3.32 0 6 2.68 6 6v108c0 3.3-2.68 6-6 6h-28c-3.3 0-6-2.7-6-6z" stroke="#5e5e5e" stroke-width="3" fill="#fff"/><path d="M1694.62 583.97h231.99" stroke="#5e5e5e" stroke-width="2" fill="none"/><path d="M1694.64 584.97h-1.02v-2h1.02" fill="#5e5e5e"/><path d="M1941.88 583.97l-14.27 4.64v-9.26z" stroke="#5e5e5e" stroke-width="2" fill="#5e5e5e"/><use xlink:href="#n" transform="matrix(1,0,0,1,1778.475686443194,558.638596291968) translate(0.005000000000002558 14.222222222222223)"/><path d="M1943.23 690.83h-10.35m-10.36 0h-20.72m-10.36 0h-20.72m-10.36 0h-20.72m-10.36 0h-19.25m-8.9 0h-17.8m-8.9 0h-17.8m-8.9 0h-17.8m-8.9 0h-8.9" stroke="#5e5e5e" stroke-width="2" fill="none"/><path d="M1944.23 691.83h-1.02v-2h1.03" fill="#5e5e5e"/><path d="M1696.85 690.83l14.27-4.63v9.27z" stroke="#5e5e5e" stroke-width="2" fill="#5e5e5e"/><path d="M1649.62 709.86h-9.86m-9.85 0h-19.7m-9.85 0h-19.7m-9.86 0h-19.72m-9.86 0h-19.7m-9.86 0h-20.7m-10.86 0h-21.73m-10.86 0h-21.7m-10.86 0h-21.72m-10.86 0h-10.86" stroke="#5e5e5e" stroke-width="2" fill="none"/><path d="M1650.62 710.86h-1.03v-2h1.02" fill="#5e5e5e"/><path d="M1356.24 709.86l14.26-4.63v9.27z" stroke="#5e5e5e" stroke-width="2" fill="#5e5e5e"/><use xlink:href="#o" transform="matrix(1,0,0,1,1447.5862884160756,713.861733930743) translate(0.005000000000002558 14.222222222222223)"/><path d="M2158.07 247.42c0-3.32 2.7-6 6-6H2374c3.3 0 6 2.68 6 6v108c0 3.3-2.7 6-6 6h-209.93c-3.3 0-6-2.7-6-6z" stroke="#5e5e5e" stroke-width="3" fill="#fff"/><use xlink:href="#p" transform="matrix(1,0,0,1,2158.0691489361707,241.41732283464546) translate(14.130000000000004 63.55625)"/><path d="M2564 247.42c0-3.32 2.67-6 6-6h304c3.3 0 6 2.68 6 6v108c0 3.3-2.7 6-6 6h-304c-3.33 0-6-2.7-6-6z" stroke="#5e5e5e" stroke-width="3" fill="#fff"/><use xlink:href="#q" transform="matrix(1,0,0,1,2568.9868286510427,246.41732283464546) translate(45.00617283950622 58.90972222222222)"/><path d="M2248.7 801c0-3.32 2.7-6 6-6h28c3.33 0 6 2.68 6 6v188c0 3.3-2.67 6-6 6h-28c-3.3 0-6-2.7-6-6z" stroke="#5e5e5e" stroke-width="3" fill="#fff"/><path d="M1354 817.1h891.4" stroke="#5e5e5e" stroke-width="2" fill="none"/><path d="M1354.03 818.1H1353v-2h1.03" fill="#5e5e5e"/><path d="M2228.03 827.3l17.22-10.2-17.22-10.17" stroke="#5e5e5e" stroke-width="2" fill="none"/><use xlink:href="#r" transform="matrix(1,0,0,1,1585.7853953244025,791.776452895007) translate(0.0049999999999954525 14.222222222222221)"/><use xlink:href="#f" transform="matrix(1,0,0,1,1585.7853953244025,791.776452895007) translate(267.116111111111 14.222222222222221)"/><use xlink:href="#g" transform="matrix(1,0,0,1,1585.7853953244025,791.776452895007) translate(277.93092592592586 14.222222222222221)"/><use xlink:href="#l" transform="matrix(1,0,0,1,1585.7853953244025,791.776452895007) translate(309.43709876543204 14.222222222222221)"/><use xlink:href="#i" transform="matrix(1,0,0,1,1585.7853953244025,791.776452895007) translate(360.7457407407407 14.222222222222221)"/><use xlink:href="#j" transform="matrix(1,0,0,1,1585.7853953244025,791.776452895007) translate(371.56055555555554 14.222222222222221)"/><path d="M2291.2 855h396.72" stroke="#5e5e5e" stroke-width="2" fill="none"/><path d="M2291.24 856h-1.03v-2h1.04" fill="#5e5e5e"/><path d="M2703.18 855l-14.26 4.63v-9.27z" stroke="#5e5e5e" stroke-width="2" fill="#5e5e5e"/><use xlink:href="#s" transform="matrix(1,0,0,1,2297.821886462387,825.0228393111979) translate(0.0049999999999954525 14.222222222222223)"/><use xlink:href="#t" transform="matrix(1,0,0,1,2297.821886462387,825.0228393111979) translate(239.46179012345684 14.222222222222223)"/><use xlink:href="#u" transform="matrix(1,0,0,1,2297.821886462387,825.0228393111979) translate(250.27660493827165 14.222222222222223)"/><use xlink:href="#v" transform="matrix(1,0,0,1,2297.821886462387,825.0228393111979) translate(281.7827777777778 14.222222222222223)"/><use xlink:href="#w" transform="matrix(1,0,0,1,2297.821886462387,825.0228393111979) translate(333.0914197530865 14.222222222222223)"/><use xlink:href="#x" transform="matrix(1,0,0,1,2297.821886462387,825.0228393111979) translate(343.9062345679013 14.222222222222223)"/><path d="M2705.42 932.26h-9.86m-9.87 0h-19.73m-9.86 0h-19.72m-9.86 0h-19.72m-9.86 0h-19.73m-9.85 0h-19.72m-9.87 0h-19.72m-9.86 0h-20.4m-10.53 0h-21.07m-10.53 0h-21.07m-10.53 0h-21.07m-10.53 0h-21.07m-10.53 0h-21.07m-10.53 0h-10.53" stroke="#5e5e5e" stroke-width="2" fill="none"/><path d="M2706.42 933.26h-1.03v-2h1.02" fill="#5e5e5e"/><path d="M2293.45 932.26l14.27-4.63v9.27z" stroke="#5e5e5e" stroke-width="2" fill="#5e5e5e"/><g fill="none"><path d="M953.43 1278.44c.4 0 .75.34.75.75v77c0 .4-.34.74-.75.74-.42 0-.75-.34-.75-.75v-77c0-.42.33-.76.75-.76z"/><path d="M954.18 1304.86v25.66m0 12.84v12.83l-.22.52-.53.22-.53-.22-.22-.53v-12.84m0-12.84v-25.66m0-12.84v-12.83l.22-.54.53-.22.53.22.22.53V1292" stroke="#5e5e5e" stroke-width="1.5"/></g><g fill="none"><path d="M1331.07 1230.2c.42 0 .75.33.75.74v117c0 .42-.33.75-.75.75-.4 0-.75-.34-.75-.76v-117c0-.4.34-.75.75-.75z"/><path d="M1331.82 1256.94v26m0 13v26m0 13v13l-.22.53-.53.22-.53-.23-.22-.53v-13m0-13v-26m0-13v-26m0-13v-13l.22-.53.53-.2.53.2.22.54v13" stroke="#5e5e5e" stroke-width="1.5"/></g><g fill="none"><path d="M2268.7 1010.75c.43 0 .76.34.76.75v337c0 .4-.33.75-.75.75-.4 0-.74-.34-.74-.75v-337c0-.4.34-.75.75-.75z"/><path d="M2269.46 1043.6v32.1m0 16.04v32.1m0 16.04v32.1m0 16.04v32.1m0 16.05v32.1m0 16.04v32.1m0 16.05v16.05l-.22.53-.53.22-.52-.22-.22-.53v-16.05m0-16.05v-32.1m0-16.04v-32.1m0-16.04v-32.1m0-16.04v-32.1m0-16.05v-32.1m0-16.04v-32.1m0-16.05v-16.05l.22-.53.53-.22.54.22.22.53v16.05" stroke="#5e5e5e" stroke-width="1.5"/></g><g fill="none"><path d="M2723.97 960.75c.4 0 .75.34.75.75v387c0 .4-.34.75-.75.75-.42 0-.75-.34-.75-.75v-387c0-.4.33-.75.75-.75z"/><path d="M2724.72 990.17v28.66m0 14.34v28.66m0 14.34v28.66m0 14.34v28.66m0 14.34v28.66m0 14.34v28.66m0 14.34v28.66m0 14.34v28.66m0 14.34v14.33l-.22.53-.53.22-.53-.22-.22-.53v-14.33m0-14.34v-28.66m0-14.34v-28.66m0-14.34v-28.66m0-14.34v-28.66m0-14.34v-28.66m0-14.34v-28.66m0-14.34v-28.66m0-14.34v-28.66m0-14.34V961.5l.22-.53.53-.22.53.22.22.53v14.33" stroke="#5e5e5e" stroke-width="1.5"/></g><g fill="none"><path d="M2727.92 370.75c.4 0 .75.34.75.75v502.92c0 .42-.34.75-.75.75-.42 0-.75-.33-.75-.75V371.5c0-.4.33-.75.75-.75z"/><path d="M2728.67 401.98v30.48m0 15.24v30.48m0 15.24v30.48m0 15.24v30.48m0 15.24v30.48m0 15.24v30.48m0 15.24v30.48m0 15.24v30.48m0 15.24v30.48m0 15.24v30.48m0 15.24v15.24l-.22.53-.53.22-.53-.22-.23-.53v-15.24m0-15.24v-30.48m0-15.24v-30.48m0-15.24v-30.48m0-15.24V676.3m0-15.24v-30.48m0-15.24v-30.48m0-15.24v-30.48m0-15.24v-30.48m0-15.24V447.7m0-15.24v-30.48m0-15.24V371.5l.22-.53.52-.22.53.22.22.53v15.24" stroke="#5e5e5e" stroke-width="1.5"/></g><g fill="none"><path d="M2268.7 362.17c.43 0 .76.33.76.75V788.5c0 .4-.33.75-.75.75-.4 0-.74-.34-.74-.75V362.92c0-.42.34-.75.75-.75z"/><path d="M2269.46 394.44v31.53m0 15.76v31.52m0 15.77v31.52m0 15.76v31.53m0 15.76v31.5m0 15.78v31.52m0 15.76v31.53m0 15.75v31.53m0 15.76v15.76l-.22.53-.53.22-.52-.22-.22-.53v-15.76m0-15.76v-31.53m0-15.76v-31.54m0-15.76v-31.52m0-15.77v-31.5m0-15.77V536.3m0-15.76v-31.52m0-15.77v-31.52m0-15.76v-31.53m0-15.76v-15.76l.22-.53.53-.23.54.22.22.52v15.76" stroke="#5e5e5e" stroke-width="1.5"/></g><g fill="none"><path d="M1966.78 362.17c.4 0 .75.33.75.75v217c0 .4-.34.75-.75.75-.42 0-.75-.34-.75-.75v-217c0-.42.33-.75.75-.75z"/><path d="M1967.53 391.85v28.93m0 14.47v28.93m0 14.47v28.93m0 14.47v28.93m0 14.47v14.47l-.22.53-.52.22-.53-.22-.22-.53v-14.47m0-14.47v-28.93m0-14.47v-28.93m0-14.47v-28.93m0-14.47v-28.93m0-14.47v-14.46l.22-.53.53-.23.53.22.23.52v14.46" stroke="#5e5e5e" stroke-width="1.5"/></g><g fill="none"><path d="M1671.7 362.17c.4 0 .74.33.74.75v177c0 .4-.33.75-.75.75s-.76-.34-.76-.75v-177c0-.42.34-.75.75-.75z"/><path d="M1672.44 392.42v29.5m0 14.75v29.5m0 14.75v29.5m0 14.75v14.75l-.22.53-.53.22-.54-.22-.22-.53v-14.75m0-14.75v-29.5m0-14.75v-29.5m0-14.75v-29.5m0-14.75v-14.75l.22-.53.53-.23.52.22.22.52v14.75" stroke="#5e5e5e" stroke-width="1.5"/></g><g fill="none"><path d="M1334 362.17c.42 0 .76.33.76.75v137c0 .4-.34.75-.75.75-.4 0-.74-.34-.74-.75v-137c0-.42.34-.75.75-.75z"/><path d="M1334.76 393.36v30.45m0 15.23v30.44m0 15.23v15.22l-.22.53-.53.22-.52-.22-.22-.53V484.7m0-15.23v-30.44m0-15.22v-30.44m0-15.22v-15.22l.22-.53.53-.23.54.22.22.52v15.22" stroke="#5e5e5e" stroke-width="1.5"/></g><g fill="none"><path d="M1671.7 720.75c.4 0 .74.34.74.75v627c0 .4-.33.75-.75.75s-.76-.34-.76-.75v-627c0-.4.34-.75.75-.75z"/><path d="M1672.44 751.36v29.85m0 14.94V826m0 14.93v29.86m0 14.9v29.87m0 14.93v29.86m0 14.93v29.84m0 14.93v29.86m0 14.93v29.85m0 14.94v29.86m0 14.93v29.86m0 14.9v29.87m0 14.93v29.86m0 14.93v29.84m0 14.93v14.93l-.22.53-.53.22-.54-.22-.22-.53v-14.93m0-14.93v-29.85m0-14.94V1244m0-14.93v-29.86m0-14.9v-29.87m0-14.93v-29.86m0-14.93v-29.84m0-14.93v-29.86m0-14.93V975.3m0-14.94V930.5m0-14.93V885.7m0-14.9v-29.87m0-14.93v-29.86m0-14.93v-29.84m0-14.93V721.5l.22-.53.53-.22.52.22.22.53v14.93" stroke="#5e5e5e" stroke-width="1.5"/></g><g fill="none"><path d="M1969.7 710.75c.43 0 .76.34.76.75v637c0 .4-.33.75-.75.75-.4 0-.74-.34-.74-.75v-637c0-.4.34-.75.75-.75z"/><path d="M1970.46 741.83v30.34m0 15.16v30.34m0 15.16v30.34m0 15.16v30.34m0 15.16v30.34m0 15.16v30.34m0 15.16v30.34m0 15.16v30.34m0 15.16v30.34m0 15.16v30.34m0 15.16v30.34m0 15.16v30.34m0 15.16v30.34m0 15.16v15.17l-.22.53-.53.22-.52-.22-.22-.53v-15.17m0-15.16v-30.34m0-15.16v-30.34m0-15.16v-30.34m0-15.16v-30.34m0-15.16v-30.34m0-15.16v-30.34m0-15.16v-30.34m0-15.16v-30.34m0-15.16v-30.34m0-15.16v-30.34m0-15.16v-30.34m0-15.16v-30.34m0-15.16v-30.34m0-15.16V711.5l.22-.53.53-.22.54.22.22.53v15.17" stroke="#5e5e5e" stroke-width="1.5"/></g><path d="M934.3 1311.34H738.5" stroke="#5e5e5e" stroke-width="2" fill="none"/><path d="M935.3 1312.34h-1.04v-2h1.03" fill="#5e5e5e"/><path d="M723.24 1311.34l14.26-4.63v9.28z" stroke="#5e5e5e" stroke-width="2" fill="#5e5e5e"/><use xlink:href="#y" transform="matrix(1,0,0,1,767.5942343052271,1315.3417968750002) translate(0.005000000000002558 14.222222222222223)"/><path d="M2246.2 981.05h-9.9m-9.9 0h-19.84m-9.9 0h-19.84m-9.92 0h-19.82m-9.92 0h-19.82m-9.92 0h-19.82m-9.92 0h-19.82m-9.92 0h-19.82m-9.92 0h-19.82m-9.92 0h-19.82m-9.92 0h-19.82m-9.92 0h-19.83m-9.9 0h-19.84m-9.9 0h-19.83m-9.9 0h-19.84m-9.9 0H1789.9m-10.2 0h-20.4m-10.22 0h-20.4m-10.2 0h-20.42m-10.2 0h-20.42m-10.2 0h-20.4m-10.22 0h-20.4m-10.2 0h-20.42m-10.2 0H1545m-10.22 0h-20.4m-10.2 0h-20.42m-10.2 0h-20.42m-10.2 0h-20.4m-10.22 0h-20.4m-10.2 0h-10.22" stroke="#5e5e5e" stroke-width="2" fill="none"/><path d="M2247.2 982.05h-1v-2h1" fill="#5e5e5e"/><path d="M1356.24 981.05l14.26-4.63v9.27z" stroke="#5e5e5e" stroke-width="2" fill="#5e5e5e"/><path d="M1309 1248.73h-10.4m-10.4 0h-20.83m-10.4 0h-20.82m-10.4 0h-20.82m-10.4 0h-20.82m-10.4 0h-20.8m-10.42 0h-20.8m-10.42 0h-20.8m-10.42 0h-20.82m-10.4 0h-20.82m-10.4 0h-10.4" stroke="#5e5e5e" stroke-width="2" fill="none"/><path d="M1310 1249.73h-1.03v-2h1.03" fill="#5e5e5e"/><path d="M981.52 1248.73l14.27-4.64v9.26z" stroke="#5e5e5e" stroke-width="2" fill="#5e5e5e"/><use xlink:href="#z" transform="matrix(1,0,0,1,1066.2670738114,1252.7255859375) translate(0.0049999999999954525 14.222222222222223)"/><use xlink:href="#t" transform="matrix(1,0,0,1,1066.2670738114,1252.7255859375) translate(75.01734567901235 14.222222222222223)"/><use xlink:href="#A" transform="matrix(1,0,0,1,1066.2670738114,1252.7255859375) translate(85.83216049382716 14.222222222222223)"/><path d="M2980 246c0-3.3 2.7-6 6-6h168c3.3 0 6 2.7 6 6v108c0 3.3-2.7 6-6 6h-168c-3.3 0-6-2.7-6-6z" stroke="#5e5e5e" stroke-width="3" fill="#fff"/><use xlink:href="#B" transform="matrix(1,0,0,1,2980,240) translate(7.15500000000001 63.15)"/><path d="M3457.73 247.42c0-3.32 2.7-6 6-6h208c3.32 0 6 2.68 6 6v108c0 3.3-2.68 6-6 6h-208c-3.3 0-6-2.7-6-6z" stroke="#5e5e5e" stroke-width="3" fill="#fff"/><use xlink:href="#C" transform="matrix(1,0,0,1,3457.7322834645665,241.4173228346457) translate(9.180000000000016 63.15)"/><g fill="none"><path d="M3065.5 360.75c.4 0 .74.34.74.75v717c0 .4-.34.75-.75.75-.43 0-.76-.34-.76-.75v-717c0-.4.33-.75.75-.75z"/><path d="M3066.24 391.37v29.88m0 14.94v29.86m0 14.94v29.87m0 14.94v29.9m0 14.92v29.88m0 14.94v29.87m0 14.95v29.87m0 14.94v29.88m0 14.93v29.88m0 14.94v29.86m0 14.94v29.87m0 14.94v29.9m0 14.92V959m0 14.94v29.87m0 14.95v29.87m0 14.94v14.94l-.22.53-.53.22-.54-.22-.22-.53v-14.94m0-14.93v-29.88m0-14.94v-29.86m0-14.94v-29.87m0-14.94v-29.9m0-14.92V839.5m0-14.94V794.7m0-14.95v-29.87m0-14.94v-29.88m0-14.93v-29.88m0-14.94v-29.86m0-14.94v-29.87m0-14.94v-29.9m0-14.92V481m0-14.94V436.2m0-14.95v-29.87m0-14.94V361.5l.22-.53.53-.22.52.22.22.53v14.94" stroke="#5e5e5e" stroke-width="1.5"/></g><g fill="none"><path d="M3065.5 360.75c.4 0 .74.34.74.75v987c0 .4-.34.75-.75.75-.43 0-.76-.34-.76-.75v-987c0-.4.33-.75.75-.75z"/><path d="M3066.24 391.4v29.92m0 14.95v29.9m0 14.97v29.9m0 14.96v29.9m0 14.96v29.9m0 14.97v29.9m0 14.96v29.9m0 14.95v29.9m0 14.97v29.9m0 14.96v29.9m0 14.97v29.9m0 14.96v29.92m0 14.95v29.9m0 14.97v29.9m0 14.96v29.9m0 14.96v29.9m0 14.97v29.9m0 14.96v29.9m0 14.95v29.9m0 14.97v29.9m0 14.96v29.9m0 14.97v14.95l-.22.53-.53.22-.54-.22-.22-.53v-14.95m0-14.96v-29.92m0-14.95v-29.9m0-14.97v-29.9m0-14.96v-29.9m0-14.96v-29.9m0-14.97v-29.9m0-14.96v-29.9m0-14.95v-29.9m0-14.97v-29.9m0-14.96v-29.9m0-14.97v-29.9m0-14.96v-29.92m0-14.95v-29.9m0-14.97v-29.9m0-14.96v-29.9m0-14.96v-29.9m0-14.97v-29.9m0-14.96V526m0-14.95v-29.9m0-14.97v-29.9m0-14.96v-29.9m0-14.97V361.5l.22-.53.53-.22.52.22.22.53v14.95" stroke="#5e5e5e" stroke-width="1.5"/></g><g fill="none"><path d="M3567.73 363.58c.42 0 .75.34.75.75v975.6c0 .4-.33.74-.75.74-.4 0-.75-.34-.75-.75v-975.6c0-.4.34-.74.75-.74z"/><path d="M3568.48 393.9v29.56m0 14.78v29.57m0 14.8v29.55m0 14.78v29.56m0 14.78v29.56m0 14.78v29.56m0 14.8v29.55m0 14.78v29.57m0 14.8v29.55m0 14.78v29.56m0 14.78v29.57m0 14.8v29.55m0 14.78v29.57m0 14.78v29.56m0 14.78v29.57m0 14.77v29.56m0 14.78V1133m0 14.78v29.56m0 14.78v29.56m0 14.8V1266m0 14.8v29.55m0 14.8v14.77l-.22.53-.53.22-.53-.22-.22-.53v-14.78m0-14.8v-29.55m0-14.8v-29.55m0-14.8v-29.55m0-14.78v-29.56m0-14.78v-29.57m0-14.77v-29.56m0-14.78v-29.58m0-14.78v-29.56m0-14.78v-29.57m0-14.78V881.7m0-14.8v-29.56m0-14.78V793m0-14.78v-29.56m0-14.8v-29.55m0-14.77v-29.56m0-14.8v-29.55m0-14.78v-29.56m0-14.8v-29.55m0-14.78V482.6m0-14.8v-29.56m0-14.78V393.9m0-14.78v-14.8l.22-.52.53-.22.53.22.22.53v14.8" stroke="#5e5e5e" stroke-width="1.5"/></g><path d="M2707.92 842.4c0-3.3 2.68-6 6-6h28c3.3 0 6 2.7 6 6v108c0 3.32-2.7 6-6 6h-28c-3.32 0-6-2.68-6-6zM936.8 490.37c0-3.3 2.67-6 6-6h28c3.3 0 6 2.7 6 6V1314c0 3.3-2.7 6-6 6h-28c-3.33 0-6-2.7-6-6zM1311.5 566c0-3.3 2.7-6 6-6h28c3.3 0 6 2.7 6 6v688c0 3.3-2.7 6-6 6h-28c-3.3 0-6-2.7-6-6zM3049.33 1046c0-3.3 2.7-6 6-6h28c3.32 0 6 2.7 6 6v188c0 3.3-2.68 6-6 6h-28c-3.3 0-6-2.7-6-6z" stroke="#5e5e5e" stroke-width="3" fill="#fff"/><path d="M1352.5 1062.12H3046M1352.53 1062.12h-1.03M3028.65 1072.3l17.22-10.18-17.22-10.18" stroke="#5e5e5e" stroke-width="2" fill="none"/><g><use xlink:href="#D" transform="matrix(1,0,0,1,2004.9999113969754,1036.7850253348513) translate(0.0049999999999954525 14.222222222222221)"/><use xlink:href="#f" transform="matrix(1,0,0,1,2004.9999113969754,1036.7850253348513) translate(219.95561728395057 14.222222222222221)"/><use xlink:href="#E" transform="matrix(1,0,0,1,2004.9999113969754,1036.7850253348513) translate(230.77043209876538 14.222222222222221)"/><use xlink:href="#F" transform="matrix(1,0,0,1,2004.9999113969754,1036.7850253348513) translate(291.8568518518518 14.222222222222221)"/><use xlink:href="#i" transform="matrix(1,0,0,1,2004.9999113969754,1036.7850253348513) translate(351.0173456790123 14.222222222222221)"/><use xlink:href="#G" transform="matrix(1,0,0,1,2004.9999113969754,1036.7850253348513) translate(361.83216049382713 14.222222222222221)"/></g><path d="M3091.83 1100h226c.4 0 .7.32.7.7 0 .4.32.72.7.72h208.5" stroke="#5e5e5e" stroke-width="2" fill="none"/><path d="M3091.86 1101h-1.03v-2h1.03" fill="#5e5e5e"/><path d="M3543 1101.42l-14.27 4.63v-9.27z" stroke="#5e5e5e" stroke-width="2" fill="#5e5e5e"/><g><use xlink:href="#H" transform="matrix(1,0,0,1,3103.755299695901,1070.0318676277702) translate(0.0049999999999954525 14.222222222222223)"/><use xlink:href="#t" transform="matrix(1,0,0,1,3103.755299695901,1070.0318676277702) translate(260.2025308641976 14.222222222222223)"/><use xlink:href="#I" transform="matrix(1,0,0,1,3103.755299695901,1070.0318676277702) translate(271.01734567901246 14.222222222222223)"/><use xlink:href="#J" transform="matrix(1,0,0,1,3103.755299695901,1070.0318676277702) translate(332.1037654320989 14.222222222222223)"/><use xlink:href="#w" transform="matrix(1,0,0,1,3103.755299695901,1070.0318676277702) translate(391.2642592592594 14.222222222222223)"/><use xlink:href="#K" transform="matrix(1,0,0,1,3103.755299695901,1070.0318676277702) translate(402.07907407407424 14.222222222222223)"/></g><path d="M3545.23 1178.7h-9.4m-9.43 0h-18.83m-9.42 0h-18.83m-9.42 0h-18.83m-9.42 0h-18.83m-9.42 0h-18.83m-9.4 0h-18.85m-9.4 0h-18.85m-9.4 0h-9.43l-.5-.22-.2-.5-.2-.5-.52-.2h-9.92m-9.93 0h-19.86m-9.92 0h-19.85m-9.93 0h-19.86m-9.92 0h-19.86m-9.93 0h-19.85m-9.93 0h-19.86m-9.94 0h-9.92" stroke="#5e5e5e" stroke-width="2" fill="none"/><path d="M3546.23 1179.7h-1.02v-2h1.03" fill="#5e5e5e"/><path d="M3094.07 1177.27l14.27-4.63v9.27z" stroke="#5e5e5e" stroke-width="2" fill="#5e5e5e"/><path d="M3046.83 1226.06h-10.08m-10.1 0h-20.16m-10.1 0h-20.16m-10.1 0H2946m-10.1 0h-20.16m-10.08 0h-20.17m-10.1 0h-20.16m-10.07 0h-20.17m-10.1 0h-20.16m-10.1 0h-20.16m-10.08 0h-20.17m-10.1 0h-20.17m-10.08 0h-20.17m-10.1 0h-20.16m-10.08 0h-20.18m-10.08 0h-20.17m-10.08 0h-20.17m-10.08 0h-20.17m-10.1 0h-20.16m-10.08 0h-20.18m-10.08 0h-20.17m-10.1 0h-20.16m-10.08 0h-20.18m-10.1 0h-20.16m-10.08 0h-20.17m-10.08 0h-20.17m-10.1 0h-20.16m-10.1 0h-20.16m-10.1 0H2189.8m-9.9 0h-19.74m-9.88 0h-19.75m-9.88 0h-19.75m-9.88 0h-19.75m-9.88 0h-19.76m-9.88 0H2012m-9.87 0h-19.76m-9.87 0h-19.76m-9.87 0h-19.76m-9.86 0h-19.76m-9.88 0h-19.75m-9.88 0h-19.75m-9.88 0h-19.75m-9.9 0h-19.74m-9.88 0h-19.75m-9.88 0h-19.75m-9.88 0h-19.75m-9.88 0h-19.77m-9.87 0h-19.76m-9.87 0h-19.76m-9.87 0h-19.76m-9.88 0h-19.75m-9.87 0h-19.75m-9.88 0h-19.75m-9.88 0h-19.75m-9.88 0h-19.75m-9.9 0h-19.74m-9.88 0H1370" stroke="#5e5e5e" stroke-width="2" fill="none"/><path d="M3047.83 1227.06h-1.02v-2h1.03" fill="#5e5e5e"/><path d="M1354.74 1226.06l14.26-4.63v9.27z" stroke="#5e5e5e" stroke-width="2" fill="#5e5e5e"/><path d="M3547.73 1088.83c0-3.3 2.7-6 6-6h28c3.32 0 6 2.7 6 6v108c0 3.32-2.68 6-6 6h-28c-3.3 0-6-2.68-6-6z" stroke="#5e5e5e" stroke-width="3" fill="#fff"/><defs><path d="M205 0l-28-72H64L36 0H1l101-248h38L239 0h-34zm-38-99l-47-123c-12 45-31 82-46 123h93" id="L"/><path d="M30-248c87 1 191-15 191 75 0 78-77 80-158 76V0H30v-248zm33 125c57 0 124 11 124-50 0-59-68-47-124-48v98" id="M"/><path d="M33 0v-248h34V0H33" id="N"/><path d="M33 0v-38h34V0H33" id="O"/><path d="M177-190C167-65 218 103 67 71c-23-6-38-20-44-43l32-5c15 47 100 32 89-28v-30C133-14 115 1 83 1 29 1 15-40 15-95c0-56 16-97 71-98 29-1 48 16 59 35 1-10 0-23 2-32h30zM94-22c36 0 50-32 50-73 0-42-14-75-50-75-39 0-46 34-46 75s6 73 46 73" id="P"/><path d="M114-163C36-179 61-72 57 0H25l-1-190h30c1 12-1 29 2 39 6-27 23-49 58-41v29" id="Q"/><path d="M141-36C126-15 110 5 73 4 37 3 15-17 15-53c-1-64 63-63 125-63 3-35-9-54-41-54-24 1-41 7-42 31l-33-3c5-37 33-52 76-52 45 0 72 20 72 64v82c-1 20 7 32 28 27v20c-31 9-61-2-59-35zM48-53c0 20 12 33 32 33 41-3 63-29 60-74-43 2-92-5-92 41" id="R"/><path d="M115-194c55 1 70 41 70 98S169 2 115 4C84 4 66-9 55-30l1 105H24l-1-265h31l2 30c10-21 28-34 59-34zm-8 174c40 0 45-34 45-75s-6-73-45-74c-42 0-51 32-51 76 0 43 10 73 51 73" id="S"/><path d="M106-169C34-169 62-67 57 0H25v-261h32l-1 103c12-21 28-36 61-36 89 0 53 116 60 194h-32v-121c2-32-8-49-39-48" id="T"/><path d="M145-31C134-9 116 4 85 4 32 4 16-35 15-94c0-59 17-99 70-100 32-1 48 14 60 33 0-11-1-24 2-32h30l-1 268h-32zM93-21c41 0 51-33 51-76s-8-73-50-73c-40 0-46 35-46 75s5 74 45 74" id="U"/><path d="M24 0v-261h32V0H24" id="V"/><g id="a"><use transform="matrix(0.05,0,0,0.05,0,0)" xlink:href="#L"/><use transform="matrix(0.05,0,0,0.05,12,0)" xlink:href="#M"/><use transform="matrix(0.05,0,0,0.05,24,0)" xlink:href="#N"/><use transform="matrix(0.05,0,0,0.05,29,0)" xlink:href="#O"/><use transform="matrix(0.05,0,0,0.05,34,0)" xlink:href="#P"/><use transform="matrix(0.05,0,0,0.05,44,0)" xlink:href="#Q"/><use transform="matrix(0.05,0,0,0.05,49.95,0)" xlink:href="#R"/><use transform="matrix(0.05,0,0,0.05,59.95,0)" xlink:href="#S"/><use transform="matrix(0.05,0,0,0.05,69.95,0)" xlink:href="#T"/><use transform="matrix(0.05,0,0,0.05,79.95,0)" xlink:href="#U"/><use transform="matrix(0.05,0,0,0.05,89.95,0)" xlink:href="#V"/><path d="M-.9 1.25h95.7v1.32H-.9z"/></g><path d="M24-231v-30h32v30H24zM24 0v-190h32V0H24" id="W"/><path d="M135-143c-3-34-86-38-87 0 15 53 115 12 119 90S17 21 10-45l28-5c4 36 97 45 98 0-10-56-113-15-118-90-4-57 82-63 122-42 12 7 21 19 24 35" id="X"/><path d="M185-189c-5-48-123-54-124 2 14 75 158 14 163 119 3 78-121 87-175 55-17-10-28-26-33-46l33-7c5 56 141 63 141-1 0-78-155-14-162-118-5-82 145-84 179-34 5 7 8 16 11 25" id="Y"/><path d="M84 4C-5 8 30-112 23-190h32v120c0 31 7 50 39 49 72-2 45-101 50-169h31l1 190h-30c-1-10 1-25-2-33-11 22-28 36-60 37" id="Z"/><path d="M100-194c63 0 86 42 84 106H49c0 40 14 67 53 68 26 1 43-12 49-29l28 8c-11 28-37 45-77 45C44 4 14-33 15-96c1-61 26-98 85-98zm52 81c6-60-76-77-97-28-3 7-6 17-6 28h103" id="aa"/><path d="M59-47c-2 24 18 29 38 22v24C64 9 27 4 27-40v-127H5v-23h24l9-43h21v43h35v23H59v120" id="ab"/><path d="M100-194c62-1 85 37 85 99 1 63-27 99-86 99S16-35 15-95c0-66 28-99 85-99zM99-20c44 1 53-31 53-75 0-43-8-75-51-75s-53 32-53 75 10 74 51 75" id="ac"/><path d="M117-194c89-4 53 116 60 194h-32v-121c0-31-8-49-39-48C34-167 62-67 57 0H25l-1-190h30c1 10-1 24 2 32 11-22 29-35 61-36" id="ad"/><path d="M240 0l2-218c-23 76-54 145-80 218h-23L58-218 59 0H30v-248h44l77 211c21-75 51-140 76-211h43V0h-30" id="ae"/><g id="b"><use transform="matrix(0.05,0,0,0.05,0,0)" xlink:href="#L"/><use transform="matrix(0.05,0,0,0.05,12,0)" xlink:href="#V"/><use transform="matrix(0.05,0,0,0.05,15.949999999999998,0)" xlink:href="#W"/><use transform="matrix(0.05,0,0,0.05,19.9,0)" xlink:href="#R"/><use transform="matrix(0.05,0,0,0.05,29.899999999999995,0)" xlink:href="#X"/><use transform="matrix(0.05,0,0,0.05,38.9,0)" xlink:href="#Y"/><use transform="matrix(0.05,0,0,0.05,50.9,0)" xlink:href="#Z"/><use transform="matrix(0.05,0,0,0.05,60.900000000000006,0)" xlink:href="#P"/><use transform="matrix(0.05,0,0,0.05,70.9,0)" xlink:href="#P"/><use transform="matrix(0.05,0,0,0.05,80.9,0)" xlink:href="#aa"/><use transform="matrix(0.05,0,0,0.05,90.9,0)" xlink:href="#X"/><use transform="matrix(0.05,0,0,0.05,99.9,0)" xlink:href="#ab"/><use transform="matrix(0.05,0,0,0.05,104.9,0)" xlink:href="#W"/><use transform="matrix(0.05,0,0,0.05,108.85000000000001,0)" xlink:href="#ac"/><use transform="matrix(0.05,0,0,0.05,118.85000000000001,0)" xlink:href="#ad"/><use transform="matrix(0.05,0,0,0.05,128.85000000000002,0)" xlink:href="#ae"/><use transform="matrix(0.05,0,0,0.05,143.8,0)" xlink:href="#Z"/><use transform="matrix(0.05,0,0,0.05,153.8,0)" xlink:href="#ab"/><use transform="matrix(0.05,0,0,0.05,158.8,0)" xlink:href="#R"/><use transform="matrix(0.05,0,0,0.05,168.8,0)" xlink:href="#ab"/><use transform="matrix(0.05,0,0,0.05,173.8,0)" xlink:href="#W"/><use transform="matrix(0.05,0,0,0.05,177.75,0)" xlink:href="#ac"/><use transform="matrix(0.05,0,0,0.05,187.75,0)" xlink:href="#ad"/><path d="M-.9 1.25h199.55v1.32H-.9z"/></g><path d="M33-154v-36h34v36H33zM33 0v-36h34V0H33" id="af"/><path d="M108 0H70L1-190h34L89-25l56-165h34" id="ag"/><path d="M96-169c-40 0-48 33-48 73s9 75 48 75c24 0 41-14 43-38l32 2c-6 37-31 61-74 61-59 0-76-41-82-99-10-93 101-131 147-64 4 7 5 14 7 22l-32 3c-4-21-16-35-41-35" id="ah"/><g id="c"><use transform="matrix(0.05,0,0,0.05,0,0)" xlink:href="#af"/><use transform="matrix(0.05,0,0,0.05,5,0)" xlink:href="#L"/><use transform="matrix(0.05,0,0,0.05,17,0)" xlink:href="#V"/><use transform="matrix(0.05,0,0,0.05,20.95,0)" xlink:href="#W"/><use transform="matrix(0.05,0,0,0.05,24.9,0)" xlink:href="#R"/><use transform="matrix(0.05,0,0,0.05,34.9,0)" xlink:href="#X"/><use transform="matrix(0.05,0,0,0.05,43.9,0)" xlink:href="#Y"/><use transform="matrix(0.05,0,0,0.05,55.900000000000006,0)" xlink:href="#aa"/><use transform="matrix(0.05,0,0,0.05,65.9,0)" xlink:href="#Q"/><use transform="matrix(0.05,0,0,0.05,71.85000000000001,0)" xlink:href="#ag"/><use transform="matrix(0.05,0,0,0.05,80.85000000000001,0)" xlink:href="#W"/><use transform="matrix(0.05,0,0,0.05,84.80000000000001,0)" xlink:href="#ah"/><use transform="matrix(0.05,0,0,0.05,93.80000000000001,0)" xlink:href="#aa"/><path d="M-.9 1.25h105.6v1.32H-.9z"/></g><path fill="#333" d="M186 0v-106H76V0H24v-248h52v99h110v-99h50V0h-50" id="ai"/><path fill="#333" d="M115-3C79 11 28 4 28-45v-112H4v-33h27l15-45h31v45h36v33H77v99c-1 23 16 31 38 25v30" id="aj"/><path fill="#333" d="M135-194c53 0 70 44 70 98 0 56-19 98-73 100-31 1-45-17-59-34 3 33 2 69 2 105H25l-1-265h48c2 10 0 23 3 31 11-24 29-35 60-35zM114-30c33 0 39-31 40-66 0-38-9-64-40-64-56 0-55 130 0 130" id="ak"/><path fill="#333" d="M240-174c0 40-23 61-54 70L253 0h-59l-57-94H76V0H24v-248c93 4 217-23 216 74zM76-134c48-2 112 12 112-38 0-48-66-32-112-35v73" id="al"/><path fill="#333" d="M185-48c-13 30-37 53-82 52C43 2 14-33 14-96s30-98 90-98c62 0 83 45 84 108H66c0 31 8 55 39 56 18 0 30-7 34-22zm-45-69c5-46-57-63-70-21-2 6-4 13-4 21h74" id="am"/><path fill="#333" d="M84 4C32 4 15-41 15-95c0-55 18-99 73-99 29 0 47 12 58 34l2-30h48l-1 265h-49V-32C136-9 114 4 84 4zm21-34c32 0 41-29 41-66 0-36-9-64-40-64-33 0-39 30-40 65 0 43 13 65 39 65" id="an"/><path fill="#333" d="M85 4C-2 5 27-109 22-190h50c7 57-23 150 33 157 60-5 35-97 40-157h50l1 190h-47c-2-12 1-28-3-38-12 25-28 42-61 42" id="ao"/><path fill="#333" d="M137-138c1-29-70-34-71-4 15 46 118 7 119 86 1 83-164 76-172 9l43-7c4 19 20 25 44 25 33 8 57-30 24-41C81-84 22-81 20-136c-2-80 154-74 161-7" id="ap"/><g id="d"><use transform="matrix(0.049382716049382706,0,0,0.049382716049382706,0,0)" xlink:href="#ai"/><use transform="matrix(0.049382716049382706,0,0,0.049382716049382706,12.790123456790122,0)" xlink:href="#aj"/><use transform="matrix(0.049382716049382706,0,0,0.049382716049382706,18.666666666666664,0)" xlink:href="#aj"/><use transform="matrix(0.049382716049382706,0,0,0.049382716049382706,24.543209876543205,0)" xlink:href="#ak"/><use transform="matrix(0.049382716049382706,0,0,0.049382716049382706,35.35802469135802,0)" xlink:href="#al"/><use transform="matrix(0.049382716049382706,0,0,0.049382716049382706,48.14814814814814,0)" xlink:href="#am"/><use transform="matrix(0.049382716049382706,0,0,0.049382716049382706,58.02469135802468,0)" xlink:href="#an"/><use transform="matrix(0.049382716049382706,0,0,0.049382716049382706,68.83950617283949,0)" xlink:href="#ao"/><use transform="matrix(0.049382716049382706,0,0,0.049382716049382706,79.6543209876543,0)" xlink:href="#am"/><use transform="matrix(0.049382716049382706,0,0,0.049382716049382706,89.53086419753085,0)" xlink:href="#ap"/><use transform="matrix(0.049382716049382706,0,0,0.049382716049382706,99.40740740740739,0)" xlink:href="#aj"/></g><path fill="#333" d="M133-34C117-15 103 5 69 4 32 3 11-16 11-54c-1-60 55-63 116-61 1-26-3-47-28-47-18 1-26 9-28 27l-52-2c7-38 36-58 82-57s74 22 75 68l1 82c-1 14 12 18 25 15v27c-30 8-71 5-69-32zm-48 3c29 0 43-24 42-57-32 0-66-3-65 30 0 17 8 27 23 27" id="aq"/><path fill="#333" d="M190-63c-7 42-38 67-86 67-59 0-84-38-90-98-12-110 154-137 174-36l-49 2c-2-19-15-32-35-32-30 0-35 28-38 64-6 74 65 87 74 30" id="ar"/><path fill="#333" d="M199 0l-22-63H83L61 0H9l90-248h61L250 0h-51zm-33-102l-36-108c-10 38-24 72-36 108h72" id="as"/><path fill="#333" d="M25 0v-261h50V0H25" id="at"/><path fill="#333" d="M25-224v-37h50v37H25zM25 0v-190h50V0H25" id="au"/><path fill="#333" d="M67-93c0 74 22 123 53 168H70C40 30 18-18 18-93s22-123 52-168h50c-32 44-53 94-53 168" id="av"/><path fill="#333" d="M220-157c-53 9-28 100-34 157h-49v-107c1-27-5-49-29-50C55-147 81-57 75 0H25l-1-190h47c2 12-1 28 3 38 10-53 101-56 108 0 13-22 24-43 59-42 82 1 51 116 57 194h-49v-107c-1-25-5-48-29-50" id="aw"/><path fill="#333" d="M24 0v-248h52V0H24" id="ax"/><path fill="#333" d="M24-248c120-7 223 5 221 122C244-46 201 0 124 0H24v-248zM76-40c74 7 117-18 117-86 0-67-45-88-117-82v168" id="ay"/><g id="e"><use transform="matrix(0.049382716049382706,0,0,0.049382716049382706,0,0)" xlink:href="#aq"/><use transform="matrix(0.049382716049382706,0,0,0.049382716049382706,9.87654320987654,0)" xlink:href="#ar"/><use transform="matrix(0.049382716049382706,0,0,0.049382716049382706,19.75308641975308,0)" xlink:href="#ar"/><use transform="matrix(0.049382716049382706,0,0,0.049382716049382706,29.629629629629623,0)" xlink:href="#am"/><use transform="matrix(0.049382716049382706,0,0,0.049382716049382706,39.50617283950616,0)" xlink:href="#ak"/><use transform="matrix(0.049382716049382706,0,0,0.049382716049382706,50.32098765432097,0)" xlink:href="#as"/><use transform="matrix(0.049382716049382706,0,0,0.049382716049382706,63.111111111111086,0)" xlink:href="#at"/><use transform="matrix(0.049382716049382706,0,0,0.049382716049382706,68.04938271604937,0)" xlink:href="#au"/><use transform="matrix(0.049382716049382706,0,0,0.049382716049382706,72.98765432098763,0)" xlink:href="#aq"/><use transform="matrix(0.049382716049382706,0,0,0.049382716049382706,82.86419753086417,0)" xlink:href="#ap"/><use transform="matrix(0.049382716049382706,0,0,0.049382716049382706,92.74074074074072,0)" xlink:href="#av"/><use transform="matrix(0.049382716049382706,0,0,0.049382716049382706,98.61728395061726,0)" xlink:href="#aw"/><use transform="matrix(0.049382716049382706,0,0,0.049382716049382706,114.41975308641973,0)" xlink:href="#aq"/><use transform="matrix(0.049382716049382706,0,0,0.049382716049382706,124.29629629629628,0)" xlink:href="#ak"/><use transform="matrix(0.049382716049382706,0,0,0.049382716049382706,135.1111111111111,0)" xlink:href="#ax"/><use transform="matrix(0.049382716049382706,0,0,0.049382716049382706,140.04938271604937,0)" xlink:href="#ay"/></g><path fill="#333" d="M35-132v-50h50v50H35zM35 0v-49h50V0H35" id="az"/><use transform="matrix(0.049382716049382706,0,0,0.049382716049382706,0,0)" xlink:href="#az" id="f"/><path fill="#333" d="M135-194c87-1 58 113 63 194h-50c-7-57 23-157-34-157-59 0-34 97-39 157H25l-1-190h47c2 12-1 28 3 38 12-26 28-41 61-42" id="aA"/><path fill="#333" d="M76-54c-1 42 2 86-19 110H24C36 42 46 24 48 0H25v-54h51" id="aB"/><g id="g"><use transform="matrix(0.049382716049382706,0,0,0.049382716049382706,0,0)" xlink:href="#au"/><use transform="matrix(0.049382716049382706,0,0,0.049382716049382706,4.93827160493827,0)" xlink:href="#aA"/><use transform="matrix(0.049382716049382706,0,0,0.049382716049382706,15.753086419753084,0)" xlink:href="#aj"/><use transform="matrix(0.049382716049382706,0,0,0.049382716049382706,21.629629629629626,0)" xlink:href="#aB"/></g><g id="h"><use transform="matrix(0.049382716049382706,0,0,0.049382716049382706,0,0)" xlink:href="#aq"/><use transform="matrix(0.049382716049382706,0,0,0.049382716049382706,9.87654320987654,0)" xlink:href="#at"/><use transform="matrix(0.049382716049382706,0,0,0.049382716049382706,14.814814814814811,0)" xlink:href="#au"/><use transform="matrix(0.049382716049382706,0,0,0.049382716049382706,19.75308641975308,0)" xlink:href="#aq"/><use transform="matrix(0.049382716049382706,0,0,0.049382716049382706,29.629629629629623,0)" xlink:href="#ap"/></g><use transform="matrix(0.049382716049382706,0,0,0.049382716049382706,0,0)" xlink:href="#az" id="i"/><path fill="#333" d="M169-182c-1-43-94-46-97-3 18 66 151 10 154 114 3 95-165 93-204 36-6-8-10-19-12-30l50-8c3 46 112 56 116 5-17-69-150-10-154-114-4-87 153-88 188-35 5 8 8 18 10 28" id="aC"/><path fill="#333" d="M135-150c-39-12-60 13-60 57V0H25l-1-190h47c2 13-1 29 3 40 6-28 27-53 61-41v41" id="aD"/><path fill="#333" d="M195-6C206 82 75 100 31 46c-4-6-6-13-8-21l49-6c3 16 16 24 34 25 40 0 42-37 40-79-11 22-30 35-61 35-53 0-70-43-70-97 0-56 18-96 73-97 30 0 46 14 59 34l2-30h47zm-90-29c32 0 41-27 41-63 0-35-9-62-40-62-32 0-39 29-40 63 0 36 9 62 39 62" id="aE"/><path fill="#333" d="M102-93c0 74-22 123-52 168H0C30 29 54-18 53-93c0-74-22-123-53-168h50c30 45 52 94 52 168" id="aF"/><g id="j"><use transform="matrix(0.049382716049382706,0,0,0.049382716049382706,0,0)" xlink:href="#aC"/><use transform="matrix(0.049382716049382706,0,0,0.049382716049382706,11.85185185185185,0)" xlink:href="#aj"/><use transform="matrix(0.049382716049382706,0,0,0.049382716049382706,17.728395061728392,0)" xlink:href="#aD"/><use transform="matrix(0.049382716049382706,0,0,0.049382716049382706,24.64197530864197,0)" xlink:href="#au"/><use transform="matrix(0.049382716049382706,0,0,0.049382716049382706,29.58024691358024,0)" xlink:href="#aA"/><use transform="matrix(0.049382716049382706,0,0,0.049382716049382706,40.39506172839505,0)" xlink:href="#aE"/><use transform="matrix(0.049382716049382706,0,0,0.049382716049382706,51.20987654320986,0)" xlink:href="#aF"/></g><path fill="#333" d="M88-194c31-1 46 15 58 34l-1-101h50l1 261h-48c-2-10 0-23-3-31C134-8 116 4 84 4 32 4 16-41 15-95c0-56 19-97 73-99zm17 164c33 0 40-30 41-66 1-37-9-64-41-64s-38 30-39 65c0 43 13 65 39 65" id="aG"/><g id="k"><use transform="matrix(0.049382716049382706,0,0,0.049382716049382706,0,0)" xlink:href="#aq"/><use transform="matrix(0.049382716049382706,0,0,0.049382716049382706,9.87654320987654,0)" xlink:href="#aG"/><use transform="matrix(0.049382716049382706,0,0,0.049382716049382706,20.691358024691354,0)" xlink:href="#aG"/><use transform="matrix(0.049382716049382706,0,0,0.049382716049382706,31.506172839506167,0)" xlink:href="#as"/><use transform="matrix(0.049382716049382706,0,0,0.049382716049382706,44.29629629629629,0)" xlink:href="#at"/><use transform="matrix(0.049382716049382706,0,0,0.049382716049382706,49.23456790123456,0)" xlink:href="#au"/><use transform="matrix(0.049382716049382706,0,0,0.049382716049382706,54.17283950617284,0)" xlink:href="#aq"/><use transform="matrix(0.049382716049382706,0,0,0.049382716049382706,64.04938271604938,0)" xlink:href="#ap"/><use transform="matrix(0.049382716049382706,0,0,0.049382716049382706,73.92592592592592,0)" xlink:href="#av"/><use transform="matrix(0.049382716049382706,0,0,0.049382716049382706,79.80246913580247,0)" xlink:href="#aw"/><use transform="matrix(0.049382716049382706,0,0,0.049382716049382706,95.60493827160494,0)" xlink:href="#aq"/><use transform="matrix(0.049382716049382706,0,0,0.049382716049382706,105.48148148148148,0)" xlink:href="#ak"/><use transform="matrix(0.049382716049382706,0,0,0.049382716049382706,116.29629629629629,0)" xlink:href="#ax"/><use transform="matrix(0.049382716049382706,0,0,0.049382716049382706,121.23456790123457,0)" xlink:href="#ay"/></g><g id="l"><use transform="matrix(0.049382716049382706,0,0,0.049382716049382706,0,0)" xlink:href="#aA"/><use transform="matrix(0.049382716049382706,0,0,0.049382716049382706,10.814814814814813,0)" xlink:href="#aq"/><use transform="matrix(0.049382716049382706,0,0,0.049382716049382706,20.691358024691354,0)" xlink:href="#aw"/><use transform="matrix(0.049382716049382706,0,0,0.049382716049382706,36.49382716049382,0)" xlink:href="#am"/></g><path d="M233-177c-1 41-23 64-60 70L243 0h-38l-65-103H63V0H30v-248c88 3 205-21 203 71zM63-129c60-2 137 13 137-47 0-61-80-42-137-45v92" id="aH"/><path d="M179-190L93 31C79 59 56 82 12 73V49c39 6 53-20 64-50L1-190h34L92-34l54-156h33" id="aI"/><g id="m"><use transform="matrix(0.05,0,0,0.05,0,0)" xlink:href="#af"/><use transform="matrix(0.05,0,0,0.05,5,0)" xlink:href="#L"/><use transform="matrix(0.05,0,0,0.05,17,0)" xlink:href="#V"/><use transform="matrix(0.05,0,0,0.05,20.95,0)" xlink:href="#W"/><use transform="matrix(0.05,0,0,0.05,24.9,0)" xlink:href="#R"/><use transform="matrix(0.05,0,0,0.05,34.9,0)" xlink:href="#X"/><use transform="matrix(0.05,0,0,0.05,43.9,0)" xlink:href="#aH"/><use transform="matrix(0.05,0,0,0.05,56.85,0)" xlink:href="#aa"/><use transform="matrix(0.05,0,0,0.05,66.85,0)" xlink:href="#S"/><use transform="matrix(0.05,0,0,0.05,76.85,0)" xlink:href="#ac"/><use transform="matrix(0.05,0,0,0.05,86.85,0)" xlink:href="#X"/><use transform="matrix(0.05,0,0,0.05,95.85,0)" xlink:href="#W"/><use transform="matrix(0.05,0,0,0.05,99.8,0)" xlink:href="#ab"/><use transform="matrix(0.05,0,0,0.05,104.80000000000001,0)" xlink:href="#ac"/><use transform="matrix(0.05,0,0,0.05,114.80000000000001,0)" xlink:href="#Q"/><use transform="matrix(0.05,0,0,0.05,120.75,0)" xlink:href="#aI"/><path d="M-.9 1.25h131.55v1.32H-.9z"/></g><path fill="#333" d="M175 0L67-191c6 58 2 128 3 191H24v-248h59L193-55c-6-58-2-129-3-193h46V0h-61" id="aJ"/><path fill="#333" d="M114-157C55-157 80-60 75 0H25v-261h50l-1 109c12-26 28-41 61-42 86-1 58 113 63 194h-50c-7-57 23-157-34-157" id="aK"/><g id="n"><use transform="matrix(0.04938271604938272,0,0,0.04938271604938272,0,0)" xlink:href="#aJ"/><use transform="matrix(0.04938271604938272,0,0,0.04938271604938272,12.790123456790125,0)" xlink:href="#aq"/><use transform="matrix(0.04938271604938272,0,0,0.04938271604938272,22.66666666666667,0)" xlink:href="#ar"/><use transform="matrix(0.04938271604938272,0,0,0.04938271604938272,32.543209876543216,0)" xlink:href="#aK"/><use transform="matrix(0.04938271604938272,0,0,0.04938271604938272,43.35802469135803,0)" xlink:href="#aD"/><use transform="matrix(0.04938271604938272,0,0,0.04938271604938272,50.271604938271615,0)" xlink:href="#au"/><use transform="matrix(0.04938271604938272,0,0,0.04938271604938272,55.209876543209894,0)" xlink:href="#ar"/><use transform="matrix(0.04938271604938272,0,0,0.04938271604938272,65.08641975308643,0)" xlink:href="#aK"/><use transform="matrix(0.04938271604938272,0,0,0.04938271604938272,75.90123456790124,0)" xlink:href="#aj"/></g><path fill="#333" d="M231 0h-52l-39-155L100 0H48L-1-190h46L77-45c9-52 24-97 36-145h53l37 145 32-145h46" id="aL"/><path fill="#333" d="M24 0v-248h52v208h133V0H24" id="aM"/><g id="o"><use transform="matrix(0.04938271604938272,0,0,0.04938271604938272,0,0)" xlink:href="#aA"/><use transform="matrix(0.04938271604938272,0,0,0.04938271604938272,10.814814814814815,0)" xlink:href="#am"/><use transform="matrix(0.04938271604938272,0,0,0.04938271604938272,20.69135802469136,0)" xlink:href="#aL"/><use transform="matrix(0.04938271604938272,0,0,0.04938271604938272,34.51851851851852,0)" xlink:href="#as"/><use transform="matrix(0.04938271604938272,0,0,0.04938271604938272,47.308641975308646,0)" xlink:href="#at"/><use transform="matrix(0.04938271604938272,0,0,0.04938271604938272,52.24691358024692,0)" xlink:href="#au"/><use transform="matrix(0.04938271604938272,0,0,0.04938271604938272,57.18518518518519,0)" xlink:href="#aq"/><use transform="matrix(0.04938271604938272,0,0,0.04938271604938272,67.06172839506173,0)" xlink:href="#ap"/><use transform="matrix(0.04938271604938272,0,0,0.04938271604938272,76.93827160493828,0)" xlink:href="#aM"/><use transform="matrix(0.04938271604938272,0,0,0.04938271604938272,87.75308641975309,0)" xlink:href="#au"/><use transform="matrix(0.04938271604938272,0,0,0.04938271604938272,92.69135802469137,0)" xlink:href="#ap"/><use transform="matrix(0.04938271604938272,0,0,0.04938271604938272,102.56790123456791,0)" xlink:href="#aj"/></g><g id="p"><use transform="matrix(0.05,0,0,0.05,0,0)" xlink:href="#af"/><use transform="matrix(0.05,0,0,0.05,5,0)" xlink:href="#L"/><use transform="matrix(0.05,0,0,0.05,17,0)" xlink:href="#V"/><use transform="matrix(0.05,0,0,0.05,20.95,0)" xlink:href="#W"/><use transform="matrix(0.05,0,0,0.05,24.9,0)" xlink:href="#R"/><use transform="matrix(0.05,0,0,0.05,34.9,0)" xlink:href="#X"/><use transform="matrix(0.05,0,0,0.05,43.9,0)" xlink:href="#Y"/><use transform="matrix(0.05,0,0,0.05,55.900000000000006,0)" xlink:href="#Z"/><use transform="matrix(0.05,0,0,0.05,65.9,0)" xlink:href="#P"/><use transform="matrix(0.05,0,0,0.05,75.9,0)" xlink:href="#P"/><use transform="matrix(0.05,0,0,0.05,85.9,0)" xlink:href="#aa"/><use transform="matrix(0.05,0,0,0.05,95.9,0)" xlink:href="#X"/><use transform="matrix(0.05,0,0,0.05,104.9,0)" xlink:href="#ab"/><use transform="matrix(0.05,0,0,0.05,109.9,0)" xlink:href="#W"/><use transform="matrix(0.05,0,0,0.05,113.85000000000001,0)" xlink:href="#ac"/><use transform="matrix(0.05,0,0,0.05,123.85000000000001,0)" xlink:href="#ad"/><use transform="matrix(0.05,0,0,0.05,133.85000000000002,0)" xlink:href="#Y"/><use transform="matrix(0.05,0,0,0.05,145.85000000000002,0)" xlink:href="#aa"/><use transform="matrix(0.05,0,0,0.05,155.85000000000002,0)" xlink:href="#Q"/><use transform="matrix(0.05,0,0,0.05,161.8,0)" xlink:href="#ag"/><use transform="matrix(0.05,0,0,0.05,170.8,0)" xlink:href="#W"/><use transform="matrix(0.05,0,0,0.05,174.75,0)" xlink:href="#ah"/><use transform="matrix(0.05,0,0,0.05,183.75,0)" xlink:href="#aa"/><path d="M-.9 1.25h195.55v1.32H-.9z"/></g><path fill="#333" d="M33-154v-36h34v36H33zM33 0v-36h34V0H33" id="aN"/><path fill="#333" d="M205 0l-28-72H64L36 0H1l101-248h38L239 0h-34zm-38-99l-47-123c-12 45-31 82-46 123h93" id="aO"/><path fill="#333" d="M24 0v-261h32V0H24" id="aP"/><path fill="#333" d="M24-231v-30h32v30H24zM24 0v-190h32V0H24" id="aQ"/><path fill="#333" d="M141-36C126-15 110 5 73 4 37 3 15-17 15-53c-1-64 63-63 125-63 3-35-9-54-41-54-24 1-41 7-42 31l-33-3c5-37 33-52 76-52 45 0 72 20 72 64v82c-1 20 7 32 28 27v20c-31 9-61-2-59-35zM48-53c0 20 12 33 32 33 41-3 63-29 60-74-43 2-92-5-92 41" id="aR"/><path fill="#333" d="M135-143c-3-34-86-38-87 0 15 53 115 12 119 90S17 21 10-45l28-5c4 36 97 45 98 0-10-56-113-15-118-90-4-57 82-63 122-42 12 7 21 19 24 35" id="aS"/><path fill="#333" d="M185-189c-5-48-123-54-124 2 14 75 158 14 163 119 3 78-121 87-175 55-17-10-28-26-33-46l33-7c5 56 141 63 141-1 0-78-155-14-162-118-5-82 145-84 179-34 5 7 8 16 11 25" id="aT"/><path fill="#333" d="M84 4C-5 8 30-112 23-190h32v120c0 31 7 50 39 49 72-2 45-101 50-169h31l1 190h-30c-1-10 1-25-2-33-11 22-28 36-60 37" id="aU"/><path fill="#333" d="M177-190C167-65 218 103 67 71c-23-6-38-20-44-43l32-5c15 47 100 32 89-28v-30C133-14 115 1 83 1 29 1 15-40 15-95c0-56 16-97 71-98 29-1 48 16 59 35 1-10 0-23 2-32h30zM94-22c36 0 50-32 50-73 0-42-14-75-50-75-39 0-46 34-46 75s6 73 46 73" id="aV"/><path fill="#333" d="M100-194c63 0 86 42 84 106H49c0 40 14 67 53 68 26 1 43-12 49-29l28 8c-11 28-37 45-77 45C44 4 14-33 15-96c1-61 26-98 85-98zm52 81c6-60-76-77-97-28-3 7-6 17-6 28h103" id="aW"/><path fill="#333" d="M59-47c-2 24 18 29 38 22v24C64 9 27 4 27-40v-127H5v-23h24l9-43h21v43h35v23H59v120" id="aX"/><path fill="#333" d="M100-194c62-1 85 37 85 99 1 63-27 99-86 99S16-35 15-95c0-66 28-99 85-99zM99-20c44 1 53-31 53-75 0-43-8-75-51-75s-53 32-53 75 10 74 51 75" id="aY"/><path fill="#333" d="M117-194c89-4 53 116 60 194h-32v-121c0-31-8-49-39-48C34-167 62-67 57 0H25l-1-190h30c1 10-1 24 2 32 11-22 29-35 61-36" id="aZ"/><path fill="#333" d="M233-177c-1 41-23 64-60 70L243 0h-38l-65-103H63V0H30v-248c88 3 205-21 203 71zM63-129c60-2 137 13 137-47 0-61-80-42-137-45v92" id="ba"/><path fill="#333" d="M115-194c55 1 70 41 70 98S169 2 115 4C84 4 66-9 55-30l1 105H24l-1-265h31l2 30c10-21 28-34 59-34zm-8 174c40 0 45-34 45-75s-6-73-45-74c-42 0-51 32-51 76 0 43 10 73 51 73" id="bb"/><path fill="#333" d="M114-163C36-179 61-72 57 0H25l-1-190h30c1 12-1 29 2 39 6-27 23-49 58-41v29" id="bc"/><path fill="#333" d="M179-190L93 31C79 59 56 82 12 73V49c39 6 53-20 64-50L1-190h34L92-34l54-156h33" id="bd"/><g id="q"><use transform="matrix(0.049382716049382706,0,0,0.049382716049382706,0,0)" xlink:href="#aN"/><use transform="matrix(0.049382716049382706,0,0,0.049382716049382706,4.93827160493827,0)" xlink:href="#aO"/><use transform="matrix(0.049382716049382706,0,0,0.049382716049382706,16.79012345679012,0)" xlink:href="#aP"/><use transform="matrix(0.049382716049382706,0,0,0.049382716049382706,20.691358024691354,0)" xlink:href="#aQ"/><use transform="matrix(0.049382716049382706,0,0,0.049382716049382706,24.592592592592588,0)" xlink:href="#aR"/><use transform="matrix(0.049382716049382706,0,0,0.049382716049382706,34.469135802469125,0)" xlink:href="#aS"/><use transform="matrix(0.049382716049382706,0,0,0.049382716049382706,43.35802469135801,0)" xlink:href="#aT"/><use transform="matrix(0.049382716049382706,0,0,0.049382716049382706,55.20987654320985,0)" xlink:href="#aU"/><use transform="matrix(0.049382716049382706,0,0,0.049382716049382706,65.0864197530864,0)" xlink:href="#aV"/><use transform="matrix(0.049382716049382706,0,0,0.049382716049382706,74.96296296296295,0)" xlink:href="#aV"/><use transform="matrix(0.049382716049382706,0,0,0.049382716049382706,84.83950617283949,0)" xlink:href="#aW"/><use transform="matrix(0.049382716049382706,0,0,0.049382716049382706,94.71604938271604,0)" xlink:href="#aS"/><use transform="matrix(0.049382716049382706,0,0,0.049382716049382706,103.60493827160492,0)" xlink:href="#aX"/><use transform="matrix(0.049382716049382706,0,0,0.049382716049382706,108.54320987654319,0)" xlink:href="#aQ"/><use transform="matrix(0.049382716049382706,0,0,0.049382716049382706,112.44444444444443,0)" xlink:href="#aY"/><use transform="matrix(0.049382716049382706,0,0,0.049382716049382706,122.32098765432096,0)" xlink:href="#aZ"/><use transform="matrix(0.049382716049382706,0,0,0.049382716049382706,132.1975308641975,0)" xlink:href="#ba"/><use transform="matrix(0.049382716049382706,0,0,0.049382716049382706,144.98765432098762,0)" xlink:href="#aW"/><use transform="matrix(0.049382716049382706,0,0,0.049382716049382706,154.86419753086415,0)" xlink:href="#bb"/><use transform="matrix(0.049382716049382706,0,0,0.049382716049382706,164.74074074074068,0)" xlink:href="#aY"/><use transform="matrix(0.049382716049382706,0,0,0.049382716049382706,174.6172839506172,0)" xlink:href="#aS"/><use transform="matrix(0.049382716049382706,0,0,0.049382716049382706,183.5061728395061,0)" xlink:href="#aQ"/><use transform="matrix(0.049382716049382706,0,0,0.049382716049382706,187.40740740740733,0)" xlink:href="#aX"/><use transform="matrix(0.049382716049382706,0,0,0.049382716049382706,192.3456790123456,0)" xlink:href="#aY"/><use transform="matrix(0.049382716049382706,0,0,0.049382716049382706,202.22222222222214,0)" xlink:href="#bc"/><use transform="matrix(0.049382716049382706,0,0,0.049382716049382706,208.09876543209867,0)" xlink:href="#bd"/><path fill="#333" d="M-.9 1.23H217.9v1.3H-.9z"/></g><path fill="#333" d="M110-194c64 0 96 36 96 99 0 64-35 99-97 99-61 0-95-36-95-99 0-62 34-99 96-99zm-1 164c35 0 45-28 45-65 0-40-10-65-43-65-34 0-45 26-45 65 0 36 10 65 43 65" id="be"/><path fill="#333" d="M128 0H69L1-190h53L99-40l48-150h52" id="bf"/><g id="r"><use transform="matrix(0.049382716049382706,0,0,0.049382716049382706,0,0)" xlink:href="#aD"/><use transform="matrix(0.049382716049382706,0,0,0.049382716049382706,6.913580246913579,0)" xlink:href="#am"/><use transform="matrix(0.049382716049382706,0,0,0.049382716049382706,16.79012345679012,0)" xlink:href="#aw"/><use transform="matrix(0.049382716049382706,0,0,0.049382716049382706,32.59259259259259,0)" xlink:href="#be"/><use transform="matrix(0.049382716049382706,0,0,0.049382716049382706,43.407407407407405,0)" xlink:href="#bf"/><use transform="matrix(0.049382716049382706,0,0,0.049382716049382706,53.28395061728395,0)" xlink:href="#am"/><use transform="matrix(0.049382716049382706,0,0,0.049382716049382706,63.160493827160494,0)" xlink:href="#as"/><use transform="matrix(0.049382716049382706,0,0,0.049382716049382706,75.95061728395062,0)" xlink:href="#at"/><use transform="matrix(0.049382716049382706,0,0,0.049382716049382706,80.88888888888889,0)" xlink:href="#au"/><use transform="matrix(0.049382716049382706,0,0,0.049382716049382706,85.82716049382715,0)" xlink:href="#aq"/><use transform="matrix(0.049382716049382706,0,0,0.049382716049382706,95.7037037037037,0)" xlink:href="#ap"/><use transform="matrix(0.049382716049382706,0,0,0.049382716049382706,105.58024691358025,0)" xlink:href="#aC"/><use transform="matrix(0.049382716049382706,0,0,0.049382716049382706,117.4320987654321,0)" xlink:href="#ao"/><use transform="matrix(0.049382716049382706,0,0,0.049382716049382706,128.2469135802469,0)" xlink:href="#aE"/><use transform="matrix(0.049382716049382706,0,0,0.049382716049382706,139.06172839506172,0)" xlink:href="#aE"/><use transform="matrix(0.049382716049382706,0,0,0.049382716049382706,149.87654320987653,0)" xlink:href="#am"/><use transform="matrix(0.049382716049382706,0,0,0.049382716049382706,159.75308641975306,0)" xlink:href="#ap"/><use transform="matrix(0.049382716049382706,0,0,0.049382716049382706,169.6296296296296,0)" xlink:href="#aj"/><use transform="matrix(0.049382716049382706,0,0,0.049382716049382706,175.50617283950612,0)" xlink:href="#au"/><use transform="matrix(0.049382716049382706,0,0,0.049382716049382706,180.4444444444444,0)" xlink:href="#be"/><use transform="matrix(0.049382716049382706,0,0,0.049382716049382706,191.2592592592592,0)" xlink:href="#aA"/><use transform="matrix(0.049382716049382706,0,0,0.049382716049382706,202.07407407407402,0)" xlink:href="#av"/><use transform="matrix(0.049382716049382706,0,0,0.049382716049382706,207.95061728395052,0)" xlink:href="#aw"/><use transform="matrix(0.049382716049382706,0,0,0.049382716049382706,223.753086419753,0)" xlink:href="#aq"/><use transform="matrix(0.049382716049382706,0,0,0.049382716049382706,233.62962962962953,0)" xlink:href="#ak"/><use transform="matrix(0.049382716049382706,0,0,0.049382716049382706,244.44444444444434,0)" xlink:href="#ax"/><use transform="matrix(0.049382716049382706,0,0,0.049382716049382706,249.38271604938262,0)" xlink:href="#ay"/></g><path fill="#333" d="M182-130c37 4 62 22 62 59C244 23 116-4 24 0v-248c84 5 203-23 205 63 0 31-19 50-47 55zM76-148c40-3 101 13 101-30 0-44-60-28-101-31v61zm0 110c48-3 116 14 116-37 0-48-69-32-116-35v72" id="bg"/><path fill="#333" d="M123 10C108 53 80 86 19 72V37c35 8 53-11 59-39L3-190h52l48 148c12-52 28-100 44-148h51" id="bh"/><g id="s"><use transform="matrix(0.04938271604938272,0,0,0.04938271604938272,0,0)" xlink:href="#aG"/><use transform="matrix(0.04938271604938272,0,0,0.04938271604938272,10.814814814814815,0)" xlink:href="#am"/><use transform="matrix(0.04938271604938272,0,0,0.04938271604938272,20.69135802469136,0)" xlink:href="#at"/><use transform="matrix(0.04938271604938272,0,0,0.04938271604938272,25.629629629629633,0)" xlink:href="#am"/><use transform="matrix(0.04938271604938272,0,0,0.04938271604938272,35.50617283950618,0)" xlink:href="#aj"/><use transform="matrix(0.04938271604938272,0,0,0.04938271604938272,41.38271604938272,0)" xlink:href="#am"/><use transform="matrix(0.04938271604938272,0,0,0.04938271604938272,51.25925925925927,0)" xlink:href="#bg"/><use transform="matrix(0.04938271604938272,0,0,0.04938271604938272,64.0493827160494,0)" xlink:href="#bh"/><use transform="matrix(0.04938271604938272,0,0,0.04938271604938272,73.92592592592594,0)" xlink:href="#ax"/><use transform="matrix(0.04938271604938272,0,0,0.04938271604938272,78.8641975308642,0)" xlink:href="#ay"/><use transform="matrix(0.04938271604938272,0,0,0.04938271604938272,91.65432098765433,0)" xlink:href="#as"/><use transform="matrix(0.04938271604938272,0,0,0.04938271604938272,104.44444444444446,0)" xlink:href="#aA"/><use transform="matrix(0.04938271604938272,0,0,0.04938271604938272,115.25925925925927,0)" xlink:href="#aG"/><use transform="matrix(0.04938271604938272,0,0,0.04938271604938272,126.07407407407409,0)" xlink:href="#aJ"/><use transform="matrix(0.04938271604938272,0,0,0.04938271604938272,138.8641975308642,0)" xlink:href="#aq"/><use transform="matrix(0.04938271604938272,0,0,0.04938271604938272,148.74074074074076,0)" xlink:href="#aw"/><use transform="matrix(0.04938271604938272,0,0,0.04938271604938272,164.54320987654324,0)" xlink:href="#am"/><use transform="matrix(0.04938271604938272,0,0,0.04938271604938272,174.4197530864198,0)" xlink:href="#av"/><use transform="matrix(0.04938271604938272,0,0,0.04938271604938272,180.29629629629633,0)" xlink:href="#aw"/><use transform="matrix(0.04938271604938272,0,0,0.04938271604938272,196.09876543209882,0)" xlink:href="#aq"/><use transform="matrix(0.04938271604938272,0,0,0.04938271604938272,205.97530864197532,0)" xlink:href="#ak"/><use transform="matrix(0.04938271604938272,0,0,0.04938271604938272,216.79012345679016,0)" xlink:href="#ax"/><use transform="matrix(0.04938271604938272,0,0,0.04938271604938272,221.7283950617284,0)" xlink:href="#ay"/></g><use transform="matrix(0.04938271604938272,0,0,0.04938271604938272,0,0)" xlink:href="#az" id="t"/><g id="u"><use transform="matrix(0.04938271604938272,0,0,0.04938271604938272,0,0)" xlink:href="#au"/><use transform="matrix(0.04938271604938272,0,0,0.04938271604938272,4.938271604938272,0)" xlink:href="#aA"/><use transform="matrix(0.04938271604938272,0,0,0.04938271604938272,15.753086419753087,0)" xlink:href="#aj"/><use transform="matrix(0.04938271604938272,0,0,0.04938271604938272,21.62962962962963,0)" xlink:href="#aB"/></g><g id="v"><use transform="matrix(0.04938271604938272,0,0,0.04938271604938272,0,0)" xlink:href="#aA"/><use transform="matrix(0.04938271604938272,0,0,0.04938271604938272,10.814814814814815,0)" xlink:href="#aq"/><use transform="matrix(0.04938271604938272,0,0,0.04938271604938272,20.69135802469136,0)" xlink:href="#aw"/><use transform="matrix(0.04938271604938272,0,0,0.04938271604938272,36.49382716049383,0)" xlink:href="#am"/></g><use transform="matrix(0.04938271604938272,0,0,0.04938271604938272,0,0)" xlink:href="#az" id="w"/><g id="x"><use transform="matrix(0.04938271604938272,0,0,0.04938271604938272,0,0)" xlink:href="#aC"/><use transform="matrix(0.04938271604938272,0,0,0.04938271604938272,11.851851851851853,0)" xlink:href="#aj"/><use transform="matrix(0.04938271604938272,0,0,0.04938271604938272,17.728395061728396,0)" xlink:href="#aD"/><use transform="matrix(0.04938271604938272,0,0,0.04938271604938272,24.641975308641975,0)" xlink:href="#au"/><use transform="matrix(0.04938271604938272,0,0,0.04938271604938272,29.58024691358025,0)" xlink:href="#aA"/><use transform="matrix(0.04938271604938272,0,0,0.04938271604938272,40.39506172839506,0)" xlink:href="#aE"/><use transform="matrix(0.04938271604938272,0,0,0.04938271604938272,51.20987654320988,0)" xlink:href="#aF"/></g><g id="y"><use transform="matrix(0.04938271604938272,0,0,0.04938271604938272,0,0)" xlink:href="#ai"/><use transform="matrix(0.04938271604938272,0,0,0.04938271604938272,12.790123456790125,0)" xlink:href="#aj"/><use transform="matrix(0.04938271604938272,0,0,0.04938271604938272,18.666666666666668,0)" xlink:href="#aj"/><use transform="matrix(0.04938271604938272,0,0,0.04938271604938272,24.543209876543212,0)" xlink:href="#ak"/><use transform="matrix(0.04938271604938272,0,0,0.04938271604938272,35.358024691358025,0)" xlink:href="#al"/><use transform="matrix(0.04938271604938272,0,0,0.04938271604938272,48.14814814814815,0)" xlink:href="#am"/><use transform="matrix(0.04938271604938272,0,0,0.04938271604938272,58.0246913580247,0)" xlink:href="#ap"/><use transform="matrix(0.04938271604938272,0,0,0.04938271604938272,67.90123456790124,0)" xlink:href="#ak"/><use transform="matrix(0.04938271604938272,0,0,0.04938271604938272,78.71604938271605,0)" xlink:href="#be"/><use transform="matrix(0.04938271604938272,0,0,0.04938271604938272,89.53086419753086,0)" xlink:href="#aA"/><use transform="matrix(0.04938271604938272,0,0,0.04938271604938272,100.34567901234567,0)" xlink:href="#ap"/><use transform="matrix(0.04938271604938272,0,0,0.04938271604938272,110.22222222222221,0)" xlink:href="#am"/></g><g id="z"><use transform="matrix(0.04938271604938272,0,0,0.04938271604938272,0,0)" xlink:href="#ap"/><use transform="matrix(0.04938271604938272,0,0,0.04938271604938272,9.876543209876544,0)" xlink:href="#ao"/><use transform="matrix(0.04938271604938272,0,0,0.04938271604938272,20.69135802469136,0)" xlink:href="#ar"/><use transform="matrix(0.04938271604938272,0,0,0.04938271604938272,30.567901234567906,0)" xlink:href="#ar"/><use transform="matrix(0.04938271604938272,0,0,0.04938271604938272,40.44444444444445,0)" xlink:href="#am"/><use transform="matrix(0.04938271604938272,0,0,0.04938271604938272,50.320987654320994,0)" xlink:href="#ap"/><use transform="matrix(0.04938271604938272,0,0,0.04938271604938272,60.19753086419754,0)" xlink:href="#ap"/></g><g id="A"><use transform="matrix(0.04938271604938272,0,0,0.04938271604938272,0,0)" xlink:href="#bg"/><use transform="matrix(0.04938271604938272,0,0,0.04938271604938272,12.790123456790125,0)" xlink:href="#be"/><use transform="matrix(0.04938271604938272,0,0,0.04938271604938272,23.60493827160494,0)" xlink:href="#be"/><use transform="matrix(0.04938271604938272,0,0,0.04938271604938272,34.41975308641975,0)" xlink:href="#at"/><use transform="matrix(0.04938271604938272,0,0,0.04938271604938272,39.358024691358025,0)" xlink:href="#am"/><use transform="matrix(0.04938271604938272,0,0,0.04938271604938272,49.23456790123457,0)" xlink:href="#aq"/><use transform="matrix(0.04938271604938272,0,0,0.04938271604938272,59.111111111111114,0)" xlink:href="#aA"/></g><path d="M30-248c118-7 216 8 213 122C240-48 200 0 122 0H30v-248zM63-27c89 8 146-16 146-99s-60-101-146-95v194" id="bi"/><path d="M85-194c31 0 48 13 60 33l-1-100h32l1 261h-30c-2-10 0-23-3-31C134-8 116 4 85 4 32 4 16-35 15-94c0-66 23-100 70-100zm9 24c-40 0-46 34-46 75 0 40 6 74 45 74 42 0 51-32 51-76 0-42-9-74-50-73" id="bj"/><g id="B"><use transform="matrix(0.05,0,0,0.05,0,0)" xlink:href="#af"/><use transform="matrix(0.05,0,0,0.05,5,0)" xlink:href="#bi"/><use transform="matrix(0.05,0,0,0.05,17.950000000000003,0)" xlink:href="#aa"/><use transform="matrix(0.05,0,0,0.05,27.950000000000003,0)" xlink:href="#V"/><use transform="matrix(0.05,0,0,0.05,31.900000000000002,0)" xlink:href="#aa"/><use transform="matrix(0.05,0,0,0.05,41.900000000000006,0)" xlink:href="#ab"/><use transform="matrix(0.05,0,0,0.05,46.900000000000006,0)" xlink:href="#aa"/><use transform="matrix(0.05,0,0,0.05,56.900000000000006,0)" xlink:href="#bj"/><use transform="matrix(0.05,0,0,0.05,66.9,0)" xlink:href="#L"/><use transform="matrix(0.05,0,0,0.05,78.9,0)" xlink:href="#V"/><use transform="matrix(0.05,0,0,0.05,82.85000000000001,0)" xlink:href="#W"/><use transform="matrix(0.05,0,0,0.05,86.80000000000001,0)" xlink:href="#R"/><use transform="matrix(0.05,0,0,0.05,96.80000000000001,0)" xlink:href="#X"/><use transform="matrix(0.05,0,0,0.05,105.80000000000001,0)" xlink:href="#Y"/><use transform="matrix(0.05,0,0,0.05,117.80000000000001,0)" xlink:href="#aa"/><use transform="matrix(0.05,0,0,0.05,127.80000000000001,0)" xlink:href="#Q"/><use transform="matrix(0.05,0,0,0.05,133.75,0)" xlink:href="#ag"/><use transform="matrix(0.05,0,0,0.05,142.75,0)" xlink:href="#W"/><use transform="matrix(0.05,0,0,0.05,146.7,0)" xlink:href="#ah"/><use transform="matrix(0.05,0,0,0.05,155.7,0)" xlink:href="#aa"/><path d="M-.9 1.25h167.5v1.32H-.9z"/></g><path d="M-5 72V49h209v23H-5" id="bk"/><g id="C"><use transform="matrix(0.05,0,0,0.05,0,0)" xlink:href="#bk"/><use transform="matrix(0.05,0,0,0.05,10,0)" xlink:href="#af"/><use transform="matrix(0.05,0,0,0.05,15,0)" xlink:href="#bi"/><use transform="matrix(0.05,0,0,0.05,27.950000000000003,0)" xlink:href="#aa"/><use transform="matrix(0.05,0,0,0.05,37.95,0)" xlink:href="#V"/><use transform="matrix(0.05,0,0,0.05,41.900000000000006,0)" xlink:href="#aa"/><use transform="matrix(0.05,0,0,0.05,51.900000000000006,0)" xlink:href="#ab"/><use transform="matrix(0.05,0,0,0.05,56.900000000000006,0)" xlink:href="#aa"/><use transform="matrix(0.05,0,0,0.05,66.9,0)" xlink:href="#bj"/><use transform="matrix(0.05,0,0,0.05,76.9,0)" xlink:href="#L"/><use transform="matrix(0.05,0,0,0.05,88.9,0)" xlink:href="#V"/><use transform="matrix(0.05,0,0,0.05,92.85000000000001,0)" xlink:href="#W"/><use transform="matrix(0.05,0,0,0.05,96.80000000000001,0)" xlink:href="#R"/><use transform="matrix(0.05,0,0,0.05,106.80000000000001,0)" xlink:href="#X"/><use transform="matrix(0.05,0,0,0.05,115.80000000000001,0)" xlink:href="#aH"/><use transform="matrix(0.05,0,0,0.05,128.75,0)" xlink:href="#aa"/><use transform="matrix(0.05,0,0,0.05,138.75,0)" xlink:href="#S"/><use transform="matrix(0.05,0,0,0.05,148.75,0)" xlink:href="#ac"/><use transform="matrix(0.05,0,0,0.05,158.75,0)" xlink:href="#X"/><use transform="matrix(0.05,0,0,0.05,167.75,0)" xlink:href="#W"/><use transform="matrix(0.05,0,0,0.05,171.7,0)" xlink:href="#ab"/><use transform="matrix(0.05,0,0,0.05,176.7,0)" xlink:href="#ac"/><use transform="matrix(0.05,0,0,0.05,186.7,0)" xlink:href="#Q"/><use transform="matrix(0.05,0,0,0.05,192.64999999999998,0)" xlink:href="#aI"/><path d="M-.9 1.25h203.45v1.32H-.9z"/></g><g id="D"><use transform="matrix(0.049382716049382706,0,0,0.049382716049382706,0,0)" xlink:href="#aD"/><use transform="matrix(0.049382716049382706,0,0,0.049382716049382706,6.913580246913579,0)" xlink:href="#am"/><use transform="matrix(0.049382716049382706,0,0,0.049382716049382706,16.79012345679012,0)" xlink:href="#aw"/><use transform="matrix(0.049382716049382706,0,0,0.049382716049382706,32.59259259259259,0)" xlink:href="#be"/><use transform="matrix(0.049382716049382706,0,0,0.049382716049382706,43.407407407407405,0)" xlink:href="#bf"/><use transform="matrix(0.049382716049382706,0,0,0.049382716049382706,53.28395061728395,0)" xlink:href="#am"/><use transform="matrix(0.049382716049382706,0,0,0.049382716049382706,63.160493827160494,0)" xlink:href="#ay"/><use transform="matrix(0.049382716049382706,0,0,0.049382716049382706,75.95061728395062,0)" xlink:href="#am"/><use transform="matrix(0.049382716049382706,0,0,0.049382716049382706,85.82716049382717,0)" xlink:href="#at"/><use transform="matrix(0.049382716049382706,0,0,0.049382716049382706,90.76543209876543,0)" xlink:href="#am"/><use transform="matrix(0.049382716049382706,0,0,0.049382716049382706,100.64197530864197,0)" xlink:href="#aj"/><use transform="matrix(0.049382716049382706,0,0,0.049382716049382706,106.51851851851852,0)" xlink:href="#am"/><use transform="matrix(0.049382716049382706,0,0,0.049382716049382706,116.39506172839506,0)" xlink:href="#aG"/><use transform="matrix(0.049382716049382706,0,0,0.049382716049382706,127.20987654320987,0)" xlink:href="#as"/><use transform="matrix(0.049382716049382706,0,0,0.049382716049382706,140,0)" xlink:href="#at"/><use transform="matrix(0.049382716049382706,0,0,0.049382716049382706,144.93827160493828,0)" xlink:href="#au"/><use transform="matrix(0.049382716049382706,0,0,0.049382716049382706,149.87654320987656,0)" xlink:href="#aq"/><use transform="matrix(0.049382716049382706,0,0,0.049382716049382706,159.7530864197531,0)" xlink:href="#ap"/><use transform="matrix(0.049382716049382706,0,0,0.049382716049382706,169.62962962962962,0)" xlink:href="#av"/><use transform="matrix(0.049382716049382706,0,0,0.049382716049382706,175.50617283950615,0)" xlink:href="#aq"/><use transform="matrix(0.049382716049382706,0,0,0.049382716049382706,185.38271604938268,0)" xlink:href="#at"/><use transform="matrix(0.049382716049382706,0,0,0.049382716049382706,190.32098765432096,0)" xlink:href="#au"/><use transform="matrix(0.049382716049382706,0,0,0.049382716049382706,195.25925925925924,0)" xlink:href="#aq"/><use transform="matrix(0.049382716049382706,0,0,0.049382716049382706,205.13580246913577,0)" xlink:href="#ap"/></g><g id="E"><use transform="matrix(0.049382716049382706,0,0,0.049382716049382706,0,0)" xlink:href="#aC"/><use transform="matrix(0.049382716049382706,0,0,0.049382716049382706,11.85185185185185,0)" xlink:href="#aj"/><use transform="matrix(0.049382716049382706,0,0,0.049382716049382706,17.728395061728392,0)" xlink:href="#aD"/><use transform="matrix(0.049382716049382706,0,0,0.049382716049382706,24.64197530864197,0)" xlink:href="#au"/><use transform="matrix(0.049382716049382706,0,0,0.049382716049382706,29.58024691358024,0)" xlink:href="#aA"/><use transform="matrix(0.049382716049382706,0,0,0.049382716049382706,40.39506172839505,0)" xlink:href="#aE"/><use transform="matrix(0.049382716049382706,0,0,0.049382716049382706,51.20987654320986,0)" xlink:href="#aB"/></g><g id="F"><use transform="matrix(0.049382716049382706,0,0,0.049382716049382706,0,0)" xlink:href="#aw"/><use transform="matrix(0.049382716049382706,0,0,0.049382716049382706,15.802469135802466,0)" xlink:href="#aq"/><use transform="matrix(0.049382716049382706,0,0,0.049382716049382706,25.679012345679006,0)" xlink:href="#ak"/><use transform="matrix(0.049382716049382706,0,0,0.049382716049382706,36.49382716049382,0)" xlink:href="#ax"/><use transform="matrix(0.049382716049382706,0,0,0.049382716049382706,41.432098765432094,0)" xlink:href="#ay"/></g><g id="G"><use transform="matrix(0.049382716049382706,0,0,0.049382716049382706,0,0)" xlink:href="#au"/><use transform="matrix(0.049382716049382706,0,0,0.049382716049382706,4.93827160493827,0)" xlink:href="#aA"/><use transform="matrix(0.049382716049382706,0,0,0.049382716049382706,15.753086419753084,0)" xlink:href="#aj"/><use transform="matrix(0.049382716049382706,0,0,0.049382716049382706,21.629629629629626,0)" xlink:href="#aF"/></g><path fill="#333" d="M230 0l2-204L168 0h-37L68-204 70 0H24v-248h70l56 185 57-185h69V0h-46" id="bl"/><g id="H"><use transform="matrix(0.04938271604938272,0,0,0.04938271604938272,0,0)" xlink:href="#aG"/><use transform="matrix(0.04938271604938272,0,0,0.04938271604938272,10.814814814814815,0)" xlink:href="#am"/><use transform="matrix(0.04938271604938272,0,0,0.04938271604938272,20.69135802469136,0)" xlink:href="#at"/><use transform="matrix(0.04938271604938272,0,0,0.04938271604938272,25.629629629629633,0)" xlink:href="#am"/><use transform="matrix(0.04938271604938272,0,0,0.04938271604938272,35.50617283950618,0)" xlink:href="#aj"/><use transform="matrix(0.04938271604938272,0,0,0.04938271604938272,41.38271604938272,0)" xlink:href="#am"/><use transform="matrix(0.04938271604938272,0,0,0.04938271604938272,51.25925925925927,0)" xlink:href="#bg"/><use transform="matrix(0.04938271604938272,0,0,0.04938271604938272,64.0493827160494,0)" xlink:href="#bh"/><use transform="matrix(0.04938271604938272,0,0,0.04938271604938272,73.92592592592594,0)" xlink:href="#aJ"/><use transform="matrix(0.04938271604938272,0,0,0.04938271604938272,86.71604938271606,0)" xlink:href="#aq"/><use transform="matrix(0.04938271604938272,0,0,0.04938271604938272,96.59259259259261,0)" xlink:href="#aw"/><use transform="matrix(0.04938271604938272,0,0,0.04938271604938272,112.39506172839508,0)" xlink:href="#am"/><use transform="matrix(0.04938271604938272,0,0,0.04938271604938272,122.27160493827162,0)" xlink:href="#as"/><use transform="matrix(0.04938271604938272,0,0,0.04938271604938272,135.06172839506175,0)" xlink:href="#aA"/><use transform="matrix(0.04938271604938272,0,0,0.04938271604938272,145.87654320987656,0)" xlink:href="#aG"/><use transform="matrix(0.04938271604938272,0,0,0.04938271604938272,156.69135802469137,0)" xlink:href="#bl"/><use transform="matrix(0.04938271604938272,0,0,0.04938271604938272,171.4567901234568,0)" xlink:href="#aq"/><use transform="matrix(0.04938271604938272,0,0,0.04938271604938272,181.33333333333337,0)" xlink:href="#ak"/><use transform="matrix(0.04938271604938272,0,0,0.04938271604938272,192.14814814814818,0)" xlink:href="#ax"/><use transform="matrix(0.04938271604938272,0,0,0.04938271604938272,197.08641975308646,0)" xlink:href="#ay"/><use transform="matrix(0.04938271604938272,0,0,0.04938271604938272,209.87654320987662,0)" xlink:href="#av"/><use transform="matrix(0.04938271604938272,0,0,0.04938271604938272,215.75308641975312,0)" xlink:href="#aq"/><use transform="matrix(0.04938271604938272,0,0,0.04938271604938272,225.6296296296297,0)" xlink:href="#at"/><use transform="matrix(0.04938271604938272,0,0,0.04938271604938272,230.56790123456796,0)" xlink:href="#au"/><use transform="matrix(0.04938271604938272,0,0,0.04938271604938272,235.50617283950623,0)" xlink:href="#aq"/><use transform="matrix(0.04938271604938272,0,0,0.04938271604938272,245.3827160493828,0)" xlink:href="#ap"/></g><g id="I"><use transform="matrix(0.04938271604938272,0,0,0.04938271604938272,0,0)" xlink:href="#aC"/><use transform="matrix(0.04938271604938272,0,0,0.04938271604938272,11.851851851851853,0)" xlink:href="#aj"/><use transform="matrix(0.04938271604938272,0,0,0.04938271604938272,17.728395061728396,0)" xlink:href="#aD"/><use transform="matrix(0.04938271604938272,0,0,0.04938271604938272,24.641975308641975,0)" xlink:href="#au"/><use transform="matrix(0.04938271604938272,0,0,0.04938271604938272,29.58024691358025,0)" xlink:href="#aA"/><use transform="matrix(0.04938271604938272,0,0,0.04938271604938272,40.39506172839506,0)" xlink:href="#aE"/><use transform="matrix(0.04938271604938272,0,0,0.04938271604938272,51.20987654320988,0)" xlink:href="#aB"/></g><g id="J"><use transform="matrix(0.04938271604938272,0,0,0.04938271604938272,0,0)" xlink:href="#aw"/><use transform="matrix(0.04938271604938272,0,0,0.04938271604938272,15.80246913580247,0)" xlink:href="#aq"/><use transform="matrix(0.04938271604938272,0,0,0.04938271604938272,25.679012345679016,0)" xlink:href="#ak"/><use transform="matrix(0.04938271604938272,0,0,0.04938271604938272,36.49382716049383,0)" xlink:href="#ax"/><use transform="matrix(0.04938271604938272,0,0,0.04938271604938272,41.4320987654321,0)" xlink:href="#ay"/></g><g id="K"><use transform="matrix(0.04938271604938272,0,0,0.04938271604938272,0,0)" xlink:href="#au"/><use transform="matrix(0.04938271604938272,0,0,0.04938271604938272,4.938271604938272,0)" xlink:href="#aA"/><use transform="matrix(0.04938271604938272,0,0,0.04938271604938272,15.753086419753087,0)" xlink:href="#aj"/><use transform="matrix(0.04938271604938272,0,0,0.04938271604938272,21.62962962962963,0)" xlink:href="#aF"/></g></defs></g></svg>