<svg xmlns="http://www.w3.org/2000/svg" xmlns:xlink="http://www.w3.org/1999/xlink" xmlns:lucid="lucid" width="2553.01" height="1100"><g transform="translate(-7809 -8940)" lucid:page-tab-id="0_0"><path d="M7227.46 8811.84h3677.74v1322.84H7227.46z" fill="#fff"/><path d="M7994.3 8966c0-3.3 2.7-6 6-6h143.77c3.32 0 6 2.7 6 6v108c0 3.3-2.68 6-6 6H8000.3c-3.3 0-6-2.7-6-6z" stroke="#5e5e5e" stroke-width="3" fill="#fff"/><use xlink:href="#a" transform="matrix(1,0,0,1,7994.306878306878,8960) translate(31.054999999999993 63.15)"/><g fill="none"><path d="M8075.1 9060.75c.43 0 .76.34.76.75v87c0 .4-.33.75-.75.75-.4 0-.74-.34-.74-.75v-87c0-.4.34-.75.75-.75z"/><path d="M8075.86 9090.5v29m0 14.5v14.5l-.22.53-.53.22-.52-.22-.22-.53V9134m0-14.5v-29m0-14.5v-14.5l.22-.53.53-.22.54.22.22.53v14.5" stroke="#5e5e5e" stroke-width="1.5"/></g><path d="M7841 9180h194.64M7841.03 9180H7840" stroke="#5e5e5e" stroke-width="2" fill="none"/><path d="M8050.9 9180l-14.26 4.64v-9.28z" stroke="#5e5e5e" stroke-width="2" fill="#5e5e5e"/><path d="M7859.47 9156c0-3.3 2.7-6 6-6h182.7c3.32 0 6 2.7 6 6v18c0 3.3-2.68 6-6 6h-182.7c-3.3 0-6-2.7-6-6z" stroke="#000" stroke-opacity="0" stroke-width="3" fill="#fff" fill-opacity="0"/><use xlink:href="#b" transform="matrix(1,0,0,1,7864.470899470899,9155) translate(39.85802469135803 15.472222222222221)"/><g fill="none"><path d="M8072.2 9710.75c.4 0 .74.34.74.75v307c0 .4-.34.75-.75.75-.42 0-.76-.34-.76-.75v-307c0-.4.34-.75.75-.75z"/><path d="M8072.94 9740.74v29.24m0 14.62v29.23m0 14.62v29.24m0 14.6v29.25m0 14.62v29.23m0 14.62v29.24m0 14.62v14.62l-.22.53-.53.22-.54-.22-.22-.53v-14.62m0-14.62v-29.24m0-14.62v-29.23m0-14.62v-29.24m0-14.6v-29.25m0-14.62v-29.23m0-14.62v-29.24m0-14.62v-14.62l.22-.53.53-.22.52.22.22.53v14.62" stroke="#5e5e5e" stroke-width="1.5"/></g><path d="M8540 8966c0-3.3 2.7-6 6-6h245.57c3.3 0 6 2.7 6 6v108c0 3.3-2.7 6-6 6H8546c-3.3 0-6-2.7-6-6z" stroke="#5e5e5e" stroke-width="3" fill="#fff"/><use xlink:href="#c" transform="matrix(1,0,0,1,8540,8960) translate(72.605 63.15)"/><path d="M8098.14 9212.78h539.64" stroke="#5e5e5e" stroke-width="2" fill="none"/><path d="M8098.17 9213.78h-1.03v-2h1.03" fill="#5e5e5e"/><path d="M8653.04 9212.78l-14.26 4.63v-9.26z" stroke="#5e5e5e" stroke-width="2" fill="#5e5e5e"/><use xlink:href="#d" transform="matrix(1,0,0,1,8261.37566137566,9187.44514161361) translate(0.0049999999999954525 14.222222222222221)"/><use xlink:href="#e" transform="matrix(1,0,0,1,8261.37566137566,9187.44514161361) translate(162.77043209876538 14.222222222222221)"/><use xlink:href="#f" transform="matrix(1,0,0,1,8261.37566137566,9187.44514161361) translate(173.5852469135802 14.222222222222221)"/><path d="M8700.28 9263.83h520.34" stroke="#5e5e5e" stroke-width="2" fill="none"/><path d="M8700.3 9264.83h-1.02v-2h1.02" fill="#5e5e5e"/><path d="M9203.25 9274l17.22-10.17-17.22-10.18" stroke="#5e5e5e" stroke-width="2" fill="none"/><use xlink:href="#d" transform="matrix(1,0,0,1,8845.522486772485,9238.498687664043) translate(0.0049999999999954525 14.222222222222221)"/><use xlink:href="#e" transform="matrix(1,0,0,1,8845.522486772485,9238.498687664043) translate(162.77043209876538 14.222222222222221)"/><use xlink:href="#f" transform="matrix(1,0,0,1,8845.522486772485,9238.498687664043) translate(173.5852469135802 14.222222222222221)"/><g fill="none"><path d="M8677.25 9620.75c.4 0 .75.34.75.75v387c0 .4-.34.75-.75.75-.42 0-.75-.34-.75-.75v-387c0-.4.33-.75.75-.75z"/><path d="M8678 9650.17v28.66m0 14.34v28.66m0 14.34v28.66m0 14.34v28.66m0 14.34v28.66m0 14.34v28.66m0 14.34v28.66m0 14.34v28.66m0 14.34v14.33l-.22.53-.53.22-.53-.22-.22-.53v-14.33m0-14.34v-28.66m0-14.34v-28.66m0-14.34v-28.66m0-14.34v-28.66m0-14.34v-28.66m0-14.34v-28.66m0-14.34v-28.66m0-14.34v-28.66m0-14.34v-14.33l.22-.53.53-.22.53.22.22.53v14.33" stroke="#5e5e5e" stroke-width="1.5"/></g><g fill="none"><path d="M8680.17 9060.75c.4 0 .75.34.75.75v137c0 .4-.34.75-.75.75-.4 0-.75-.34-.75-.75v-137c0-.4.34-.75.75-.75z"/><path d="M8680.92 9091.94v30.45m0 15.2v30.46m0 15.22v15.22l-.22.53-.53.22-.53-.22-.22-.53v-15.22m0-15.22v-30.45m0-15.2v-30.46m0-15.22v-15.22l.22-.53.53-.22.53.22.22.53v15.22" stroke="#5e5e5e" stroke-width="1.5"/></g><path d="M9125.08 8966c0-3.3 2.7-6 6-6h202.18c3.3 0 6 2.7 6 6v108c0 3.3-2.7 6-6 6h-202.18c-3.3 0-6-2.7-6-6z" stroke="#5e5e5e" stroke-width="3" fill="#fff"/><use xlink:href="#g" transform="matrix(1,0,0,1,9125.079365079364,8960) translate(55.10499999999999 63.15)"/><path d="M9222.43 9266c0-3.3 2.7-6 6-6h28c3.32 0 6 2.7 6 6v228c0 3.3-2.68 6-6 6h-28c-3.3 0-6-2.7-6-6z" stroke="#5e5e5e" stroke-width="3" fill="#fff"/><g fill="none"><path d="M9241.9 9080.75c.42 0 .75.34.75.75v177c0 .4-.33.75-.75.75-.4 0-.75-.34-.75-.75v-177c0-.4.34-.75.75-.75z"/><path d="M9242.65 9111v29.5m0 14.75v29.5m0 14.75v29.5m0 14.75v14.75l-.2.53-.55.22-.53-.22-.22-.53v-14.75m0-14.75v-29.5m0-14.75v-29.5m0-14.75V9111m0-14.75v-14.75l.22-.53.53-.22.54.22.2.53v14.75" stroke="#5e5e5e" stroke-width="1.5"/></g><g fill="none"><path d="M9241.9 9500.75c.42 0 .75.34.75.75v507c0 .4-.33.75-.75.75-.4 0-.75-.34-.75-.75v-507c0-.4.34-.75.75-.75z"/><path d="M9242.65 9532.23v30.72m0 15.37v30.73m0 15.36v30.74m0 15.36v30.73m0 15.36v30.72m0 15.36v30.73m0 15.37v30.73m0 15.36v30.73m0 15.35v30.73m0 15.37v30.72m0 15.37v15.36l-.2.53-.55.22-.53-.22-.22-.53v-15.36m0-15.37v-30.72m0-15.37v-30.73m0-15.36v-30.74m0-15.36v-30.73m0-15.36v-30.72m0-15.36v-30.73m0-15.37v-30.73m0-15.36v-30.73m0-15.35v-30.73m0-15.37v-30.72m0-15.37v-15.36l.22-.53.53-.22.54.22.2.53v15.36" stroke="#5e5e5e" stroke-width="1.5"/></g><path d="M9446.35 8966c0-3.3 2.7-6 6-6H9674c3.3 0 6 2.7 6 6v108c0 3.3-2.7 6-6 6h-221.65c-3.3 0-6-2.7-6-6z" stroke="#5e5e5e" stroke-width="3" fill="#fff"/><use xlink:href="#h" transform="matrix(1,0,0,1,9451.349206349205,8965) translate(47.92592592592594 58.90972222222222)"/><path d="M9543.7 9406c0-3.3 2.7-6 6-6h28c3.32 0 6 2.7 6 6v28c0 3.3-2.68 6-6 6h-28c-3.3 0-6-2.7-6-6z" stroke="#5e5e5e" stroke-width="3" fill="#fff"/><path d="M9264.93 9404.24h259.2" stroke="#5e5e5e" stroke-width="2" fill="none"/><path d="M9264.96 9405.24h-1.03v-2h1.03" fill="#5e5e5e"/><path d="M9539.4 9404.24l-14.28 4.63v-9.27z" stroke="#5e5e5e" stroke-width="2" fill="#5e5e5e"/><use xlink:href="#i" transform="matrix(1,0,0,1,9279.60096056371,9374.27066849181) translate(0.0049999999999954525 14.222222222222223)"/><use xlink:href="#j" transform="matrix(1,0,0,1,9279.60096056371,9374.27066849181) translate(179.4617901234568 14.222222222222223)"/><use xlink:href="#k" transform="matrix(1,0,0,1,9279.60096056371,9374.27066849181) translate(190.27660493827162 14.222222222222223)"/><g fill="none"><path d="M9564.63 9460.75c.42 0 .75.34.75.75v547c0 .4-.33.75-.75.75-.4 0-.75-.34-.75-.75v-547c0-.4.34-.75.75-.75z"/><path d="M9565.38 9491.9v30.38m0 15.2v30.38m0 15.2v30.38m0 15.2v30.4m0 15.18v30.4m0 15.2v30.37m0 15.2v30.38m0 15.2v30.38m0 15.2v30.38m0 15.2v30.4m0 15.18v30.4m0 15.2v15.18l-.2.53-.55.22-.53-.22-.22-.53v-15.2m0-15.2v-30.38m0-15.2v-30.38m0-15.2v-30.38m0-15.2v-30.4m0-15.18v-30.4m0-15.2v-30.37m0-15.2v-30.38m0-15.2v-30.38m0-15.2v-30.38m0-15.2v-30.4m0-15.18v-30.4m0-15.2v-15.18l.22-.53.53-.22.54.22.2.53v15.2" stroke="#5e5e5e" stroke-width="1.5"/></g><g fill="none"><path d="M9567.56 9080.75c.4 0 .75.34.75.75v317c0 .4-.33.75-.74.75-.42 0-.75-.34-.75-.75v-317c0-.4.34-.75.76-.75z"/><path d="M9568.3 9111.7v30.18m0 15.1v30.2m0 15.08v30.2m0 15.1v30.18m0 15.1V9323m0 15.1v30.2m0 15.08v15.1l-.2.53-.54.22-.53-.22-.22-.53v-15.1m0-15.1v-30.18m0-15.1v-30.2m0-15.08v-30.2m0-15.1v-30.18m0-15.1V9157m0-15.1v-30.2m0-15.08v-15.1l.23-.53.53-.22.53.22.2.53v15.1" stroke="#5e5e5e" stroke-width="1.5"/></g><path d="M9541.2 9425.4h-9.58m-9.58 0h-19.17m-9.6 0h-19.15m-9.6 0h-19.16m-9.58 0h-19.17m-9.57 0h-19.17m-9.58 0h-19.17m-9.58 0h-19.16m-9.6 0h-19.16m-9.58 0h-9.58" stroke="#5e5e5e" stroke-width="2" fill="none"/><path d="M9542.2 9426.4h-1.02v-2h1.02" fill="#5e5e5e"/><path d="M9267.17 9425.4l14.27-4.63v9.27z" stroke="#5e5e5e" stroke-width="2" fill="#5e5e5e"/><path d="M9219.93 9481.33h-9.84m-9.86 0h-19.7m-9.84 0H9151m-9.84 0h-19.7m-9.83 0h-19.7m-9.84 0h-19.7m-9.85 0h-19.7m-9.84 0h-19.68m-9.85 0h-19.7m-9.84 0h-19.7m-9.83 0h-19.7m-9.84 0h-19.7m-9.84 0h-19.7m-9.84 0h-19.7m-9.84 0h-19.7m-9.84 0H8767m-9.84 0h-19.7m-9.83 0h-9.85" stroke="#5e5e5e" stroke-width="2" fill="none"/><path d="M9220.93 9482.33h-1.02v-2h1.03" fill="#5e5e5e"/><path d="M8702.5 9481.33l14.28-4.63v9.27z" stroke="#5e5e5e" stroke-width="2" fill="#5e5e5e"/><use xlink:href="#l" transform="matrix(1,0,0,1,8940.352733686066,9485.332925831812) translate(0.004999999999999005 14.222222222222223)"/><path d="M8655.28 9854.63h-10.32m-10.32 0H8614m-10.3 0h-20.64m-10.32 0h-20.64m-10.3 0h-20.65m-10.32 0h-20.63m-10.32 0h-20.63m-10.32 0h-20.63m-10.32 0h-20.64m-10.3 0H8367.04m-9.67 0h-19.34m-9.67 0h-19.33m-9.67 0h-19.34m-9.67 0H8251m-9.66 0H8222m-9.67 0H8193m-9.67 0H8164m-9.68 0h-19.34m-9.67 0h-9.66" stroke="#5e5e5e" stroke-width="2" fill="none"/><path d="M8656.28 9855.63h-1.03v-2h1.03" fill="#5e5e5e"/><path d="M8100.38 9854.63l14.26-4.64v9.26z" stroke="#5e5e5e" stroke-width="2" fill="#5e5e5e"/><use xlink:href="#m" transform="matrix(1,0,0,1,8298.832451499118,9858.625700507155) translate(0.0049999999999954525 14.222222222222223)"/><use xlink:href="#j" transform="matrix(1,0,0,1,8298.832451499118,9858.625700507155) translate(75.01734567901235 14.222222222222223)"/><use xlink:href="#n" transform="matrix(1,0,0,1,8298.832451499118,9858.625700507155) translate(85.83216049382716 14.222222222222223)"/><path d="M8053.14 9928.45h-10.8m-10.83 0h-21.6m-10.83 0h-21.62m-10.82 0H7945m-10.8 0h-21.63m-10.82 0h-21.62m-10.8 0h-10.83" stroke="#5e5e5e" stroke-width="2" fill="none"/><path d="M8054.14 9929.45h-1.03v-2h1.04" fill="#5e5e5e"/><path d="M7843.24 9928.45l14.26-4.64v9.28z" stroke="#5e5e5e" stroke-width="2" fill="#5e5e5e"/><use xlink:href="#o" transform="matrix(1,0,0,1,7887.020723104057,9932.447204968945) translate(0.005000000000002558 14.222222222222223)"/><path d="M8055.64 9156c0-3.3 2.7-6 6-6h28c3.3 0 6 2.7 6 6v778c0 3.3-2.7 6-6 6h-28c-3.3 0-6-2.7-6-6zM9787.1 8966c0-3.3 2.68-6 6-6h202.17c3.3 0 6 2.7 6 6v108c0 3.3-2.7 6-6 6H9793.1c-3.32 0-6-2.7-6-6z" stroke="#5e5e5e" stroke-width="3" fill="#fff"/><use xlink:href="#p" transform="matrix(1,0,0,1,9787.089947089946,8960) translate(24.15500000000001 63.15)"/><g fill="none"><path d="M9903.92 9080.75c.4 0 .75.34.75.75v927c0 .4-.34.75-.75.75-.42 0-.75-.34-.75-.75v-927c0-.4.33-.75.75-.75z"/><path d="M9904.67 9110.93v29.43m0 14.7v29.44m0 14.7v29.44m0 14.72v29.43m0 14.7v29.43m0 14.7v29.44m0 14.72v29.4m0 14.73v29.43m0 14.7v29.44m0 14.7v29.44m0 14.72v29.43m0 14.7v29.43m0 14.7v29.44m0 14.72v29.4m0 14.73v29.43m0 14.7v29.44m0 14.7v29.44m0 14.72v29.43m0 14.7v29.43m0 14.7v29.44m0 14.72v14.7l-.22.53-.53.22-.53-.22-.23-.53v-14.7m0-14.73v-29.43m0-14.7v-29.44m0-14.7v-29.44m0-14.72v-29.43m0-14.7v-29.43m0-14.7v-29.44m0-14.72v-29.4m0-14.73v-29.43m0-14.7v-29.44m0-14.7v-29.44m0-14.72v-29.43m0-14.7v-29.43m0-14.7v-29.44m0-14.72v-29.4m0-14.73v-29.43m0-14.7v-29.44m0-14.7v-29.44m0-14.72v-29.43m0-14.7v-29.43m0-14.7v-29.44m0-14.72v-14.7l.22-.53.52-.22.53.22.22.53v14.7" stroke="#5e5e5e" stroke-width="1.5"/></g><path d="M10108.36 8966c0-3.3 2.7-6 6-6H10336c3.32 0 6 2.7 6 6v108c0 3.3-2.68 6-6 6h-221.64c-3.3 0-6-2.7-6-6z" stroke="#5e5e5e" stroke-width="3" fill="#fff"/><use xlink:href="#q" transform="matrix(1,0,0,1,10113.359788359787,8965) translate(17.358024691358054 58.90972222222222)"/><path d="M9922.5 9638.58h257.5" stroke="#5e5e5e" stroke-width="2" fill="none"/><path d="M9922.53 9639.58h-1.03v-2h1.03" fill="#5e5e5e"/><path d="M10195.26 9638.58l-14.26 4.64v-9.27z" stroke="#5e5e5e" stroke-width="2" fill="#5e5e5e"/><use xlink:href="#r" transform="matrix(1,0,0,1,10014.617283950618,9613.249343832022) translate(0.005000000000002558 14.222222222222223)"/><path d="M10197.5 9725.4h-9.54m-9.53 0h-19.08m-9.53 0h-19.08m-9.54 0h-19.07m-9.54 0h-19.08m-9.54 0h-19.07m-9.53 0h-19.07m-9.54 0h-19.07m-9.55 0h-19.07m-9.54 0H9940" stroke="#5e5e5e" stroke-width="2" fill="none"/><path d="M10198.5 9726.4h-1.03v-2h1.03" fill="#5e5e5e"/><path d="M9924.74 9725.4l14.26-4.63v9.27z" stroke="#5e5e5e" stroke-width="2" fill="#5e5e5e"/><path d="M8657.78 9206c0-3.3 2.68-6 6-6h28c3.3 0 6 2.7 6 6v668c0 3.3-2.7 6-6 6h-28c-3.32 0-6-2.7-6-6z" stroke="#5e5e5e" stroke-width="3" fill="#fff"/><g fill="none"><path d="M10221.5 9090.75c.4 0 .75.34.75.75v917c0 .4-.34.75-.75.75-.4 0-.75-.34-.75-.75v-917c0-.4.34-.75.75-.75z"/><path d="M10222.25 9122.07v30.56m0 15.3v30.55m0 15.3v30.55m0 15.3v30.55m0 15.3v30.55m0 15.3v30.55m0 15.3v30.55m0 15.3v30.55m0 15.3v30.55m0 15.3v30.55m0 15.3v30.55m0 15.3v30.55m0 15.3v30.55m0 15.3v30.55m0 15.3v30.55m0 15.3v30.55m0 15.3v30.55m0 15.3v30.55m0 15.3v30.55m0 15.3v15.27l-.22.53-.53.22-.53-.22-.22-.53v-15.28m0-15.3v-30.55m0-15.3v-30.55m0-15.3v-30.55m0-15.3v-30.55m0-15.3v-30.55m0-15.3v-30.55m0-15.3v-30.55m0-15.3v-30.55m0-15.3v-30.55m0-15.3v-30.55m0-15.3v-30.55m0-15.3v-30.55m0-15.3v-30.55m0-15.3v-30.55m0-15.3v-30.55m0-15.3v-30.55m0-15.3v-30.55m0-15.3v-30.55m0-15.3v-30.55m0-15.3v-15.27l.22-.53.53-.22.53.22.22.53v15.28" stroke="#5e5e5e" stroke-width="1.5"/></g><path d="M10200 9626c0-3.3 2.7-6 6-6h28c3.3 0 6 2.7 6 6v108c0 3.3-2.7 6-6 6h-28c-3.3 0-6-2.7-6-6zM9880 9566c0-3.3 2.7-6 6-6h28c3.3 0 6 2.7 6 6v228c0 3.3-2.7 6-6 6h-28c-3.3 0-6-2.7-6-6z" stroke="#5e5e5e" stroke-width="3" fill="#fff"/><path d="M8700.28 9579.9H9860" stroke="#5e5e5e" stroke-width="2" fill="none"/><path d="M8700.3 9580.9h-1.02v-2h1.02" fill="#5e5e5e"/><path d="M9875.26 9579.9l-14.26 4.64v-9.27z" stroke="#5e5e5e" stroke-width="2" fill="#5e5e5e"/><use xlink:href="#s" transform="matrix(1,0,0,1,9157.358024691357,9554.570281806715) translate(0.0049999999999954525 14.222222222222223)"/><use xlink:href="#j" transform="matrix(1,0,0,1,9157.358024691357,9554.570281806715) translate(195.16549382716056 14.222222222222223)"/><use xlink:href="#k" transform="matrix(1,0,0,1,9157.358024691357,9554.570281806715) translate(205.98030864197537 14.222222222222223)"/><path d="M9543.17 9286c0-3.3 2.7-6 6-6h28c3.32 0 6 2.7 6 6v28c0 3.3-2.68 6-6 6h-28c-3.3 0-6-2.7-6-6z" stroke="#5e5e5e" stroke-width="3" fill="#fff"/><path d="M9264.93 9282.05h259.36" stroke="#5e5e5e" stroke-width="2" fill="none"/><path d="M9264.96 9283.05h-1.03v-2h1.03" fill="#5e5e5e"/><path d="M9539.55 9282.05l-14.26 4.64v-9.28z" stroke="#5e5e5e" stroke-width="2" fill="#5e5e5e"/><g><use xlink:href="#t" transform="matrix(1,0,0,1,9289.090478535847,9256.720505983336) translate(0.0049999999999954525 14.222222222222223)"/><use xlink:href="#j" transform="matrix(1,0,0,1,9289.090478535847,9256.720505983336) translate(160.64697530864203 14.222222222222223)"/><use xlink:href="#k" transform="matrix(1,0,0,1,9289.090478535847,9256.720505983336) translate(171.46179012345684 14.222222222222223)"/></g><path d="M9540.67 9300h-9.56m-9.55 0h-19.13m-9.57 0h-19.13m-9.56 0h-19.13m-9.56 0h-19.13m-9.57 0h-19.13m-9.56 0h-19.13m-9.56 0h-19.14m-9.57 0h-19.14m-9.56 0h-9.56" stroke="#5e5e5e" stroke-width="2" fill="none"/><path d="M9541.67 9301h-1.02v-2h1.02" fill="#5e5e5e"/><path d="M9267.17 9300l14.27-4.64v9.28z" stroke="#5e5e5e" stroke-width="2" fill="#5e5e5e"/><g><use xlink:href="#u" transform="matrix(1,0,0,1,9353.964726631393,9304) translate(0.005000000000002558 14.222222222222223)"/><use xlink:href="#j" transform="matrix(1,0,0,1,9353.964726631393,9304) translate(44.44944444444445 14.222222222222223)"/><use xlink:href="#v" transform="matrix(1,0,0,1,9353.964726631393,9304) translate(55.26425925925927 14.222222222222223)"/></g><defs><path d="M205 0l-28-72H64L36 0H1l101-248h38L239 0h-34zm-38-99l-47-123c-12 45-31 82-46 123h93" id="w"/><path d="M30-248c87 1 191-15 191 75 0 78-77 80-158 76V0H30v-248zm33 125c57 0 124 11 124-50 0-59-68-47-124-48v98" id="x"/><path d="M33 0v-248h34V0H33" id="y"/><path d="M33 0v-38h34V0H33" id="z"/><path d="M177-190C167-65 218 103 67 71c-23-6-38-20-44-43l32-5c15 47 100 32 89-28v-30C133-14 115 1 83 1 29 1 15-40 15-95c0-56 16-97 71-98 29-1 48 16 59 35 1-10 0-23 2-32h30zM94-22c36 0 50-32 50-73 0-42-14-75-50-75-39 0-46 34-46 75s6 73 46 73" id="A"/><path d="M114-163C36-179 61-72 57 0H25l-1-190h30c1 12-1 29 2 39 6-27 23-49 58-41v29" id="B"/><path d="M141-36C126-15 110 5 73 4 37 3 15-17 15-53c-1-64 63-63 125-63 3-35-9-54-41-54-24 1-41 7-42 31l-33-3c5-37 33-52 76-52 45 0 72 20 72 64v82c-1 20 7 32 28 27v20c-31 9-61-2-59-35zM48-53c0 20 12 33 32 33 41-3 63-29 60-74-43 2-92-5-92 41" id="C"/><path d="M115-194c55 1 70 41 70 98S169 2 115 4C84 4 66-9 55-30l1 105H24l-1-265h31l2 30c10-21 28-34 59-34zm-8 174c40 0 45-34 45-75s-6-73-45-74c-42 0-51 32-51 76 0 43 10 73 51 73" id="D"/><path d="M106-169C34-169 62-67 57 0H25v-261h32l-1 103c12-21 28-36 61-36 89 0 53 116 60 194h-32v-121c2-32-8-49-39-48" id="E"/><path d="M145-31C134-9 116 4 85 4 32 4 16-35 15-94c0-59 17-99 70-100 32-1 48 14 60 33 0-11-1-24 2-32h30l-1 268h-32zM93-21c41 0 51-33 51-76s-8-73-50-73c-40 0-46 35-46 75s5 74 45 74" id="F"/><path d="M24 0v-261h32V0H24" id="G"/><g id="a"><use transform="matrix(0.05,0,0,0.05,0,0)" xlink:href="#w"/><use transform="matrix(0.05,0,0,0.05,12,0)" xlink:href="#x"/><use transform="matrix(0.05,0,0,0.05,24,0)" xlink:href="#y"/><use transform="matrix(0.05,0,0,0.05,29,0)" xlink:href="#z"/><use transform="matrix(0.05,0,0,0.05,34,0)" xlink:href="#A"/><use transform="matrix(0.05,0,0,0.05,44,0)" xlink:href="#B"/><use transform="matrix(0.05,0,0,0.05,49.95,0)" xlink:href="#C"/><use transform="matrix(0.05,0,0,0.05,59.95,0)" xlink:href="#D"/><use transform="matrix(0.05,0,0,0.05,69.95,0)" xlink:href="#E"/><use transform="matrix(0.05,0,0,0.05,79.95,0)" xlink:href="#F"/><use transform="matrix(0.05,0,0,0.05,89.95,0)" xlink:href="#G"/><path d="M-.9 1.25h95.7v1.32H-.9z"/></g><path fill="#333" d="M186 0v-106H76V0H24v-248h52v99h110v-99h50V0h-50" id="H"/><path fill="#333" d="M115-3C79 11 28 4 28-45v-112H4v-33h27l15-45h31v45h36v33H77v99c-1 23 16 31 38 25v30" id="I"/><path fill="#333" d="M135-194c53 0 70 44 70 98 0 56-19 98-73 100-31 1-45-17-59-34 3 33 2 69 2 105H25l-1-265h48c2 10 0 23 3 31 11-24 29-35 60-35zM114-30c33 0 39-31 40-66 0-38-9-64-40-64-56 0-55 130 0 130" id="J"/><path fill="#333" d="M240-174c0 40-23 61-54 70L253 0h-59l-57-94H76V0H24v-248c93 4 217-23 216 74zM76-134c48-2 112 12 112-38 0-48-66-32-112-35v73" id="K"/><path fill="#333" d="M185-48c-13 30-37 53-82 52C43 2 14-33 14-96s30-98 90-98c62 0 83 45 84 108H66c0 31 8 55 39 56 18 0 30-7 34-22zm-45-69c5-46-57-63-70-21-2 6-4 13-4 21h74" id="L"/><path fill="#333" d="M84 4C32 4 15-41 15-95c0-55 18-99 73-99 29 0 47 12 58 34l2-30h48l-1 265h-49V-32C136-9 114 4 84 4zm21-34c32 0 41-29 41-66 0-36-9-64-40-64-33 0-39 30-40 65 0 43 13 65 39 65" id="M"/><path fill="#333" d="M85 4C-2 5 27-109 22-190h50c7 57-23 150 33 157 60-5 35-97 40-157h50l1 190h-47c-2-12 1-28-3-38-12 25-28 42-61 42" id="N"/><path fill="#333" d="M137-138c1-29-70-34-71-4 15 46 118 7 119 86 1 83-164 76-172 9l43-7c4 19 20 25 44 25 33 8 57-30 24-41C81-84 22-81 20-136c-2-80 154-74 161-7" id="O"/><g id="b"><use transform="matrix(0.049382716049382706,0,0,0.049382716049382706,0,0)" xlink:href="#H"/><use transform="matrix(0.049382716049382706,0,0,0.049382716049382706,12.790123456790122,0)" xlink:href="#I"/><use transform="matrix(0.049382716049382706,0,0,0.049382716049382706,18.666666666666664,0)" xlink:href="#I"/><use transform="matrix(0.049382716049382706,0,0,0.049382716049382706,24.543209876543205,0)" xlink:href="#J"/><use transform="matrix(0.049382716049382706,0,0,0.049382716049382706,35.35802469135802,0)" xlink:href="#K"/><use transform="matrix(0.049382716049382706,0,0,0.049382716049382706,48.14814814814814,0)" xlink:href="#L"/><use transform="matrix(0.049382716049382706,0,0,0.049382716049382706,58.02469135802468,0)" xlink:href="#M"/><use transform="matrix(0.049382716049382706,0,0,0.049382716049382706,68.83950617283949,0)" xlink:href="#N"/><use transform="matrix(0.049382716049382706,0,0,0.049382716049382706,79.6543209876543,0)" xlink:href="#L"/><use transform="matrix(0.049382716049382706,0,0,0.049382716049382706,89.53086419753085,0)" xlink:href="#O"/><use transform="matrix(0.049382716049382706,0,0,0.049382716049382706,99.40740740740739,0)" xlink:href="#I"/></g><path d="M33-154v-36h34v36H33zM33 0v-36h34V0H33" id="P"/><path d="M24-231v-30h32v30H24zM24 0v-190h32V0H24" id="Q"/><path d="M135-143c-3-34-86-38-87 0 15 53 115 12 119 90S17 21 10-45l28-5c4 36 97 45 98 0-10-56-113-15-118-90-4-57 82-63 122-42 12 7 21 19 24 35" id="R"/><path d="M240 0l2-218c-23 76-54 145-80 218h-23L58-218 59 0H30v-248h44l77 211c21-75 51-140 76-211h43V0h-30" id="S"/><path d="M84 4C-5 8 30-112 23-190h32v120c0 31 7 50 39 49 72-2 45-101 50-169h31l1 190h-30c-1-10 1-25-2-33-11 22-28 36-60 37" id="T"/><path d="M59-47c-2 24 18 29 38 22v24C64 9 27 4 27-40v-127H5v-23h24l9-43h21v43h35v23H59v120" id="U"/><path d="M100-194c62-1 85 37 85 99 1 63-27 99-86 99S16-35 15-95c0-66 28-99 85-99zM99-20c44 1 53-31 53-75 0-43-8-75-51-75s-53 32-53 75 10 74 51 75" id="V"/><path d="M117-194c89-4 53 116 60 194h-32v-121c0-31-8-49-39-48C34-167 62-67 57 0H25l-1-190h30c1 10-1 24 2 32 11-22 29-35 61-36" id="W"/><g id="c"><use transform="matrix(0.05,0,0,0.05,0,0)" xlink:href="#P"/><use transform="matrix(0.05,0,0,0.05,5,0)" xlink:href="#w"/><use transform="matrix(0.05,0,0,0.05,17,0)" xlink:href="#G"/><use transform="matrix(0.05,0,0,0.05,20.95,0)" xlink:href="#Q"/><use transform="matrix(0.05,0,0,0.05,24.9,0)" xlink:href="#C"/><use transform="matrix(0.05,0,0,0.05,34.9,0)" xlink:href="#R"/><use transform="matrix(0.05,0,0,0.05,43.9,0)" xlink:href="#S"/><use transform="matrix(0.05,0,0,0.05,58.85,0)" xlink:href="#T"/><use transform="matrix(0.05,0,0,0.05,68.85,0)" xlink:href="#U"/><use transform="matrix(0.05,0,0,0.05,73.85,0)" xlink:href="#C"/><use transform="matrix(0.05,0,0,0.05,83.85,0)" xlink:href="#U"/><use transform="matrix(0.05,0,0,0.05,88.85,0)" xlink:href="#Q"/><use transform="matrix(0.05,0,0,0.05,92.8,0)" xlink:href="#V"/><use transform="matrix(0.05,0,0,0.05,102.80000000000001,0)" xlink:href="#W"/><path d="M-.9 1.25h114.6v1.32H-.9z"/></g><path fill="#333" d="M135-150c-39-12-60 13-60 57V0H25l-1-190h47c2 13-1 29 3 40 6-28 27-53 61-41v41" id="X"/><path fill="#333" d="M220-157c-53 9-28 100-34 157h-49v-107c1-27-5-49-29-50C55-147 81-57 75 0H25l-1-190h47c2 12-1 28 3 38 10-53 101-56 108 0 13-22 24-43 59-42 82 1 51 116 57 194h-49v-107c-1-25-5-48-29-50" id="Y"/><path fill="#333" d="M110-194c64 0 96 36 96 99 0 64-35 99-97 99-61 0-95-36-95-99 0-62 34-99 96-99zm-1 164c35 0 45-28 45-65 0-40-10-65-43-65-34 0-45 26-45 65 0 36 10 65 43 65" id="Z"/><path fill="#333" d="M128 0H69L1-190h53L99-40l48-150h52" id="aa"/><path fill="#333" d="M199 0l-22-63H83L61 0H9l90-248h61L250 0h-51zm-33-102l-36-108c-10 38-24 72-36 108h72" id="ab"/><path fill="#333" d="M25 0v-261h50V0H25" id="ac"/><path fill="#333" d="M25-224v-37h50v37H25zM25 0v-190h50V0H25" id="ad"/><path fill="#333" d="M133-34C117-15 103 5 69 4 32 3 11-16 11-54c-1-60 55-63 116-61 1-26-3-47-28-47-18 1-26 9-28 27l-52-2c7-38 36-58 82-57s74 22 75 68l1 82c-1 14 12 18 25 15v27c-30 8-71 5-69-32zm-48 3c29 0 43-24 42-57-32 0-66-3-65 30 0 17 8 27 23 27" id="ae"/><path fill="#333" d="M67-93c0 74 22 123 53 168H70C40 30 18-18 18-93s22-123 52-168h50c-32 44-53 94-53 168" id="af"/><path fill="#333" d="M135-194c87-1 58 113 63 194h-50c-7-57 23-157-34-157-59 0-34 97-39 157H25l-1-190h47c2 12-1 28 3 38 12-26 28-41 61-42" id="ag"/><g id="d"><use transform="matrix(0.049382716049382706,0,0,0.049382716049382706,0,0)" xlink:href="#X"/><use transform="matrix(0.049382716049382706,0,0,0.049382716049382706,6.913580246913579,0)" xlink:href="#L"/><use transform="matrix(0.049382716049382706,0,0,0.049382716049382706,16.79012345679012,0)" xlink:href="#Y"/><use transform="matrix(0.049382716049382706,0,0,0.049382716049382706,32.59259259259259,0)" xlink:href="#Z"/><use transform="matrix(0.049382716049382706,0,0,0.049382716049382706,43.407407407407405,0)" xlink:href="#aa"/><use transform="matrix(0.049382716049382706,0,0,0.049382716049382706,53.28395061728395,0)" xlink:href="#L"/><use transform="matrix(0.049382716049382706,0,0,0.049382716049382706,63.160493827160494,0)" xlink:href="#ab"/><use transform="matrix(0.049382716049382706,0,0,0.049382716049382706,75.95061728395062,0)" xlink:href="#ac"/><use transform="matrix(0.049382716049382706,0,0,0.049382716049382706,80.88888888888889,0)" xlink:href="#ad"/><use transform="matrix(0.049382716049382706,0,0,0.049382716049382706,85.82716049382715,0)" xlink:href="#ae"/><use transform="matrix(0.049382716049382706,0,0,0.049382716049382706,95.7037037037037,0)" xlink:href="#O"/><use transform="matrix(0.049382716049382706,0,0,0.049382716049382706,105.58024691358025,0)" xlink:href="#af"/><use transform="matrix(0.049382716049382706,0,0,0.049382716049382706,111.45679012345678,0)" xlink:href="#ag"/><use transform="matrix(0.049382716049382706,0,0,0.049382716049382706,122.27160493827161,0)" xlink:href="#ae"/><use transform="matrix(0.049382716049382706,0,0,0.049382716049382706,132.14814814814812,0)" xlink:href="#Y"/><use transform="matrix(0.049382716049382706,0,0,0.049382716049382706,147.95061728395058,0)" xlink:href="#L"/></g><path fill="#333" d="M35-132v-50h50v50H35zM35 0v-49h50V0H35" id="ah"/><use transform="matrix(0.049382716049382706,0,0,0.049382716049382706,0,0)" xlink:href="#ah" id="e"/><path fill="#333" d="M169-182c-1-43-94-46-97-3 18 66 151 10 154 114 3 95-165 93-204 36-6-8-10-19-12-30l50-8c3 46 112 56 116 5-17-69-150-10-154-114-4-87 153-88 188-35 5 8 8 18 10 28" id="ai"/><path fill="#333" d="M195-6C206 82 75 100 31 46c-4-6-6-13-8-21l49-6c3 16 16 24 34 25 40 0 42-37 40-79-11 22-30 35-61 35-53 0-70-43-70-97 0-56 18-96 73-97 30 0 46 14 59 34l2-30h47zm-90-29c32 0 41-27 41-63 0-35-9-62-40-62-32 0-39 29-40 63 0 36 9 62 39 62" id="aj"/><path fill="#333" d="M102-93c0 74-22 123-52 168H0C30 29 54-18 53-93c0-74-22-123-53-168h50c30 45 52 94 52 168" id="ak"/><g id="f"><use transform="matrix(0.049382716049382706,0,0,0.049382716049382706,0,0)" xlink:href="#ai"/><use transform="matrix(0.049382716049382706,0,0,0.049382716049382706,11.85185185185185,0)" xlink:href="#I"/><use transform="matrix(0.049382716049382706,0,0,0.049382716049382706,17.728395061728392,0)" xlink:href="#X"/><use transform="matrix(0.049382716049382706,0,0,0.049382716049382706,24.64197530864197,0)" xlink:href="#ad"/><use transform="matrix(0.049382716049382706,0,0,0.049382716049382706,29.58024691358024,0)" xlink:href="#ag"/><use transform="matrix(0.049382716049382706,0,0,0.049382716049382706,40.39506172839505,0)" xlink:href="#aj"/><use transform="matrix(0.049382716049382706,0,0,0.049382716049382706,51.20987654320986,0)" xlink:href="#ak"/></g><path d="M185-189c-5-48-123-54-124 2 14 75 158 14 163 119 3 78-121 87-175 55-17-10-28-26-33-46l33-7c5 56 141 63 141-1 0-78-155-14-162-118-5-82 145-84 179-34 5 7 8 16 11 25" id="al"/><path d="M100-194c63 0 86 42 84 106H49c0 40 14 67 53 68 26 1 43-12 49-29l28 8c-11 28-37 45-77 45C44 4 14-33 15-96c1-61 26-98 85-98zm52 81c6-60-76-77-97-28-3 7-6 17-6 28h103" id="am"/><path d="M108 0H70L1-190h34L89-25l56-165h34" id="an"/><path d="M96-169c-40 0-48 33-48 73s9 75 48 75c24 0 41-14 43-38l32 2c-6 37-31 61-74 61-59 0-76-41-82-99-10-93 101-131 147-64 4 7 5 14 7 22l-32 3c-4-21-16-35-41-35" id="ao"/><g id="g"><use transform="matrix(0.05,0,0,0.05,0,0)" xlink:href="#P"/><use transform="matrix(0.05,0,0,0.05,5,0)" xlink:href="#w"/><use transform="matrix(0.05,0,0,0.05,17,0)" xlink:href="#G"/><use transform="matrix(0.05,0,0,0.05,20.95,0)" xlink:href="#Q"/><use transform="matrix(0.05,0,0,0.05,24.9,0)" xlink:href="#C"/><use transform="matrix(0.05,0,0,0.05,34.9,0)" xlink:href="#R"/><use transform="matrix(0.05,0,0,0.05,43.9,0)" xlink:href="#al"/><use transform="matrix(0.05,0,0,0.05,55.900000000000006,0)" xlink:href="#am"/><use transform="matrix(0.05,0,0,0.05,65.9,0)" xlink:href="#B"/><use transform="matrix(0.05,0,0,0.05,71.85000000000001,0)" xlink:href="#an"/><use transform="matrix(0.05,0,0,0.05,80.85000000000001,0)" xlink:href="#Q"/><use transform="matrix(0.05,0,0,0.05,84.80000000000001,0)" xlink:href="#ao"/><use transform="matrix(0.05,0,0,0.05,93.80000000000001,0)" xlink:href="#am"/><path d="M-.9 1.25h105.6v1.32H-.9z"/></g><path fill="#333" d="M33-154v-36h34v36H33zM33 0v-36h34V0H33" id="ap"/><path fill="#333" d="M205 0l-28-72H64L36 0H1l101-248h38L239 0h-34zm-38-99l-47-123c-12 45-31 82-46 123h93" id="aq"/><path fill="#333" d="M24 0v-261h32V0H24" id="ar"/><path fill="#333" d="M24-231v-30h32v30H24zM24 0v-190h32V0H24" id="as"/><path fill="#333" d="M141-36C126-15 110 5 73 4 37 3 15-17 15-53c-1-64 63-63 125-63 3-35-9-54-41-54-24 1-41 7-42 31l-33-3c5-37 33-52 76-52 45 0 72 20 72 64v82c-1 20 7 32 28 27v20c-31 9-61-2-59-35zM48-53c0 20 12 33 32 33 41-3 63-29 60-74-43 2-92-5-92 41" id="at"/><path fill="#333" d="M135-143c-3-34-86-38-87 0 15 53 115 12 119 90S17 21 10-45l28-5c4 36 97 45 98 0-10-56-113-15-118-90-4-57 82-63 122-42 12 7 21 19 24 35" id="au"/><path fill="#333" d="M233-177c-1 41-23 64-60 70L243 0h-38l-65-103H63V0H30v-248c88 3 205-21 203 71zM63-129c60-2 137 13 137-47 0-61-80-42-137-45v92" id="av"/><path fill="#333" d="M100-194c63 0 86 42 84 106H49c0 40 14 67 53 68 26 1 43-12 49-29l28 8c-11 28-37 45-77 45C44 4 14-33 15-96c1-61 26-98 85-98zm52 81c6-60-76-77-97-28-3 7-6 17-6 28h103" id="aw"/><path fill="#333" d="M115-194c55 1 70 41 70 98S169 2 115 4C84 4 66-9 55-30l1 105H24l-1-265h31l2 30c10-21 28-34 59-34zm-8 174c40 0 45-34 45-75s-6-73-45-74c-42 0-51 32-51 76 0 43 10 73 51 73" id="ax"/><path fill="#333" d="M100-194c62-1 85 37 85 99 1 63-27 99-86 99S16-35 15-95c0-66 28-99 85-99zM99-20c44 1 53-31 53-75 0-43-8-75-51-75s-53 32-53 75 10 74 51 75" id="ay"/><path fill="#333" d="M59-47c-2 24 18 29 38 22v24C64 9 27 4 27-40v-127H5v-23h24l9-43h21v43h35v23H59v120" id="az"/><path fill="#333" d="M114-163C36-179 61-72 57 0H25l-1-190h30c1 12-1 29 2 39 6-27 23-49 58-41v29" id="aA"/><path fill="#333" d="M179-190L93 31C79 59 56 82 12 73V49c39 6 53-20 64-50L1-190h34L92-34l54-156h33" id="aB"/><g id="h"><use transform="matrix(0.049382716049382706,0,0,0.049382716049382706,0,0)" xlink:href="#ap"/><use transform="matrix(0.049382716049382706,0,0,0.049382716049382706,4.93827160493827,0)" xlink:href="#aq"/><use transform="matrix(0.049382716049382706,0,0,0.049382716049382706,16.79012345679012,0)" xlink:href="#ar"/><use transform="matrix(0.049382716049382706,0,0,0.049382716049382706,20.691358024691354,0)" xlink:href="#as"/><use transform="matrix(0.049382716049382706,0,0,0.049382716049382706,24.592592592592588,0)" xlink:href="#at"/><use transform="matrix(0.049382716049382706,0,0,0.049382716049382706,34.469135802469125,0)" xlink:href="#au"/><use transform="matrix(0.049382716049382706,0,0,0.049382716049382706,43.35802469135801,0)" xlink:href="#av"/><use transform="matrix(0.049382716049382706,0,0,0.049382716049382706,56.148148148148124,0)" xlink:href="#aw"/><use transform="matrix(0.049382716049382706,0,0,0.049382716049382706,66.02469135802467,0)" xlink:href="#ax"/><use transform="matrix(0.049382716049382706,0,0,0.049382716049382706,75.90123456790121,0)" xlink:href="#ay"/><use transform="matrix(0.049382716049382706,0,0,0.049382716049382706,85.77777777777776,0)" xlink:href="#au"/><use transform="matrix(0.049382716049382706,0,0,0.049382716049382706,94.66666666666664,0)" xlink:href="#as"/><use transform="matrix(0.049382716049382706,0,0,0.049382716049382706,98.56790123456787,0)" xlink:href="#az"/><use transform="matrix(0.049382716049382706,0,0,0.049382716049382706,103.50617283950614,0)" xlink:href="#ay"/><use transform="matrix(0.049382716049382706,0,0,0.049382716049382706,113.38271604938267,0)" xlink:href="#aA"/><use transform="matrix(0.049382716049382706,0,0,0.049382716049382706,119.25925925925921,0)" xlink:href="#aB"/><path fill="#333" d="M-.9 1.23h129.94v1.3H-.9z"/></g><path fill="#333" d="M88-194c31-1 46 15 58 34l-1-101h50l1 261h-48c-2-10 0-23-3-31C134-8 116 4 84 4 32 4 16-41 15-95c0-56 19-97 73-99zm17 164c33 0 40-30 41-66 1-37-9-64-41-64s-38 30-39 65c0 43 13 65 39 65" id="aC"/><path fill="#333" d="M182-130c37 4 62 22 62 59C244 23 116-4 24 0v-248c84 5 203-23 205 63 0 31-19 50-47 55zM76-148c40-3 101 13 101-30 0-44-60-28-101-31v61zm0 110c48-3 116 14 116-37 0-48-69-32-116-35v72" id="aD"/><path fill="#333" d="M123 10C108 53 80 86 19 72V37c35 8 53-11 59-39L3-190h52l48 148c12-52 28-100 44-148h51" id="aE"/><path fill="#333" d="M175 0L67-191c6 58 2 128 3 191H24v-248h59L193-55c-6-58-2-129-3-193h46V0h-61" id="aF"/><g id="i"><use transform="matrix(0.04938271604938272,0,0,0.04938271604938272,0,0)" xlink:href="#aC"/><use transform="matrix(0.04938271604938272,0,0,0.04938271604938272,10.814814814814815,0)" xlink:href="#L"/><use transform="matrix(0.04938271604938272,0,0,0.04938271604938272,20.69135802469136,0)" xlink:href="#ac"/><use transform="matrix(0.04938271604938272,0,0,0.04938271604938272,25.629629629629633,0)" xlink:href="#L"/><use transform="matrix(0.04938271604938272,0,0,0.04938271604938272,35.50617283950618,0)" xlink:href="#I"/><use transform="matrix(0.04938271604938272,0,0,0.04938271604938272,41.38271604938272,0)" xlink:href="#L"/><use transform="matrix(0.04938271604938272,0,0,0.04938271604938272,51.25925925925927,0)" xlink:href="#aD"/><use transform="matrix(0.04938271604938272,0,0,0.04938271604938272,64.0493827160494,0)" xlink:href="#aE"/><use transform="matrix(0.04938271604938272,0,0,0.04938271604938272,73.92592592592594,0)" xlink:href="#aF"/><use transform="matrix(0.04938271604938272,0,0,0.04938271604938272,86.71604938271606,0)" xlink:href="#ae"/><use transform="matrix(0.04938271604938272,0,0,0.04938271604938272,96.59259259259261,0)" xlink:href="#Y"/><use transform="matrix(0.04938271604938272,0,0,0.04938271604938272,112.39506172839508,0)" xlink:href="#L"/><use transform="matrix(0.04938271604938272,0,0,0.04938271604938272,122.27160493827162,0)" xlink:href="#af"/><use transform="matrix(0.04938271604938272,0,0,0.04938271604938272,128.14814814814815,0)" xlink:href="#ag"/><use transform="matrix(0.04938271604938272,0,0,0.04938271604938272,138.96296296296296,0)" xlink:href="#ae"/><use transform="matrix(0.04938271604938272,0,0,0.04938271604938272,148.8395061728395,0)" xlink:href="#Y"/><use transform="matrix(0.04938271604938272,0,0,0.04938271604938272,164.64197530864197,0)" xlink:href="#L"/></g><use transform="matrix(0.04938271604938272,0,0,0.04938271604938272,0,0)" xlink:href="#ah" id="j"/><g id="k"><use transform="matrix(0.04938271604938272,0,0,0.04938271604938272,0,0)" xlink:href="#ai"/><use transform="matrix(0.04938271604938272,0,0,0.04938271604938272,11.851851851851853,0)" xlink:href="#I"/><use transform="matrix(0.04938271604938272,0,0,0.04938271604938272,17.728395061728396,0)" xlink:href="#X"/><use transform="matrix(0.04938271604938272,0,0,0.04938271604938272,24.641975308641975,0)" xlink:href="#ad"/><use transform="matrix(0.04938271604938272,0,0,0.04938271604938272,29.58024691358025,0)" xlink:href="#ag"/><use transform="matrix(0.04938271604938272,0,0,0.04938271604938272,40.39506172839506,0)" xlink:href="#aj"/><use transform="matrix(0.04938271604938272,0,0,0.04938271604938272,51.20987654320988,0)" xlink:href="#ak"/></g><g id="l"><use transform="matrix(0.04938271604938272,0,0,0.04938271604938272,0,0)" xlink:href="#ae"/><use transform="matrix(0.04938271604938272,0,0,0.04938271604938272,9.876543209876544,0)" xlink:href="#ac"/><use transform="matrix(0.04938271604938272,0,0,0.04938271604938272,14.814814814814817,0)" xlink:href="#ad"/><use transform="matrix(0.04938271604938272,0,0,0.04938271604938272,19.75308641975309,0)" xlink:href="#ae"/><use transform="matrix(0.04938271604938272,0,0,0.04938271604938272,29.629629629629633,0)" xlink:href="#O"/></g><path fill="#333" d="M190-63c-7 42-38 67-86 67-59 0-84-38-90-98-12-110 154-137 174-36l-49 2c-2-19-15-32-35-32-30 0-35 28-38 64-6 74 65 87 74 30" id="aG"/><g id="m"><use transform="matrix(0.04938271604938272,0,0,0.04938271604938272,0,0)" xlink:href="#O"/><use transform="matrix(0.04938271604938272,0,0,0.04938271604938272,9.876543209876544,0)" xlink:href="#N"/><use transform="matrix(0.04938271604938272,0,0,0.04938271604938272,20.69135802469136,0)" xlink:href="#aG"/><use transform="matrix(0.04938271604938272,0,0,0.04938271604938272,30.567901234567906,0)" xlink:href="#aG"/><use transform="matrix(0.04938271604938272,0,0,0.04938271604938272,40.44444444444445,0)" xlink:href="#L"/><use transform="matrix(0.04938271604938272,0,0,0.04938271604938272,50.320987654320994,0)" xlink:href="#O"/><use transform="matrix(0.04938271604938272,0,0,0.04938271604938272,60.19753086419754,0)" xlink:href="#O"/></g><g id="n"><use transform="matrix(0.04938271604938272,0,0,0.04938271604938272,0,0)" xlink:href="#aD"/><use transform="matrix(0.04938271604938272,0,0,0.04938271604938272,12.790123456790125,0)" xlink:href="#Z"/><use transform="matrix(0.04938271604938272,0,0,0.04938271604938272,23.60493827160494,0)" xlink:href="#Z"/><use transform="matrix(0.04938271604938272,0,0,0.04938271604938272,34.41975308641975,0)" xlink:href="#ac"/><use transform="matrix(0.04938271604938272,0,0,0.04938271604938272,39.358024691358025,0)" xlink:href="#L"/><use transform="matrix(0.04938271604938272,0,0,0.04938271604938272,49.23456790123457,0)" xlink:href="#ae"/><use transform="matrix(0.04938271604938272,0,0,0.04938271604938272,59.111111111111114,0)" xlink:href="#ag"/></g><g id="o"><use transform="matrix(0.04938271604938272,0,0,0.04938271604938272,0,0)" xlink:href="#H"/><use transform="matrix(0.04938271604938272,0,0,0.04938271604938272,12.790123456790125,0)" xlink:href="#I"/><use transform="matrix(0.04938271604938272,0,0,0.04938271604938272,18.666666666666668,0)" xlink:href="#I"/><use transform="matrix(0.04938271604938272,0,0,0.04938271604938272,24.543209876543212,0)" xlink:href="#J"/><use transform="matrix(0.04938271604938272,0,0,0.04938271604938272,35.358024691358025,0)" xlink:href="#K"/><use transform="matrix(0.04938271604938272,0,0,0.04938271604938272,48.14814814814815,0)" xlink:href="#L"/><use transform="matrix(0.04938271604938272,0,0,0.04938271604938272,58.0246913580247,0)" xlink:href="#O"/><use transform="matrix(0.04938271604938272,0,0,0.04938271604938272,67.90123456790124,0)" xlink:href="#J"/><use transform="matrix(0.04938271604938272,0,0,0.04938271604938272,78.71604938271605,0)" xlink:href="#Z"/><use transform="matrix(0.04938271604938272,0,0,0.04938271604938272,89.53086419753086,0)" xlink:href="#ag"/><use transform="matrix(0.04938271604938272,0,0,0.04938271604938272,100.34567901234567,0)" xlink:href="#O"/><use transform="matrix(0.04938271604938272,0,0,0.04938271604938272,110.22222222222221,0)" xlink:href="#L"/></g><path d="M30-248c118-7 216 8 213 122C240-48 200 0 122 0H30v-248zM63-27c89 8 146-16 146-99s-60-101-146-95v194" id="aH"/><path d="M85-194c31 0 48 13 60 33l-1-100h32l1 261h-30c-2-10 0-23-3-31C134-8 116 4 85 4 32 4 16-35 15-94c0-66 23-100 70-100zm9 24c-40 0-46 34-46 75 0 40 6 74 45 74 42 0 51-32 51-76 0-42-9-74-50-73" id="aI"/><g id="p"><use transform="matrix(0.05,0,0,0.05,0,0)" xlink:href="#P"/><use transform="matrix(0.05,0,0,0.05,5,0)" xlink:href="#aH"/><use transform="matrix(0.05,0,0,0.05,17.950000000000003,0)" xlink:href="#am"/><use transform="matrix(0.05,0,0,0.05,27.950000000000003,0)" xlink:href="#G"/><use transform="matrix(0.05,0,0,0.05,31.900000000000002,0)" xlink:href="#am"/><use transform="matrix(0.05,0,0,0.05,41.900000000000006,0)" xlink:href="#U"/><use transform="matrix(0.05,0,0,0.05,46.900000000000006,0)" xlink:href="#am"/><use transform="matrix(0.05,0,0,0.05,56.900000000000006,0)" xlink:href="#aI"/><use transform="matrix(0.05,0,0,0.05,66.9,0)" xlink:href="#w"/><use transform="matrix(0.05,0,0,0.05,78.9,0)" xlink:href="#G"/><use transform="matrix(0.05,0,0,0.05,82.85000000000001,0)" xlink:href="#Q"/><use transform="matrix(0.05,0,0,0.05,86.80000000000001,0)" xlink:href="#C"/><use transform="matrix(0.05,0,0,0.05,96.80000000000001,0)" xlink:href="#R"/><use transform="matrix(0.05,0,0,0.05,105.80000000000001,0)" xlink:href="#al"/><use transform="matrix(0.05,0,0,0.05,117.80000000000001,0)" xlink:href="#am"/><use transform="matrix(0.05,0,0,0.05,127.80000000000001,0)" xlink:href="#B"/><use transform="matrix(0.05,0,0,0.05,133.75,0)" xlink:href="#an"/><use transform="matrix(0.05,0,0,0.05,142.75,0)" xlink:href="#Q"/><use transform="matrix(0.05,0,0,0.05,146.7,0)" xlink:href="#ao"/><use transform="matrix(0.05,0,0,0.05,155.7,0)" xlink:href="#am"/><path d="M-.9 1.25h167.5v1.32H-.9z"/></g><path fill="#333" d="M30-248c118-7 216 8 213 122C240-48 200 0 122 0H30v-248zM63-27c89 8 146-16 146-99s-60-101-146-95v194" id="aJ"/><path fill="#333" d="M85-194c31 0 48 13 60 33l-1-100h32l1 261h-30c-2-10 0-23-3-31C134-8 116 4 85 4 32 4 16-35 15-94c0-66 23-100 70-100zm9 24c-40 0-46 34-46 75 0 40 6 74 45 74 42 0 51-32 51-76 0-42-9-74-50-73" id="aK"/><g id="q"><use transform="matrix(0.049382716049382706,0,0,0.049382716049382706,0,0)" xlink:href="#ap"/><use transform="matrix(0.049382716049382706,0,0,0.049382716049382706,4.93827160493827,0)" xlink:href="#aJ"/><use transform="matrix(0.049382716049382706,0,0,0.049382716049382706,17.728395061728392,0)" xlink:href="#aw"/><use transform="matrix(0.049382716049382706,0,0,0.049382716049382706,27.604938271604933,0)" xlink:href="#ar"/><use transform="matrix(0.049382716049382706,0,0,0.049382716049382706,31.506172839506167,0)" xlink:href="#aw"/><use transform="matrix(0.049382716049382706,0,0,0.049382716049382706,41.38271604938271,0)" xlink:href="#az"/><use transform="matrix(0.049382716049382706,0,0,0.049382716049382706,46.32098765432098,0)" xlink:href="#aw"/><use transform="matrix(0.049382716049382706,0,0,0.049382716049382706,56.19753086419752,0)" xlink:href="#aK"/><use transform="matrix(0.049382716049382706,0,0,0.049382716049382706,66.07407407407406,0)" xlink:href="#aq"/><use transform="matrix(0.049382716049382706,0,0,0.049382716049382706,77.92592592592591,0)" xlink:href="#ar"/><use transform="matrix(0.049382716049382706,0,0,0.049382716049382706,81.82716049382714,0)" xlink:href="#as"/><use transform="matrix(0.049382716049382706,0,0,0.049382716049382706,85.72839506172836,0)" xlink:href="#at"/><use transform="matrix(0.049382716049382706,0,0,0.049382716049382706,95.60493827160491,0)" xlink:href="#au"/><use transform="matrix(0.049382716049382706,0,0,0.049382716049382706,104.49382716049378,0)" xlink:href="#av"/><use transform="matrix(0.049382716049382706,0,0,0.049382716049382706,117.28395061728392,0)" xlink:href="#aw"/><use transform="matrix(0.049382716049382706,0,0,0.049382716049382706,127.16049382716047,0)" xlink:href="#ax"/><use transform="matrix(0.049382716049382706,0,0,0.049382716049382706,137.037037037037,0)" xlink:href="#ay"/><use transform="matrix(0.049382716049382706,0,0,0.049382716049382706,146.91358024691354,0)" xlink:href="#au"/><use transform="matrix(0.049382716049382706,0,0,0.049382716049382706,155.80246913580243,0)" xlink:href="#as"/><use transform="matrix(0.049382716049382706,0,0,0.049382716049382706,159.70370370370367,0)" xlink:href="#az"/><use transform="matrix(0.049382716049382706,0,0,0.049382716049382706,164.64197530864195,0)" xlink:href="#ay"/><use transform="matrix(0.049382716049382706,0,0,0.049382716049382706,174.51851851851848,0)" xlink:href="#aA"/><use transform="matrix(0.049382716049382706,0,0,0.049382716049382706,180.395061728395,0)" xlink:href="#aB"/><path fill="#333" d="M-.9 1.23h191.07v1.3H-.9z"/></g><g id="r"><use transform="matrix(0.04938271604938272,0,0,0.04938271604938272,0,0)" xlink:href="#O"/><use transform="matrix(0.04938271604938272,0,0,0.04938271604938272,9.876543209876544,0)" xlink:href="#ae"/><use transform="matrix(0.04938271604938272,0,0,0.04938271604938272,19.75308641975309,0)" xlink:href="#aa"/><use transform="matrix(0.04938271604938272,0,0,0.04938271604938272,29.629629629629633,0)" xlink:href="#L"/><use transform="matrix(0.04938271604938272,0,0,0.04938271604938272,39.50617283950618,0)" xlink:href="#af"/><use transform="matrix(0.04938271604938272,0,0,0.04938271604938272,45.38271604938272,0)" xlink:href="#ae"/><use transform="matrix(0.04938271604938272,0,0,0.04938271604938272,55.25925925925927,0)" xlink:href="#ac"/><use transform="matrix(0.04938271604938272,0,0,0.04938271604938272,60.19753086419754,0)" xlink:href="#ad"/><use transform="matrix(0.04938271604938272,0,0,0.04938271604938272,65.13580246913581,0)" xlink:href="#ae"/><use transform="matrix(0.04938271604938272,0,0,0.04938271604938272,75.01234567901236,0)" xlink:href="#O"/><use transform="matrix(0.04938271604938272,0,0,0.04938271604938272,84.8888888888889,0)" xlink:href="#ak"/></g><path fill="#333" d="M24-248c120-7 223 5 221 122C244-46 201 0 124 0H24v-248zM76-40c74 7 117-18 117-86 0-67-45-88-117-82v168" id="aL"/><g id="s"><use transform="matrix(0.04938271604938272,0,0,0.04938271604938272,0,0)" xlink:href="#ae"/><use transform="matrix(0.04938271604938272,0,0,0.04938271604938272,9.876543209876544,0)" xlink:href="#aC"/><use transform="matrix(0.04938271604938272,0,0,0.04938271604938272,20.69135802469136,0)" xlink:href="#aC"/><use transform="matrix(0.04938271604938272,0,0,0.04938271604938272,31.506172839506174,0)" xlink:href="#aL"/><use transform="matrix(0.04938271604938272,0,0,0.04938271604938272,44.296296296296305,0)" xlink:href="#L"/><use transform="matrix(0.04938271604938272,0,0,0.04938271604938272,54.17283950617284,0)" xlink:href="#ac"/><use transform="matrix(0.04938271604938272,0,0,0.04938271604938272,59.111111111111114,0)" xlink:href="#L"/><use transform="matrix(0.04938271604938272,0,0,0.04938271604938272,68.98765432098767,0)" xlink:href="#I"/><use transform="matrix(0.04938271604938272,0,0,0.04938271604938272,74.86419753086422,0)" xlink:href="#L"/><use transform="matrix(0.04938271604938272,0,0,0.04938271604938272,84.74074074074076,0)" xlink:href="#aC"/><use transform="matrix(0.04938271604938272,0,0,0.04938271604938272,95.55555555555557,0)" xlink:href="#ab"/><use transform="matrix(0.04938271604938272,0,0,0.04938271604938272,108.34567901234568,0)" xlink:href="#ac"/><use transform="matrix(0.04938271604938272,0,0,0.04938271604938272,113.28395061728398,0)" xlink:href="#ad"/><use transform="matrix(0.04938271604938272,0,0,0.04938271604938272,118.22222222222226,0)" xlink:href="#ae"/><use transform="matrix(0.04938271604938272,0,0,0.04938271604938272,128.0987654320988,0)" xlink:href="#O"/><use transform="matrix(0.04938271604938272,0,0,0.04938271604938272,137.97530864197535,0)" xlink:href="#af"/><use transform="matrix(0.04938271604938272,0,0,0.04938271604938272,143.85185185185188,0)" xlink:href="#ag"/><use transform="matrix(0.04938271604938272,0,0,0.04938271604938272,154.66666666666669,0)" xlink:href="#ae"/><use transform="matrix(0.04938271604938272,0,0,0.04938271604938272,164.54320987654324,0)" xlink:href="#Y"/><use transform="matrix(0.04938271604938272,0,0,0.04938271604938272,180.34567901234573,0)" xlink:href="#L"/></g><path fill="#333" d="M121-226c-27-7-43 5-38 36h38v33H83V0H34v-157H6v-33h28c-9-59 32-81 87-68v32" id="aM"/><g id="t"><use transform="matrix(0.04938271604938272,0,0,0.04938271604938272,0,0)" xlink:href="#aM"/><use transform="matrix(0.04938271604938272,0,0,0.04938271604938272,5.8765432098765435,0)" xlink:href="#ad"/><use transform="matrix(0.04938271604938272,0,0,0.04938271604938272,10.814814814814817,0)" xlink:href="#ag"/><use transform="matrix(0.04938271604938272,0,0,0.04938271604938272,21.629629629629633,0)" xlink:href="#aC"/><use transform="matrix(0.04938271604938272,0,0,0.04938271604938272,32.44444444444445,0)" xlink:href="#aD"/><use transform="matrix(0.04938271604938272,0,0,0.04938271604938272,45.23456790123458,0)" xlink:href="#aE"/><use transform="matrix(0.04938271604938272,0,0,0.04938271604938272,55.111111111111114,0)" xlink:href="#aF"/><use transform="matrix(0.04938271604938272,0,0,0.04938271604938272,67.90123456790124,0)" xlink:href="#ae"/><use transform="matrix(0.04938271604938272,0,0,0.04938271604938272,77.77777777777779,0)" xlink:href="#Y"/><use transform="matrix(0.04938271604938272,0,0,0.04938271604938272,93.58024691358025,0)" xlink:href="#L"/><use transform="matrix(0.04938271604938272,0,0,0.04938271604938272,103.4567901234568,0)" xlink:href="#af"/><use transform="matrix(0.04938271604938272,0,0,0.04938271604938272,109.33333333333334,0)" xlink:href="#ag"/><use transform="matrix(0.04938271604938272,0,0,0.04938271604938272,120.14814814814815,0)" xlink:href="#ae"/><use transform="matrix(0.04938271604938272,0,0,0.04938271604938272,130.0246913580247,0)" xlink:href="#Y"/><use transform="matrix(0.04938271604938272,0,0,0.04938271604938272,145.8271604938272,0)" xlink:href="#L"/></g><g id="u"><use transform="matrix(0.04938271604938272,0,0,0.04938271604938272,0,0)" xlink:href="#ae"/><use transform="matrix(0.04938271604938272,0,0,0.04938271604938272,9.876543209876544,0)" xlink:href="#ac"/><use transform="matrix(0.04938271604938272,0,0,0.04938271604938272,14.814814814814817,0)" xlink:href="#ad"/><use transform="matrix(0.04938271604938272,0,0,0.04938271604938272,19.75308641975309,0)" xlink:href="#ae"/><use transform="matrix(0.04938271604938272,0,0,0.04938271604938272,29.629629629629633,0)" xlink:href="#O"/></g><g id="v"><use transform="matrix(0.04938271604938272,0,0,0.04938271604938272,0,0)" xlink:href="#ab"/><use transform="matrix(0.04938271604938272,0,0,0.04938271604938272,12.790123456790125,0)" xlink:href="#ac"/><use transform="matrix(0.04938271604938272,0,0,0.04938271604938272,17.7283950617284,0)" xlink:href="#ad"/><use transform="matrix(0.04938271604938272,0,0,0.04938271604938272,22.66666666666667,0)" xlink:href="#ae"/><use transform="matrix(0.04938271604938272,0,0,0.04938271604938272,32.543209876543216,0)" xlink:href="#O"/></g></defs></g></svg>