<svg xmlns="http://www.w3.org/2000/svg" xmlns:xlink="http://www.w3.org/1999/xlink" xmlns:lucid="lucid" width="2791" height="1560"><g transform="translate(1271 1220)" lucid:page-tab-id="0_0"><path d="M-1806.87-1258.83h3677.74v2581.66h-3677.74z" fill="#fff"/><path d="M-920-714c0-3.3 2.7-6 6-6h88c3.3 0 6 2.7 6 6v8c0 3.3-1.9 7.9-4.24 10.24l-1.52 1.52C-828.1-691.9-832.7-690-836-690h-78c-3.3 0-6-2.7-6-6z" fill="#fff"/><path d="M-820-720v20l-10 10h-90" stroke="#5e5e5e" stroke-width="3" fill="none"/><path d="M-920-714c0-3.3 2.7-6 6-6h2408c3.3 0 6 2.7 6 6V94c0 3.3-2.7 6-6 6H-914c-3.3 0-6-2.7-6-6z" stroke="#5e5e5e" stroke-width="3" fill="none"/><use xlink:href="#a" transform="matrix(1,0,0,1,-912,-720) translate(25.567901234567902 19.444444444444443)"/><use xlink:href="#b" transform="matrix(1,0,0,1,-908,-682) translate(13.703703703703702 19.444444444444443)"/><path d="M-1060-1194c0-3.3 2.7-6 6-6h148c3.3 0 6 2.7 6 6v108c0 3.3-2.7 6-6 6h-148c-3.3 0-6-2.7-6-6z" stroke="#5e5e5e" stroke-width="3" fill="#fff"/><use xlink:href="#c" transform="matrix(1,0,0,1,-1060,-1200) translate(33.05499999999999 63.15)"/><path d="M-800-1194c0-3.3 2.7-6 6-6h148c3.3 0 6 2.7 6 6v108c0 3.3-2.7 6-6 6h-148c-3.3 0-6-2.7-6-6z" stroke="#5e5e5e" stroke-width="3" fill="#fff"/><use xlink:href="#d" transform="matrix(1,0,0,1,-800,-1200) translate(26.104999999999997 63.15)"/><path d="M-500-1194c0-3.3 2.7-6 6-6h148c3.3 0 6 2.7 6 6v108c0 3.3-2.7 6-6 6h-148c-3.3 0-6-2.7-6-6z" stroke="#5e5e5e" stroke-width="3" fill="#fff"/><use xlink:href="#e" transform="matrix(1,0,0,1,-500,-1200) translate(28.10499999999999 63.15)"/><g fill="none"><path d="M-978.5-1079.25c.4 0 .75.34.75.75v87c0 .4-.34.75-.75.75-.4 0-.75-.34-.75-.75v-87c0-.4.34-.75.75-.75z"/><path d="M-977.75-1049.5v29m0 14.5v14.5l-.22.53-.53.22-.53-.22-.22-.53v-14.5m0-14.5v-29m0-14.5v-14.5l.22-.53.53-.22.53.22.22.53v14.5" stroke="#5e5e5e" stroke-width="1.5"/></g><path d="M-1219-960h200.5M-1218.97-960h-1.03" stroke="#5e5e5e" stroke-width="2" fill="none"/><path d="M-1003.24-960l-14.26 4.64v-9.28z" stroke="#5e5e5e" stroke-width="2" fill="#5e5e5e"/><path d="M-1200-984c0-3.3 2.7-6 6-6h188c3.3 0 6 2.7 6 6v18c0 3.3-2.7 6-6 6h-188c-3.3 0-6-2.7-6-6z" stroke="#000" stroke-opacity="0" stroke-width="3" fill="#fff" fill-opacity="0"/><use xlink:href="#f" transform="matrix(1,0,0,1,-1195,-985) translate(42.35802469135803 15.472222222222221)"/><path d="M-956-927.22h196" stroke="#5e5e5e" stroke-width="2" fill="none"/><path d="M-955.97-926.22H-957v-2h1.03" fill="#5e5e5e"/><path d="M-744.74-927.22L-759-922.6v-9.26z" stroke="#5e5e5e" stroke-width="2" fill="#5e5e5e"/><use xlink:href="#g" transform="matrix(1,0,0,1,-946.8055555555555,-957.1901133020156) translate(0.0049999999999954525 14.222222222222223)"/><use xlink:href="#h" transform="matrix(1,0,0,1,-946.8055555555555,-957.1901133020156) translate(127.2148765432099 14.222222222222223)"/><use xlink:href="#i" transform="matrix(1,0,0,1,-946.8055555555555,-957.1901133020156) translate(138.0296913580247 14.222222222222223)"/><path d="M-697.5-407.9h257.8" stroke="#5e5e5e" stroke-width="2" fill="none"/><path d="M-697.47-406.9h-1.03v-2h1.03" fill="#5e5e5e"/><path d="M-457.06-397.7l17.22-10.2-17.22-10.17" stroke="#5e5e5e" stroke-width="2" fill="none"/><use xlink:href="#j" transform="matrix(1,0,0,1,-680.0902779850904,-443.4030505372297) translate(0.0049999999999954525 14.222222222222223)"/><use xlink:href="#h" transform="matrix(1,0,0,1,-680.0902779850904,-443.4030505372297) translate(155.90623456790127 14.222222222222223)"/><use xlink:href="#i" transform="matrix(1,0,0,1,-680.0902779850904,-443.4030505372297) translate(166.72104938271607 14.222222222222223)"/><path d="M-200-1194c0-3.3 2.7-6 6-6h148c3.3 0 6 2.7 6 6v108c0 3.3-2.7 6-6 6h-148c-3.3 0-6-2.7-6-6z" stroke="#5e5e5e" stroke-width="3" fill="#fff"/><use xlink:href="#k" transform="matrix(1,0,0,1,-200,-1200) translate(15.130000000000004 63.15)"/><path d="M-393.88-385.33h242" stroke="#5e5e5e" stroke-width="2" fill="none"/><path d="M-393.85-384.33h-1.03v-2h1.03" fill="#5e5e5e"/><path d="M-136.6-385.33l-14.28 4.63v-9.27z" stroke="#5e5e5e" stroke-width="2" fill="#5e5e5e"/><use xlink:href="#l" transform="matrix(1,0,0,1,-384.37500041462516,-415.3028703471906) translate(0.0049999999999954525 14.222222222222223)"/><use xlink:href="#h" transform="matrix(1,0,0,1,-384.37500041462516,-415.3028703471906) translate(172.59759259259266 14.222222222222223)"/><use xlink:href="#i" transform="matrix(1,0,0,1,-384.37500041462516,-415.3028703471906) translate(183.41240740740747 14.222222222222223)"/><path d="M-135.26-278.47h-10.77m-10.78 0h-21.56m-10.78 0h-21.55m-10.76 0h-21.56m-10.77 0h-20.07m-9.33 0h-18.64m-9.3 0h-18.65m-9.3 0h-18.64m-9.32 0h-9.32" stroke="#5e5e5e" stroke-width="2" fill="none"/><path d="M-134.26-277.47h-1.02v-2h1.02" fill="#5e5e5e"/><path d="M-391.64-278.47l14.26-4.64v9.26z" stroke="#5e5e5e" stroke-width="2" fill="#5e5e5e"/><path d="M-438.88-259.44h-10.04m-10.05 0h-20.1m-10.04 0h-20.1m-10.05 0h-20.1m-10.04 0h-20.08m-10.05 0h-20.1m-10.04 0h-20.1m-10.04 0h-20.1m-10.05 0H-680" stroke="#5e5e5e" stroke-width="2" fill="none"/><path d="M-437.88-258.44h-1.02v-2h1.02" fill="#5e5e5e"/><path d="M-695.26-259.44l14.26-4.64v9.27z" stroke="#5e5e5e" stroke-width="2" fill="#5e5e5e"/><path d="M75-1194c0-3.3 2.67-6 6-6h216c3.3 0 6 2.7 6 6v108c0 3.3-2.7 6-6 6H81c-3.33 0-6-2.7-6-6z" stroke="#5e5e5e" stroke-width="3" fill="#fff"/><use xlink:href="#m" transform="matrix(1,0,0,1,74.98825173986563,-1200) translate(17.130000000000003 63.15)"/><path d="M420-1194c0-3.3 2.7-6 6-6h228c3.3 0 6 2.7 6 6v108c0 3.3-2.7 6-6 6H426c-3.3 0-6-2.7-6-6z" stroke="#5e5e5e" stroke-width="3" fill="#fff"/><use xlink:href="#n" transform="matrix(1,0,0,1,424.9999999999998,-1195) translate(6.50617283950622 58.90972222222222)"/><path d="M170-694c0-3.3 2.7-6 6-6h28c3.3 0 6 2.7 6 6v188c0 3.3-2.7 6-6 6h-28c-3.3 0-6-2.7-6-6z" stroke="#5e5e5e" stroke-width="3" fill="#fff"/><path d="M-697.5-677.88h864.18" stroke="#5e5e5e" stroke-width="2" fill="none"/><path d="M-697.47-676.88h-1.03v-2h1.03" fill="#5e5e5e"/><path d="M149.32-667.7l17.22-10.18-17.22-10.18" stroke="#5e5e5e" stroke-width="2" fill="none"/><use xlink:href="#o" transform="matrix(1,0,0,1,-425.14814814814815,-703.2149746651486) translate(0.0049999999999954525 14.222222222222223)"/><use xlink:href="#h" transform="matrix(1,0,0,1,-425.14814814814815,-703.2149746651486) translate(252.4000617283951 14.222222222222223)"/><use xlink:href="#i" transform="matrix(1,0,0,1,-425.14814814814815,-703.2149746651486) translate(263.2148765432099 14.222222222222223)"/><path d="M520-652.58c0-3.32 2.7-6 6-6h28c3.3 0 6 2.68 6 6v108c0 3.3-2.7 6-6 6h-28c-3.3 0-6-2.7-6-6z" stroke="#5e5e5e" stroke-width="3" fill="#fff"/><path d="M212.5-640H500" stroke="#5e5e5e" stroke-width="2" fill="none"/><path d="M212.53-639h-1.03v-2h1.03" fill="#5e5e5e"/><path d="M515.26-640L501-635.36v-9.28z" stroke="#5e5e5e" stroke-width="2" fill="#5e5e5e"/><use xlink:href="#p" transform="matrix(1,0,0,1,247.71604938271588,-665.3333333333333) translate(0.0049999999999954525 14.222222222222223)"/><use xlink:href="#h" transform="matrix(1,0,0,1,247.71604938271588,-665.3333333333333) translate(166.67166666666674 14.222222222222223)"/><use xlink:href="#i" transform="matrix(1,0,0,1,247.71604938271588,-665.3333333333333) translate(177.48648148148155 14.222222222222223)"/><path d="M517.5-562.73h-9.58m-9.6 0h-19.15m-9.6 0h-19.15m-9.6 0h-19.15m-9.6 0h-19.15m-9.6 0h-19.15m-9.6 0h-19.15m-9.6 0h-19.15m-9.6 0h-19.15m-9.6 0h-19.15m-9.58 0H230" stroke="#5e5e5e" stroke-width="2" fill="none"/><path d="M518.5-561.73h-1.03v-2h1.03" fill="#5e5e5e"/><path d="M214.74-562.73l14.26-4.63v9.27z" stroke="#5e5e5e" stroke-width="2" fill="#5e5e5e"/><path d="M167.5-532h-10.3m-10.3 0h-20.6m-10.3 0H95.43m-10.3 0h-20.6m-10.3 0h-20.6m-10.3 0H2.75m-10.3 0h-20.6m-10.3 0h-20.6m-10.3 0h-20.58m-10.3 0h-20.6m-10.3 0h-20.6m-10.28 0h-20.6m-10.3 0h-20.6m-10.3 0h-20.58m-10.3 0h-20.18m-9.88 0h-19.76m-9.88 0h-19.77m-9.88 0h-19.76m-9.9 0h-19.75m-9.88 0h-19.76m-9.88 0h-19.76m-9.88 0h-19.76m-9.88 0h-19.76m-9.88 0h-19.76m-9.9 0h-19.75m-9.9 0h-19.75m-9.88 0h-19.76m-9.87 0h-19.77m-9.88 0H-680" stroke="#5e5e5e" stroke-width="2" fill="none"/><path d="M168.5-531h-1.03v-2h1.03" fill="#5e5e5e"/><path d="M-695.26-532l14.26-4.62v9.27z" stroke="#5e5e5e" stroke-width="2" fill="#5e5e5e"/><path d="M-742.5 145.88h-8.9v-2h8.9m-17.8 2h-17.78v-2h17.8m-109.82 2h-18.82v-2h18.82m-28.73 2h-19.83v-2h19.83m-29.75 2h-9.92v-2h9.92m141.6 2h-13.04v-2h13.04" fill="#5e5e5e"/><path d="M-741.5 145.88h-1.03v-2h1.03M-939.5 149.52l-14.26-4.64 14.26-4.63z" fill="#5e5e5e"/><path d="M-938.5 150.9l-18.5-6.02 18.5-6m-12.03 6l10.03 3.26v-6.52" fill="#5e5e5e"/><use xlink:href="#q" transform="matrix(1,0,0,1,-815.6252292629845,134.21693402229525) translate(0.005 14.222222222222223)"/><use xlink:href="#r" transform="matrix(1,0,0,1,-870.0982389828371,134.21693402229525) translate(0.005000000000002558 14.222222222222223)"/><g fill="none"><path d="M-720-479.25c.4 0 .75.34.75.75v787c0 .4-.34.75-.75.75-.4 0-.75-.34-.75-.75v-787c0-.4.34-.75.75-.75z"/><path d="M-719.25-447.64v30.87m0 15.43v30.86m0 15.43v30.86m0 15.45v30.86m0 15.44v30.86m0 15.43v30.87m0 15.43V-139m0 15.42v30.86m0 15.44v30.86m0 15.43V-.12m0 15.43v30.87m0 15.43v30.86m0 15.43v30.85m0 15.44v30.85m0 15.43v30.86m0 15.43v30.87m0 15.43v15.43l-.22.53-.53.22-.53-.22-.22-.53v-15.43m0-15.43v-30.87m0-15.43v-30.86m0-15.43V154.2m0-15.45V107.9m0-15.44V61.6m0-15.43V15.3m0-15.43V-31m0-15.42v-30.86m0-15.44v-30.86m0-15.43v-30.87m0-15.43v-30.87m0-15.43v-30.86m0-15.43v-30.85m0-15.44v-30.85m0-15.43v-30.86m0-15.43v-30.87m0-15.43v-15.43l.22-.53.53-.22.53.22.22.53v15.43" stroke="#5e5e5e" stroke-width="1.5"/></g><g fill="none"><path d="M190-499.25c.4 0 .75.34.75.75v817c0 .4-.34.75-.75.75-.4 0-.75-.34-.75-.75v-817c0-.4.34-.75.75-.75z"/><path d="M190.75-468.24v30.26m0 15.13v30.26m0 15.14v30.26m0 15.13v30.26m0 15.1v30.27m0 15.13v30.26m0 15.13v30.25m0 15.13v30.26m0 15.13v30.26m0 15.13v30.26m0 15.13V15.9m0 15.14V61.3m0 15.13v30.26m0 15.1v30.27m0 15.13v30.26m0 15.13v30.25m0 15.13v30.26m0 15.13v15.13l-.22.53-.53.22-.53-.22-.22-.53v-15.13m0-15.13v-30.26m0-15.13V212.6m0-15.14V167.2m0-15.13V121.8m0-15.1V76.42m0-15.13V31.04m0-15.13v-30.25m0-15.13v-30.26m0-15.13v-30.26m0-15.13v-30.26m0-15.13v-30.26m0-15.14v-30.26m0-15.13v-30.26m0-15.1v-30.27m0-15.13v-30.26m0-15.13v-30.25m0-15.13v-30.26m0-15.13v-15.13l.22-.53.53-.22.53.22.22.53v15.13" stroke="#5e5e5e" stroke-width="1.5"/></g><g fill="none"><path d="M541.5-537.83c.4 0 .75.33.75.75V308.5c0 .4-.34.75-.75.75-.4 0-.75-.34-.75-.75v-845.58c0-.42.34-.75.75-.75z"/><path d="M542.25-507.4v29.66m0 14.83v29.66m0 14.84v29.67m0 14.83v29.67m0 14.83v29.67m0 14.84v29.68m0 14.83v29.68m0 14.84v29.67m0 14.82v29.67m0 14.83v29.67m0 14.83v29.67m0 14.83V11.8m0 14.84V56.3m0 14.84v29.67m0 14.85v29.67m0 14.83v29.67m0 14.84v29.67m0 14.83v29.67m0 14.84v14.83l-.22.53-.53.22-.53-.22-.22-.53v-14.83m0-14.84v-29.67m0-14.83v-29.67m0-14.84v-29.67m0-14.83v-29.67m0-14.84V71.15m0-14.83V26.65m0-14.84v-29.67m0-14.83v-29.67m0-14.83v-29.67m0-14.84v-29.68m0-14.83v-29.68m0-14.84v-29.67m0-14.82v-29.67m0-14.83v-29.67m0-14.83v-29.67m0-14.83v-29.67m0-14.84v-29.67m0-14.84v-29.67m0-14.85v-14.83l.22-.53.53-.23.53.22.22.52v14.83" stroke="#5e5e5e" stroke-width="1.5"/></g><g fill="none"><path d="M544.5-1079.25c.4 0 .75.34.75.75v427c0 .4-.34.75-.75.75-.4 0-.75-.34-.75-.75v-427c0-.4.34-.75.75-.75z"/><path d="M545.25-1046.87v31.63m0 15.8v31.64m0 15.82v31.63m0 15.8v31.64m0 15.8v31.64m0 15.8V-778m0 15.82v31.63m0 15.8v31.64m0 15.82v15.8l-.22.53-.53.22-.53-.22-.22-.53v-15.8m0-15.83v-31.63m0-15.8v-31.64m0-15.82v-31.63m0-15.8v-31.64m0-15.8v-31.64m0-15.8V-952m0-15.82v-31.63m0-15.8v-31.64m0-15.82v-15.8l.22-.53.53-.22.53.22.22.53v15.8" stroke="#5e5e5e" stroke-width="1.5"/></g><g fill="none"><path d="M190-1079.25c.4 0 .75.34.75.75v377c0 .4-.34.75-.75.75-.4 0-.75-.34-.75-.75v-377c0-.4.34-.75.75-.75z"/><path d="M190.75-1047.08v31.4m0 15.72v31.42m0 15.7v31.42m0 15.7v31.43m0 15.72v31.4m0 15.72v31.42m0 15.7v31.42m0 15.7v15.72l-.22.53-.53.22-.53-.22-.22-.53v-15.7m0-15.72v-31.4m0-15.72v-31.42m0-15.7v-31.42m0-15.7v-31.43m0-15.72v-31.4m0-15.72v-31.42m0-15.7v-31.42m0-15.7v-15.72l.22-.53.53-.22.53.22.22.53v15.7" stroke="#5e5e5e" stroke-width="1.5"/></g><g fill="none"><path d="M-717-1079.25c.4 0 .75.34.75.75v137c0 .4-.34.75-.75.75-.4 0-.75-.34-.75-.75v-137c0-.4.34-.75.75-.75z"/><path d="M-716.25-1048.06v30.45m0 15.2v30.46m0 15.22v15.22l-.22.53-.53.22-.53-.22-.22-.53v-15.22m0-15.22v-30.45m0-15.2v-30.46m0-15.22v-15.22l.22-.53.53-.22.53.22.22.53v15.22" stroke="#5e5e5e" stroke-width="1.5"/></g><g fill="none"><path d="M-420-1079.25c.4 0 .75.34.75.75v1387c0 .4-.34.75-.75.75-.4 0-.75-.34-.75-.75v-1387c0-.4.34-.75.75-.75z"/><path d="M-419.25-1048.67v29.83m0 14.9v29.84m0 14.9v29.84m0 14.9v29.84m0 14.92v29.82m0 14.92v29.83m0 14.9v29.84m0 14.92v29.83m0 14.9v29.84m0 14.9v29.83m0 14.92v29.83m0 14.9v29.84m0 14.9v29.84m0 14.9v29.84m0 14.92v29.82m0 14.92v29.82m0 14.92v29.83m0 14.9v29.84m0 14.9v29.84m0 14.92v29.83m0 14.92V-124m0 14.9v29.84m0 14.9v29.84m0 14.9v29.84m0 14.9v29.84m0 14.92V99.7m0 14.92v29.83m0 14.9v29.84m0 14.9v29.83m0 14.9v29.84m0 14.92v14.9l-.22.53-.53.22-.53-.22-.22-.53v-14.9m0-14.93v-29.83m0-14.9V204.1m0-14.9v-29.84m0-14.9V114.6m0-14.92V69.88m0-14.92V25.13m0-14.9v-29.84m0-14.92v-29.83m0-14.9v-29.84m0-14.9v-29.83m0-14.92v-29.83m0-14.9v-29.84m0-14.9v-29.84m0-14.9v-29.84m0-14.92v-29.82m0-14.92v-29.82m0-14.92v-29.83m0-14.9v-29.84m0-14.9v-29.84m0-14.92v-29.83m0-14.92V-646m0-14.9v-29.84m0-14.9v-29.84m0-14.9v-29.84m0-14.9v-29.84m0-14.92v-29.82m0-14.92v-29.83m0-14.9v-29.84m0-14.9v-29.83m0-14.9v-29.84m0-14.92v-14.9l.22-.53.53-.22.53.22.22.53v14.9" stroke="#5e5e5e" stroke-width="1.5"/></g><g fill="none"><path d="M-115.5-1079.25c.4 0 .75.34.75.75v1387c0 .4-.34.75-.75.75-.4 0-.75-.34-.75-.75v-1387c0-.4.34-.75.75-.75z"/><path d="M-114.75-1048.67v29.83m0 14.9v29.84m0 14.9v29.84m0 14.9v29.84m0 14.92v29.82m0 14.92v29.83m0 14.9v29.84m0 14.92v29.83m0 14.9v29.84m0 14.9v29.83m0 14.92v29.83m0 14.9v29.84m0 14.9v29.84m0 14.9v29.84m0 14.92v29.82m0 14.92v29.82m0 14.92v29.83m0 14.9v29.84m0 14.9v29.84m0 14.92v29.83m0 14.92V-124m0 14.9v29.84m0 14.9v29.84m0 14.9v29.84m0 14.9v29.84m0 14.92V99.7m0 14.92v29.83m0 14.9v29.84m0 14.9v29.83m0 14.9v29.84m0 14.92v14.9l-.22.53-.53.22-.53-.22-.22-.53v-14.9m0-14.93v-29.83m0-14.9V204.1m0-14.9v-29.84m0-14.9V114.6m0-14.92V69.88m0-14.92V25.13m0-14.9v-29.84m0-14.92v-29.83m0-14.9v-29.84m0-14.9v-29.83m0-14.92v-29.83m0-14.9v-29.84m0-14.9v-29.84m0-14.9v-29.84m0-14.92v-29.82m0-14.92v-29.82m0-14.92v-29.83m0-14.9v-29.84m0-14.9v-29.84m0-14.92v-29.83m0-14.92V-646m0-14.9v-29.84m0-14.9v-29.84m0-14.9v-29.84m0-14.9v-29.84m0-14.92v-29.82m0-14.92v-29.83m0-14.9v-29.84m0-14.9v-29.83m0-14.9v-29.84m0-14.92v-14.9l.22-.53.53-.22.53.22.22.53v14.9" stroke="#5e5e5e" stroke-width="1.5"/></g><path d="M763-1194c0-3.3 2.7-6 6-6h148c3.3 0 6 2.7 6 6v108c0 3.3-2.7 6-6 6H769c-3.3 0-6-2.7-6-6z" stroke="#5e5e5e" stroke-width="3" fill="#fff"/><use xlink:href="#s" transform="matrix(1,0,0,1,763,-1200) translate(11.604999999999999 63.15)"/><path d="M1026-1194c0-3.3 2.7-6 6-6h165c3.3 0 6 2.7 6 6v108c0 3.3-2.7 6-6 6h-165c-3.3 0-6-2.7-6-6z" stroke="#5e5e5e" stroke-width="3" fill="#fff"/><use xlink:href="#t" transform="matrix(1,0,0,1,1026,-1200) translate(7.130000000000004 63.15)"/><path d="M-717-938.94v35.1c0 3.32 2.7 6 6 6H804.5" stroke="#5e5e5e" stroke-width="2" fill="none"/><path d="M-716-938.9h-2v-1.45l1 .4 1-.4" fill="#5e5e5e"/><path d="M819.76-897.84l-14.26 4.64v-9.27z" stroke="#5e5e5e" stroke-width="2" fill="#5e5e5e"/><use xlink:href="#u" transform="matrix(1,0,0,1,-14.866163160925922,-923.1688424251545) translate(0.0049999999999954525 14.222222222222223)"/><use xlink:href="#v" transform="matrix(1,0,0,1,-14.866163160925922,-923.1688424251545) translate(164.6963580246914 14.222222222222223)"/><use xlink:href="#i" transform="matrix(1,0,0,1,-14.866163160925922,-923.1688424251545) translate(175.5111728395062 14.222222222222223)"/><path d="M867-868.17h213" stroke="#5e5e5e" stroke-width="2" fill="none"/><path d="M867.03-867.17H866v-2h1.03" fill="#5e5e5e"/><path d="M1095.26-868.17l-14.26 4.64v-9.27z" stroke="#5e5e5e" stroke-width="2" fill="#5e5e5e"/><use xlink:href="#w" transform="matrix(1,0,0,1,871.4104938271605,-898.1350798866846) translate(0.0049999999999954525 14.222222222222223)"/><use xlink:href="#h" transform="matrix(1,0,0,1,871.4104938271605,-898.1350798866846) translate(153.78277777777782 14.222222222222223)"/><use xlink:href="#i" transform="matrix(1,0,0,1,871.4104938271605,-898.1350798866846) translate(164.59759259259263 14.222222222222223)"/><path d="M1097.5-794.47h-10.14m-10.15 0h-20.27m-10.14 0h-20.3m-10.14 0h-20.3m-10.13 0h-20.3m-10.13 0h-20.28m-10.15 0H904.8m-10.16 0H884.5" stroke="#5e5e5e" stroke-width="2" fill="none"/><path d="M1098.5-793.47h-1.03v-2h1.03" fill="#5e5e5e"/><path d="M869.24-794.47l14.26-4.63v9.27z" stroke="#5e5e5e" stroke-width="2" fill="#5e5e5e"/><g fill="none"><path d="M841.5-1065.03c.4 0 .75.34.75.75V308.5c0 .4-.34.75-.75.75-.4 0-.75-.34-.75-.75v-1372.78c0-.4.34-.75.75-.75z"/><path d="M842.25-1034.76v29.53m0 14.76v29.52m0 14.76v29.53m0 14.76v29.52m0 14.76v29.52m0 14.76v29.52m0 14.76v29.53m0 14.76v29.52m0 14.76v29.53m0 14.76v29.5m0 14.78v29.52m0 14.76v29.52m0 14.76v29.52m0 14.77v29.52m0 14.76v29.53m0 14.76v29.5m0 14.77v29.53m0 14.76v29.52m0 14.76v29.52m0 14.76v29.53m0 14.76v29.53m0 14.76v29.5m0 14.77V-31m0 14.76v29.52m0 14.76v29.52m0 14.76v29.53m0 14.76v29.53m0 14.76v29.5m0 14.77v29.52m0 14.76v29.52m0 14.76v14.76l-.22.53-.53.22-.53-.22-.22-.53v-14.76m0-14.76v-29.52m0-14.77v-29.53m0-14.76v-29.5m0-14.77V116.6m0-14.75V72.32m0-14.76V28.04m0-14.76v-29.52m0-14.76v-29.53m0-14.76v-29.5m0-14.77v-29.52m0-14.75v-29.53m0-14.76v-29.52m0-14.76v-29.52m0-14.76v-29.53m0-14.76v-29.5m0-14.77v-29.52m0-14.75v-29.52m0-14.77v-29.52m0-14.76v-29.52m0-14.76v-29.52m0-14.77v-29.5m0-14.77v-29.52m0-14.75v-29.52m0-14.76v-29.53m0-14.76v-29.52m0-14.76v-29.52m0-14.76v-29.53m0-14.77v-29.52m0-14.75v-29.52m0-14.76v-29.53m0-14.76v-14.76l.22-.53.53-.23.53.22.22.52v14.76" stroke="#5e5e5e" stroke-width="1.5"/></g><g fill="none"><path d="M1114.5-1075.03c.4 0 .75.34.75.75V318.5c0 .4-.34.75-.75.75-.4 0-.75-.34-.75-.75v-1392.78c0-.4.34-.75.75-.75z"/><path d="M1115.25-1044.33v29.96m0 14.97v29.95m0 14.98v29.95m0 14.98v29.95m0 15v29.94m0 14.98v29.95m0 14.97v29.96m0 14.97v29.95m0 14.98v29.95m0 14.98v29.95m0 14.98v29.95m0 15v29.94m0 14.97v29.97m0 14.97v29.95m0 14.97v29.95m0 14.98v29.95m0 14.98v29.95m0 14.98v29.95m0 14.98v29.96m0 14.97v29.96m0 14.98v29.95m0 14.97v29.95m0 14.98v29.95m0 14.98v29.95m0 14.97V63.9m0 14.98v29.95m0 14.98v29.96m0 14.98v29.95m0 14.97v29.95m0 14.98v29.95m0 14.97v14.98l-.22.53-.53.22-.53-.22-.22-.53v-14.98m0-14.97V258.6m0-14.98v-29.95m0-14.98v-29.96m0-14.98V123.8m0-14.97V78.88m0-14.97V33.96m0-14.97v-29.95m0-14.98V-55.9m0-14.98v-29.95m0-14.98v-29.96m0-14.98v-29.95m0-14.96v-29.96m0-14.97v-29.94m0-14.98v-29.95m0-14.98v-29.95m0-14.98v-29.95m0-14.98v-29.96m0-14.97v-29.96m0-14.96v-29.95m0-15v-29.94m0-14.98v-29.95m0-14.98v-29.95m0-14.98v-29.95m0-14.97v-29.96m0-14.97v-29.95m0-14.98v-29.95m0-15v-29.94m0-14.98v-29.95m0-14.98v-29.95m0-14.97v-29.96m0-14.97v-14.98l.22-.53.53-.23.53.22.22.52v14.98" stroke="#5e5e5e" stroke-width="1.5"/></g><path d="M-1001 226.42h-10.5m-10.5 0h-21m-10.5 0h-21m-10.5 0h-21m-10.5 0h-21m-10.5 0h-21m-10.5 0h-21m-10.5 0h-10.5" stroke="#5e5e5e" stroke-width="2" fill="none"/><path d="M-1000 227.42h-1.03v-2h1.03" fill="#5e5e5e"/><path d="M-1236.76 226.42l14.26-4.64v9.27z" stroke="#5e5e5e" stroke-width="2" fill="#5e5e5e"/><use xlink:href="#x" transform="matrix(1,0,0,1,-1180.0493827160494,230.41825550097985) translate(0.005000000000002558 14.222222222222223)"/><path d="M822.53-743.84H812.4m-10.14 0H782m-10.14 0H751.6m-10.14 0H721.2m-10.14 0H690.8m-10.14 0H660.4m-10.14 0H630m-10.14 0H599.6m-10.14 0H569.2m-10.14 0H538.8m-10.14 0H508.4m-10.14 0H478m-10.14 0H447.6m-10.14 0H417.2m-10.14 0H386.8m-10.14 0H356.4m-10.15 0H326m-10.15 0H295.6m-10.15 0H265.2m-10.15 0H234.8m-10.15 0H204.4m-10.15 0h-20.27m-10.13 0h-20.27m-10.13 0h-20.27m-10.13 0H82.78m-10.13 0H52.62m-9.9 0h-19.8m-9.9 0H-6.8m-9.9 0h-19.8m-9.9 0h-19.8m-9.9 0h-19.8m-9.9 0h-19.8m-9.9 0h-19.8m-9.9 0H-185m-9.9 0h-19.8m-9.9 0h-19.8m-9.9 0h-19.8m-9.9 0h-19.8m-9.9 0h-19.8m-9.9 0h-19.8m-9.9 0h-19.8m-9.9 0h-19.8m-9.9 0h-19.8m-9.9 0H-482m-9.9 0h-19.8m-9.9 0h-19.8m-9.9 0h-19.82m-9.9 0h-19.8m-9.9 0h-19.8m-9.9 0h-19.8m-9.9 0h-9.9" stroke="#5e5e5e" stroke-width="2" fill="none"/><path d="M823.8-742.84h-1.3v-2h.76" fill="#5e5e5e"/><path d="M-695.26-743.84l14.26-4.63v9.27z" stroke="#5e5e5e" stroke-width="2" fill="#5e5e5e"/><use xlink:href="#y" transform="matrix(1,0,0,1,-15.360789208478742,-739.8358333034174) translate(0.0049999999999954525 14.222222222222223)"/><use xlink:href="#h" transform="matrix(1,0,0,1,-15.360789208478742,-739.8358333034174) translate(75.01734567901235 14.222222222222223)"/><use xlink:href="#z" transform="matrix(1,0,0,1,-15.360789208478742,-739.8358333034174) translate(85.83216049382716 14.222222222222223)"/><g fill="none"><path d="M-980-75.03c.4 0 .75.34.75.75V308.5c0 .4-.34.75-.75.75-.4 0-.75-.34-.75-.75V-74.28c0-.4.34-.75.75-.75z"/><path d="M-979.25-45.92v28.35m0 14.18v28.36m0 14.18V67.5m0 14.17v28.35m0 14.18v28.35m0 14.18v28.35m0 14.18v28.36m0 14.17v28.35m0 14.17v14.18l-.22.53-.53.22-.53-.22-.22-.53v-14.18m0-14.17V251.8m0-14.18v-28.36m0-14.18v-28.35m0-14.18V124.2m0-14.18V81.67m0-14.18V39.13m0-14.18V-3.4m0-14.17v-28.35m0-14.18v-14.18l.22-.53.53-.23.53.22.22.52v14.18" stroke="#5e5e5e" stroke-width="1.5"/></g><path d="M824.5-912.58c0-3.32 2.7-6 6-6h28c3.3 0 6 2.68 6 6V-746c0 3.3-2.7 6-6 6h-28c-3.3 0-6-2.7-6-6zM1100-883.3c0-3.3 2.7-6 6-6h28c3.3 0 6 2.7 6 6v108c0 3.32-2.7 6-6 6h-28c-3.3 0-6-2.68-6-6zM-436.38-421.9c0-3.3 2.7-6 6-6h28c3.32 0 6 2.7 6 6v168c0 3.32-2.68 6-6 6h-28c-3.3 0-6-2.68-6-6zM-132.76-381.9c0-3.3 2.7-6 6-6h28c3.32 0 6 2.7 6 6v108c0 3.32-2.68 6-6 6h-28c-3.3 0-6-2.68-6-6zM-998.5-984c0-3.3 2.7-6 6-6h28c3.3 0 6 2.7 6 6V234c0 3.3-2.7 6-6 6h-28c-3.3 0-6-2.7-6-6z" stroke="#5e5e5e" stroke-width="3" fill="#fff"/><path d="M-697.5-77.9H806" stroke="#5e5e5e" stroke-width="2" fill="none"/><path d="M-697.47-76.9h-1.03v-2h1.03" fill="#5e5e5e"/><path d="M821.26-77.9L807-73.26v-9.27z" stroke="#5e5e5e" stroke-width="2" fill="#5e5e5e"/><g><use xlink:href="#A" transform="matrix(1,0,0,1,-58.50617283950619,-103.23063664111132) translate(0.0049999999999954525 14.222222222222223)"/><use xlink:href="#h" transform="matrix(1,0,0,1,-58.50617283950619,-103.23063664111132) translate(175.11611111111114 14.222222222222223)"/><use xlink:href="#i" transform="matrix(1,0,0,1,-58.50617283950619,-103.23063664111132) translate(185.93092592592595 14.222222222222223)"/></g><path d="M868.5-18.94h209.3" stroke="#5e5e5e" stroke-width="2" fill="none"/><path d="M868.53-17.94h-1.03v-2h1.03" fill="#5e5e5e"/><path d="M1093.06-18.94l-14.27 4.64v-9.27z" stroke="#5e5e5e" stroke-width="2" fill="#5e5e5e"/><g><use xlink:href="#B" transform="matrix(1,0,0,1,866.5388452925906,-48.90553551251347) translate(0.0049999999999954525 14.222222222222223)"/><use xlink:href="#h" transform="matrix(1,0,0,1,866.5388452925906,-48.90553551251347) translate(89.83216049382716 14.222222222222223)"/><use xlink:href="#C" transform="matrix(1,0,0,1,866.5388452925906,-48.90553551251347) translate(100.64697530864197 14.222222222222223)"/></g><path d="M1095.3 54.76h-9.46m-9.45 0h-18.9m-9.45 0h-18.9m-9.45 0h-18.9m-9.45 0h-20.11m-10.65 0h-21.32m-10.66 0h-21.3m-10.66 0H886" stroke="#5e5e5e" stroke-width="2" fill="none"/><path d="M1096.3 55.76h-1.03v-2h1.02" fill="#5e5e5e"/><path d="M870.74 54.76L885 50.13v9.27z" stroke="#5e5e5e" stroke-width="2" fill="#5e5e5e"/><path d="M824.03 76.1H813.9m-10.14 0H783.5m-10.14 0H753.1m-10.14 0H722.7m-10.14 0H692.3m-10.14 0H661.9m-10.14 0H631.5m-10.14 0H601.1m-10.14 0H570.7m-10.14 0H540.3m-10.14 0H509.9m-10.14 0H479.5m-10.14 0H449.1m-10.14 0H418.7m-10.14 0H388.3m-10.14 0H357.9m-10.15 0H327.5m-10.15 0H297.1m-10.15 0H266.7m-10.15 0H236.3m-10.15 0H205.9m-10.15 0h-20.27m-10.13 0h-20.27m-10.13 0h-20.27m-10.13 0H84.28m-10.13 0H54.12m-9.9 0h-19.8m-9.9 0H-5.3m-9.9 0H-35m-9.9 0h-19.8m-9.9 0h-19.8m-9.9 0h-19.8m-9.9 0h-19.8m-9.9 0h-19.8m-9.9 0h-19.8m-9.9 0h-19.8m-9.9 0h-19.8m-9.9 0h-19.8m-9.9 0H-332m-9.9 0h-19.8m-9.9 0h-19.8m-9.9 0h-19.8m-9.9 0h-19.8m-9.9 0h-19.8m-9.9 0h-19.8m-9.9 0h-19.8m-9.9 0h-19.82m-9.9 0h-19.8m-9.9 0H-629m-9.9 0h-19.8m-9.9 0h-9.9" stroke="#5e5e5e" stroke-width="2" fill="none"/><path d="M825.3 77.1H824v-2h.76" fill="#5e5e5e"/><path d="M-693.76 76.1l14.26-4.63v9.27z" stroke="#5e5e5e" stroke-width="2" fill="#5e5e5e"/><path d="M826-92.64c0-3.32 2.7-6 6-6h28c3.3 0 6 2.68 6 6V73.94c0 3.3-2.7 6-6 6h-28c-3.3 0-6-2.7-6-6zM1097.8-34.06c0-3.32 2.68-6 6-6h28c3.3 0 6 2.68 6 6v108c0 3.3-2.7 6-6 6h-28c-3.32 0-6-2.7-6-6zM-740-934c0-3.3 2.7-6 6-6h28c3.3 0 6 2.7 6 6V174c0 3.3-2.7 6-6 6h-28c-3.3 0-6-2.7-6-6z" stroke="#5e5e5e" stroke-width="3" fill="#fff"/><defs><path fill="#333" d="M100-194c62-1 85 37 85 99 1 63-27 99-86 99S16-35 15-95c0-66 28-99 85-99zM99-20c44 1 53-31 53-75 0-43-8-75-51-75s-53 32-53 75 10 74 51 75" id="D"/><path fill="#333" d="M115-194c55 1 70 41 70 98S169 2 115 4C84 4 66-9 55-30l1 105H24l-1-265h31l2 30c10-21 28-34 59-34zm-8 174c40 0 45-34 45-75s-6-73-45-74c-42 0-51 32-51 76 0 43 10 73 51 73" id="E"/><path fill="#333" d="M59-47c-2 24 18 29 38 22v24C64 9 27 4 27-40v-127H5v-23h24l9-43h21v43h35v23H59v120" id="F"/><g id="a"><use transform="matrix(0.06172839506172839,0,0,0.06172839506172839,0,0)" xlink:href="#D"/><use transform="matrix(0.06172839506172839,0,0,0.06172839506172839,12.345679012345679,0)" xlink:href="#E"/><use transform="matrix(0.06172839506172839,0,0,0.06172839506172839,24.691358024691358,0)" xlink:href="#F"/></g><path fill="#333" d="M26 75v-336h71v23H56V52h41v23H26" id="G"/><path fill="#333" d="M135-143c-3-34-86-38-87 0 15 53 115 12 119 90S17 21 10-45l28-5c4 36 97 45 98 0-10-56-113-15-118-90-4-57 82-63 122-42 12 7 21 19 24 35" id="H"/><path fill="#333" d="M84 4C-5 8 30-112 23-190h32v120c0 31 7 50 39 49 72-2 45-101 50-169h31l1 190h-30c-1-10 1-25-2-33-11 22-28 36-60 37" id="I"/><path fill="#333" d="M96-169c-40 0-48 33-48 73s9 75 48 75c24 0 41-14 43-38l32 2c-6 37-31 61-74 61-59 0-76-41-82-99-10-93 101-131 147-64 4 7 5 14 7 22l-32 3c-4-21-16-35-41-35" id="J"/><path fill="#333" d="M100-194c63 0 86 42 84 106H49c0 40 14 67 53 68 26 1 43-12 49-29l28 8c-11 28-37 45-77 45C44 4 14-33 15-96c1-61 26-98 85-98zm52 81c6-60-76-77-97-28-3 7-6 17-6 28h103" id="K"/><path fill="#333" d="M3 75V52h41v-290H3v-23h71V75H3" id="L"/><g id="b"><use transform="matrix(0.06172839506172839,0,0,0.06172839506172839,0,0)" xlink:href="#G"/><use transform="matrix(0.06172839506172839,0,0,0.06172839506172839,6.172839506172839,0)" xlink:href="#H"/><use transform="matrix(0.06172839506172839,0,0,0.06172839506172839,17.28395061728395,0)" xlink:href="#I"/><use transform="matrix(0.06172839506172839,0,0,0.06172839506172839,29.629629629629626,0)" xlink:href="#J"/><use transform="matrix(0.06172839506172839,0,0,0.06172839506172839,40.74074074074073,0)" xlink:href="#J"/><use transform="matrix(0.06172839506172839,0,0,0.06172839506172839,51.85185185185185,0)" xlink:href="#K"/><use transform="matrix(0.06172839506172839,0,0,0.06172839506172839,64.19753086419753,0)" xlink:href="#H"/><use transform="matrix(0.06172839506172839,0,0,0.06172839506172839,75.30864197530865,0)" xlink:href="#H"/><use transform="matrix(0.06172839506172839,0,0,0.06172839506172839,86.41975308641976,0)" xlink:href="#L"/></g><path d="M205 0l-28-72H64L36 0H1l101-248h38L239 0h-34zm-38-99l-47-123c-12 45-31 82-46 123h93" id="M"/><path d="M30-248c87 1 191-15 191 75 0 78-77 80-158 76V0H30v-248zm33 125c57 0 124 11 124-50 0-59-68-47-124-48v98" id="N"/><path d="M33 0v-248h34V0H33" id="O"/><path d="M33 0v-38h34V0H33" id="P"/><path d="M177-190C167-65 218 103 67 71c-23-6-38-20-44-43l32-5c15 47 100 32 89-28v-30C133-14 115 1 83 1 29 1 15-40 15-95c0-56 16-97 71-98 29-1 48 16 59 35 1-10 0-23 2-32h30zM94-22c36 0 50-32 50-73 0-42-14-75-50-75-39 0-46 34-46 75s6 73 46 73" id="Q"/><path d="M114-163C36-179 61-72 57 0H25l-1-190h30c1 12-1 29 2 39 6-27 23-49 58-41v29" id="R"/><path d="M141-36C126-15 110 5 73 4 37 3 15-17 15-53c-1-64 63-63 125-63 3-35-9-54-41-54-24 1-41 7-42 31l-33-3c5-37 33-52 76-52 45 0 72 20 72 64v82c-1 20 7 32 28 27v20c-31 9-61-2-59-35zM48-53c0 20 12 33 32 33 41-3 63-29 60-74-43 2-92-5-92 41" id="S"/><path d="M115-194c55 1 70 41 70 98S169 2 115 4C84 4 66-9 55-30l1 105H24l-1-265h31l2 30c10-21 28-34 59-34zm-8 174c40 0 45-34 45-75s-6-73-45-74c-42 0-51 32-51 76 0 43 10 73 51 73" id="T"/><path d="M106-169C34-169 62-67 57 0H25v-261h32l-1 103c12-21 28-36 61-36 89 0 53 116 60 194h-32v-121c2-32-8-49-39-48" id="U"/><path d="M145-31C134-9 116 4 85 4 32 4 16-35 15-94c0-59 17-99 70-100 32-1 48 14 60 33 0-11-1-24 2-32h30l-1 268h-32zM93-21c41 0 51-33 51-76s-8-73-50-73c-40 0-46 35-46 75s5 74 45 74" id="V"/><path d="M24 0v-261h32V0H24" id="W"/><g id="c"><use transform="matrix(0.05,0,0,0.05,0,0)" xlink:href="#M"/><use transform="matrix(0.05,0,0,0.05,12,0)" xlink:href="#N"/><use transform="matrix(0.05,0,0,0.05,24,0)" xlink:href="#O"/><use transform="matrix(0.05,0,0,0.05,29,0)" xlink:href="#P"/><use transform="matrix(0.05,0,0,0.05,34,0)" xlink:href="#Q"/><use transform="matrix(0.05,0,0,0.05,44,0)" xlink:href="#R"/><use transform="matrix(0.05,0,0,0.05,49.95,0)" xlink:href="#S"/><use transform="matrix(0.05,0,0,0.05,59.95,0)" xlink:href="#T"/><use transform="matrix(0.05,0,0,0.05,69.95,0)" xlink:href="#U"/><use transform="matrix(0.05,0,0,0.05,79.95,0)" xlink:href="#V"/><use transform="matrix(0.05,0,0,0.05,89.95,0)" xlink:href="#W"/><path d="M-.9 1.25h95.7v1.32H-.9z"/></g><path d="M24-231v-30h32v30H24zM24 0v-190h32V0H24" id="X"/><path d="M135-143c-3-34-86-38-87 0 15 53 115 12 119 90S17 21 10-45l28-5c4 36 97 45 98 0-10-56-113-15-118-90-4-57 82-63 122-42 12 7 21 19 24 35" id="Y"/><path d="M240 0l2-218c-23 76-54 145-80 218h-23L58-218 59 0H30v-248h44l77 211c21-75 51-140 76-211h43V0h-30" id="Z"/><path d="M84 4C-5 8 30-112 23-190h32v120c0 31 7 50 39 49 72-2 45-101 50-169h31l1 190h-30c-1-10 1-25-2-33-11 22-28 36-60 37" id="aa"/><path d="M59-47c-2 24 18 29 38 22v24C64 9 27 4 27-40v-127H5v-23h24l9-43h21v43h35v23H59v120" id="ab"/><path d="M100-194c62-1 85 37 85 99 1 63-27 99-86 99S16-35 15-95c0-66 28-99 85-99zM99-20c44 1 53-31 53-75 0-43-8-75-51-75s-53 32-53 75 10 74 51 75" id="ac"/><path d="M117-194c89-4 53 116 60 194h-32v-121c0-31-8-49-39-48C34-167 62-67 57 0H25l-1-190h30c1 10-1 24 2 32 11-22 29-35 61-36" id="ad"/><g id="d"><use transform="matrix(0.05,0,0,0.05,0,0)" xlink:href="#M"/><use transform="matrix(0.05,0,0,0.05,12,0)" xlink:href="#W"/><use transform="matrix(0.05,0,0,0.05,15.949999999999998,0)" xlink:href="#X"/><use transform="matrix(0.05,0,0,0.05,19.9,0)" xlink:href="#S"/><use transform="matrix(0.05,0,0,0.05,29.899999999999995,0)" xlink:href="#Y"/><use transform="matrix(0.05,0,0,0.05,38.9,0)" xlink:href="#Z"/><use transform="matrix(0.05,0,0,0.05,53.85,0)" xlink:href="#aa"/><use transform="matrix(0.05,0,0,0.05,63.85,0)" xlink:href="#ab"/><use transform="matrix(0.05,0,0,0.05,68.85,0)" xlink:href="#S"/><use transform="matrix(0.05,0,0,0.05,78.85,0)" xlink:href="#ab"/><use transform="matrix(0.05,0,0,0.05,83.85,0)" xlink:href="#X"/><use transform="matrix(0.05,0,0,0.05,87.8,0)" xlink:href="#ac"/><use transform="matrix(0.05,0,0,0.05,97.8,0)" xlink:href="#ad"/><path d="M-.9 1.25h109.6v1.32H-.9z"/></g><path d="M33-154v-36h34v36H33zM33 0v-36h34V0H33" id="ae"/><path d="M185-189c-5-48-123-54-124 2 14 75 158 14 163 119 3 78-121 87-175 55-17-10-28-26-33-46l33-7c5 56 141 63 141-1 0-78-155-14-162-118-5-82 145-84 179-34 5 7 8 16 11 25" id="af"/><path d="M100-194c63 0 86 42 84 106H49c0 40 14 67 53 68 26 1 43-12 49-29l28 8c-11 28-37 45-77 45C44 4 14-33 15-96c1-61 26-98 85-98zm52 81c6-60-76-77-97-28-3 7-6 17-6 28h103" id="ag"/><path d="M108 0H70L1-190h34L89-25l56-165h34" id="ah"/><path d="M96-169c-40 0-48 33-48 73s9 75 48 75c24 0 41-14 43-38l32 2c-6 37-31 61-74 61-59 0-76-41-82-99-10-93 101-131 147-64 4 7 5 14 7 22l-32 3c-4-21-16-35-41-35" id="ai"/><g id="e"><use transform="matrix(0.05,0,0,0.05,0,0)" xlink:href="#ae"/><use transform="matrix(0.05,0,0,0.05,5,0)" xlink:href="#M"/><use transform="matrix(0.05,0,0,0.05,17,0)" xlink:href="#W"/><use transform="matrix(0.05,0,0,0.05,20.95,0)" xlink:href="#X"/><use transform="matrix(0.05,0,0,0.05,24.9,0)" xlink:href="#S"/><use transform="matrix(0.05,0,0,0.05,34.9,0)" xlink:href="#Y"/><use transform="matrix(0.05,0,0,0.05,43.9,0)" xlink:href="#af"/><use transform="matrix(0.05,0,0,0.05,55.900000000000006,0)" xlink:href="#ag"/><use transform="matrix(0.05,0,0,0.05,65.9,0)" xlink:href="#R"/><use transform="matrix(0.05,0,0,0.05,71.85000000000001,0)" xlink:href="#ah"/><use transform="matrix(0.05,0,0,0.05,80.85000000000001,0)" xlink:href="#X"/><use transform="matrix(0.05,0,0,0.05,84.80000000000001,0)" xlink:href="#ai"/><use transform="matrix(0.05,0,0,0.05,93.80000000000001,0)" xlink:href="#ag"/><path d="M-.9 1.25h105.6v1.32H-.9z"/></g><path fill="#333" d="M186 0v-106H76V0H24v-248h52v99h110v-99h50V0h-50" id="aj"/><path fill="#333" d="M115-3C79 11 28 4 28-45v-112H4v-33h27l15-45h31v45h36v33H77v99c-1 23 16 31 38 25v30" id="ak"/><path fill="#333" d="M135-194c53 0 70 44 70 98 0 56-19 98-73 100-31 1-45-17-59-34 3 33 2 69 2 105H25l-1-265h48c2 10 0 23 3 31 11-24 29-35 60-35zM114-30c33 0 39-31 40-66 0-38-9-64-40-64-56 0-55 130 0 130" id="al"/><path fill="#333" d="M240-174c0 40-23 61-54 70L253 0h-59l-57-94H76V0H24v-248c93 4 217-23 216 74zM76-134c48-2 112 12 112-38 0-48-66-32-112-35v73" id="am"/><path fill="#333" d="M185-48c-13 30-37 53-82 52C43 2 14-33 14-96s30-98 90-98c62 0 83 45 84 108H66c0 31 8 55 39 56 18 0 30-7 34-22zm-45-69c5-46-57-63-70-21-2 6-4 13-4 21h74" id="an"/><path fill="#333" d="M84 4C32 4 15-41 15-95c0-55 18-99 73-99 29 0 47 12 58 34l2-30h48l-1 265h-49V-32C136-9 114 4 84 4zm21-34c32 0 41-29 41-66 0-36-9-64-40-64-33 0-39 30-40 65 0 43 13 65 39 65" id="ao"/><path fill="#333" d="M85 4C-2 5 27-109 22-190h50c7 57-23 150 33 157 60-5 35-97 40-157h50l1 190h-47c-2-12 1-28-3-38-12 25-28 42-61 42" id="ap"/><path fill="#333" d="M137-138c1-29-70-34-71-4 15 46 118 7 119 86 1 83-164 76-172 9l43-7c4 19 20 25 44 25 33 8 57-30 24-41C81-84 22-81 20-136c-2-80 154-74 161-7" id="aq"/><g id="f"><use transform="matrix(0.049382716049382706,0,0,0.049382716049382706,0,0)" xlink:href="#aj"/><use transform="matrix(0.049382716049382706,0,0,0.049382716049382706,12.790123456790122,0)" xlink:href="#ak"/><use transform="matrix(0.049382716049382706,0,0,0.049382716049382706,18.666666666666664,0)" xlink:href="#ak"/><use transform="matrix(0.049382716049382706,0,0,0.049382716049382706,24.543209876543205,0)" xlink:href="#al"/><use transform="matrix(0.049382716049382706,0,0,0.049382716049382706,35.35802469135802,0)" xlink:href="#am"/><use transform="matrix(0.049382716049382706,0,0,0.049382716049382706,48.14814814814814,0)" xlink:href="#an"/><use transform="matrix(0.049382716049382706,0,0,0.049382716049382706,58.02469135802468,0)" xlink:href="#ao"/><use transform="matrix(0.049382716049382706,0,0,0.049382716049382706,68.83950617283949,0)" xlink:href="#ap"/><use transform="matrix(0.049382716049382706,0,0,0.049382716049382706,79.6543209876543,0)" xlink:href="#an"/><use transform="matrix(0.049382716049382706,0,0,0.049382716049382706,89.53086419753085,0)" xlink:href="#aq"/><use transform="matrix(0.049382716049382706,0,0,0.049382716049382706,99.40740740740739,0)" xlink:href="#ak"/></g><path fill="#333" d="M135-194c52 0 70 43 70 98 0 56-19 99-73 100-30 1-46-15-58-35L72 0H24l1-261h50v104c11-23 29-37 60-37zM114-30c31 0 40-27 40-66 0-37-7-63-39-63s-41 28-41 65c0 36 8 64 40 64" id="ar"/><path fill="#333" d="M25 0v-261h50V0H25" id="as"/><path fill="#333" d="M133-34C117-15 103 5 69 4 32 3 11-16 11-54c-1-60 55-63 116-61 1-26-3-47-28-47-18 1-26 9-28 27l-52-2c7-38 36-58 82-57s74 22 75 68l1 82c-1 14 12 18 25 15v27c-30 8-71 5-69-32zm-48 3c29 0 43-24 42-57-32 0-66-3-65 30 0 17 8 27 23 27" id="at"/><path fill="#333" d="M190-63c-7 42-38 67-86 67-59 0-84-38-90-98-12-110 154-137 174-36l-49 2c-2-19-15-32-35-32-30 0-35 28-38 64-6 74 65 87 74 30" id="au"/><path fill="#333" d="M147 0L96-86 75-71V0H25v-261h50v150l67-79h53l-66 74L201 0h-54" id="av"/><path fill="#333" d="M24 0v-248h52v208h133V0H24" id="aw"/><path fill="#333" d="M25-224v-37h50v37H25zM25 0v-190h50V0H25" id="ax"/><path fill="#333" d="M67-93c0 74 22 123 53 168H70C40 30 18-18 18-93s22-123 52-168h50c-32 44-53 94-53 168" id="ay"/><g id="g"><use transform="matrix(0.04938271604938272,0,0,0.04938271604938272,0,0)" xlink:href="#ar"/><use transform="matrix(0.04938271604938272,0,0,0.04938271604938272,10.814814814814815,0)" xlink:href="#as"/><use transform="matrix(0.04938271604938272,0,0,0.04938271604938272,15.753086419753087,0)" xlink:href="#at"/><use transform="matrix(0.04938271604938272,0,0,0.04938271604938272,25.629629629629633,0)" xlink:href="#au"/><use transform="matrix(0.04938271604938272,0,0,0.04938271604938272,35.50617283950618,0)" xlink:href="#av"/><use transform="matrix(0.04938271604938272,0,0,0.04938271604938272,45.38271604938272,0)" xlink:href="#aw"/><use transform="matrix(0.04938271604938272,0,0,0.04938271604938272,56.19753086419754,0)" xlink:href="#ax"/><use transform="matrix(0.04938271604938272,0,0,0.04938271604938272,61.13580246913581,0)" xlink:href="#aq"/><use transform="matrix(0.04938271604938272,0,0,0.04938271604938272,71.01234567901236,0)" xlink:href="#ak"/><use transform="matrix(0.04938271604938272,0,0,0.04938271604938272,76.8888888888889,0)" xlink:href="#ay"/><use transform="matrix(0.04938271604938272,0,0,0.04938271604938272,82.76543209876544,0)" xlink:href="#at"/><use transform="matrix(0.04938271604938272,0,0,0.04938271604938272,92.64197530864199,0)" xlink:href="#as"/><use transform="matrix(0.04938271604938272,0,0,0.04938271604938272,97.58024691358025,0)" xlink:href="#ax"/><use transform="matrix(0.04938271604938272,0,0,0.04938271604938272,102.51851851851853,0)" xlink:href="#at"/><use transform="matrix(0.04938271604938272,0,0,0.04938271604938272,112.39506172839508,0)" xlink:href="#aq"/></g><path fill="#333" d="M35-132v-50h50v50H35zM35 0v-49h50V0H35" id="az"/><use transform="matrix(0.04938271604938272,0,0,0.04938271604938272,0,0)" xlink:href="#az" id="h"/><path fill="#333" d="M169-182c-1-43-94-46-97-3 18 66 151 10 154 114 3 95-165 93-204 36-6-8-10-19-12-30l50-8c3 46 112 56 116 5-17-69-150-10-154-114-4-87 153-88 188-35 5 8 8 18 10 28" id="aA"/><path fill="#333" d="M135-150c-39-12-60 13-60 57V0H25l-1-190h47c2 13-1 29 3 40 6-28 27-53 61-41v41" id="aB"/><path fill="#333" d="M135-194c87-1 58 113 63 194h-50c-7-57 23-157-34-157-59 0-34 97-39 157H25l-1-190h47c2 12-1 28 3 38 12-26 28-41 61-42" id="aC"/><path fill="#333" d="M195-6C206 82 75 100 31 46c-4-6-6-13-8-21l49-6c3 16 16 24 34 25 40 0 42-37 40-79-11 22-30 35-61 35-53 0-70-43-70-97 0-56 18-96 73-97 30 0 46 14 59 34l2-30h47zm-90-29c32 0 41-27 41-63 0-35-9-62-40-62-32 0-39 29-40 63 0 36 9 62 39 62" id="aD"/><path fill="#333" d="M102-93c0 74-22 123-52 168H0C30 29 54-18 53-93c0-74-22-123-53-168h50c30 45 52 94 52 168" id="aE"/><g id="i"><use transform="matrix(0.04938271604938272,0,0,0.04938271604938272,0,0)" xlink:href="#aA"/><use transform="matrix(0.04938271604938272,0,0,0.04938271604938272,11.851851851851853,0)" xlink:href="#ak"/><use transform="matrix(0.04938271604938272,0,0,0.04938271604938272,17.728395061728396,0)" xlink:href="#aB"/><use transform="matrix(0.04938271604938272,0,0,0.04938271604938272,24.641975308641975,0)" xlink:href="#ax"/><use transform="matrix(0.04938271604938272,0,0,0.04938271604938272,29.58024691358025,0)" xlink:href="#aC"/><use transform="matrix(0.04938271604938272,0,0,0.04938271604938272,40.39506172839506,0)" xlink:href="#aD"/><use transform="matrix(0.04938271604938272,0,0,0.04938271604938272,51.20987654320988,0)" xlink:href="#aE"/></g><path fill="#333" d="M220-157c-53 9-28 100-34 157h-49v-107c1-27-5-49-29-50C55-147 81-57 75 0H25l-1-190h47c2 12-1 28 3 38 10-53 101-56 108 0 13-22 24-43 59-42 82 1 51 116 57 194h-49v-107c-1-25-5-48-29-50" id="aF"/><path fill="#333" d="M110-194c64 0 96 36 96 99 0 64-35 99-97 99-61 0-95-36-95-99 0-62 34-99 96-99zm-1 164c35 0 45-28 45-65 0-40-10-65-43-65-34 0-45 26-45 65 0 36 10 65 43 65" id="aG"/><path fill="#333" d="M128 0H69L1-190h53L99-40l48-150h52" id="aH"/><path fill="#333" d="M199 0l-22-63H83L61 0H9l90-248h61L250 0h-51zm-33-102l-36-108c-10 38-24 72-36 108h72" id="aI"/><g id="j"><use transform="matrix(0.04938271604938272,0,0,0.04938271604938272,0,0)" xlink:href="#aB"/><use transform="matrix(0.04938271604938272,0,0,0.04938271604938272,6.913580246913581,0)" xlink:href="#an"/><use transform="matrix(0.04938271604938272,0,0,0.04938271604938272,16.790123456790127,0)" xlink:href="#aF"/><use transform="matrix(0.04938271604938272,0,0,0.04938271604938272,32.592592592592595,0)" xlink:href="#aG"/><use transform="matrix(0.04938271604938272,0,0,0.04938271604938272,43.40740740740741,0)" xlink:href="#aH"/><use transform="matrix(0.04938271604938272,0,0,0.04938271604938272,53.283950617283956,0)" xlink:href="#an"/><use transform="matrix(0.04938271604938272,0,0,0.04938271604938272,63.1604938271605,0)" xlink:href="#aI"/><use transform="matrix(0.04938271604938272,0,0,0.04938271604938272,75.95061728395062,0)" xlink:href="#as"/><use transform="matrix(0.04938271604938272,0,0,0.04938271604938272,80.88888888888889,0)" xlink:href="#ax"/><use transform="matrix(0.04938271604938272,0,0,0.04938271604938272,85.82716049382717,0)" xlink:href="#at"/><use transform="matrix(0.04938271604938272,0,0,0.04938271604938272,95.70370370370371,0)" xlink:href="#aq"/><use transform="matrix(0.04938271604938272,0,0,0.04938271604938272,105.58024691358025,0)" xlink:href="#ay"/><use transform="matrix(0.04938271604938272,0,0,0.04938271604938272,111.4567901234568,0)" xlink:href="#at"/><use transform="matrix(0.04938271604938272,0,0,0.04938271604938272,121.33333333333334,0)" xlink:href="#as"/><use transform="matrix(0.04938271604938272,0,0,0.04938271604938272,126.27160493827162,0)" xlink:href="#ax"/><use transform="matrix(0.04938271604938272,0,0,0.04938271604938272,131.2098765432099,0)" xlink:href="#at"/><use transform="matrix(0.04938271604938272,0,0,0.04938271604938272,141.08641975308643,0)" xlink:href="#aq"/></g><path d="M233-177c-1 41-23 64-60 70L243 0h-38l-65-103H63V0H30v-248c88 3 205-21 203 71zM63-129c60-2 137 13 137-47 0-61-80-42-137-45v92" id="aJ"/><path d="M179-190L93 31C79 59 56 82 12 73V49c39 6 53-20 64-50L1-190h34L92-34l54-156h33" id="aK"/><g id="k"><use transform="matrix(0.05,0,0,0.05,0,0)" xlink:href="#ae"/><use transform="matrix(0.05,0,0,0.05,5,0)" xlink:href="#M"/><use transform="matrix(0.05,0,0,0.05,17,0)" xlink:href="#W"/><use transform="matrix(0.05,0,0,0.05,20.95,0)" xlink:href="#X"/><use transform="matrix(0.05,0,0,0.05,24.9,0)" xlink:href="#S"/><use transform="matrix(0.05,0,0,0.05,34.9,0)" xlink:href="#Y"/><use transform="matrix(0.05,0,0,0.05,43.9,0)" xlink:href="#aJ"/><use transform="matrix(0.05,0,0,0.05,56.85,0)" xlink:href="#ag"/><use transform="matrix(0.05,0,0,0.05,66.85,0)" xlink:href="#T"/><use transform="matrix(0.05,0,0,0.05,76.85,0)" xlink:href="#ac"/><use transform="matrix(0.05,0,0,0.05,86.85,0)" xlink:href="#Y"/><use transform="matrix(0.05,0,0,0.05,95.85,0)" xlink:href="#X"/><use transform="matrix(0.05,0,0,0.05,99.8,0)" xlink:href="#ab"/><use transform="matrix(0.05,0,0,0.05,104.80000000000001,0)" xlink:href="#ac"/><use transform="matrix(0.05,0,0,0.05,114.80000000000001,0)" xlink:href="#R"/><use transform="matrix(0.05,0,0,0.05,120.75,0)" xlink:href="#aK"/><path d="M-.9 1.25h131.55v1.32H-.9z"/></g><path fill="#333" d="M88-194c31-1 46 15 58 34l-1-101h50l1 261h-48c-2-10 0-23-3-31C134-8 116 4 84 4 32 4 16-41 15-95c0-56 19-97 73-99zm17 164c33 0 40-30 41-66 1-37-9-64-41-64s-38 30-39 65c0 43 13 65 39 65" id="aL"/><path fill="#333" d="M182-130c37 4 62 22 62 59C244 23 116-4 24 0v-248c84 5 203-23 205 63 0 31-19 50-47 55zM76-148c40-3 101 13 101-30 0-44-60-28-101-31v61zm0 110c48-3 116 14 116-37 0-48-69-32-116-35v72" id="aM"/><path fill="#333" d="M123 10C108 53 80 86 19 72V37c35 8 53-11 59-39L3-190h52l48 148c12-52 28-100 44-148h51" id="aN"/><path fill="#333" d="M175 0L67-191c6 58 2 128 3 191H24v-248h59L193-55c-6-58-2-129-3-193h46V0h-61" id="aO"/><g id="l"><use transform="matrix(0.04938271604938272,0,0,0.04938271604938272,0,0)" xlink:href="#aL"/><use transform="matrix(0.04938271604938272,0,0,0.04938271604938272,10.814814814814815,0)" xlink:href="#an"/><use transform="matrix(0.04938271604938272,0,0,0.04938271604938272,20.69135802469136,0)" xlink:href="#as"/><use transform="matrix(0.04938271604938272,0,0,0.04938271604938272,25.629629629629633,0)" xlink:href="#an"/><use transform="matrix(0.04938271604938272,0,0,0.04938271604938272,35.50617283950618,0)" xlink:href="#ak"/><use transform="matrix(0.04938271604938272,0,0,0.04938271604938272,41.38271604938272,0)" xlink:href="#an"/><use transform="matrix(0.04938271604938272,0,0,0.04938271604938272,51.25925925925927,0)" xlink:href="#aM"/><use transform="matrix(0.04938271604938272,0,0,0.04938271604938272,64.0493827160494,0)" xlink:href="#aN"/><use transform="matrix(0.04938271604938272,0,0,0.04938271604938272,73.92592592592594,0)" xlink:href="#aO"/><use transform="matrix(0.04938271604938272,0,0,0.04938271604938272,86.71604938271606,0)" xlink:href="#at"/><use transform="matrix(0.04938271604938272,0,0,0.04938271604938272,96.59259259259261,0)" xlink:href="#aF"/><use transform="matrix(0.04938271604938272,0,0,0.04938271604938272,112.39506172839508,0)" xlink:href="#an"/><use transform="matrix(0.04938271604938272,0,0,0.04938271604938272,122.27160493827162,0)" xlink:href="#ay"/><use transform="matrix(0.04938271604938272,0,0,0.04938271604938272,128.14814814814815,0)" xlink:href="#at"/><use transform="matrix(0.04938271604938272,0,0,0.04938271604938272,138.0246913580247,0)" xlink:href="#as"/><use transform="matrix(0.04938271604938272,0,0,0.04938271604938272,142.962962962963,0)" xlink:href="#ax"/><use transform="matrix(0.04938271604938272,0,0,0.04938271604938272,147.90123456790127,0)" xlink:href="#at"/><use transform="matrix(0.04938271604938272,0,0,0.04938271604938272,157.77777777777783,0)" xlink:href="#aq"/></g><g id="m"><use transform="matrix(0.05,0,0,0.05,0,0)" xlink:href="#ae"/><use transform="matrix(0.05,0,0,0.05,5,0)" xlink:href="#M"/><use transform="matrix(0.05,0,0,0.05,17,0)" xlink:href="#W"/><use transform="matrix(0.05,0,0,0.05,20.95,0)" xlink:href="#X"/><use transform="matrix(0.05,0,0,0.05,24.9,0)" xlink:href="#S"/><use transform="matrix(0.05,0,0,0.05,34.9,0)" xlink:href="#Y"/><use transform="matrix(0.05,0,0,0.05,43.9,0)" xlink:href="#af"/><use transform="matrix(0.05,0,0,0.05,55.900000000000006,0)" xlink:href="#aa"/><use transform="matrix(0.05,0,0,0.05,65.9,0)" xlink:href="#Q"/><use transform="matrix(0.05,0,0,0.05,75.9,0)" xlink:href="#Q"/><use transform="matrix(0.05,0,0,0.05,85.9,0)" xlink:href="#ag"/><use transform="matrix(0.05,0,0,0.05,95.9,0)" xlink:href="#Y"/><use transform="matrix(0.05,0,0,0.05,104.9,0)" xlink:href="#ab"/><use transform="matrix(0.05,0,0,0.05,109.9,0)" xlink:href="#X"/><use transform="matrix(0.05,0,0,0.05,113.85000000000001,0)" xlink:href="#ac"/><use transform="matrix(0.05,0,0,0.05,123.85000000000001,0)" xlink:href="#ad"/><use transform="matrix(0.05,0,0,0.05,133.85000000000002,0)" xlink:href="#af"/><use transform="matrix(0.05,0,0,0.05,145.85000000000002,0)" xlink:href="#ag"/><use transform="matrix(0.05,0,0,0.05,155.85000000000002,0)" xlink:href="#R"/><use transform="matrix(0.05,0,0,0.05,161.8,0)" xlink:href="#ah"/><use transform="matrix(0.05,0,0,0.05,170.8,0)" xlink:href="#X"/><use transform="matrix(0.05,0,0,0.05,174.75,0)" xlink:href="#ai"/><use transform="matrix(0.05,0,0,0.05,183.75,0)" xlink:href="#ag"/><path d="M-.9 1.25h195.55v1.32H-.9z"/></g><path fill="#333" d="M33-154v-36h34v36H33zM33 0v-36h34V0H33" id="aP"/><path fill="#333" d="M205 0l-28-72H64L36 0H1l101-248h38L239 0h-34zm-38-99l-47-123c-12 45-31 82-46 123h93" id="aQ"/><path fill="#333" d="M24 0v-261h32V0H24" id="aR"/><path fill="#333" d="M24-231v-30h32v30H24zM24 0v-190h32V0H24" id="aS"/><path fill="#333" d="M141-36C126-15 110 5 73 4 37 3 15-17 15-53c-1-64 63-63 125-63 3-35-9-54-41-54-24 1-41 7-42 31l-33-3c5-37 33-52 76-52 45 0 72 20 72 64v82c-1 20 7 32 28 27v20c-31 9-61-2-59-35zM48-53c0 20 12 33 32 33 41-3 63-29 60-74-43 2-92-5-92 41" id="aT"/><path fill="#333" d="M185-189c-5-48-123-54-124 2 14 75 158 14 163 119 3 78-121 87-175 55-17-10-28-26-33-46l33-7c5 56 141 63 141-1 0-78-155-14-162-118-5-82 145-84 179-34 5 7 8 16 11 25" id="aU"/><path fill="#333" d="M177-190C167-65 218 103 67 71c-23-6-38-20-44-43l32-5c15 47 100 32 89-28v-30C133-14 115 1 83 1 29 1 15-40 15-95c0-56 16-97 71-98 29-1 48 16 59 35 1-10 0-23 2-32h30zM94-22c36 0 50-32 50-73 0-42-14-75-50-75-39 0-46 34-46 75s6 73 46 73" id="aV"/><path fill="#333" d="M117-194c89-4 53 116 60 194h-32v-121c0-31-8-49-39-48C34-167 62-67 57 0H25l-1-190h30c1 10-1 24 2 32 11-22 29-35 61-36" id="aW"/><path fill="#333" d="M233-177c-1 41-23 64-60 70L243 0h-38l-65-103H63V0H30v-248c88 3 205-21 203 71zM63-129c60-2 137 13 137-47 0-61-80-42-137-45v92" id="aX"/><path fill="#333" d="M114-163C36-179 61-72 57 0H25l-1-190h30c1 12-1 29 2 39 6-27 23-49 58-41v29" id="aY"/><path fill="#333" d="M179-190L93 31C79 59 56 82 12 73V49c39 6 53-20 64-50L1-190h34L92-34l54-156h33" id="aZ"/><g id="n"><use transform="matrix(0.049382716049382706,0,0,0.049382716049382706,0,0)" xlink:href="#aP"/><use transform="matrix(0.049382716049382706,0,0,0.049382716049382706,4.93827160493827,0)" xlink:href="#aQ"/><use transform="matrix(0.049382716049382706,0,0,0.049382716049382706,16.79012345679012,0)" xlink:href="#aR"/><use transform="matrix(0.049382716049382706,0,0,0.049382716049382706,20.691358024691354,0)" xlink:href="#aS"/><use transform="matrix(0.049382716049382706,0,0,0.049382716049382706,24.592592592592588,0)" xlink:href="#aT"/><use transform="matrix(0.049382716049382706,0,0,0.049382716049382706,34.469135802469125,0)" xlink:href="#H"/><use transform="matrix(0.049382716049382706,0,0,0.049382716049382706,43.35802469135801,0)" xlink:href="#aU"/><use transform="matrix(0.049382716049382706,0,0,0.049382716049382706,55.20987654320985,0)" xlink:href="#I"/><use transform="matrix(0.049382716049382706,0,0,0.049382716049382706,65.0864197530864,0)" xlink:href="#aV"/><use transform="matrix(0.049382716049382706,0,0,0.049382716049382706,74.96296296296295,0)" xlink:href="#aV"/><use transform="matrix(0.049382716049382706,0,0,0.049382716049382706,84.83950617283949,0)" xlink:href="#K"/><use transform="matrix(0.049382716049382706,0,0,0.049382716049382706,94.71604938271604,0)" xlink:href="#H"/><use transform="matrix(0.049382716049382706,0,0,0.049382716049382706,103.60493827160492,0)" xlink:href="#F"/><use transform="matrix(0.049382716049382706,0,0,0.049382716049382706,108.54320987654319,0)" xlink:href="#aS"/><use transform="matrix(0.049382716049382706,0,0,0.049382716049382706,112.44444444444443,0)" xlink:href="#D"/><use transform="matrix(0.049382716049382706,0,0,0.049382716049382706,122.32098765432096,0)" xlink:href="#aW"/><use transform="matrix(0.049382716049382706,0,0,0.049382716049382706,132.1975308641975,0)" xlink:href="#aX"/><use transform="matrix(0.049382716049382706,0,0,0.049382716049382706,144.98765432098762,0)" xlink:href="#K"/><use transform="matrix(0.049382716049382706,0,0,0.049382716049382706,154.86419753086415,0)" xlink:href="#E"/><use transform="matrix(0.049382716049382706,0,0,0.049382716049382706,164.74074074074068,0)" xlink:href="#D"/><use transform="matrix(0.049382716049382706,0,0,0.049382716049382706,174.6172839506172,0)" xlink:href="#H"/><use transform="matrix(0.049382716049382706,0,0,0.049382716049382706,183.5061728395061,0)" xlink:href="#aS"/><use transform="matrix(0.049382716049382706,0,0,0.049382716049382706,187.40740740740733,0)" xlink:href="#F"/><use transform="matrix(0.049382716049382706,0,0,0.049382716049382706,192.3456790123456,0)" xlink:href="#D"/><use transform="matrix(0.049382716049382706,0,0,0.049382716049382706,202.22222222222214,0)" xlink:href="#aY"/><use transform="matrix(0.049382716049382706,0,0,0.049382716049382706,208.09876543209867,0)" xlink:href="#aZ"/><path fill="#333" d="M-.9 1.23H217.9v1.3H-.9z"/></g><g id="o"><use transform="matrix(0.04938271604938272,0,0,0.04938271604938272,0,0)" xlink:href="#aB"/><use transform="matrix(0.04938271604938272,0,0,0.04938271604938272,6.913580246913581,0)" xlink:href="#an"/><use transform="matrix(0.04938271604938272,0,0,0.04938271604938272,16.790123456790127,0)" xlink:href="#aF"/><use transform="matrix(0.04938271604938272,0,0,0.04938271604938272,32.592592592592595,0)" xlink:href="#aG"/><use transform="matrix(0.04938271604938272,0,0,0.04938271604938272,43.40740740740741,0)" xlink:href="#aH"/><use transform="matrix(0.04938271604938272,0,0,0.04938271604938272,53.283950617283956,0)" xlink:href="#an"/><use transform="matrix(0.04938271604938272,0,0,0.04938271604938272,63.1604938271605,0)" xlink:href="#aI"/><use transform="matrix(0.04938271604938272,0,0,0.04938271604938272,75.95061728395062,0)" xlink:href="#as"/><use transform="matrix(0.04938271604938272,0,0,0.04938271604938272,80.88888888888889,0)" xlink:href="#ax"/><use transform="matrix(0.04938271604938272,0,0,0.04938271604938272,85.82716049382717,0)" xlink:href="#at"/><use transform="matrix(0.04938271604938272,0,0,0.04938271604938272,95.70370370370371,0)" xlink:href="#aq"/><use transform="matrix(0.04938271604938272,0,0,0.04938271604938272,105.58024691358025,0)" xlink:href="#aA"/><use transform="matrix(0.04938271604938272,0,0,0.04938271604938272,117.43209876543212,0)" xlink:href="#ap"/><use transform="matrix(0.04938271604938272,0,0,0.04938271604938272,128.2469135802469,0)" xlink:href="#aD"/><use transform="matrix(0.04938271604938272,0,0,0.04938271604938272,139.06172839506172,0)" xlink:href="#aD"/><use transform="matrix(0.04938271604938272,0,0,0.04938271604938272,149.87654320987653,0)" xlink:href="#an"/><use transform="matrix(0.04938271604938272,0,0,0.04938271604938272,159.75308641975306,0)" xlink:href="#aq"/><use transform="matrix(0.04938271604938272,0,0,0.04938271604938272,169.62962962962962,0)" xlink:href="#ak"/><use transform="matrix(0.04938271604938272,0,0,0.04938271604938272,175.50617283950615,0)" xlink:href="#ax"/><use transform="matrix(0.04938271604938272,0,0,0.04938271604938272,180.44444444444443,0)" xlink:href="#aG"/><use transform="matrix(0.04938271604938272,0,0,0.04938271604938272,191.25925925925924,0)" xlink:href="#aC"/><use transform="matrix(0.04938271604938272,0,0,0.04938271604938272,202.07407407407405,0)" xlink:href="#ay"/><use transform="matrix(0.04938271604938272,0,0,0.04938271604938272,207.95061728395058,0)" xlink:href="#at"/><use transform="matrix(0.04938271604938272,0,0,0.04938271604938272,217.82716049382714,0)" xlink:href="#as"/><use transform="matrix(0.04938271604938272,0,0,0.04938271604938272,222.76543209876542,0)" xlink:href="#ax"/><use transform="matrix(0.04938271604938272,0,0,0.04938271604938272,227.70370370370367,0)" xlink:href="#at"/><use transform="matrix(0.04938271604938272,0,0,0.04938271604938272,237.58024691358025,0)" xlink:href="#aq"/></g><g id="p"><use transform="matrix(0.04938271604938272,0,0,0.04938271604938272,0,0)" xlink:href="#aL"/><use transform="matrix(0.04938271604938272,0,0,0.04938271604938272,10.814814814814815,0)" xlink:href="#an"/><use transform="matrix(0.04938271604938272,0,0,0.04938271604938272,20.69135802469136,0)" xlink:href="#as"/><use transform="matrix(0.04938271604938272,0,0,0.04938271604938272,25.629629629629633,0)" xlink:href="#an"/><use transform="matrix(0.04938271604938272,0,0,0.04938271604938272,35.50617283950618,0)" xlink:href="#ak"/><use transform="matrix(0.04938271604938272,0,0,0.04938271604938272,41.38271604938272,0)" xlink:href="#an"/><use transform="matrix(0.04938271604938272,0,0,0.04938271604938272,51.25925925925927,0)" xlink:href="#aM"/><use transform="matrix(0.04938271604938272,0,0,0.04938271604938272,64.0493827160494,0)" xlink:href="#aN"/><use transform="matrix(0.04938271604938272,0,0,0.04938271604938272,73.92592592592594,0)" xlink:href="#aI"/><use transform="matrix(0.04938271604938272,0,0,0.04938271604938272,86.71604938271606,0)" xlink:href="#as"/><use transform="matrix(0.04938271604938272,0,0,0.04938271604938272,91.65432098765433,0)" xlink:href="#ax"/><use transform="matrix(0.04938271604938272,0,0,0.04938271604938272,96.59259259259261,0)" xlink:href="#at"/><use transform="matrix(0.04938271604938272,0,0,0.04938271604938272,106.46913580246914,0)" xlink:href="#aq"/><use transform="matrix(0.04938271604938272,0,0,0.04938271604938272,116.34567901234568,0)" xlink:href="#ay"/><use transform="matrix(0.04938271604938272,0,0,0.04938271604938272,122.22222222222223,0)" xlink:href="#at"/><use transform="matrix(0.04938271604938272,0,0,0.04938271604938272,132.0987654320988,0)" xlink:href="#as"/><use transform="matrix(0.04938271604938272,0,0,0.04938271604938272,137.03703703703707,0)" xlink:href="#ax"/><use transform="matrix(0.04938271604938272,0,0,0.04938271604938272,141.97530864197535,0)" xlink:href="#at"/><use transform="matrix(0.04938271604938272,0,0,0.04938271604938272,151.8518518518519,0)" xlink:href="#aq"/></g><g id="r"><use transform="matrix(0.04938271604938272,0,0,0.04938271604938272,0,0)" xlink:href="#aq"/><use transform="matrix(0.04938271604938272,0,0,0.04938271604938272,9.876543209876544,0)" xlink:href="#ap"/><use transform="matrix(0.04938271604938272,0,0,0.04938271604938272,20.69135802469136,0)" xlink:href="#au"/><use transform="matrix(0.04938271604938272,0,0,0.04938271604938272,30.567901234567906,0)" xlink:href="#au"/><use transform="matrix(0.04938271604938272,0,0,0.04938271604938272,40.44444444444445,0)" xlink:href="#an"/><use transform="matrix(0.04938271604938272,0,0,0.04938271604938272,50.320987654320994,0)" xlink:href="#aq"/><use transform="matrix(0.04938271604938272,0,0,0.04938271604938272,60.19753086419754,0)" xlink:href="#aq"/></g><path d="M160-131c35 5 61 23 61 61C221 17 115-2 30 0v-248c76 3 177-17 177 60 0 33-19 50-47 57zm-97-11c50-1 110 9 110-42 0-47-63-36-110-37v79zm0 115c55-2 124 14 124-45 0-56-70-42-124-44v89" id="ba"/><path d="M143 0L79-87 56-68V0H24v-261h32v163l83-92h37l-77 82L181 0h-38" id="bb"/><path d="M30 0v-248h33v221h125V0H30" id="bc"/><g id="s"><use transform="matrix(0.05,0,0,0.05,0,0)" xlink:href="#ae"/><use transform="matrix(0.05,0,0,0.05,5,0)" xlink:href="#ba"/><use transform="matrix(0.05,0,0,0.05,17,0)" xlink:href="#W"/><use transform="matrix(0.05,0,0,0.05,20.95,0)" xlink:href="#S"/><use transform="matrix(0.05,0,0,0.05,30.950000000000003,0)" xlink:href="#ai"/><use transform="matrix(0.05,0,0,0.05,39.95,0)" xlink:href="#bb"/><use transform="matrix(0.05,0,0,0.05,48.95,0)" xlink:href="#bc"/><use transform="matrix(0.05,0,0,0.05,58.95,0)" xlink:href="#X"/><use transform="matrix(0.05,0,0,0.05,62.900000000000006,0)" xlink:href="#Y"/><use transform="matrix(0.05,0,0,0.05,71.9,0)" xlink:href="#ab"/><use transform="matrix(0.05,0,0,0.05,76.9,0)" xlink:href="#af"/><use transform="matrix(0.05,0,0,0.05,88.9,0)" xlink:href="#ag"/><use transform="matrix(0.05,0,0,0.05,98.9,0)" xlink:href="#R"/><use transform="matrix(0.05,0,0,0.05,104.85000000000001,0)" xlink:href="#ah"/><use transform="matrix(0.05,0,0,0.05,113.85000000000001,0)" xlink:href="#X"/><use transform="matrix(0.05,0,0,0.05,117.80000000000001,0)" xlink:href="#ai"/><use transform="matrix(0.05,0,0,0.05,126.80000000000001,0)" xlink:href="#ag"/><path d="M-.9 1.25h138.6v1.32H-.9z"/></g><g id="t"><use transform="matrix(0.05,0,0,0.05,0,0)" xlink:href="#ae"/><use transform="matrix(0.05,0,0,0.05,5,0)" xlink:href="#ba"/><use transform="matrix(0.05,0,0,0.05,17,0)" xlink:href="#W"/><use transform="matrix(0.05,0,0,0.05,20.95,0)" xlink:href="#S"/><use transform="matrix(0.05,0,0,0.05,30.950000000000003,0)" xlink:href="#ai"/><use transform="matrix(0.05,0,0,0.05,39.95,0)" xlink:href="#bb"/><use transform="matrix(0.05,0,0,0.05,48.95,0)" xlink:href="#bc"/><use transform="matrix(0.05,0,0,0.05,58.95,0)" xlink:href="#X"/><use transform="matrix(0.05,0,0,0.05,62.900000000000006,0)" xlink:href="#Y"/><use transform="matrix(0.05,0,0,0.05,71.9,0)" xlink:href="#ab"/><use transform="matrix(0.05,0,0,0.05,76.9,0)" xlink:href="#aJ"/><use transform="matrix(0.05,0,0,0.05,89.85000000000001,0)" xlink:href="#ag"/><use transform="matrix(0.05,0,0,0.05,99.85000000000001,0)" xlink:href="#T"/><use transform="matrix(0.05,0,0,0.05,109.85000000000001,0)" xlink:href="#ac"/><use transform="matrix(0.05,0,0,0.05,119.85000000000001,0)" xlink:href="#Y"/><use transform="matrix(0.05,0,0,0.05,128.85000000000002,0)" xlink:href="#X"/><use transform="matrix(0.05,0,0,0.05,132.8,0)" xlink:href="#ab"/><use transform="matrix(0.05,0,0,0.05,137.8,0)" xlink:href="#ac"/><use transform="matrix(0.05,0,0,0.05,147.8,0)" xlink:href="#R"/><use transform="matrix(0.05,0,0,0.05,153.75,0)" xlink:href="#aK"/><path d="M-.9 1.25h164.55v1.32H-.9z"/></g><g id="u"><use transform="matrix(0.049382716049382706,0,0,0.049382716049382706,0,0)" xlink:href="#ax"/><use transform="matrix(0.049382716049382706,0,0,0.049382716049382706,4.93827160493827,0)" xlink:href="#aq"/><use transform="matrix(0.049382716049382706,0,0,0.049382716049382706,14.814814814814811,0)" xlink:href="#aM"/><use transform="matrix(0.049382716049382706,0,0,0.049382716049382706,27.604938271604933,0)" xlink:href="#as"/><use transform="matrix(0.049382716049382706,0,0,0.049382716049382706,32.5432098765432,0)" xlink:href="#at"/><use transform="matrix(0.049382716049382706,0,0,0.049382716049382706,42.419753086419746,0)" xlink:href="#au"/><use transform="matrix(0.049382716049382706,0,0,0.049382716049382706,52.29629629629628,0)" xlink:href="#av"/><use transform="matrix(0.049382716049382706,0,0,0.049382716049382706,62.17283950617284,0)" xlink:href="#aw"/><use transform="matrix(0.049382716049382706,0,0,0.049382716049382706,72.98765432098764,0)" xlink:href="#ax"/><use transform="matrix(0.049382716049382706,0,0,0.049382716049382706,77.92592592592591,0)" xlink:href="#aq"/><use transform="matrix(0.049382716049382706,0,0,0.049382716049382706,87.80246913580245,0)" xlink:href="#ak"/><use transform="matrix(0.049382716049382706,0,0,0.049382716049382706,93.679012345679,0)" xlink:href="#an"/><use transform="matrix(0.049382716049382706,0,0,0.049382716049382706,103.55555555555553,0)" xlink:href="#aL"/><use transform="matrix(0.04938271604938272,0,0,0.04938271604938272,114.37037037037035,0)" xlink:href="#ay"/><use transform="matrix(0.04938271604938272,0,0,0.04938271604938272,120.2469135802469,0)" xlink:href="#at"/><use transform="matrix(0.04938271604938272,0,0,0.04938271604938272,130.12345679012344,0)" xlink:href="#as"/><use transform="matrix(0.04938271604938272,0,0,0.04938271604938272,135.06172839506172,0)" xlink:href="#ax"/><use transform="matrix(0.04938271604938272,0,0,0.04938271604938272,140,0)" xlink:href="#at"/><use transform="matrix(0.04938271604938272,0,0,0.04938271604938272,149.87654320987656,0)" xlink:href="#aq"/></g><use transform="matrix(0.04938271604938272,0,0,0.04938271604938272,0,0)" xlink:href="#az" id="v"/><path fill="#333" d="M121-226c-27-7-43 5-38 36h38v33H83V0H34v-157H6v-33h28c-9-59 32-81 87-68v32" id="bd"/><g id="w"><use transform="matrix(0.04938271604938272,0,0,0.04938271604938272,0,0)" xlink:href="#bd"/><use transform="matrix(0.04938271604938272,0,0,0.04938271604938272,5.8765432098765435,0)" xlink:href="#ax"/><use transform="matrix(0.04938271604938272,0,0,0.04938271604938272,10.814814814814817,0)" xlink:href="#aC"/><use transform="matrix(0.04938271604938272,0,0,0.04938271604938272,21.629629629629633,0)" xlink:href="#aL"/><use transform="matrix(0.04938271604938272,0,0,0.04938271604938272,32.44444444444445,0)" xlink:href="#aM"/><use transform="matrix(0.04938271604938272,0,0,0.04938271604938272,45.23456790123458,0)" xlink:href="#aN"/><use transform="matrix(0.04938271604938272,0,0,0.04938271604938272,55.111111111111114,0)" xlink:href="#aO"/><use transform="matrix(0.04938271604938272,0,0,0.04938271604938272,67.90123456790124,0)" xlink:href="#at"/><use transform="matrix(0.04938271604938272,0,0,0.04938271604938272,77.77777777777779,0)" xlink:href="#aF"/><use transform="matrix(0.04938271604938272,0,0,0.04938271604938272,93.58024691358025,0)" xlink:href="#an"/><use transform="matrix(0.04938271604938272,0,0,0.04938271604938272,103.4567901234568,0)" xlink:href="#ay"/><use transform="matrix(0.04938271604938272,0,0,0.04938271604938272,109.33333333333334,0)" xlink:href="#at"/><use transform="matrix(0.04938271604938272,0,0,0.04938271604938272,119.20987654320989,0)" xlink:href="#as"/><use transform="matrix(0.04938271604938272,0,0,0.04938271604938272,124.14814814814815,0)" xlink:href="#ax"/><use transform="matrix(0.04938271604938272,0,0,0.04938271604938272,129.08641975308643,0)" xlink:href="#at"/><use transform="matrix(0.04938271604938272,0,0,0.04938271604938272,138.962962962963,0)" xlink:href="#aq"/></g><g id="x"><use transform="matrix(0.04938271604938272,0,0,0.04938271604938272,0,0)" xlink:href="#aj"/><use transform="matrix(0.04938271604938272,0,0,0.04938271604938272,12.790123456790125,0)" xlink:href="#ak"/><use transform="matrix(0.04938271604938272,0,0,0.04938271604938272,18.666666666666668,0)" xlink:href="#ak"/><use transform="matrix(0.04938271604938272,0,0,0.04938271604938272,24.543209876543212,0)" xlink:href="#al"/><use transform="matrix(0.04938271604938272,0,0,0.04938271604938272,35.358024691358025,0)" xlink:href="#am"/><use transform="matrix(0.04938271604938272,0,0,0.04938271604938272,48.14814814814815,0)" xlink:href="#an"/><use transform="matrix(0.04938271604938272,0,0,0.04938271604938272,58.0246913580247,0)" xlink:href="#aq"/><use transform="matrix(0.04938271604938272,0,0,0.04938271604938272,67.90123456790124,0)" xlink:href="#al"/><use transform="matrix(0.04938271604938272,0,0,0.04938271604938272,78.71604938271605,0)" xlink:href="#aG"/><use transform="matrix(0.04938271604938272,0,0,0.04938271604938272,89.53086419753086,0)" xlink:href="#aC"/><use transform="matrix(0.04938271604938272,0,0,0.04938271604938272,100.34567901234567,0)" xlink:href="#aq"/><use transform="matrix(0.04938271604938272,0,0,0.04938271604938272,110.22222222222221,0)" xlink:href="#an"/></g><g id="y"><use transform="matrix(0.04938271604938272,0,0,0.04938271604938272,0,0)" xlink:href="#aq"/><use transform="matrix(0.04938271604938272,0,0,0.04938271604938272,9.876543209876544,0)" xlink:href="#ap"/><use transform="matrix(0.04938271604938272,0,0,0.04938271604938272,20.69135802469136,0)" xlink:href="#au"/><use transform="matrix(0.04938271604938272,0,0,0.04938271604938272,30.567901234567906,0)" xlink:href="#au"/><use transform="matrix(0.04938271604938272,0,0,0.04938271604938272,40.44444444444445,0)" xlink:href="#an"/><use transform="matrix(0.04938271604938272,0,0,0.04938271604938272,50.320987654320994,0)" xlink:href="#aq"/><use transform="matrix(0.04938271604938272,0,0,0.04938271604938272,60.19753086419754,0)" xlink:href="#aq"/></g><g id="z"><use transform="matrix(0.04938271604938272,0,0,0.04938271604938272,0,0)" xlink:href="#aM"/><use transform="matrix(0.04938271604938272,0,0,0.04938271604938272,12.790123456790125,0)" xlink:href="#aG"/><use transform="matrix(0.04938271604938272,0,0,0.04938271604938272,23.60493827160494,0)" xlink:href="#aG"/><use transform="matrix(0.04938271604938272,0,0,0.04938271604938272,34.41975308641975,0)" xlink:href="#as"/><use transform="matrix(0.04938271604938272,0,0,0.04938271604938272,39.358024691358025,0)" xlink:href="#an"/><use transform="matrix(0.04938271604938272,0,0,0.04938271604938272,49.23456790123457,0)" xlink:href="#at"/><use transform="matrix(0.04938271604938272,0,0,0.04938271604938272,59.111111111111114,0)" xlink:href="#aC"/></g><path fill="#333" d="M136-208V0H84v-208H4v-40h212v40h-80" id="be"/><g id="A"><use transform="matrix(0.04938271604938272,0,0,0.04938271604938272,0,0)" xlink:href="#at"/><use transform="matrix(0.04938271604938272,0,0,0.04938271604938272,9.876543209876544,0)" xlink:href="#aL"/><use transform="matrix(0.04938271604938272,0,0,0.04938271604938272,20.69135802469136,0)" xlink:href="#aL"/><use transform="matrix(0.04938271604938272,0,0,0.04938271604938272,31.506172839506174,0)" xlink:href="#be"/><use transform="matrix(0.04938271604938272,0,0,0.04938271604938272,40.98765432098766,0)" xlink:href="#aG"/><use transform="matrix(0.04938271604938272,0,0,0.04938271604938272,51.802469135802475,0)" xlink:href="#aM"/><use transform="matrix(0.04938271604938272,0,0,0.04938271604938272,64.5925925925926,0)" xlink:href="#as"/><use transform="matrix(0.04938271604938272,0,0,0.04938271604938272,69.53086419753086,0)" xlink:href="#at"/><use transform="matrix(0.04938271604938272,0,0,0.04938271604938272,79.4074074074074,0)" xlink:href="#au"/><use transform="matrix(0.04938271604938272,0,0,0.04938271604938272,89.28395061728395,0)" xlink:href="#av"/><use transform="matrix(0.04938271604938272,0,0,0.04938271604938272,99.1604938271605,0)" xlink:href="#as"/><use transform="matrix(0.04938271604938272,0,0,0.04938271604938272,104.09876543209876,0)" xlink:href="#ax"/><use transform="matrix(0.04938271604938272,0,0,0.04938271604938272,109.03703703703705,0)" xlink:href="#aq"/><use transform="matrix(0.04938271604938272,0,0,0.04938271604938272,118.9135802469136,0)" xlink:href="#ak"/><use transform="matrix(0.04938271604938272,0,0,0.04938271604938272,124.79012345679013,0)" xlink:href="#ay"/><use transform="matrix(0.04938271604938272,0,0,0.04938271604938272,130.66666666666666,0)" xlink:href="#at"/><use transform="matrix(0.04938271604938272,0,0,0.04938271604938272,140.5432098765432,0)" xlink:href="#as"/><use transform="matrix(0.04938271604938272,0,0,0.04938271604938272,145.48148148148147,0)" xlink:href="#ax"/><use transform="matrix(0.04938271604938272,0,0,0.04938271604938272,150.41975308641975,0)" xlink:href="#at"/><use transform="matrix(0.04938271604938272,0,0,0.04938271604938272,160.2962962962963,0)" xlink:href="#aq"/></g><g id="B"><use transform="matrix(0.04938271604938272,0,0,0.04938271604938272,0,0)" xlink:href="#aq"/><use transform="matrix(0.04938271604938272,0,0,0.04938271604938272,9.876543209876544,0)" xlink:href="#at"/><use transform="matrix(0.04938271604938272,0,0,0.04938271604938272,19.75308641975309,0)" xlink:href="#aH"/><use transform="matrix(0.04938271604938272,0,0,0.04938271604938272,29.629629629629633,0)" xlink:href="#an"/><use transform="matrix(0.04938271604938272,0,0,0.04938271604938272,39.50617283950618,0)" xlink:href="#ay"/><use transform="matrix(0.04938271604938272,0,0,0.04938271604938272,45.38271604938272,0)" xlink:href="#at"/><use transform="matrix(0.04938271604938272,0,0,0.04938271604938272,55.25925925925927,0)" xlink:href="#as"/><use transform="matrix(0.04938271604938272,0,0,0.04938271604938272,60.19753086419754,0)" xlink:href="#ax"/><use transform="matrix(0.04938271604938272,0,0,0.04938271604938272,65.13580246913581,0)" xlink:href="#at"/><use transform="matrix(0.04938271604938272,0,0,0.04938271604938272,75.01234567901236,0)" xlink:href="#aq"/></g><path fill="#333" d="M24 0v-248h195v40H76v63h132v40H76v65h150V0H24" id="bf"/><g id="C"><use transform="matrix(0.04938271604938272,0,0,0.04938271604938272,0,0)" xlink:href="#aM"/><use transform="matrix(0.04938271604938272,0,0,0.04938271604938272,12.790123456790125,0)" xlink:href="#as"/><use transform="matrix(0.04938271604938272,0,0,0.04938271604938272,17.7283950617284,0)" xlink:href="#at"/><use transform="matrix(0.04938271604938272,0,0,0.04938271604938272,27.604938271604947,0)" xlink:href="#au"/><use transform="matrix(0.04938271604938272,0,0,0.04938271604938272,37.48148148148149,0)" xlink:href="#av"/><use transform="matrix(0.04938271604938272,0,0,0.04938271604938272,47.35802469135803,0)" xlink:href="#aw"/><use transform="matrix(0.04938271604938272,0,0,0.04938271604938272,58.17283950617284,0)" xlink:href="#ax"/><use transform="matrix(0.04938271604938272,0,0,0.04938271604938272,63.111111111111114,0)" xlink:href="#aq"/><use transform="matrix(0.04938271604938272,0,0,0.04938271604938272,72.98765432098767,0)" xlink:href="#ak"/><use transform="matrix(0.04938271604938272,0,0,0.04938271604938272,78.86419753086422,0)" xlink:href="#bf"/><use transform="matrix(0.04938271604938272,0,0,0.04938271604938272,90.71604938271606,0)" xlink:href="#aC"/><use transform="matrix(0.04938271604938272,0,0,0.04938271604938272,101.53086419753087,0)" xlink:href="#ak"/><use transform="matrix(0.04938271604938272,0,0,0.04938271604938272,107.40740740740742,0)" xlink:href="#aB"/><use transform="matrix(0.04938271604938272,0,0,0.04938271604938272,114.320987654321,0)" xlink:href="#aN"/><use transform="matrix(0.04938271604938272,0,0,0.04938271604938272,124.19753086419755,0)" xlink:href="#aE"/></g></defs></g></svg>