<svg xmlns="http://www.w3.org/2000/svg" xmlns:xlink="http://www.w3.org/1999/xlink" xmlns:lucid="lucid" width="2231" height="880"><g transform="translate(-709 1040)" lucid:page-tab-id="0_0"><path d="M0-1258.83h3677.73V64H0z" fill="#fff"/><path d="M1780-514c0-3.3 2.7-6 6-6h88c3.3 0 6 2.7 6 6v8c0 3.3-1.9 7.9-4.24 10.24l-1.52 1.52c-2.34 2.34-6.93 4.24-10.24 4.24h-78c-3.3 0-6-2.7-6-6z" fill="#fff"/><path d="M1880-520v20l-10 10h-90" stroke="#5e5e5e" stroke-width="3" fill="none"/><path d="M1780-514c0-3.3 2.7-6 6-6h1108c3.3 0 6 2.7 6 6v288c0 3.3-2.7 6-6 6H1786c-3.3 0-6-2.7-6-6z" stroke="#5e5e5e" stroke-width="3" fill="none"/><use xlink:href="#a" transform="matrix(1,0,0,1,1788,-520) translate(25.567901234567902 19.444444444444443)"/><use xlink:href="#b" transform="matrix(1,0,0,1,1792,-482) translate(12.46913580246914 19.444444444444443)"/><use xlink:href="#c" transform="matrix(1,0,0,1,1792,-482) translate(77.77777777777777 19.444444444444443)"/><use xlink:href="#d" transform="matrix(1,0,0,1,1792,-482) translate(138.2716049382716 19.444444444444443)"/><use xlink:href="#e" transform="matrix(1,0,0,1,1792,-482) translate(170.30864197530863 19.444444444444443)"/><path d="M901.5-1014c0-3.3 2.7-6 6-6h148c3.3 0 6 2.7 6 6v108c0 3.3-2.7 6-6 6h-148c-3.3 0-6-2.7-6-6z" stroke="#5e5e5e" stroke-width="3" fill="#fff"/><use xlink:href="#f" transform="matrix(1,0,0,1,901.5,-1020) translate(33.05499999999999 63.15)"/><g fill="none"><path d="M981.5-899.25c.4 0 .75.34.75.75v67c0 .4-.34.75-.75.75-.4 0-.75-.34-.75-.75v-67c0-.4.34-.75.75-.75z"/><path d="M982.25-853.83v22.33l-.22.53-.53.22-.53-.22-.22-.53v-22.33m0-22.34v-22.33l.22-.53.53-.22.53.22.22.53v22.33" stroke="#5e5e5e" stroke-width="1.5"/></g><path d="M741-800h200.5M741.03-800H740" stroke="#5e5e5e" stroke-width="2" fill="none"/><path d="M956.76-800l-14.26 4.64v-9.28z" stroke="#5e5e5e" stroke-width="2" fill="#5e5e5e"/><path d="M760-824c0-3.3 2.7-6 6-6h188c3.3 0 6 2.7 6 6v18c0 3.3-2.7 6-6 6H766c-3.3 0-6-2.7-6-6z" stroke="#000" stroke-opacity="0" stroke-width="3" fill="#fff" fill-opacity="0"/><use xlink:href="#g" transform="matrix(1,0,0,1,765,-825) translate(42.35802469135803 15.472222222222221)"/><g fill="none"><path d="M978.5-279.25c.4 0 .75.34.75.75v77c0 .4-.34.75-.75.75-.4 0-.75-.34-.75-.75v-77c0-.4.34-.75.75-.75z"/><path d="M979.25-252.83v25.66m0 12.84v12.83l-.22.53-.53.22-.53-.22-.22-.53v-12.83m0-12.84v-25.66m0-12.84v-12.83l.22-.53.53-.22.53.22.22.53v12.83" stroke="#5e5e5e" stroke-width="1.5"/></g><path d="M1463.15-1014c0-3.3 2.7-6 6-6h252.57c3.3 0 6 2.7 6 6v108c0 3.3-2.7 6-6 6h-252.57c-3.3 0-6-2.7-6-6z" stroke="#5e5e5e" stroke-width="3" fill="#fff"/><use xlink:href="#h" transform="matrix(1,0,0,1,1463.1496062992123,-1020) translate(31.130000000000003 63.15)"/><path d="M1004-767.22h556" stroke="#5e5e5e" stroke-width="2" fill="none"/><path d="M1004.03-766.22H1003v-2h1.03" fill="#5e5e5e"/><path d="M1575.26-767.22L1561-762.6v-9.26z" stroke="#5e5e5e" stroke-width="2" fill="#5e5e5e"/><use xlink:href="#i" transform="matrix(1,0,0,1,1007.4907407407406,-797.1901133020156) translate(0.0049999999999954525 14.222222222222223)"/><use xlink:href="#j" transform="matrix(1,0,0,1,1007.4907407407406,-797.1901133020156) translate(172.44944444444448 14.222222222222223)"/><use xlink:href="#k" transform="matrix(1,0,0,1,1007.4907407407406,-797.1901133020156) translate(183.2642592592593 14.222222222222223)"/><use xlink:href="#l" transform="matrix(1,0,0,1,1007.4907407407406,-797.1901133020156) translate(214.77043209876547 14.222222222222223)"/><use xlink:href="#m" transform="matrix(1,0,0,1,1007.4907407407406,-797.1901133020156) translate(259.2148765432099 14.222222222222223)"/><use xlink:href="#n" transform="matrix(1,0,0,1,1007.4907407407406,-797.1901133020156) translate(270.02969135802476 14.222222222222223)"/><use xlink:href="#o" transform="matrix(1,0,0,1,1007.4907407407406,-797.1901133020156) translate(331.1161111111112 14.222222222222223)"/><use xlink:href="#m" transform="matrix(1,0,0,1,1007.4907407407406,-797.1901133020156) translate(372.49882716049393 14.222222222222223)"/><use xlink:href="#p" transform="matrix(1,0,0,1,1007.4907407407406,-797.1901133020156) translate(383.31364197530877 14.222222222222223)"/><use xlink:href="#q" transform="matrix(1,0,0,1,1007.4907407407406,-797.1901133020156) translate(456.2025308641977 14.222222222222223)"/><use xlink:href="#m" transform="matrix(1,0,0,1,1007.4907407407406,-797.1901133020156) translate(498.62228395061743 14.222222222222223)"/><use xlink:href="#r" transform="matrix(1,0,0,1,1007.4907407407406,-797.1901133020156) translate(509.43709876543227 14.222222222222223)"/><path d="M1622.5-716.17h535.68" stroke="#5e5e5e" stroke-width="2" fill="none"/><path d="M1622.53-715.17h-1.03v-2h1.03" fill="#5e5e5e"/><path d="M2140.82-706l17.22-10.17-17.22-10.18" stroke="#5e5e5e" stroke-width="2" fill="none"/><use xlink:href="#s" transform="matrix(1,0,0,1,1620.4413580246917,-751.6821406509654) translate(0.0049999999999954525 14.222222222222221)"/><use xlink:href="#t" transform="matrix(1,0,0,1,1620.4413580246917,-751.6821406509654) translate(172.44944444444442 14.222222222222221)"/><use xlink:href="#u" transform="matrix(1,0,0,1,1620.4413580246917,-751.6821406509654) translate(183.26425925925923 14.222222222222221)"/><use xlink:href="#v" transform="matrix(1,0,0,1,1620.4413580246917,-751.6821406509654) translate(214.7704320987654 14.222222222222221)"/><use xlink:href="#w" transform="matrix(1,0,0,1,1620.4413580246917,-751.6821406509654) translate(259.21487654320987 14.222222222222221)"/><use xlink:href="#x" transform="matrix(1,0,0,1,1620.4413580246917,-751.6821406509654) translate(270.0296913580247 14.222222222222221)"/><use xlink:href="#y" transform="matrix(1,0,0,1,1620.4413580246917,-751.6821406509654) translate(331.1161111111111 14.222222222222221)"/><use xlink:href="#w" transform="matrix(1,0,0,1,1620.4413580246917,-751.6821406509654) translate(372.49882716049376 14.222222222222221)"/><use xlink:href="#z" transform="matrix(1,0,0,1,1620.4413580246917,-751.6821406509654) translate(383.3136419753086 14.222222222222221)"/><use xlink:href="#A" transform="matrix(1,0,0,1,1620.4413580246917,-751.6821406509654) translate(452.30129629629624 14.222222222222221)"/><use xlink:href="#w" transform="matrix(1,0,0,1,1620.4413580246917,-751.6821406509654) translate(494.721049382716 14.222222222222221)"/><use xlink:href="#B" transform="matrix(1,0,0,1,1620.4413580246917,-751.6821406509654) translate(505.5358641975308 14.222222222222221)"/><g fill="none"><path d="M1600-359.25c.4 0 .75.34.75.75v157c0 .4-.34.75-.75.75-.4 0-.75-.34-.75-.75v-157c0-.4.34-.75.75-.75z"/><path d="M1600.75-323.6v34.88m0 17.44v34.9m0 17.44v17.44l-.22.53-.53.22-.53-.22-.22-.53v-17.44m0-17.45v-34.88m0-17.44v-34.9m0-17.44v-17.44l.22-.53.53-.22.53.22.22.53v17.44" stroke="#5e5e5e" stroke-width="1.5"/></g><g fill="none"><path d="M1603-889.25c.4 0 .75.34.75.75v107c0 .4-.34.75-.75.75-.4 0-.75-.34-.75-.75v-107c0-.4.34-.75.75-.75z"/><path d="M1603.75-852.83v35.66m0 17.84v17.83l-.22.53-.53.22-.53-.22-.22-.53v-17.83m0-17.84v-35.66m0-17.84v-17.83l.22-.53.53-.22.53.22.22.53v17.83" stroke="#5e5e5e" stroke-width="1.5"/></g><path d="M2060-1014c0-3.3 2.7-6 6-6h208c3.3 0 6 2.7 6 6v108c0 3.3-2.7 6-6 6h-208c-3.3 0-6-2.7-6-6z" stroke="#5e5e5e" stroke-width="3" fill="#fff"/><use xlink:href="#C" transform="matrix(1,0,0,1,2060,-1020) translate(13.130000000000004 63.15)"/><g fill="none"><path d="M2180-899.25c.4 0 .75.34.75.75v177c0 .4-.34.75-.75.75-.4 0-.75-.34-.75-.75v-177c0-.4.34-.75.75-.75z"/><path d="M2180.75-869v29.5m0 14.75v29.5m0 14.75v29.5m0 14.75v14.75l-.22.53-.53.22-.53-.22-.22-.53v-14.75m0-14.75v-29.5m0-14.75v-29.5m0-14.75V-869m0-14.75v-14.75l.22-.53.53-.22.53.22.22.53v14.75" stroke="#5e5e5e" stroke-width="1.5"/></g><g fill="none"><path d="M2180-389.25c.4 0 .75.34.75.75v207c0 .4-.34.75-.75.75-.4 0-.75-.34-.75-.75v-207c0-.4.34-.75.75-.75z"/><path d="M2180.75-360.9v27.6m0 13.8v27.6m0 13.8v27.6m0 13.8v27.6m0 13.8v13.8l-.22.53-.53.22-.53-.22-.22-.53v-13.8m0-13.8v-27.6m0-13.8v-27.6m0-13.8v-27.6m0-13.8v-27.6m0-13.8v-13.8l.22-.53.53-.22.53.22.22.53v13.8" stroke="#5e5e5e" stroke-width="1.5"/></g><path d="M2517.57-1014c0-3.3 2.7-6 6-6H2914c3.3 0 6 2.7 6 6v108c0 3.3-2.7 6-6 6h-390.43c-3.3 0-6-2.7-6-6z" stroke="#5e5e5e" stroke-width="3" fill="#fff"/><use xlink:href="#D" transform="matrix(1,0,0,1,2522.5729288214707,-1015) translate(88.00617283950622 59.31597222222222)"/><path d="M2202.5-461.42h481.25" stroke="#5e5e5e" stroke-width="2" fill="none"/><path d="M2202.53-460.42h-1.03v-2h1.03" fill="#5e5e5e"/><path d="M2699-461.42l-14.25 4.64v-9.27z" stroke="#5e5e5e" stroke-width="2" fill="#5e5e5e"/><use xlink:href="#E" transform="matrix(1,0,0,1,2225.9742030050274,-486.75065616797883) translate(0.0049999999999954525 14.222222222222223)"/><use xlink:href="#j" transform="matrix(1,0,0,1,2225.9742030050274,-486.75065616797883) translate(170.0790740740741 14.222222222222223)"/><use xlink:href="#k" transform="matrix(1,0,0,1,2225.9742030050274,-486.75065616797883) translate(180.8938888888889 14.222222222222223)"/><use xlink:href="#l" transform="matrix(1,0,0,1,2225.9742030050274,-486.75065616797883) translate(212.4000617283951 14.222222222222223)"/><use xlink:href="#m" transform="matrix(1,0,0,1,2225.9742030050274,-486.75065616797883) translate(256.84450617283954 14.222222222222223)"/><use xlink:href="#n" transform="matrix(1,0,0,1,2225.9742030050274,-486.75065616797883) translate(267.6593209876544 14.222222222222223)"/><use xlink:href="#o" transform="matrix(1,0,0,1,2225.9742030050274,-486.75065616797883) translate(328.7457407407408 14.222222222222223)"/><use xlink:href="#F" transform="matrix(1,0,0,1,2225.9742030050274,-486.75065616797883) translate(370.12845679012355 14.222222222222223)"/><path d="M2702.1-402.68h-10.4m-10.42 0h-20.82m-10.4 0h-20.82m-10.4 0H2598m-10.4 0h-20.8m-10.42 0h-20.82m-10.4 0h-20.82m-10.4 0h-20.83m-10.4 0h-20.08m-9.68 0h-19.36m-9.68 0h-19.35m-9.68 0h-19.36m-9.67 0h-19.36m-9.68 0h-19.37m-9.67 0h-19.36m-9.68 0h-19.36m-9.68 0H2220" stroke="#5e5e5e" stroke-width="2" fill="none"/><path d="M2703.23-402.2l.5.52h-1.66v-2h.76" fill="#5e5e5e"/><path d="M2204.74-402.68l14.26-4.63v9.26z" stroke="#5e5e5e" stroke-width="2" fill="#5e5e5e"/><g fill="none"><path d="M2721.3-519.25c.42 0 .75.34.75.75v337c0 .4-.33.75-.75.75-.4 0-.75-.34-.75-.75v-337c0-.4.34-.75.75-.75z"/><path d="M2722.05-486.4v32.1m0 16.04v32.1m0 16.04v32.1m0 16.04v32.1m0 16.05v32.1m0 16.04v32.1m0 16.05v16.05l-.22.53-.53.22-.53-.22-.22-.53v-16.05m0-16.05v-32.1m0-16.04v-32.1m0-16.04v-32.1m0-16.04v-32.1m0-16.05v-32.1m0-16.04v-32.1m0-16.05v-16.05l.22-.53.53-.22.53.22.22.53v16.05" stroke="#5e5e5e" stroke-width="1.5"/></g><g fill="none"><path d="M2726.33-899.25c.42 0 .75.34.75.75v337c0 .4-.33.75-.75.75-.4 0-.75-.34-.75-.75v-337c0-.4.34-.75.75-.75z"/><path d="M2727.08-866.4v32.1m0 16.04v32.1m0 16.04v32.1m0 16.04v32.1m0 16.05v32.1m0 16.04v32.1m0 16.05v16.05l-.22.53-.53.22-.53-.22-.22-.53v-16.05m0-16.05v-32.1m0-16.04v-32.1m0-16.04v-32.1m0-16.04v-32.1m0-16.05v-32.1m0-16.04v-32.1m0-16.05v-16.05l.22-.53.53-.22.53.22.22.53v16.05" stroke="#5e5e5e" stroke-width="1.5"/></g><path d="M2157.5-419.03h-9.9m-9.9 0h-19.83m-9.9 0h-19.82m-9.9 0h-19.82m-9.9 0h-19.83m-9.9 0h-19.82m-9.9 0h-19.82m-9.9 0h-19.82m-9.9 0h-19.83m-9.9 0h-20.32m-10.4 0h-20.85m-10.4 0h-20.85m-10.4 0h-20.85m-10.4 0h-20.85m-10.4 0h-20.84m-10.42 0h-20.83m-10.43 0h-20.83m-10.42 0H1640" stroke="#5e5e5e" stroke-width="2" fill="none"/><path d="M2158.5-418.03h-1.03v-2h1.03" fill="#5e5e5e"/><path d="M1624.74-419.03l14.26-4.63v9.27z" stroke="#5e5e5e" stroke-width="2" fill="#5e5e5e"/><path d="M959-226.2h-9.55m-9.55 0h-19.1m-9.54 0h-19.1m-9.54 0h-19.1m-9.54 0h-19.1m-9.55 0h-19.1m-9.54 0h-19.1m-9.55 0h-9.55" stroke="#5e5e5e" stroke-width="2" fill="none"/><path d="M960-225.8l.16.6h-1.2v-2H960" fill="#5e5e5e"/><path d="M743.24-226.2l14.26-4.64v9.27z" stroke="#5e5e5e" stroke-width="2" fill="#5e5e5e"/><g><use xlink:href="#G" transform="matrix(1,0,0,1,789.9506172839506,-222.2095210614593) translate(0.005000000000002558 14.222222222222223)"/></g><path d="M2703.75-474c0-3.3 2.7-6 6-6h28c3.3 0 6 2.7 6 6v68c0 3.3-2.7 6-6 6h-28c-3.3 0-6-2.7-6-6zM1580-774c0-3.3 2.7-6 6-6h28c3.3 0 6 2.7 6 6v528c0 3.3-2.7 6-6 6h-28c-3.3 0-6-2.7-6-6z" stroke="#5e5e5e" stroke-width="3" fill="#fff"/><path d="M2202.5-341.42h483.83" stroke="#5e5e5e" stroke-width="2" fill="none"/><path d="M2202.53-340.42h-1.03v-2h1.03" fill="#5e5e5e"/><path d="M2701.6-341.42l-14.27 4.64v-9.27z" stroke="#5e5e5e" stroke-width="2" fill="#5e5e5e"/><g><use xlink:href="#H" transform="matrix(1,0,0,1,2224.4746279729748,-366.75065615307767) translate(0.0049999999999954525 14.222222222222223)"/><use xlink:href="#j" transform="matrix(1,0,0,1,2224.4746279729748,-366.75065615307767) translate(183.9062345679013 14.222222222222223)"/><use xlink:href="#k" transform="matrix(1,0,0,1,2224.4746279729748,-366.75065615307767) translate(194.7210493827161 14.222222222222223)"/><use xlink:href="#l" transform="matrix(1,0,0,1,2224.4746279729748,-366.75065615307767) translate(226.22722222222228 14.222222222222223)"/><use xlink:href="#m" transform="matrix(1,0,0,1,2224.4746279729748,-366.75065615307767) translate(270.67166666666674 14.222222222222223)"/><use xlink:href="#n" transform="matrix(1,0,0,1,2224.4746279729748,-366.75065615307767) translate(281.4864814814816 14.222222222222223)"/><use xlink:href="#q" transform="matrix(1,0,0,1,2224.4746279729748,-366.75065615307767) translate(342.572901234568 14.222222222222223)"/><use xlink:href="#m" transform="matrix(1,0,0,1,2224.4746279729748,-366.75065615307767) translate(384.99265432098775 14.222222222222223)"/><use xlink:href="#I" transform="matrix(1,0,0,1,2224.4746279729748,-366.75065615307767) translate(395.8074691358026 14.222222222222223)"/></g><path d="M2704.68-282.68h-10.47m-10.45 0h-20.92m-10.46 0h-20.93m-10.46 0h-20.92m-10.47 0h-20.93m-10.46 0h-20.92m-10.46 0h-20.92m-10.46 0h-20.93m-10.45 0H2443.85m-9.74 0h-19.46m-9.74 0h-19.46m-9.73 0h-19.47m-9.73 0h-19.47m-9.73 0h-19.47m-9.73 0h-19.46m-9.74 0h-19.46m-9.73 0H2220" stroke="#5e5e5e" stroke-width="2" fill="none"/><path d="M2705.8-282.2l.52.52h-1.67v-2h.76" fill="#5e5e5e"/><path d="M2204.74-282.68l14.26-4.63v9.26z" stroke="#5e5e5e" stroke-width="2" fill="#5e5e5e"/><path d="M2706.33-354c0-3.3 2.7-6 6-6h28c3.32 0 6 2.7 6 6v68c0 3.3-2.68 6-6 6h-28c-3.3 0-6-2.7-6-6zM2160-714c0-3.3 2.7-6 6-6h28c3.3 0 6 2.7 6 6v448c0 3.3-2.7 6-6 6h-28c-3.3 0-6-2.7-6-6zM961.5-824c0-3.3 2.7-6 6-6h28c3.3 0 6 2.7 6 6v598c0 3.3-2.7 6-6 6h-28c-3.3 0-6-2.7-6-6z" stroke="#5e5e5e" stroke-width="3" fill="#fff"/><path d="M2202.5-687.62h483.83" stroke="#5e5e5e" stroke-width="2" fill="none"/><path d="M2202.53-686.62h-1.03v-2h1.03" fill="#5e5e5e"/><path d="M2701.6-687.62l-14.27 4.63v-9.26z" stroke="#5e5e5e" stroke-width="2" fill="#5e5e5e"/><g><use xlink:href="#J" transform="matrix(1,0,0,1,2268.4499366149503,-712.9574764975365) translate(0.0049999999999954525 14.222222222222223)"/><use xlink:href="#j" transform="matrix(1,0,0,1,2268.4499366149503,-712.9574764975365) translate(214.77043209876544 14.222222222222223)"/><use xlink:href="#k" transform="matrix(1,0,0,1,2268.4499366149503,-712.9574764975365) translate(225.58524691358025 14.222222222222223)"/><use xlink:href="#l" transform="matrix(1,0,0,1,2268.4499366149503,-712.9574764975365) translate(257.0914197530864 14.222222222222223)"/><use xlink:href="#m" transform="matrix(1,0,0,1,2268.4499366149503,-712.9574764975365) translate(301.5358641975309 14.222222222222223)"/><use xlink:href="#r" transform="matrix(1,0,0,1,2268.4499366149503,-712.9574764975365) translate(312.3506790123457 14.222222222222223)"/></g><path d="M2706.33-694c0-3.3 2.7-6 6-6h28c3.32 0 6 2.7 6 6v108c0 3.3-2.68 6-6 6h-28c-3.3 0-6-2.7-6-6z" stroke="#5e5e5e" stroke-width="3" fill="#fff"/><path d="M2703.83-594.27h-10.44m-10.46 0h-20.9m-10.43 0h-20.88m-10.44 0h-20.9m-10.44 0h-20.9m-10.43 0h-20.88m-10.44 0h-20.9m-10.44 0h-20.9m-10.43 0h-20.15m-9.7 0h-19.44m-9.7 0h-19.44m-9.72 0H2356m-9.7 0h-19.43m-9.72 0h-19.43m-9.7 0h-19.44m-9.72 0h-19.43m-9.7 0H2220" stroke="#5e5e5e" stroke-width="2" fill="none"/><path d="M2704.83-593.27h-1.02v-2h1.03" fill="#5e5e5e"/><path d="M2204.74-594.27l14.26-4.64v9.27z" stroke="#5e5e5e" stroke-width="2" fill="#5e5e5e"/><g><use xlink:href="#K" transform="matrix(1,0,0,1,2305.363516861864,-590.270246094185) translate(0.0049999999999954525 14.222222222222223)"/><use xlink:href="#j" transform="matrix(1,0,0,1,2305.363516861864,-590.270246094185) translate(145.88154320987655 14.222222222222223)"/><use xlink:href="#L" transform="matrix(1,0,0,1,2305.363516861864,-590.270246094185) translate(156.69635802469136 14.222222222222223)"/></g><path d="M2157.63-265.3h-9.9m-9.92 0H2118m-9.92 0h-19.82m-9.9 0h-19.83m-9.9 0h-19.83m-9.9 0h-19.83m-9.9 0h-19.83m-9.9 0h-19.82m-9.9 0h-19.83m-9.92 0h-20.33m-10.42 0h-20.84m-10.43 0h-20.84m-10.42 0h-20.83m-10.42 0h-20.83m-10.42 0h-20.84m-10.42 0h-20.84m-10.42 0h-20.84m-10.42 0H1640" stroke="#5e5e5e" stroke-width="2" fill="none"/><path d="M2158.5-265.8l.4 1.5h-1.3v-2h.9" fill="#5e5e5e"/><path d="M1624.74-265.3l14.26-4.65v9.27z" stroke="#5e5e5e" stroke-width="2" fill="#5e5e5e"/><path d="M1577.5-247.88h-9.56m-9.56 0h-19.1m-9.57 0h-19.1m-9.57 0h-19.1m-9.57 0h-19.12m-9.56 0h-19.1m-9.57 0h-19.1m-9.57 0h-19.1m-9.57 0h-19.12m-9.56 0h-19.1m-9.57 0H1280.8m-9.97 0h-19.94m-9.97 0h-19.95m-9.98 0h-19.94m-9.97 0h-19.95m-9.96 0h-19.94m-9.98 0h-19.94m-9.97 0h-19.94m-9.97 0h-19.95m-9.97 0h-9.98" stroke="#5e5e5e" stroke-width="2" fill="none"/><path d="M1578.5-246.88h-1.03v-2h1.03" fill="#5e5e5e"/><path d="M1006.24-247.88l14.26-4.63v9.26z" stroke="#5e5e5e" stroke-width="2" fill="#5e5e5e"/><defs><path fill="#333" d="M100-194c62-1 85 37 85 99 1 63-27 99-86 99S16-35 15-95c0-66 28-99 85-99zM99-20c44 1 53-31 53-75 0-43-8-75-51-75s-53 32-53 75 10 74 51 75" id="M"/><path fill="#333" d="M115-194c55 1 70 41 70 98S169 2 115 4C84 4 66-9 55-30l1 105H24l-1-265h31l2 30c10-21 28-34 59-34zm-8 174c40 0 45-34 45-75s-6-73-45-74c-42 0-51 32-51 76 0 43 10 73 51 73" id="N"/><path fill="#333" d="M59-47c-2 24 18 29 38 22v24C64 9 27 4 27-40v-127H5v-23h24l9-43h21v43h35v23H59v120" id="O"/><g id="a"><use transform="matrix(0.06172839506172839,0,0,0.06172839506172839,0,0)" xlink:href="#M"/><use transform="matrix(0.06172839506172839,0,0,0.06172839506172839,12.345679012345679,0)" xlink:href="#N"/><use transform="matrix(0.06172839506172839,0,0,0.06172839506172839,24.691358024691358,0)" xlink:href="#O"/></g><path fill="#333" d="M26 75v-336h71v23H56V52h41v23H26" id="P"/><path fill="#333" d="M63-70H37l-4-178h34zM33 0v-35h34V0H33" id="Q"/><path fill="#333" d="M232-93c-1 65-40 97-104 97C67 4 28-28 28-90v-158h33c8 89-33 224 67 224 102 0 64-133 71-224h33v155" id="R"/><path fill="#333" d="M135-143c-3-34-86-38-87 0 15 53 115 12 119 90S17 21 10-45l28-5c4 36 97 45 98 0-10-56-113-15-118-90-4-57 82-63 122-42 12 7 21 19 24 35" id="S"/><path fill="#333" d="M100-194c63 0 86 42 84 106H49c0 40 14 67 53 68 26 1 43-12 49-29l28 8c-11 28-37 45-77 45C44 4 14-33 15-96c1-61 26-98 85-98zm52 81c6-60-76-77-97-28-3 7-6 17-6 28h103" id="T"/><path fill="#333" d="M114-163C36-179 61-72 57 0H25l-1-190h30c1 12-1 29 2 39 6-27 23-49 58-41v29" id="U"/><g id="b"><use transform="matrix(0.06172839506172839,0,0,0.06172839506172839,0,0)" xlink:href="#P"/><use transform="matrix(0.06172839506172839,0,0,0.06172839506172839,6.172839506172839,0)" xlink:href="#Q"/><use transform="matrix(0.06172839506172839,0,0,0.06172839506172839,12.345679012345679,0)" xlink:href="#R"/><use transform="matrix(0.06172839506172839,0,0,0.06172839506172839,28.333333333333332,0)" xlink:href="#S"/><use transform="matrix(0.06172839506172839,0,0,0.06172839506172839,39.44444444444444,0)" xlink:href="#T"/><use transform="matrix(0.06172839506172839,0,0,0.06172839506172839,51.79012345679012,0)" xlink:href="#U"/></g><path fill="#333" d="M108 0H70L1-190h34L89-25l56-165h34" id="V"/><path fill="#333" d="M85-194c31 0 48 13 60 33l-1-100h32l1 261h-30c-2-10 0-23-3-31C134-8 116 4 85 4 32 4 16-35 15-94c0-66 23-100 70-100zm9 24c-40 0-46 34-46 75 0 40 6 74 45 74 42 0 51-32 51-76 0-42-9-74-50-73" id="W"/><g id="c"><use transform="matrix(0.06172839506172839,0,0,0.06172839506172839,0,0)" xlink:href="#V"/><use transform="matrix(0.06172839506172839,0,0,0.06172839506172839,11.11111111111111,0)" xlink:href="#M"/><use transform="matrix(0.06172839506172839,0,0,0.06172839506172839,23.45679012345679,0)" xlink:href="#O"/><use transform="matrix(0.06172839506172839,0,0,0.06172839506172839,29.62962962962963,0)" xlink:href="#T"/><use transform="matrix(0.06172839506172839,0,0,0.06172839506172839,41.97530864197531,0)" xlink:href="#W"/></g><path fill="#333" d="M101-234c-31-9-42 10-38 44h38v23H63V0H32v-167H5v-23h27c-7-52 17-82 69-68v24" id="X"/><g id="d"><use transform="matrix(0.06172839506172839,0,0,0.06172839506172839,0,0)" xlink:href="#X"/><use transform="matrix(0.06172839506172839,0,0,0.06172839506172839,6.172839506172839,0)" xlink:href="#M"/><use transform="matrix(0.06172839506172839,0,0,0.06172839506172839,18.51851851851852,0)" xlink:href="#U"/></g><path fill="#333" d="M185-189c-5-48-123-54-124 2 14 75 158 14 163 119 3 78-121 87-175 55-17-10-28-26-33-46l33-7c5 56 141 63 141-1 0-78-155-14-162-118-5-82 145-84 179-34 5 7 8 16 11 25" id="Y"/><path fill="#333" d="M84 4C-5 8 30-112 23-190h32v120c0 31 7 50 39 49 72-2 45-101 50-169h31l1 190h-30c-1-10 1-25-2-33-11 22-28 36-60 37" id="Z"/><path fill="#333" d="M177-190C167-65 218 103 67 71c-23-6-38-20-44-43l32-5c15 47 100 32 89-28v-30C133-14 115 1 83 1 29 1 15-40 15-95c0-56 16-97 71-98 29-1 48 16 59 35 1-10 0-23 2-32h30zM94-22c36 0 50-32 50-73 0-42-14-75-50-75-39 0-46 34-46 75s6 73 46 73" id="aa"/><path fill="#333" d="M24-231v-30h32v30H24zM24 0v-190h32V0H24" id="ab"/><path fill="#333" d="M117-194c89-4 53 116 60 194h-32v-121c0-31-8-49-39-48C34-167 62-67 57 0H25l-1-190h30c1 10-1 24 2 32 11-22 29-35 61-36" id="ac"/><path fill="#333" d="M3 75V52h41v-290H3v-23h71V75H3" id="ad"/><g id="e"><use transform="matrix(0.06172839506172839,0,0,0.06172839506172839,0,0)" xlink:href="#Y"/><use transform="matrix(0.06172839506172839,0,0,0.06172839506172839,14.814814814814813,0)" xlink:href="#Z"/><use transform="matrix(0.06172839506172839,0,0,0.06172839506172839,27.160493827160494,0)" xlink:href="#aa"/><use transform="matrix(0.06172839506172839,0,0,0.06172839506172839,39.50617283950617,0)" xlink:href="#aa"/><use transform="matrix(0.06172839506172839,0,0,0.06172839506172839,51.85185185185185,0)" xlink:href="#T"/><use transform="matrix(0.06172839506172839,0,0,0.06172839506172839,64.19753086419753,0)" xlink:href="#S"/><use transform="matrix(0.06172839506172839,0,0,0.06172839506172839,75.30864197530865,0)" xlink:href="#O"/><use transform="matrix(0.06172839506172839,0,0,0.06172839506172839,81.48148148148148,0)" xlink:href="#ab"/><use transform="matrix(0.06172839506172839,0,0,0.06172839506172839,86.35802469135803,0)" xlink:href="#M"/><use transform="matrix(0.06172839506172839,0,0,0.06172839506172839,98.70370370370371,0)" xlink:href="#ac"/><use transform="matrix(0.06172839506172839,0,0,0.06172839506172839,111.0493827160494,0)" xlink:href="#ad"/></g><path d="M205 0l-28-72H64L36 0H1l101-248h38L239 0h-34zm-38-99l-47-123c-12 45-31 82-46 123h93" id="ae"/><path d="M30-248c87 1 191-15 191 75 0 78-77 80-158 76V0H30v-248zm33 125c57 0 124 11 124-50 0-59-68-47-124-48v98" id="af"/><path d="M33 0v-248h34V0H33" id="ag"/><path d="M33 0v-38h34V0H33" id="ah"/><path d="M177-190C167-65 218 103 67 71c-23-6-38-20-44-43l32-5c15 47 100 32 89-28v-30C133-14 115 1 83 1 29 1 15-40 15-95c0-56 16-97 71-98 29-1 48 16 59 35 1-10 0-23 2-32h30zM94-22c36 0 50-32 50-73 0-42-14-75-50-75-39 0-46 34-46 75s6 73 46 73" id="ai"/><path d="M114-163C36-179 61-72 57 0H25l-1-190h30c1 12-1 29 2 39 6-27 23-49 58-41v29" id="aj"/><path d="M141-36C126-15 110 5 73 4 37 3 15-17 15-53c-1-64 63-63 125-63 3-35-9-54-41-54-24 1-41 7-42 31l-33-3c5-37 33-52 76-52 45 0 72 20 72 64v82c-1 20 7 32 28 27v20c-31 9-61-2-59-35zM48-53c0 20 12 33 32 33 41-3 63-29 60-74-43 2-92-5-92 41" id="ak"/><path d="M115-194c55 1 70 41 70 98S169 2 115 4C84 4 66-9 55-30l1 105H24l-1-265h31l2 30c10-21 28-34 59-34zm-8 174c40 0 45-34 45-75s-6-73-45-74c-42 0-51 32-51 76 0 43 10 73 51 73" id="al"/><path d="M106-169C34-169 62-67 57 0H25v-261h32l-1 103c12-21 28-36 61-36 89 0 53 116 60 194h-32v-121c2-32-8-49-39-48" id="am"/><path d="M145-31C134-9 116 4 85 4 32 4 16-35 15-94c0-59 17-99 70-100 32-1 48 14 60 33 0-11-1-24 2-32h30l-1 268h-32zM93-21c41 0 51-33 51-76s-8-73-50-73c-40 0-46 35-46 75s5 74 45 74" id="an"/><path d="M24 0v-261h32V0H24" id="ao"/><g id="f"><use transform="matrix(0.05,0,0,0.05,0,0)" xlink:href="#ae"/><use transform="matrix(0.05,0,0,0.05,12,0)" xlink:href="#af"/><use transform="matrix(0.05,0,0,0.05,24,0)" xlink:href="#ag"/><use transform="matrix(0.05,0,0,0.05,29,0)" xlink:href="#ah"/><use transform="matrix(0.05,0,0,0.05,34,0)" xlink:href="#ai"/><use transform="matrix(0.05,0,0,0.05,44,0)" xlink:href="#aj"/><use transform="matrix(0.05,0,0,0.05,49.95,0)" xlink:href="#ak"/><use transform="matrix(0.05,0,0,0.05,59.95,0)" xlink:href="#al"/><use transform="matrix(0.05,0,0,0.05,69.95,0)" xlink:href="#am"/><use transform="matrix(0.05,0,0,0.05,79.95,0)" xlink:href="#an"/><use transform="matrix(0.05,0,0,0.05,89.95,0)" xlink:href="#ao"/><path d="M-.9 1.25h95.7v1.32H-.9z"/></g><path fill="#333" d="M186 0v-106H76V0H24v-248h52v99h110v-99h50V0h-50" id="ap"/><path fill="#333" d="M115-3C79 11 28 4 28-45v-112H4v-33h27l15-45h31v45h36v33H77v99c-1 23 16 31 38 25v30" id="aq"/><path fill="#333" d="M135-194c53 0 70 44 70 98 0 56-19 98-73 100-31 1-45-17-59-34 3 33 2 69 2 105H25l-1-265h48c2 10 0 23 3 31 11-24 29-35 60-35zM114-30c33 0 39-31 40-66 0-38-9-64-40-64-56 0-55 130 0 130" id="ar"/><path fill="#333" d="M240-174c0 40-23 61-54 70L253 0h-59l-57-94H76V0H24v-248c93 4 217-23 216 74zM76-134c48-2 112 12 112-38 0-48-66-32-112-35v73" id="as"/><path fill="#333" d="M185-48c-13 30-37 53-82 52C43 2 14-33 14-96s30-98 90-98c62 0 83 45 84 108H66c0 31 8 55 39 56 18 0 30-7 34-22zm-45-69c5-46-57-63-70-21-2 6-4 13-4 21h74" id="at"/><path fill="#333" d="M84 4C32 4 15-41 15-95c0-55 18-99 73-99 29 0 47 12 58 34l2-30h48l-1 265h-49V-32C136-9 114 4 84 4zm21-34c32 0 41-29 41-66 0-36-9-64-40-64-33 0-39 30-40 65 0 43 13 65 39 65" id="au"/><path fill="#333" d="M85 4C-2 5 27-109 22-190h50c7 57-23 150 33 157 60-5 35-97 40-157h50l1 190h-47c-2-12 1-28-3-38-12 25-28 42-61 42" id="av"/><path fill="#333" d="M137-138c1-29-70-34-71-4 15 46 118 7 119 86 1 83-164 76-172 9l43-7c4 19 20 25 44 25 33 8 57-30 24-41C81-84 22-81 20-136c-2-80 154-74 161-7" id="aw"/><g id="g"><use transform="matrix(0.049382716049382706,0,0,0.049382716049382706,0,0)" xlink:href="#ap"/><use transform="matrix(0.049382716049382706,0,0,0.049382716049382706,12.790123456790122,0)" xlink:href="#aq"/><use transform="matrix(0.049382716049382706,0,0,0.049382716049382706,18.666666666666664,0)" xlink:href="#aq"/><use transform="matrix(0.049382716049382706,0,0,0.049382716049382706,24.543209876543205,0)" xlink:href="#ar"/><use transform="matrix(0.049382716049382706,0,0,0.049382716049382706,35.35802469135802,0)" xlink:href="#as"/><use transform="matrix(0.049382716049382706,0,0,0.049382716049382706,48.14814814814814,0)" xlink:href="#at"/><use transform="matrix(0.049382716049382706,0,0,0.049382716049382706,58.02469135802468,0)" xlink:href="#au"/><use transform="matrix(0.049382716049382706,0,0,0.049382716049382706,68.83950617283949,0)" xlink:href="#av"/><use transform="matrix(0.049382716049382706,0,0,0.049382716049382706,79.6543209876543,0)" xlink:href="#at"/><use transform="matrix(0.049382716049382706,0,0,0.049382716049382706,89.53086419753085,0)" xlink:href="#aw"/><use transform="matrix(0.049382716049382706,0,0,0.049382716049382706,99.40740740740739,0)" xlink:href="#aq"/></g><path d="M33-154v-36h34v36H33zM33 0v-36h34V0H33" id="ax"/><path d="M24-231v-30h32v30H24zM24 0v-190h32V0H24" id="ay"/><path d="M135-143c-3-34-86-38-87 0 15 53 115 12 119 90S17 21 10-45l28-5c4 36 97 45 98 0-10-56-113-15-118-90-4-57 82-63 122-42 12 7 21 19 24 35" id="az"/><path d="M185-189c-5-48-123-54-124 2 14 75 158 14 163 119 3 78-121 87-175 55-17-10-28-26-33-46l33-7c5 56 141 63 141-1 0-78-155-14-162-118-5-82 145-84 179-34 5 7 8 16 11 25" id="aA"/><path d="M84 4C-5 8 30-112 23-190h32v120c0 31 7 50 39 49 72-2 45-101 50-169h31l1 190h-30c-1-10 1-25-2-33-11 22-28 36-60 37" id="aB"/><path d="M100-194c63 0 86 42 84 106H49c0 40 14 67 53 68 26 1 43-12 49-29l28 8c-11 28-37 45-77 45C44 4 14-33 15-96c1-61 26-98 85-98zm52 81c6-60-76-77-97-28-3 7-6 17-6 28h103" id="aC"/><path d="M59-47c-2 24 18 29 38 22v24C64 9 27 4 27-40v-127H5v-23h24l9-43h21v43h35v23H59v120" id="aD"/><path d="M100-194c62-1 85 37 85 99 1 63-27 99-86 99S16-35 15-95c0-66 28-99 85-99zM99-20c44 1 53-31 53-75 0-43-8-75-51-75s-53 32-53 75 10 74 51 75" id="aE"/><path d="M117-194c89-4 53 116 60 194h-32v-121c0-31-8-49-39-48C34-167 62-67 57 0H25l-1-190h30c1 10-1 24 2 32 11-22 29-35 61-36" id="aF"/><path d="M240 0l2-218c-23 76-54 145-80 218h-23L58-218 59 0H30v-248h44l77 211c21-75 51-140 76-211h43V0h-30" id="aG"/><g id="h"><use transform="matrix(0.05,0,0,0.05,0,0)" xlink:href="#ax"/><use transform="matrix(0.05,0,0,0.05,5,0)" xlink:href="#ae"/><use transform="matrix(0.05,0,0,0.05,17,0)" xlink:href="#ao"/><use transform="matrix(0.05,0,0,0.05,20.95,0)" xlink:href="#ay"/><use transform="matrix(0.05,0,0,0.05,24.9,0)" xlink:href="#ak"/><use transform="matrix(0.05,0,0,0.05,34.9,0)" xlink:href="#az"/><use transform="matrix(0.05,0,0,0.05,43.9,0)" xlink:href="#aA"/><use transform="matrix(0.05,0,0,0.05,55.900000000000006,0)" xlink:href="#aB"/><use transform="matrix(0.05,0,0,0.05,65.9,0)" xlink:href="#ai"/><use transform="matrix(0.05,0,0,0.05,75.9,0)" xlink:href="#ai"/><use transform="matrix(0.05,0,0,0.05,85.9,0)" xlink:href="#aC"/><use transform="matrix(0.05,0,0,0.05,95.9,0)" xlink:href="#az"/><use transform="matrix(0.05,0,0,0.05,104.9,0)" xlink:href="#aD"/><use transform="matrix(0.05,0,0,0.05,109.9,0)" xlink:href="#ay"/><use transform="matrix(0.05,0,0,0.05,113.85000000000001,0)" xlink:href="#aE"/><use transform="matrix(0.05,0,0,0.05,123.85000000000001,0)" xlink:href="#aF"/><use transform="matrix(0.05,0,0,0.05,133.85000000000002,0)" xlink:href="#aG"/><use transform="matrix(0.05,0,0,0.05,148.8,0)" xlink:href="#aB"/><use transform="matrix(0.05,0,0,0.05,158.8,0)" xlink:href="#aD"/><use transform="matrix(0.05,0,0,0.05,163.8,0)" xlink:href="#ak"/><use transform="matrix(0.05,0,0,0.05,173.8,0)" xlink:href="#aD"/><use transform="matrix(0.05,0,0,0.05,178.8,0)" xlink:href="#ay"/><use transform="matrix(0.05,0,0,0.05,182.75,0)" xlink:href="#aE"/><use transform="matrix(0.05,0,0,0.05,192.75,0)" xlink:href="#aF"/><path d="M-.9 1.25h204.55v1.32H-.9z"/></g><path fill="#333" d="M128 0H69L1-190h53L99-40l48-150h52" id="aH"/><path fill="#333" d="M110-194c64 0 96 36 96 99 0 64-35 99-97 99-61 0-95-36-95-99 0-62 34-99 96-99zm-1 164c35 0 45-28 45-65 0-40-10-65-43-65-34 0-45 26-45 65 0 36 10 65 43 65" id="aI"/><path fill="#333" d="M76-208v77h127v40H76V0H24v-248h183v40H76" id="aJ"/><path fill="#333" d="M135-150c-39-12-60 13-60 57V0H25l-1-190h47c2 13-1 29 3 40 6-28 27-53 61-41v41" id="aK"/><path fill="#333" d="M199 0l-22-63H83L61 0H9l90-248h61L250 0h-51zm-33-102l-36-108c-10 38-24 72-36 108h72" id="aL"/><path fill="#333" d="M25 0v-261h50V0H25" id="aM"/><path fill="#333" d="M25-224v-37h50v37H25zM25 0v-190h50V0H25" id="aN"/><path fill="#333" d="M133-34C117-15 103 5 69 4 32 3 11-16 11-54c-1-60 55-63 116-61 1-26-3-47-28-47-18 1-26 9-28 27l-52-2c7-38 36-58 82-57s74 22 75 68l1 82c-1 14 12 18 25 15v27c-30 8-71 5-69-32zm-48 3c29 0 43-24 42-57-32 0-66-3-65 30 0 17 8 27 23 27" id="aO"/><path fill="#333" d="M67-93c0 74 22 123 53 168H70C40 30 18-18 18-93s22-123 52-168h50c-32 44-53 94-53 168" id="aP"/><path fill="#333" d="M220-157c-53 9-28 100-34 157h-49v-107c1-27-5-49-29-50C55-147 81-57 75 0H25l-1-190h47c2 12-1 28 3 38 10-53 101-56 108 0 13-22 24-43 59-42 82 1 51 116 57 194h-49v-107c-1-25-5-48-29-50" id="aQ"/><path fill="#333" d="M24 0v-248h52V0H24" id="aR"/><path fill="#333" d="M24-248c120-7 223 5 221 122C244-46 201 0 124 0H24v-248zM76-40c74 7 117-18 117-86 0-67-45-88-117-82v168" id="aS"/><g id="i"><use transform="matrix(0.04938271604938272,0,0,0.04938271604938272,0,0)" xlink:href="#aH"/><use transform="matrix(0.04938271604938272,0,0,0.04938271604938272,9.876543209876544,0)" xlink:href="#aI"/><use transform="matrix(0.04938271604938272,0,0,0.04938271604938272,20.69135802469136,0)" xlink:href="#aq"/><use transform="matrix(0.04938271604938272,0,0,0.04938271604938272,26.567901234567902,0)" xlink:href="#at"/><use transform="matrix(0.04938271604938272,0,0,0.04938271604938272,36.44444444444445,0)" xlink:href="#aJ"/><use transform="matrix(0.04938271604938272,0,0,0.04938271604938272,47.25925925925927,0)" xlink:href="#aI"/><use transform="matrix(0.04938271604938272,0,0,0.04938271604938272,58.074074074074076,0)" xlink:href="#aK"/><use transform="matrix(0.04938271604938272,0,0,0.04938271604938272,64.98765432098766,0)" xlink:href="#aL"/><use transform="matrix(0.04938271604938272,0,0,0.04938271604938272,77.77777777777779,0)" xlink:href="#aM"/><use transform="matrix(0.04938271604938272,0,0,0.04938271604938272,82.71604938271605,0)" xlink:href="#aN"/><use transform="matrix(0.04938271604938272,0,0,0.04938271604938272,87.65432098765433,0)" xlink:href="#aO"/><use transform="matrix(0.04938271604938272,0,0,0.04938271604938272,97.53086419753087,0)" xlink:href="#aw"/><use transform="matrix(0.04938271604938272,0,0,0.04938271604938272,107.40740740740742,0)" xlink:href="#aP"/><use transform="matrix(0.04938271604938272,0,0,0.04938271604938272,113.28395061728396,0)" xlink:href="#aQ"/><use transform="matrix(0.04938271604938272,0,0,0.04938271604938272,129.08641975308643,0)" xlink:href="#aO"/><use transform="matrix(0.04938271604938272,0,0,0.04938271604938272,138.962962962963,0)" xlink:href="#ar"/><use transform="matrix(0.04938271604938272,0,0,0.04938271604938272,149.7777777777778,0)" xlink:href="#aR"/><use transform="matrix(0.04938271604938272,0,0,0.04938271604938272,154.71604938271608,0)" xlink:href="#aS"/></g><path fill="#333" d="M35-132v-50h50v50H35zM35 0v-49h50V0H35" id="aT"/><use transform="matrix(0.04938271604938272,0,0,0.04938271604938272,0,0)" xlink:href="#aT" id="j"/><path fill="#333" d="M135-194c87-1 58 113 63 194h-50c-7-57 23-157-34-157-59 0-34 97-39 157H25l-1-190h47c2 12-1 28 3 38 12-26 28-41 61-42" id="aU"/><path fill="#333" d="M76-54c-1 42 2 86-19 110H24C36 42 46 24 48 0H25v-54h51" id="aV"/><g id="k"><use transform="matrix(0.04938271604938272,0,0,0.04938271604938272,0,0)" xlink:href="#aN"/><use transform="matrix(0.04938271604938272,0,0,0.04938271604938272,4.938271604938272,0)" xlink:href="#aU"/><use transform="matrix(0.04938271604938272,0,0,0.04938271604938272,15.753086419753087,0)" xlink:href="#aq"/><use transform="matrix(0.04938271604938272,0,0,0.04938271604938272,21.62962962962963,0)" xlink:href="#aV"/></g><g id="l"><use transform="matrix(0.04938271604938272,0,0,0.04938271604938272,0,0)" xlink:href="#aO"/><use transform="matrix(0.04938271604938272,0,0,0.04938271604938272,9.876543209876544,0)" xlink:href="#aM"/><use transform="matrix(0.04938271604938272,0,0,0.04938271604938272,14.814814814814817,0)" xlink:href="#aN"/><use transform="matrix(0.04938271604938272,0,0,0.04938271604938272,19.75308641975309,0)" xlink:href="#aO"/><use transform="matrix(0.04938271604938272,0,0,0.04938271604938272,29.629629629629633,0)" xlink:href="#aw"/></g><use transform="matrix(0.04938271604938272,0,0,0.04938271604938272,0,0)" xlink:href="#aT" id="m"/><path fill="#333" d="M169-182c-1-43-94-46-97-3 18 66 151 10 154 114 3 95-165 93-204 36-6-8-10-19-12-30l50-8c3 46 112 56 116 5-17-69-150-10-154-114-4-87 153-88 188-35 5 8 8 18 10 28" id="aW"/><path fill="#333" d="M195-6C206 82 75 100 31 46c-4-6-6-13-8-21l49-6c3 16 16 24 34 25 40 0 42-37 40-79-11 22-30 35-61 35-53 0-70-43-70-97 0-56 18-96 73-97 30 0 46 14 59 34l2-30h47zm-90-29c32 0 41-27 41-63 0-35-9-62-40-62-32 0-39 29-40 63 0 36 9 62 39 62" id="aX"/><g id="n"><use transform="matrix(0.04938271604938272,0,0,0.04938271604938272,0,0)" xlink:href="#aW"/><use transform="matrix(0.04938271604938272,0,0,0.04938271604938272,11.851851851851853,0)" xlink:href="#aq"/><use transform="matrix(0.04938271604938272,0,0,0.04938271604938272,17.728395061728396,0)" xlink:href="#aK"/><use transform="matrix(0.04938271604938272,0,0,0.04938271604938272,24.641975308641975,0)" xlink:href="#aN"/><use transform="matrix(0.04938271604938272,0,0,0.04938271604938272,29.58024691358025,0)" xlink:href="#aU"/><use transform="matrix(0.04938271604938272,0,0,0.04938271604938272,40.39506172839506,0)" xlink:href="#aX"/><use transform="matrix(0.04938271604938272,0,0,0.04938271604938272,51.20987654320988,0)" xlink:href="#aV"/></g><g id="o"><use transform="matrix(0.04938271604938272,0,0,0.04938271604938272,0,0)" xlink:href="#aH"/><use transform="matrix(0.04938271604938272,0,0,0.04938271604938272,9.876543209876544,0)" xlink:href="#aI"/><use transform="matrix(0.04938271604938272,0,0,0.04938271604938272,20.69135802469136,0)" xlink:href="#aq"/><use transform="matrix(0.04938271604938272,0,0,0.04938271604938272,26.567901234567902,0)" xlink:href="#at"/></g><path fill="#333" d="M135-194c52 0 70 43 70 98 0 56-19 99-73 100-30 1-46-15-58-35L72 0H24l1-261h50v104c11-23 29-37 60-37zM114-30c31 0 40-27 40-66 0-37-7-63-39-63s-41 28-41 65c0 36 8 64 40 64" id="aY"/><g id="p"><use transform="matrix(0.04938271604938272,0,0,0.04938271604938272,0,0)" xlink:href="#aY"/><use transform="matrix(0.04938271604938272,0,0,0.04938271604938272,10.814814814814815,0)" xlink:href="#aI"/><use transform="matrix(0.04938271604938272,0,0,0.04938271604938272,21.62962962962963,0)" xlink:href="#aI"/><use transform="matrix(0.04938271604938272,0,0,0.04938271604938272,32.44444444444444,0)" xlink:href="#aM"/><use transform="matrix(0.04938271604938272,0,0,0.04938271604938272,37.382716049382715,0)" xlink:href="#at"/><use transform="matrix(0.04938271604938272,0,0,0.04938271604938272,47.25925925925926,0)" xlink:href="#aO"/><use transform="matrix(0.04938271604938272,0,0,0.04938271604938272,57.135802469135804,0)" xlink:href="#aU"/></g><g id="q"><use transform="matrix(0.04938271604938272,0,0,0.04938271604938272,0,0)" xlink:href="#av"/><use transform="matrix(0.04938271604938272,0,0,0.04938271604938272,10.814814814814815,0)" xlink:href="#aw"/><use transform="matrix(0.04938271604938272,0,0,0.04938271604938272,20.69135802469136,0)" xlink:href="#at"/><use transform="matrix(0.04938271604938272,0,0,0.04938271604938272,30.567901234567906,0)" xlink:href="#aK"/></g><path fill="#333" d="M102-93c0 74-22 123-52 168H0C30 29 54-18 53-93c0-74-22-123-53-168h50c30 45 52 94 52 168" id="aZ"/><g id="r"><use transform="matrix(0.04938271604938272,0,0,0.04938271604938272,0,0)" xlink:href="#aW"/><use transform="matrix(0.04938271604938272,0,0,0.04938271604938272,11.851851851851853,0)" xlink:href="#aq"/><use transform="matrix(0.04938271604938272,0,0,0.04938271604938272,17.728395061728396,0)" xlink:href="#aK"/><use transform="matrix(0.04938271604938272,0,0,0.04938271604938272,24.641975308641975,0)" xlink:href="#aN"/><use transform="matrix(0.04938271604938272,0,0,0.04938271604938272,29.58024691358025,0)" xlink:href="#aU"/><use transform="matrix(0.04938271604938272,0,0,0.04938271604938272,40.39506172839506,0)" xlink:href="#aX"/><use transform="matrix(0.04938271604938272,0,0,0.04938271604938272,51.20987654320988,0)" xlink:href="#aZ"/></g><g id="s"><use transform="matrix(0.049382716049382706,0,0,0.049382716049382706,0,0)" xlink:href="#aH"/><use transform="matrix(0.049382716049382706,0,0,0.049382716049382706,9.87654320987654,0)" xlink:href="#aI"/><use transform="matrix(0.049382716049382706,0,0,0.049382716049382706,20.691358024691354,0)" xlink:href="#aq"/><use transform="matrix(0.049382716049382706,0,0,0.049382716049382706,26.567901234567895,0)" xlink:href="#at"/><use transform="matrix(0.049382716049382706,0,0,0.049382716049382706,36.444444444444436,0)" xlink:href="#aJ"/><use transform="matrix(0.049382716049382706,0,0,0.049382716049382706,47.25925925925925,0)" xlink:href="#aI"/><use transform="matrix(0.049382716049382706,0,0,0.049382716049382706,58.07407407407406,0)" xlink:href="#aK"/><use transform="matrix(0.049382716049382706,0,0,0.049382716049382706,64.98765432098764,0)" xlink:href="#aL"/><use transform="matrix(0.049382716049382706,0,0,0.049382716049382706,77.77777777777777,0)" xlink:href="#aM"/><use transform="matrix(0.049382716049382706,0,0,0.049382716049382706,82.71604938271604,0)" xlink:href="#aN"/><use transform="matrix(0.049382716049382706,0,0,0.049382716049382706,87.6543209876543,0)" xlink:href="#aO"/><use transform="matrix(0.049382716049382706,0,0,0.049382716049382706,97.53086419753085,0)" xlink:href="#aw"/><use transform="matrix(0.049382716049382706,0,0,0.049382716049382706,107.40740740740739,0)" xlink:href="#aP"/><use transform="matrix(0.049382716049382706,0,0,0.049382716049382706,113.28395061728394,0)" xlink:href="#aQ"/><use transform="matrix(0.049382716049382706,0,0,0.049382716049382706,129.0864197530864,0)" xlink:href="#aO"/><use transform="matrix(0.049382716049382706,0,0,0.049382716049382706,138.96296296296293,0)" xlink:href="#ar"/><use transform="matrix(0.049382716049382706,0,0,0.049382716049382706,149.77777777777774,0)" xlink:href="#aR"/><use transform="matrix(0.049382716049382706,0,0,0.049382716049382706,154.71604938271602,0)" xlink:href="#aS"/></g><use transform="matrix(0.049382716049382706,0,0,0.049382716049382706,0,0)" xlink:href="#aT" id="t"/><g id="u"><use transform="matrix(0.049382716049382706,0,0,0.049382716049382706,0,0)" xlink:href="#aN"/><use transform="matrix(0.049382716049382706,0,0,0.049382716049382706,4.93827160493827,0)" xlink:href="#aU"/><use transform="matrix(0.049382716049382706,0,0,0.049382716049382706,15.753086419753084,0)" xlink:href="#aq"/><use transform="matrix(0.049382716049382706,0,0,0.049382716049382706,21.629629629629626,0)" xlink:href="#aV"/></g><g id="v"><use transform="matrix(0.049382716049382706,0,0,0.049382716049382706,0,0)" xlink:href="#aO"/><use transform="matrix(0.049382716049382706,0,0,0.049382716049382706,9.87654320987654,0)" xlink:href="#aM"/><use transform="matrix(0.049382716049382706,0,0,0.049382716049382706,14.814814814814811,0)" xlink:href="#aN"/><use transform="matrix(0.049382716049382706,0,0,0.049382716049382706,19.75308641975308,0)" xlink:href="#aO"/><use transform="matrix(0.049382716049382706,0,0,0.049382716049382706,29.629629629629623,0)" xlink:href="#aw"/></g><use transform="matrix(0.049382716049382706,0,0,0.049382716049382706,0,0)" xlink:href="#aT" id="w"/><g id="x"><use transform="matrix(0.049382716049382706,0,0,0.049382716049382706,0,0)" xlink:href="#aW"/><use transform="matrix(0.049382716049382706,0,0,0.049382716049382706,11.85185185185185,0)" xlink:href="#aq"/><use transform="matrix(0.049382716049382706,0,0,0.049382716049382706,17.728395061728392,0)" xlink:href="#aK"/><use transform="matrix(0.049382716049382706,0,0,0.049382716049382706,24.64197530864197,0)" xlink:href="#aN"/><use transform="matrix(0.049382716049382706,0,0,0.049382716049382706,29.58024691358024,0)" xlink:href="#aU"/><use transform="matrix(0.049382716049382706,0,0,0.049382716049382706,40.39506172839505,0)" xlink:href="#aX"/><use transform="matrix(0.049382716049382706,0,0,0.049382716049382706,51.20987654320986,0)" xlink:href="#aV"/></g><g id="y"><use transform="matrix(0.049382716049382706,0,0,0.049382716049382706,0,0)" xlink:href="#aH"/><use transform="matrix(0.049382716049382706,0,0,0.049382716049382706,9.87654320987654,0)" xlink:href="#aI"/><use transform="matrix(0.049382716049382706,0,0,0.049382716049382706,20.691358024691354,0)" xlink:href="#aq"/><use transform="matrix(0.049382716049382706,0,0,0.049382716049382706,26.567901234567895,0)" xlink:href="#at"/></g><path fill="#333" d="M182-130c37 4 62 22 62 59C244 23 116-4 24 0v-248c84 5 203-23 205 63 0 31-19 50-47 55zM76-148c40-3 101 13 101-30 0-44-60-28-101-31v61zm0 110c48-3 116 14 116-37 0-48-69-32-116-35v72" id="ba"/><g id="z"><use transform="matrix(0.049382716049382706,0,0,0.049382716049382706,0,0)" xlink:href="#ba"/><use transform="matrix(0.049382716049382706,0,0,0.049382716049382706,12.790123456790122,0)" xlink:href="#aI"/><use transform="matrix(0.049382716049382706,0,0,0.049382716049382706,23.604938271604937,0)" xlink:href="#aM"/><use transform="matrix(0.049382716049382706,0,0,0.049382716049382706,28.54320987654321,0)" xlink:href="#at"/><use transform="matrix(0.049382716049382706,0,0,0.049382716049382706,38.419753086419746,0)" xlink:href="#aO"/><use transform="matrix(0.049382716049382706,0,0,0.049382716049382706,48.29629629629629,0)" xlink:href="#aU"/><use transform="matrix(0.049382716049382706,0,0,0.049382716049382706,59.1111111111111,0)" xlink:href="#aV"/></g><g id="A"><use transform="matrix(0.049382716049382706,0,0,0.049382716049382706,0,0)" xlink:href="#av"/><use transform="matrix(0.049382716049382706,0,0,0.049382716049382706,10.814814814814813,0)" xlink:href="#aw"/><use transform="matrix(0.049382716049382706,0,0,0.049382716049382706,20.691358024691354,0)" xlink:href="#at"/><use transform="matrix(0.049382716049382706,0,0,0.049382716049382706,30.567901234567895,0)" xlink:href="#aK"/></g><g id="B"><use transform="matrix(0.049382716049382706,0,0,0.049382716049382706,0,0)" xlink:href="#aW"/><use transform="matrix(0.049382716049382706,0,0,0.049382716049382706,11.85185185185185,0)" xlink:href="#aq"/><use transform="matrix(0.049382716049382706,0,0,0.049382716049382706,17.728395061728392,0)" xlink:href="#aK"/><use transform="matrix(0.049382716049382706,0,0,0.049382716049382706,24.64197530864197,0)" xlink:href="#aN"/><use transform="matrix(0.049382716049382706,0,0,0.049382716049382706,29.58024691358024,0)" xlink:href="#aU"/><use transform="matrix(0.049382716049382706,0,0,0.049382716049382706,40.39506172839505,0)" xlink:href="#aX"/><use transform="matrix(0.049382716049382706,0,0,0.049382716049382706,51.20987654320986,0)" xlink:href="#aZ"/></g><path d="M108 0H70L1-190h34L89-25l56-165h34" id="bb"/><path d="M96-169c-40 0-48 33-48 73s9 75 48 75c24 0 41-14 43-38l32 2c-6 37-31 61-74 61-59 0-76-41-82-99-10-93 101-131 147-64 4 7 5 14 7 22l-32 3c-4-21-16-35-41-35" id="bc"/><g id="C"><use transform="matrix(0.05,0,0,0.05,0,0)" xlink:href="#ax"/><use transform="matrix(0.05,0,0,0.05,5,0)" xlink:href="#ae"/><use transform="matrix(0.05,0,0,0.05,17,0)" xlink:href="#ao"/><use transform="matrix(0.05,0,0,0.05,20.95,0)" xlink:href="#ay"/><use transform="matrix(0.05,0,0,0.05,24.9,0)" xlink:href="#ak"/><use transform="matrix(0.05,0,0,0.05,34.9,0)" xlink:href="#az"/><use transform="matrix(0.05,0,0,0.05,43.9,0)" xlink:href="#aA"/><use transform="matrix(0.05,0,0,0.05,55.900000000000006,0)" xlink:href="#aB"/><use transform="matrix(0.05,0,0,0.05,65.9,0)" xlink:href="#ai"/><use transform="matrix(0.05,0,0,0.05,75.9,0)" xlink:href="#ai"/><use transform="matrix(0.05,0,0,0.05,85.9,0)" xlink:href="#aC"/><use transform="matrix(0.05,0,0,0.05,95.9,0)" xlink:href="#az"/><use transform="matrix(0.05,0,0,0.05,104.9,0)" xlink:href="#aD"/><use transform="matrix(0.05,0,0,0.05,109.9,0)" xlink:href="#ay"/><use transform="matrix(0.05,0,0,0.05,113.85000000000001,0)" xlink:href="#aE"/><use transform="matrix(0.05,0,0,0.05,123.85000000000001,0)" xlink:href="#aF"/><use transform="matrix(0.05,0,0,0.05,133.85000000000002,0)" xlink:href="#aA"/><use transform="matrix(0.05,0,0,0.05,145.85000000000002,0)" xlink:href="#aC"/><use transform="matrix(0.05,0,0,0.05,155.85000000000002,0)" xlink:href="#aj"/><use transform="matrix(0.05,0,0,0.05,161.8,0)" xlink:href="#bb"/><use transform="matrix(0.05,0,0,0.05,170.8,0)" xlink:href="#ay"/><use transform="matrix(0.05,0,0,0.05,174.75,0)" xlink:href="#bc"/><use transform="matrix(0.05,0,0,0.05,183.75,0)" xlink:href="#aC"/><path d="M-.9 1.25h195.55v1.32H-.9z"/></g><path fill="#333" d="M33-154v-36h34v36H33zM33 0v-36h34V0H33" id="bd"/><path fill="#333" d="M205 0l-28-72H64L36 0H1l101-248h38L239 0h-34zm-38-99l-47-123c-12 45-31 82-46 123h93" id="be"/><path fill="#333" d="M24 0v-261h32V0H24" id="bf"/><path fill="#333" d="M141-36C126-15 110 5 73 4 37 3 15-17 15-53c-1-64 63-63 125-63 3-35-9-54-41-54-24 1-41 7-42 31l-33-3c5-37 33-52 76-52 45 0 72 20 72 64v82c-1 20 7 32 28 27v20c-31 9-61-2-59-35zM48-53c0 20 12 33 32 33 41-3 63-29 60-74-43 2-92-5-92 41" id="bg"/><path fill="#333" d="M233-177c-1 41-23 64-60 70L243 0h-38l-65-103H63V0H30v-248c88 3 205-21 203 71zM63-129c60-2 137 13 137-47 0-61-80-42-137-45v92" id="bh"/><path fill="#333" d="M179-190L93 31C79 59 56 82 12 73V49c39 6 53-20 64-50L1-190h34L92-34l54-156h33" id="bi"/><g id="D"><use transform="matrix(0.049382716049382706,0,0,0.049382716049382706,0,0)" xlink:href="#bd"/><use transform="matrix(0.049382716049382706,0,0,0.049382716049382706,4.93827160493827,0)" xlink:href="#be"/><use transform="matrix(0.049382716049382706,0,0,0.049382716049382706,16.79012345679012,0)" xlink:href="#bf"/><use transform="matrix(0.049382716049382706,0,0,0.049382716049382706,20.691358024691354,0)" xlink:href="#ab"/><use transform="matrix(0.049382716049382706,0,0,0.049382716049382706,24.592592592592588,0)" xlink:href="#bg"/><use transform="matrix(0.049382716049382706,0,0,0.049382716049382706,34.469135802469125,0)" xlink:href="#S"/><use transform="matrix(0.049382716049382706,0,0,0.049382716049382706,43.35802469135801,0)" xlink:href="#Y"/><use transform="matrix(0.049382716049382706,0,0,0.049382716049382706,55.20987654320985,0)" xlink:href="#Z"/><use transform="matrix(0.049382716049382706,0,0,0.049382716049382706,65.0864197530864,0)" xlink:href="#aa"/><use transform="matrix(0.049382716049382706,0,0,0.049382716049382706,74.96296296296295,0)" xlink:href="#aa"/><use transform="matrix(0.049382716049382706,0,0,0.049382716049382706,84.83950617283949,0)" xlink:href="#T"/><use transform="matrix(0.049382716049382706,0,0,0.049382716049382706,94.71604938271604,0)" xlink:href="#S"/><use transform="matrix(0.049382716049382706,0,0,0.049382716049382706,103.60493827160492,0)" xlink:href="#O"/><use transform="matrix(0.049382716049382706,0,0,0.049382716049382706,108.54320987654319,0)" xlink:href="#ab"/><use transform="matrix(0.049382716049382706,0,0,0.049382716049382706,112.44444444444443,0)" xlink:href="#M"/><use transform="matrix(0.049382716049382706,0,0,0.049382716049382706,122.32098765432096,0)" xlink:href="#ac"/><use transform="matrix(0.049382716049382706,0,0,0.049382716049382706,132.1975308641975,0)" xlink:href="#bh"/><use transform="matrix(0.049382716049382706,0,0,0.049382716049382706,144.98765432098762,0)" xlink:href="#T"/><use transform="matrix(0.049382716049382706,0,0,0.049382716049382706,154.86419753086415,0)" xlink:href="#N"/><use transform="matrix(0.049382716049382706,0,0,0.049382716049382706,164.74074074074068,0)" xlink:href="#M"/><use transform="matrix(0.049382716049382706,0,0,0.049382716049382706,174.6172839506172,0)" xlink:href="#S"/><use transform="matrix(0.049382716049382706,0,0,0.049382716049382706,183.5061728395061,0)" xlink:href="#ab"/><use transform="matrix(0.049382716049382706,0,0,0.049382716049382706,187.40740740740733,0)" xlink:href="#O"/><use transform="matrix(0.049382716049382706,0,0,0.049382716049382706,192.3456790123456,0)" xlink:href="#M"/><use transform="matrix(0.049382716049382706,0,0,0.049382716049382706,202.22222222222214,0)" xlink:href="#U"/><use transform="matrix(0.049382716049382706,0,0,0.049382716049382706,208.09876543209867,0)" xlink:href="#bi"/><path fill="#333" d="M-.9 1.23H217.9v1.3H-.9z"/></g><path fill="#333" d="M88-194c31-1 46 15 58 34l-1-101h50l1 261h-48c-2-10 0-23-3-31C134-8 116 4 84 4 32 4 16-41 15-95c0-56 19-97 73-99zm17 164c33 0 40-30 41-66 1-37-9-64-41-64s-38 30-39 65c0 43 13 65 39 65" id="bj"/><path fill="#333" d="M147 0H94L2-248h55l64 206c17-72 42-137 63-206h54" id="bk"/><g id="E"><use transform="matrix(0.04938271604938272,0,0,0.04938271604938272,0,0)" xlink:href="#av"/><use transform="matrix(0.04938271604938272,0,0,0.04938271604938272,10.814814814814815,0)" xlink:href="#ar"/><use transform="matrix(0.04938271604938272,0,0,0.04938271604938272,21.62962962962963,0)" xlink:href="#bj"/><use transform="matrix(0.04938271604938272,0,0,0.04938271604938272,32.44444444444444,0)" xlink:href="#aO"/><use transform="matrix(0.04938271604938272,0,0,0.04938271604938272,42.32098765432099,0)" xlink:href="#aq"/><use transform="matrix(0.04938271604938272,0,0,0.04938271604938272,48.19753086419753,0)" xlink:href="#at"/><use transform="matrix(0.04938271604938272,0,0,0.04938271604938272,58.074074074074076,0)" xlink:href="#bk"/><use transform="matrix(0.04938271604938272,0,0,0.04938271604938272,68.5925925925926,0)" xlink:href="#aI"/><use transform="matrix(0.04938271604938272,0,0,0.04938271604938272,79.4074074074074,0)" xlink:href="#aq"/><use transform="matrix(0.04938271604938272,0,0,0.04938271604938272,85.28395061728395,0)" xlink:href="#at"/><use transform="matrix(0.04938271604938272,0,0,0.04938271604938272,95.1604938271605,0)" xlink:href="#aw"/><use transform="matrix(0.04938271604938272,0,0,0.04938271604938272,105.03703703703705,0)" xlink:href="#aP"/><use transform="matrix(0.04938271604938272,0,0,0.04938271604938272,110.9135802469136,0)" xlink:href="#aQ"/><use transform="matrix(0.04938271604938272,0,0,0.04938271604938272,126.71604938271606,0)" xlink:href="#aO"/><use transform="matrix(0.04938271604938272,0,0,0.04938271604938272,136.5925925925926,0)" xlink:href="#ar"/><use transform="matrix(0.04938271604938272,0,0,0.04938271604938272,147.40740740740742,0)" xlink:href="#aR"/><use transform="matrix(0.04938271604938272,0,0,0.04938271604938272,152.3456790123457,0)" xlink:href="#aS"/></g><g id="F"><use transform="matrix(0.04938271604938272,0,0,0.04938271604938272,0,0)" xlink:href="#aT"/><use transform="matrix(0.04938271604938272,0,0,0.04938271604938272,5.8765432098765435,0)" xlink:href="#ba"/><use transform="matrix(0.04938271604938272,0,0,0.04938271604938272,18.666666666666668,0)" xlink:href="#aI"/><use transform="matrix(0.04938271604938272,0,0,0.04938271604938272,29.481481481481477,0)" xlink:href="#aI"/><use transform="matrix(0.04938271604938272,0,0,0.04938271604938272,40.2962962962963,0)" xlink:href="#aM"/><use transform="matrix(0.04938271604938272,0,0,0.04938271604938272,45.23456790123457,0)" xlink:href="#at"/><use transform="matrix(0.04938271604938272,0,0,0.04938271604938272,55.111111111111114,0)" xlink:href="#aO"/><use transform="matrix(0.04938271604938272,0,0,0.04938271604938272,64.98765432098766,0)" xlink:href="#aU"/><use transform="matrix(0.04938271604938272,0,0,0.04938271604938272,75.80246913580247,0)" xlink:href="#aZ"/></g><g id="G"><use transform="matrix(0.04938271604938272,0,0,0.04938271604938272,0,0)" xlink:href="#ap"/><use transform="matrix(0.04938271604938272,0,0,0.04938271604938272,12.790123456790125,0)" xlink:href="#aq"/><use transform="matrix(0.04938271604938272,0,0,0.04938271604938272,18.666666666666668,0)" xlink:href="#aq"/><use transform="matrix(0.04938271604938272,0,0,0.04938271604938272,24.543209876543212,0)" xlink:href="#ar"/><use transform="matrix(0.04938271604938272,0,0,0.04938271604938272,35.358024691358025,0)" xlink:href="#as"/><use transform="matrix(0.04938271604938272,0,0,0.04938271604938272,48.14814814814815,0)" xlink:href="#at"/><use transform="matrix(0.04938271604938272,0,0,0.04938271604938272,58.0246913580247,0)" xlink:href="#aw"/><use transform="matrix(0.04938271604938272,0,0,0.04938271604938272,67.90123456790124,0)" xlink:href="#ar"/><use transform="matrix(0.04938271604938272,0,0,0.04938271604938272,78.71604938271605,0)" xlink:href="#aI"/><use transform="matrix(0.04938271604938272,0,0,0.04938271604938272,89.53086419753086,0)" xlink:href="#aU"/><use transform="matrix(0.04938271604938272,0,0,0.04938271604938272,100.34567901234567,0)" xlink:href="#aw"/><use transform="matrix(0.04938271604938272,0,0,0.04938271604938272,110.22222222222221,0)" xlink:href="#at"/></g><path fill="#333" d="M238-95c0 69-44 99-111 99C63 4 22-25 22-93v-155h51v151c-1 38 19 59 55 60 90 1 49-130 58-211h52v153" id="bl"/><g id="H"><use transform="matrix(0.04938271604938272,0,0,0.04938271604938272,0,0)" xlink:href="#aO"/><use transform="matrix(0.04938271604938272,0,0,0.04938271604938272,9.876543209876544,0)" xlink:href="#bj"/><use transform="matrix(0.04938271604938272,0,0,0.04938271604938272,20.69135802469136,0)" xlink:href="#bj"/><use transform="matrix(0.04938271604938272,0,0,0.04938271604938272,31.506172839506174,0)" xlink:href="#bk"/><use transform="matrix(0.04938271604938272,0,0,0.04938271604938272,42.0246913580247,0)" xlink:href="#aI"/><use transform="matrix(0.04938271604938272,0,0,0.04938271604938272,52.83950617283951,0)" xlink:href="#aq"/><use transform="matrix(0.04938271604938272,0,0,0.04938271604938272,58.71604938271606,0)" xlink:href="#at"/><use transform="matrix(0.04938271604938272,0,0,0.04938271604938272,68.59259259259261,0)" xlink:href="#bj"/><use transform="matrix(0.04938271604938272,0,0,0.04938271604938272,79.40740740740742,0)" xlink:href="#bl"/><use transform="matrix(0.04938271604938272,0,0,0.04938271604938272,92.19753086419755,0)" xlink:href="#aw"/><use transform="matrix(0.04938271604938272,0,0,0.04938271604938272,102.07407407407408,0)" xlink:href="#at"/><use transform="matrix(0.04938271604938272,0,0,0.04938271604938272,111.95061728395062,0)" xlink:href="#aK"/><use transform="matrix(0.04938271604938272,0,0,0.04938271604938272,118.8641975308642,0)" xlink:href="#aP"/><use transform="matrix(0.04938271604938272,0,0,0.04938271604938272,124.74074074074075,0)" xlink:href="#aQ"/><use transform="matrix(0.04938271604938272,0,0,0.04938271604938272,140.54320987654324,0)" xlink:href="#aO"/><use transform="matrix(0.04938271604938272,0,0,0.04938271604938272,150.4197530864198,0)" xlink:href="#ar"/><use transform="matrix(0.04938271604938272,0,0,0.04938271604938272,161.2345679012346,0)" xlink:href="#aR"/><use transform="matrix(0.04938271604938272,0,0,0.04938271604938272,166.1728395061729,0)" xlink:href="#aS"/></g><path fill="#333" d="M15-22v-40l146-57-146-57v-40l181 69v56" id="bm"/><g id="I"><use transform="matrix(0.04938271604938272,0,0,0.04938271604938272,0,0)" xlink:href="#aW"/><use transform="matrix(0.04938271604938272,0,0,0.04938271604938272,11.851851851851853,0)" xlink:href="#aq"/><use transform="matrix(0.04938271604938272,0,0,0.04938271604938272,17.728395061728396,0)" xlink:href="#aK"/><use transform="matrix(0.04938271604938272,0,0,0.04938271604938272,24.641975308641975,0)" xlink:href="#aN"/><use transform="matrix(0.04938271604938272,0,0,0.04938271604938272,29.58024691358025,0)" xlink:href="#aU"/><use transform="matrix(0.04938271604938272,0,0,0.04938271604938272,40.39506172839506,0)" xlink:href="#aX"/><use transform="matrix(0.04938271604938272,0,0,0.04938271604938272,51.20987654320988,0)" xlink:href="#bm"/></g><path fill="#333" d="M123 10C108 53 80 86 19 72V37c35 8 53-11 59-39L3-190h52l48 148c12-52 28-100 44-148h51" id="bn"/><path fill="#333" d="M175 0L67-191c6 58 2 128 3 191H24v-248h59L193-55c-6-58-2-129-3-193h46V0h-61" id="bo"/><g id="J"><use transform="matrix(0.04938271604938272,0,0,0.04938271604938272,0,0)" xlink:href="#aX"/><use transform="matrix(0.04938271604938272,0,0,0.04938271604938272,10.814814814814815,0)" xlink:href="#at"/><use transform="matrix(0.04938271604938272,0,0,0.04938271604938272,20.69135802469136,0)" xlink:href="#aq"/><use transform="matrix(0.04938271604938272,0,0,0.04938271604938272,26.567901234567902,0)" xlink:href="#ba"/><use transform="matrix(0.04938271604938272,0,0,0.04938271604938272,39.35802469135803,0)" xlink:href="#bn"/><use transform="matrix(0.04938271604938272,0,0,0.04938271604938272,49.23456790123458,0)" xlink:href="#aR"/><use transform="matrix(0.04938271604938272,0,0,0.04938271604938272,54.17283950617284,0)" xlink:href="#aS"/><use transform="matrix(0.04938271604938272,0,0,0.04938271604938272,66.96296296296298,0)" xlink:href="#aL"/><use transform="matrix(0.04938271604938272,0,0,0.04938271604938272,79.7530864197531,0)" xlink:href="#aU"/><use transform="matrix(0.04938271604938272,0,0,0.04938271604938272,90.56790123456791,0)" xlink:href="#bj"/><use transform="matrix(0.04938271604938272,0,0,0.04938271604938272,101.38271604938272,0)" xlink:href="#bo"/><use transform="matrix(0.04938271604938272,0,0,0.04938271604938272,114.17283950617285,0)" xlink:href="#aO"/><use transform="matrix(0.04938271604938272,0,0,0.04938271604938272,124.0493827160494,0)" xlink:href="#aQ"/><use transform="matrix(0.04938271604938272,0,0,0.04938271604938272,139.85185185185188,0)" xlink:href="#at"/><use transform="matrix(0.04938271604938272,0,0,0.04938271604938272,149.7283950617284,0)" xlink:href="#aP"/><use transform="matrix(0.04938271604938272,0,0,0.04938271604938272,155.60493827160494,0)" xlink:href="#aQ"/><use transform="matrix(0.04938271604938272,0,0,0.04938271604938272,171.40740740740742,0)" xlink:href="#aO"/><use transform="matrix(0.04938271604938272,0,0,0.04938271604938272,181.28395061728395,0)" xlink:href="#ar"/><use transform="matrix(0.04938271604938272,0,0,0.04938271604938272,192.09876543209876,0)" xlink:href="#aR"/><use transform="matrix(0.04938271604938272,0,0,0.04938271604938272,197.03703703703704,0)" xlink:href="#aS"/></g><g id="K"><use transform="matrix(0.04938271604938272,0,0,0.04938271604938272,0,0)" xlink:href="#aO"/><use transform="matrix(0.04938271604938272,0,0,0.04938271604938272,9.876543209876544,0)" xlink:href="#aM"/><use transform="matrix(0.04938271604938272,0,0,0.04938271604938272,14.814814814814817,0)" xlink:href="#aN"/><use transform="matrix(0.04938271604938272,0,0,0.04938271604938272,19.75308641975309,0)" xlink:href="#aO"/><use transform="matrix(0.04938271604938272,0,0,0.04938271604938272,29.629629629629633,0)" xlink:href="#aw"/><use transform="matrix(0.04938271604938272,0,0,0.04938271604938272,39.50617283950618,0)" xlink:href="#aW"/><use transform="matrix(0.04938271604938272,0,0,0.04938271604938272,51.35802469135803,0)" xlink:href="#av"/><use transform="matrix(0.04938271604938272,0,0,0.04938271604938272,62.17283950617284,0)" xlink:href="#aX"/><use transform="matrix(0.04938271604938272,0,0,0.04938271604938272,72.98765432098766,0)" xlink:href="#aX"/><use transform="matrix(0.04938271604938272,0,0,0.04938271604938272,83.80246913580247,0)" xlink:href="#at"/><use transform="matrix(0.04938271604938272,0,0,0.04938271604938272,93.67901234567901,0)" xlink:href="#aw"/><use transform="matrix(0.04938271604938272,0,0,0.04938271604938272,103.55555555555557,0)" xlink:href="#aq"/><use transform="matrix(0.04938271604938272,0,0,0.04938271604938272,109.4320987654321,0)" xlink:href="#aN"/><use transform="matrix(0.04938271604938272,0,0,0.04938271604938272,114.37037037037038,0)" xlink:href="#aI"/><use transform="matrix(0.04938271604938272,0,0,0.04938271604938272,125.18518518518519,0)" xlink:href="#aU"/></g><g id="L"><use transform="matrix(0.04938271604938272,0,0,0.04938271604938272,0,0)" xlink:href="#aL"/><use transform="matrix(0.04938271604938272,0,0,0.04938271604938272,12.790123456790125,0)" xlink:href="#aM"/><use transform="matrix(0.04938271604938272,0,0,0.04938271604938272,17.7283950617284,0)" xlink:href="#aN"/><use transform="matrix(0.04938271604938272,0,0,0.04938271604938272,22.66666666666667,0)" xlink:href="#aO"/><use transform="matrix(0.04938271604938272,0,0,0.04938271604938272,32.543209876543216,0)" xlink:href="#aw"/><use transform="matrix(0.04938271604938272,0,0,0.04938271604938272,42.41975308641976,0)" xlink:href="#aW"/><use transform="matrix(0.04938271604938272,0,0,0.04938271604938272,54.27160493827161,0)" xlink:href="#av"/><use transform="matrix(0.04938271604938272,0,0,0.04938271604938272,65.08641975308643,0)" xlink:href="#aX"/><use transform="matrix(0.04938271604938272,0,0,0.04938271604938272,75.90123456790124,0)" xlink:href="#aX"/><use transform="matrix(0.04938271604938272,0,0,0.04938271604938272,86.71604938271605,0)" xlink:href="#at"/><use transform="matrix(0.04938271604938272,0,0,0.04938271604938272,96.5925925925926,0)" xlink:href="#aw"/><use transform="matrix(0.04938271604938272,0,0,0.04938271604938272,106.46913580246914,0)" xlink:href="#aq"/><use transform="matrix(0.04938271604938272,0,0,0.04938271604938272,112.34567901234568,0)" xlink:href="#aN"/><use transform="matrix(0.04938271604938272,0,0,0.04938271604938272,117.28395061728394,0)" xlink:href="#aI"/><use transform="matrix(0.04938271604938272,0,0,0.04938271604938272,128.09876543209876,0)" xlink:href="#aU"/></g></defs></g></svg>