<svg xmlns="http://www.w3.org/2000/svg" xmlns:xlink="http://www.w3.org/1999/xlink" xmlns:lucid="lucid" width="1906.43" height="900"><g transform="translate(23.28346456692907 -200)" lucid:page-tab-id="0_0"><path d="M0 0h1870.87v1322.83H0z" fill="#fff"/><path d="M178.92 226c0-3.3 2.68-6 6-6h143.76c3.32 0 6 2.7 6 6v108c0 3.3-2.68 6-6 6H184.92c-3.32 0-6-2.7-6-6z" stroke="#5e5e5e" stroke-width="3" fill="#fff"/><use xlink:href="#a" transform="matrix(1,0,0,1,178.91680206640848,220) translate(31.054999999999993 63.15)"/><g fill="none"><path d="M258.26 340.75c.4 0 .75.34.75.75v87c0 .4-.33.75-.74.75-.4 0-.75-.34-.75-.75v-87c0-.4.35-.75.76-.75z"/><path d="M259 370.5v29m0 14.5v14.5l-.2.53-.54.22-.53-.22-.22-.53V414m0-14.5v-29m0-14.5v-14.5l.23-.53.53-.22.53.22.2.53V356" stroke="#5e5e5e" stroke-width="1.5"/></g><path d="M238.8 436c0-3.3 2.68-6 6-6h28c3.3 0 6 2.7 6 6v538c0 3.3-2.7 6-6 6h-28c-3.32 0-6-2.7-6-6z" stroke="#5e5e5e" stroke-width="3" fill="#fff"/><path d="M24.15 460H218.8M24.18 460h-1.03" stroke="#5e5e5e" stroke-width="2" fill="none"/><path d="M234.05 460l-14.26 4.64v-9.28z" stroke="#5e5e5e" stroke-width="2" fill="#5e5e5e"/><path d="M42.62 436c0-3.3 2.7-6 6-6h182.7c3.32 0 6 2.7 6 6v18c0 3.3-2.68 6-6 6H48.63c-3.3 0-6-2.7-6-6z" stroke="#000" stroke-opacity="0" stroke-width="3" fill="#fff" fill-opacity="0"/><use xlink:href="#b" transform="matrix(1,0,0,1,47.62050577011219,435) translate(39.85802469135803 15.472222222222221)"/><g fill="none"><path d="M255.34 980.75c.4 0 .75.34.75.75v77c0 .4-.35.75-.76.75-.4 0-.75-.34-.75-.75v-77c0-.4.33-.75.74-.75z"/><path d="M256.1 1007.17v25.66m0 12.84v12.83l-.23.53-.53.22-.53-.22-.2-.53v-12.83m0-12.84v-25.66m0-12.84V981.5l.2-.53.54-.22.53.22.22.53v12.83" stroke="#5e5e5e" stroke-width="1.5"/></g><path d="M719.66 226c0-3.3 2.68-6 6-6h245.56c3.32 0 6 2.7 6 6v108c0 3.3-2.68 6-6 6H725.66c-3.32 0-6-2.7-6-6z" stroke="#5e5e5e" stroke-width="3" fill="#fff"/><use xlink:href="#c" transform="matrix(1,0,0,1,719.6558763487897,220) translate(62.07999999999999 63.15)"/><path d="M840.93 486c0-3.3 2.68-6 6-6h28c3.3 0 6 2.7 6 6v408c0 3.3-2.7 6-6 6h-28c-3.32 0-6-2.7-6-6z" stroke="#5e5e5e" stroke-width="3" fill="#fff"/><path d="M281.3 492.78h539.63" stroke="#5e5e5e" stroke-width="2" fill="none"/><path d="M281.32 493.78h-1.03v-2h1.02" fill="#5e5e5e"/><path d="M836.2 492.78l-14.27 4.63v-9.26z" stroke="#5e5e5e" stroke-width="2" fill="#5e5e5e"/><use xlink:href="#d" transform="matrix(1,0,0,1,410.50057631684945,467.4451416136086) translate(0.0049999999999954525 14.222222222222221)"/><use xlink:href="#e" transform="matrix(1,0,0,1,410.50057631684945,467.4451416136086) translate(230.81981481481472 14.222222222222221)"/><use xlink:href="#f" transform="matrix(1,0,0,1,410.50057631684945,467.4451416136086) translate(241.63462962962953 14.222222222222221)"/><path d="M883.43 543.83h520.34" stroke="#5e5e5e" stroke-width="2" fill="none"/><path d="M883.45 544.83h-1.02v-2h1.02" fill="#5e5e5e"/><path d="M1386.4 554l17.22-10.17-17.22-10.18" stroke="#5e5e5e" stroke-width="2" fill="none"/><use xlink:href="#d" transform="matrix(1,0,0,1,994.6474017136748,518.4986876640421) translate(0.0049999999999954525 14.222222222222221)"/><use xlink:href="#e" transform="matrix(1,0,0,1,994.6474017136748,518.4986876640421) translate(230.81981481481472 14.222222222222221)"/><use xlink:href="#f" transform="matrix(1,0,0,1,994.6474017136748,518.4986876640421) translate(241.63462962962953 14.222222222222221)"/><g fill="none"><path d="M860.4 900.75c.4 0 .75.34.75.75v157c0 .4-.34.75-.75.75-.42 0-.75-.34-.75-.75v-157c0-.4.33-.75.75-.75z"/><path d="M861.15 936.4v34.88m0 17.44v34.9m0 17.44v17.44l-.22.53-.53.22-.53-.22-.22-.53v-17.44m0-17.45v-34.88m0-17.44v-34.9m0-17.44V901.5l.22-.53.53-.22.53.22.22.53v17.44" stroke="#5e5e5e" stroke-width="1.5"/></g><g fill="none"><path d="M863.32 340.75c.4 0 .75.34.75.75v137c0 .4-.34.75-.75.75-.42 0-.75-.34-.75-.75v-137c0-.4.33-.75.75-.75z"/><path d="M864.07 371.94v30.45m0 15.2v30.46m0 15.22v15.22l-.22.53-.53.22-.53-.22-.23-.53v-15.22m0-15.22V417.6m0-15.2v-30.46m0-15.22V341.5l.22-.53.52-.22.53.22.22.53v15.22" stroke="#5e5e5e" stroke-width="1.5"/></g><path d="M1308.23 246c0-3.3 2.7-6 6-6h202.18c3.32 0 6 2.7 6 6v108c0 3.3-2.68 6-6 6h-202.17c-3.3 0-6-2.7-6-6z" stroke="#5e5e5e" stroke-width="3" fill="#fff"/><use xlink:href="#g" transform="matrix(1,0,0,1,1308.2289713785776,240) translate(38.605 63.15)"/><path d="M1405.58 546c0-3.3 2.7-6 6-6h28c3.32 0 6 2.7 6 6v228c0 3.3-2.68 6-6 6h-28c-3.3 0-6-2.7-6-6z" stroke="#5e5e5e" stroke-width="3" fill="#fff"/><g fill="none"><path d="M1425.05 360.75c.42 0 .75.34.75.75v177c0 .4-.33.75-.75.75-.4 0-.75-.34-.75-.75v-177c0-.4.34-.75.75-.75z"/><path d="M1425.8 391v29.5m0 14.75v29.5m0 14.75V509m0 14.75v14.75l-.22.53-.53.22-.53-.22-.22-.53v-14.75m0-14.75v-29.5m0-14.75v-29.5m0-14.75V391m0-14.75V361.5l.22-.53.53-.22.53.22.22.53v14.75" stroke="#5e5e5e" stroke-width="1.5"/></g><g fill="none"><path d="M1425.05 780.75c.42 0 .75.34.75.75v297c0 .4-.33.75-.75.75-.4 0-.75-.34-.75-.75v-297c0-.4.34-.75.75-.75z"/><path d="M1425.8 809.8v28.27m0 14.14v28.3m0 14.14v28.3m0 14.13v28.3m0 14.13v28.3m0 14.13v28.28m0 14.16v14.14l-.22.53-.53.22-.53-.22-.22-.53v-14.14m0-14.15v-28.27m0-14.14v-28.3m0-14.14v-28.3m0-14.13v-28.3m0-14.13v-28.3m0-14.13V809.8m0-14.16V781.5l.22-.53.53-.22.53.22.22.53v14.14" stroke="#5e5e5e" stroke-width="1.5"/></g><path d="M1629.5 246c0-3.3 2.7-6 6-6h221.65c3.3 0 6 2.7 6 6v108c0 3.3-2.7 6-6 6H1635.5c-3.3 0-6-2.7-6-6z" stroke="#5e5e5e" stroke-width="3" fill="#fff"/><use xlink:href="#h" transform="matrix(1,0,0,1,1634.4988126484186,245) translate(31.629629629629648 58.90972222222222)"/><path d="M1726.85 606c0-3.3 2.7-6 6-6h28c3.32 0 6 2.7 6 6v108c0 3.3-2.68 6-6 6h-28c-3.3 0-6-2.7-6-6z" stroke="#5e5e5e" stroke-width="3" fill="#fff"/><path d="M1448.08 618.58h258.77" stroke="#5e5e5e" stroke-width="2" fill="none"/><path d="M1448.1 619.58h-1.02v-2h1.03" fill="#5e5e5e"/><path d="M1722.12 618.58l-14.27 4.64v-9.27z" stroke="#5e5e5e" stroke-width="2" fill="#5e5e5e"/><use xlink:href="#i" transform="matrix(1,0,0,1,1465.9714757877487,593.2493438320212) translate(0.0049999999999954525 14.222222222222223)"/><use xlink:href="#j" transform="matrix(1,0,0,1,1465.9714757877487,593.2493438320212) translate(172.59759259259266 14.222222222222223)"/><use xlink:href="#k" transform="matrix(1,0,0,1,1465.9714757877487,593.2493438320212) translate(183.41240740740747 14.222222222222223)"/><g fill="none"><path d="M1747.78 740.75c.42 0 .75.34.75.75v337c0 .4-.33.75-.75.75-.4 0-.75-.34-.75-.75v-337c0-.4.34-.75.75-.75z"/><path d="M1748.53 773.6v32.1m0 16.04v32.1m0 16.04v32.1m0 16.04v32.1m0 16.05v32.1m0 16.04v32.1m0 16.05v16.05l-.22.53-.52.22-.53-.22-.22-.53v-16.05m0-16.05v-32.1m0-16.04v-32.1m0-16.04v-32.1m0-16.04v-32.1m0-16.05v-32.1m0-16.04v-32.1m0-16.05V741.5l.22-.53.53-.22.53.22.23.53v16.05" stroke="#5e5e5e" stroke-width="1.5"/></g><g fill="none"><path d="M1750.7 360.75c.42 0 .76.34.76.75v237c0 .4-.34.75-.75.75-.4 0-.74-.34-.74-.75v-237c0-.4.33-.75.75-.75z"/><path d="M1751.46 393.1v31.6m0 15.8v31.6m0 15.8v31.6m0 15.8v31.6m0 15.8v15.8l-.22.53-.53.22-.53-.22-.2-.53v-15.8m0-15.8v-31.6m0-15.8v-31.6m0-15.8v-31.6m0-15.8v-31.6m0-15.8v-15.8l.2-.53.54-.22.54.22.22.53v15.8" stroke="#5e5e5e" stroke-width="1.5"/></g><path d="M1724.35 705.4h-9.58m-9.58 0H1686m-9.6 0h-19.15m-9.6 0h-19.16m-9.57 0h-19.17m-9.58 0H1571m-9.57 0h-19.17m-9.6 0h-19.15m-9.58 0h-19.17m-9.58 0h-9.58" stroke="#5e5e5e" stroke-width="2" fill="none"/><path d="M1725.35 706.4h-1.02v-2h1.02" fill="#5e5e5e"/><path d="M1450.32 705.4l14.27-4.63v9.27z" stroke="#5e5e5e" stroke-width="2" fill="#5e5e5e"/><use xlink:href="#l" transform="matrix(1,0,0,1,1508.3418461581189,709.4043965047998) translate(0.0049999999999954525 14.222222222222223)"/><use xlink:href="#j" transform="matrix(1,0,0,1,1508.3418461581189,709.4043965047998) translate(75.01734567901235 14.222222222222223)"/><use xlink:href="#m" transform="matrix(1,0,0,1,1508.3418461581189,709.4043965047998) translate(85.83216049382716 14.222222222222223)"/><path d="M1403.08 761.33h-9.84m-9.85 0h-19.7m-9.85 0h-19.7m-9.84 0h-19.68m-9.84 0h-19.7m-9.84 0h-19.7m-9.84 0H1216m-9.84 0h-19.7m-9.84 0h-19.7m-9.84 0h-19.7m-9.84 0h-19.7m-9.83 0h-19.7m-9.83 0h-19.7m-9.84 0h-19.7m-9.84 0h-19.7m-9.85 0h-19.7m-9.84 0h-19.68m-9.84 0h-9.85" stroke="#5e5e5e" stroke-width="2" fill="none"/><path d="M1404.08 762.33h-1.02v-2h1.02" fill="#5e5e5e"/><path d="M885.66 761.33l14.27-4.63v9.27z" stroke="#5e5e5e" stroke-width="2" fill="#5e5e5e"/><use xlink:href="#n" transform="matrix(1,0,0,1,1108.2183893679958,765.3329258318108) translate(0.005000000000002558 14.222222222222223)"/><path d="M838.43 871.12h-10m-10 0h-19.98m-10 0h-19.98m-10 0H738.5m-10 0h-19.98m-10 0h-19.98m-10 0h-19.98m-10 0h-19.98m-10 0H588.6m-10 0h-19.98m-10 0h-19.98m-10 0h-19.98m-10 0h-19.98m-10 0H438.7m-10 0h-19.98m-10 0h-19.98m-10 0h-19.98m-10 0h-19.98m-10 0h-10" stroke="#5e5e5e" stroke-width="2" fill="none"/><path d="M839.43 872.12h-1.03v-2h1.03" fill="#5e5e5e"/><path d="M283.53 871.12l14.26-4.64v9.27z" stroke="#5e5e5e" stroke-width="2" fill="#5e5e5e"/><g><use xlink:href="#n" transform="matrix(1,0,0,1,524.8215639711703,875.1185574737215) translate(0.005000000000002558 14.222222222222223)"/></g><path d="M236.3 947.18h-9.5m-9.47 0h-18.97m-9.48 0H169.9m-9.47 0h-18.96m-9.48 0h-20.2m-10.7 0H79.7m-10.7 0H47.63m-10.7 0h-10.7" stroke="#5e5e5e" stroke-width="2" fill="none"/><path d="M237.3 948.18h-1.04v-2h1.03" fill="#5e5e5e"/><path d="M10.95 947.18l14.27-4.64v9.27z" stroke="#5e5e5e" stroke-width="2" fill="#5e5e5e"/><g><use xlink:href="#o" transform="matrix(1,0,0,1,62.45379397019828,951.1777245454047) translate(0.005000000000002558 14.222222222222223)"/></g><defs><path d="M205 0l-28-72H64L36 0H1l101-248h38L239 0h-34zm-38-99l-47-123c-12 45-31 82-46 123h93" id="p"/><path d="M30-248c87 1 191-15 191 75 0 78-77 80-158 76V0H30v-248zm33 125c57 0 124 11 124-50 0-59-68-47-124-48v98" id="q"/><path d="M33 0v-248h34V0H33" id="r"/><path d="M33 0v-38h34V0H33" id="s"/><path d="M177-190C167-65 218 103 67 71c-23-6-38-20-44-43l32-5c15 47 100 32 89-28v-30C133-14 115 1 83 1 29 1 15-40 15-95c0-56 16-97 71-98 29-1 48 16 59 35 1-10 0-23 2-32h30zM94-22c36 0 50-32 50-73 0-42-14-75-50-75-39 0-46 34-46 75s6 73 46 73" id="t"/><path d="M114-163C36-179 61-72 57 0H25l-1-190h30c1 12-1 29 2 39 6-27 23-49 58-41v29" id="u"/><path d="M141-36C126-15 110 5 73 4 37 3 15-17 15-53c-1-64 63-63 125-63 3-35-9-54-41-54-24 1-41 7-42 31l-33-3c5-37 33-52 76-52 45 0 72 20 72 64v82c-1 20 7 32 28 27v20c-31 9-61-2-59-35zM48-53c0 20 12 33 32 33 41-3 63-29 60-74-43 2-92-5-92 41" id="v"/><path d="M115-194c55 1 70 41 70 98S169 2 115 4C84 4 66-9 55-30l1 105H24l-1-265h31l2 30c10-21 28-34 59-34zm-8 174c40 0 45-34 45-75s-6-73-45-74c-42 0-51 32-51 76 0 43 10 73 51 73" id="w"/><path d="M106-169C34-169 62-67 57 0H25v-261h32l-1 103c12-21 28-36 61-36 89 0 53 116 60 194h-32v-121c2-32-8-49-39-48" id="x"/><path d="M145-31C134-9 116 4 85 4 32 4 16-35 15-94c0-59 17-99 70-100 32-1 48 14 60 33 0-11-1-24 2-32h30l-1 268h-32zM93-21c41 0 51-33 51-76s-8-73-50-73c-40 0-46 35-46 75s5 74 45 74" id="y"/><path d="M24 0v-261h32V0H24" id="z"/><g id="a"><use transform="matrix(0.05,0,0,0.05,0,0)" xlink:href="#p"/><use transform="matrix(0.05,0,0,0.05,12,0)" xlink:href="#q"/><use transform="matrix(0.05,0,0,0.05,24,0)" xlink:href="#r"/><use transform="matrix(0.05,0,0,0.05,29,0)" xlink:href="#s"/><use transform="matrix(0.05,0,0,0.05,34,0)" xlink:href="#t"/><use transform="matrix(0.05,0,0,0.05,44,0)" xlink:href="#u"/><use transform="matrix(0.05,0,0,0.05,49.95,0)" xlink:href="#v"/><use transform="matrix(0.05,0,0,0.05,59.95,0)" xlink:href="#w"/><use transform="matrix(0.05,0,0,0.05,69.95,0)" xlink:href="#x"/><use transform="matrix(0.05,0,0,0.05,79.95,0)" xlink:href="#y"/><use transform="matrix(0.05,0,0,0.05,89.95,0)" xlink:href="#z"/><path d="M-.9 1.25h95.7v1.32H-.9z"/></g><path fill="#333" d="M186 0v-106H76V0H24v-248h52v99h110v-99h50V0h-50" id="A"/><path fill="#333" d="M115-3C79 11 28 4 28-45v-112H4v-33h27l15-45h31v45h36v33H77v99c-1 23 16 31 38 25v30" id="B"/><path fill="#333" d="M135-194c53 0 70 44 70 98 0 56-19 98-73 100-31 1-45-17-59-34 3 33 2 69 2 105H25l-1-265h48c2 10 0 23 3 31 11-24 29-35 60-35zM114-30c33 0 39-31 40-66 0-38-9-64-40-64-56 0-55 130 0 130" id="C"/><path fill="#333" d="M240-174c0 40-23 61-54 70L253 0h-59l-57-94H76V0H24v-248c93 4 217-23 216 74zM76-134c48-2 112 12 112-38 0-48-66-32-112-35v73" id="D"/><path fill="#333" d="M185-48c-13 30-37 53-82 52C43 2 14-33 14-96s30-98 90-98c62 0 83 45 84 108H66c0 31 8 55 39 56 18 0 30-7 34-22zm-45-69c5-46-57-63-70-21-2 6-4 13-4 21h74" id="E"/><path fill="#333" d="M84 4C32 4 15-41 15-95c0-55 18-99 73-99 29 0 47 12 58 34l2-30h48l-1 265h-49V-32C136-9 114 4 84 4zm21-34c32 0 41-29 41-66 0-36-9-64-40-64-33 0-39 30-40 65 0 43 13 65 39 65" id="F"/><path fill="#333" d="M85 4C-2 5 27-109 22-190h50c7 57-23 150 33 157 60-5 35-97 40-157h50l1 190h-47c-2-12 1-28-3-38-12 25-28 42-61 42" id="G"/><path fill="#333" d="M137-138c1-29-70-34-71-4 15 46 118 7 119 86 1 83-164 76-172 9l43-7c4 19 20 25 44 25 33 8 57-30 24-41C81-84 22-81 20-136c-2-80 154-74 161-7" id="H"/><g id="b"><use transform="matrix(0.049382716049382706,0,0,0.049382716049382706,0,0)" xlink:href="#A"/><use transform="matrix(0.049382716049382706,0,0,0.049382716049382706,12.790123456790122,0)" xlink:href="#B"/><use transform="matrix(0.049382716049382706,0,0,0.049382716049382706,18.666666666666664,0)" xlink:href="#B"/><use transform="matrix(0.049382716049382706,0,0,0.049382716049382706,24.543209876543205,0)" xlink:href="#C"/><use transform="matrix(0.049382716049382706,0,0,0.049382716049382706,35.35802469135802,0)" xlink:href="#D"/><use transform="matrix(0.049382716049382706,0,0,0.049382716049382706,48.14814814814814,0)" xlink:href="#E"/><use transform="matrix(0.049382716049382706,0,0,0.049382716049382706,58.02469135802468,0)" xlink:href="#F"/><use transform="matrix(0.049382716049382706,0,0,0.049382716049382706,68.83950617283949,0)" xlink:href="#G"/><use transform="matrix(0.049382716049382706,0,0,0.049382716049382706,79.6543209876543,0)" xlink:href="#E"/><use transform="matrix(0.049382716049382706,0,0,0.049382716049382706,89.53086419753085,0)" xlink:href="#H"/><use transform="matrix(0.049382716049382706,0,0,0.049382716049382706,99.40740740740739,0)" xlink:href="#B"/></g><path d="M33-154v-36h34v36H33zM33 0v-36h34V0H33" id="I"/><path d="M24-231v-30h32v30H24zM24 0v-190h32V0H24" id="J"/><path d="M135-143c-3-34-86-38-87 0 15 53 115 12 119 90S17 21 10-45l28-5c4 36 97 45 98 0-10-56-113-15-118-90-4-57 82-63 122-42 12 7 21 19 24 35" id="K"/><path d="M185-189c-5-48-123-54-124 2 14 75 158 14 163 119 3 78-121 87-175 55-17-10-28-26-33-46l33-7c5 56 141 63 141-1 0-78-155-14-162-118-5-82 145-84 179-34 5 7 8 16 11 25" id="L"/><path d="M84 4C-5 8 30-112 23-190h32v120c0 31 7 50 39 49 72-2 45-101 50-169h31l1 190h-30c-1-10 1-25-2-33-11 22-28 36-60 37" id="M"/><path d="M100-194c63 0 86 42 84 106H49c0 40 14 67 53 68 26 1 43-12 49-29l28 8c-11 28-37 45-77 45C44 4 14-33 15-96c1-61 26-98 85-98zm52 81c6-60-76-77-97-28-3 7-6 17-6 28h103" id="N"/><path d="M59-47c-2 24 18 29 38 22v24C64 9 27 4 27-40v-127H5v-23h24l9-43h21v43h35v23H59v120" id="O"/><path d="M100-194c62-1 85 37 85 99 1 63-27 99-86 99S16-35 15-95c0-66 28-99 85-99zM99-20c44 1 53-31 53-75 0-43-8-75-51-75s-53 32-53 75 10 74 51 75" id="P"/><path d="M117-194c89-4 53 116 60 194h-32v-121c0-31-8-49-39-48C34-167 62-67 57 0H25l-1-190h30c1 10-1 24 2 32 11-22 29-35 61-36" id="Q"/><g id="c"><use transform="matrix(0.05,0,0,0.05,0,0)" xlink:href="#I"/><use transform="matrix(0.05,0,0,0.05,5,0)" xlink:href="#p"/><use transform="matrix(0.05,0,0,0.05,17,0)" xlink:href="#z"/><use transform="matrix(0.05,0,0,0.05,20.95,0)" xlink:href="#J"/><use transform="matrix(0.05,0,0,0.05,24.9,0)" xlink:href="#v"/><use transform="matrix(0.05,0,0,0.05,34.9,0)" xlink:href="#K"/><use transform="matrix(0.05,0,0,0.05,43.9,0)" xlink:href="#L"/><use transform="matrix(0.05,0,0,0.05,55.900000000000006,0)" xlink:href="#M"/><use transform="matrix(0.05,0,0,0.05,65.9,0)" xlink:href="#t"/><use transform="matrix(0.05,0,0,0.05,75.9,0)" xlink:href="#t"/><use transform="matrix(0.05,0,0,0.05,85.9,0)" xlink:href="#N"/><use transform="matrix(0.05,0,0,0.05,95.9,0)" xlink:href="#K"/><use transform="matrix(0.05,0,0,0.05,104.9,0)" xlink:href="#O"/><use transform="matrix(0.05,0,0,0.05,109.9,0)" xlink:href="#J"/><use transform="matrix(0.05,0,0,0.05,113.85000000000001,0)" xlink:href="#P"/><use transform="matrix(0.05,0,0,0.05,123.85000000000001,0)" xlink:href="#Q"/><path d="M-.9 1.25h135.65v1.32H-.9z"/></g><path fill="#333" d="M135-150c-39-12-60 13-60 57V0H25l-1-190h47c2 13-1 29 3 40 6-28 27-53 61-41v41" id="R"/><path fill="#333" d="M220-157c-53 9-28 100-34 157h-49v-107c1-27-5-49-29-50C55-147 81-57 75 0H25l-1-190h47c2 12-1 28 3 38 10-53 101-56 108 0 13-22 24-43 59-42 82 1 51 116 57 194h-49v-107c-1-25-5-48-29-50" id="S"/><path fill="#333" d="M110-194c64 0 96 36 96 99 0 64-35 99-97 99-61 0-95-36-95-99 0-62 34-99 96-99zm-1 164c35 0 45-28 45-65 0-40-10-65-43-65-34 0-45 26-45 65 0 36 10 65 43 65" id="T"/><path fill="#333" d="M128 0H69L1-190h53L99-40l48-150h52" id="U"/><path fill="#333" d="M76-208v77h127v40H76V0H24v-248h183v40H76" id="V"/><path fill="#333" d="M182-130c37 4 62 22 62 59C244 23 116-4 24 0v-248c84 5 203-23 205 63 0 31-19 50-47 55zM76-148c40-3 101 13 101-30 0-44-60-28-101-31v61zm0 110c48-3 116 14 116-37 0-48-69-32-116-35v72" id="W"/><path fill="#333" d="M25 0v-261h50V0H25" id="X"/><path fill="#333" d="M133-34C117-15 103 5 69 4 32 3 11-16 11-54c-1-60 55-63 116-61 1-26-3-47-28-47-18 1-26 9-28 27l-52-2c7-38 36-58 82-57s74 22 75 68l1 82c-1 14 12 18 25 15v27c-30 8-71 5-69-32zm-48 3c29 0 43-24 42-57-32 0-66-3-65 30 0 17 8 27 23 27" id="Y"/><path fill="#333" d="M190-63c-7 42-38 67-86 67-59 0-84-38-90-98-12-110 154-137 174-36l-49 2c-2-19-15-32-35-32-30 0-35 28-38 64-6 74 65 87 74 30" id="Z"/><path fill="#333" d="M147 0L96-86 75-71V0H25v-261h50v150l67-79h53l-66 74L201 0h-54" id="aa"/><path fill="#333" d="M25-224v-37h50v37H25zM25 0v-190h50V0H25" id="ab"/><path fill="#333" d="M67-93c0 74 22 123 53 168H70C40 30 18-18 18-93s22-123 52-168h50c-32 44-53 94-53 168" id="ac"/><g id="d"><use transform="matrix(0.049382716049382706,0,0,0.049382716049382706,0,0)" xlink:href="#R"/><use transform="matrix(0.049382716049382706,0,0,0.049382716049382706,6.913580246913579,0)" xlink:href="#E"/><use transform="matrix(0.049382716049382706,0,0,0.049382716049382706,16.79012345679012,0)" xlink:href="#S"/><use transform="matrix(0.049382716049382706,0,0,0.049382716049382706,32.59259259259259,0)" xlink:href="#T"/><use transform="matrix(0.049382716049382706,0,0,0.049382716049382706,43.407407407407405,0)" xlink:href="#U"/><use transform="matrix(0.049382716049382706,0,0,0.049382716049382706,53.28395061728395,0)" xlink:href="#E"/><use transform="matrix(0.049382716049382706,0,0,0.049382716049382706,63.160493827160494,0)" xlink:href="#V"/><use transform="matrix(0.049382716049382706,0,0,0.049382716049382706,73.9753086419753,0)" xlink:href="#R"/><use transform="matrix(0.049382716049382706,0,0,0.049382716049382706,80.88888888888889,0)" xlink:href="#T"/><use transform="matrix(0.049382716049382706,0,0,0.049382716049382706,91.7037037037037,0)" xlink:href="#S"/><use transform="matrix(0.049382716049382706,0,0,0.049382716049382706,107.50617283950618,0)" xlink:href="#W"/><use transform="matrix(0.049382716049382706,0,0,0.049382716049382706,120.29629629629629,0)" xlink:href="#X"/><use transform="matrix(0.049382716049382706,0,0,0.049382716049382706,125.23456790123457,0)" xlink:href="#Y"/><use transform="matrix(0.049382716049382706,0,0,0.049382716049382706,135.1111111111111,0)" xlink:href="#Z"/><use transform="matrix(0.049382716049382706,0,0,0.049382716049382706,144.98765432098762,0)" xlink:href="#aa"/><use transform="matrix(0.049382716049382706,0,0,0.049382716049382706,154.86419753086415,0)" xlink:href="#X"/><use transform="matrix(0.049382716049382706,0,0,0.049382716049382706,159.80246913580243,0)" xlink:href="#ab"/><use transform="matrix(0.049382716049382706,0,0,0.049382716049382706,164.7407407407407,0)" xlink:href="#H"/><use transform="matrix(0.049382716049382706,0,0,0.049382716049382706,174.61728395061724,0)" xlink:href="#B"/><use transform="matrix(0.049382716049382706,0,0,0.049382716049382706,180.49382716049377,0)" xlink:href="#ac"/><use transform="matrix(0.049382716049382706,0,0,0.049382716049382706,186.3703703703703,0)" xlink:href="#Y"/><use transform="matrix(0.049382716049382706,0,0,0.049382716049382706,196.24691358024683,0)" xlink:href="#X"/><use transform="matrix(0.049382716049382706,0,0,0.049382716049382706,201.1851851851851,0)" xlink:href="#ab"/><use transform="matrix(0.049382716049382706,0,0,0.049382716049382706,206.12345679012338,0)" xlink:href="#Y"/><use transform="matrix(0.049382716049382706,0,0,0.049382716049382706,215.99999999999991,0)" xlink:href="#H"/></g><path fill="#333" d="M35-132v-50h50v50H35zM35 0v-49h50V0H35" id="ad"/><use transform="matrix(0.049382716049382706,0,0,0.049382716049382706,0,0)" xlink:href="#ad" id="e"/><path fill="#333" d="M169-182c-1-43-94-46-97-3 18 66 151 10 154 114 3 95-165 93-204 36-6-8-10-19-12-30l50-8c3 46 112 56 116 5-17-69-150-10-154-114-4-87 153-88 188-35 5 8 8 18 10 28" id="ae"/><path fill="#333" d="M135-194c87-1 58 113 63 194h-50c-7-57 23-157-34-157-59 0-34 97-39 157H25l-1-190h47c2 12-1 28 3 38 12-26 28-41 61-42" id="af"/><path fill="#333" d="M195-6C206 82 75 100 31 46c-4-6-6-13-8-21l49-6c3 16 16 24 34 25 40 0 42-37 40-79-11 22-30 35-61 35-53 0-70-43-70-97 0-56 18-96 73-97 30 0 46 14 59 34l2-30h47zm-90-29c32 0 41-27 41-63 0-35-9-62-40-62-32 0-39 29-40 63 0 36 9 62 39 62" id="ag"/><path fill="#333" d="M102-93c0 74-22 123-52 168H0C30 29 54-18 53-93c0-74-22-123-53-168h50c30 45 52 94 52 168" id="ah"/><g id="f"><use transform="matrix(0.049382716049382706,0,0,0.049382716049382706,0,0)" xlink:href="#ae"/><use transform="matrix(0.049382716049382706,0,0,0.049382716049382706,11.85185185185185,0)" xlink:href="#B"/><use transform="matrix(0.049382716049382706,0,0,0.049382716049382706,17.728395061728392,0)" xlink:href="#R"/><use transform="matrix(0.049382716049382706,0,0,0.049382716049382706,24.64197530864197,0)" xlink:href="#ab"/><use transform="matrix(0.049382716049382706,0,0,0.049382716049382706,29.58024691358024,0)" xlink:href="#af"/><use transform="matrix(0.049382716049382706,0,0,0.049382716049382706,40.39506172839505,0)" xlink:href="#ag"/><use transform="matrix(0.049382716049382706,0,0,0.049382716049382706,51.20987654320986,0)" xlink:href="#ah"/></g><path d="M160-131c35 5 61 23 61 61C221 17 115-2 30 0v-248c76 3 177-17 177 60 0 33-19 50-47 57zm-97-11c50-1 110 9 110-42 0-47-63-36-110-37v79zm0 115c55-2 124 14 124-45 0-56-70-42-124-44v89" id="ai"/><path d="M96-169c-40 0-48 33-48 73s9 75 48 75c24 0 41-14 43-38l32 2c-6 37-31 61-74 61-59 0-76-41-82-99-10-93 101-131 147-64 4 7 5 14 7 22l-32 3c-4-21-16-35-41-35" id="aj"/><path d="M143 0L79-87 56-68V0H24v-261h32v163l83-92h37l-77 82L181 0h-38" id="ak"/><path d="M30 0v-248h33v221h125V0H30" id="al"/><path d="M108 0H70L1-190h34L89-25l56-165h34" id="am"/><g id="g"><use transform="matrix(0.05,0,0,0.05,0,0)" xlink:href="#I"/><use transform="matrix(0.05,0,0,0.05,5,0)" xlink:href="#ai"/><use transform="matrix(0.05,0,0,0.05,17,0)" xlink:href="#z"/><use transform="matrix(0.05,0,0,0.05,20.95,0)" xlink:href="#v"/><use transform="matrix(0.05,0,0,0.05,30.950000000000003,0)" xlink:href="#aj"/><use transform="matrix(0.05,0,0,0.05,39.95,0)" xlink:href="#ak"/><use transform="matrix(0.05,0,0,0.05,48.95,0)" xlink:href="#al"/><use transform="matrix(0.05,0,0,0.05,58.95,0)" xlink:href="#J"/><use transform="matrix(0.05,0,0,0.05,62.900000000000006,0)" xlink:href="#K"/><use transform="matrix(0.05,0,0,0.05,71.9,0)" xlink:href="#O"/><use transform="matrix(0.05,0,0,0.05,76.9,0)" xlink:href="#L"/><use transform="matrix(0.05,0,0,0.05,88.9,0)" xlink:href="#N"/><use transform="matrix(0.05,0,0,0.05,98.9,0)" xlink:href="#u"/><use transform="matrix(0.05,0,0,0.05,104.85000000000001,0)" xlink:href="#am"/><use transform="matrix(0.05,0,0,0.05,113.85000000000001,0)" xlink:href="#J"/><use transform="matrix(0.05,0,0,0.05,117.80000000000001,0)" xlink:href="#aj"/><use transform="matrix(0.05,0,0,0.05,126.80000000000001,0)" xlink:href="#N"/><path d="M-.9 1.25h138.6v1.32H-.9z"/></g><path fill="#333" d="M33-154v-36h34v36H33zM33 0v-36h34V0H33" id="an"/><path fill="#333" d="M160-131c35 5 61 23 61 61C221 17 115-2 30 0v-248c76 3 177-17 177 60 0 33-19 50-47 57zm-97-11c50-1 110 9 110-42 0-47-63-36-110-37v79zm0 115c55-2 124 14 124-45 0-56-70-42-124-44v89" id="ao"/><path fill="#333" d="M24 0v-261h32V0H24" id="ap"/><path fill="#333" d="M141-36C126-15 110 5 73 4 37 3 15-17 15-53c-1-64 63-63 125-63 3-35-9-54-41-54-24 1-41 7-42 31l-33-3c5-37 33-52 76-52 45 0 72 20 72 64v82c-1 20 7 32 28 27v20c-31 9-61-2-59-35zM48-53c0 20 12 33 32 33 41-3 63-29 60-74-43 2-92-5-92 41" id="aq"/><path fill="#333" d="M96-169c-40 0-48 33-48 73s9 75 48 75c24 0 41-14 43-38l32 2c-6 37-31 61-74 61-59 0-76-41-82-99-10-93 101-131 147-64 4 7 5 14 7 22l-32 3c-4-21-16-35-41-35" id="ar"/><path fill="#333" d="M143 0L79-87 56-68V0H24v-261h32v163l83-92h37l-77 82L181 0h-38" id="as"/><path fill="#333" d="M30 0v-248h33v221h125V0H30" id="at"/><path fill="#333" d="M24-231v-30h32v30H24zM24 0v-190h32V0H24" id="au"/><path fill="#333" d="M135-143c-3-34-86-38-87 0 15 53 115 12 119 90S17 21 10-45l28-5c4 36 97 45 98 0-10-56-113-15-118-90-4-57 82-63 122-42 12 7 21 19 24 35" id="av"/><path fill="#333" d="M59-47c-2 24 18 29 38 22v24C64 9 27 4 27-40v-127H5v-23h24l9-43h21v43h35v23H59v120" id="aw"/><path fill="#333" d="M233-177c-1 41-23 64-60 70L243 0h-38l-65-103H63V0H30v-248c88 3 205-21 203 71zM63-129c60-2 137 13 137-47 0-61-80-42-137-45v92" id="ax"/><path fill="#333" d="M100-194c63 0 86 42 84 106H49c0 40 14 67 53 68 26 1 43-12 49-29l28 8c-11 28-37 45-77 45C44 4 14-33 15-96c1-61 26-98 85-98zm52 81c6-60-76-77-97-28-3 7-6 17-6 28h103" id="ay"/><path fill="#333" d="M115-194c55 1 70 41 70 98S169 2 115 4C84 4 66-9 55-30l1 105H24l-1-265h31l2 30c10-21 28-34 59-34zm-8 174c40 0 45-34 45-75s-6-73-45-74c-42 0-51 32-51 76 0 43 10 73 51 73" id="az"/><path fill="#333" d="M100-194c62-1 85 37 85 99 1 63-27 99-86 99S16-35 15-95c0-66 28-99 85-99zM99-20c44 1 53-31 53-75 0-43-8-75-51-75s-53 32-53 75 10 74 51 75" id="aA"/><path fill="#333" d="M114-163C36-179 61-72 57 0H25l-1-190h30c1 12-1 29 2 39 6-27 23-49 58-41v29" id="aB"/><path fill="#333" d="M179-190L93 31C79 59 56 82 12 73V49c39 6 53-20 64-50L1-190h34L92-34l54-156h33" id="aC"/><g id="h"><use transform="matrix(0.049382716049382706,0,0,0.049382716049382706,0,0)" xlink:href="#an"/><use transform="matrix(0.049382716049382706,0,0,0.049382716049382706,4.93827160493827,0)" xlink:href="#ao"/><use transform="matrix(0.049382716049382706,0,0,0.049382716049382706,16.79012345679012,0)" xlink:href="#ap"/><use transform="matrix(0.049382716049382706,0,0,0.049382716049382706,20.691358024691354,0)" xlink:href="#aq"/><use transform="matrix(0.049382716049382706,0,0,0.049382716049382706,30.567901234567895,0)" xlink:href="#ar"/><use transform="matrix(0.049382716049382706,0,0,0.049382716049382706,39.456790123456784,0)" xlink:href="#as"/><use transform="matrix(0.049382716049382706,0,0,0.049382716049382706,48.34567901234567,0)" xlink:href="#at"/><use transform="matrix(0.049382716049382706,0,0,0.049382716049382706,58.222222222222214,0)" xlink:href="#au"/><use transform="matrix(0.049382716049382706,0,0,0.049382716049382706,62.12345679012344,0)" xlink:href="#av"/><use transform="matrix(0.049382716049382706,0,0,0.049382716049382706,71.01234567901234,0)" xlink:href="#aw"/><use transform="matrix(0.049382716049382706,0,0,0.049382716049382706,75.9506172839506,0)" xlink:href="#ax"/><use transform="matrix(0.049382716049382706,0,0,0.049382716049382706,88.74074074074073,0)" xlink:href="#ay"/><use transform="matrix(0.049382716049382706,0,0,0.049382716049382706,98.61728395061728,0)" xlink:href="#az"/><use transform="matrix(0.049382716049382706,0,0,0.049382716049382706,108.49382716049382,0)" xlink:href="#aA"/><use transform="matrix(0.049382716049382706,0,0,0.049382716049382706,118.37037037037037,0)" xlink:href="#av"/><use transform="matrix(0.049382716049382706,0,0,0.049382716049382706,127.25925925925925,0)" xlink:href="#au"/><use transform="matrix(0.049382716049382706,0,0,0.049382716049382706,131.16049382716048,0)" xlink:href="#aw"/><use transform="matrix(0.049382716049382706,0,0,0.049382716049382706,136.09876543209876,0)" xlink:href="#aA"/><use transform="matrix(0.049382716049382706,0,0,0.049382716049382706,145.9753086419753,0)" xlink:href="#aB"/><use transform="matrix(0.049382716049382706,0,0,0.049382716049382706,151.85185185185182,0)" xlink:href="#aC"/><path fill="#333" d="M-.9 1.23h162.53v1.3H-.9z"/></g><path fill="#333" d="M88-194c31-1 46 15 58 34l-1-101h50l1 261h-48c-2-10 0-23-3-31C134-8 116 4 84 4 32 4 16-41 15-95c0-56 19-97 73-99zm17 164c33 0 40-30 41-66 1-37-9-64-41-64s-38 30-39 65c0 43 13 65 39 65" id="aD"/><path fill="#333" d="M123 10C108 53 80 86 19 72V37c35 8 53-11 59-39L3-190h52l48 148c12-52 28-100 44-148h51" id="aE"/><path fill="#333" d="M175 0L67-191c6 58 2 128 3 191H24v-248h59L193-55c-6-58-2-129-3-193h46V0h-61" id="aF"/><g id="i"><use transform="matrix(0.04938271604938272,0,0,0.04938271604938272,0,0)" xlink:href="#aD"/><use transform="matrix(0.04938271604938272,0,0,0.04938271604938272,10.814814814814815,0)" xlink:href="#E"/><use transform="matrix(0.04938271604938272,0,0,0.04938271604938272,20.69135802469136,0)" xlink:href="#X"/><use transform="matrix(0.04938271604938272,0,0,0.04938271604938272,25.629629629629633,0)" xlink:href="#E"/><use transform="matrix(0.04938271604938272,0,0,0.04938271604938272,35.50617283950618,0)" xlink:href="#B"/><use transform="matrix(0.04938271604938272,0,0,0.04938271604938272,41.38271604938272,0)" xlink:href="#E"/><use transform="matrix(0.04938271604938272,0,0,0.04938271604938272,51.25925925925927,0)" xlink:href="#W"/><use transform="matrix(0.04938271604938272,0,0,0.04938271604938272,64.0493827160494,0)" xlink:href="#aE"/><use transform="matrix(0.04938271604938272,0,0,0.04938271604938272,73.92592592592594,0)" xlink:href="#aF"/><use transform="matrix(0.04938271604938272,0,0,0.04938271604938272,86.71604938271606,0)" xlink:href="#Y"/><use transform="matrix(0.04938271604938272,0,0,0.04938271604938272,96.59259259259261,0)" xlink:href="#S"/><use transform="matrix(0.04938271604938272,0,0,0.04938271604938272,112.39506172839508,0)" xlink:href="#E"/><use transform="matrix(0.04938271604938272,0,0,0.04938271604938272,122.27160493827162,0)" xlink:href="#ac"/><use transform="matrix(0.04938271604938272,0,0,0.04938271604938272,128.14814814814815,0)" xlink:href="#Y"/><use transform="matrix(0.04938271604938272,0,0,0.04938271604938272,138.0246913580247,0)" xlink:href="#X"/><use transform="matrix(0.04938271604938272,0,0,0.04938271604938272,142.962962962963,0)" xlink:href="#ab"/><use transform="matrix(0.04938271604938272,0,0,0.04938271604938272,147.90123456790127,0)" xlink:href="#Y"/><use transform="matrix(0.04938271604938272,0,0,0.04938271604938272,157.77777777777783,0)" xlink:href="#H"/></g><use transform="matrix(0.04938271604938272,0,0,0.04938271604938272,0,0)" xlink:href="#ad" id="j"/><g id="k"><use transform="matrix(0.04938271604938272,0,0,0.04938271604938272,0,0)" xlink:href="#ae"/><use transform="matrix(0.04938271604938272,0,0,0.04938271604938272,11.851851851851853,0)" xlink:href="#B"/><use transform="matrix(0.04938271604938272,0,0,0.04938271604938272,17.728395061728396,0)" xlink:href="#R"/><use transform="matrix(0.04938271604938272,0,0,0.04938271604938272,24.641975308641975,0)" xlink:href="#ab"/><use transform="matrix(0.04938271604938272,0,0,0.04938271604938272,29.58024691358025,0)" xlink:href="#af"/><use transform="matrix(0.04938271604938272,0,0,0.04938271604938272,40.39506172839506,0)" xlink:href="#ag"/><use transform="matrix(0.04938271604938272,0,0,0.04938271604938272,51.20987654320988,0)" xlink:href="#ah"/></g><g id="l"><use transform="matrix(0.04938271604938272,0,0,0.04938271604938272,0,0)" xlink:href="#H"/><use transform="matrix(0.04938271604938272,0,0,0.04938271604938272,9.876543209876544,0)" xlink:href="#G"/><use transform="matrix(0.04938271604938272,0,0,0.04938271604938272,20.69135802469136,0)" xlink:href="#Z"/><use transform="matrix(0.04938271604938272,0,0,0.04938271604938272,30.567901234567906,0)" xlink:href="#Z"/><use transform="matrix(0.04938271604938272,0,0,0.04938271604938272,40.44444444444445,0)" xlink:href="#E"/><use transform="matrix(0.04938271604938272,0,0,0.04938271604938272,50.320987654320994,0)" xlink:href="#H"/><use transform="matrix(0.04938271604938272,0,0,0.04938271604938272,60.19753086419754,0)" xlink:href="#H"/></g><g id="m"><use transform="matrix(0.04938271604938272,0,0,0.04938271604938272,0,0)" xlink:href="#W"/><use transform="matrix(0.04938271604938272,0,0,0.04938271604938272,12.790123456790125,0)" xlink:href="#T"/><use transform="matrix(0.04938271604938272,0,0,0.04938271604938272,23.60493827160494,0)" xlink:href="#T"/><use transform="matrix(0.04938271604938272,0,0,0.04938271604938272,34.41975308641975,0)" xlink:href="#X"/><use transform="matrix(0.04938271604938272,0,0,0.04938271604938272,39.358024691358025,0)" xlink:href="#E"/><use transform="matrix(0.04938271604938272,0,0,0.04938271604938272,49.23456790123457,0)" xlink:href="#Y"/><use transform="matrix(0.04938271604938272,0,0,0.04938271604938272,59.111111111111114,0)" xlink:href="#af"/></g><g id="n"><use transform="matrix(0.04938271604938272,0,0,0.04938271604938272,0,0)" xlink:href="#H"/><use transform="matrix(0.04938271604938272,0,0,0.04938271604938272,9.876543209876544,0)" xlink:href="#G"/><use transform="matrix(0.04938271604938272,0,0,0.04938271604938272,20.69135802469136,0)" xlink:href="#Z"/><use transform="matrix(0.04938271604938272,0,0,0.04938271604938272,30.567901234567906,0)" xlink:href="#Z"/><use transform="matrix(0.04938271604938272,0,0,0.04938271604938272,40.44444444444445,0)" xlink:href="#E"/><use transform="matrix(0.04938271604938272,0,0,0.04938271604938272,50.320987654320994,0)" xlink:href="#H"/><use transform="matrix(0.04938271604938272,0,0,0.04938271604938272,60.19753086419754,0)" xlink:href="#H"/></g><g id="o"><use transform="matrix(0.04938271604938272,0,0,0.04938271604938272,0,0)" xlink:href="#A"/><use transform="matrix(0.04938271604938272,0,0,0.04938271604938272,12.790123456790125,0)" xlink:href="#B"/><use transform="matrix(0.04938271604938272,0,0,0.04938271604938272,18.666666666666668,0)" xlink:href="#B"/><use transform="matrix(0.04938271604938272,0,0,0.04938271604938272,24.543209876543212,0)" xlink:href="#C"/><use transform="matrix(0.04938271604938272,0,0,0.04938271604938272,35.358024691358025,0)" xlink:href="#D"/><use transform="matrix(0.04938271604938272,0,0,0.04938271604938272,48.14814814814815,0)" xlink:href="#E"/><use transform="matrix(0.04938271604938272,0,0,0.04938271604938272,58.0246913580247,0)" xlink:href="#H"/><use transform="matrix(0.04938271604938272,0,0,0.04938271604938272,67.90123456790124,0)" xlink:href="#C"/><use transform="matrix(0.04938271604938272,0,0,0.04938271604938272,78.71604938271605,0)" xlink:href="#T"/><use transform="matrix(0.04938271604938272,0,0,0.04938271604938272,89.53086419753086,0)" xlink:href="#af"/><use transform="matrix(0.04938271604938272,0,0,0.04938271604938272,100.34567901234567,0)" xlink:href="#H"/><use transform="matrix(0.04938271604938272,0,0,0.04938271604938272,110.22222222222221,0)" xlink:href="#E"/></g></defs></g></svg>