<svg xmlns="http://www.w3.org/2000/svg" xmlns:xlink="http://www.w3.org/1999/xlink" xmlns:lucid="lucid" width="2601" height="3056.06"><g transform="translate(271 500)" lucid:page-tab-id="0_0"><path d="M-1806.87-1258.83h5484.6v3840.5h-5484.6z" fill="#fff"/><path d="M160-174c0-3.3 2.7-6 6-6h88c3.3 0 6 2.7 6 6v8c0 3.3-1.9 7.9-4.24 10.24l-1.52 1.52C251.9-151.9 247.3-150 244-150h-78c-3.3 0-6-2.7-6-6z" fill="#fff"/><path d="M260-180v20l-10 10h-90" stroke="#5e5e5e" stroke-width="3" fill="none"/><path d="M160-174c0-3.3 2.7-6 6-6h2028c3.3 0 6 2.7 6 6v2328c0 3.3-2.7 6-6 6H166c-3.3 0-6-2.7-6-6zM160 990h20m15 0h20m15 0h20m15 0h20m15 0h20m15 0h20m15 0h20m15 0h20m15 0h20m15 0h20m15 0h20m15 0h20m15 0h20m15 0h20m15 0h20m15 0h20m15 0h20m15 0h20m15 0h20m15 0h20m15 0h20m15 0h20m15 0h20m15 0h20m15 0h20m15 0h20m15 0h20m15 0h20m15 0h20m15 0h20m15 0h20m15 0h20m15 0h20m15 0h20m15 0h20m15 0h20m15 0h20m15 0h20m15 0h20m15 0h20m15 0h20m15 0h20m15 0h20m15 0h20m15 0h20m15 0h20m15 0h20m15 0h20m15 0h20m15 0h20m15 0h20m15 0h20m15 0h20m15 0h20m15 0h20m15 0h20m15 0h20m15 0h20m15 0h10" stroke="#5e5e5e" stroke-width="3" fill="none"/><use xlink:href="#a" transform="matrix(1,0,0,1,168,-180) translate(29.30246913580247 19.444444444444443)"/><use xlink:href="#b" transform="matrix(1,0,0,1,172,-142) translate(5.2777777777777715 19.444444444444443)"/><use xlink:href="#c" transform="matrix(1,0,0,1,172,-142) translate(69.35185185185185 19.444444444444443)"/><use xlink:href="#d" transform="matrix(1,0,0,1,172,998) translate(8.364197530864203 19.444444444444443)"/><use xlink:href="#c" transform="matrix(1,0,0,1,172,998) translate(66.26543209876544 19.444444444444443)"/><path d="M740 1326c0-3.3 2.7-6 6-6h88c3.3 0 6 2.7 6 6v8c0 3.3-1.9 7.9-4.24 10.24l-1.52 1.52c-2.34 2.34-6.93 4.24-10.24 4.24h-78c-3.3 0-6-2.7-6-6z" fill="#fff"/><path d="M840 1320v20l-10 10h-90" stroke="#5e5e5e" stroke-width="3" fill="none"/><path d="M740 1326c0-3.3 2.7-6 6-6h908c3.3 0 6 2.7 6 6v309.67c0 3.32-2.7 6-6 6H746c-3.3 0-6-2.68-6-6z" stroke="#5e5e5e" stroke-width="3" fill="none"/><use xlink:href="#e" transform="matrix(1,0,0,1,748,1320) translate(25.567901234567902 19.444444444444443)"/><use xlink:href="#f" transform="matrix(1,0,0,1,752,1358) translate(5.8950617283950635 19.444444444444443)"/><use xlink:href="#g" transform="matrix(1,0,0,1,752,1358) translate(61.38888888888889 19.444444444444443)"/><use xlink:href="#h" transform="matrix(1,0,0,1,752,1358) translate(93.48765432098766 19.444444444444443)"/><path d="M1760-474c0-3.3 2.7-6 6-6h188c3.3 0 6 2.7 6 6v108c0 3.3-2.7 6-6 6h-188c-3.3 0-6-2.7-6-6z" stroke="#5e5e5e" stroke-width="3" fill="#fff"/><use xlink:href="#i" transform="matrix(1,0,0,1,1760,-480) translate(7.65500000000001 63.15)"/><path d="M880 386c0-3.3 2.7-6 6-6h28c3.3 0 6 2.7 6 6v108c0 3.3-2.7 6-6 6h-28c-3.3 0-6-2.7-6-6z" stroke="#5e5e5e" stroke-width="3" fill="#fff"/><g fill="none"><path d="M901.5-349.25c.4 0 .75.34.75.75v727c0 .4-.34.75-.75.75-.4 0-.75-.34-.75-.75v-727c0-.4.34-.75.75-.75z"/><path d="M902.25-318.2v30.28m0 15.15v30.3m0 15.14v30.3m0 15.13v30.3m0 15.14v30.3m0 15.14v30.3m0 15.14v30.3m0 15.13v30.3m0 15.14v30.28m0 15.15v30.3m0 15.14v30.3m0 15.13v30.3m0 15.14v30.3m0 15.14v30.3m0 15.14v30.3m0 15.13v15.15l-.22.53-.53.22-.53-.22-.22-.53v-15.15m0-15.14v-30.28m0-15.15v-30.3m0-15.14v-30.3m0-15.13v-30.3m0-15.14v-30.3m0-15.14v-30.3m0-15.14v-30.3m0-15.13V-.15m0-15.14v-30.28m0-15.15v-30.3m0-15.14v-30.3m0-15.13v-30.3m0-15.14v-30.3m0-15.14v-30.3m0-15.14v-30.3m0-15.13v-15.15l.22-.53.53-.22.53.22.22.53v15.15" stroke="#5e5e5e" stroke-width="1.5"/></g><path d="M820-474c0-3.3 2.7-6 6-6h148c3.3 0 6 2.7 6 6v108c0 3.3-2.7 6-6 6H826c-3.3 0-6-2.7-6-6z" stroke="#5e5e5e" stroke-width="3" fill="#fff"/><use xlink:href="#j" transform="matrix(1,0,0,1,820,-480) translate(41.654999999999994 63.15)"/><path d="M457.5 326c0-3.3 2.7-6 6-6h368c3.3 0 6 2.7 6 6v66.33c0 3.32-2.7 6-6 6h-368c-3.3 0-6-2.68-6-6z" stroke="#000" stroke-opacity="0" stroke-width="3" fill="#fff" fill-opacity="0"/><use xlink:href="#k" transform="matrix(1,0,0,1,462.5,325) translate(5.092592592592638 26.40277777777778)"/><use xlink:href="#l" transform="matrix(1,0,0,1,462.5,325) translate(69.75308641975312 53.06944444444445)"/><path d="M300-474c0-3.3 2.7-6 6-6h178c3.3 0 6 2.7 6 6v108c0 3.3-2.7 6-6 6H306c-3.3 0-6-2.7-6-6z" stroke="#5e5e5e" stroke-width="3" fill="#fff"/><use xlink:href="#m" transform="matrix(1,0,0,1,300,-480) translate(49.154999999999994 63.15)"/><g fill="none"><path d="M395-359.25c.4 0 .75.34.75.75v637c0 .4-.34.75-.75.75-.4 0-.75-.34-.75-.75v-637c0-.4.34-.75.75-.75z"/><path d="M395.75-328.17v30.34m0 15.16v30.34m0 15.16v30.34m0 15.16v30.34m0 15.16v30.34m0 15.16v30.34m0 15.16v30.34m0 15.16v30.34m0 15.16v30.34m0 15.16v30.34m0 15.16v30.34m0 15.16v30.34m0 15.16v30.34m0 15.16v15.17l-.22.53-.53.22-.53-.22-.22-.53v-15.17m0-15.16v-30.34m0-15.16v-30.34m0-15.16v-30.34m0-15.16V81.33m0-15.16V35.83m0-15.16V-9.67m0-15.16v-30.34m0-15.16v-30.34m0-15.16v-30.34m0-15.16v-30.34m0-15.16v-30.34m0-15.16v-30.34m0-15.16v-30.34m0-15.16v-15.17l.22-.53.53-.22.53.22.22.53v15.17" stroke="#5e5e5e" stroke-width="1.5"/></g><path d="M417.5 389.17H860" stroke="#5e5e5e" stroke-width="2" fill="none"/><path d="M417.53 390.17h-1.03v-2h1.03" fill="#5e5e5e"/><path d="M875.26 389.17L861 393.8v-9.27z" stroke="#5e5e5e" stroke-width="2" fill="#5e5e5e"/><path d="M-220-234c0-3.3 2.7-6 6-6H14c3.3 0 6 2.7 6 6v48c0 3.3-2.7 6-6 6h-228c-3.3 0-6-2.7-6-6z" stroke="#000" stroke-opacity="0" stroke-width="3" fill="#fff" fill-opacity="0"/><use xlink:href="#n" transform="matrix(1,0,0,1,-215,-235) translate(53.33333333333333 30.27777777777778)"/><path d="M877.5 480h-9.58m-9.6 0h-19.15m-9.6 0h-19.15m-9.6 0h-19.15m-9.6 0h-19.15m-9.6 0h-19.15m-9.6 0h-19.15m-9.6 0h-19.15m-9.6 0H637.4m-10.12 0h-20.24m-10.1 0h-20.25m-10.12 0H546.3m-10.1 0h-20.25m-10.1 0H485.6m-10.12 0h-20.24m-10.12 0H435" stroke="#5e5e5e" stroke-width="2" fill="none"/><path d="M878.5 481h-1.03v-2h1.03" fill="#5e5e5e"/><path d="M419.74 480l14.26-4.64v9.28z" stroke="#5e5e5e" stroke-width="2" fill="#5e5e5e"/><path d="M457.5 1007.67c0-3.32 2.7-6 6-6h368c3.3 0 6 2.68 6 6V1074c0 3.3-2.7 6-6 6h-368c-3.3 0-6-2.7-6-6z" stroke="#000" stroke-opacity="0" stroke-width="3" fill="#fff" fill-opacity="0"/><use xlink:href="#k" transform="matrix(1,0,0,1,462.5,1006.6666666666666) translate(5.092592592592638 26.40277777777778)"/><use xlink:href="#o" transform="matrix(1,0,0,1,462.5,1006.6666666666666) translate(73.42592592592595 53.06944444444445)"/><path d="M417.5 1011.55h453" stroke="#5e5e5e" stroke-width="2" fill="none"/><path d="M417.53 1012.55h-1.03v-2h1.03" fill="#5e5e5e"/><path d="M885.76 1011.55l-14.26 4.64v-9.28z" stroke="#5e5e5e" stroke-width="2" fill="#5e5e5e"/><g fill="none"><path d="M903.5 500.75c.4 0 .75.34.75.75v377c0 .4-.34.75-.75.75-.4 0-.75-.34-.75-.75v-377c0-.4.34-.75.75-.75z"/><path d="M904.25 532.92v31.4m0 15.72v31.42m0 15.7v31.42m0 15.7v31.43m0 15.72v31.4m0 15.72v31.42m0 15.7v31.42m0 15.7v15.72l-.22.53-.53.22-.53-.22-.22-.53v-15.7m0-15.72v-31.4m0-15.72v-31.42m0-15.7V721.4m0-15.7v-31.43m0-15.72v-31.4m0-15.72v-31.42m0-15.7V532.9m0-15.7V501.5l.22-.53.53-.22.53.22.22.53v15.7" stroke="#5e5e5e" stroke-width="1.5"/></g><path d="M1140-474c0-3.3 2.7-6 6-6h148c3.3 0 6 2.7 6 6v108c0 3.3-2.7 6-6 6h-148c-3.3 0-6-2.7-6-6z" stroke="#5e5e5e" stroke-width="3" fill="#fff"/><use xlink:href="#p" transform="matrix(1,0,0,1,1140,-480) translate(28.60499999999999 63.15)"/><path d="M1000 416.83c0-3.3 2.7-6 6-6h228c3.3 0 6 2.7 6 6v48c0 3.32-2.7 6-6 6h-228c-3.3 0-6-2.68-6-6z" stroke="#000" stroke-opacity="0" stroke-width="3" fill="#fff" fill-opacity="0"/><use xlink:href="#q" transform="matrix(1,0,0,1,1005,415.8333333333333) translate(-36.63580246913577 29.444444444444443)"/><path d="M923.5 415.17c0-3.32 2.7-6 6-6h28c3.3 0 6 2.68 6 6v49.66c0 3.32-2.7 6-6 6h-28c-3.3 0-6-2.68-6-6z" stroke="#5e5e5e" stroke-width="3" fill="#fff"/><path d="M942.4 473.33v4.38m0 8.76v4.38l-.7 1.7-1.7.7" stroke="#5e5e5e" stroke-width="2" fill="none"/><path d="M943.4 473.36h-2v-1.03h2" fill="#5e5e5e"/><path d="M924.74 493.24L939 488.6v9.27z" stroke="#5e5e5e" stroke-width="2" fill="#5e5e5e"/><path d="M922.5 398.33h17.3" stroke="#5e5e5e" stroke-width="2" fill="none"/><path d="M922.53 399.33h-1.03v-2h1.03" fill="#5e5e5e"/><path d="M946.7 405.36l-13.3-6.93 6.6-6.5z" stroke="#5e5e5e" stroke-width="2" fill="#5e5e5e"/><path d="M1050.5 1029.43c0-3.3 2.7-6 6-6h228c3.3 0 6 2.7 6 6v48c0 3.3-2.7 6-6 6h-228c-3.3 0-6-2.7-6-6z" stroke="#000" stroke-opacity="0" stroke-width="3" fill="#fff" fill-opacity="0"/><use xlink:href="#q" transform="matrix(1,0,0,1,1055.5,1028.4294754662149) translate(-36.63580246913577 29.444444444444443)"/><path d="M923.5 1067.76c0-3.3 2.7-6 6-6h28c3.3 0 6 2.7 6 6v49.67c0 3.3-2.7 6-6 6h-28c-3.3 0-6-2.7-6-6z" stroke="#5e5e5e" stroke-width="3" fill="#fff"/><path d="M933 1033.76h66c3.3 0 6 2.7 6 6v47.17c0 3.3-2.7 6-6 6h-15.5" stroke="#5e5e5e" stroke-width="2" fill="none"/><path d="M933.03 1034.76H932v-2h1.03" fill="#5e5e5e"/><path d="M968.24 1092.93l14.26-4.64v9.26z" stroke="#5e5e5e" stroke-width="2" fill="#5e5e5e"/><path d="M966 1108.83h4.13m8.25 0h8.25m8.25 0H999l3.03.82 2.15 2.16.82 3.03v5.25m0 10.5v5.25l-.82 3.03-2.15 2.15-3.03.83h-4.04m-8.08 0h-8.1m-8.07 0h-8.07m-8.1 0h-4.03" stroke="#5e5e5e" stroke-width="2" fill="none"/><path d="M966.03 1109.83H965v-2h1.03" fill="#5e5e5e"/><path d="M935.24 1141.83l14.26-4.63v9.27z" stroke="#5e5e5e" stroke-width="2" fill="#5e5e5e"/><path d="M939.25 1182.2h-39 278.25" stroke="#5e5e5e" stroke-width="2" fill="none"/><path d="M940.25 1183.2h-1.03v-2h1.03" fill="#5e5e5e"/><path d="M1193.76 1182.2l-14.26 4.65v-9.28z" stroke="#5e5e5e" stroke-width="2" fill="#5e5e5e"/><path d="M940.25 1146c0-3.3 2.7-6 6-6h228c3.3 0 6 2.7 6 6v48c0 3.3-2.7 6-6 6h-228c-3.3 0-6-2.7-6-6z" stroke="#000" stroke-opacity="0" stroke-width="3" fill="#fff" fill-opacity="0"/><use xlink:href="#r" transform="matrix(1,0,0,1,945.25,1145) translate(-6.419753086419718 29.444444444444443)"/><path d="M920 1106c0-3.3 2.7-6 6-6h228c3.3 0 6 2.7 6 6v48c0 3.3-2.7 6-6 6H926c-3.3 0-6-2.7-6-6z" stroke="#000" stroke-opacity="0" stroke-width="3" fill="#fff" fill-opacity="0"/><use xlink:href="#s" transform="matrix(1,0,0,1,925,1105) translate(87.8395061728395 30.27777777777778)"/><path d="M860 466c0-3.3 2.7-6 6-6h228c3.3 0 6 2.7 6 6v48c0 3.3-2.7 6-6 6H866c-3.3 0-6-2.7-6-6z" stroke="#000" stroke-opacity="0" stroke-width="3" fill="#fff" fill-opacity="0"/><use xlink:href="#t" transform="matrix(1,0,0,1,865,465) translate(115 29.491666666666667)"/><path d="M1196 1269.17h-10.23m-10.23 0h-20.46m-10.23 0h-20.45m-10.23 0h-20.46m-10.22 0h-20.46m-10.23 0h-20.47m-10.22 0h-20.45m-10.23 0h-20.46m-10.23 0H950.5" stroke="#5e5e5e" stroke-width="2" fill="none"/><path d="M1197 1270.17h-1.03v-2h1.03" fill="#5e5e5e"/><path d="M935.24 1269.17l14.26-4.64v9.27z" stroke="#5e5e5e" stroke-width="2" fill="#5e5e5e"/><path d="M923.5 1246c0-3.3 2.7-6 6-6h228c3.3 0 6 2.7 6 6v28c0 3.3-2.7 6-6 6h-228c-3.3 0-6-2.7-6-6z" stroke="#000" stroke-opacity="0" stroke-width="3" fill="#fff" fill-opacity="0"/><use xlink:href="#u" transform="matrix(1,0,0,1,928.5,1245) translate(93.42592592592592 19.65277777777778)"/><path d="M2040-474c0-3.3 2.7-6 6-6h258c3.3 0 6 2.7 6 6v108c0 3.3-2.7 6-6 6h-258c-3.3 0-6-2.7-6-6z" stroke="#5e5e5e" stroke-width="3" fill="#fff"/><use xlink:href="#v" transform="matrix(1,0,0,1,2045,-475) translate(18.972222222222257 60.6875)"/><use xlink:href="#w" transform="matrix(1,0,0,1,2045,-475) translate(88.97222222222224 60.6875)"/><use xlink:href="#x" transform="matrix(1,0,0,1,2045,-475) translate(100.08333333333336 60.6875)"/><path d="M933 1689.66h10.03m10.04 0h20.06m10.04 0h20.06m10.04 0h20.06m10.04 0h20.06m10.04 0h20.06m10.04 0h20.06m10.04 0h20.06m10.04 0h20.06m10.04 0h20.06m10.04 0h20.06m10.04 0h20.06m10.04 0h20.06m10.04 0h20.06m10.04 0h20.06m10.04 0h20.06m10.04 0h20.06m10.04 0h20.06m10.03 0h20.07m10.03 0h20.07m10.03 0H1535" stroke="#5e5e5e" stroke-width="2" fill="none"/><path d="M933.03 1690.66H932v-2h1.03" fill="#5e5e5e"/><path d="M1550.26 1689.66l-14.26 4.64v-9.27z" stroke="#5e5e5e" stroke-width="2" fill="#5e5e5e"/><path d="M1047 1639.84c0-3.32 2.7-6 6-6h228c3.3 0 6 2.68 6 6v58.5c0 3.33-2.7 6-6 6h-228c-3.3 0-6-2.67-6-6z" stroke="#000" stroke-opacity="0" stroke-width="3" fill="#fff" fill-opacity="0"/><use xlink:href="#y" transform="matrix(1,0,0,1,1052,1638.835706321709) translate(58.24074074074074 36.84027777777778)"/><path d="M1555 1672.16c0-3.32 2.7-6 6-6h268c3.3 0 6 2.68 6 6v129.03c0 3.3-2.7 6-6 6h-268c-3.3 0-6-2.7-6-6z" stroke="#5e5e5e" stroke-width="3" fill="#fff"/><use xlink:href="#z" transform="matrix(1,0,0,1,1555,1666.155922693865) translate(26.655000000000022 76.525)"/><path d="M1552.5 1783.68h-10.03m-10.04 0h-20.06m-10.04 0h-20.06m-10.04 0h-20.06m-10.04 0h-20.06m-10.04 0h-20.06m-10.04 0h-20.06m-10.04 0h-20.06m-10.04 0h-20.06m-10.04 0h-20.06m-10.04 0h-20.06m-10.04 0h-20.06m-10.04 0h-20.06m-10.04 0h-20.06m-10.04 0h-20.06m-10.04 0h-20.06m-10.04 0h-20.06m-10.04 0h-20.06m-10.03 0h-20.07m-10.03 0h-20.07m-10.03 0H950.5" stroke="#5e5e5e" stroke-width="2" fill="none"/><path d="M1553.5 1784.68h-1.03v-2h1.03" fill="#5e5e5e"/><path d="M935.24 1783.68l14.26-4.63v9.27z" stroke="#5e5e5e" stroke-width="2" fill="#5e5e5e"/><path d="M1047 1742.67c0-3.3 2.7-6 6-6h228c3.3 0 6 2.7 6 6v58.52c0 3.3-2.7 6-6 6h-228c-3.3 0-6-2.7-6-6z" stroke="#000" stroke-opacity="0" stroke-width="3" fill="#fff" fill-opacity="0"/><use xlink:href="#A" transform="matrix(1,0,0,1,1052,1741.6727584149346) translate(16.32716049382718 36.84027777777778)"/><path d="M1867 1860.2c0-3.3 2.7-6 6-6h28c3.3 0 6 2.7 6 6v108c0 3.3-2.7 6-6 6h-28c-3.3 0-6-2.7-6-6z" stroke="#5e5e5e" stroke-width="3" fill="#fff"/><path d="M933 1894.2h914" stroke="#5e5e5e" stroke-width="2" fill="none"/><path d="M933.03 1895.2H932v-2h1.03" fill="#5e5e5e"/><path d="M1862.26 1894.2l-14.26 4.64v-9.27z" stroke="#5e5e5e" stroke-width="2" fill="#5e5e5e"/><path d="M1000 1846c0-3.3 2.7-6 6-6h228c3.3 0 6 2.7 6 6v58.52c0 3.3-2.7 6-6 6h-228c-3.3 0-6-2.7-6-6z" stroke="#000" stroke-opacity="0" stroke-width="3" fill="#fff" fill-opacity="0"/><use xlink:href="#B" transform="matrix(1,0,0,1,1005,1845) translate(53.98148148148148 36.84027777777778)"/><path d="M1864.5 1954.2h-10.16m-10.15 0h-20.32m-10.16 0h-20.3m-10.16 0h-20.32m-10.15 0h-20.32m-10.16 0h-20.3m-10.16 0h-20.32m-10.15 0h-20.32m-10.16 0h-20.3m-10.16 0h-20.3m-10.17 0h-20.32m-10.16 0h-20.3m-10.16 0h-20.3m-10.17 0h-20.32m-10.16 0h-20.3m-10.16 0h-20.3m-10.17 0h-20.32m-10.16 0h-20.3m-10.16 0h-20.3m-10.17 0h-20.32m-10.16 0h-20.3m-10.16 0h-20.3m-10.17 0h-20.32m-10.16 0h-20.3m-10.16 0h-20.3m-10.17 0h-20.32m-10.16 0h-20.3m-10.16 0h-20.3m-10.17 0h-20.32m-10.16 0h-20.3m-10.16 0H950.5" stroke="#5e5e5e" stroke-width="2" fill="none"/><path d="M1865.5 1955.2h-1.03v-2h1.03" fill="#5e5e5e"/><path d="M935.24 1954.2l14.26-4.63v9.27z" stroke="#5e5e5e" stroke-width="2" fill="#5e5e5e"/><path d="M1007 1930.72c0-3.32 2.7-6 6-6h228c3.3 0 6 2.68 6 6v58.5c0 3.33-2.7 6-6 6h-228c-3.3 0-6-2.67-6-6z" stroke="#000" stroke-opacity="0" stroke-width="3" fill="#fff" fill-opacity="0"/><use xlink:href="#C" transform="matrix(1,0,0,1,1012,1929.7176536711193) translate(79.19753086419753 36.84027777777778)"/><path d="M933 2032.7h1144" stroke="#5e5e5e" stroke-width="2" fill="none"/><path d="M933.03 2033.7H932v-2h1.03" fill="#5e5e5e"/><path d="M2092.26 2032.7l-14.26 4.64v-9.27z" stroke="#5e5e5e" stroke-width="2" fill="#5e5e5e"/><path d="M1120 1998.7c0-3.3 2.7-6 6-6h228c3.3 0 6 2.7 6 6v58.52c0 3.3-2.7 6-6 6h-228c-3.3 0-6-2.7-6-6z" stroke="#000" stroke-opacity="0" stroke-width="3" fill="#fff" fill-opacity="0"/><use xlink:href="#D" transform="matrix(1,0,0,1,1125,1997.7009042114532) translate(-76.14197530864192 34.94444444444444)"/><path d="M2094.5 2092.7h-10.04m-10.03 0h-20.07m-10.04 0h-20.07m-10.03 0h-20.07m-10.04 0h-20.06m-10.03 0h-20.06m-10.04 0h-20.07m-10.03 0h-20.07m-10.04 0h-20.08m-10.03 0h-20.08m-10.04 0h-20.07m-10.02 0h-20.07m-10.03 0h-20.07m-10.03 0h-20.07m-10.04 0H1663m-10.04 0h-20.07m-10.05 0h-20.07m-10.03 0h-20.07m-10.04 0h-20.07m-10.03 0h-20.07m-10.04 0h-20.07m-10.03 0h-20.07m-10.04 0h-20.07m-10.03 0h-20.07m-10.04 0h-20.06m-10.04 0h-20.07m-10.03 0h-20.07m-10.04 0h-20.08m-10.03 0h-20.08m-10.04 0h-20.07m-10.02 0h-20.07m-10.03 0h-20.07m-10.03 0h-20.07m-10.04 0H1091m-10.04 0h-20.07m-10.05 0h-20.07m-10.03 0h-20.07m-10.04 0h-20.07m-10.03 0H950.5" stroke="#5e5e5e" stroke-width="2" fill="none"/><path d="M2095.5 2093.7h-1.03v-2h1.03" fill="#5e5e5e"/><path d="M935.24 2092.7l14.26-4.63v9.27z" stroke="#5e5e5e" stroke-width="2" fill="#5e5e5e"/><path d="M888 2123.03h-10.07m-10.06 0h-20.14m-10.06 0h-20.14m-10.06 0h-20.14m-10.06 0h-20.14m-10.06 0h-20.14m-10.06 0h-20.14m-10.06 0h-20.14m-10.06 0h-20.14m-10.06 0h-20.14m-10.06 0h-20.14m-10.06 0h-20.14m-10.06 0h-20.14m-10.06 0h-20.13m-10.07 0h-20.13m-10.07 0H435" stroke="#5e5e5e" stroke-width="2" fill="none"/><path d="M889 2124.03h-1.03v-2H889" fill="#5e5e5e"/><path d="M419.74 2123.03l14.26-4.64v9.26z" stroke="#5e5e5e" stroke-width="2" fill="#5e5e5e"/><path d="M0-474c0-3.3 2.7-6 6-6h188c3.3 0 6 2.7 6 6v108c0 3.3-2.7 6-6 6H6c-3.3 0-6-2.7-6-6z" stroke="#5e5e5e" stroke-width="3" fill="#fff"/><use xlink:href="#E" transform="matrix(1,0,0,1,0,-480) translate(23.305000000000014 63.15)"/><g fill="none"><path d="M101.5-359.25c.4 0 .75.34.75.75v117c0 .4-.34.75-.75.75-.4 0-.75-.34-.75-.75v-117c0-.4.34-.75.75-.75z"/><path d="M102.25-332.5v26m0 13v26m0 13v13l-.22.53-.53.22-.53-.22-.22-.53v-13m0-13v-26m0-13v-26m0-13v-13l.22-.53.53-.22.53.22.22.53v13" stroke="#5e5e5e" stroke-width="1.5"/></g><path d="M-219-200H61.5" stroke="#5e5e5e" stroke-width="2" fill="none"/><path d="M-218.97-199H-220v-2h1.03" fill="#5e5e5e"/><path d="M76.76-200l-14.26 4.64v-9.28z" stroke="#5e5e5e" stroke-width="2" fill="#5e5e5e"/><path d="M124 300h231" stroke="#5e5e5e" stroke-width="2" fill="none"/><path d="M124.03 301H123v-2h1.03" fill="#5e5e5e"/><path d="M370.26 300L356 304.64v-9.28z" stroke="#5e5e5e" stroke-width="2" fill="#5e5e5e"/><g fill="none"><path d="M101.5 2040.75c.4 0 .75.34.75.75v477c0 .4-.34.75-.75.75-.4 0-.75-.34-.75-.75v-477c0-.4.34-.75.75-.75z"/><path d="M102.25 2070.4v28.92m0 14.45v28.9m0 14.47v28.9m0 14.46v28.9m0 14.46v28.9m0 14.47v28.9m0 14.46v28.9m0 14.45v28.9m0 14.47v28.9m0 14.46v28.9m0 14.47v14.45l-.22.53-.53.22-.53-.22-.22-.53v-14.45m0-14.46v-28.92m0-14.45v-28.9m0-14.47v-28.9m0-14.46v-28.9m0-14.46v-28.9m0-14.47v-28.9m0-14.46v-28.9m0-14.45v-28.9m0-14.47v-28.9m0-14.46v-28.9m0-14.47v-14.45l.22-.53.53-.22.53.22.22.53v14.45" stroke="#5e5e5e" stroke-width="1.5"/></g><g fill="none"><path d="M392 1980.75c.4 0 .75.34.75.75v547c0 .4-.34.75-.75.75-.4 0-.75-.34-.75-.75v-547c0-.4.34-.75.75-.75z"/><path d="M392.75 2011.9v30.38m0 15.2v30.38m0 15.2v30.38m0 15.2v30.4m0 15.18v30.4m0 15.2v30.37m0 15.2v30.38m0 15.2v30.38m0 15.2v30.38m0 15.2v30.4m0 15.18v30.4m0 15.2v15.18l-.22.53-.53.22-.53-.22-.22-.53v-15.2m0-15.2v-30.38m0-15.2v-30.38m0-15.2v-30.38m0-15.2v-30.4m0-15.18v-30.4m0-15.2v-30.37m0-15.2v-30.38m0-15.2v-30.38m0-15.2v-30.38m0-15.2v-30.4m0-15.18v-30.4m0-15.2v-15.18l.22-.53.53-.22.53.22.22.53v15.2" stroke="#5e5e5e" stroke-width="1.5"/></g><g fill="none"><path d="M906.5 2053.27c.4 0 .75.34.75.75v474.48c0 .4-.34.75-.75.75-.4 0-.75-.34-.75-.75v-474.48c0-.4.34-.75.75-.75z"/><path d="M907.25 2082.78v28.75m0 14.38v28.77m0 14.38v28.75m0 14.38v28.76m0 14.37v28.77m0 14.38v28.76m0 14.38v28.76m0 14.38v28.75m0 14.38v28.76m0 14.4v28.74m0 14.38v14.38l-.22.53-.53.22-.53-.22-.22-.53v-14.38m0-14.38V2471m0-14.4v-28.75m0-14.38v-28.75m0-14.38v-28.76m0-14.37v-28.75m0-14.38v-28.76m0-14.36v-28.76m0-14.38v-28.75m0-14.38v-28.76m0-14.37v-28.75m0-14.38v-14.38l.22-.53.53-.23.53.22.22.52v14.38" stroke="#5e5e5e" stroke-width="1.5"/></g><g fill="none"><path d="M1888.5 2041.56c.4 0 .75.33.75.75v476.2c0 .4-.34.75-.75.75-.4 0-.75-.34-.75-.75v-476.2c0-.4.34-.74.75-.74z"/><path d="M1889.25 2071.17v28.86m0 14.43v28.86m0 14.43v28.86m0 14.44v28.86m0 14.43v28.86m0 14.42v28.86m0 14.43v28.87m0 14.43v28.86m0 14.43v28.85m0 14.43v28.86m0 14.43v14.43l-.22.53-.53.22-.53-.22-.22-.53v-14.43m0-14.43v-28.86m0-14.43v-28.86m0-14.44v-28.86m0-14.43v-28.86m0-14.42v-28.86m0-14.43v-28.87m0-14.43v-28.86m0-14.43v-28.85m0-14.43v-28.86m0-14.43v-28.86m0-14.43v-14.43l.22-.52.53-.22.53.22.22.53v14.44" stroke="#5e5e5e" stroke-width="1.5"/></g><g fill="none"><path d="M2117 2011.38c.4 0 .75.34.75.75v496.37c0 .4-.34.75-.75.75-.4 0-.75-.34-.75-.75v-496.37c0-.4.34-.75.75-.75z"/><path d="M2117.75 2042.2v30.1m0 15.04v30.08m0 15.04v30.1m0 15.03v30.07m0 15.04v30.1m0 15.04v30.08m0 15.04v30.08m0 15.04v30.1m0 15.03v30.1m0 15.03v30.1m0 15.03v15.04l-.22.53-.53.22-.53-.22-.22-.53v-15.04m0-15.04v-30.1m0-15.03v-30.1m0-15.03v-30.1m0-15.03v-30.08m0-15.04v-30.08m0-15.05v-30.1m0-15.03v-30.08m0-15.05v-30.1m0-15.03v-30.08m0-15.04v-30.1m0-15.03v-15.04l.22-.53.53-.22.53.22.22.53v15.04" stroke="#5e5e5e" stroke-width="1.5"/></g><g fill="none"><path d="M1885.5-186.48c.4 0 .75.33.75.75V1781.5c0 .42-.34.75-.75.75-.4 0-.75-.33-.75-.75V-185.73c0-.42.34-.75.75-.75z"/><path d="M1886.25-155.93v29.8m0 14.9v29.82m0 14.9v29.8m0 14.9V8m0 14.9v29.82m0 14.9v29.8m0 14.9v29.82m0 14.9v29.8m0 14.9v29.82m0 14.9v29.8m0 14.9V321m0 14.9v29.8m0 14.9v29.82m0 14.9v29.8m0 14.9v29.82m0 14.9v29.8m0 14.9v29.82m0 14.9v29.8m0 14.9v29.82m0 14.9v29.8m0 14.9v29.82m0 14.9v29.8m0 14.9v29.82m0 14.9v29.8m0 14.9v29.82m0 14.9v29.8m0 14.9v29.82m0 14.9v29.8m0 14.9v29.82m0 14.9v29.8m0 14.9v29.82m0 14.9v29.8m0 14.9v29.82m0 14.9v29.8m0 14.9v29.82m0 14.9v29.8m0 14.9v29.82m0 14.9v29.8m0 14.9v29.82m0 14.9v29.8m0 14.9v29.82m0 14.9v29.8m0 14.9v29.82m0 14.9v14.9l-.22.53-.53.22-.53-.22-.22-.53v-14.9m0-14.9v-29.8m0-14.9v-29.82m0-14.9v-29.8m0-14.9v-29.82m0-14.9v-29.8m0-14.9v-29.82m0-14.9v-29.8m0-14.9v-29.82m0-14.9v-29.8m0-14.9v-29.82m0-14.9v-29.8m0-14.9v-29.82m0-14.9v-29.8m0-14.9v-29.82m0-14.9v-29.8m0-14.9v-29.82m0-14.9v-29.8m0-14.9V961.8m0-14.9v-29.8m0-14.9V872.4m0-14.9v-29.8m0-14.9v-29.82m0-14.9v-29.8m0-14.9v-29.82m0-14.9v-29.8m0-14.9v-29.82m0-14.9v-29.8m0-14.9V514.7m0-14.9v-29.8m0-14.9V425.3m0-14.9v-29.8m0-14.9v-29.82m0-14.9v-29.8m0-14.9v-29.82m0-14.9v-29.8m0-14.9v-29.82m0-14.9v-29.8m0-14.9V67.6m0-14.9v-29.8m0-14.9V-21.8m0-14.9v-29.8m0-14.9v-29.82m0-14.9v-29.8m0-14.9v-14.9l.22-.54.53-.22.53.22.22.53v14.9" stroke="#5e5e5e" stroke-width="1.5"/></g><g fill="none"><path d="M2117-184.95c.4 0 .75.34.75.75v2121.1c0 .4-.34.75-.75.75-.4 0-.75-.34-.75-.75V-184.2c0-.4.34-.75.75-.75z"/><path d="M2117.75-154.1v30.08m0 15.04v30.1m0 15.03v30.1m0 15.03v30.1m0 15.03v30.1m0 15.04v30.08m0 15.05v30.08m0 15.05v30.08m0 15.05V237m0 15.06v30.08m0 15.05v30.07m0 15.05v30.08m0 15.05v30.08m0 15.05v30.08m0 15.05v30.1m0 15.03v30.1m0 15.03v30.1m0 15.03v30.08m0 15.04v30.1m0 15.03v30.1m0 15.03v30.1m0 15.03v30.1m0 15.04v30.1m0 15.03v30.1m0 15.03v30.1m0 15.03v30.1m0 15.03v30.1m0 15.03v30.08m0 15.04v30.1m0 15.03v30.1m0 15.03v30.1m0 15.03v30.1m0 15.04v30.1m0 15.03v30.1m0 15.03v30.08m0 15.05v30.08m0 15.06v30.08m0 15.05v30.07m0 15.05v30.08m0 15.05v30.08m0 15.05v30.08m0 15.05v30.1m0 15.04v30.08m0 15.05v30.08m0 15.05v30.08m0 15.04v30.1m0 15.03v15.05l-.22.53-.53.22-.53-.22-.22-.53v-15.05m0-15.04v-30.08m0-15.04v-30.08m0-15.05v-30.08m0-15.05v-30.08m0-15.05v-30.1m0-15.04v-30.08m0-15.05v-30.08m0-15.05v-30.08m0-15.05v-30.08m0-15.06v-30.08m0-15.05v-30.07m0-15.05v-30.08m0-15.04v-30.1m0-15.03v-30.1m0-15.03v-30.1m0-15.03v-30.1m0-15.03v-30.1m0-15.03v-30.08m0-15.04v-30.1m0-15.03v-30.1m0-15.03v-30.1m0-15.03V929m0-15.04v-30.1m0-15.03v-30.1m0-15.03v-30.1m0-15.03v-30.1m0-15.03v-30.1m0-15.03v-30.08m0-15.04v-30.1m0-15.03v-30.1m0-15.03v-30.1m0-15.03v-30.1m0-15.04v-30.08m0-15.05v-30.08m0-15.05v-30.08m0-15.05V297.2m0-15.06v-30.08m0-15.05v-30.07m0-15.05V161.8m0-15.05v-30.08m0-15.05V71.54m0-15.05V26.4m0-15.03v-30.1m0-15.03v-30.1m0-15.03v-30.08m0-15.04v-30.1m0-15.03v-15.05l.22-.53.53-.22.53.22.22.53v15.05" stroke="#5e5e5e" stroke-width="1.5"/></g><g fill="none"><path d="M1223.5-335.82c.4 0 .75.34.75.75V1168.5c0 .4-.34.75-.75.75-.4 0-.75-.34-.75-.75V-335.07c0-.4.34-.75.75-.75z"/><path d="M1224.25-304.7v30.38m0 15.2v30.36m0 15.2v30.37m0 15.2v30.37m0 15.2v30.36m0 15.2v30.36m0 15.18V-.94m0 15.18v30.38m0 15.2v30.36m0 15.2v30.36m0 15.2v30.37m0 15.2v30.37m0 15.2v30.36m0 15.2V318m0 15.18v30.38m0 15.2v30.36m0 15.2v30.36m0 15.2v30.37m0 15.18v30.38m0 15.2v30.37m0 15.2v30.36m0 15.2v30.37m0 15.18v30.38m0 15.2v30.36m0 15.2v30.37m0 15.17v30.38m0 15.2v30.36m0 15.2v30.37m0 15.2v30.37m0 15.18V1047m0 15.2v30.36m0 15.2v30.36m0 15.2v15.18l-.22.53-.53.22-.53-.22-.22-.53v-15.2m0-15.18v-30.37m0-15.2v-30.36m0-15.2v-30.38m0-15.18v-30.38m0-15.2V925.5m0-15.2v-30.36m0-15.2v-30.37m0-15.18v-30.4m0-15.18v-30.37m0-15.2V697.7m0-15.18v-30.38m0-15.2v-30.36m0-15.2V561m0-15.2v-30.37m0-15.18v-30.38m0-15.2v-30.36m0-15.18v-30.37m0-15.2V333.2m0-15.18v-30.38m0-15.2v-30.36m0-15.2V196.5m0-15.2v-30.37m0-15.2v-30.36m0-15.2V59.82m0-15.18V14.24m0-15.18v-30.38m0-15.2v-30.36m0-15.2v-30.36m0-15.2V-168m0-15.2v-30.37m0-15.2v-30.36m0-15.2v-30.37m0-15.18v-15.2l.22-.52.53-.22.53.22.22.53v15.2" stroke="#5e5e5e" stroke-width="1.5"/></g><g fill="none"><path d="M1224 1460.75c.4 0 .75.34.75.75v1073.06c0 .4-.34.75-.75.75-.4 0-.75-.33-.75-.74V1461.5c0-.4.34-.75.75-.75z"/><path d="M1224.75 1491.3v29.8m0 14.92v29.8m0 14.9v29.82m0 14.9v29.8m0 14.9v29.82m0 14.9v29.8m0 14.9v29.82m0 14.9v29.8m0 14.9v29.82m0 14.9v29.8m0 14.9v29.82m0 14.9v29.8m0 14.92v29.8m0 14.9v29.8m0 14.92v29.8m0 14.9v29.82m0 14.9v29.8m0 14.9v29.82m0 14.9v29.8m0 14.9v29.82m0 14.9v29.8m0 14.9v29.82m0 14.9v29.8m0 14.9v14.92l-.22.53-.53.2-.53-.2-.22-.54v-14.9m0-14.9v-29.82m0-14.9v-29.8m0-14.9v-29.82m0-14.9v-29.8m0-14.9v-29.82m0-14.9v-29.8m0-14.9v-29.82m0-14.9v-29.8m0-14.92v-29.8m0-14.9v-29.8m0-14.92v-29.8m0-14.9v-29.8m0-14.92v-29.8m0-14.9v-29.82m0-14.9V1849m0-14.9v-29.82m0-14.9v-29.8m0-14.9v-29.82m0-14.9v-29.8m0-14.9v-29.82m0-14.9v-29.8m0-14.9V1536m0-14.9v-29.8m0-14.92v-14.9l.22-.53.53-.22.53.22.22.53v14.9" stroke="#5e5e5e" stroke-width="1.5"/></g><g fill="none"><path d="M1696.5 1839.6c.4 0 .75.35.75.76v678.14c0 .4-.34.75-.75.75-.4 0-.75-.34-.75-.75v-678.14c0-.4.34-.75.75-.75z"/><path d="M1697.25 1870.5v30.14m0 15.07v30.15m0 15.07v30.14m0 15.07v30.14m0 15.07v30.14m0 15.07v30.14m0 15.06v30.14m0 15.07v30.14m0 15.08v30.13m0 15.08v30.14m0 15.07v30.13m0 15.07v30.14m0 15.07v30.15m0 15.07v30.14m0 15.07v15.07l-.22.53-.53.22-.53-.22-.22-.53v-15.07m0-15.07v-30.14m0-15.07V2413m0-15.06v-30.14m0-15.07v-30.14m0-15.08v-30.14m0-15.07v-30.12m0-15.07v-30.13m0-15.07v-30.14m0-15.07v-30.15m0-15.07v-30.14m0-15.07v-30.14m0-15.07v-30.14m0-15.07v-30.14m0-15.06v-30.14m0-15.07v-15.07l.22-.53.53-.22.53.23.22.53v15.07" stroke="#5e5e5e" stroke-width="1.5"/></g><path d="M372.5 2179.17h-10.35m-10.36 0h-20.72m-10.35 0h-20.7m-10.36 0h-20.7m-10.37 0h-19.25m-8.9 0h-17.78m-8.9 0h-17.8m-8.88 0h-17.8m-8.9 0h-8.9" stroke="#5e5e5e" stroke-width="2" fill="none"/><path d="M373.5 2180.17h-1.03v-2h1.03" fill="#5e5e5e"/><path d="M126.24 2179.17l14.26-4.63v9.27z" stroke="#5e5e5e" stroke-width="2" fill="#5e5e5e"/><use xlink:href="#F" transform="matrix(1,0,0,1,122.25000000000006,2187.809112936525) translate(0.0049999999999954525 17.777777777777775)"/><path d="M1205.5 1335.17c0-3.32 2.7-6 6-6h28c3.3 0 6 2.68 6 6v108c0 3.3-2.7 6-6 6h-28c-3.3 0-6-2.7-6-6z" stroke="#5e5e5e" stroke-width="3" fill="#fff"/><path d="M933 1356.27h252.5" stroke="#5e5e5e" stroke-width="2" fill="none"/><path d="M933.03 1357.27H932v-2h1.03" fill="#5e5e5e"/><path d="M1200.76 1356.27l-14.26 4.64v-9.26z" stroke="#5e5e5e" stroke-width="2" fill="#5e5e5e"/><use xlink:href="#G" transform="matrix(1,0,0,1,958.9567901234568,1325.6074526523369) translate(0.0049999999999954525 17.77777777777778)"/><use xlink:href="#H" transform="matrix(1,0,0,1,958.9567901234568,1325.6074526523369) translate(140.49882716049385 17.77777777777778)"/><use xlink:href="#I" transform="matrix(1,0,0,1,958.9567901234568,1325.6074526523369) translate(152.84450617283952 17.77777777777778)"/><path d="M1203 1435.6h-10.52m-10.52 0h-21.04m-10.52 0h-21.05m-10.52 0h-21.04m-10.53 0h-21.04m-10.52 0h-21.03m-10.52 0h-21.04m-10.52 0h-21.04m-10.52 0H950.5" stroke="#5e5e5e" stroke-width="2" fill="none"/><path d="M1204 1436.6h-1.03v-2h1.03" fill="#5e5e5e"/><path d="M935.24 1435.6l14.26-4.62v9.27z" stroke="#5e5e5e" stroke-width="2" fill="#5e5e5e"/><path d="M79 2277H68.98m-10 0H38.92m-10 0H8.87m-10 0h-20.05m-10 0h-20.05m-10 0h-20.05m-10 0h-20.05m-10 0h-20.05m-10 0h-20.05m-10 0h-20.04m-10.02 0h-10.02" stroke="#5e5e5e" stroke-width="2" fill="none"/><path d="M80 2278h-1.03v-2H80" fill="#5e5e5e"/><path d="M-236.76 2277l14.26-4.63v9.27z" stroke="#5e5e5e" stroke-width="2" fill="#5e5e5e"/><use xlink:href="#J" transform="matrix(1,0,0,1,-140.04938271604937,2281.0033682885078) translate(0.005000000000002558 14.222222222222223)"/><path d="M1400-474c0-3.3 2.7-6 6-6h148c3.3 0 6 2.7 6 6v108c0 3.3-2.7 6-6 6h-148c-3.3 0-6-2.7-6-6z" stroke="#5e5e5e" stroke-width="3" fill="#fff"/><use xlink:href="#K" transform="matrix(1,0,0,1,1400,-480) translate(15.630000000000004 63.15)"/><g fill="none"><path d="M1480-140.77c.4 0 .75.34.75.75V2528.5c0 .4-.34.75-.75.75-.4 0-.75-.34-.75-.75V-140.02c0-.4.34-.75.75-.75z"/><path d="M1480.75-109.87v30.16m0 15.06v30.15m0 15.1v30.14m0 15.08v30.15m0 15.08v30.15m0 15.08v30.15m0 15.08v30.16m0 15.08v30.15m0 15.07v30.15m0 15.07v30.15m0 15.07v30.16m0 15.07v30.16m0 15.08v30.16m0 15.07v30.16m0 15.08v30.15m0 15.07v30.15m0 15.08v30.15m0 15.08v30.15m0 15.08v30.15m0 15.1v30.14m0 15.08v30.15m0 15.07v30.16m0 15.07v30.16m0 15.07v30.16m0 15.07v30.15m0 15.08V1051m0 15.1v30.14m0 15.08v30.15m0 15.08v30.15m0 15.08v30.15m0 15.08v30.16m0 15.08v30.15m0 15.07v30.15m0 15.07v30.15m0 15.07v30.16m0 15.07v30.16m0 15.08v30.15m0 15.08v30.16m0 15.08V1639m0 15.07v30.15m0 15.08v30.15m0 15.08v30.15m0 15.08v30.15m0 15.1v30.14m0 15.08v30.15m0 15.07v30.16m0 15.07v30.16m0 15.07v30.16m0 15.07v30.15m0 15.08v30.15m0 15.1v30.14m0 15.08v30.15m0 15.08v30.15m0 15.08v30.15m0 15.08v30.16m0 15.08v30.15m0 15.07v30.15m0 15.07v30.15m0 15.07v15.08l-.22.53-.53.22-.53-.22-.22-.53v-15.08m0-15.07v-30.16m0-15.08v-30.15m0-15.08v-30.16m0-15.08v-30.15m0-15.07v-30.15m0-15.08v-30.15m0-15.08v-30.15m0-15.08v-30.15m0-15.1v-30.14m0-15.08v-30.15m0-15.07v-30.16m0-15.07v-30.16m0-15.07v-30.16m0-15.07v-30.15m0-15.08V1835m0-15.1v-30.14m0-15.08v-30.15m0-15.08v-30.15m0-15.08v-30.15m0-15.08v-30.16m0-15.08v-30.15m0-15.07v-30.15m0-15.07v-30.15m0-15.07v-30.16m0-15.07v-30.16m0-15.08v-30.15m0-15.08v-30.16m0-15.08V1247m0-15.07v-30.15m0-15.08v-30.15m0-15.08v-30.15m0-15.08v-30.15m0-15.1v-30.14m0-15.08v-30.15m0-15.07V930.4m0-15.07v-30.16m0-15.07v-30.16m0-15.07v-30.15m0-15.08V749.5m0-15.1v-30.14m0-15.08v-30.15m0-15.08V613.8m0-15.08v-30.15m0-15.08v-30.16m0-15.08V478.1m0-15.06v-30.16m0-15.07v-30.15m0-15.07v-30.16m0-15.07V297.2m0-15.08v-30.15m0-15.08v-30.16m0-15.08V161.5m0-15.07v-30.15m0-15.08V71.05m0-15.08V25.82m0-15.08V-19.4m0-15.1v-30.14m0-15.07v-30.17m0-15.07v-15.08l.22-.53.53-.22.53.22.22.53v15.08" stroke="#5e5e5e" stroke-width="1.5"/></g><path d="M1198.5 1175.17c0-3.32 2.7-6 6-6h28c3.3 0 6 2.68 6 6v108c0 3.3-2.7 6-6 6h-28c-3.3 0-6-2.7-6-6zM1458.5 1195.17c0-3.32 2.7-6 6-6h28c3.3 0 6 2.68 6 6v68c0 3.3-2.7 6-6 6h-28c-3.3 0-6-2.7-6-6z" stroke="#5e5e5e" stroke-width="3" fill="#fff"/><path d="M1241 1188.15h203" stroke="#5e5e5e" stroke-width="2" fill="none"/><path d="M1241.03 1189.15H1240v-2h1.03" fill="#5e5e5e"/><path d="M1459.28 1188.15l-14.27 4.63v-9.27z" stroke="#5e5e5e" stroke-width="2" fill="#5e5e5e"/><use xlink:href="#L" transform="matrix(1,0,0,1,1239.4804781498628,1155.5140451589377) translate(0.0049999999999954525 15.999999999999998)"/><use xlink:href="#M" transform="matrix(1,0,0,1,1239.4804781498628,1155.5140451589377) translate(159.7272222222222 15.999999999999998)"/><use xlink:href="#N" transform="matrix(1,0,0,1,1239.4804781498628,1155.5140451589377) translate(170.8383333333333 15.999999999999998)"/><path d="M1456 1250.5h-9.4m-9.4 0h-18.82m-9.4 0h-18.8m-9.42 0h-18.8m-9.4 0h-18.82m-9.4 0h-18.8m-9.42 0h-18.8m-9.4 0h-9.42" stroke="#5e5e5e" stroke-width="2" fill="none"/><path d="M1457 1251.5h-1.03v-2h1.03" fill="#5e5e5e"/><path d="M1243.24 1250.5l14.26-4.62v9.27z" stroke="#5e5e5e" stroke-width="2" fill="#5e5e5e"/><path d="M1218.5 1225.17c0-3.32 2.7-6 6-6h228c3.3 0 6 2.68 6 6v28c0 3.3-2.7 6-6 6h-228c-3.3 0-6-2.7-6-6z" stroke="#000" stroke-opacity="0" stroke-width="3" fill="#fff" fill-opacity="0"/><use xlink:href="#u" transform="matrix(1,0,0,1,1223.5,1224.1666666666667) translate(93.42592592592592 19.65277777777778)"/><path d="M1458.5 1355.17c0-3.32 2.7-6 6-6h28c3.3 0 6 2.68 6 6v68c0 3.3-2.7 6-6 6h-28c-3.3 0-6-2.7-6-6z" stroke="#5e5e5e" stroke-width="3" fill="#fff"/><path d="M1248 1352.76h191.1" stroke="#5e5e5e" stroke-width="2" fill="none"/><path d="M1248.03 1353.76H1247v-2h1.03" fill="#5e5e5e"/><path d="M1454.36 1352.76l-14.26 4.63v-9.28z" stroke="#5e5e5e" stroke-width="2" fill="#5e5e5e"/><use xlink:href="#O" transform="matrix(1,0,0,1,1267.2677661400944,1322.0927598494347) translate(0.0049999999999954525 17.77777777777778)"/><use xlink:href="#H" transform="matrix(1,0,0,1,1267.2677661400944,1322.0927598494347) translate(103.58524691358025 17.77777777777778)"/><use xlink:href="#P" transform="matrix(1,0,0,1,1267.2677661400944,1322.0927598494347) translate(115.93092592592593 17.77777777777778)"/><path d="M1456 1422.36h-10.58m-10.6 0h-21.15m-10.6 0h-21.15m-10.6 0h-21.15m-10.6 0h-21.15m-10.6 0h-21.15m-10.58 0h-10.6" stroke="#5e5e5e" stroke-width="2" fill="none"/><path d="M1457 1423.36h-1.03v-2h1.03" fill="#5e5e5e"/><path d="M1250.24 1422.36l14.26-4.64v9.28z" stroke="#5e5e5e" stroke-width="2" fill="#5e5e5e"/><path d="M81.5-214c0-3.3 2.7-6 6-6h28c3.3 0 6 2.7 6 6v2508c0 3.3-2.7 6-6 6h-28c-3.3 0-6-2.7-6-6zM375 286c0-3.3 2.7-6 6-6h28c3.3 0 6 2.7 6 6v1908c0 3.3-2.7 6-6 6h-28c-3.3 0-6-2.7-6-6zM2097 1998.7c0-3.3 2.7-6 6-6h28c3.3 0 6 2.7 6 6v108c0 3.3-2.7 6-6 6h-28c-3.3 0-6-2.7-6-6zM890.5 1096.27c0-3.32 2.7-6 6-6h28c3.3 0 6 2.68 6 6V2134c0 3.3-2.7 6-6 6h-28c-3.3 0-6-2.7-6-6z" stroke="#5e5e5e" stroke-width="3" fill="#fff"/><path d="M890.5 1007.67c0-3.32 2.7-6 6-6h28c3.3 0 6 2.68 6 6V2134c0 3.3-2.7 6-6 6h-28c-3.3 0-6-2.7-6-6z" stroke="#5e5e5e" stroke-width="3" fill="#fff"/><path d="M948 1466c0-3.3 2.7-6 6-6h228c3.3 0 6 2.7 6 6v48c0 3.3-2.7 6-6 6H954c-3.3 0-6-2.7-6-6z" stroke="#000" stroke-opacity="0" stroke-width="3" fill="#fff" fill-opacity="0"/><use xlink:href="#r" transform="matrix(1,0,0,1,953,1465) translate(-6.419753086419718 29.444444444444443)"/><path d="M923.5 1582.08c0-3.3 2.7-6 6-6h228c3.3 0 6 2.7 6 6v28c0 3.32-2.7 6-6 6h-228c-3.3 0-6-2.68-6-6z" stroke="#000" stroke-opacity="0" stroke-width="3" fill="#fff" fill-opacity="0"/><use xlink:href="#u" transform="matrix(1,0,0,1,928.5,1581.0845198275213) translate(93.42592592592592 19.65277777777778)"/><path d="M1205.5 1502.08c0-3.3 2.7-6 6-6h28c3.3 0 6 2.7 6 6v108c0 3.32-2.7 6-6 6h-28c-3.3 0-6-2.68-6-6zM1465.5 1522.08c0-3.3 2.7-6 6-6h28c3.3 0 6 2.7 6 6v68c0 3.32-2.7 6-6 6h-28c-3.3 0-6-2.68-6-6z" stroke="#5e5e5e" stroke-width="3" fill="#fff"/><path d="M1248 1515.07h203" stroke="#5e5e5e" stroke-width="2" fill="none"/><path d="M1248.03 1516.07H1247v-2h1.03" fill="#5e5e5e"/><path d="M1466.28 1515.07l-14.27 4.63v-9.27z" stroke="#5e5e5e" stroke-width="2" fill="#5e5e5e"/><g><use xlink:href="#L" transform="matrix(1,0,0,1,1246.4804781498628,1482.4318983197923) translate(0.0049999999999954525 15.999999999999998)"/><use xlink:href="#M" transform="matrix(1,0,0,1,1246.4804781498628,1482.4318983197923) translate(159.7272222222222 15.999999999999998)"/><use xlink:href="#N" transform="matrix(1,0,0,1,1246.4804781498628,1482.4318983197923) translate(170.8383333333333 15.999999999999998)"/></g><path d="M1225.5 1552.08c0-3.3 2.7-6 6-6h228c3.3 0 6 2.7 6 6v28c0 3.32-2.7 6-6 6h-228c-3.3 0-6-2.68-6-6z" stroke="#000" stroke-opacity="0" stroke-width="3" fill="#fff" fill-opacity="0"/><g><use xlink:href="#u" transform="matrix(1,0,0,1,1230.5,1551.0845198275213) translate(93.42592592592592 19.65277777777778)"/></g><path d="M1459.2 1585.9h-10.77m-10.76 0h-21.52m-10.76 0h-21.53m-10.76 0h-21.5m-10.77 0h-21.52m-10.75 0h-21.53m-10.76 0h-10.76" stroke="#5e5e5e" stroke-width="2" fill="none"/><path fill="#5e5e5e"/><path d="M1250.24 1585.9l14.26-4.64v9.27z" stroke="#5e5e5e" stroke-width="2" fill="#5e5e5e"/><path d="M1203 1604.7h-10.52m-10.52 0h-21.04m-10.52 0h-21.05m-10.52 0h-21.04m-10.53 0h-21.04m-10.52 0h-21.03m-10.52 0h-21.04m-10.52 0h-21.04m-10.52 0H950.5" stroke="#5e5e5e" stroke-width="2" fill="none"/><path d="M1204 1605.7h-1.03v-2h1.03" fill="#5e5e5e"/><path d="M935.24 1604.7l14.26-4.63v9.28z" stroke="#5e5e5e" stroke-width="2" fill="#5e5e5e"/><path d="M933 1498.28h253.47" stroke="#5e5e5e" stroke-width="2" fill="none"/><path d="M933.03 1499.28H932v-2h1.03" fill="#5e5e5e"/><path d="M1201.74 1498.28l-14.27 4.63v-9.26z" stroke="#5e5e5e" stroke-width="2" fill="#5e5e5e"/><defs><path fill="#333" d="M141-36C126-15 110 5 73 4 37 3 15-17 15-53c-1-64 63-63 125-63 3-35-9-54-41-54-24 1-41 7-42 31l-33-3c5-37 33-52 76-52 45 0 72 20 72 64v82c-1 20 7 32 28 27v20c-31 9-61-2-59-35zM48-53c0 20 12 33 32 33 41-3 63-29 60-74-43 2-92-5-92 41" id="Q"/><path fill="#333" d="M24 0v-261h32V0H24" id="R"/><path fill="#333" d="M59-47c-2 24 18 29 38 22v24C64 9 27 4 27-40v-127H5v-23h24l9-43h21v43h35v23H59v120" id="S"/><g id="a"><use transform="matrix(0.06172839506172839,0,0,0.06172839506172839,0,0)" xlink:href="#Q"/><use transform="matrix(0.06172839506172839,0,0,0.06172839506172839,12.345679012345679,0)" xlink:href="#R"/><use transform="matrix(0.06172839506172839,0,0,0.06172839506172839,17.22222222222222,0)" xlink:href="#S"/></g><path fill="#333" d="M26 75v-336h71v23H56V52h41v23H26" id="T"/><path fill="#333" d="M63-70H37l-4-178h34zM33 0v-35h34V0H33" id="U"/><path fill="#333" d="M108 0H70L1-190h34L89-25l56-165h34" id="V"/><path fill="#333" d="M24-231v-30h32v30H24zM24 0v-190h32V0H24" id="W"/><path fill="#333" d="M85-194c31 0 48 13 60 33l-1-100h32l1 261h-30c-2-10 0-23-3-31C134-8 116 4 85 4 32 4 16-35 15-94c0-66 23-100 70-100zm9 24c-40 0-46 34-46 75 0 40 6 74 45 74 42 0 51-32 51-76 0-42-9-74-50-73" id="X"/><g id="b"><use transform="matrix(0.06172839506172839,0,0,0.06172839506172839,0,0)" xlink:href="#T"/><use transform="matrix(0.06172839506172839,0,0,0.06172839506172839,6.172839506172839,0)" xlink:href="#U"/><use transform="matrix(0.06172839506172839,0,0,0.06172839506172839,12.345679012345679,0)" xlink:href="#V"/><use transform="matrix(0.06172839506172839,0,0,0.06172839506172839,23.45679012345679,0)" xlink:href="#Q"/><use transform="matrix(0.06172839506172839,0,0,0.06172839506172839,35.80246913580247,0)" xlink:href="#R"/><use transform="matrix(0.06172839506172839,0,0,0.06172839506172839,40.67901234567901,0)" xlink:href="#W"/><use transform="matrix(0.06172839506172839,0,0,0.06172839506172839,45.55555555555556,0)" xlink:href="#X"/></g><path fill="#333" d="M127-220V0H93v-220H8v-28h204v28h-85" id="Y"/><path fill="#333" d="M100-194c62-1 85 37 85 99 1 63-27 99-86 99S16-35 15-95c0-66 28-99 85-99zM99-20c44 1 53-31 53-75 0-43-8-75-51-75s-53 32-53 75 10 74 51 75" id="Z"/><path fill="#333" d="M143 0L79-87 56-68V0H24v-261h32v163l83-92h37l-77 82L181 0h-38" id="aa"/><path fill="#333" d="M100-194c63 0 86 42 84 106H49c0 40 14 67 53 68 26 1 43-12 49-29l28 8c-11 28-37 45-77 45C44 4 14-33 15-96c1-61 26-98 85-98zm52 81c6-60-76-77-97-28-3 7-6 17-6 28h103" id="ab"/><path fill="#333" d="M117-194c89-4 53 116 60 194h-32v-121c0-31-8-49-39-48C34-167 62-67 57 0H25l-1-190h30c1 10-1 24 2 32 11-22 29-35 61-36" id="ac"/><path fill="#333" d="M3 75V52h41v-290H3v-23h71V75H3" id="ad"/><g id="c"><use transform="matrix(0.06172839506172839,0,0,0.06172839506172839,0,0)" xlink:href="#Y"/><use transform="matrix(0.06172839506172839,0,0,0.06172839506172839,11.049382716049381,0)" xlink:href="#Z"/><use transform="matrix(0.06172839506172839,0,0,0.06172839506172839,23.39506172839506,0)" xlink:href="#aa"/><use transform="matrix(0.06172839506172839,0,0,0.06172839506172839,34.50617283950617,0)" xlink:href="#ab"/><use transform="matrix(0.06172839506172839,0,0,0.06172839506172839,46.85185185185185,0)" xlink:href="#ac"/><use transform="matrix(0.06172839506172839,0,0,0.06172839506172839,59.197530864197525,0)" xlink:href="#ad"/></g><g id="d"><use transform="matrix(0.06172839506172839,0,0,0.06172839506172839,0,0)" xlink:href="#T"/><use transform="matrix(0.06172839506172839,0,0,0.06172839506172839,6.172839506172839,0)" xlink:href="#V"/><use transform="matrix(0.06172839506172839,0,0,0.06172839506172839,17.28395061728395,0)" xlink:href="#Q"/><use transform="matrix(0.06172839506172839,0,0,0.06172839506172839,29.629629629629626,0)" xlink:href="#R"/><use transform="matrix(0.06172839506172839,0,0,0.06172839506172839,34.50617283950617,0)" xlink:href="#W"/><use transform="matrix(0.06172839506172839,0,0,0.06172839506172839,39.382716049382715,0)" xlink:href="#X"/></g><path fill="#333" d="M115-194c55 1 70 41 70 98S169 2 115 4C84 4 66-9 55-30l1 105H24l-1-265h31l2 30c10-21 28-34 59-34zm-8 174c40 0 45-34 45-75s-6-73-45-74c-42 0-51 32-51 76 0 43 10 73 51 73" id="ae"/><g id="e"><use transform="matrix(0.06172839506172839,0,0,0.06172839506172839,0,0)" xlink:href="#Z"/><use transform="matrix(0.06172839506172839,0,0,0.06172839506172839,12.345679012345679,0)" xlink:href="#ae"/><use transform="matrix(0.06172839506172839,0,0,0.06172839506172839,24.691358024691358,0)" xlink:href="#S"/></g><path fill="#333" d="M84 4C-5 8 30-112 23-190h32v120c0 31 7 50 39 49 72-2 45-101 50-169h31l1 190h-30c-1-10 1-25-2-33-11 22-28 36-60 37" id="af"/><path fill="#333" d="M135-143c-3-34-86-38-87 0 15 53 115 12 119 90S17 21 10-45l28-5c4 36 97 45 98 0-10-56-113-15-118-90-4-57 82-63 122-42 12 7 21 19 24 35" id="ag"/><path fill="#333" d="M114-163C36-179 61-72 57 0H25l-1-190h30c1 12-1 29 2 39 6-27 23-49 58-41v29" id="ah"/><g id="f"><use transform="matrix(0.06172839506172839,0,0,0.06172839506172839,0,0)" xlink:href="#T"/><use transform="matrix(0.06172839506172839,0,0,0.06172839506172839,6.172839506172839,0)" xlink:href="#af"/><use transform="matrix(0.06172839506172839,0,0,0.06172839506172839,18.51851851851852,0)" xlink:href="#ag"/><use transform="matrix(0.06172839506172839,0,0,0.06172839506172839,29.62962962962963,0)" xlink:href="#ab"/><use transform="matrix(0.06172839506172839,0,0,0.06172839506172839,41.97530864197531,0)" xlink:href="#ah"/></g><path fill="#333" d="M18-150v-26h174v26H18zm0 90v-26h174v26H18" id="ai"/><g id="g"><use transform="matrix(0.06172839506172839,0,0,0.06172839506172839,0,0)" xlink:href="#ai"/><use transform="matrix(0.06172839506172839,0,0,0.06172839506172839,12.962962962962962,0)" xlink:href="#ai"/></g><g id="h"><use transform="matrix(0.06172839506172839,0,0,0.06172839506172839,0,0)" xlink:href="#ac"/><use transform="matrix(0.06172839506172839,0,0,0.06172839506172839,12.345679012345679,0)" xlink:href="#af"/><use transform="matrix(0.06172839506172839,0,0,0.06172839506172839,24.691358024691358,0)" xlink:href="#R"/><use transform="matrix(0.06172839506172839,0,0,0.06172839506172839,29.5679012345679,0)" xlink:href="#R"/><use transform="matrix(0.06172839506172839,0,0,0.06172839506172839,34.44444444444444,0)" xlink:href="#ad"/></g><path d="M33-154v-36h34v36H33zM33 0v-36h34V0H33" id="aj"/><path d="M185-189c-5-48-123-54-124 2 14 75 158 14 163 119 3 78-121 87-175 55-17-10-28-26-33-46l33-7c5 56 141 63 141-1 0-78-155-14-162-118-5-82 145-84 179-34 5 7 8 16 11 25" id="ak"/><path d="M100-194c63 0 86 42 84 106H49c0 40 14 67 53 68 26 1 43-12 49-29l28 8c-11 28-37 45-77 45C44 4 14-33 15-96c1-61 26-98 85-98zm52 81c6-60-76-77-97-28-3 7-6 17-6 28h103" id="al"/><path d="M96-169c-40 0-48 33-48 73s9 75 48 75c24 0 41-14 43-38l32 2c-6 37-31 61-74 61-59 0-76-41-82-99-10-93 101-131 147-64 4 7 5 14 7 22l-32 3c-4-21-16-35-41-35" id="am"/><path d="M84 4C-5 8 30-112 23-190h32v120c0 31 7 50 39 49 72-2 45-101 50-169h31l1 190h-30c-1-10 1-25-2-33-11 22-28 36-60 37" id="an"/><path d="M114-163C36-179 61-72 57 0H25l-1-190h30c1 12-1 29 2 39 6-27 23-49 58-41v29" id="ao"/><path d="M24-231v-30h32v30H24zM24 0v-190h32V0H24" id="ap"/><path d="M59-47c-2 24 18 29 38 22v24C64 9 27 4 27-40v-127H5v-23h24l9-43h21v43h35v23H59v120" id="aq"/><path d="M179-190L93 31C79 59 56 82 12 73V49c39 6 53-20 64-50L1-190h34L92-34l54-156h33" id="ar"/><path d="M212-179c-10-28-35-45-73-45-59 0-87 40-87 99 0 60 29 101 89 101 43 0 62-24 78-52l27 14C228-24 195 4 139 4 59 4 22-46 18-125c-6-104 99-153 187-111 19 9 31 26 39 46" id="as"/><path d="M100-194c62-1 85 37 85 99 1 63-27 99-86 99S16-35 15-95c0-66 28-99 85-99zM99-20c44 1 53-31 53-75 0-43-8-75-51-75s-53 32-53 75 10 74 51 75" id="at"/><path d="M117-194c89-4 53 116 60 194h-32v-121c0-31-8-49-39-48C34-167 62-67 57 0H25l-1-190h30c1 10-1 24 2 32 11-22 29-35 61-36" id="au"/><path d="M141 0L90-78 38 0H4l68-98-65-92h35l48 74 47-74h35l-64 92 68 98h-35" id="av"/><path d="M197 0v-115H63V0H30v-248h33v105h134v-105h34V0h-34" id="aw"/><path d="M24 0v-261h32V0H24" id="ax"/><path d="M85-194c31 0 48 13 60 33l-1-100h32l1 261h-30c-2-10 0-23-3-31C134-8 116 4 85 4 32 4 16-35 15-94c0-66 23-100 70-100zm9 24c-40 0-46 34-46 75 0 40 6 74 45 74 42 0 51-32 51-76 0-42-9-74-50-73" id="ay"/><g id="i"><use transform="matrix(0.05,0,0,0.05,0,0)" xlink:href="#aj"/><use transform="matrix(0.05,0,0,0.05,5,0)" xlink:href="#ak"/><use transform="matrix(0.05,0,0,0.05,17,0)" xlink:href="#al"/><use transform="matrix(0.05,0,0,0.05,27,0)" xlink:href="#am"/><use transform="matrix(0.05,0,0,0.05,36,0)" xlink:href="#an"/><use transform="matrix(0.05,0,0,0.05,46,0)" xlink:href="#ao"/><use transform="matrix(0.05,0,0,0.05,51.95,0)" xlink:href="#ap"/><use transform="matrix(0.05,0,0,0.05,55.900000000000006,0)" xlink:href="#aq"/><use transform="matrix(0.05,0,0,0.05,60.900000000000006,0)" xlink:href="#ar"/><use transform="matrix(0.05,0,0,0.05,69.9,0)" xlink:href="#as"/><use transform="matrix(0.05,0,0,0.05,82.85000000000001,0)" xlink:href="#at"/><use transform="matrix(0.05,0,0,0.05,92.85000000000001,0)" xlink:href="#au"/><use transform="matrix(0.05,0,0,0.05,102.85000000000001,0)" xlink:href="#aq"/><use transform="matrix(0.05,0,0,0.05,107.85000000000001,0)" xlink:href="#al"/><use transform="matrix(0.05,0,0,0.05,117.85000000000001,0)" xlink:href="#av"/><use transform="matrix(0.05,0,0,0.05,126.85000000000001,0)" xlink:href="#aq"/><use transform="matrix(0.05,0,0,0.05,131.85000000000002,0)" xlink:href="#aw"/><use transform="matrix(0.05,0,0,0.05,144.8,0)" xlink:href="#at"/><use transform="matrix(0.05,0,0,0.05,154.8,0)" xlink:href="#ax"/><use transform="matrix(0.05,0,0,0.05,158.75,0)" xlink:href="#ay"/><use transform="matrix(0.05,0,0,0.05,168.75,0)" xlink:href="#al"/><use transform="matrix(0.05,0,0,0.05,178.75,0)" xlink:href="#ao"/><path d="M-.9 1.25h186.5v1.32H-.9z"/></g><path d="M153-248C145-148 188 4 80 4 36 3 13-21 6-62l32-5c4 25 16 42 43 43 27 0 39-20 39-49v-147H72v-28h81" id="az"/><path d="M266 0h-40l-56-210L115 0H75L2-248h35L96-30l15-64 43-154h32l59 218 59-218h35" id="aA"/><path d="M127-220V0H93v-220H8v-28h204v28h-85" id="aB"/><path d="M63-220v92h138v28H63V0H30v-248h175v28H63" id="aC"/><g id="j"><use transform="matrix(0.05,0,0,0.05,0,0)" xlink:href="#az"/><use transform="matrix(0.05,0,0,0.05,9,0)" xlink:href="#aA"/><use transform="matrix(0.05,0,0,0.05,25.950000000000003,0)" xlink:href="#aB"/><use transform="matrix(0.05,0,0,0.05,36.9,0)" xlink:href="#aC"/><use transform="matrix(0.05,0,0,0.05,47.85,0)" xlink:href="#ap"/><use transform="matrix(0.05,0,0,0.05,51.800000000000004,0)" xlink:href="#ax"/><use transform="matrix(0.05,0,0,0.05,55.75,0)" xlink:href="#aq"/><use transform="matrix(0.05,0,0,0.05,60.75,0)" xlink:href="#al"/><use transform="matrix(0.05,0,0,0.05,70.75,0)" xlink:href="#ao"/><path d="M-.9 1.25h78.5v1.32H-.9z"/></g><path fill="#333" d="M63-220v92h138v28H63V0H30v-248h175v28H63" id="aD"/><path fill="#333" d="M33 0v-248h34V0H33" id="aE"/><path fill="#333" d="M87 75C49 33 22-17 22-94c0-76 28-126 65-167h31c-38 41-64 92-64 168S80 34 118 75H87" id="aF"/><path fill="#333" d="M33-154v-36h34v36H33zM33 0v-36h34V0H33" id="aG"/><path fill="#333" d="M197 0v-115H63V0H30v-248h33v105h134v-105h34V0h-34" id="aH"/><path fill="#333" d="M185-189c-5-48-123-54-124 2 14 75 158 14 163 119 3 78-121 87-175 55-17-10-28-26-33-46l33-7c5 56 141 63 141-1 0-78-155-14-162-118-5-82 145-84 179-34 5 7 8 16 11 25" id="aI"/><path fill="#333" d="M233-177c-1 41-23 64-60 70L243 0h-38l-65-103H63V0H30v-248c88 3 205-21 203 71zM63-129c60-2 137 13 137-47 0-61-80-42-137-45v92" id="aJ"/><path fill="#333" d="M145-31C134-9 116 4 85 4 32 4 16-35 15-94c0-59 17-99 70-100 32-1 48 14 60 33 0-11-1-24 2-32h30l-1 268h-32zM93-21c41 0 51-33 51-76s-8-73-50-73c-40 0-46 35-46 75s5 74 45 74" id="aK"/><path fill="#333" d="M68-38c1 34 0 65-14 84H32c9-13 17-26 17-46H33v-38h35" id="aL"/><g id="k"><use transform="matrix(0.06172839506172839,0,0,0.06172839506172839,0,0)" xlink:href="#X"/><use transform="matrix(0.06172839506172839,0,0,0.06172839506172839,12.345679012345679,0)" xlink:href="#Z"/><use transform="matrix(0.06172839506172839,0,0,0.06172839506172839,24.691358024691358,0)" xlink:href="#aD"/><use transform="matrix(0.06172839506172839,0,0,0.06172839506172839,38.20987654320987,0)" xlink:href="#W"/><use transform="matrix(0.06172839506172839,0,0,0.06172839506172839,43.08641975308642,0)" xlink:href="#R"/><use transform="matrix(0.06172839506172839,0,0,0.06172839506172839,47.96296296296296,0)" xlink:href="#S"/><use transform="matrix(0.06172839506172839,0,0,0.06172839506172839,54.135802469135804,0)" xlink:href="#ab"/><use transform="matrix(0.06172839506172839,0,0,0.06172839506172839,66.48148148148148,0)" xlink:href="#ah"/><use transform="matrix(0.06172839506172839,0,0,0.06172839506172839,73.82716049382717,0)" xlink:href="#aE"/><use transform="matrix(0.06172839506172839,0,0,0.06172839506172839,80,0)" xlink:href="#ac"/><use transform="matrix(0.06172839506172839,0,0,0.06172839506172839,92.34567901234568,0)" xlink:href="#S"/><use transform="matrix(0.06172839506172839,0,0,0.06172839506172839,98.51851851851852,0)" xlink:href="#ab"/><use transform="matrix(0.06172839506172839,0,0,0.06172839506172839,110.8641975308642,0)" xlink:href="#ah"/><use transform="matrix(0.06172839506172839,0,0,0.06172839506172839,118.20987654320989,0)" xlink:href="#ac"/><use transform="matrix(0.06172839506172839,0,0,0.06172839506172839,130.55555555555557,0)" xlink:href="#Q"/><use transform="matrix(0.06172839506172839,0,0,0.06172839506172839,142.90123456790124,0)" xlink:href="#R"/><use transform="matrix(0.06172839506172839,0,0,0.06172839506172839,147.77777777777777,0)" xlink:href="#aF"/><use transform="matrix(0.06172839506172839,0,0,0.06172839506172839,155.12345679012344,0)" xlink:href="#aG"/><use transform="matrix(0.06172839506172839,0,0,0.06172839506172839,161.29629629629628,0)" xlink:href="#aH"/><use transform="matrix(0.06172839506172839,0,0,0.06172839506172839,177.28395061728392,0)" xlink:href="#S"/><use transform="matrix(0.06172839506172839,0,0,0.06172839506172839,183.45679012345676,0)" xlink:href="#S"/><use transform="matrix(0.06172839506172839,0,0,0.06172839506172839,189.6296296296296,0)" xlink:href="#ae"/><use transform="matrix(0.06172839506172839,0,0,0.06172839506172839,201.97530864197526,0)" xlink:href="#aI"/><use transform="matrix(0.06172839506172839,0,0,0.06172839506172839,216.79012345679007,0)" xlink:href="#ab"/><use transform="matrix(0.06172839506172839,0,0,0.06172839506172839,229.13580246913574,0)" xlink:href="#ah"/><use transform="matrix(0.06172839506172839,0,0,0.06172839506172839,236.4814814814814,0)" xlink:href="#V"/><use transform="matrix(0.06172839506172839,0,0,0.06172839506172839,247.59259259259252,0)" xlink:href="#R"/><use transform="matrix(0.06172839506172839,0,0,0.06172839506172839,252.46913580246905,0)" xlink:href="#ab"/><use transform="matrix(0.06172839506172839,0,0,0.06172839506172839,264.8148148148147,0)" xlink:href="#S"/><use transform="matrix(0.06172839506172839,0,0,0.06172839506172839,270.9876543209876,0)" xlink:href="#aJ"/><use transform="matrix(0.06172839506172839,0,0,0.06172839506172839,286.97530864197523,0)" xlink:href="#ab"/><use transform="matrix(0.06172839506172839,0,0,0.06172839506172839,299.3209876543209,0)" xlink:href="#aK"/><use transform="matrix(0.06172839506172839,0,0,0.06172839506172839,311.6666666666666,0)" xlink:href="#af"/><use transform="matrix(0.06172839506172839,0,0,0.06172839506172839,324.01234567901224,0)" xlink:href="#ab"/><use transform="matrix(0.06172839506172839,0,0,0.06172839506172839,336.3580246913579,0)" xlink:href="#ag"/><use transform="matrix(0.06172839506172839,0,0,0.06172839506172839,347.469135802469,0)" xlink:href="#S"/><use transform="matrix(0.06172839506172839,0,0,0.06172839506172839,353.64197530864186,0)" xlink:href="#aL"/></g><path fill="#333" d="M33-261c38 41 65 92 65 168S71 34 33 75H2C39 34 66-17 66-93S39-220 2-261h31" id="aM"/><g id="l"><use transform="matrix(0.06172839506172839,0,0,0.06172839506172839,0,0)" xlink:href="#aG"/><use transform="matrix(0.06172839506172839,0,0,0.06172839506172839,6.172839506172839,0)" xlink:href="#aH"/><use transform="matrix(0.06172839506172839,0,0,0.06172839506172839,22.160493827160494,0)" xlink:href="#S"/><use transform="matrix(0.06172839506172839,0,0,0.06172839506172839,28.333333333333332,0)" xlink:href="#S"/><use transform="matrix(0.06172839506172839,0,0,0.06172839506172839,34.50617283950617,0)" xlink:href="#ae"/><use transform="matrix(0.06172839506172839,0,0,0.06172839506172839,46.85185185185185,0)" xlink:href="#aI"/><use transform="matrix(0.06172839506172839,0,0,0.06172839506172839,61.66666666666666,0)" xlink:href="#ab"/><use transform="matrix(0.06172839506172839,0,0,0.06172839506172839,74.01234567901234,0)" xlink:href="#ah"/><use transform="matrix(0.06172839506172839,0,0,0.06172839506172839,81.35802469135803,0)" xlink:href="#V"/><use transform="matrix(0.06172839506172839,0,0,0.06172839506172839,92.46913580246914,0)" xlink:href="#R"/><use transform="matrix(0.06172839506172839,0,0,0.06172839506172839,97.34567901234568,0)" xlink:href="#ab"/><use transform="matrix(0.06172839506172839,0,0,0.06172839506172839,109.69135802469137,0)" xlink:href="#S"/><use transform="matrix(0.06172839506172839,0,0,0.06172839506172839,115.8641975308642,0)" xlink:href="#aJ"/><use transform="matrix(0.06172839506172839,0,0,0.06172839506172839,131.85185185185185,0)" xlink:href="#ab"/><use transform="matrix(0.06172839506172839,0,0,0.06172839506172839,144.19753086419752,0)" xlink:href="#ag"/><use transform="matrix(0.06172839506172839,0,0,0.06172839506172839,155.30864197530863,0)" xlink:href="#ae"/><use transform="matrix(0.06172839506172839,0,0,0.06172839506172839,167.6543209876543,0)" xlink:href="#Z"/><use transform="matrix(0.06172839506172839,0,0,0.06172839506172839,179.99999999999997,0)" xlink:href="#ac"/><use transform="matrix(0.06172839506172839,0,0,0.06172839506172839,192.34567901234564,0)" xlink:href="#ag"/><use transform="matrix(0.06172839506172839,0,0,0.06172839506172839,203.45679012345676,0)" xlink:href="#ab"/><use transform="matrix(0.06172839506172839,0,0,0.06172839506172839,215.80246913580243,0)" xlink:href="#aM"/><use transform="matrix(0.06172839506172839,0,0,0.06172839506172839,223.1481481481481,0)" xlink:href="#aM"/></g><path d="M106-169C34-169 62-67 57 0H25v-261h32l-1 103c12-21 28-36 61-36 89 0 53 116 60 194h-32v-121c2-32-8-49-39-48" id="aN"/><path d="M141-36C126-15 110 5 73 4 37 3 15-17 15-53c-1-64 63-63 125-63 3-35-9-54-41-54-24 1-41 7-42 31l-33-3c5-37 33-52 76-52 45 0 72 20 72 64v82c-1 20 7 32 28 27v20c-31 9-61-2-59-35zM48-53c0 20 12 33 32 33 41-3 63-29 60-74-43 2-92-5-92 41" id="aO"/><g id="m"><use transform="matrix(0.05,0,0,0.05,0,0)" xlink:href="#aj"/><use transform="matrix(0.05,0,0,0.05,5,0)" xlink:href="#aC"/><use transform="matrix(0.05,0,0,0.05,15.950000000000001,0)" xlink:href="#ap"/><use transform="matrix(0.05,0,0,0.05,19.900000000000002,0)" xlink:href="#ax"/><use transform="matrix(0.05,0,0,0.05,23.85,0)" xlink:href="#aq"/><use transform="matrix(0.05,0,0,0.05,28.85,0)" xlink:href="#al"/><use transform="matrix(0.05,0,0,0.05,38.85,0)" xlink:href="#ao"/><use transform="matrix(0.05,0,0,0.05,44.800000000000004,0)" xlink:href="#as"/><use transform="matrix(0.05,0,0,0.05,57.75,0)" xlink:href="#aN"/><use transform="matrix(0.05,0,0,0.05,67.75,0)" xlink:href="#aO"/><use transform="matrix(0.05,0,0,0.05,77.75,0)" xlink:href="#ap"/><use transform="matrix(0.05,0,0,0.05,81.7,0)" xlink:href="#au"/><path d="M-.9 1.25h93.5v1.32H-.9z"/></g><g id="n"><use transform="matrix(0.06172839506172839,0,0,0.06172839506172839,0,0)" xlink:href="#aH"/><use transform="matrix(0.06172839506172839,0,0,0.06172839506172839,15.987654320987653,0)" xlink:href="#S"/><use transform="matrix(0.06172839506172839,0,0,0.06172839506172839,22.160493827160494,0)" xlink:href="#S"/><use transform="matrix(0.06172839506172839,0,0,0.06172839506172839,28.333333333333332,0)" xlink:href="#ae"/><use transform="matrix(0.06172839506172839,0,0,0.06172839506172839,40.67901234567901,0)" xlink:href="#aJ"/><use transform="matrix(0.06172839506172839,0,0,0.06172839506172839,56.666666666666664,0)" xlink:href="#ab"/><use transform="matrix(0.06172839506172839,0,0,0.06172839506172839,69.01234567901234,0)" xlink:href="#aK"/><use transform="matrix(0.06172839506172839,0,0,0.06172839506172839,81.35802469135803,0)" xlink:href="#af"/><use transform="matrix(0.06172839506172839,0,0,0.06172839506172839,93.70370370370371,0)" xlink:href="#ab"/><use transform="matrix(0.06172839506172839,0,0,0.06172839506172839,106.0493827160494,0)" xlink:href="#ag"/><use transform="matrix(0.06172839506172839,0,0,0.06172839506172839,117.16049382716051,0)" xlink:href="#S"/></g><g id="o"><use transform="matrix(0.06172839506172839,0,0,0.06172839506172839,0,0)" xlink:href="#aG"/><use transform="matrix(0.06172839506172839,0,0,0.06172839506172839,6.172839506172839,0)" xlink:href="#aH"/><use transform="matrix(0.06172839506172839,0,0,0.06172839506172839,22.160493827160494,0)" xlink:href="#S"/><use transform="matrix(0.06172839506172839,0,0,0.06172839506172839,28.333333333333332,0)" xlink:href="#S"/><use transform="matrix(0.06172839506172839,0,0,0.06172839506172839,34.50617283950617,0)" xlink:href="#ae"/><use transform="matrix(0.06172839506172839,0,0,0.06172839506172839,46.85185185185185,0)" xlink:href="#aI"/><use transform="matrix(0.06172839506172839,0,0,0.06172839506172839,61.66666666666666,0)" xlink:href="#ab"/><use transform="matrix(0.06172839506172839,0,0,0.06172839506172839,74.01234567901234,0)" xlink:href="#ah"/><use transform="matrix(0.06172839506172839,0,0,0.06172839506172839,81.35802469135803,0)" xlink:href="#V"/><use transform="matrix(0.06172839506172839,0,0,0.06172839506172839,92.46913580246914,0)" xlink:href="#R"/><use transform="matrix(0.06172839506172839,0,0,0.06172839506172839,97.34567901234568,0)" xlink:href="#ab"/><use transform="matrix(0.06172839506172839,0,0,0.06172839506172839,109.69135802469137,0)" xlink:href="#S"/><use transform="matrix(0.06172839506172839,0,0,0.06172839506172839,115.8641975308642,0)" xlink:href="#aJ"/><use transform="matrix(0.06172839506172839,0,0,0.06172839506172839,131.85185185185185,0)" xlink:href="#ab"/><use transform="matrix(0.06172839506172839,0,0,0.06172839506172839,144.19753086419752,0)" xlink:href="#ag"/><use transform="matrix(0.06172839506172839,0,0,0.06172839506172839,155.30864197530863,0)" xlink:href="#ae"/><use transform="matrix(0.06172839506172839,0,0,0.06172839506172839,167.6543209876543,0)" xlink:href="#Z"/><use transform="matrix(0.06172839506172839,0,0,0.06172839506172839,179.99999999999997,0)" xlink:href="#ac"/><use transform="matrix(0.06172839506172839,0,0,0.06172839506172839,192.34567901234564,0)" xlink:href="#ag"/><use transform="matrix(0.06172839506172839,0,0,0.06172839506172839,203.45679012345676,0)" xlink:href="#ab"/><use transform="matrix(0.06172839506172839,0,0,0.06172839506172839,215.80246913580243,0)" xlink:href="#aM"/></g><path d="M232-93c-1 65-40 97-104 97C67 4 28-28 28-90v-158h33c8 89-33 224 67 224 102 0 64-133 71-224h33v155" id="aP"/><path d="M135-143c-3-34-86-38-87 0 15 53 115 12 119 90S17 21 10-45l28-5c4 36 97 45 98 0-10-56-113-15-118-90-4-57 82-63 122-42 12 7 21 19 24 35" id="aQ"/><path d="M108 0H70L1-190h34L89-25l56-165h34" id="aR"/><g id="p"><use transform="matrix(0.05,0,0,0.05,0,0)" xlink:href="#aj"/><use transform="matrix(0.05,0,0,0.05,5,0)" xlink:href="#aP"/><use transform="matrix(0.05,0,0,0.05,17.950000000000003,0)" xlink:href="#aQ"/><use transform="matrix(0.05,0,0,0.05,26.950000000000003,0)" xlink:href="#al"/><use transform="matrix(0.05,0,0,0.05,36.95,0)" xlink:href="#ao"/><use transform="matrix(0.05,0,0,0.05,42.900000000000006,0)" xlink:href="#ak"/><use transform="matrix(0.05,0,0,0.05,54.900000000000006,0)" xlink:href="#al"/><use transform="matrix(0.05,0,0,0.05,64.9,0)" xlink:href="#ao"/><use transform="matrix(0.05,0,0,0.05,70.85000000000001,0)" xlink:href="#aR"/><use transform="matrix(0.05,0,0,0.05,79.85000000000001,0)" xlink:href="#ap"/><use transform="matrix(0.05,0,0,0.05,83.80000000000001,0)" xlink:href="#am"/><use transform="matrix(0.05,0,0,0.05,92.80000000000001,0)" xlink:href="#al"/><path d="M-.9 1.25h104.6v1.32H-.9z"/></g><path fill="#333" d="M177-190C167-65 218 103 67 71c-23-6-38-20-44-43l32-5c15 47 100 32 89-28v-30C133-14 115 1 83 1 29 1 15-40 15-95c0-56 16-97 71-98 29-1 48 16 59 35 1-10 0-23 2-32h30zM94-22c36 0 50-32 50-73 0-42-14-75-50-75-39 0-46 34-46 75s6 73 46 73" id="aS"/><g id="q"><use transform="matrix(0.06172839506172839,0,0,0.06172839506172839,0,0)" xlink:href="#aS"/><use transform="matrix(0.06172839506172839,0,0,0.06172839506172839,12.345679012345679,0)" xlink:href="#ab"/><use transform="matrix(0.06172839506172839,0,0,0.06172839506172839,24.691358024691358,0)" xlink:href="#S"/><use transform="matrix(0.06172839506172839,0,0,0.06172839506172839,30.864197530864196,0)" xlink:href="#Y"/><use transform="matrix(0.06172839506172839,0,0,0.06172839506172839,41.913580246913575,0)" xlink:href="#Z"/><use transform="matrix(0.06172839506172839,0,0,0.06172839506172839,54.25925925925925,0)" xlink:href="#aa"/><use transform="matrix(0.06172839506172839,0,0,0.06172839506172839,65.37037037037037,0)" xlink:href="#ab"/><use transform="matrix(0.06172839506172839,0,0,0.06172839506172839,77.71604938271605,0)" xlink:href="#ac"/><use transform="matrix(0.06172839506172839,0,0,0.06172839506172839,90.06172839506173,0)" xlink:href="#aF"/><use transform="matrix(0.06172839506172839,0,0,0.06172839506172839,97.40740740740742,0)" xlink:href="#aG"/><use transform="matrix(0.06172839506172839,0,0,0.06172839506172839,103.58024691358025,0)" xlink:href="#aH"/><use transform="matrix(0.06172839506172839,0,0,0.06172839506172839,119.56790123456791,0)" xlink:href="#S"/><use transform="matrix(0.06172839506172839,0,0,0.06172839506172839,125.74074074074075,0)" xlink:href="#S"/><use transform="matrix(0.06172839506172839,0,0,0.06172839506172839,131.9135802469136,0)" xlink:href="#ae"/><use transform="matrix(0.06172839506172839,0,0,0.06172839506172839,144.25925925925927,0)" xlink:href="#aI"/><use transform="matrix(0.06172839506172839,0,0,0.06172839506172839,159.07407407407408,0)" xlink:href="#ab"/><use transform="matrix(0.06172839506172839,0,0,0.06172839506172839,171.41975308641975,0)" xlink:href="#ah"/><use transform="matrix(0.06172839506172839,0,0,0.06172839506172839,178.76543209876542,0)" xlink:href="#V"/><use transform="matrix(0.06172839506172839,0,0,0.06172839506172839,189.87654320987653,0)" xlink:href="#R"/><use transform="matrix(0.06172839506172839,0,0,0.06172839506172839,194.75308641975306,0)" xlink:href="#ab"/><use transform="matrix(0.06172839506172839,0,0,0.06172839506172839,207.09876543209873,0)" xlink:href="#S"/><use transform="matrix(0.06172839506172839,0,0,0.06172839506172839,213.27160493827157,0)" xlink:href="#aJ"/><use transform="matrix(0.06172839506172839,0,0,0.06172839506172839,229.2592592592592,0)" xlink:href="#ab"/><use transform="matrix(0.06172839506172839,0,0,0.06172839506172839,241.60493827160488,0)" xlink:href="#aK"/><use transform="matrix(0.06172839506172839,0,0,0.06172839506172839,253.95061728395055,0)" xlink:href="#af"/><use transform="matrix(0.06172839506172839,0,0,0.06172839506172839,266.29629629629625,0)" xlink:href="#ab"/><use transform="matrix(0.06172839506172839,0,0,0.06172839506172839,278.6419753086419,0)" xlink:href="#ag"/><use transform="matrix(0.06172839506172839,0,0,0.06172839506172839,289.753086419753,0)" xlink:href="#S"/><use transform="matrix(0.06172839506172839,0,0,0.06172839506172839,295.92592592592587,0)" xlink:href="#aM"/></g><path fill="#333" d="M232-93c-1 65-40 97-104 97C67 4 28-28 28-90v-158h33c8 89-33 224 67 224 102 0 64-133 71-224h33v155" id="aT"/><path fill="#333" d="M160-131c35 5 61 23 61 61C221 17 115-2 30 0v-248c76 3 177-17 177 60 0 33-19 50-47 57zm-97-11c50-1 110 9 110-42 0-47-63-36-110-37v79zm0 115c55-2 124 14 124-45 0-56-70-42-124-44v89" id="aU"/><path fill="#333" d="M179-190L93 31C79 59 56 82 12 73V49c39 6 53-20 64-50L1-190h34L92-34l54-156h33" id="aV"/><g id="r"><use transform="matrix(0.06172839506172839,0,0,0.06172839506172839,0,0)" xlink:href="#R"/><use transform="matrix(0.06172839506172839,0,0,0.06172839506172839,4.876543209876543,0)" xlink:href="#Z"/><use transform="matrix(0.06172839506172839,0,0,0.06172839506172839,17.22222222222222,0)" xlink:href="#Q"/><use transform="matrix(0.06172839506172839,0,0,0.06172839506172839,29.5679012345679,0)" xlink:href="#X"/><use transform="matrix(0.06172839506172839,0,0,0.06172839506172839,41.913580246913575,0)" xlink:href="#aT"/><use transform="matrix(0.06172839506172839,0,0,0.06172839506172839,57.90123456790123,0)" xlink:href="#ag"/><use transform="matrix(0.06172839506172839,0,0,0.06172839506172839,69.01234567901234,0)" xlink:href="#ab"/><use transform="matrix(0.06172839506172839,0,0,0.06172839506172839,81.35802469135803,0)" xlink:href="#ah"/><use transform="matrix(0.06172839506172839,0,0,0.06172839506172839,88.70370370370371,0)" xlink:href="#aU"/><use transform="matrix(0.06172839506172839,0,0,0.06172839506172839,103.51851851851852,0)" xlink:href="#aV"/><use transform="matrix(0.06172839506172839,0,0,0.06172839506172839,114.62962962962963,0)" xlink:href="#Y"/><use transform="matrix(0.06172839506172839,0,0,0.06172839506172839,125.67901234567901,0)" xlink:href="#Z"/><use transform="matrix(0.06172839506172839,0,0,0.06172839506172839,138.02469135802468,0)" xlink:href="#aa"/><use transform="matrix(0.06172839506172839,0,0,0.06172839506172839,149.1358024691358,0)" xlink:href="#ab"/><use transform="matrix(0.06172839506172839,0,0,0.06172839506172839,161.48148148148147,0)" xlink:href="#ac"/><use transform="matrix(0.06172839506172839,0,0,0.06172839506172839,173.82716049382714,0)" xlink:href="#aF"/><use transform="matrix(0.06172839506172839,0,0,0.06172839506172839,181.1728395061728,0)" xlink:href="#S"/><use transform="matrix(0.06172839506172839,0,0,0.06172839506172839,187.34567901234564,0)" xlink:href="#Z"/><use transform="matrix(0.06172839506172839,0,0,0.06172839506172839,199.6913580246913,0)" xlink:href="#aa"/><use transform="matrix(0.06172839506172839,0,0,0.06172839506172839,210.80246913580243,0)" xlink:href="#ab"/><use transform="matrix(0.06172839506172839,0,0,0.06172839506172839,223.1481481481481,0)" xlink:href="#ac"/><use transform="matrix(0.06172839506172839,0,0,0.06172839506172839,235.49382716049377,0)" xlink:href="#aM"/></g><g id="s"><use transform="matrix(0.06172839506172839,0,0,0.06172839506172839,0,0)" xlink:href="#S"/><use transform="matrix(0.06172839506172839,0,0,0.06172839506172839,6.172839506172839,0)" xlink:href="#Z"/><use transform="matrix(0.06172839506172839,0,0,0.06172839506172839,18.51851851851852,0)" xlink:href="#aa"/><use transform="matrix(0.06172839506172839,0,0,0.06172839506172839,29.62962962962963,0)" xlink:href="#ab"/><use transform="matrix(0.06172839506172839,0,0,0.06172839506172839,41.97530864197531,0)" xlink:href="#ac"/></g><g id="u"><use transform="matrix(0.06172839506172839,0,0,0.06172839506172839,0,0)" xlink:href="#af"/><use transform="matrix(0.06172839506172839,0,0,0.06172839506172839,12.345679012345679,0)" xlink:href="#ag"/><use transform="matrix(0.06172839506172839,0,0,0.06172839506172839,23.45679012345679,0)" xlink:href="#ab"/><use transform="matrix(0.06172839506172839,0,0,0.06172839506172839,35.80246913580247,0)" xlink:href="#ah"/></g><path fill="#333" d="M96-169c-40 0-48 33-48 73s9 75 48 75c24 0 41-14 43-38l32 2c-6 37-31 61-74 61-59 0-76-41-82-99-10-93 101-131 147-64 4 7 5 14 7 22l-32 3c-4-21-16-35-41-35" id="aW"/><path fill="#333" d="M141 0L90-78 38 0H4l68-98-65-92h35l48 74 47-74h35l-64 92 68 98h-35" id="aX"/><g id="v"><use transform="matrix(0.055555555555555546,0,0,0.055555555555555546,0,0)" xlink:href="#aW"/><use transform="matrix(0.055555555555555546,0,0,0.055555555555555546,9.999999999999998,0)" xlink:href="#Z"/><use transform="matrix(0.055555555555555546,0,0,0.055555555555555546,21.111111111111107,0)" xlink:href="#ac"/><use transform="matrix(0.055555555555555546,0,0,0.055555555555555546,32.222222222222214,0)" xlink:href="#S"/><use transform="matrix(0.055555555555555546,0,0,0.055555555555555546,37.77777777777777,0)" xlink:href="#ab"/><use transform="matrix(0.055555555555555546,0,0,0.055555555555555546,48.88888888888888,0)" xlink:href="#aX"/><use transform="matrix(0.055555555555555546,0,0,0.055555555555555546,58.88888888888888,0)" xlink:href="#S"/><path fill="#333" d="M-1 1.4h72v1.45H-1z"/></g><g id="w"><use transform="matrix(0.055555555555555546,0,0,0.055555555555555546,0,0)" xlink:href="#aG"/><path fill="#333" d="M-1 1.4h13.1v1.45H-1z"/></g><path fill="#333" d="M212-179c-10-28-35-45-73-45-59 0-87 40-87 99 0 60 29 101 89 101 43 0 62-24 78-52l27 14C228-24 195 4 139 4 59 4 22-46 18-125c-6-104 99-153 187-111 19 9 31 26 39 46" id="aY"/><g id="x"><use transform="matrix(0.055555555555555546,0,0,0.055555555555555546,0,0)" xlink:href="#aI"/><use transform="matrix(0.055555555555555546,0,0,0.055555555555555546,13.33333333333333,0)" xlink:href="#ab"/><use transform="matrix(0.055555555555555546,0,0,0.055555555555555546,24.44444444444444,0)" xlink:href="#aW"/><use transform="matrix(0.055555555555555546,0,0,0.055555555555555546,34.444444444444436,0)" xlink:href="#af"/><use transform="matrix(0.055555555555555546,0,0,0.055555555555555546,45.55555555555554,0)" xlink:href="#ah"/><use transform="matrix(0.055555555555555546,0,0,0.055555555555555546,52.16666666666665,0)" xlink:href="#W"/><use transform="matrix(0.055555555555555546,0,0,0.055555555555555546,56.555555555555536,0)" xlink:href="#S"/><use transform="matrix(0.055555555555555546,0,0,0.055555555555555546,62.111111111111086,0)" xlink:href="#aV"/><use transform="matrix(0.055555555555555546,0,0,0.055555555555555546,72.11111111111109,0)" xlink:href="#aY"/><use transform="matrix(0.055555555555555546,0,0,0.055555555555555546,86.49999999999997,0)" xlink:href="#Z"/><use transform="matrix(0.055555555555555546,0,0,0.055555555555555546,97.61111111111109,0)" xlink:href="#ac"/><use transform="matrix(0.055555555555555546,0,0,0.055555555555555546,108.7222222222222,0)" xlink:href="#S"/><use transform="matrix(0.055555555555555546,0,0,0.055555555555555546,114.27777777777776,0)" xlink:href="#ab"/><use transform="matrix(0.055555555555555546,0,0,0.055555555555555546,125.38888888888887,0)" xlink:href="#aX"/><use transform="matrix(0.055555555555555546,0,0,0.055555555555555546,135.38888888888886,0)" xlink:href="#S"/><path fill="#333" d="M-1 1.4h142.94v1.45H-1z"/></g><path fill="#333" d="M18-100v-36l175-74v27L42-118l151 64v27" id="aZ"/><path fill="#333" d="M18-27v-27l151-64-151-65v-27l175 74v36" id="ba"/><g id="y"><use transform="matrix(0.06172839506172839,0,0,0.06172839506172839,0,0)" xlink:href="#aZ"/><use transform="matrix(0.06172839506172839,0,0,0.06172839506172839,12.962962962962962,0)" xlink:href="#aZ"/><use transform="matrix(0.06172839506172839,0,0,0.06172839506172839,25.925925925925924,0)" xlink:href="#aW"/><use transform="matrix(0.06172839506172839,0,0,0.06172839506172839,37.03703703703704,0)" xlink:href="#ah"/><use transform="matrix(0.06172839506172839,0,0,0.06172839506172839,44.382716049382715,0)" xlink:href="#ab"/><use transform="matrix(0.06172839506172839,0,0,0.06172839506172839,56.72839506172839,0)" xlink:href="#Q"/><use transform="matrix(0.06172839506172839,0,0,0.06172839506172839,69.07407407407408,0)" xlink:href="#S"/><use transform="matrix(0.06172839506172839,0,0,0.06172839506172839,75.24691358024691,0)" xlink:href="#ab"/><use transform="matrix(0.06172839506172839,0,0,0.06172839506172839,87.5925925925926,0)" xlink:href="#ba"/><use transform="matrix(0.06172839506172839,0,0,0.06172839506172839,100.55555555555556,0)" xlink:href="#ba"/></g><path d="M30-248c87 1 191-15 191 75 0 78-77 80-158 76V0H30v-248zm33 125c57 0 124 11 124-50 0-59-68-47-124-48v98" id="bb"/><path d="M205 0l-28-72H64L36 0H1l101-248h38L239 0h-34zm-38-99l-47-123c-12 45-31 82-46 123h93" id="bc"/><path d="M143 0L79-87 56-68V0H24v-261h32v163l83-92h37l-77 82L181 0h-38" id="bd"/><g id="z"><use transform="matrix(0.05,0,0,0.05,0,0)" xlink:href="#az"/><use transform="matrix(0.05,0,0,0.05,9,0)" xlink:href="#aA"/><use transform="matrix(0.05,0,0,0.05,25.950000000000003,0)" xlink:href="#aB"/><use transform="matrix(0.05,0,0,0.05,36.9,0)" xlink:href="#bb"/><use transform="matrix(0.05,0,0,0.05,48.9,0)" xlink:href="#ao"/><use transform="matrix(0.05,0,0,0.05,54.85,0)" xlink:href="#al"/><use transform="matrix(0.05,0,0,0.05,64.85,0)" xlink:href="#bc"/><use transform="matrix(0.05,0,0,0.05,76.85,0)" xlink:href="#an"/><use transform="matrix(0.05,0,0,0.05,86.85,0)" xlink:href="#aq"/><use transform="matrix(0.05,0,0,0.05,91.85,0)" xlink:href="#aN"/><use transform="matrix(0.05,0,0,0.05,101.85,0)" xlink:href="#al"/><use transform="matrix(0.05,0,0,0.05,111.84999999999998,0)" xlink:href="#au"/><use transform="matrix(0.05,0,0,0.05,121.84999999999998,0)" xlink:href="#aq"/><use transform="matrix(0.05,0,0,0.05,126.84999999999998,0)" xlink:href="#ap"/><use transform="matrix(0.05,0,0,0.05,130.79999999999998,0)" xlink:href="#am"/><use transform="matrix(0.05,0,0,0.05,139.79999999999998,0)" xlink:href="#aO"/><use transform="matrix(0.05,0,0,0.05,149.79999999999998,0)" xlink:href="#aq"/><use transform="matrix(0.05,0,0,0.05,154.79999999999998,0)" xlink:href="#ap"/><use transform="matrix(0.05,0,0,0.05,158.74999999999997,0)" xlink:href="#at"/><use transform="matrix(0.05,0,0,0.05,168.74999999999997,0)" xlink:href="#au"/><use transform="matrix(0.05,0,0,0.05,178.74999999999997,0)" xlink:href="#aB"/><use transform="matrix(0.05,0,0,0.05,187.69999999999996,0)" xlink:href="#at"/><use transform="matrix(0.05,0,0,0.05,197.69999999999996,0)" xlink:href="#bd"/><use transform="matrix(0.05,0,0,0.05,206.69999999999996,0)" xlink:href="#al"/><use transform="matrix(0.05,0,0,0.05,216.69999999999996,0)" xlink:href="#au"/><path d="M-.9 1.25h228.5v1.32H-.9z"/></g><path fill="#333" d="M106-169C34-169 62-67 57 0H25v-261h32l-1 103c12-21 28-36 61-36 89 0 53 116 60 194h-32v-121c2-32-8-49-39-48" id="be"/><g id="A"><use transform="matrix(0.06172839506172839,0,0,0.06172839506172839,0,0)" xlink:href="#Q"/><use transform="matrix(0.06172839506172839,0,0,0.06172839506172839,12.345679012345679,0)" xlink:href="#af"/><use transform="matrix(0.06172839506172839,0,0,0.06172839506172839,24.691358024691358,0)" xlink:href="#S"/><use transform="matrix(0.06172839506172839,0,0,0.06172839506172839,30.864197530864196,0)" xlink:href="#be"/><use transform="matrix(0.06172839506172839,0,0,0.06172839506172839,43.20987654320987,0)" xlink:href="#ab"/><use transform="matrix(0.06172839506172839,0,0,0.06172839506172839,55.55555555555555,0)" xlink:href="#ac"/><use transform="matrix(0.06172839506172839,0,0,0.06172839506172839,67.90123456790123,0)" xlink:href="#S"/><use transform="matrix(0.06172839506172839,0,0,0.06172839506172839,74.07407407407406,0)" xlink:href="#W"/><use transform="matrix(0.06172839506172839,0,0,0.06172839506172839,78.9506172839506,0)" xlink:href="#aW"/><use transform="matrix(0.06172839506172839,0,0,0.06172839506172839,90.06172839506172,0)" xlink:href="#Q"/><use transform="matrix(0.06172839506172839,0,0,0.06172839506172839,102.4074074074074,0)" xlink:href="#S"/><use transform="matrix(0.06172839506172839,0,0,0.06172839506172839,108.58024691358024,0)" xlink:href="#W"/><use transform="matrix(0.06172839506172839,0,0,0.06172839506172839,113.45679012345678,0)" xlink:href="#Z"/><use transform="matrix(0.06172839506172839,0,0,0.06172839506172839,125.80246913580247,0)" xlink:href="#ac"/><use transform="matrix(0.06172839506172839,0,0,0.06172839506172839,138.14814814814815,0)" xlink:href="#Y"/><use transform="matrix(0.06172839506172839,0,0,0.06172839506172839,149.19753086419752,0)" xlink:href="#Z"/><use transform="matrix(0.06172839506172839,0,0,0.06172839506172839,161.5432098765432,0)" xlink:href="#aa"/><use transform="matrix(0.06172839506172839,0,0,0.06172839506172839,172.6543209876543,0)" xlink:href="#ab"/><use transform="matrix(0.06172839506172839,0,0,0.06172839506172839,184.99999999999997,0)" xlink:href="#ac"/></g><g id="B"><use transform="matrix(0.06172839506172839,0,0,0.06172839506172839,0,0)" xlink:href="#aS"/><use transform="matrix(0.06172839506172839,0,0,0.06172839506172839,12.345679012345679,0)" xlink:href="#ab"/><use transform="matrix(0.06172839506172839,0,0,0.06172839506172839,24.691358024691358,0)" xlink:href="#S"/><use transform="matrix(0.06172839506172839,0,0,0.06172839506172839,30.864197530864196,0)" xlink:href="#aY"/><use transform="matrix(0.06172839506172839,0,0,0.06172839506172839,46.85185185185185,0)" xlink:href="#Z"/><use transform="matrix(0.06172839506172839,0,0,0.06172839506172839,59.197530864197525,0)" xlink:href="#ac"/><use transform="matrix(0.06172839506172839,0,0,0.06172839506172839,71.5432098765432,0)" xlink:href="#S"/><use transform="matrix(0.06172839506172839,0,0,0.06172839506172839,77.71604938271604,0)" xlink:href="#ab"/><use transform="matrix(0.06172839506172839,0,0,0.06172839506172839,90.06172839506172,0)" xlink:href="#aX"/><use transform="matrix(0.06172839506172839,0,0,0.06172839506172839,101.17283950617283,0)" xlink:href="#S"/><use transform="matrix(0.06172839506172839,0,0,0.06172839506172839,107.34567901234567,0)" xlink:href="#aF"/><use transform="matrix(0.06172839506172839,0,0,0.06172839506172839,114.69135802469135,0)" xlink:href="#aM"/></g><g id="C"><use transform="matrix(0.06172839506172839,0,0,0.06172839506172839,0,0)" xlink:href="#aW"/><use transform="matrix(0.06172839506172839,0,0,0.06172839506172839,11.11111111111111,0)" xlink:href="#Z"/><use transform="matrix(0.06172839506172839,0,0,0.06172839506172839,23.45679012345679,0)" xlink:href="#ac"/><use transform="matrix(0.06172839506172839,0,0,0.06172839506172839,35.80246913580247,0)" xlink:href="#S"/><use transform="matrix(0.06172839506172839,0,0,0.06172839506172839,41.97530864197531,0)" xlink:href="#ab"/><use transform="matrix(0.06172839506172839,0,0,0.06172839506172839,54.32098765432099,0)" xlink:href="#aX"/><use transform="matrix(0.06172839506172839,0,0,0.06172839506172839,65.4320987654321,0)" xlink:href="#S"/></g><path fill="#333" d="M205 0l-28-72H64L36 0H1l101-248h38L239 0h-34zm-38-99l-47-123c-12 45-31 82-46 123h93" id="bf"/><g id="D"><use transform="matrix(0.06172839506172839,0,0,0.06172839506172839,0,0)" xlink:href="#ag"/><use transform="matrix(0.06172839506172839,0,0,0.06172839506172839,11.11111111111111,0)" xlink:href="#ab"/><use transform="matrix(0.06172839506172839,0,0,0.06172839506172839,23.45679012345679,0)" xlink:href="#S"/><use transform="matrix(0.06172839506172839,0,0,0.06172839506172839,29.62962962962963,0)" xlink:href="#bf"/><use transform="matrix(0.06172839506172839,0,0,0.06172839506172839,44.44444444444444,0)" xlink:href="#af"/><use transform="matrix(0.06172839506172839,0,0,0.06172839506172839,56.79012345679012,0)" xlink:href="#S"/><use transform="matrix(0.06172839506172839,0,0,0.06172839506172839,62.96296296296296,0)" xlink:href="#be"/><use transform="matrix(0.06172839506172839,0,0,0.06172839506172839,75.30864197530865,0)" xlink:href="#ab"/><use transform="matrix(0.06172839506172839,0,0,0.06172839506172839,87.65432098765433,0)" xlink:href="#ac"/><use transform="matrix(0.06172839506172839,0,0,0.06172839506172839,100.00000000000001,0)" xlink:href="#S"/><use transform="matrix(0.06172839506172839,0,0,0.06172839506172839,106.17283950617285,0)" xlink:href="#W"/><use transform="matrix(0.06172839506172839,0,0,0.06172839506172839,111.0493827160494,0)" xlink:href="#aW"/><use transform="matrix(0.06172839506172839,0,0,0.06172839506172839,122.16049382716051,0)" xlink:href="#Q"/><use transform="matrix(0.06172839506172839,0,0,0.06172839506172839,134.50617283950618,0)" xlink:href="#S"/><use transform="matrix(0.06172839506172839,0,0,0.06172839506172839,140.679012345679,0)" xlink:href="#W"/><use transform="matrix(0.06172839506172839,0,0,0.06172839506172839,145.55555555555554,0)" xlink:href="#Z"/><use transform="matrix(0.06172839506172839,0,0,0.06172839506172839,157.9012345679012,0)" xlink:href="#ac"/><use transform="matrix(0.06172839506172839,0,0,0.06172839506172839,170.24691358024688,0)" xlink:href="#aF"/><use transform="matrix(0.06172839506172839,0,0,0.06172839506172839,177.59259259259255,0)" xlink:href="#Q"/><use transform="matrix(0.06172839506172839,0,0,0.06172839506172839,189.93827160493822,0)" xlink:href="#af"/><use transform="matrix(0.06172839506172839,0,0,0.06172839506172839,202.2839506172839,0)" xlink:href="#S"/><use transform="matrix(0.06172839506172839,0,0,0.06172839506172839,208.45679012345673,0)" xlink:href="#be"/><use transform="matrix(0.06172839506172839,0,0,0.06172839506172839,220.8024691358024,0)" xlink:href="#ab"/><use transform="matrix(0.06172839506172839,0,0,0.06172839506172839,233.14814814814807,0)" xlink:href="#ac"/><use transform="matrix(0.06172839506172839,0,0,0.06172839506172839,245.49382716049374,0)" xlink:href="#S"/><use transform="matrix(0.06172839506172839,0,0,0.06172839506172839,251.66666666666657,0)" xlink:href="#W"/><use transform="matrix(0.06172839506172839,0,0,0.06172839506172839,256.54320987654313,0)" xlink:href="#aW"/><use transform="matrix(0.06172839506172839,0,0,0.06172839506172839,267.6543209876542,0)" xlink:href="#Q"/><use transform="matrix(0.06172839506172839,0,0,0.06172839506172839,279.9999999999999,0)" xlink:href="#S"/><use transform="matrix(0.06172839506172839,0,0,0.06172839506172839,286.17283950617275,0)" xlink:href="#W"/><use transform="matrix(0.06172839506172839,0,0,0.06172839506172839,291.0493827160493,0)" xlink:href="#Z"/><use transform="matrix(0.06172839506172839,0,0,0.06172839506172839,303.395061728395,0)" xlink:href="#ac"/><use transform="matrix(0.06172839506172839,0,0,0.06172839506172839,315.74074074074065,0)" xlink:href="#Y"/><use transform="matrix(0.06172839506172839,0,0,0.06172839506172839,326.79012345679007,0)" xlink:href="#Z"/><use transform="matrix(0.06172839506172839,0,0,0.06172839506172839,339.13580246913574,0)" xlink:href="#aa"/><use transform="matrix(0.06172839506172839,0,0,0.06172839506172839,350.2469135802468,0)" xlink:href="#ab"/><use transform="matrix(0.06172839506172839,0,0,0.06172839506172839,362.5925925925925,0)" xlink:href="#ac"/><use transform="matrix(0.06172839506172839,0,0,0.06172839506172839,374.93827160493817,0)" xlink:href="#aM"/></g><path d="M115-194c53 0 69 39 70 98 0 66-23 100-70 100C84 3 66-7 56-30L54 0H23l1-261h32v101c10-23 28-34 59-34zm-8 174c40 0 45-34 45-75 0-40-5-75-45-74-42 0-51 32-51 76 0 43 10 73 51 73" id="bg"/><path d="M101-234c-31-9-42 10-38 44h38v23H63V0H32v-167H5v-23h27c-7-52 17-82 69-68v24" id="bh"/><path d="M177-190C167-65 218 103 67 71c-23-6-38-20-44-43l32-5c15 47 100 32 89-28v-30C133-14 115 1 83 1 29 1 15-40 15-95c0-56 16-97 71-98 29-1 48 16 59 35 1-10 0-23 2-32h30zM94-22c36 0 50-32 50-73 0-42-14-75-50-75-39 0-46 34-46 75s6 73 46 73" id="bi"/><g id="E"><use transform="matrix(0.05,0,0,0.05,0,0)" xlink:href="#aA"/><use transform="matrix(0.05,0,0,0.05,16.599999999999998,0)" xlink:href="#al"/><use transform="matrix(0.05,0,0,0.05,26.599999999999994,0)" xlink:href="#bg"/><use transform="matrix(0.05,0,0,0.05,36.599999999999994,0)" xlink:href="#ak"/><use transform="matrix(0.05,0,0,0.05,48.599999999999994,0)" xlink:href="#al"/><use transform="matrix(0.05,0,0,0.05,58.599999999999994,0)" xlink:href="#am"/><use transform="matrix(0.05,0,0,0.05,67.6,0)" xlink:href="#an"/><use transform="matrix(0.05,0,0,0.05,77.6,0)" xlink:href="#ao"/><use transform="matrix(0.05,0,0,0.05,83.55,0)" xlink:href="#ap"/><use transform="matrix(0.05,0,0,0.05,87.5,0)" xlink:href="#aq"/><use transform="matrix(0.05,0,0,0.05,92.5,0)" xlink:href="#ar"/><use transform="matrix(0.05,0,0,0.05,101.5,0)" xlink:href="#as"/><use transform="matrix(0.05,0,0,0.05,114.45,0)" xlink:href="#at"/><use transform="matrix(0.05,0,0,0.05,124.45,0)" xlink:href="#au"/><use transform="matrix(0.05,0,0,0.05,134.45,0)" xlink:href="#bh"/><use transform="matrix(0.05,0,0,0.05,139.45,0)" xlink:href="#ap"/><use transform="matrix(0.05,0,0,0.05,143.39999999999998,0)" xlink:href="#bi"/><path d="M-.9 1.25h155.2v1.32H-.9z"/></g><g id="F"><use transform="matrix(0.061728395061728385,0,0,0.061728395061728385,0,0)" xlink:href="#X"/><use transform="matrix(0.061728395061728385,0,0,0.061728395061728385,12.345679012345677,0)" xlink:href="#Z"/><use transform="matrix(0.061728395061728385,0,0,0.061728395061728385,24.691358024691354,0)" xlink:href="#aD"/><use transform="matrix(0.061728395061728385,0,0,0.061728395061728385,38.20987654320987,0)" xlink:href="#W"/><use transform="matrix(0.061728395061728385,0,0,0.061728395061728385,43.08641975308642,0)" xlink:href="#R"/><use transform="matrix(0.061728395061728385,0,0,0.061728395061728385,47.96296296296296,0)" xlink:href="#S"/><use transform="matrix(0.061728395061728385,0,0,0.061728395061728385,54.1358024691358,0)" xlink:href="#ab"/><use transform="matrix(0.061728395061728385,0,0,0.061728395061728385,66.48148148148147,0)" xlink:href="#ah"/><use transform="matrix(0.061728395061728385,0,0,0.061728395061728385,73.82716049382715,0)" xlink:href="#aF"/><use transform="matrix(0.06172839506172837,0,0,0.06172839506172837,81.17283950617283,0)" xlink:href="#ah"/><use transform="matrix(0.06172839506172837,0,0,0.06172839506172837,88.5185185185185,0)" xlink:href="#ab"/><use transform="matrix(0.06172839506172837,0,0,0.06172839506172837,100.86419753086417,0)" xlink:href="#aK"/><use transform="matrix(0.06172839506172837,0,0,0.06172839506172837,113.20987654320984,0)" xlink:href="#af"/><use transform="matrix(0.06172839506172837,0,0,0.06172839506172837,125.55555555555551,0)" xlink:href="#ab"/><use transform="matrix(0.06172839506172837,0,0,0.06172839506172837,137.90123456790118,0)" xlink:href="#ag"/><use transform="matrix(0.06172839506172837,0,0,0.06172839506172837,149.0123456790123,0)" xlink:href="#S"/><use transform="matrix(0.061728395061728385,0,0,0.061728395061728385,155.18518518518513,0)" xlink:href="#aL"/><use transform="matrix(0.061728395061728385,0,0,0.061728395061728385,161.35802469135797,0)" xlink:href="#ah"/><use transform="matrix(0.061728395061728385,0,0,0.061728395061728385,168.70370370370364,0)" xlink:href="#ab"/><use transform="matrix(0.061728395061728385,0,0,0.061728395061728385,181.0493827160493,0)" xlink:href="#ag"/><use transform="matrix(0.061728395061728385,0,0,0.061728395061728385,192.16049382716042,0)" xlink:href="#ae"/><use transform="matrix(0.061728395061728385,0,0,0.061728395061728385,204.5061728395061,0)" xlink:href="#Z"/><use transform="matrix(0.061728395061728385,0,0,0.061728395061728385,216.85185185185176,0)" xlink:href="#ac"/><use transform="matrix(0.061728395061728385,0,0,0.061728395061728385,229.19753086419743,0)" xlink:href="#ag"/><use transform="matrix(0.061728395061728385,0,0,0.061728395061728385,240.30864197530855,0)" xlink:href="#ab"/><use transform="matrix(0.061728395061728385,0,0,0.061728395061728385,252.65432098765422,0)" xlink:href="#aM"/></g><g id="G"><use transform="matrix(0.06172839506172839,0,0,0.06172839506172839,0,0)" xlink:href="#Q"/><use transform="matrix(0.06172839506172839,0,0,0.06172839506172839,12.345679012345679,0)" xlink:href="#X"/><use transform="matrix(0.06172839506172839,0,0,0.06172839506172839,24.691358024691358,0)" xlink:href="#X"/><use transform="matrix(0.06172839506172839,0,0,0.06172839506172839,37.03703703703704,0)" xlink:href="#aT"/><use transform="matrix(0.06172839506172839,0,0,0.06172839506172839,53.02469135802469,0)" xlink:href="#ag"/><use transform="matrix(0.06172839506172839,0,0,0.06172839506172839,64.1358024691358,0)" xlink:href="#ab"/><use transform="matrix(0.06172839506172839,0,0,0.06172839506172839,76.48148148148148,0)" xlink:href="#ah"/><use transform="matrix(0.06172839506172839,0,0,0.06172839506172839,83.82716049382717,0)" xlink:href="#aF"/><use transform="matrix(0.06172839506172839,0,0,0.06172839506172839,91.17283950617285,0)" xlink:href="#af"/><use transform="matrix(0.06172839506172839,0,0,0.06172839506172839,103.51851851851853,0)" xlink:href="#ag"/><use transform="matrix(0.06172839506172839,0,0,0.06172839506172839,114.62962962962965,0)" xlink:href="#ab"/><use transform="matrix(0.06172839506172839,0,0,0.06172839506172839,126.97530864197533,0)" xlink:href="#ah"/></g><use transform="matrix(0.06172839506172839,0,0,0.06172839506172839,0,0)" xlink:href="#aG" id="H"/><g id="I"><use transform="matrix(0.06172839506172839,0,0,0.06172839506172839,0,0)" xlink:href="#aI"/><use transform="matrix(0.06172839506172839,0,0,0.06172839506172839,14.814814814814813,0)" xlink:href="#S"/><use transform="matrix(0.06172839506172839,0,0,0.06172839506172839,20.98765432098765,0)" xlink:href="#ah"/><use transform="matrix(0.06172839506172839,0,0,0.06172839506172839,28.33333333333333,0)" xlink:href="#W"/><use transform="matrix(0.06172839506172839,0,0,0.06172839506172839,33.20987654320987,0)" xlink:href="#ac"/><use transform="matrix(0.06172839506172839,0,0,0.06172839506172839,45.55555555555555,0)" xlink:href="#aS"/><use transform="matrix(0.06172839506172839,0,0,0.06172839506172839,57.90123456790123,0)" xlink:href="#aM"/></g><path fill="#333" d="M186 0v-106H76V0H24v-248h52v99h110v-99h50V0h-50" id="bj"/><path fill="#333" d="M115-3C79 11 28 4 28-45v-112H4v-33h27l15-45h31v45h36v33H77v99c-1 23 16 31 38 25v30" id="bk"/><path fill="#333" d="M135-194c53 0 70 44 70 98 0 56-19 98-73 100-31 1-45-17-59-34 3 33 2 69 2 105H25l-1-265h48c2 10 0 23 3 31 11-24 29-35 60-35zM114-30c33 0 39-31 40-66 0-38-9-64-40-64-56 0-55 130 0 130" id="bl"/><path fill="#333" d="M240-174c0 40-23 61-54 70L253 0h-59l-57-94H76V0H24v-248c93 4 217-23 216 74zM76-134c48-2 112 12 112-38 0-48-66-32-112-35v73" id="bm"/><path fill="#333" d="M185-48c-13 30-37 53-82 52C43 2 14-33 14-96s30-98 90-98c62 0 83 45 84 108H66c0 31 8 55 39 56 18 0 30-7 34-22zm-45-69c5-46-57-63-70-21-2 6-4 13-4 21h74" id="bn"/><path fill="#333" d="M137-138c1-29-70-34-71-4 15 46 118 7 119 86 1 83-164 76-172 9l43-7c4 19 20 25 44 25 33 8 57-30 24-41C81-84 22-81 20-136c-2-80 154-74 161-7" id="bo"/><path fill="#333" d="M110-194c64 0 96 36 96 99 0 64-35 99-97 99-61 0-95-36-95-99 0-62 34-99 96-99zm-1 164c35 0 45-28 45-65 0-40-10-65-43-65-34 0-45 26-45 65 0 36 10 65 43 65" id="bp"/><path fill="#333" d="M135-194c87-1 58 113 63 194h-50c-7-57 23-157-34-157-59 0-34 97-39 157H25l-1-190h47c2 12-1 28 3 38 12-26 28-41 61-42" id="bq"/><g id="J"><use transform="matrix(0.04938271604938272,0,0,0.04938271604938272,0,0)" xlink:href="#bj"/><use transform="matrix(0.04938271604938272,0,0,0.04938271604938272,12.790123456790125,0)" xlink:href="#bk"/><use transform="matrix(0.04938271604938272,0,0,0.04938271604938272,18.666666666666668,0)" xlink:href="#bk"/><use transform="matrix(0.04938271604938272,0,0,0.04938271604938272,24.543209876543212,0)" xlink:href="#bl"/><use transform="matrix(0.04938271604938272,0,0,0.04938271604938272,35.358024691358025,0)" xlink:href="#bm"/><use transform="matrix(0.04938271604938272,0,0,0.04938271604938272,48.14814814814815,0)" xlink:href="#bn"/><use transform="matrix(0.04938271604938272,0,0,0.04938271604938272,58.0246913580247,0)" xlink:href="#bo"/><use transform="matrix(0.04938271604938272,0,0,0.04938271604938272,67.90123456790124,0)" xlink:href="#bl"/><use transform="matrix(0.04938271604938272,0,0,0.04938271604938272,78.71604938271605,0)" xlink:href="#bp"/><use transform="matrix(0.04938271604938272,0,0,0.04938271604938272,89.53086419753086,0)" xlink:href="#bq"/><use transform="matrix(0.04938271604938272,0,0,0.04938271604938272,100.34567901234567,0)" xlink:href="#bo"/><use transform="matrix(0.04938271604938272,0,0,0.04938271604938272,110.22222222222221,0)" xlink:href="#bn"/></g><path d="M233-177c-1 41-23 64-60 70L243 0h-38l-65-103H63V0H30v-248c88 3 205-21 203 71zM63-129c60-2 137 13 137-47 0-61-80-42-137-45v92" id="br"/><path d="M115-194c55 1 70 41 70 98S169 2 115 4C84 4 66-9 55-30l1 105H24l-1-265h31l2 30c10-21 28-34 59-34zm-8 174c40 0 45-34 45-75s-6-73-45-74c-42 0-51 32-51 76 0 43 10 73 51 73" id="bs"/><g id="K"><use transform="matrix(0.05,0,0,0.05,0,0)" xlink:href="#aj"/><use transform="matrix(0.05,0,0,0.05,5,0)" xlink:href="#aP"/><use transform="matrix(0.05,0,0,0.05,17.950000000000003,0)" xlink:href="#aQ"/><use transform="matrix(0.05,0,0,0.05,26.950000000000003,0)" xlink:href="#al"/><use transform="matrix(0.05,0,0,0.05,36.95,0)" xlink:href="#ao"/><use transform="matrix(0.05,0,0,0.05,42.900000000000006,0)" xlink:href="#br"/><use transform="matrix(0.05,0,0,0.05,55.85,0)" xlink:href="#al"/><use transform="matrix(0.05,0,0,0.05,65.85000000000001,0)" xlink:href="#bs"/><use transform="matrix(0.05,0,0,0.05,75.85000000000001,0)" xlink:href="#at"/><use transform="matrix(0.05,0,0,0.05,85.85000000000001,0)" xlink:href="#aQ"/><use transform="matrix(0.05,0,0,0.05,94.85000000000001,0)" xlink:href="#ap"/><use transform="matrix(0.05,0,0,0.05,98.80000000000001,0)" xlink:href="#aq"/><use transform="matrix(0.05,0,0,0.05,103.80000000000001,0)" xlink:href="#at"/><use transform="matrix(0.05,0,0,0.05,113.80000000000001,0)" xlink:href="#ao"/><use transform="matrix(0.05,0,0,0.05,119.75,0)" xlink:href="#ar"/><path d="M-.9 1.25h130.55v1.32H-.9z"/></g><path fill="#333" d="M101-234c-31-9-42 10-38 44h38v23H63V0H32v-167H5v-23h27c-7-52 17-82 69-68v24" id="bt"/><path fill="#333" d="M190 0L58-211 59 0H30v-248h39L202-35l-2-213h31V0h-41" id="bu"/><path fill="#333" d="M210-169c-67 3-38 105-44 169h-31v-121c0-29-5-50-35-48C34-165 62-65 56 0H25l-1-190h30c1 10-1 24 2 32 10-44 99-50 107 0 11-21 27-35 58-36 85-2 47 119 55 194h-31v-121c0-29-5-49-35-48" id="bv"/><g id="L"><use transform="matrix(0.055555555555555546,0,0,0.055555555555555546,0,0)" xlink:href="#bt"/><use transform="matrix(0.055555555555555546,0,0,0.055555555555555546,5.5555555555555545,0)" xlink:href="#W"/><use transform="matrix(0.055555555555555546,0,0,0.055555555555555546,9.944444444444443,0)" xlink:href="#ac"/><use transform="matrix(0.055555555555555546,0,0,0.055555555555555546,21.05555555555555,0)" xlink:href="#X"/><use transform="matrix(0.055555555555555546,0,0,0.055555555555555546,32.16666666666666,0)" xlink:href="#aU"/><use transform="matrix(0.055555555555555546,0,0,0.055555555555555546,45.499999999999986,0)" xlink:href="#aV"/><use transform="matrix(0.055555555555555546,0,0,0.055555555555555546,55.499999999999986,0)" xlink:href="#bu"/><use transform="matrix(0.055555555555555546,0,0,0.055555555555555546,69.88888888888887,0)" xlink:href="#Q"/><use transform="matrix(0.055555555555555546,0,0,0.055555555555555546,80.99999999999999,0)" xlink:href="#bv"/><use transform="matrix(0.055555555555555546,0,0,0.055555555555555546,97.61111111111109,0)" xlink:href="#ab"/><use transform="matrix(0.055555555555555546,0,0,0.055555555555555546,108.7222222222222,0)" xlink:href="#aF"/><use transform="matrix(0.055555555555555546,0,0,0.055555555555555546,115.33333333333331,0)" xlink:href="#af"/><use transform="matrix(0.055555555555555546,0,0,0.055555555555555546,126.44444444444443,0)" xlink:href="#ag"/><use transform="matrix(0.055555555555555546,0,0,0.055555555555555546,136.44444444444443,0)" xlink:href="#ab"/><use transform="matrix(0.055555555555555546,0,0,0.055555555555555546,147.55555555555554,0)" xlink:href="#ah"/></g><use transform="matrix(0.055555555555555546,0,0,0.055555555555555546,0,0)" xlink:href="#aG" id="M"/><g id="N"><use transform="matrix(0.055555555555555546,0,0,0.055555555555555546,0,0)" xlink:href="#aI"/><use transform="matrix(0.055555555555555546,0,0,0.055555555555555546,13.33333333333333,0)" xlink:href="#S"/><use transform="matrix(0.055555555555555546,0,0,0.055555555555555546,18.888888888888886,0)" xlink:href="#ah"/><use transform="matrix(0.055555555555555546,0,0,0.055555555555555546,25.499999999999996,0)" xlink:href="#W"/><use transform="matrix(0.055555555555555546,0,0,0.055555555555555546,29.888888888888882,0)" xlink:href="#ac"/><use transform="matrix(0.055555555555555546,0,0,0.055555555555555546,40.99999999999999,0)" xlink:href="#aS"/><use transform="matrix(0.055555555555555546,0,0,0.055555555555555546,52.1111111111111,0)" xlink:href="#aM"/></g><g id="O"><use transform="matrix(0.06172839506172839,0,0,0.06172839506172839,0,0)" xlink:href="#ag"/><use transform="matrix(0.06172839506172839,0,0,0.06172839506172839,11.11111111111111,0)" xlink:href="#Q"/><use transform="matrix(0.06172839506172839,0,0,0.06172839506172839,23.45679012345679,0)" xlink:href="#V"/><use transform="matrix(0.06172839506172839,0,0,0.06172839506172839,34.5679012345679,0)" xlink:href="#ab"/><use transform="matrix(0.06172839506172839,0,0,0.06172839506172839,46.913580246913575,0)" xlink:href="#aF"/><use transform="matrix(0.06172839506172839,0,0,0.06172839506172839,54.25925925925925,0)" xlink:href="#af"/><use transform="matrix(0.06172839506172839,0,0,0.06172839506172839,66.60493827160494,0)" xlink:href="#ag"/><use transform="matrix(0.06172839506172839,0,0,0.06172839506172839,77.71604938271605,0)" xlink:href="#ab"/><use transform="matrix(0.06172839506172839,0,0,0.06172839506172839,90.06172839506173,0)" xlink:href="#ah"/></g><g id="P"><use transform="matrix(0.06172839506172839,0,0,0.06172839506172839,0,0)" xlink:href="#aT"/><use transform="matrix(0.06172839506172839,0,0,0.06172839506172839,15.987654320987653,0)" xlink:href="#ag"/><use transform="matrix(0.06172839506172839,0,0,0.06172839506172839,27.098765432098766,0)" xlink:href="#ab"/><use transform="matrix(0.06172839506172839,0,0,0.06172839506172839,39.44444444444444,0)" xlink:href="#ah"/><use transform="matrix(0.06172839506172839,0,0,0.06172839506172839,46.79012345679012,0)" xlink:href="#aM"/></g></defs></g></svg>